<?xml version="1.0" encoding="iso-8859-1"?>
<!-- Generator: Adobe Illustrator 14.0.0, SVG Export Plug-In . SVG Version: 6.00 Build 43363)  -->
<!DOCTYPE svg PUBLIC "-//W3C//DTD SVG 1.1//EN" "http://www.w3.org/Graphics/SVG/1.1/DTD/svg11.dtd">
<svg version="1.1" id="Calque_1" xmlns="http://www.w3.org/2000/svg" xmlns:xlink="http://www.w3.org/1999/xlink" x="0px" y="0px"
	 width="120px" height="77px" viewBox="0 0 120 77" style="enable-background:new 0 0 120 77;" xml:space="preserve">
<g>
	<rect style="fill-rule:evenodd;clip-rule:evenodd;fill:#FF645A;" width="120" height="77"/>
</g>
<g>
	<path style="fill:#00AA91;" d="M27.871,14.671c7.85,0,20.647-0.577,26.479,1.688c3.519,1.368,6.356,5.517,6.719,8.628
		c0.501,4.315-1.619,8.846-5.603,10.836c4.651,1.492,8.603,4.88,9.257,9.88c0.85,6.521-2.078,13.101-9.234,15.491
		c-3.668,1.225-22.965,0.744-27.688,0.734C27.801,55.213,27.871,15.231,27.871,14.671z M38.3,22.961
		c-0.007,3.514-0.015,7.348-0.009,10.932c0.001,0.353,0.081,0.361,0.436,0.36c4.061-0.012,8.434,0.43,10.814-3.009
		c1.723-2.486,0.988-5.369-1.155-7.167c-0.853-0.714-1.889-1.23-3.026-1.429c-2.123-0.371-4.123-0.182-6.605-0.177
		C38.415,22.473,38.301,22.591,38.3,22.961z M38.334,41.985c-0.006,2.342-0.006,8.291,0,12.03c0.001,0.371,0.261,0.432,0.449,0.432
		c3.854-0.008,9.602,0.201,11.465-0.514c3.401-1.308,4.352-4.738,3.567-8.007c-0.724-3.016-3.536-4.398-6.352-4.408
		c-2.251-0.008-5.526,0.01-8.677,0.016C38.414,41.534,38.336,41.581,38.334,41.985z"/>
	<path style="fill:#640082;" d="M70.5,14.793c-0.006,7.098,0.012,14.119,0.012,20.539c3.406-3.773,8.98-5.705,13.906-3.838
		c9.38,3.555,11.947,15.641,6.497,23.81c-5.341,8.004-15.593,8.393-23.714,5.326c0-14.559,0-30.548,0.019-45.849
		C68.34,14.782,70.5,14.793,70.5,14.793z M70.703,38.929c0,0,0.016,12.716,0.016,19.051c3.895,2.17,8.096,1.986,12.041,0.391
		c6.494-2.627,9.166-10.486,6.953-17.026c-1.841-5.447-7.756-9.071-13.225-7.021C74.165,35.194,72.338,36.331,70.703,38.929z"/>
</g>
</svg>
