<?xml version="1.0" encoding="iso-8859-1"?>
<!-- Generator: Adobe Illustrator 14.0.0, SVG Export Plug-In . SVG Version: 6.00 Build 43363)  -->
<!DOCTYPE svg PUBLIC "-//W3C//DTD SVG 1.1//EN" "http://www.w3.org/Graphics/SVG/1.1/DTD/svg11.dtd">
<svg version="1.1" id="Calque_1" xmlns="http://www.w3.org/2000/svg" xmlns:xlink="http://www.w3.org/1999/xlink" x="0px" y="0px"
	 width="120px" height="77px" viewBox="0 0 120 77" style="enable-background:new 0 0 120 77;" xml:space="preserve">
<g>
	<g>
		<rect style="fill-rule:evenodd;clip-rule:evenodd;fill:#82C8E6;" width="120" height="77"/>
	</g>
	<g>
		<path d="M15.466,71.279l-0.149-6.058c-0.015-0.418,0.016-1.117,0.016-1.385h-0.03c-0.045,0.313-0.104,0.685-0.357,1.385
			l-2.202,6.058h-1.651l-2.247-6.163c-0.193-0.521-0.253-0.893-0.298-1.22H8.517c0,0.327,0.029,0.938,0.015,1.266l-0.179,6.117
			H6.328l0.357-10.509h2.589l2.352,6.371c0.238,0.654,0.402,1.205,0.417,1.458h0.029c0.045-0.253,0.193-0.804,0.417-1.458
			l2.158-6.371h2.648l0.416,10.509H15.466z"/>
		<path d="M23.157,71.562c-2.604,0-3.765-1.964-3.765-4.227c0-2.248,1.265-4.228,3.84-4.228c2.604,0,3.765,1.95,3.765,4.212
			C26.997,69.567,25.732,71.562,23.157,71.562z M23.217,64.745c-1.324,0-1.651,1.473-1.651,2.59c0,1.116,0.268,2.589,1.592,2.589
			c1.325,0,1.682-1.488,1.682-2.604S24.541,64.745,23.217,64.745z"/>
		<path d="M33.396,71.279v-4.971c0-0.805-0.282-1.355-1.191-1.355c-0.415,0-0.788,0.179-1.011,0.387
			c-0.401,0.388-0.432,0.581-0.432,1.116v4.823h-2.084v-7.948h1.935v1.19c0.565-0.849,1.31-1.384,2.396-1.384
			c1.771,0,2.471,1.19,2.471,2.738v5.403H33.396z"/>
		<path d="M40.166,71.383c-1.414,0-2.292-0.759-2.292-2.292v-4.108h-1.354v-1.487h1.384v-1.623l2.068-0.67v2.293h1.801v1.487h-1.801
			v3.855c0,0.789,0.417,0.968,0.893,0.968c0.432,0,0.729-0.104,0.908-0.164l0.208,1.533C41.595,71.279,40.865,71.383,40.166,71.383z
			"/>
		<path d="M52.247,71.279v-4.971c0-0.805-0.298-1.355-1.086-1.355c-0.388,0-0.7,0.163-0.894,0.372
			c-0.356,0.387-0.387,0.625-0.387,1.131v4.823h-2.098v-4.971c0-0.805-0.283-1.355-1.072-1.355c-0.387,0-0.714,0.163-0.907,0.372
			c-0.357,0.387-0.388,0.596-0.388,1.131v4.823h-2.083v-7.948h1.83v1.176c0.551-0.863,1.206-1.369,2.308-1.369
			c1.057,0,1.756,0.49,2.143,1.429c0.551-0.833,1.265-1.429,2.321-1.429c1.711,0,2.396,1.19,2.396,2.738v5.403H52.247z"/>
		<path d="M61.801,71.428c-0.744,0-1.115-0.461-1.234-1.086c-0.655,0.773-1.265,1.19-2.352,1.19c-1.398,0-2.351-1.042-2.351-2.396
			c0-2.158,2.262-2.575,4.018-2.575c0.327,0,0.521-0.016,0.521-0.282v-0.551c0-0.611-0.461-1.013-1.458-1.013
			c-0.923,0-1.622,0.432-1.964,0.729l-0.685-1.443c0.937-0.596,1.89-0.834,3.169-0.834c1.116,0,2.917,0.401,2.917,2.693v3.572
			c0,0.283,0.029,0.521,0.282,0.521c0.089,0,0.253-0.045,0.343-0.074l0.119,1.354C62.813,71.309,62.292,71.428,61.801,71.428z
			 M60.388,67.841c-0.179-0.015-0.401,0-0.625,0c-0.729,0-1.83,0.179-1.83,1.131c0,0.58,0.417,0.998,0.997,0.998
			c0.461,0,0.848-0.149,1.116-0.432c0.237-0.253,0.342-0.552,0.342-0.938V67.841z"/>
		<path d="M68.662,65.399c-0.148-0.06-0.417-0.208-0.699-0.208c-0.387,0-0.685,0.134-0.863,0.313
			c-0.238,0.253-0.297,0.565-0.297,1.012v4.764h-2.099V65.34c0-0.685-0.06-1.637-0.074-2.009h1.875v1.22
			c0.476-0.759,0.967-1.384,1.949-1.384c0.298,0,0.595,0.089,0.759,0.148L68.662,65.399z"/>
		<path d="M73.526,71.383c-1.414,0-2.292-0.759-2.292-2.292v-4.108H69.88v-1.487h1.385v-1.623l2.068-0.67v2.293h1.801v1.487h-1.801
			v3.855c0,0.789,0.416,0.968,0.893,0.968c0.432,0,0.729-0.104,0.908-0.164l0.207,1.533C74.954,71.279,74.226,71.383,73.526,71.383z
			"/>
		<path d="M80.726,65.399c-0.148-0.06-0.416-0.208-0.699-0.208c-0.387,0-0.685,0.134-0.863,0.313
			c-0.238,0.253-0.297,0.565-0.297,1.012v4.764h-2.099V65.34c0-0.685-0.06-1.637-0.074-2.009h1.875v1.22
			c0.477-0.759,0.967-1.384,1.949-1.384c0.298,0,0.595,0.089,0.759,0.148L80.726,65.399z"/>
		<path d="M85.546,71.562c-2.604,0-3.765-1.964-3.765-4.227c0-2.248,1.265-4.228,3.839-4.228c2.604,0,3.765,1.95,3.765,4.212
			C89.385,69.567,88.12,71.562,85.546,71.562z M85.605,64.745c-1.324,0-1.651,1.473-1.651,2.59c0,1.116,0.268,2.589,1.592,2.589
			s1.682-1.488,1.682-2.604S86.93,64.745,85.605,64.745z"/>
		<path d="M94.788,71.472c-0.596,0-1.295-0.237-1.697-0.609v0.417h-2.023V60.265h2.099v4.153c0.535-0.774,1.146-1.311,2.157-1.311
			c2.083,0,2.946,2.174,2.946,4.093C98.27,68.986,97.332,71.472,94.788,71.472z M94.535,64.909c-0.417,0-0.744,0.178-0.968,0.401
			c-0.356,0.342-0.401,0.565-0.401,1.027v2.604c0,0.551,0.327,1.042,1.279,1.042c1.34,0,1.637-1.399,1.637-2.485
			C96.082,66.427,95.859,64.909,94.535,64.909z"/>
		<path d="M104.639,71.279v-1.161c-0.55,0.833-1.25,1.384-2.306,1.384c-1.712,0-2.426-1.19-2.426-2.738v-5.433h2.112v5.061
			c0,0.804,0.283,1.369,1.072,1.369c0.387,0,0.714-0.163,0.907-0.372c0.357-0.387,0.388-0.596,0.388-1.131v-4.927h2.098v7.948
			H104.639z"/>
		<path d="M110.411,71.547c-0.997,0-1.89-0.342-2.336-0.61l0.64-1.563c0.506,0.356,1.235,0.596,1.86,0.596
			c0.551,0,1.221-0.179,1.221-0.805c0-0.55-0.596-0.714-1.013-0.878l-0.938-0.357c-1.131-0.431-1.593-1.161-1.593-2.099
			c0-1.503,1.266-2.679,3.125-2.679c0.998,0,1.727,0.313,2.144,0.521l-0.64,1.533c-0.462-0.297-1.102-0.476-1.607-0.476
			c-0.699,0-1.102,0.282-1.102,0.759c0,0.416,0.328,0.61,0.833,0.789l0.968,0.357c1.071,0.401,1.771,1.056,1.771,2.262
			C113.745,70.445,112.494,71.547,110.411,71.547z"/>
	</g>
	<g>
		<g>
			<polygon points="43.063,50.771 76.936,50.771 77.475,51.905 42.522,51.905 			"/>
			<polygon points="42.091,52.813 77.906,52.813 78.447,53.947 41.551,53.947 			"/>
			<polygon points="41.119,54.854 78.879,54.854 79.422,55.989 40.576,55.989 			"/>
		</g>
		<g>
			<g>
				<path style="fill-rule:evenodd;clip-rule:evenodd;" d="M42.84,33.828c0,0,0.339-0.927,0.615-1.027
					c0.25-0.09,0-3.354,3.011-5.134l0.444-0.787v-3.013c0,0,0.564-1.42,0.787-1.643h0.182c0.223,0.223,0.787,1.643,0.787,1.643
					v3.013l0.444,0.787c3.011,1.779,2.761,5.044,3.011,5.134c0.276,0.101,0.616,1.027,0.616,1.027
					C49.537,32.427,46.238,32.427,42.84,33.828z"/>
				<path d="M43.303,34.133v16.042h8.971V34.111C49.908,33.365,45.775,33.372,43.303,34.133z"/>
			</g>
			<g>
				<path style="fill-rule:evenodd;clip-rule:evenodd;" d="M77.124,33.828c0,0-0.339-0.927-0.616-1.027
					c-0.25-0.09,0-3.354-3.011-5.134l-0.443-0.787v-3.013c0,0-0.565-1.42-0.787-1.643h-0.182c-0.223,0.223-0.787,1.643-0.787,1.643
					v3.013l-0.444,0.787c-3.011,1.779-2.761,5.044-3.011,5.134c-0.276,0.101-0.616,1.027-0.616,1.027
					C70.427,32.427,73.727,32.427,77.124,33.828z"/>
				<path d="M76.661,34.133v16.042h-8.972V34.111C70.056,33.365,74.189,33.372,76.661,34.133z"/>
			</g>
		</g>
		<g>
			<path style="fill-rule:evenodd;clip-rule:evenodd;" d="M68.557,25.917c0,0-0.588-1.606-1.066-1.779
				c-0.434-0.156,0-5.812-5.217-8.896l-0.771-1.364V8.658c0,0-0.979-2.462-1.362-2.847h-0.314c-0.386,0.385-1.363,2.847-1.363,2.847
				v5.219l-0.771,1.364c-5.217,3.085-4.784,8.74-5.217,8.896c-0.479,0.173-1.067,1.779-1.067,1.779
				C56.951,23.489,62.668,23.489,68.557,25.917z"/>
			<path d="M67.755,26.445v23.729H52.21V26.408C56.309,25.115,63.47,25.127,67.755,26.445z"/>
		</g>
		<path style="fill-rule:evenodd;clip-rule:evenodd;stroke:#82C8E6;stroke-width:0.7291;stroke-miterlimit:3.8637;" d="
			M46.746,50.175V32.554c0-0.691,0.957-0.958,0.957-0.958s0.054,0.125,0.054-0.354s0.691-1.296,0.691-1.296s0.691,0.816,0.691,1.296
			s0.054,0.354,0.054,0.354s0.958,0.267,0.958,0.958v4.921l6.457-5.082v-3.396l3.372-1.843h0.004l3.371,1.843v3.396l6.456,5.082
			v-4.921c0-0.691,0.959-0.958,0.959-0.958s0.053,0.125,0.053-0.354s0.692-1.296,0.692-1.296s0.692,0.816,0.692,1.296
			s0.053,0.354,0.053,0.354s0.957,0.267,0.957,0.958v17.621H46.746z"/>
		
			<line style="fill:none;stroke:#82C8E6;stroke-width:0.7264;stroke-miterlimit:3.8637;" x1="42.836" y1="50.175" x2="76.657" y2="50.175"/>
		<g>
			<g>
				
					<path style="fill-rule:evenodd;clip-rule:evenodd;fill:#82C8E6;stroke:#82C8E6;stroke-width:0.6012;stroke-miterlimit:3.8637;" d="
					M58.322,30.833c0-0.878,0.743-1.591,1.66-1.591l0,0c0.917,0,1.659,0.713,1.659,1.591v5.093h-3.319V30.833z"/>
				
					<path style="fill-rule:evenodd;clip-rule:evenodd;fill:#82C8E6;stroke:#82C8E6;stroke-width:0.6012;stroke-miterlimit:3.8637;" d="
					M58.282,41.442c0-1.119,0.761-2.025,1.7-2.025l0,0c0.938,0,1.699,0.906,1.699,2.025v8.361h-3.399V41.442z"/>
			</g>
			<g>
				
					<path style="fill-rule:evenodd;clip-rule:evenodd;fill:#82C8E6;stroke:#82C8E6;stroke-width:0.6012;stroke-miterlimit:3.8637;" d="
					M51.684,43.321c0-1.117,0.743-2.024,1.66-2.024l0,0c0.916,0,1.659,0.907,1.659,2.024v6.482h-3.319V43.321z"/>
				
					<path style="fill-rule:evenodd;clip-rule:evenodd;fill:#82C8E6;stroke:#82C8E6;stroke-width:0.6012;stroke-miterlimit:3.8637;" d="
					M64.961,43.321c0-1.117,0.742-2.024,1.659-2.024l0,0c0.916,0,1.66,0.907,1.66,2.024v6.482h-3.319V43.321z"/>
			</g>
		</g>
	</g>
</g>
</svg>
