<?xml version="1.0" encoding="iso-8859-1"?>
<!-- Generator: Adobe Illustrator 14.0.0, SVG Export Plug-In . SVG Version: 6.00 Build 43363)  -->
<!DOCTYPE svg PUBLIC "-//W3C//DTD SVG 1.1//EN" "http://www.w3.org/Graphics/SVG/1.1/DTD/svg11.dtd">
<svg version="1.1" id="Calque_1" xmlns="http://www.w3.org/2000/svg" xmlns:xlink="http://www.w3.org/1999/xlink" x="0px" y="0px"
	 width="120px" height="77px" viewBox="0 0 120 77" style="enable-background:new 0 0 120 77;" xml:space="preserve">
<rect style="fill-rule:evenodd;clip-rule:evenodd;fill:#FF1400;" width="120" height="77"/>
<g>
	<path style="fill:#FFFFFF;" d="M25.377,59.212V26.659c-2.522,1.994-6.51,3.93-9.267,5.162l-2.815-6.335
		c4.34-1.818,9.561-4.575,13.667-7.684h7.214v41.41H25.377z"/>
	<path style="fill:#FFFFFF;" d="M55.001,60.326c-12.494,0-14.957-12.317-14.957-21.878c0-9.561,2.698-21.878,15.191-21.878
		c12.494,0,14.958,12.317,14.958,21.878C70.193,48.009,67.495,60.326,55.001,60.326z M55.119,23.55
		c-5.983,0-6.159,10.675-6.159,14.898c0,4.164,0.293,14.957,6.159,14.957c5.866,0,6.1-10.852,6.1-14.957
		C61.219,34.107,61.043,23.55,55.119,23.55z"/>
	<path style="fill:#FFFFFF;" d="M100.373,50.59v8.622h-8.211V50.59H73.51v-7.684l16.071-25.104h10.792v26.336h4.869v6.452H100.373z
		 M92.162,25.075h-0.117c-0.176,0.704-1.35,3.226-2.992,5.807l-8.445,13.256h11.555V25.075z"/>
</g>
</svg>
