<?xml version="1.0" encoding="iso-8859-1"?>
<!-- Generator: Adobe Illustrator 14.0.0, SVG Export Plug-In . SVG Version: 6.00 Build 43363)  -->
<!DOCTYPE svg PUBLIC "-//W3C//DTD SVG 1.1//EN" "http://www.w3.org/Graphics/SVG/1.1/DTD/svg11.dtd">
<svg version="1.1" id="Calque_1" xmlns="http://www.w3.org/2000/svg" xmlns:xlink="http://www.w3.org/1999/xlink" x="0px" y="0px"
	 width="120px" height="77px" viewBox="0 0 120 77" style="enable-background:new 0 0 120 77;" xml:space="preserve">
<rect style="fill-rule:evenodd;clip-rule:evenodd;fill:#FF5A00;" width="120" height="77"/>
<g>
	<path d="M28.116,59.212V26.659c-2.522,1.994-6.511,3.93-9.267,5.162l-2.815-6.335c4.34-1.818,9.561-4.575,13.667-7.684h7.214v41.41
		H28.116z"/>
	<path d="M57.74,60.326c-12.494,0-14.957-12.317-14.957-21.878c0-9.561,2.698-21.878,15.191-21.878
		c12.494,0,14.957,12.317,14.957,21.878C72.932,48.009,70.233,60.326,57.74,60.326z M57.857,23.55
		c-5.983,0-6.159,10.675-6.159,14.898c0,4.164,0.293,14.957,6.159,14.957s6.1-10.852,6.1-14.957
		C63.957,34.107,63.781,23.55,57.857,23.55z"/>
	<path d="M86.196,60.209c-4.81,0-8.505-1.056-11.672-2.991l3.343-6.452c2.288,1.584,4.635,2.64,7.86,2.64S93,51.47,93,46.602
		c0-2.992-1.994-7.098-9.619-7.215c-2.346,0-5.103-0.059-6.451-0.059l1.642-21.526h21.761v6.921H85.434l-0.586,7.86
		c0.234,0,0.762,0.059,1.173,0.059c11.32,0.528,15.896,6.921,15.896,13.139C101.916,53.698,95.641,60.209,86.196,60.209z"/>
</g>
</svg>
