<?xml version="1.0" encoding="iso-8859-1"?>
<!-- Generator: Adobe Illustrator 14.0.0, SVG Export Plug-In . SVG Version: 6.00 Build 43363)  -->
<!DOCTYPE svg PUBLIC "-//W3C//DTD SVG 1.1//EN" "http://www.w3.org/Graphics/SVG/1.1/DTD/svg11.dtd">
<svg version="1.1" id="Calque_1" xmlns="http://www.w3.org/2000/svg" xmlns:xlink="http://www.w3.org/1999/xlink" x="0px" y="0px"
	 width="120px" height="77px" viewBox="0 0 120 77" style="enable-background:new 0 0 120 77;" xml:space="preserve">
<rect style="fill-rule:evenodd;clip-rule:evenodd;fill:#640082;" width="120" height="77"/>
<g>
	<path style="fill:#FFFFFF;" d="M30.116,59.212V26.659c-2.522,1.994-6.511,3.93-9.267,5.162l-2.815-6.335
		c4.34-1.818,9.561-4.575,13.667-7.684h7.214v41.41H30.116z"/>
	<path style="fill:#FFFFFF;" d="M55.101,59.212V26.659c-2.522,1.994-6.511,3.93-9.267,5.162l-2.815-6.335
		c4.34-1.818,9.561-4.575,13.667-7.684h7.214v41.41H55.101z"/>
	<path style="fill:#FFFFFF;" d="M84.725,60.326c-12.494,0-14.957-12.317-14.957-21.878c0-9.561,2.698-21.878,15.191-21.878
		c12.494,0,14.957,12.317,14.957,21.878C99.916,48.009,97.218,60.326,84.725,60.326z M84.842,23.55
		c-5.982,0-6.158,10.675-6.158,14.898c0,4.164,0.293,14.957,6.158,14.957s6.1-10.852,6.1-14.957
		C90.941,34.107,90.766,23.55,84.842,23.55z"/>
</g>
</svg>
