<?xml version="1.0" encoding="iso-8859-1"?>
<!-- Generator: Adobe Illustrator 14.0.0, SVG Export Plug-In . SVG Version: 6.00 Build 43363)  -->
<!DOCTYPE svg PUBLIC "-//W3C//DTD SVG 1.1//EN" "http://www.w3.org/Graphics/SVG/1.1/DTD/svg11.dtd">
<svg version="1.1" id="Calque_1" xmlns="http://www.w3.org/2000/svg" xmlns:xlink="http://www.w3.org/1999/xlink" x="0px" y="0px"
	 width="120px" height="77px" viewBox="0 0 120 77" style="enable-background:new 0 0 120 77;" xml:space="preserve">
<g>
	<rect style="fill-rule:evenodd;clip-rule:evenodd;fill:#82C8E6;" width="120" height="77"/>
</g>
<g>
	<path d="M30.776,59.212V26.659c-2.522,1.994-6.511,3.93-9.267,5.162l-2.815-6.335c4.34-1.818,9.561-4.575,13.667-7.684h7.214v41.41
		H30.776z"/>
	<path d="M55.761,59.212V26.659c-2.522,1.994-6.511,3.93-9.267,5.162l-2.815-6.335c4.34-1.818,9.561-4.575,13.667-7.684h7.214v41.41
		H55.761z"/>
	<path d="M85.59,60.209c-11.32,0-15.367-7.859-15.367-18.828c0-14.371,6.744-24.694,20.001-24.694c2.347,0,4.458,0.293,6.218,0.704
		L95.15,24.43c-1.114-0.469-3.285-0.997-5.689-0.997c-5.807,0-10.029,4.634-10.617,12.962c1.408-1.231,4.106-2.815,8.564-2.815
		c6.862,0,12.376,4.517,12.376,12.259C99.784,54.109,94.271,60.209,85.59,60.209z M84.769,40.091c-2.64,0-4.751,0.997-5.572,2.287
		c-0.47,0.704-0.47,2.347-0.47,3.578c0,3.93,2.288,7.742,6.512,7.742c4.105,0,6.217-3.343,6.217-6.921
		C91.455,42.906,88.875,40.091,84.769,40.091z"/>
</g>
</svg>
