<?xml version="1.0" encoding="iso-8859-1"?>
<!-- Generator: Adobe Illustrator 14.0.0, SVG Export Plug-In . SVG Version: 6.00 Build 43363)  -->
<!DOCTYPE svg PUBLIC "-//W3C//DTD SVG 1.1//EN" "http://www.w3.org/Graphics/SVG/1.1/DTD/svg11.dtd">
<svg version="1.1" id="Calque_1" xmlns="http://www.w3.org/2000/svg" xmlns:xlink="http://www.w3.org/1999/xlink" x="0px" y="0px"
	 width="120px" height="77px" viewBox="0 0 120 77" style="enable-background:new 0 0 120 77;" xml:space="preserve">
<g>
	<rect style="fill-rule:evenodd;clip-rule:evenodd;fill:#00643C;" width="120" height="77"/>
</g>
<g>
	<path style="fill:#FFFFFF;" d="M32.465,59.212V26.659c-2.522,1.994-6.51,3.93-9.267,5.162l-2.815-6.335
		c4.34-1.818,9.561-4.575,13.667-7.684h7.214v41.41H32.465z"/>
	<path style="fill:#FFFFFF;" d="M57.45,59.212V26.659c-2.522,1.994-6.51,3.93-9.267,5.162l-2.815-6.335
		c4.34-1.818,9.561-4.575,13.667-7.684h7.214v41.41H57.45z"/>
	<path style="fill:#FFFFFF;" d="M84.721,59.212h-9.443c0-5.455,1.467-8.975,5.104-15.72l10.089-18.77H70.352v-6.921h28.975v6.745
		C90.234,40.325,84.721,52.701,84.721,59.212z"/>
</g>
</svg>
