<?xml version="1.0" encoding="iso-8859-1"?>
<!-- Generator: Adobe Illustrator 14.0.0, SVG Export Plug-In . SVG Version: 6.00 Build 43363)  -->
<!DOCTYPE svg PUBLIC "-//W3C//DTD SVG 1.1//EN" "http://www.w3.org/Graphics/SVG/1.1/DTD/svg11.dtd">
<svg version="1.1" id="Calque_1" xmlns="http://www.w3.org/2000/svg" xmlns:xlink="http://www.w3.org/1999/xlink" x="0px" y="0px"
	 width="120px" height="77px" viewBox="0 0 120 77" style="enable-background:new 0 0 120 77;" xml:space="preserve">
<rect style="fill-rule:evenodd;clip-rule:evenodd;fill:#D282BE;" width="120" height="77"/>
<g>
	<path d="M27.899,59.212V26.659c-2.522,1.994-6.511,3.93-9.267,5.162l-2.815-6.335c4.34-1.818,9.561-4.575,13.667-7.684h7.214v41.41
		H27.899z"/>
	<path d="M42.361,59.212v-5.455c1.056-4.81,5.807-9.209,11.32-14.019c2.757-2.404,5.748-5.396,5.748-9.385
		c0-3.578-2.346-6.569-6.863-6.569c-3.636,0-6.159,2.64-7.156,3.754l-4.34-5.748c3.988-3.46,7.684-5.103,13.256-5.103
		c7.273,0,14.136,4.223,14.136,12.669c0,7.098-4.517,10.44-9.502,14.957c-2.112,1.936-6.276,5.572-6.804,7.978h17.068v6.921H42.361z
		"/>
	<path d="M86.942,60.326c-12.493,0-14.957-12.317-14.957-21.878c0-9.561,2.698-21.878,15.191-21.878s14.957,12.317,14.957,21.878
		C102.134,48.009,99.436,60.326,86.942,60.326z M87.06,23.55c-5.983,0-6.159,10.675-6.159,14.898c0,4.164,0.294,14.957,6.159,14.957
		c5.866,0,6.101-10.852,6.101-14.957C93.16,34.107,92.984,23.55,87.06,23.55z"/>
</g>
</svg>
