<?xml version="1.0" encoding="utf-8"?>
<!-- Generator: Adobe Illustrator 21.0.2, SVG Export Plug-In . SVG Version: 6.00 Build 0)  -->
<svg version="1.1" id="Calque_1" xmlns="http://www.w3.org/2000/svg" xmlns:xlink="http://www.w3.org/1999/xlink" x="0px" y="0px"
	 viewBox="0 0 120 77" style="enable-background:new 0 0 120 77;" xml:space="preserve">
<style type="text/css">
	.st0{fill-rule:evenodd;clip-rule:evenodd;fill:#6E491E;}
	.st1{fill:#FFFFFF;}
</style>
<rect class="st0" width="120" height="77"/>
<g>
	<path class="st1" d="M28.1,59.2V26.7c-2.5,2-6.5,3.9-9.3,5.2L16,25.5c4.3-1.8,9.6-4.6,13.7-7.7h7.2v41.4H28.1z"/>
	<path class="st1" d="M42.6,59.2v-5.5c1.1-4.8,5.8-9.2,11.3-14c2.8-2.4,5.7-5.4,5.7-9.4c0-3.6-2.3-6.6-6.9-6.6
		c-3.6,0-6.2,2.6-7.2,3.8l-4.3-5.7c4-3.5,7.7-5.1,13.3-5.1c7.3,0,14.1,4.2,14.1,12.7c0,7.1-4.5,10.4-9.5,15c-2.1,1.9-6.3,5.6-6.8,8
		h17.1v6.9H42.6z"/>
	<path class="st1" d="M87.1,60.3c-9.2,0-14.4-5.5-14.4-11.8c0-5.5,3.1-9,7.1-11c-3.6-2.2-5.8-5-5.8-9.3c0-6.9,6.2-11.6,13.3-11.6
		c7.3,0,13.3,3.6,13.3,10.7c0,3.9-2,7.2-5.9,9.5c3.8,1.8,7.2,5.3,7.2,10.8C101.9,55.4,95.6,60.3,87.1,60.3z M86.4,40.4
		c-2.7,1.1-5.4,4-5.4,7.2c0,3.4,2.2,6.6,6.2,6.6c3.9,0,6.1-2.8,6.1-6C93.3,44.4,89.9,42.1,86.4,40.4z M87.4,22.6
		c-3.2,0-5.3,2-5.3,4.9c0,3.4,3.4,5.5,6,6.6c2.2-1,4.5-3.7,4.5-6.3C92.7,24.9,90.8,22.6,87.4,22.6z"/>
</g>
</svg>
