<?xml version="1.0" encoding="utf-8"?>
<!-- Generator: Adobe Illustrator 21.0.2, SVG Export Plug-In . SVG Version: 6.00 Build 0)  -->
<svg version="1.1" id="Calque_1" xmlns="http://www.w3.org/2000/svg" xmlns:xlink="http://www.w3.org/1999/xlink" x="0px" y="0px"
	 viewBox="0 0 120 77" style="enable-background:new 0 0 120 77;" xml:space="preserve">
<style type="text/css">
	.st0{fill-rule:evenodd;clip-rule:evenodd;fill:#6E491E;}
	.st1{fill:#FFFFFF;}
</style>
<rect class="st0" width="120" height="77"/>
<g>
	<path class="st1" d="M31.7,59.2V26.7c-2.5,2-6.5,3.9-9.3,5.2l-2.8-6.3c4.3-1.8,9.6-4.6,13.7-7.7h7.2v41.4H31.7z"/>
	<path class="st1" d="M56.7,60.2c-5.9,0-9.2-1.5-12-3.1l3.2-6.4c1.8,1.2,4.6,2.7,8.2,2.7c4.8,0,7.8-2.8,7.8-6.3
		c0-4.8-3.6-6.4-7.9-6.4h-4.3v-6.9h4.3c4,0,6.6-2.1,6.6-5.3c0-2.6-2-5-6.3-5c-3.8,0-6.3,1.8-7.7,3l-3-6.1c3.5-2.3,7.3-3.7,12.6-3.7
		c8.4,0,13.3,5,13.3,10.6c0,4.3-2.3,7.7-6.7,9.3v0.1c4.6,0.9,8,4.4,8,10.2C72.8,54.2,66.3,60.2,56.7,60.2z"/>
	<path class="st1" d="M86.9,59.2V26.7c-2.5,2-6.5,3.9-9.3,5.2l-2.8-6.3c4.3-1.8,9.6-4.6,13.7-7.7h7.2v41.4H86.9z"/>
</g>
</svg>
