<?xml version="1.0" encoding="iso-8859-1"?>
<!-- Generator: Adobe Illustrator 14.0.0, SVG Export Plug-In . SVG Version: 6.00 Build 43363)  -->
<!DOCTYPE svg PUBLIC "-//W3C//DTD SVG 1.1//EN" "http://www.w3.org/Graphics/SVG/1.1/DTD/svg11.dtd">
<svg version="1.1" id="Calque_1" xmlns="http://www.w3.org/2000/svg" xmlns:xlink="http://www.w3.org/1999/xlink" x="0px" y="0px"
	 width="120px" height="77px" viewBox="0 0 120 77" style="enable-background:new 0 0 120 77;" xml:space="preserve">
<rect style="fill-rule:evenodd;clip-rule:evenodd;fill:#82DC73;" width="120" height="77"/>
<g>
	<path d="M30.002,59.212V26.659c-2.522,1.994-6.511,3.93-9.267,5.162l-2.815-6.335c4.34-1.818,9.561-4.575,13.667-7.684H38.8v41.41
		H30.002z"/>
	<path d="M55.004,60.209c-5.924,0-9.209-1.466-11.966-3.108l3.226-6.394c1.76,1.231,4.634,2.698,8.153,2.698
		c4.81,0,7.802-2.815,7.802-6.335c0-4.751-3.637-6.394-7.86-6.394h-4.282v-6.862h4.34c4.047,0,6.569-2.112,6.569-5.279
		c0-2.64-1.994-5.044-6.334-5.044c-3.813,0-6.334,1.818-7.684,2.991l-2.992-6.1c3.52-2.346,7.332-3.695,12.552-3.695
		c8.446,0,13.256,5.044,13.256,10.558c0,4.282-2.288,7.684-6.688,9.326v0.117c4.576,0.88,8.036,4.399,8.036,10.206
		C71.134,54.168,64.623,60.209,55.004,60.209z"/>
	<path d="M84.252,60.209c-5.924,0-9.209-1.466-11.965-3.108l3.226-6.394c1.76,1.231,4.634,2.698,8.153,2.698
		c4.81,0,7.801-2.815,7.801-6.335c0-4.751-3.637-6.394-7.859-6.394h-4.282v-6.862h4.341c4.047,0,6.569-2.112,6.569-5.279
		c0-2.64-1.995-5.044-6.335-5.044c-3.813,0-6.335,1.818-7.684,2.991l-2.992-6.1c3.52-2.346,7.332-3.695,12.553-3.695
		c8.446,0,13.256,5.044,13.256,10.558c0,4.282-2.287,7.684-6.687,9.326v0.117c4.575,0.88,8.036,4.399,8.036,10.206
		C100.383,54.168,93.871,60.209,84.252,60.209z"/>
</g>
</svg>
