<?xml version="1.0" encoding="iso-8859-1"?>
<!-- Generator: Adobe Illustrator 14.0.0, SVG Export Plug-In . SVG Version: 6.00 Build 43363)  -->
<!DOCTYPE svg PUBLIC "-//W3C//DTD SVG 1.1//EN" "http://www.w3.org/Graphics/SVG/1.1/DTD/svg11.dtd">
<svg version="1.1" id="Calque_1" xmlns="http://www.w3.org/2000/svg" xmlns:xlink="http://www.w3.org/1999/xlink" x="0px" y="0px"
	 width="120px" height="77px" viewBox="0 0 120 77" style="enable-background:new 0 0 120 77;" xml:space="preserve">
<rect style="fill-rule:evenodd;clip-rule:evenodd;fill:#FF1400;" width="120" height="77"/>
<g>
	<path style="fill:#FFFFFF;" d="M25.68,59.212V26.659c-2.522,1.994-6.511,3.93-9.267,5.162l-2.815-6.335
		c4.34-1.818,9.561-4.575,13.667-7.684h7.214v41.41H25.68z"/>
	<path style="fill:#FFFFFF;" d="M65.902,50.59v8.622h-8.211V50.59H39.039v-7.684L55.11,17.802h10.792v26.336h4.869v6.452H65.902z
		 M57.691,25.075h-0.118c-0.176,0.704-1.349,3.226-2.991,5.807l-8.446,13.256h11.555V25.075z"/>
	<path style="fill:#FFFFFF;" d="M89.162,60.326c-12.494,0-14.957-12.317-14.957-21.878c0-9.561,2.697-21.878,15.191-21.878
		c12.493,0,14.957,12.317,14.957,21.878C104.354,48.009,101.655,60.326,89.162,60.326z M89.279,23.55
		c-5.983,0-6.159,10.675-6.159,14.898c0,4.164,0.294,14.957,6.159,14.957s6.1-10.852,6.1-14.957
		C95.379,34.107,95.203,23.55,89.279,23.55z"/>
</g>
</svg>
