<?xml version="1.0" encoding="iso-8859-1"?>
<!-- Generator: Adobe Illustrator 14.0.0, SVG Export Plug-In . SVG Version: 6.00 Build 43363)  -->
<!DOCTYPE svg PUBLIC "-//W3C//DTD SVG 1.1//EN" "http://www.w3.org/Graphics/SVG/1.1/DTD/svg11.dtd">
<svg version="1.1" id="Calque_1" xmlns="http://www.w3.org/2000/svg" xmlns:xlink="http://www.w3.org/1999/xlink" x="0px" y="0px"
	 width="120px" height="77px" viewBox="0 0 120 77" style="enable-background:new 0 0 120 77;" xml:space="preserve">
<rect style="fill-rule:evenodd;clip-rule:evenodd;fill:#DC9600;" width="120" height="77"/>
<g>
	<path d="M30.683,59.212V26.659c-2.522,1.994-6.511,3.93-9.267,5.162L18.6,25.485c4.34-1.818,9.561-4.575,13.667-7.684h7.214v41.41
		H30.683z"/>
	<path d="M70.906,50.59v8.622h-8.212V50.59H44.042v-7.684l16.071-25.104h10.793v26.336h4.867v6.452H70.906z M62.694,25.075h-0.118
		c-0.176,0.704-1.349,3.226-2.991,5.807l-8.446,13.256h11.555V25.075z"/>
	<path d="M87.854,59.212V26.659c-2.522,1.994-6.511,3.93-9.268,5.162l-2.815-6.335c4.341-1.818,9.561-4.575,13.667-7.684h7.214
		v41.41H87.854z"/>
</g>
</svg>
