<?xml version="1.0" encoding="iso-8859-1"?>
<!-- Generator: Adobe Illustrator 14.0.0, SVG Export Plug-In . SVG Version: 6.00 Build 43363)  -->
<!DOCTYPE svg PUBLIC "-//W3C//DTD SVG 1.1//EN" "http://www.w3.org/Graphics/SVG/1.1/DTD/svg11.dtd">
<svg version="1.1" id="Calque_1" xmlns="http://www.w3.org/2000/svg" xmlns:xlink="http://www.w3.org/1999/xlink" x="0px" y="0px"
	 width="120px" height="77px" viewBox="0 0 120 77" style="enable-background:new 0 0 120 77;" xml:space="preserve">
<rect style="fill-rule:evenodd;clip-rule:evenodd;fill:#D282BE;" width="120" height="77"/>
<g>
	<path d="M25.36,59.212V26.659c-2.522,1.994-6.511,3.93-9.267,5.162l-2.815-6.335c4.34-1.818,9.561-4.575,13.667-7.684h7.214v41.41
		H25.36z"/>
	<path d="M65.584,50.59v8.622h-8.212V50.59H38.72v-7.684l16.071-25.104h10.793v26.336h4.867v6.452H65.584z M57.372,25.075h-0.118
		c-0.176,0.704-1.349,3.226-2.991,5.807l-8.446,13.256h11.555V25.075z"/>
	<path d="M100.392,50.59v8.622H92.18V50.59H73.527v-7.684L89.6,17.802h10.792v26.336h4.868v6.452H100.392z M92.18,25.075h-0.117
		c-0.176,0.704-1.35,3.226-2.991,5.807l-8.446,13.256H92.18V25.075z"/>
</g>
</svg>
