<?xml version="1.0" encoding="iso-8859-1"?>
<!-- Generator: Adobe Illustrator 14.0.0, SVG Export Plug-In . SVG Version: 6.00 Build 43363)  -->
<!DOCTYPE svg PUBLIC "-//W3C//DTD SVG 1.1//EN" "http://www.w3.org/Graphics/SVG/1.1/DTD/svg11.dtd">
<svg version="1.1" id="Calque_1" xmlns="http://www.w3.org/2000/svg" xmlns:xlink="http://www.w3.org/1999/xlink" x="0px" y="0px"
	 width="120px" height="77px" viewBox="0 0 120 77" style="enable-background:new 0 0 120 77;" xml:space="preserve">
<rect style="fill-rule:evenodd;clip-rule:evenodd;fill:#D282BE;" width="120" height="77"/>
<g>
	<path d="M26.187,59.212V26.659c-2.522,1.994-6.51,3.93-9.267,5.162l-2.815-6.335c4.34-1.818,9.561-4.575,13.667-7.684h7.214v41.41
		H26.187z"/>
	<path d="M66.41,50.59v8.622h-8.212V50.59H39.546v-7.684l16.071-25.104H66.41v26.336h4.868v6.452H66.41z M58.198,25.075h-0.117
		c-0.176,0.704-1.349,3.226-2.991,5.807l-8.446,13.256h11.555V25.075z"/>
	<path d="M90.18,60.209c-11.32,0-15.368-7.859-15.368-18.828c0-14.371,6.745-24.694,20.001-24.694c2.347,0,4.458,0.293,6.218,0.704
		l-1.29,7.039c-1.115-0.469-3.285-0.997-5.689-0.997c-5.807,0-10.03,4.634-10.617,12.962c1.408-1.231,4.105-2.815,8.564-2.815
		c6.861,0,12.375,4.517,12.375,12.259C104.373,54.109,98.859,60.209,90.18,60.209z M89.357,40.091c-2.639,0-4.75,0.997-5.572,2.287
		c-0.469,0.704-0.469,2.347-0.469,3.578c0,3.93,2.287,7.742,6.511,7.742c4.106,0,6.218-3.343,6.218-6.921
		C96.045,42.906,93.464,40.091,89.357,40.091z"/>
</g>
</svg>
