<?xml version="1.0" encoding="iso-8859-1"?>
<!-- Generator: Adobe Illustrator 14.0.0, SVG Export Plug-In . SVG Version: 6.00 Build 43363)  -->
<!DOCTYPE svg PUBLIC "-//W3C//DTD SVG 1.1//EN" "http://www.w3.org/Graphics/SVG/1.1/DTD/svg11.dtd">
<svg version="1.1" id="Calque_1" xmlns="http://www.w3.org/2000/svg" xmlns:xlink="http://www.w3.org/1999/xlink" x="0px" y="0px"
	 width="120px" height="77px" viewBox="0 0 120 77" style="enable-background:new 0 0 120 77;" xml:space="preserve">
<rect style="fill-rule:evenodd;clip-rule:evenodd;fill:#FF1400;" width="120" height="77"/>
<g>
	<path style="fill:#FFFFFF;" d="M30.049,59.212V26.659c-2.522,1.994-6.511,3.93-9.267,5.162l-2.815-6.335
		c4.34-1.818,9.561-4.575,13.667-7.684h7.214v41.41H30.049z"/>
	<path style="fill:#FFFFFF;" d="M54.623,60.209c-4.81,0-8.505-1.056-11.672-2.991l3.343-6.452c2.288,1.584,4.634,2.64,7.859,2.64
		c3.226,0,7.273-1.936,7.273-6.804c0-2.992-1.994-7.098-9.619-7.215c-2.347,0-5.103-0.059-6.452-0.059l1.642-21.526h21.761v6.921
		H53.86l-0.586,7.86c0.234,0,0.762,0.059,1.173,0.059c11.321,0.528,15.895,6.921,15.895,13.139
		C70.342,53.698,64.066,60.209,54.623,60.209z"/>
	<path style="fill:#FFFFFF;" d="M73.941,59.212v-5.455c1.055-4.81,5.807-9.209,11.32-14.019c2.756-2.404,5.748-5.396,5.748-9.385
		c0-3.578-2.347-6.569-6.863-6.569c-3.637,0-6.158,2.64-7.156,3.754l-4.34-5.748c3.988-3.46,7.684-5.103,13.256-5.103
		c7.273,0,14.136,4.223,14.136,12.669c0,7.098-4.517,10.44-9.502,14.957c-2.111,1.936-6.276,5.572-6.804,7.978h17.068v6.921H73.941z
		"/>
</g>
</svg>
