<?xml version="1.0" encoding="iso-8859-1"?>
<!-- Generator: Adobe Illustrator 14.0.0, SVG Export Plug-In . SVG Version: 6.00 Build 43363)  -->
<!DOCTYPE svg PUBLIC "-//W3C//DTD SVG 1.1//EN" "http://www.w3.org/Graphics/SVG/1.1/DTD/svg11.dtd">
<svg version="1.1" id="Calque_1" xmlns="http://www.w3.org/2000/svg" xmlns:xlink="http://www.w3.org/1999/xlink" x="0px" y="0px"
	 width="120px" height="77px" viewBox="0 0 120 77" style="enable-background:new 0 0 120 77;" xml:space="preserve">
<rect style="fill-rule:evenodd;clip-rule:evenodd;fill:#FF5A00;" width="120" height="77"/>
<g>
	<path d="M28.348,59.212V26.659c-2.522,1.994-6.51,3.93-9.267,5.162l-2.815-6.335c4.34-1.818,9.561-4.575,13.667-7.684h7.214v41.41
		H28.348z"/>
	<path d="M52.922,60.209c-4.81,0-8.505-1.056-11.672-2.991l3.343-6.452c2.288,1.584,4.634,2.64,7.86,2.64
		c3.226,0,7.273-1.936,7.273-6.804c0-2.992-1.994-7.098-9.62-7.215c-2.346,0-5.103-0.059-6.452-0.059l1.642-21.526h21.762v6.921
		H52.16l-0.586,7.86c0.234,0,0.762,0.059,1.173,0.059c11.32,0.528,15.896,6.921,15.896,13.139
		C68.642,53.698,62.365,60.209,52.922,60.209z"/>
	<path d="M86.904,60.326c-9.209,0-14.43-5.514-14.43-11.789c0-5.514,3.109-8.975,7.098-11.027c-3.578-2.229-5.807-5.044-5.807-9.326
		c0-6.863,6.217-11.614,13.314-11.614c7.273,0,13.314,3.578,13.314,10.675c0,3.871-1.994,7.156-5.865,9.502
		c3.813,1.818,7.155,5.338,7.155,10.793C101.685,55.399,95.408,60.326,86.904,60.326z M86.199,40.384
		c-2.697,1.056-5.396,3.988-5.396,7.215c0,3.401,2.229,6.628,6.218,6.628c3.93,0,6.1-2.757,6.1-6.042
		C93.121,44.431,89.719,42.144,86.199,40.384z M87.197,22.553c-3.227,0-5.279,1.994-5.279,4.868c0,3.402,3.402,5.514,6.041,6.628
		c2.171-0.997,4.518-3.695,4.518-6.276C92.477,24.899,90.6,22.553,87.197,22.553z"/>
</g>
</svg>
