<?xml version="1.0" encoding="iso-8859-1"?>
<!-- Generator: Adobe Illustrator 14.0.0, SVG Export Plug-In . SVG Version: 6.00 Build 43363)  -->
<!DOCTYPE svg PUBLIC "-//W3C//DTD SVG 1.1//EN" "http://www.w3.org/Graphics/SVG/1.1/DTD/svg11.dtd">
<svg version="1.1" id="Calque_1" xmlns="http://www.w3.org/2000/svg" xmlns:xlink="http://www.w3.org/1999/xlink" x="0px" y="0px"
	 width="120px" height="77px" viewBox="0 0 120 77" style="enable-background:new 0 0 120 77;" xml:space="preserve">
<rect style="fill-rule:evenodd;clip-rule:evenodd;fill:#0055C8;" width="120" height="77"/>
<g>
	<path style="fill:#FFFFFF;" d="M28.559,59.212V26.659c-2.522,1.994-6.51,3.93-9.267,5.162l-2.815-6.335
		c4.34-1.818,9.561-4.575,13.667-7.684h7.214v41.41H28.559z"/>
	<path style="fill:#FFFFFF;" d="M58.389,60.209c-11.32,0-15.368-7.859-15.368-18.828c0-14.371,6.745-24.694,20.001-24.694
		c2.347,0,4.458,0.293,6.218,0.704l-1.291,7.039c-1.114-0.469-3.285-0.997-5.689-0.997c-5.807,0-10.03,4.634-10.617,12.962
		c1.408-1.231,4.106-2.815,8.564-2.815c6.862,0,12.376,4.517,12.376,12.259C72.583,54.109,67.069,60.209,58.389,60.209z
		 M57.567,40.091c-2.64,0-4.751,0.997-5.572,2.287c-0.469,0.704-0.469,2.347-0.469,3.578c0,3.93,2.288,7.742,6.511,7.742
		c4.106,0,6.217-3.343,6.217-6.921C64.254,42.906,61.674,40.091,57.567,40.091z"/>
	<path style="fill:#FFFFFF;" d="M75.431,59.212v-5.455c1.056-4.81,5.807-9.209,11.32-14.019c2.757-2.404,5.748-5.396,5.748-9.385
		c0-3.578-2.347-6.569-6.862-6.569c-3.637,0-6.159,2.64-7.156,3.754l-4.34-5.748c3.988-3.46,7.684-5.103,13.256-5.103
		c7.273,0,14.135,4.223,14.135,12.669c0,7.098-4.516,10.44-9.502,14.957c-2.111,1.936-6.275,5.572-6.804,7.978h17.069v6.921H75.431z
		"/>
</g>
</svg>
