<?xml version="1.0" encoding="utf-8"?>
<!-- Generator: Adobe Illustrator 21.0.2, SVG Export Plug-In . SVG Version: 6.00 Build 0)  -->
<svg version="1.1" id="Calque_1" xmlns="http://www.w3.org/2000/svg" xmlns:xlink="http://www.w3.org/1999/xlink" x="0px" y="0px"
	 viewBox="0 0 120 77" style="enable-background:new 0 0 120 77;" xml:space="preserve">
<style type="text/css">
	.st0{fill-rule:evenodd;clip-rule:evenodd;fill:#DC9600;}
</style>
<rect class="st0" width="120" height="77"/>
<g>
	<path d="M28.6,59.2V26.7c-2.5,2-6.5,3.9-9.3,5.2l-2.8-6.3c4.3-1.8,9.6-4.6,13.7-7.7h7.2v41.4H28.6z"/>
	<path d="M58.4,60.2C47.1,60.2,43,52.3,43,41.4c0-14.4,6.7-24.7,20-24.7c2.3,0,4.5,0.3,6.2,0.7l-1.3,7c-1.1-0.5-3.3-1-5.7-1
		c-5.8,0-10,4.6-10.6,13c1.4-1.2,4.1-2.8,8.6-2.8c6.9,0,12.4,4.5,12.4,12.3C72.6,54.1,67.1,60.2,58.4,60.2z M57.6,40.1
		c-2.6,0-4.8,1-5.6,2.3c-0.5,0.7-0.5,2.3-0.5,3.6c0,3.9,2.3,7.7,6.5,7.7c4.1,0,6.2-3.3,6.2-6.9C64.3,42.9,61.7,40.1,57.6,40.1z"/>
	<path d="M85.7,60.2c-5.9,0-9.2-1.5-12-3.1l3.2-6.4c1.8,1.2,4.6,2.7,8.2,2.7c4.8,0,7.8-2.8,7.8-6.3c0-4.8-3.6-6.4-7.9-6.4h-4.3v-6.9
		h4.3c4,0,6.6-2.1,6.6-5.3c0-2.6-2-5-6.3-5c-3.8,0-6.3,1.8-7.7,3l-3-6.1c3.5-2.3,7.3-3.7,12.6-3.7c8.4,0,13.3,5,13.3,10.6
		c0,4.3-2.3,7.7-6.7,9.3v0.1c4.6,0.9,8,4.4,8,10.2C101.8,54.2,95.3,60.2,85.7,60.2z"/>
</g>
</svg>
