<?xml version="1.0" encoding="iso-8859-1"?>
<!-- Generator: Adobe Illustrator 14.0.0, SVG Export Plug-In . SVG Version: 6.00 Build 43363)  -->
<!DOCTYPE svg PUBLIC "-//W3C//DTD SVG 1.1//EN" "http://www.w3.org/Graphics/SVG/1.1/DTD/svg11.dtd">
<svg version="1.1" id="Calque_1" xmlns="http://www.w3.org/2000/svg" xmlns:xlink="http://www.w3.org/1999/xlink" x="0px" y="0px"
	 width="120px" height="77px" viewBox="0 0 120 77" style="enable-background:new 0 0 120 77;" xml:space="preserve">
<rect style="fill-rule:evenodd;clip-rule:evenodd;fill:#FF5A00;" width="120" height="77"/>
<g>
	<path d="M28.841,59.212V26.659c-2.522,1.994-6.511,3.93-9.267,5.162l-2.815-6.335c4.34-1.818,9.561-4.575,13.667-7.684h7.214v41.41
		H28.841z"/>
	<path d="M58.67,60.209c-11.32,0-15.368-7.859-15.368-18.828c0-14.371,6.745-24.694,20.002-24.694c2.346,0,4.457,0.293,6.217,0.704
		L68.23,24.43c-1.113-0.469-3.284-0.997-5.689-0.997c-5.806,0-10.029,4.634-10.616,12.962c1.408-1.231,4.106-2.815,8.564-2.815
		c6.863,0,12.376,4.517,12.376,12.259C72.865,54.109,67.352,60.209,58.67,60.209z M57.849,40.091c-2.64,0-4.751,0.997-5.572,2.287
		c-0.469,0.704-0.469,2.347-0.469,3.578c0,3.93,2.288,7.742,6.511,7.742c4.105,0,6.217-3.343,6.217-6.921
		C64.535,42.906,61.955,40.091,57.849,40.091z"/>
	<path d="M85.473,60.209c-4.811,0-8.506-1.056-11.672-2.991l3.343-6.452c2.288,1.584,4.634,2.64,7.859,2.64s7.273-1.936,7.273-6.804
		c0-2.992-1.994-7.098-9.619-7.215c-2.347,0-5.103-0.059-6.452-0.059l1.643-21.526h21.761v6.921H84.71l-0.587,7.86
		c0.234,0,0.763,0.059,1.174,0.059c11.32,0.528,15.895,6.921,15.895,13.139C101.191,53.698,94.916,60.209,85.473,60.209z"/>
</g>
</svg>
