<?xml version="1.0" encoding="iso-8859-1"?>
<!-- Generator: Adobe Illustrator 14.0.0, SVG Export Plug-In . SVG Version: 6.00 Build 43363)  -->
<!DOCTYPE svg PUBLIC "-//W3C//DTD SVG 1.1//EN" "http://www.w3.org/Graphics/SVG/1.1/DTD/svg11.dtd">
<svg version="1.1" id="Calque_1" xmlns="http://www.w3.org/2000/svg" xmlns:xlink="http://www.w3.org/1999/xlink" x="0px" y="0px"
	 width="120px" height="77px" viewBox="0 0 120 77" style="enable-background:new 0 0 120 77;" xml:space="preserve">
<rect style="fill-rule:evenodd;clip-rule:evenodd;fill:#82DC73;" width="120" height="77"/>
<g>
	<path d="M28.976,59.212V26.659c-2.522,1.994-6.511,3.93-9.267,5.162l-2.815-6.335c4.34-1.818,9.561-4.575,13.667-7.684h7.214v41.41
		H28.976z"/>
	<path d="M58.805,60.209c-11.32,0-15.368-7.859-15.368-18.828c0-14.371,6.745-24.694,20.002-24.694c2.346,0,4.457,0.293,6.217,0.704
		l-1.291,7.039c-1.113-0.469-3.284-0.997-5.689-0.997c-5.806,0-10.029,4.634-10.616,12.962c1.408-1.231,4.106-2.815,8.564-2.815
		C67.486,33.58,73,38.097,73,45.839C73,54.109,67.486,60.209,58.805,60.209z M57.984,40.091c-2.64,0-4.751,0.997-5.572,2.287
		c-0.469,0.704-0.469,2.347-0.469,3.578c0,3.93,2.288,7.742,6.511,7.742c4.105,0,6.217-3.343,6.217-6.921
		C64.67,42.906,62.09,40.091,57.984,40.091z"/>
	<path d="M88.211,59.212h-9.443c0-5.455,1.467-8.975,5.104-15.72l10.089-18.77H73.842v-6.921h28.975v6.745
		C93.725,40.325,88.211,52.701,88.211,59.212z"/>
</g>
</svg>
