<?xml version="1.0" encoding="utf-8"?>
<!-- Generator: Adobe Illustrator 21.0.2, SVG Export Plug-In . SVG Version: 6.00 Build 0)  -->
<svg version="1.1" id="Calque_1" xmlns="http://www.w3.org/2000/svg" xmlns:xlink="http://www.w3.org/1999/xlink" x="0px" y="0px"
	 viewBox="0 0 120 77" style="enable-background:new 0 0 120 77;" xml:space="preserve">
<style type="text/css">
	.st0{fill-rule:evenodd;clip-rule:evenodd;fill:#82C8E6;}
	.st1{fill:#1D1D1B;}
</style>
<rect class="st0" width="120" height="77"/>
<g>
	<path class="st1" d="M26.6,59.2V26.7c-2.5,2-6.5,3.9-9.3,5.2l-2.8-6.3c4.3-1.8,9.6-4.6,13.7-7.7h7.2v41.4H26.6z"/>
	<path class="st1" d="M56.4,60.2c-11.3,0-15.4-7.9-15.4-18.8c0-14.4,6.7-24.7,20-24.7c2.3,0,4.5,0.3,6.2,0.7l-1.3,7
		c-1.1-0.5-3.3-1-5.7-1c-5.8,0-10,4.6-10.6,13c1.4-1.2,4.1-2.8,8.6-2.8c6.9,0,12.4,4.5,12.4,12.3C70.6,54.1,65.1,60.2,56.4,60.2z
		 M55.6,40.1c-2.6,0-4.8,1-5.6,2.3c-0.5,0.7-0.5,2.3-0.5,3.6c0,3.9,2.3,7.7,6.5,7.7c4.1,0,6.2-3.3,6.2-6.9
		C62.3,42.9,59.7,40.1,55.6,40.1z"/>
	<path class="st1" d="M88.6,60.3c-9.2,0-14.4-5.5-14.4-11.8c0-5.5,3.1-9,7.1-11c-3.6-2.2-5.8-5-5.8-9.3c0-6.9,6.2-11.6,13.3-11.6
		c7.3,0,13.3,3.6,13.3,10.7c0,3.9-2,7.2-5.9,9.5c3.8,1.8,7.2,5.3,7.2,10.8C103.4,55.4,97.2,60.3,88.6,60.3z M87.9,40.4
		c-2.7,1.1-5.4,4-5.4,7.2c0,3.4,2.2,6.6,6.2,6.6c3.9,0,6.1-2.8,6.1-6C94.9,44.4,91.5,42.1,87.9,40.4z M88.9,22.6
		c-3.2,0-5.3,2-5.3,4.9c0,3.4,3.4,5.5,6,6.6c2.2-1,4.5-3.7,4.5-6.3C94.2,24.9,92.3,22.6,88.9,22.6z"/>
</g>
</svg>
