<?xml version="1.0" encoding="iso-8859-1"?>
<!-- Generator: Adobe Illustrator 14.0.0, SVG Export Plug-In . SVG Version: 6.00 Build 43363)  -->
<!DOCTYPE svg PUBLIC "-//W3C//DTD SVG 1.1//EN" "http://www.w3.org/Graphics/SVG/1.1/DTD/svg11.dtd">
<svg version="1.1" id="Calque_1" xmlns="http://www.w3.org/2000/svg" xmlns:xlink="http://www.w3.org/1999/xlink" x="0px" y="0px"
	 width="120px" height="77px" viewBox="0 0 120 77" style="enable-background:new 0 0 120 77;" xml:space="preserve">
<rect style="fill-rule:evenodd;clip-rule:evenodd;fill:#82DC73;" width="120" height="77"/>
<g>
	<path d="M27.498,59.212V26.659c-2.522,1.994-6.51,3.93-9.267,5.162l-2.815-6.335c4.34-1.818,9.561-4.575,13.667-7.684h7.214v41.41
		H27.498z"/>
	<path d="M57.327,60.209c-11.32,0-15.368-7.859-15.368-18.828c0-14.371,6.745-24.694,20.001-24.694c2.346,0,4.457,0.293,6.217,0.704
		l-1.29,7.039c-1.114-0.469-3.284-0.997-5.689-0.997c-5.807,0-10.03,4.634-10.617,12.962c1.408-1.231,4.106-2.815,8.564-2.815
		c6.862,0,12.376,4.517,12.376,12.259C71.521,54.109,66.008,60.209,57.327,60.209z M56.506,40.091c-2.64,0-4.751,0.997-5.572,2.287
		c-0.469,0.704-0.469,2.347-0.469,3.578c0,3.93,2.288,7.742,6.511,7.742c4.106,0,6.217-3.343,6.217-6.921
		C63.192,42.906,60.612,40.091,56.506,40.091z"/>
	<path d="M82.533,60.326c-2.346,0-4.457-0.293-6.217-0.704l1.291-7.038c1.113,0.469,3.284,0.997,5.689,0.997
		c5.807,0,10.029-4.634,10.616-12.963c-1.408,1.232-4.106,2.815-8.563,2.815c-6.863,0-12.377-4.517-12.377-12.259
		c0-8.27,5.514-14.37,14.195-14.37c11.32,0,15.367,7.859,15.367,18.828C102.535,50.003,95.79,60.326,82.533,60.326z M87.52,23.315
		c-4.105,0-6.217,3.343-6.217,6.921c0,3.871,2.58,6.687,6.686,6.687c2.64,0,4.752-0.997,5.572-2.287
		c0.47-0.704,0.47-2.346,0.47-3.578C94.03,27.128,91.742,23.315,87.52,23.315z"/>
</g>
</svg>
