<?xml version="1.0" encoding="iso-8859-1"?>
<!-- Generator: Adobe Illustrator 14.0.0, SVG Export Plug-In . SVG Version: 6.00 Build 43363)  -->
<!DOCTYPE svg PUBLIC "-//W3C//DTD SVG 1.1//EN" "http://www.w3.org/Graphics/SVG/1.1/DTD/svg11.dtd">
<svg version="1.1" id="Calque_1" xmlns="http://www.w3.org/2000/svg" xmlns:xlink="http://www.w3.org/1999/xlink" x="0px" y="0px"
	 width="120px" height="77px" viewBox="0 0 120 77" style="enable-background:new 0 0 120 77;" xml:space="preserve">
<rect style="fill-rule:evenodd;clip-rule:evenodd;fill:#FF1400;" width="120" height="77"/>
<g>
	<path style="fill:#FFFFFF;" d="M31.281,59.212V26.659c-2.522,1.994-6.51,3.93-9.267,5.162l-2.815-6.335
		c4.34-1.818,9.561-4.575,13.667-7.684h7.214v41.41H31.281z"/>
	<path style="fill:#FFFFFF;" d="M58.553,59.212h-9.443c0-5.455,1.466-8.975,5.103-15.72l10.088-18.77H44.183v-6.921h28.976v6.745
		C64.066,40.325,58.553,52.701,58.553,59.212z"/>
	<path style="fill:#FFFFFF;" d="M87.255,59.212V26.659c-2.522,1.994-6.511,3.93-9.267,5.162l-2.816-6.335
		c4.341-1.818,9.561-4.575,13.667-7.684h7.214v41.41H87.255z"/>
</g>
</svg>
