<?xml version="1.0" encoding="iso-8859-1"?>
<!-- Generator: Adobe Illustrator 14.0.0, SVG Export Plug-In . SVG Version: 6.00 Build 43363)  -->
<!DOCTYPE svg PUBLIC "-//W3C//DTD SVG 1.1//EN" "http://www.w3.org/Graphics/SVG/1.1/DTD/svg11.dtd">
<svg version="1.1" id="Calque_1" xmlns="http://www.w3.org/2000/svg" xmlns:xlink="http://www.w3.org/1999/xlink" x="0px" y="0px"
	 width="120px" height="77px" viewBox="0 0 120 77" style="enable-background:new 0 0 120 77;" xml:space="preserve">
<g>
	<rect style="fill-rule:evenodd;clip-rule:evenodd;fill:#00643C;" width="120" height="77"/>
</g>
<g>
	<path style="fill:#FFFFFF;" d="M29.237,59.212V26.659c-2.522,1.994-6.51,3.93-9.267,5.162l-2.815-6.335
		c4.34-1.818,9.561-4.575,13.667-7.684h7.214v41.41H29.237z"/>
	<path style="fill:#FFFFFF;" d="M56.509,59.212h-9.443c0-5.455,1.466-8.975,5.103-15.72l10.088-18.77H42.139v-6.921h28.975v6.745
		C62.022,40.325,56.509,52.701,56.509,59.212z"/>
	<path style="fill:#FFFFFF;" d="M74.753,59.212v-5.455c1.056-4.81,5.807-9.209,11.32-14.019c2.757-2.404,5.748-5.396,5.748-9.385
		c0-3.578-2.347-6.569-6.862-6.569c-3.637,0-6.159,2.64-7.156,3.754l-4.34-5.748c3.988-3.46,7.684-5.103,13.256-5.103
		c7.273,0,14.135,4.223,14.135,12.669c0,7.098-4.516,10.44-9.502,14.957c-2.111,1.936-6.275,5.572-6.804,7.978h17.069v6.921H74.753z
		"/>
</g>
</svg>
