<?xml version="1.0" encoding="iso-8859-1"?>
<!-- Generator: Adobe Illustrator 14.0.0, SVG Export Plug-In . SVG Version: 6.00 Build 43363)  -->
<!DOCTYPE svg PUBLIC "-//W3C//DTD SVG 1.1//EN" "http://www.w3.org/Graphics/SVG/1.1/DTD/svg11.dtd">
<svg version="1.1" id="Calque_1" xmlns="http://www.w3.org/2000/svg" xmlns:xlink="http://www.w3.org/1999/xlink" x="0px" y="0px"
	 width="120px" height="77px" viewBox="0 0 120 77" style="enable-background:new 0 0 120 77;" xml:space="preserve">
<g>
	<rect style="fill-rule:evenodd;clip-rule:evenodd;fill:#00643C;" width="120" height="77"/>
</g>
<g>
	<path style="fill:#FFFFFF;" d="M29.703,59.212V26.659c-2.522,1.994-6.511,3.93-9.267,5.162l-2.815-6.335
		c4.34-1.818,9.561-4.575,13.667-7.684h7.214v41.41H29.703z"/>
	<path style="fill:#FFFFFF;" d="M56.975,59.212h-9.443c0-5.455,1.466-8.975,5.103-15.72l10.089-18.77H42.605v-6.921H71.58v6.745
		C62.488,40.325,56.975,52.701,56.975,59.212z"/>
	<path style="fill:#FFFFFF;" d="M96.048,50.59v8.622h-8.212V50.59H69.184v-7.684l16.072-25.104h10.792v26.336h4.868v6.452H96.048z
		 M87.836,25.075h-0.117c-0.176,0.704-1.35,3.226-2.991,5.807l-8.446,13.256h11.555V25.075z"/>
</g>
</svg>
