<?xml version="1.0" encoding="iso-8859-1"?>
<!-- Generator: Adobe Illustrator 14.0.0, SVG Export Plug-In . SVG Version: 6.00 Build 43363)  -->
<!DOCTYPE svg PUBLIC "-//W3C//DTD SVG 1.1//EN" "http://www.w3.org/Graphics/SVG/1.1/DTD/svg11.dtd">
<svg version="1.1" id="Calque_1" xmlns="http://www.w3.org/2000/svg" xmlns:xlink="http://www.w3.org/1999/xlink" x="0px" y="0px"
	 width="120px" height="77px" viewBox="0 0 120 77" style="enable-background:new 0 0 120 77;" xml:space="preserve">
<rect style="fill-rule:evenodd;clip-rule:evenodd;fill:#0055C8;" width="120" height="77"/>
<g>
	<path style="fill:#FFFFFF;" d="M30.275,59.212V26.659c-2.522,1.994-6.51,3.93-9.267,5.162l-2.815-6.335
		c4.34-1.818,9.561-4.575,13.667-7.684h7.214v41.41H30.275z"/>
	<path style="fill:#FFFFFF;" d="M57.547,59.212h-9.443c0-5.455,1.466-8.975,5.103-15.72l10.088-18.77H43.177v-6.921h28.976v6.745
		C63.061,40.325,57.547,52.701,57.547,59.212z"/>
	<path style="fill:#FFFFFF;" d="M84.038,60.209c-4.81,0-8.505-1.056-11.673-2.991l3.344-6.452c2.287,1.584,4.634,2.64,7.859,2.64
		c3.227,0,7.273-1.936,7.273-6.804c0-2.992-1.994-7.098-9.619-7.215c-2.347,0-5.104-0.059-6.452-0.059l1.642-21.526h21.762v6.921
		H83.275l-0.586,7.86c0.234,0,0.762,0.059,1.172,0.059c11.32,0.528,15.896,6.921,15.896,13.139
		C99.758,53.698,93.481,60.209,84.038,60.209z"/>
</g>
</svg>
