<?xml version="1.0" encoding="iso-8859-1"?>
<!-- Generator: Adobe Illustrator 14.0.0, SVG Export Plug-In . SVG Version: 6.00 Build 43363)  -->
<!DOCTYPE svg PUBLIC "-//W3C//DTD SVG 1.1//EN" "http://www.w3.org/Graphics/SVG/1.1/DTD/svg11.dtd">
<svg version="1.1" id="Calque_1" xmlns="http://www.w3.org/2000/svg" xmlns:xlink="http://www.w3.org/1999/xlink" x="0px" y="0px"
	 width="120px" height="77px" viewBox="0 0 120 77" style="enable-background:new 0 0 120 77;" xml:space="preserve">
<rect style="fill-rule:evenodd;clip-rule:evenodd;fill:#6E6E00;" width="120" height="77"/>
<g>
	<path style="fill:#FFFFFF;" d="M26.372,59.212V26.659c-2.522,1.994-6.51,3.93-9.267,5.162l-2.815-6.335
		c4.34-1.818,9.561-4.575,13.667-7.684h7.214v41.41H26.372z"/>
	<path style="fill:#FFFFFF;" d="M55.151,60.326c-9.209,0-14.429-5.514-14.429-11.789c0-5.514,3.109-8.975,7.097-11.027
		c-3.578-2.229-5.807-5.044-5.807-9.326c0-6.863,6.217-11.614,13.314-11.614c7.273,0,13.315,3.578,13.315,10.675
		c0,3.871-1.995,7.156-5.866,9.502c3.813,1.818,7.156,5.338,7.156,10.793C69.932,55.399,63.656,60.326,55.151,60.326z
		 M54.447,40.384c-2.698,1.056-5.396,3.988-5.396,7.215c0,3.401,2.229,6.628,6.217,6.628c3.93,0,6.1-2.757,6.1-6.042
		C61.368,44.431,57.966,42.144,54.447,40.384z M55.444,22.553c-3.226,0-5.279,1.994-5.279,4.868c0,3.402,3.402,5.514,6.042,6.628
		c2.17-0.997,4.517-3.695,4.517-6.276C60.723,24.899,58.846,22.553,55.444,22.553z"/>
	<path style="fill:#FFFFFF;" d="M88.469,60.326c-12.493,0-14.957-12.317-14.957-21.878c0-9.561,2.699-21.878,15.191-21.878
		c12.494,0,14.957,12.317,14.957,21.878C103.66,48.009,100.963,60.326,88.469,60.326z M88.586,23.55
		c-5.982,0-6.158,10.675-6.158,14.898c0,4.164,0.293,14.957,6.158,14.957c5.866,0,6.101-10.852,6.101-14.957
		C94.687,34.107,94.511,23.55,88.586,23.55z"/>
</g>
</svg>
