<?xml version="1.0" encoding="utf-8"?>
<!-- Generator: Adobe Illustrator 21.0.2, SVG Export Plug-In . SVG Version: 6.00 Build 0)  -->
<svg version="1.1" id="Calque_1" xmlns="http://www.w3.org/2000/svg" xmlns:xlink="http://www.w3.org/1999/xlink" x="0px" y="0px"
	 viewBox="0 0 120 77" style="enable-background:new 0 0 120 77;" xml:space="preserve">
<style type="text/css">
	.st0{fill-rule:evenodd;clip-rule:evenodd;fill:#6E491E;}
	.st1{fill:#FFFFFF;}
</style>
<rect class="st0" width="120" height="77"/>
<g>
	<path class="st1" d="M30.4,59.2V26.7c-2.5,2-6.5,3.9-9.3,5.2l-2.8-6.3c4.3-1.8,9.6-4.6,13.7-7.7h7.2v41.4H30.4z"/>
	<path class="st1" d="M59.1,60.3c-9.2,0-14.4-5.5-14.4-11.8c0-5.5,3.1-9,7.1-11c-3.6-2.2-5.8-5-5.8-9.3c0-6.9,6.2-11.6,13.3-11.6
		c7.3,0,13.3,3.6,13.3,10.7c0,3.9-2,7.2-5.9,9.5c3.8,1.8,7.2,5.3,7.2,10.8C73.9,55.4,67.6,60.3,59.1,60.3z M58.4,40.4
		c-2.7,1.1-5.4,4-5.4,7.2c0,3.4,2.2,6.6,6.2,6.6c3.9,0,6.1-2.8,6.1-6C65.3,44.4,61.9,42.1,58.4,40.4z M59.4,22.6
		c-3.2,0-5.3,2-5.3,4.9c0,3.4,3.4,5.5,6,6.6c2.2-1,4.5-3.7,4.5-6.3C64.7,24.9,62.8,22.6,59.4,22.6z"/>
	<path class="st1" d="M88.2,59.2V26.7c-2.5,2-6.5,3.9-9.3,5.2l-2.8-6.3c4.3-1.8,9.6-4.6,13.7-7.7H97v41.4H88.2z"/>
</g>
</svg>
