<?xml version="1.0" encoding="iso-8859-1"?>
<!-- Generator: Adobe Illustrator 14.0.0, SVG Export Plug-In . SVG Version: 6.00 Build 43363)  -->
<!DOCTYPE svg PUBLIC "-//W3C//DTD SVG 1.1//EN" "http://www.w3.org/Graphics/SVG/1.1/DTD/svg11.dtd">
<svg version="1.1" id="Calque_1" xmlns="http://www.w3.org/2000/svg" xmlns:xlink="http://www.w3.org/1999/xlink" x="0px" y="0px"
	 width="120px" height="77px" viewBox="0 0 120 77" style="enable-background:new 0 0 120 77;" xml:space="preserve">
<rect style="fill-rule:evenodd;clip-rule:evenodd;fill:#FF1400;" width="120" height="77"/>
<g>
	<path style="fill:#FFFFFF;" d="M28.563,59.212V26.659c-2.522,1.994-6.511,3.93-9.267,5.162l-2.815-6.335
		c4.34-1.818,9.561-4.575,13.667-7.684h7.214v41.41H28.563z"/>
	<path style="fill:#FFFFFF;" d="M57.342,60.326c-9.209,0-14.429-5.514-14.429-11.789c0-5.514,3.109-8.975,7.097-11.027
		c-3.578-2.229-5.807-5.044-5.807-9.326c0-6.863,6.217-11.614,13.314-11.614c7.273,0,13.314,3.578,13.314,10.675
		c0,3.871-1.994,7.156-5.865,9.502c3.813,1.818,7.156,5.338,7.156,10.793C72.123,55.399,65.847,60.326,57.342,60.326z
		 M56.638,40.384c-2.698,1.056-5.396,3.988-5.396,7.215c0,3.401,2.229,6.628,6.217,6.628c3.93,0,6.1-2.757,6.1-6.042
		C63.559,44.431,60.157,42.144,56.638,40.384z M57.635,22.553c-3.226,0-5.279,1.994-5.279,4.868c0,3.402,3.402,5.514,6.042,6.628
		c2.17-0.997,4.517-3.695,4.517-6.276C62.914,24.899,61.037,22.553,57.635,22.553z"/>
	<path style="fill:#FFFFFF;" d="M85.692,60.209c-5.925,0-9.209-1.466-11.966-3.108l3.227-6.394c1.76,1.231,4.633,2.698,8.152,2.698
		c4.811,0,7.801-2.815,7.801-6.335c0-4.751-3.637-6.394-7.859-6.394h-4.281v-6.862h4.34c4.047,0,6.569-2.112,6.569-5.279
		c0-2.64-1.994-5.044-6.335-5.044c-3.813,0-6.334,1.818-7.684,2.991l-2.991-6.1c3.52-2.346,7.332-3.695,12.552-3.695
		c8.447,0,13.256,5.044,13.256,10.558c0,4.282-2.287,7.684-6.686,9.326v0.117c4.574,0.88,8.035,4.399,8.035,10.206
		C101.822,54.168,95.312,60.209,85.692,60.209z"/>
</g>
</svg>
