<?xml version="1.0" encoding="iso-8859-1"?>
<!-- Generator: Adobe Illustrator 14.0.0, SVG Export Plug-In . SVG Version: 6.00 Build 43363)  -->
<!DOCTYPE svg PUBLIC "-//W3C//DTD SVG 1.1//EN" "http://www.w3.org/Graphics/SVG/1.1/DTD/svg11.dtd">
<svg version="1.1" id="Calque_1" xmlns="http://www.w3.org/2000/svg" xmlns:xlink="http://www.w3.org/1999/xlink" x="0px" y="0px"
	 width="120px" height="77px" viewBox="0 0 120 77" style="enable-background:new 0 0 120 77;" xml:space="preserve">
<rect style="fill-rule:evenodd;clip-rule:evenodd;fill:#A0006E;" width="120" height="77"/>
<g>
	<path style="fill:#FFFFFF;" d="M26.867,59.212V26.659c-2.522,1.994-6.511,3.93-9.267,5.162l-2.815-6.335
		c4.34-1.818,9.561-4.575,13.667-7.684h7.214v41.41H26.867z"/>
	<path style="fill:#FFFFFF;" d="M55.646,60.326c-9.209,0-14.429-5.514-14.429-11.789c0-5.514,3.109-8.975,7.097-11.027
		c-3.578-2.229-5.807-5.044-5.807-9.326c0-6.863,6.217-11.614,13.314-11.614c7.273,0,13.314,3.578,13.314,10.675
		c0,3.871-1.994,7.156-5.865,9.502c3.813,1.818,7.156,5.338,7.156,10.793C70.428,55.399,64.151,60.326,55.646,60.326z
		 M54.942,40.384c-2.698,1.056-5.396,3.988-5.396,7.215c0,3.401,2.229,6.628,6.217,6.628c3.93,0,6.1-2.757,6.1-6.042
		C61.863,44.431,58.462,42.144,54.942,40.384z M55.939,22.553c-3.226,0-5.279,1.994-5.279,4.868c0,3.402,3.402,5.514,6.042,6.628
		c2.17-0.997,4.517-3.695,4.517-6.276C61.219,24.899,59.342,22.553,55.939,22.553z"/>
	<path style="fill:#FFFFFF;" d="M89.498,60.209c-11.32,0-15.367-7.859-15.367-18.828c0-14.371,6.745-24.694,20.002-24.694
		c2.346,0,4.457,0.293,6.217,0.704l-1.291,7.039c-1.113-0.469-3.284-0.997-5.689-0.997c-5.807,0-10.029,4.634-10.616,12.962
		c1.407-1.231,4.106-2.815,8.563-2.815c6.863,0,12.377,4.517,12.377,12.259C103.693,54.109,98.18,60.209,89.498,60.209z
		 M88.678,40.091c-2.641,0-4.752,0.997-5.572,2.287c-0.47,0.704-0.47,2.347-0.47,3.578c0,3.93,2.288,7.742,6.511,7.742
		c4.105,0,6.217-3.343,6.217-6.921C95.363,42.906,92.783,40.091,88.678,40.091z"/>
</g>
</svg>
