<?xml version="1.0" encoding="iso-8859-1"?>
<!-- Generator: Adobe Illustrator 14.0.0, SVG Export Plug-In . SVG Version: 6.00 Build 43363)  -->
<!DOCTYPE svg PUBLIC "-//W3C//DTD SVG 1.1//EN" "http://www.w3.org/Graphics/SVG/1.1/DTD/svg11.dtd">
<svg version="1.1" id="Calque_1" xmlns="http://www.w3.org/2000/svg" xmlns:xlink="http://www.w3.org/1999/xlink" x="0px" y="0px"
	 width="120px" height="77px" viewBox="0 0 120 77" style="enable-background:new 0 0 120 77;" xml:space="preserve">
<rect style="fill-rule:evenodd;clip-rule:evenodd;fill:#D282BE;" width="120" height="77"/>
<g>
	<path d="M26.715,59.212V26.659c-2.522,1.994-6.511,3.93-9.267,5.162l-2.815-6.335c4.34-1.818,9.561-4.575,13.667-7.684h7.214v41.41
		H26.715z"/>
	<path d="M55.494,60.326c-9.209,0-14.429-5.514-14.429-11.789c0-5.514,3.109-8.975,7.097-11.027
		c-3.578-2.229-5.807-5.044-5.807-9.326c0-6.863,6.217-11.614,13.314-11.614c7.273,0,13.314,3.578,13.314,10.675
		c0,3.871-1.994,7.156-5.865,9.502c3.813,1.818,7.156,5.338,7.156,10.793C70.275,55.399,63.999,60.326,55.494,60.326z M54.79,40.384
		c-2.698,1.056-5.396,3.988-5.396,7.215c0,3.401,2.229,6.628,6.217,6.628c3.93,0,6.1-2.757,6.1-6.042
		C61.711,44.431,58.31,42.144,54.79,40.384z M55.787,22.553c-3.226,0-5.279,1.994-5.279,4.868c0,3.402,3.402,5.514,6.042,6.628
		c2.17-0.997,4.517-3.695,4.517-6.276C61.066,24.899,59.189,22.553,55.787,22.553z"/>
	<path d="M88.537,60.326c-9.209,0-14.43-5.514-14.43-11.789c0-5.514,3.109-8.975,7.098-11.027c-3.578-2.229-5.807-5.044-5.807-9.326
		c0-6.863,6.217-11.614,13.314-11.614c7.273,0,13.314,3.578,13.314,10.675c0,3.871-1.994,7.156-5.865,9.502
		c3.813,1.818,7.156,5.338,7.156,10.793C103.318,55.399,97.042,60.326,88.537,60.326z M87.833,40.384
		c-2.698,1.056-5.396,3.988-5.396,7.215c0,3.401,2.229,6.628,6.217,6.628c3.93,0,6.1-2.757,6.1-6.042
		C94.754,44.431,91.353,42.144,87.833,40.384z M88.83,22.553c-3.226,0-5.279,1.994-5.279,4.868c0,3.402,3.402,5.514,6.042,6.628
		c2.171-0.997,4.517-3.695,4.517-6.276C94.109,24.899,92.232,22.553,88.83,22.553z"/>
</g>
</svg>
