<?xml version="1.0" encoding="iso-8859-1"?>
<!-- Generator: Adobe Illustrator 14.0.0, SVG Export Plug-In . SVG Version: 6.00 Build 43363)  -->
<!DOCTYPE svg PUBLIC "-//W3C//DTD SVG 1.1//EN" "http://www.w3.org/Graphics/SVG/1.1/DTD/svg11.dtd">
<svg version="1.1" id="Calque_1" xmlns="http://www.w3.org/2000/svg" xmlns:xlink="http://www.w3.org/1999/xlink" x="0px" y="0px"
	 width="120px" height="77px" viewBox="0 0 120 77" style="enable-background:new 0 0 120 77;" xml:space="preserve">
<rect style="fill-rule:evenodd;clip-rule:evenodd;fill:#D2D200;" width="120" height="77"/>
<g>
	<path d="M26.802,59.212V26.659c-2.522,1.994-6.51,3.93-9.267,5.162l-2.815-6.335c4.34-1.818,9.561-4.575,13.667-7.684h7.214v41.41
		H26.802z"/>
	<path d="M50.103,60.326c-2.346,0-4.458-0.293-6.217-0.704l1.291-7.038c1.114,0.469,3.285,0.997,5.689,0.997
		c5.807,0,10.03-4.634,10.617-12.963c-1.408,1.232-4.106,2.815-8.564,2.815c-6.862,0-12.376-4.517-12.376-12.259
		c0-8.27,5.514-14.37,14.194-14.37c11.32,0,15.368,7.859,15.368,18.828C70.104,50.003,63.359,60.326,50.103,60.326z M55.089,23.315
		c-4.106,0-6.217,3.343-6.217,6.921c0,3.871,2.581,6.687,6.687,6.687c2.639,0,4.751-0.997,5.573-2.287
		C61.6,33.932,61.6,32.29,61.6,31.058C61.6,27.128,59.312,23.315,55.089,23.315z"/>
	<path d="M83.229,60.326c-2.346,0-4.457-0.293-6.217-0.704l1.29-7.038c1.114,0.469,3.284,0.997,5.689,0.997
		c5.807,0,10.03-4.634,10.616-12.963c-1.407,1.232-4.105,2.815-8.563,2.815c-6.862,0-12.376-4.517-12.376-12.259
		c0-8.27,5.514-14.37,14.194-14.37c11.32,0,15.368,7.859,15.368,18.828C103.23,50.003,96.484,60.326,83.229,60.326z M88.215,23.315
		c-4.106,0-6.218,3.343-6.218,6.921c0,3.871,2.581,6.687,6.687,6.687c2.64,0,4.751-0.997,5.572-2.287
		c0.469-0.704,0.469-2.346,0.469-3.578C94.725,27.128,92.438,23.315,88.215,23.315z"/>
</g>
</svg>
