<?xml version="1.0" encoding="utf-8"?>
<!-- Generator: Adobe Illustrator 21.0.2, SVG Export Plug-In . SVG Version: 6.00 Build 0)  -->
<svg version="1.1" id="Calque_1" xmlns="http://www.w3.org/2000/svg" xmlns:xlink="http://www.w3.org/1999/xlink" x="0px" y="0px"
	 viewBox="0 0 120 77" style="enable-background:new 0 0 120 77;" xml:space="preserve">
<style type="text/css">
	.st0{fill-rule:evenodd;clip-rule:evenodd;fill:#6E491E;}
	.st1{fill:#FFFFFF;}
</style>
<rect class="st0" width="120" height="77"/>
<g>
	<path class="st1" d="M17.2,59.2v-5.5c1.1-4.8,5.8-9.2,11.3-14c2.8-2.4,5.7-5.4,5.7-9.4c0-3.6-2.3-6.6-6.9-6.6
		c-3.6,0-6.2,2.6-7.2,3.8l-4.3-5.7c4-3.5,7.7-5.1,13.3-5.1c7.3,0,14.1,4.2,14.1,12.7c0,7.1-4.5,10.4-9.5,15c-2.1,1.9-6.3,5.6-6.8,8
		h17.1v6.9H17.2z"/>
	<path class="st1" d="M61.8,60.3c-12.5,0-15-12.3-15-21.9c0-9.6,2.7-21.9,15.2-21.9c12.5,0,15,12.3,15,21.9
		C77,48,74.3,60.3,61.8,60.3z M61.9,23.5c-6,0-6.2,10.7-6.2,14.9c0,4.2,0.3,15,6.2,15c5.9,0,6.1-10.9,6.1-15
		C68,34.1,67.9,23.5,61.9,23.5z"/>
	<path class="st1" d="M91.1,59.2V26.7c-2.5,2-6.5,3.9-9.3,5.2L79,25.5c4.3-1.8,9.6-4.6,13.7-7.7h7.2v41.4H91.1z"/>
</g>
</svg>
