<?xml version="1.0" encoding="utf-8"?>
<!-- Generator: Adobe Illustrator 21.0.2, SVG Export Plug-In . SVG Version: 6.00 Build 0)  -->
<svg version="1.1" id="Calque_1" xmlns="http://www.w3.org/2000/svg" xmlns:xlink="http://www.w3.org/1999/xlink" x="0px" y="0px"
	 viewBox="0 0 120 77" style="enable-background:new 0 0 120 77;" xml:space="preserve">
<style type="text/css">
	.st0{fill-rule:evenodd;clip-rule:evenodd;fill:#6E491E;}
	.st1{fill:#FFFFFF;}
</style>
<rect class="st0" width="120" height="77"/>
<g>
	<path class="st1" d="M13.6,59.2v-5.5c1.1-4.8,5.8-9.2,11.3-14c2.8-2.4,5.7-5.4,5.7-9.4c0-3.6-2.3-6.6-6.9-6.6
		c-3.6,0-6.2,2.6-7.2,3.8l-4.3-5.7c4-3.5,7.7-5.1,13.3-5.1c7.3,0,14.1,4.2,14.1,12.7c0,7.1-4.5,10.4-9.5,15c-2.1,1.9-6.3,5.6-6.8,8
		h17.1v6.9H13.6z"/>
	<path class="st1" d="M58.2,60.3c-12.5,0-15-12.3-15-21.9c0-9.6,2.7-21.9,15.2-21.9c12.5,0,15,12.3,15,21.9
		C73.4,48,70.7,60.3,58.2,60.3z M58.3,23.5c-6,0-6.2,10.7-6.2,14.9c0,4.2,0.3,15,6.2,15c5.9,0,6.1-10.9,6.1-15
		C64.4,34.1,64.2,23.5,58.3,23.5z"/>
	<path class="st1" d="M92.6,60.2c-11.3,0-15.4-7.9-15.4-18.8c0-14.4,6.7-24.7,20-24.7c2.3,0,4.5,0.3,6.2,0.7l-1.3,7
		c-1.1-0.5-3.3-1-5.7-1c-5.8,0-10,4.6-10.6,13c1.4-1.2,4.1-2.8,8.6-2.8c6.9,0,12.4,4.5,12.4,12.3C106.8,54.1,101.2,60.2,92.6,60.2z
		 M91.7,40.1c-2.6,0-4.8,1-5.6,2.3c-0.5,0.7-0.5,2.3-0.5,3.6c0,3.9,2.3,7.7,6.5,7.7c4.1,0,6.2-3.3,6.2-6.9
		C98.4,42.9,95.9,40.1,91.7,40.1z"/>
</g>
</svg>
