<?xml version="1.0" encoding="utf-8"?>
<!-- Generator: Adobe Illustrator 21.0.2, SVG Export Plug-In . SVG Version: 6.00 Build 0)  -->
<svg version="1.1" id="Calque_1" xmlns="http://www.w3.org/2000/svg" xmlns:xlink="http://www.w3.org/1999/xlink" x="0px" y="0px"
	 viewBox="0 0 120 77" style="enable-background:new 0 0 120 77;" xml:space="preserve">
<style type="text/css">
	.st0{fill-rule:evenodd;clip-rule:evenodd;fill:#A0006E;}
	.st1{fill:#FFFFFF;}
</style>
<rect class="st0" width="120" height="77"/>
<g>
	<path class="st1" d="M22.7,39.8v-4.4c0.8-3.9,4.7-7.4,9.1-11.2c2.2-1.9,4.6-4.3,4.6-7.5c0-2.9-1.9-5.3-5.5-5.3
		c-2.9,0-4.9,2.1-5.7,3l-3.5-4.6c3.2-2.8,6.2-4.1,10.6-4.1c5.8,0,11.3,3.4,11.3,10.2c0,5.7-3.6,8.4-7.6,12c-1.7,1.6-5,4.5-5.5,6.4
		h13.7v5.5H22.7z"/>
	<path class="st1" d="M58.6,40.7c-10,0-12-9.9-12-17.5c0-7.7,2.2-17.5,12.2-17.5s12,9.9,12,17.5C70.8,30.8,68.6,40.7,58.6,40.7z
		 M58.7,11.2c-4.8,0-4.9,8.6-4.9,11.9c0,3.3,0.2,12,4.9,12c4.7,0,4.9-8.7,4.9-12C63.6,19.7,63.5,11.2,58.7,11.2z"/>
	<path class="st1" d="M85.3,40.7c-7.4,0-11.6-4.4-11.6-9.4c0-4.4,2.5-7.2,5.7-8.8c-2.9-1.8-4.7-4-4.7-7.5c0-5.5,5-9.3,10.7-9.3
		c5.8,0,10.7,2.9,10.7,8.6c0,3.1-1.6,5.7-4.7,7.6c3.1,1.5,5.7,4.3,5.7,8.6C97.2,36.7,92.1,40.7,85.3,40.7z M84.8,24.7
		c-2.2,0.8-4.3,3.2-4.3,5.8c0,2.7,1.8,5.3,5,5.3c3.1,0,4.9-2.2,4.9-4.8C90.3,28,87.6,26.1,84.8,24.7z M85.6,10.4
		c-2.6,0-4.2,1.6-4.2,3.9c0,2.7,2.7,4.4,4.8,5.3c1.7-0.8,3.6-3,3.6-5C89.8,12.3,88.3,10.4,85.6,10.4z"/>
</g>
<g>
	<path class="st1" d="M50.7,71.9c-1.8,0-2.7-1.1-2.9-2.6c-1.6,1.8-3,2.8-5.6,2.8c-3.3,0-5.6-2.4-5.6-5.6c0-5.1,5.4-6.1,9.6-6.1
		c0.8,0,1.2,0,1.2-0.7v-1.2c0-1.3-0.9-2.6-3.5-2.6c-2.2,0-3.9,1-4.7,1.7l-1.7-3.6c2.1-1.3,4.4-2,7.7-2c2.7,0,7,1,7,6.4v8.7
		c0,0.7,0.1,1.2,0.7,1.2c0.2,0,0.6-0.1,0.8-0.2l0.3,3.2C53.2,71.6,51.9,71.9,50.7,71.9z M47.4,63.3c-0.5,0-1.1,0-1.5,0
		c-1.7,0-4.4,0.4-4.4,2.7c0,1.4,1,2.4,2.4,2.4c1.1,0,2-0.4,2.7-1c0.6-0.6,0.8-1.3,0.8-2.2V63.3z"/>
	<path class="st1" d="M76.1,72.1c-1.4,0-3.1-0.6-4-1.5v0.9h-4.8V45.2h5V55c1.3-1.8,2.7-3.1,5.1-3.1c5,0,7,5.3,7,9.9
		C84.4,66.1,82.2,72.1,76.1,72.1z M75.5,56.3c-1,0-1.8,0.4-2.3,1c-0.9,0.8-1,1.3-1,2.4v6.4c0,1.3,0.8,2.5,3.1,2.5c3.2,0,4-3.4,4-6
		C79.2,60,78.6,56.3,75.5,56.3z"/>
</g>
</svg>
