<?xml version="1.0" encoding="utf-8"?>
<!-- Generator: Adobe Illustrator 21.0.2, SVG Export Plug-In . SVG Version: 6.00 Build 0)  -->
<svg version="1.1" id="Calque_1" xmlns="http://www.w3.org/2000/svg" xmlns:xlink="http://www.w3.org/1999/xlink" x="0px" y="0px"
	 viewBox="0 0 120 77" style="enable-background:new 0 0 120 77;" xml:space="preserve">
<style type="text/css">
	.st0{fill-rule:evenodd;clip-rule:evenodd;fill:#A0006E;}
	.st1{fill:#FFFFFF;}
</style>
<rect class="st0" width="120" height="77"/>
<g>
	<path class="st1" d="M10.8,55.1v-4.4c0.8-3.9,4.7-7.4,9.1-11.2c2.2-1.9,4.6-4.3,4.6-7.5c0-2.9-1.9-5.3-5.5-5.3
		c-2.9,0-4.9,2.1-5.7,3l-3.5-4.6C13,22.3,15.9,21,20.4,21c5.8,0,11.3,3.4,11.3,10.2c0,5.7-3.6,8.4-7.6,12c-1.7,1.6-5,4.5-5.5,6.4
		h13.7v5.5H10.8z"/>
	<path class="st1" d="M46.7,56c-10,0-12-9.9-12-17.5c0-7.7,2.2-17.5,12.2-17.5c10,0,12,9.9,12,17.5C58.9,46.1,56.7,56,46.7,56z
		 M46.8,26.5c-4.8,0-4.9,8.6-4.9,11.9c0,3.3,0.2,12,4.9,12s4.9-8.7,4.9-12C51.7,35,51.5,26.5,46.8,26.5z"/>
	<path class="st1" d="M73.4,56c-7.4,0-11.6-4.4-11.6-9.4c0-4.4,2.5-7.2,5.7-8.8c-2.9-1.8-4.7-4-4.7-7.5c0-5.5,5-9.3,10.7-9.3
		c5.8,0,10.7,2.9,10.7,8.6c0,3.1-1.6,5.7-4.7,7.6c3.1,1.5,5.7,4.3,5.7,8.6C85.3,52,80.2,56,73.4,56z M72.8,40
		c-2.2,0.8-4.3,3.2-4.3,5.8c0,2.7,1.8,5.3,5,5.3c3.1,0,4.9-2.2,4.9-4.8C78.4,43.3,75.7,41.4,72.8,40z M73.6,25.7
		c-2.6,0-4.2,1.6-4.2,3.9c0,2.7,2.7,4.4,4.8,5.3c1.7-0.8,3.6-3,3.6-5C77.9,27.6,76.4,25.7,73.6,25.7z"/>
	<path class="st1" d="M106.9,55.5c-1.8,0-2.6-1.1-2.9-2.6c-1.6,1.8-3,2.7-5.6,2.7c-3.3,0-5.6-2.4-5.6-5.6c0-5.1,5.4-6.1,9.5-6.1
		c0.8,0,1.2,0,1.2-0.7V42c0-1.3-0.8-2.6-3.5-2.6c-2.2,0-3.8,1-4.7,1.7l-1.7-3.5c2.1-1.3,4.4-1.9,7.6-1.9c2.6,0,6.9,1,6.9,6.4v8.7
		c0,0.7,0.1,1.2,0.7,1.2c0.2,0,0.6-0.1,0.8-0.2l0.3,3.2C109.3,55.2,108.1,55.5,106.9,55.5z M103.6,47c-0.5,0-1.1,0-1.5,0
		c-1.7,0-4.3,0.4-4.3,2.7c0,1.4,1,2.4,2.4,2.4c1.1,0,2-0.4,2.6-1c0.6-0.6,0.8-1.3,0.8-2.2V47z"/>
</g>
</svg>
