<?xml version="1.0" encoding="utf-8"?>
<!-- Generator: Adobe Illustrator 21.0.2, SVG Export Plug-In . SVG Version: 6.00 Build 0)  -->
<svg version="1.1" id="Calque_1" xmlns="http://www.w3.org/2000/svg" xmlns:xlink="http://www.w3.org/1999/xlink" x="0px" y="0px"
	 viewBox="0 0 120 77" style="enable-background:new 0 0 120 77;" xml:space="preserve">
<style type="text/css">
	.st0{fill-rule:evenodd;clip-rule:evenodd;fill:#A0006E;}
	.st1{fill:#FFFFFF;}
</style>
<rect class="st0" width="120" height="77"/>
<g>
	<path class="st1" d="M10,55.1v-4.4c0.8-3.9,4.7-7.4,9.1-11.2c2.2-1.9,4.6-4.3,4.6-7.5c0-2.9-1.9-5.3-5.5-5.3c-2.9,0-4.9,2.1-5.7,3
		l-3.5-4.6c3.2-2.8,6.2-4.1,10.6-4.1c5.8,0,11.3,3.4,11.3,10.2c0,5.7-3.6,8.4-7.6,12c-1.7,1.6-5,4.5-5.5,6.4h13.7v5.5H10z"/>
	<path class="st1" d="M45.9,56c-10,0-12-9.9-12-17.5c0-7.7,2.2-17.5,12.2-17.5c10,0,12,9.9,12,17.5C58,46.1,55.9,56,45.9,56z
		 M46,26.5c-4.8,0-4.9,8.6-4.9,11.9c0,3.3,0.2,12,4.9,12s4.9-8.7,4.9-12C50.8,35,50.7,26.5,46,26.5z"/>
	<path class="st1" d="M72.6,56C65.2,56,61,51.6,61,46.5c0-4.4,2.5-7.2,5.7-8.8c-2.9-1.8-4.7-4-4.7-7.5c0-5.5,5-9.3,10.7-9.3
		c5.8,0,10.7,2.9,10.7,8.6c0,3.1-1.6,5.7-4.7,7.6c3.1,1.5,5.7,4.3,5.7,8.6C84.4,52,79.4,56,72.6,56z M72,40
		c-2.2,0.8-4.3,3.2-4.3,5.8c0,2.7,1.8,5.3,5,5.3c3.1,0,4.9-2.2,4.9-4.8C77.5,43.3,74.8,41.4,72,40z M72.8,25.7
		c-2.6,0-4.2,1.6-4.2,3.9c0,2.7,2.7,4.4,4.8,5.3c1.7-0.8,3.6-3,3.6-5C77,27.6,75.5,25.7,72.8,25.7z"/>
	<path class="st1" d="M102.3,55.7c-1.4,0-3.1-0.6-4-1.4v0.8h-4.8V29h5v9.7c1.3-1.8,2.7-3.1,5.1-3.1c4.9,0,7,5.3,7,9.8
		C110.6,49.7,108.4,55.7,102.3,55.7z M101.7,40c-1,0-1.8,0.4-2.3,1c-0.8,0.8-1,1.3-1,2.4v6.4c0,1.3,0.8,2.5,3,2.5
		c3.2,0,3.9-3.4,3.9-6C105.4,43.7,104.8,40,101.7,40z"/>
</g>
</svg>
