<?xml version="1.0" encoding="utf-8"?>
<!-- Generator: Adobe Illustrator 21.0.2, SVG Export Plug-In . SVG Version: 6.00 Build 0)  -->
<svg version="1.1" id="Calque_1" xmlns="http://www.w3.org/2000/svg" xmlns:xlink="http://www.w3.org/1999/xlink" x="0px" y="0px"
	 viewBox="0 0 120 77" style="enable-background:new 0 0 120 77;" xml:space="preserve">
<style type="text/css">
	.st0{fill-rule:evenodd;clip-rule:evenodd;fill:#A0006E;}
	.st1{fill:#FFFFFF;}
</style>
<rect class="st0" width="120" height="77"/>
<g>
	<path class="st1" d="M12.3,55.1v-4.4c0.8-3.9,4.7-7.4,9.1-11.2c2.2-1.9,4.6-4.3,4.6-7.5c0-2.9-1.9-5.3-5.5-5.3
		c-2.9,0-4.9,2.1-5.7,3l-3.5-4.6c3.2-2.8,6.2-4.1,10.6-4.1c5.8,0,11.3,3.4,11.3,10.2c0,5.7-3.6,8.4-7.6,12c-1.7,1.6-5,4.5-5.5,6.4
		h13.7v5.5H12.3z"/>
	<path class="st1" d="M48.2,56c-10,0-12-9.9-12-17.5c0-7.7,2.2-17.5,12.2-17.5c10,0,12,9.9,12,17.5C60.4,46.1,58.2,56,48.2,56z
		 M48.3,26.5c-4.8,0-4.9,8.6-4.9,11.9c0,3.3,0.2,12,4.9,12s4.9-8.7,4.9-12C53.2,35,53.1,26.5,48.3,26.5z"/>
	<path class="st1" d="M74.9,56c-7.4,0-11.6-4.4-11.6-9.4c0-4.4,2.5-7.2,5.7-8.8c-2.9-1.8-4.7-4-4.7-7.5c0-5.5,5-9.3,10.7-9.3
		c5.8,0,10.7,2.9,10.7,8.6c0,3.1-1.6,5.7-4.7,7.6c3.1,1.5,5.7,4.3,5.7,8.6C86.8,52,81.8,56,74.9,56z M74.4,40
		c-2.2,0.8-4.3,3.2-4.3,5.8c0,2.7,1.8,5.3,5,5.3c3.1,0,4.9-2.2,4.9-4.8C79.9,43.3,77.2,41.4,74.4,40z M75.2,25.7
		c-2.6,0-4.2,1.6-4.2,3.9c0,2.7,2.7,4.4,4.8,5.3c1.7-0.8,3.6-3,3.6-5C79.4,27.6,77.9,25.7,75.2,25.7z"/>
	<path class="st1" d="M100.2,55.7c-2.4,0-4.5-0.8-5.5-1.4l1.5-3.6c1.2,0.8,2.9,1.4,4.4,1.4c1.3,0,2.9-0.5,2.9-1.9
		c0-1.2-1-1.6-2.8-2.3l-1.5-0.6c-2.4-1-4.1-2.4-4.1-5.1c0-3.6,3-6.4,7.4-6.4c2.4,0,4.1,0.7,5.1,1.2l-1.5,3.6
		c-1.1-0.7-2.6-1.1-3.8-1.1c-2,0-2.6,1-2.6,1.9c0,1,0.9,1.6,2.2,2l1.7,0.6c2.7,1,4.6,2.4,4.6,5.6C108.1,53.1,105.1,55.7,100.2,55.7z
		"/>
</g>
</svg>
