<?xml version="1.0" encoding="iso-8859-1"?>
<!-- Generator: Adobe Illustrator 14.0.0, SVG Export Plug-In . SVG Version: 6.00 Build 43363)  -->
<!DOCTYPE svg PUBLIC "-//W3C//DTD SVG 1.1//EN" "http://www.w3.org/Graphics/SVG/1.1/DTD/svg11.dtd">
<svg version="1.1" id="Calque_1" xmlns="http://www.w3.org/2000/svg" xmlns:xlink="http://www.w3.org/1999/xlink" x="0px" y="0px"
	 width="120px" height="77px" viewBox="0 0 120 77" style="enable-background:new 0 0 120 77;" xml:space="preserve">
<g>
	<rect style="fill-rule:evenodd;clip-rule:evenodd;fill:#FF5A00;" width="120" height="77"/>
	<g>
		<path d="M16.892,68.378v-7.873c1.524-6.941,8.381-13.291,16.338-20.232c3.979-3.471,8.296-7.789,8.296-13.545
			c0-5.164-3.386-9.481-9.905-9.481c-5.249,0-8.889,3.809-10.328,5.418l-6.264-8.296c5.756-4.995,11.09-7.365,19.132-7.365
			c10.498,0,20.402,6.095,20.402,18.286c0,10.243-6.519,15.068-13.714,21.587c-3.047,2.794-9.058,8.043-9.82,11.514h24.635v9.989
			H16.892z"/>
		<path d="M80.928,69.986c-18.032,0-21.588-17.777-21.588-31.576c0-13.799,3.895-31.577,21.926-31.577s21.588,17.778,21.588,31.577
			C102.854,52.209,98.959,69.986,80.928,69.986z M81.096,16.907c-8.635,0-8.889,15.407-8.889,21.503
			c0,6.01,0.424,21.587,8.889,21.587c8.467,0,8.805-15.661,8.805-21.587C89.9,32.146,89.646,16.907,81.096,16.907z"/>
	</g>
</g>
</svg>
