<?xml version="1.0" encoding="iso-8859-1"?>
<!-- Generator: Adobe Illustrator 14.0.0, SVG Export Plug-In . SVG Version: 6.00 Build 43363)  -->
<!DOCTYPE svg PUBLIC "-//W3C//DTD SVG 1.1//EN" "http://www.w3.org/Graphics/SVG/1.1/DTD/svg11.dtd">
<svg version="1.1" id="Calque_1" xmlns="http://www.w3.org/2000/svg" xmlns:xlink="http://www.w3.org/1999/xlink" x="0px" y="0px"
	 width="120px" height="77px" viewBox="0 0 120 77" style="enable-background:new 0 0 120 77;" xml:space="preserve">
<rect style="fill-rule:evenodd;clip-rule:evenodd;fill:#FF1400;" width="120" height="77"/>
<g>
	<path style="fill:#FFFFFF;" d="M17.723,59.212v-5.455c1.056-4.81,5.807-9.209,11.32-14.019c2.757-2.404,5.748-5.396,5.748-9.385
		c0-3.578-2.346-6.569-6.863-6.569c-3.636,0-6.159,2.64-7.156,3.754l-4.34-5.748c3.988-3.46,7.684-5.103,13.256-5.103
		c7.273,0,14.136,4.223,14.136,12.669c0,7.098-4.516,10.44-9.502,14.957c-2.111,1.936-6.276,5.572-6.804,7.978h17.068v6.921H17.723z
		"/>
	<path style="fill:#FFFFFF;" d="M58.608,59.212V26.659c-2.522,1.994-6.511,3.93-9.267,5.162l-2.815-6.335
		c4.34-1.818,9.561-4.575,13.667-7.684h7.214v41.41H58.608z"/>
	<path style="fill:#FFFFFF;" d="M88.438,60.209c-11.32,0-15.367-7.859-15.367-18.828c0-14.371,6.745-24.694,20.002-24.694
		c2.346,0,4.457,0.293,6.217,0.704l-1.291,7.039c-1.113-0.469-3.284-0.997-5.689-0.997c-5.807,0-10.029,4.634-10.616,12.962
		c1.407-1.231,4.106-2.815,8.563-2.815c6.863,0,12.377,4.517,12.377,12.259C102.633,54.109,97.119,60.209,88.438,60.209z
		 M87.617,40.091c-2.641,0-4.752,0.997-5.572,2.287c-0.47,0.704-0.47,2.347-0.47,3.578c0,3.93,2.288,7.742,6.511,7.742
		c4.105,0,6.217-3.343,6.217-6.921C94.303,42.906,91.723,40.091,87.617,40.091z"/>
</g>
</svg>
