<?xml version="1.0" encoding="iso-8859-1"?>
<!-- Generator: Adobe Illustrator 14.0.0, SVG Export Plug-In . SVG Version: 6.00 Build 43363)  -->
<!DOCTYPE svg PUBLIC "-//W3C//DTD SVG 1.1//EN" "http://www.w3.org/Graphics/SVG/1.1/DTD/svg11.dtd">
<svg version="1.1" id="Calque_1" xmlns="http://www.w3.org/2000/svg" xmlns:xlink="http://www.w3.org/1999/xlink" x="0px" y="0px"
	 width="120px" height="77px" viewBox="0 0 120 77" style="enable-background:new 0 0 120 77;" xml:space="preserve">
<g>
	<rect style="fill-rule:evenodd;clip-rule:evenodd;fill:#82DC73;" width="120" height="77"/>
	<g>
		<path d="M22.204,68.378v-7.873c1.524-6.941,8.381-13.291,16.338-20.232c3.979-3.471,8.296-7.789,8.296-13.545
			c0-5.164-3.386-9.481-9.905-9.481c-5.249,0-8.889,3.809-10.328,5.418l-6.264-8.296c5.756-4.995,11.09-7.365,19.132-7.365
			c10.498,0,20.402,6.095,20.402,18.286c0,10.243-6.519,15.068-13.714,21.587c-3.047,2.794-9.058,8.043-9.82,11.514h24.635v9.989
			H22.204z"/>
		<path d="M80.948,68.378V21.394c-3.64,2.878-9.396,5.671-13.376,7.45l-4.063-9.143c6.264-2.624,13.799-6.603,19.725-11.09h10.412
			v59.767H80.948z"/>
	</g>
</g>
</svg>
