<?xml version="1.0" encoding="iso-8859-1"?>
<!-- Generator: Adobe Illustrator 14.0.0, SVG Export Plug-In . SVG Version: 6.00 Build 43363)  -->
<!DOCTYPE svg PUBLIC "-//W3C//DTD SVG 1.1//EN" "http://www.w3.org/Graphics/SVG/1.1/DTD/svg11.dtd">
<svg version="1.1" id="Calque_1" xmlns="http://www.w3.org/2000/svg" xmlns:xlink="http://www.w3.org/1999/xlink" x="0px" y="0px"
	 width="120px" height="77px" viewBox="0 0 120 77" style="enable-background:new 0 0 120 77;" xml:space="preserve">
<rect style="fill-rule:evenodd;clip-rule:evenodd;fill:#FF82B4;" width="120" height="77"/>
<g>
	<path d="M14.67,59.212v-5.455c1.056-4.81,5.807-9.209,11.32-14.019c2.757-2.404,5.748-5.396,5.748-9.385
		c0-3.578-2.346-6.569-6.863-6.569c-3.636,0-6.159,2.64-7.156,3.754l-4.34-5.748c3.988-3.46,7.684-5.103,13.256-5.103
		c7.273,0,14.136,4.223,14.136,12.669c0,7.098-4.516,10.44-9.502,14.957c-2.111,1.936-6.276,5.572-6.804,7.978h17.068v6.921H14.67z"
		/>
	<path d="M56.143,60.209c-5.924,0-9.209-1.466-11.966-3.108l3.226-6.394c1.76,1.231,4.634,2.698,8.153,2.698
		c4.81,0,7.802-2.815,7.802-6.335c0-4.751-3.637-6.394-7.86-6.394h-4.282v-6.862h4.34c4.047,0,6.569-2.112,6.569-5.279
		c0-2.64-1.994-5.044-6.334-5.044c-3.813,0-6.334,1.818-7.684,2.991l-2.992-6.1c3.52-2.346,7.332-3.695,12.552-3.695
		c8.446,0,13.256,5.044,13.256,10.558c0,4.282-2.288,7.684-6.688,9.326v0.117c4.576,0.88,8.036,4.399,8.036,10.206
		C72.272,54.168,65.762,60.209,56.143,60.209z"/>
	<path d="M90.377,60.326c-9.209,0-14.43-5.514-14.43-11.789c0-5.514,3.109-8.975,7.098-11.027c-3.578-2.229-5.807-5.044-5.807-9.326
		c0-6.863,6.217-11.614,13.314-11.614c7.273,0,13.314,3.578,13.314,10.675c0,3.871-1.994,7.156-5.865,9.502
		c3.813,1.818,7.156,5.338,7.156,10.793C105.158,55.399,98.882,60.326,90.377,60.326z M89.673,40.384
		c-2.698,1.056-5.396,3.988-5.396,7.215c0,3.401,2.229,6.628,6.217,6.628c3.93,0,6.1-2.757,6.1-6.042
		C96.594,44.431,93.192,42.144,89.673,40.384z M90.67,22.553c-3.226,0-5.279,1.994-5.279,4.868c0,3.402,3.402,5.514,6.042,6.628
		c2.171-0.997,4.517-3.695,4.517-6.276C95.949,24.899,94.072,22.553,90.67,22.553z"/>
</g>
</svg>
