<?xml version="1.0" encoding="utf-8"?>
<!-- Generator: Adobe Illustrator 21.0.2, SVG Export Plug-In . SVG Version: 6.00 Build 0)  -->
<svg version="1.1" id="Calque_1" xmlns="http://www.w3.org/2000/svg" xmlns:xlink="http://www.w3.org/1999/xlink" x="0px" y="0px"
	 viewBox="0 0 120 77" style="enable-background:new 0 0 120 77;" xml:space="preserve">
<style type="text/css">
	.st0{fill-rule:evenodd;clip-rule:evenodd;fill:#6E491E;}
	.st1{fill:#FFFFFF;}
</style>
<rect class="st0" width="120" height="77"/>
<g>
	<path class="st1" d="M12.6,59.2v-5.5c1.1-4.8,5.8-9.2,11.3-14c2.8-2.4,5.7-5.4,5.7-9.4c0-3.6-2.3-6.6-6.9-6.6
		c-3.6,0-6.2,2.6-7.2,3.8l-4.3-5.7c4-3.5,7.7-5.1,13.3-5.1c7.3,0,14.1,4.2,14.1,12.7c0,7.1-4.5,10.4-9.5,15c-2.1,1.9-6.3,5.6-6.8,8
		h17.1v6.9H12.6z"/>
	<path class="st1" d="M68.8,50.6v8.6h-8.2v-8.6H41.9v-7.7L58,17.8h10.8v26.3h4.9v6.5H68.8z M60.5,25.1h-0.1c-0.2,0.7-1.3,3.2-3,5.8
		L49,44.1h11.6V25.1z"/>
	<path class="st1" d="M92,60.3c-12.5,0-15-12.3-15-21.9c0-9.6,2.7-21.9,15.2-21.9c12.5,0,15,12.3,15,21.9
		C107.2,48,104.5,60.3,92,60.3z M92.1,23.5c-6,0-6.2,10.7-6.2,14.9c0,4.2,0.3,15,6.2,15c5.9,0,6.1-10.9,6.1-15
		C98.2,34.1,98.1,23.5,92.1,23.5z"/>
</g>
</svg>
