<?xml version="1.0" encoding="utf-8"?>
<!-- Generator: Adobe Illustrator 21.0.2, SVG Export Plug-In . SVG Version: 6.00 Build 0)  -->
<svg version="1.1" id="Calque_1" xmlns="http://www.w3.org/2000/svg" xmlns:xlink="http://www.w3.org/1999/xlink" x="0px" y="0px"
	 viewBox="0 0 120 77" style="enable-background:new 0 0 120 77;" xml:space="preserve">
<style type="text/css">
	.st0{fill-rule:evenodd;clip-rule:evenodd;fill:#FF5A00;}
</style>
<rect class="st0" width="120" height="77"/>
<g>
	<path d="M14.1,59.2v-5.5c1.1-4.8,5.8-9.2,11.3-14c2.7-2.4,5.7-5.4,5.7-9.4c0-3.6-2.3-6.6-6.8-6.6c-3.6,0-6.1,2.6-7.1,3.8l-4.3-5.8
		c4-3.5,7.7-5.1,13.2-5.1c7.3,0,14.1,4.2,14.1,12.7c0,7.1-4.5,10.4-9.5,15c-2.1,1.9-6.3,5.6-6.8,8h17v6.9H14.1z"/>
	<path d="M71.3,50.6v8.6h-8.2v-8.6H44.5v-7.7l16-25.1h10.8v26.4h4.9v6.5H71.3z M63.1,25.1H63c-0.2,0.7-1.3,3.2-3,5.8l-8.4,13.3h11.5
		V25.1z"/>
	<path d="M92.9,59.2h-9.4c0-5.5,1.5-9,5.1-15.7l10.1-18.8H78.6v-6.9h28.9v6.7C98.4,40.3,92.9,52.7,92.9,59.2z"/>
</g>
</svg>
