<?xml version="1.0" encoding="utf-8"?>
<!-- Generator: Adobe Illustrator 21.0.2, SVG Export Plug-In . SVG Version: 6.00 Build 0)  -->
<svg version="1.1" id="Calque_1" xmlns="http://www.w3.org/2000/svg" xmlns:xlink="http://www.w3.org/1999/xlink" x="0px" y="0px"
	 viewBox="0 0 120 77" style="enable-background:new 0 0 120 77;" xml:space="preserve">
<style type="text/css">
	.st0{fill-rule:evenodd;clip-rule:evenodd;fill:#D282BE;}
</style>
<rect class="st0" width="120" height="77"/>
<g>
	<path d="M13.7,59.2v-5.5c1.1-4.8,5.8-9.2,11.3-14c2.8-2.4,5.7-5.4,5.7-9.4c0-3.6-2.3-6.6-6.8-6.6c-3.6,0-6.1,2.6-7.1,3.8l-4.3-5.8
		c4-3.5,7.7-5.1,13.2-5.1c7.3,0,14.1,4.2,14.1,12.7c0,7.1-4.5,10.5-9.5,15c-2.1,1.9-6.3,5.6-6.8,8h17v6.9H13.7z"/>
	<path d="M69.3,50.6v8.6h-8.2v-8.6H42.5v-7.7l16-25.1h10.8v26.4h4.9v6.5H69.3z M61.1,25H61c-0.2,0.7-1.3,3.2-3,5.8l-8.4,13.3h11.5
		V25z"/>
	<path d="M91.7,60.3c-9.2,0-14.4-5.5-14.4-11.8c0-5.5,3.1-9,7.1-11c-3.6-2.2-5.8-5.1-5.8-9.3c0-6.9,6.2-11.6,13.3-11.6
		c7.3,0,13.3,3.6,13.3,10.7c0,3.9-2,7.2-5.8,9.5c3.8,1.8,7.1,5.3,7.1,10.8C106.4,55.4,100.2,60.3,91.7,60.3z M91,40.4
		c-2.7,1.1-5.4,4-5.4,7.2c0,3.4,2.2,6.6,6.2,6.6c3.9,0,6.1-2.8,6.1-6C97.9,44.4,94.5,42.1,91,40.4z M92,22.5c-3.2,0-5.3,2-5.3,4.9
		c0,3.4,3.4,5.5,6,6.6c2.2-1,4.5-3.7,4.5-6.3C97.2,24.9,95.4,22.5,92,22.5z"/>
</g>
</svg>
