<?xml version="1.0" encoding="iso-8859-1"?>
<!-- Generator: Adobe Illustrator 14.0.0, SVG Export Plug-In . SVG Version: 6.00 Build 43363)  -->
<!DOCTYPE svg PUBLIC "-//W3C//DTD SVG 1.1//EN" "http://www.w3.org/Graphics/SVG/1.1/DTD/svg11.dtd">
<svg version="1.1" id="Calque_1" xmlns="http://www.w3.org/2000/svg" xmlns:xlink="http://www.w3.org/1999/xlink" x="0px" y="0px"
	 width="120px" height="77px" viewBox="0 0 120 77" style="enable-background:new 0 0 120 77;" xml:space="preserve">
<g>
	<rect style="fill-rule:evenodd;clip-rule:evenodd;fill:#A0006E;" width="120" height="77"/>
	<g>
		<path style="fill:#FFFFFF;" d="M16.422,68.378v-7.873c1.524-6.941,8.381-13.291,16.338-20.232
			c3.979-3.471,8.296-7.789,8.296-13.545c0-5.164-3.386-9.481-9.905-9.481c-5.249,0-8.889,3.809-10.328,5.418l-6.264-8.296
			c5.756-4.995,11.09-7.365,19.132-7.365c10.498,0,20.402,6.095,20.402,18.286c0,10.243-6.519,15.068-13.714,21.587
			c-3.047,2.794-9.058,8.043-9.82,11.514h24.635v9.989H16.422z"/>
		<path style="fill:#FFFFFF;" d="M97.143,55.934v12.444H85.291V55.934H58.37v-11.09L81.566,8.611h15.576v38.01h7.026v9.313H97.143z
			 M85.291,19.108h-0.17c-0.254,1.016-1.947,4.656-4.316,8.381L68.613,46.621h16.678V19.108z"/>
	</g>
</g>
</svg>
