<?xml version="1.0" encoding="iso-8859-1"?>
<!-- Generator: Adobe Illustrator 14.0.0, SVG Export Plug-In . SVG Version: 6.00 Build 43363)  -->
<!DOCTYPE svg PUBLIC "-//W3C//DTD SVG 1.1//EN" "http://www.w3.org/Graphics/SVG/1.1/DTD/svg11.dtd">
<svg version="1.1" id="Calque_1" xmlns="http://www.w3.org/2000/svg" xmlns:xlink="http://www.w3.org/1999/xlink" x="0px" y="0px"
	 width="120px" height="77px" viewBox="0 0 120 77" style="enable-background:new 0 0 120 77;" xml:space="preserve">
<rect style="fill-rule:evenodd;clip-rule:evenodd;fill:#FF1400;" width="120" height="77"/>
<g>
	<path style="fill:#FFFFFF;" d="M15.011,59.212v-5.455c1.056-4.81,5.807-9.209,11.32-14.019c2.757-2.404,5.748-5.396,5.748-9.385
		c0-3.578-2.346-6.569-6.863-6.569c-3.636,0-6.159,2.64-7.156,3.754l-4.34-5.748c3.988-3.46,7.684-5.103,13.256-5.103
		c7.273,0,14.136,4.223,14.136,12.669c0,7.098-4.516,10.44-9.502,14.957c-2.112,1.936-6.276,5.572-6.804,7.978h17.069v6.921H15.011z
		"/>
	<path style="fill:#FFFFFF;" d="M56.055,60.209c-4.81,0-8.505-1.056-11.672-2.991l3.343-6.452c2.288,1.584,4.634,2.64,7.859,2.64
		c3.226,0,7.273-1.936,7.273-6.804c0-2.992-1.994-7.098-9.619-7.215c-2.347,0-5.103-0.059-6.452-0.059l1.642-21.526H70.19v6.921
		H55.292l-0.586,7.86c0.234,0,0.762,0.059,1.173,0.059c11.321,0.528,15.895,6.921,15.895,13.139
		C71.773,53.698,65.498,60.209,56.055,60.209z"/>
	<path style="fill:#FFFFFF;" d="M90.037,60.326c-9.209,0-14.43-5.514-14.43-11.789c0-5.514,3.109-8.975,7.098-11.027
		c-3.578-2.229-5.807-5.044-5.807-9.326c0-6.863,6.217-11.614,13.314-11.614c7.273,0,13.314,3.578,13.314,10.675
		c0,3.871-1.994,7.156-5.865,9.502c3.813,1.818,7.155,5.338,7.155,10.793C104.817,55.399,98.541,60.326,90.037,60.326z
		 M89.332,40.384c-2.697,1.056-5.396,3.988-5.396,7.215c0,3.401,2.229,6.628,6.218,6.628c3.93,0,6.1-2.757,6.1-6.042
		C96.254,44.431,92.852,42.144,89.332,40.384z M90.33,22.553c-3.227,0-5.279,1.994-5.279,4.868c0,3.402,3.402,5.514,6.041,6.628
		c2.171-0.997,4.518-3.695,4.518-6.276C95.609,24.899,93.732,22.553,90.33,22.553z"/>
</g>
</svg>
