<?xml version="1.0" encoding="utf-8"?>
<!-- Generator: Adobe Illustrator 16.0.3, SVG Export Plug-In . SVG Version: 6.00 Build 0)  -->
<!DOCTYPE svg PUBLIC "-//W3C//DTD SVG 1.1//EN" "http://www.w3.org/Graphics/SVG/1.1/DTD/svg11.dtd">
<svg version="1.1" id="Calque_1" xmlns="http://www.w3.org/2000/svg" xmlns:xlink="http://www.w3.org/1999/xlink" x="0px" y="0px"
	 width="120px" height="77px" viewBox="0 0 120 77" enable-background="new 0 0 120 77" xml:space="preserve">
<g>
	<rect fill-rule="evenodd" clip-rule="evenodd" fill="#3C91DC" width="120" height="77"/>
</g>
<g>
	<path fill="#FFFFFF" d="M13.912,59.186v-5.449c1.055-4.805,5.802-9.201,11.31-14.006c2.754-2.403,5.743-5.391,5.743-9.375
		c0-3.575-2.344-6.563-6.856-6.563c-3.633,0-6.153,2.637-7.149,3.75l-4.336-5.742c3.985-3.458,7.677-5.099,13.244-5.099
		c7.267,0,14.123,4.219,14.123,12.658c0,7.09-4.512,10.43-9.494,14.944c-2.109,1.934-6.27,5.566-6.797,7.969h17.053v6.914H13.912z"
		/>
	<path fill="#FFFFFF" d="M57.919,60.184c-4.805,0-8.497-1.057-11.662-2.99l3.34-6.445c2.286,1.582,4.629,2.637,7.853,2.637
		s7.266-1.934,7.266-6.797c0-2.99-1.992-7.092-9.61-7.209c-2.344,0-5.099-0.059-6.446-0.059l1.641-21.506h21.742v6.915H57.158
		l-0.586,7.853c0.234,0,0.762,0.059,1.172,0.059c11.31,0.527,15.881,6.915,15.881,13.127C73.625,53.678,67.354,60.184,57.919,60.184
		z"/>
	<path fill="#FFFFFF" d="M87.395,60.299c-2.344,0-4.454-0.291-6.212-0.703l1.289-7.031c1.113,0.469,3.282,0.996,5.685,0.996
		c5.801,0,10.021-4.629,10.606-12.951c-1.406,1.23-4.103,2.813-8.556,2.813c-6.856,0-12.365-4.511-12.365-12.247
		c0-8.263,5.509-14.357,14.182-14.357c11.311,0,15.354,7.853,15.354,18.811C107.377,49.986,100.639,60.299,87.395,60.299z
		 M92.375,23.323c-4.102,0-6.211,3.34-6.211,6.915c0,3.867,2.578,6.681,6.68,6.681c2.637,0,4.747-0.997,5.567-2.286
		c0.47-0.703,0.47-2.344,0.47-3.574C98.881,27.131,96.595,23.323,92.375,23.323z"/>
</g>
</svg>
