<svg xmlns="http://www.w3.org/2000/svg" viewBox="0 0 120 77"><title>25genRVB</title><rect width="120" height="77" fill="#ff1400"/><path d="M17.79737,68.15128V60.27781c1.52384-6.942,8.38114-13.29167,16.33915-20.23372,3.97911-3.471,8.2966-7.78851,8.2966-13.54551,0-5.16416-3.38627-9.48185-9.905-9.48185-5.24891,0-8.88923,3.80982-10.32853,5.4182l-6.26487-8.2966c5.757-4.99487,11.09045-7.36538,19.133-7.36538,10.49782,0,20.403,6.09558,20.403,18.28654,0,10.24378-6.51871,15.06935-13.7148,21.58806-3.04769,2.79385-9.05852,8.043-9.82044,11.514H56.57125v9.98973Z" fill="#fff"/><path d="M81.3767,69.59037c-6.94246,0-12.27591-1.52384-16.84744-4.31769L69.355,55.96012a18.83856,18.83856,0,0,0,11.34408,3.81c4.65628,0,10.49782-2.79385,10.49782-9.82065,0-4.31769-2.87819-10.244-13.88409-10.41307-3.38627,0-7.36538-.08475-9.31256-.08475L70.3708,8.38155H101.7795v9.98973H80.27578l-.84626,11.34449c.33859,0,1.10051.08454,1.69293.08454,16.33936.76192,22.94282,9.98994,22.94282,18.96392C104.06527,60.19348,95.00654,69.59037,81.3767,69.59037Z" fill="#fff"/></svg>