<?xml version="1.0" encoding="utf-8"?>
<!-- Generator: Adobe Illustrator 21.0.2, SVG Export Plug-In . SVG Version: 6.00 Build 0)  -->
<svg version="1.1" id="Calque_1" xmlns="http://www.w3.org/2000/svg" xmlns:xlink="http://www.w3.org/1999/xlink" x="0px" y="0px"
	 viewBox="0 0 120 77" style="enable-background:new 0 0 120 77;" xml:space="preserve">
<style type="text/css">
	.st0{fill-rule:evenodd;clip-rule:evenodd;fill:#FFBE00;}
</style>
<rect class="st0" width="120" height="77"/>
<g>
	<path d="M13.6,59.2v-5.4c1.1-4.8,5.8-9.2,11.3-14c2.8-2.4,5.7-5.4,5.7-9.4c0-3.6-2.3-6.6-6.9-6.6c-3.6,0-6.2,2.6-7.1,3.8l-4.3-5.7
		c4-3.5,7.7-5.1,13.2-5.1c7.3,0,14.1,4.2,14.1,12.7c0,7.1-4.5,10.4-9.5,14.9c-2.1,1.9-6.3,5.6-6.8,8h17.1v6.9H13.6z"/>
	<path d="M60.8,60.2c-11.3,0-15.4-7.9-15.4-18.8c0-14.4,6.7-24.7,20-24.7c2.3,0,4.5,0.3,6.2,0.7l-1.3,7c-1.1-0.5-3.3-1-5.7-1
		c-5.8,0-10,4.6-10.6,12.9c1.4-1.2,4.1-2.8,8.6-2.8c6.9,0,12.4,4.5,12.4,12.2C74.9,54.1,69.4,60.2,60.8,60.2z M59.9,40.1
		c-2.6,0-4.7,1-5.6,2.3c-0.5,0.7-0.5,2.3-0.5,3.6c0,3.9,2.3,7.7,6.5,7.7c4.1,0,6.2-3.3,6.2-6.9C66.6,42.9,64,40.1,59.9,40.1z"/>
	<path d="M92.5,60.3C80,60.3,77.6,48,77.6,38.5s2.7-21.9,15.2-21.9s14.9,12.3,14.9,21.9S105,60.3,92.5,60.3z M92.6,23.6
		c-6,0-6.2,10.7-6.2,14.9c0,4.2,0.3,14.9,6.2,14.9s6.1-10.8,6.1-14.9C98.7,34.1,98.6,23.6,92.6,23.6z"/>
</g>
</svg>
