<?xml version="1.0" encoding="iso-8859-1"?>
<!-- Generator: Adobe Illustrator 14.0.0, SVG Export Plug-In . SVG Version: 6.00 Build 43363)  -->
<!DOCTYPE svg PUBLIC "-//W3C//DTD SVG 1.1//EN" "http://www.w3.org/Graphics/SVG/1.1/DTD/svg11.dtd">
<svg version="1.1" id="Calque_1" xmlns="http://www.w3.org/2000/svg" xmlns:xlink="http://www.w3.org/1999/xlink" x="0px" y="0px"
	 width="120px" height="77px" viewBox="0 0 120 77" style="enable-background:new 0 0 120 77;" xml:space="preserve">
<rect style="fill-rule:evenodd;clip-rule:evenodd;fill:#A0006E;" width="120" height="77"/>
<g>
	<path style="fill:#FFFFFF;" d="M15.969,59.212v-5.455c1.056-4.81,5.807-9.209,11.32-14.019c2.757-2.404,5.748-5.396,5.748-9.385
		c0-3.578-2.346-6.569-6.863-6.569c-3.636,0-6.159,2.64-7.156,3.754l-4.34-5.748c3.988-3.46,7.684-5.103,13.256-5.103
		c7.273,0,14.136,4.223,14.136,12.669c0,7.098-4.516,10.44-9.502,14.957c-2.111,1.936-6.276,5.572-6.804,7.978h17.068v6.921H15.969z
		"/>
	<path style="fill:#FFFFFF;" d="M60.773,60.209c-11.32,0-15.368-7.859-15.368-18.828c0-14.371,6.745-24.694,20.001-24.694
		c2.347,0,4.458,0.293,6.218,0.704l-1.29,7.039c-1.115-0.469-3.285-0.997-5.689-0.997c-5.807,0-10.03,4.634-10.617,12.962
		c1.408-1.231,4.106-2.815,8.564-2.815c6.861,0,12.375,4.517,12.375,12.259C74.967,54.109,69.453,60.209,60.773,60.209z
		 M59.952,40.091c-2.64,0-4.751,0.997-5.572,2.287c-0.469,0.704-0.469,2.347-0.469,3.578c0,3.93,2.288,7.742,6.511,7.742
		c4.106,0,6.218-3.343,6.218-6.921C66.639,42.906,64.058,40.091,59.952,40.091z"/>
	<path style="fill:#FFFFFF;" d="M77.815,59.212v-5.455c1.056-4.81,5.807-9.209,11.32-14.019c2.757-2.404,5.748-5.396,5.748-9.385
		c0-3.578-2.347-6.569-6.862-6.569c-3.637,0-6.159,2.64-7.156,3.754l-4.34-5.748c3.988-3.46,7.684-5.103,13.256-5.103
		c7.273,0,14.135,4.223,14.135,12.669c0,7.098-4.516,10.44-9.502,14.957c-2.111,1.936-6.275,5.572-6.804,7.978h17.069v6.921H77.815z
		"/>
</g>
</svg>
