<?xml version="1.0" encoding="iso-8859-1"?>
<!-- Generator: Adobe Illustrator 14.0.0, SVG Export Plug-In . SVG Version: 6.00 Build 43363)  -->
<!DOCTYPE svg PUBLIC "-//W3C//DTD SVG 1.1//EN" "http://www.w3.org/Graphics/SVG/1.1/DTD/svg11.dtd">
<svg version="1.1" id="Calque_1" xmlns="http://www.w3.org/2000/svg" xmlns:xlink="http://www.w3.org/1999/xlink" x="0px" y="0px"
	 width="120px" height="77px" viewBox="0 0 120 77" style="enable-background:new 0 0 120 77;" xml:space="preserve">
<rect style="fill-rule:evenodd;clip-rule:evenodd;fill:#DC9600;" width="120" height="77"/>
<g>
	<path d="M14.014,59.212v-5.455c1.056-4.81,5.807-9.209,11.32-14.019c2.757-2.404,5.748-5.396,5.748-9.385
		c0-3.578-2.346-6.569-6.863-6.569c-3.636,0-6.159,2.64-7.156,3.754l-4.34-5.748c3.988-3.46,7.684-5.103,13.256-5.103
		c7.273,0,14.136,4.223,14.136,12.669c0,7.098-4.516,10.44-9.502,14.957c-2.112,1.936-6.276,5.572-6.804,7.978h17.069v6.921H14.014z
		"/>
	<path d="M58.817,60.209c-11.32,0-15.368-7.859-15.368-18.828c0-14.371,6.745-24.694,20.001-24.694c2.346,0,4.457,0.293,6.217,0.704
		l-1.29,7.039c-1.114-0.469-3.284-0.997-5.689-0.997c-5.807,0-10.03,4.634-10.617,12.962c1.408-1.231,4.106-2.815,8.564-2.815
		c6.862,0,12.376,4.517,12.376,12.259C73.012,54.109,67.498,60.209,58.817,60.209z M57.996,40.091c-2.64,0-4.751,0.997-5.572,2.287
		c-0.469,0.704-0.469,2.347-0.469,3.578c0,3.93,2.288,7.742,6.511,7.742c4.106,0,6.217-3.343,6.217-6.921
		C64.683,42.906,62.102,40.091,57.996,40.091z"/>
	<path d="M91.033,60.326c-9.209,0-14.429-5.514-14.429-11.789c0-5.514,3.108-8.975,7.097-11.027
		c-3.577-2.229-5.807-5.044-5.807-9.326c0-6.863,6.218-11.614,13.314-11.614c7.273,0,13.315,3.578,13.315,10.675
		c0,3.871-1.995,7.156-5.866,9.502c3.813,1.818,7.156,5.338,7.156,10.793C105.814,55.399,99.539,60.326,91.033,60.326z
		 M90.33,40.384c-2.698,1.056-5.396,3.988-5.396,7.215c0,3.401,2.229,6.628,6.217,6.628c3.93,0,6.101-2.757,6.101-6.042
		C97.251,44.431,93.85,42.144,90.33,40.384z M91.326,22.553c-3.226,0-5.278,1.994-5.278,4.868c0,3.402,3.401,5.514,6.042,6.628
		c2.17-0.997,4.516-3.695,4.516-6.276C96.605,24.899,94.729,22.553,91.326,22.553z"/>
</g>
</svg>
