<?xml version="1.0" encoding="iso-8859-1"?>
<!-- Generator: Adobe Illustrator 14.0.0, SVG Export Plug-In . SVG Version: 6.00 Build 43363)  -->
<!DOCTYPE svg PUBLIC "-//W3C//DTD SVG 1.1//EN" "http://www.w3.org/Graphics/SVG/1.1/DTD/svg11.dtd">
<svg version="1.1" id="Calque_1" xmlns="http://www.w3.org/2000/svg" xmlns:xlink="http://www.w3.org/1999/xlink" x="0px" y="0px"
	 width="120px" height="77px" viewBox="0 0 120 77" style="enable-background:new 0 0 120 77;" xml:space="preserve">
<rect style="fill-rule:evenodd;clip-rule:evenodd;fill:#FF5A00;" width="120" height="77"/>
<g>
	<path d="M14.908,59.212v-5.455c1.056-4.81,5.807-9.209,11.32-14.019c2.757-2.404,5.748-5.396,5.748-9.385
		c0-3.578-2.346-6.569-6.863-6.569c-3.636,0-6.159,2.64-7.156,3.754l-4.34-5.748c3.988-3.46,7.684-5.103,13.256-5.103
		c7.273,0,14.136,4.223,14.136,12.669c0,7.098-4.516,10.44-9.502,14.957c-2.111,1.936-6.276,5.572-6.804,7.978h17.068v6.921H14.908z
		"/>
	<path d="M59.711,60.209c-11.32,0-15.368-7.859-15.368-18.828c0-14.371,6.745-24.694,20.002-24.694c2.346,0,4.457,0.293,6.217,0.704
		l-1.291,7.039c-1.113-0.469-3.284-0.997-5.689-0.997c-5.806,0-10.029,4.634-10.616,12.962c1.408-1.231,4.106-2.815,8.563-2.815
		c6.863,0,12.377,4.517,12.377,12.259C73.906,54.109,68.393,60.209,59.711,60.209z M58.89,40.091c-2.64,0-4.751,0.997-5.572,2.287
		c-0.469,0.704-0.469,2.347-0.469,3.578c0,3.93,2.288,7.742,6.511,7.742c4.105,0,6.217-3.343,6.217-6.921
		C65.576,42.906,62.996,40.091,58.89,40.091z"/>
	<path d="M84.918,60.326c-2.346,0-4.457-0.293-6.217-0.704l1.291-7.038c1.113,0.469,3.284,0.997,5.689,0.997
		c5.807,0,10.029-4.634,10.616-12.963c-1.408,1.232-4.106,2.815-8.563,2.815c-6.863,0-12.377-4.517-12.377-12.259
		c0-8.27,5.514-14.37,14.195-14.37c11.32,0,15.367,7.859,15.367,18.828C104.92,50.003,98.175,60.326,84.918,60.326z M89.904,23.315
		c-4.105,0-6.217,3.343-6.217,6.921c0,3.871,2.58,6.687,6.686,6.687c2.64,0,4.752-0.997,5.572-2.287
		c0.47-0.704,0.47-2.346,0.47-3.578C96.415,27.128,94.127,23.315,89.904,23.315z"/>
</g>
</svg>
