<?xml version="1.0" encoding="iso-8859-1"?>
<!-- Generator: Adobe Illustrator 14.0.0, SVG Export Plug-In . SVG Version: 6.00 Build 43363)  -->
<!DOCTYPE svg PUBLIC "-//W3C//DTD SVG 1.1//EN" "http://www.w3.org/Graphics/SVG/1.1/DTD/svg11.dtd">
<svg version="1.1" id="Calque_1" xmlns="http://www.w3.org/2000/svg" xmlns:xlink="http://www.w3.org/1999/xlink" x="0px" y="0px"
	 width="120px" height="77px" viewBox="0 0 120 77" style="enable-background:new 0 0 120 77;" xml:space="preserve">
<g>
	<rect style="fill-rule:evenodd;clip-rule:evenodd;fill:#FF5A00;" width="120" height="77"/>
	<g>
		<path d="M17.835,68.378v-7.873c1.524-6.941,8.381-13.291,16.338-20.232c3.979-3.471,8.296-7.789,8.296-13.545
			c0-5.164-3.386-9.481-9.905-9.481c-5.249,0-8.889,3.809-10.328,5.418l-6.264-8.296c5.756-4.995,11.09-7.365,19.132-7.365
			c10.498,0,20.402,6.095,20.402,18.286c0,10.243-6.519,15.068-13.714,21.587c-3.048,2.794-9.058,8.043-9.82,11.514h24.635v9.989
			H17.835z"/>
		<path d="M82.184,69.817c-16.338,0-22.18-11.344-22.18-27.175c0-20.741,9.735-35.64,28.867-35.64c3.387,0,6.434,0.423,8.975,1.016
			l-1.863,10.159c-1.608-0.677-4.74-1.439-8.211-1.439c-8.381,0-14.477,6.688-15.323,18.709c2.032-1.778,5.926-4.063,12.36-4.063
			c9.904,0,17.861,6.518,17.861,17.692C102.67,61.013,94.713,69.817,82.184,69.817z M80.998,40.78c-3.809,0-6.856,1.439-8.042,3.302
			c-0.677,1.016-0.677,3.386-0.677,5.164c0,5.672,3.301,11.174,9.396,11.174c5.926,0,8.974-4.825,8.974-9.989
			C90.649,44.844,86.924,40.78,80.998,40.78z"/>
	</g>
</g>
</svg>
