<?xml version="1.0" encoding="iso-8859-1"?>
<!-- Generator: Adobe Illustrator 14.0.0, SVG Export Plug-In . SVG Version: 6.00 Build 43363)  -->
<!DOCTYPE svg PUBLIC "-//W3C//DTD SVG 1.1//EN" "http://www.w3.org/Graphics/SVG/1.1/DTD/svg11.dtd">
<svg version="1.1" id="Calque_1" xmlns="http://www.w3.org/2000/svg" xmlns:xlink="http://www.w3.org/1999/xlink" x="0px" y="0px"
	 width="120px" height="77px" viewBox="0 0 120 77" style="enable-background:new 0 0 120 77;" xml:space="preserve">
<rect style="fill-rule:evenodd;clip-rule:evenodd;fill:#FF1400;" width="120" height="77"/>
<g>
	<path style="fill:#FFFFFF;" d="M16.729,59.212v-5.455c1.056-4.81,5.807-9.209,11.32-14.019c2.757-2.404,5.748-5.396,5.748-9.385
		c0-3.578-2.346-6.569-6.863-6.569c-3.636,0-6.159,2.64-7.156,3.754l-4.34-5.748c3.988-3.46,7.684-5.103,13.256-5.103
		c7.273,0,14.136,4.223,14.136,12.669c0,7.098-4.516,10.44-9.502,14.957c-2.112,1.936-6.276,5.572-6.804,7.978h17.069v6.921H16.729z
		"/>
	<path style="fill:#FFFFFF;" d="M59.744,59.212h-9.443c0-5.455,1.466-8.975,5.103-15.72l10.088-18.77H45.374v-6.921H74.35v6.745
		C65.258,40.325,59.744,52.701,59.744,59.212z"/>
	<path style="fill:#FFFFFF;" d="M98.817,50.59v8.622h-8.212V50.59H71.953v-7.684l16.072-25.104h10.792v26.336h4.868v6.452H98.817z
		 M90.605,25.075h-0.117c-0.176,0.704-1.35,3.226-2.991,5.807l-8.446,13.256h11.555V25.075z"/>
</g>
</svg>
