<?xml version="1.0" encoding="iso-8859-1"?>
<!-- Generator: Adobe Illustrator 14.0.0, SVG Export Plug-In . SVG Version: 6.00 Build 43363)  -->
<!DOCTYPE svg PUBLIC "-//W3C//DTD SVG 1.1//EN" "http://www.w3.org/Graphics/SVG/1.1/DTD/svg11.dtd">
<svg version="1.1" id="Calque_1" xmlns="http://www.w3.org/2000/svg" xmlns:xlink="http://www.w3.org/1999/xlink" x="0px" y="0px"
	 width="120px" height="77px" viewBox="0 0 120 77" style="enable-background:new 0 0 120 77;" xml:space="preserve">
<rect style="fill-rule:evenodd;clip-rule:evenodd;fill:#FF1400;" width="120" height="77"/>
<g>
	<path style="fill:#FFFFFF;" d="M16.055,59.212v-5.455c1.056-4.81,5.807-9.209,11.32-14.019c2.757-2.404,5.748-5.396,5.748-9.385
		c0-3.578-2.346-6.569-6.863-6.569c-3.636,0-6.159,2.64-7.156,3.754l-4.34-5.748c3.988-3.46,7.684-5.103,13.256-5.103
		c7.273,0,14.136,4.223,14.136,12.669c0,7.098-4.516,10.44-9.502,14.957c-2.112,1.936-6.276,5.572-6.804,7.978h17.069v6.921H16.055z
		"/>
	<path style="fill:#FFFFFF;" d="M59.069,59.212h-9.443c0-5.455,1.466-8.975,5.103-15.72l10.088-18.77H44.699v-6.921h28.975v6.745
		C64.583,40.325,59.069,52.701,59.069,59.212z"/>
	<path style="fill:#FFFFFF;" d="M90.106,60.209c-11.32,0-15.368-7.859-15.368-18.828c0-14.371,6.746-24.694,20.002-24.694
		c2.346,0,4.457,0.293,6.217,0.704l-1.29,7.039c-1.114-0.469-3.284-0.997-5.689-0.997c-5.807,0-10.03,4.634-10.616,12.962
		c1.407-1.231,4.105-2.815,8.563-2.815c6.862,0,12.376,4.517,12.376,12.259C104.301,54.109,98.787,60.209,90.106,60.209z
		 M89.285,40.091c-2.64,0-4.751,0.997-5.572,2.287c-0.469,0.704-0.469,2.347-0.469,3.578c0,3.93,2.287,7.742,6.51,7.742
		c4.106,0,6.218-3.343,6.218-6.921C95.972,42.906,93.391,40.091,89.285,40.091z"/>
</g>
</svg>
