<?xml version="1.0" encoding="iso-8859-1"?>
<!-- Generator: Adobe Illustrator 14.0.0, SVG Export Plug-In . SVG Version: 6.00 Build 43363)  -->
<!DOCTYPE svg PUBLIC "-//W3C//DTD SVG 1.1//EN" "http://www.w3.org/Graphics/SVG/1.1/DTD/svg11.dtd">
<svg version="1.1" id="Calque_1" xmlns="http://www.w3.org/2000/svg" xmlns:xlink="http://www.w3.org/1999/xlink" x="0px" y="0px"
	 width="120px" height="77px" viewBox="0 0 120 77" style="enable-background:new 0 0 120 77;" xml:space="preserve">
<rect style="fill-rule:evenodd;clip-rule:evenodd;fill:#D282BE;" width="120" height="77"/>
<g>
	<path d="M15.43,59.212v-5.455c1.056-4.81,5.807-9.209,11.32-14.019c2.757-2.404,5.748-5.396,5.748-9.385
		c0-3.578-2.346-6.569-6.863-6.569c-3.636,0-6.159,2.64-7.156,3.754l-4.34-5.748c3.988-3.46,7.684-5.103,13.256-5.103
		c7.273,0,14.136,4.223,14.136,12.669c0,7.098-4.516,10.44-9.502,14.957c-2.111,1.936-6.276,5.572-6.804,7.978h17.068v6.921H15.43z"
		/>
	<path d="M58.445,59.212h-9.443c0-5.455,1.466-8.975,5.103-15.72l10.089-18.77H44.075v-6.921H73.05v6.745
		C63.959,40.325,58.445,52.701,58.445,59.212z"/>
	<path d="M89.617,60.326c-9.209,0-14.43-5.514-14.43-11.789c0-5.514,3.109-8.975,7.098-11.027c-3.578-2.229-5.807-5.044-5.807-9.326
		c0-6.863,6.217-11.614,13.314-11.614c7.273,0,13.314,3.578,13.314,10.675c0,3.871-1.994,7.156-5.865,9.502
		c3.813,1.818,7.155,5.338,7.155,10.793C104.397,55.399,98.121,60.326,89.617,60.326z M88.912,40.384
		c-2.697,1.056-5.396,3.988-5.396,7.215c0,3.401,2.229,6.628,6.218,6.628c3.93,0,6.1-2.757,6.1-6.042
		C95.834,44.431,92.432,42.144,88.912,40.384z M89.91,22.553c-3.227,0-5.279,1.994-5.279,4.868c0,3.402,3.402,5.514,6.041,6.628
		c2.171-0.997,4.518-3.695,4.518-6.276C95.189,24.899,93.313,22.553,89.91,22.553z"/>
</g>
</svg>
