<?xml version="1.0" encoding="iso-8859-1"?>
<!-- Generator: Adobe Illustrator 14.0.0, SVG Export Plug-In . SVG Version: 6.00 Build 43363)  -->
<!DOCTYPE svg PUBLIC "-//W3C//DTD SVG 1.1//EN" "http://www.w3.org/Graphics/SVG/1.1/DTD/svg11.dtd">
<svg version="1.1" id="Calque_1" xmlns="http://www.w3.org/2000/svg" xmlns:xlink="http://www.w3.org/1999/xlink" x="0px" y="0px"
	 width="120px" height="77px" viewBox="0 0 120 77" style="enable-background:new 0 0 120 77;" xml:space="preserve">
<rect style="fill-rule:evenodd;clip-rule:evenodd;fill:#FF5A00;" width="120" height="77"/>
<g>
	<path d="M15.184,59.212v-5.455c1.056-4.81,5.807-9.209,11.32-14.019c2.757-2.404,5.748-5.396,5.748-9.385
		c0-3.578-2.346-6.569-6.863-6.569c-3.636,0-6.159,2.64-7.156,3.754l-4.34-5.748c3.988-3.46,7.684-5.103,13.256-5.103
		c7.273,0,14.136,4.223,14.136,12.669c0,7.098-4.516,10.44-9.502,14.957c-2.112,1.936-6.276,5.572-6.804,7.978h17.069v6.921H15.184z
		"/>
	<path d="M58.198,59.212h-9.443c0-5.455,1.466-8.975,5.103-15.72l10.088-18.77H43.828v-6.921h28.975v6.745
		C63.712,40.325,58.198,52.701,58.198,59.212z"/>
	<path d="M84.643,60.326c-2.346,0-4.457-0.293-6.217-0.704l1.29-7.038c1.114,0.469,3.284,0.997,5.689,0.997
		c5.807,0,10.03-4.634,10.616-12.963c-1.407,1.232-4.105,2.815-8.563,2.815c-6.862,0-12.376-4.517-12.376-12.259
		c0-8.27,5.514-14.37,14.194-14.37c11.32,0,15.368,7.859,15.368,18.828C104.645,50.003,97.898,60.326,84.643,60.326z M89.629,23.315
		c-4.106,0-6.218,3.343-6.218,6.921c0,3.871,2.581,6.687,6.687,6.687c2.64,0,4.751-0.997,5.572-2.287
		c0.469-0.704,0.469-2.346,0.469-3.578C96.139,27.128,93.852,23.315,89.629,23.315z"/>
</g>
</svg>
