<?xml version="1.0" encoding="utf-8"?>
<!-- Generator: Adobe Illustrator 16.0.3, SVG Export Plug-In . SVG Version: 6.00 Build 0)  -->
<!DOCTYPE svg PUBLIC "-//W3C//DTD SVG 1.1//EN" "http://www.w3.org/Graphics/SVG/1.1/DTD/svg11.dtd">
<svg version="1.1" id="Calque_1" xmlns="http://www.w3.org/2000/svg" xmlns:xlink="http://www.w3.org/1999/xlink" x="0px" y="0px"
	 width="120px" height="77px" viewBox="0 0 120 77" enable-background="new 0 0 120 77" xml:space="preserve">
<rect fill-rule="evenodd" clip-rule="evenodd" fill="#FF1400" width="120" height="77"/>
<g>
	<g>
		<g>
			<path fill="#FFFFFF" d="M72.246,7.386c-4.699,0-8.984,1.762-12.244,4.656c-3.256-2.896-7.546-4.656-12.246-4.656
				c-10.19,0-18.454,8.258-18.454,18.45c0,10.19,8.263,18.45,18.454,18.45c4.7,0,8.989-1.761,12.246-4.655
				c3.26,2.893,7.545,4.655,12.244,4.655c10.189,0,18.451-8.26,18.451-18.45C90.697,15.644,82.436,7.386,72.246,7.386z M47.756,42.1
				c-8.985,0-16.267-7.28-16.267-16.264c0-8.984,7.281-16.265,16.267-16.265c8.984,0,16.263,7.28,16.263,16.265
				C64.02,34.819,56.74,42.1,47.756,42.1z M77.805,37.904c0,0-1.152-3.483-4.5-3.485c-3.348,0.002-4.506,3.485-4.506,3.485h-4.113
				c0,0,3.352-4.009,5.268-8.761c2.27-5.62,2.344-10.723,2.344-13.542c0-0.37-0.008-0.647-0.152-0.822
				c-0.221-0.265-0.211-0.763-0.211-0.763V12.87l0.652-0.656c0.236-0.246,0.385-0.58,0.385-0.945v-1.061
				c0,0,0.049-0.131,0.234-0.132h0.191c0.188,0.001,0.236,0.132,0.236,0.132v1.061c0,0.365,0.146,0.699,0.383,0.945l0.654,0.656
				v1.146c0,0,0.008,0.498-0.213,0.763c-0.145,0.175-0.152,0.452-0.152,0.822c0,2.819,0.076,7.922,2.344,13.542
				c1.916,4.752,5.266,8.761,5.266,8.761H77.805z M55.001,20.035c-1.028,0.759-2.648,1.976-4.31,3.248l-11.092-1.555
				c-0.208-0.029-0.522,0.048-0.688,0.181l-1.237,0.925l7.868,4.431c-1.51,1.177-2.916,2.283-4.004,3.15
				c-0.204,0.167-0.549,0.268-0.79,0.246l-4.468-0.574c-0.328-0.045-0.607,0.082-0.8,0.229l-0.811,0.604l4.151,2.901
				c0.8,0.555,6.628-2.518,8.93-4.059c1.961-1.314,8.545-6.275,9.961-7.496c1.421-1.213,2.551-2.715,2.12-3.287
				C59.49,18.529,56.576,18.878,55.001,20.035z M73.822,28.021h-1.029c-0.191,0-0.318,0.078-0.375,0.34
				c-0.006,0.025-0.531,2.456-0.949,3.905h3.68c-0.418-1.449-0.943-3.88-0.949-3.905C74.143,28.099,74.016,28.021,73.822,28.021z"/>
		</g>
	</g>
	<g>
		<path fill="#FFFFFF" d="M35.48,57.155c0,1.509-0.224,2.779-0.67,3.815c-0.446,1.038-1.015,1.882-1.709,2.53
			c-0.693,0.651-1.467,1.117-2.323,1.403c-0.854,0.284-1.697,0.429-2.532,0.429c-0.963,0-1.88-0.141-2.75-0.415
			c-0.867-0.28-1.632-0.741-2.29-1.384c-0.658-0.642-1.179-1.486-1.566-2.531c-0.388-1.044-0.581-2.326-0.581-3.848
			c0-1.501,0.222-2.772,0.668-3.811c0.447-1.038,1.016-1.882,1.708-2.53c0.694-0.651,1.47-1.119,2.324-1.404
			c0.855-0.283,1.699-0.426,2.532-0.426c0.965,0,1.879,0.137,2.75,0.418c0.867,0.274,1.632,0.734,2.289,1.38
			c0.656,0.642,1.181,1.483,1.567,2.53C35.285,54.356,35.48,55.638,35.48,57.155 M31.972,57.155c0-0.714-0.063-1.4-0.187-2.059
			c-0.125-0.656-0.331-1.229-0.617-1.72c-0.287-0.488-0.665-0.88-1.137-1.173c-0.47-0.291-1.057-0.438-1.762-0.438
			s-1.298,0.146-1.773,0.438c-0.479,0.293-0.861,0.685-1.147,1.173c-0.287,0.491-0.49,1.063-0.607,1.72
			c-0.118,0.658-0.176,1.345-0.176,2.059c0,0.733,0.063,1.424,0.188,2.072c0.123,0.652,0.332,1.223,0.617,1.712
			c0.287,0.487,0.666,0.878,1.135,1.171c0.472,0.292,1.059,0.438,1.764,0.438s1.297-0.146,1.775-0.438
			c0.476-0.293,0.858-0.684,1.146-1.171c0.286-0.489,0.488-1.06,0.605-1.712C31.914,58.579,31.972,57.889,31.972,57.155"/>
		<path fill="#FFFFFF" d="M43.915,56.214c-0.117-0.057-0.272-0.122-0.47-0.195c-0.197-0.074-0.398-0.11-0.603-0.11
			c-0.336,0-0.599,0.043-0.789,0.132c-0.191,0.087-0.359,0.196-0.503,0.33c-0.206,0.19-0.331,0.403-0.375,0.645
			c-0.042,0.24-0.064,0.524-0.064,0.844v7.06h-3.068v-8.746c0-0.249-0.005-0.518-0.012-0.812c-0.008-0.291-0.018-0.572-0.032-0.844
			c-0.015-0.271-0.029-0.521-0.044-0.755s-0.022-0.417-0.022-0.549h2.738v1.754c0.187-0.279,0.375-0.542,0.567-0.789
			c0.192-0.249,0.402-0.464,0.629-0.646c0.226-0.185,0.482-0.328,0.766-0.438c0.286-0.11,0.612-0.164,0.976-0.164
			c0.219,0,0.432,0.024,0.637,0.077c0.205,0.05,0.364,0.098,0.481,0.143L43.915,56.214z"/>
		<rect x="46.633" y="48.698" fill="#FFFFFF" width="3.067" height="16.22"/>
		<path fill="#FFFFFF" d="M58.269,65.571c-0.175,0.57-0.399,1.089-0.667,1.558c-0.271,0.467-0.61,0.879-1.02,1.237
			c-0.409,0.358-0.903,0.646-1.479,0.866c-0.577,0.219-1.259,0.357-2.048,0.416l-0.285-2.365c0.246,0,0.513-0.027,0.799-0.077
			c0.283-0.052,0.55-0.143,0.799-0.274c0.25-0.131,0.473-0.303,0.668-0.517c0.198-0.21,0.34-0.484,0.428-0.82l-3.989-12.383h3.375
			l1.621,6.642c0.133,0.526,0.247,1.039,0.341,1.534c0.095,0.495,0.156,0.832,0.187,1.008h0.043
			c0.072-0.307,0.154-0.681,0.243-1.119c0.088-0.437,0.195-0.913,0.327-1.423l1.689-6.642h2.891L58.269,65.571z"/>
		<path fill="#FFFFFF" d="M76.172,60.116c0,0.979-0.193,1.777-0.58,2.399c-0.385,0.62-0.885,1.111-1.496,1.468
			c-0.613,0.357-1.295,0.603-2.047,0.733c-0.75,0.133-1.49,0.201-2.221,0.201h-5.619V49.443h5.871c0.629,0,1.275,0.047,1.939,0.145
			c0.666,0.095,1.268,0.28,1.809,0.556c0.541,0.279,0.984,0.679,1.336,1.195c0.352,0.519,0.525,1.193,0.525,2.026
			c0,0.396-0.074,0.767-0.219,1.119c-0.145,0.351-0.336,0.657-0.568,0.92c-0.234,0.263-0.498,0.478-0.789,0.646
			c-0.293,0.167-0.592,0.283-0.898,0.341v0.043c0.406,0.059,0.787,0.182,1.141,0.362c0.357,0.184,0.666,0.429,0.936,0.733
			c0.27,0.307,0.482,0.679,0.641,1.119C76.092,59.088,76.172,59.576,76.172,60.116 M72.338,53.826c0-0.452-0.105-0.803-0.318-1.053
			c-0.213-0.246-0.471-0.424-0.777-0.537c-0.309-0.108-0.637-0.169-0.986-0.186c-0.35-0.014-0.666-0.021-0.943-0.021h-1.688v3.55
			h1.732c0.293,0,0.611-0.008,0.953-0.021c0.342-0.016,0.666-0.078,0.963-0.188c0.301-0.108,0.553-0.284,0.76-0.525
			C72.234,54.605,72.338,54.265,72.338,53.826 M72.666,60.028c0-0.483-0.113-0.856-0.34-1.128s-0.504-0.468-0.832-0.591
			c-0.33-0.124-0.68-0.201-1.053-0.231c-0.373-0.028-0.697-0.044-0.975-0.044h-1.842v4.317h2.018c0.395,0,0.775-0.025,1.139-0.076
			c0.367-0.051,0.688-0.161,0.965-0.33c0.277-0.167,0.502-0.4,0.668-0.7C72.582,60.945,72.666,60.538,72.666,60.028"/>
		<path fill="#FFFFFF" d="M85.377,64.918v-1.45c-0.395,0.556-0.848,0.998-1.359,1.328c-0.51,0.33-1.139,0.491-1.883,0.491
			c-0.629,0-1.172-0.102-1.621-0.307c-0.455-0.205-0.824-0.489-1.107-0.854c-0.287-0.365-0.498-0.791-0.637-1.282
			c-0.139-0.488-0.207-1.019-0.207-1.587v-8.045h3.068v7.408c0,0.599,0.121,1.086,0.371,1.457c0.25,0.372,0.666,0.56,1.248,0.56
			c0.293,0,0.551-0.051,0.777-0.155c0.227-0.1,0.412-0.232,0.561-0.393c0.264-0.276,0.424-0.528,0.482-0.746
			c0.059-0.219,0.086-0.525,0.086-0.92v-7.211h3.07v11.706H85.377z"/>
		<path fill="#FFFFFF" d="M98.941,61.409c0,0.57-0.113,1.093-0.34,1.566c-0.227,0.477-0.549,0.884-0.963,1.228
			c-0.416,0.344-0.932,0.611-1.547,0.798c-0.613,0.191-1.301,0.285-2.061,0.285c-0.744,0-1.42-0.098-2.025-0.293
			c-0.605-0.197-1.078-0.398-1.414-0.604l0.943-2.256c0.379,0.262,0.813,0.475,1.301,0.636c0.492,0.16,0.969,0.239,1.438,0.239
			c0.205,0,0.412-0.018,0.627-0.055c0.209-0.039,0.402-0.102,0.578-0.197c0.178-0.094,0.318-0.22,0.428-0.372
			c0.111-0.154,0.164-0.347,0.164-0.581c0-0.219-0.061-0.404-0.186-0.559s-0.275-0.286-0.449-0.395
			c-0.178-0.11-0.363-0.202-0.559-0.273c-0.199-0.072-0.375-0.14-0.537-0.197l-0.965-0.372c-0.76-0.294-1.369-0.686-1.828-1.175
			c-0.463-0.489-0.689-1.164-0.689-2.027c0-0.554,0.105-1.071,0.328-1.554c0.219-0.481,0.531-0.902,0.939-1.26
			c0.41-0.358,0.895-0.64,1.459-0.844c0.563-0.206,1.186-0.308,1.873-0.308c0.744,0,1.379,0.088,1.906,0.263s0.943,0.344,1.25,0.504
			l-0.945,2.257c-0.334-0.219-0.717-0.39-1.148-0.515c-0.434-0.124-0.836-0.186-1.217-0.186c-0.629,0-1.055,0.127-1.281,0.383
			s-0.34,0.514-0.34,0.777c0,0.177,0.045,0.33,0.131,0.461c0.088,0.133,0.201,0.249,0.34,0.351c0.141,0.103,0.289,0.19,0.449,0.264
			c0.16,0.071,0.314,0.13,0.461,0.173l1.029,0.375c0.41,0.161,0.789,0.336,1.141,0.525c0.35,0.191,0.654,0.422,0.91,0.702
			c0.254,0.276,0.451,0.598,0.592,0.964C98.873,60.505,98.941,60.926,98.941,61.409"/>
	</g>
</g>
</svg>
