<?xml version="1.0" encoding="iso-8859-1"?>
<!-- Generator: Adobe Illustrator 14.0.0, SVG Export Plug-In . SVG Version: 6.00 Build 43363)  -->
<!DOCTYPE svg PUBLIC "-//W3C//DTD SVG 1.1//EN" "http://www.w3.org/Graphics/SVG/1.1/DTD/svg11.dtd">
<svg version="1.1" id="Calque_1" xmlns="http://www.w3.org/2000/svg" xmlns:xlink="http://www.w3.org/1999/xlink" x="0px" y="0px"
	 width="120px" height="77px" viewBox="0 0 120 77" style="enable-background:new 0 0 120 77;" xml:space="preserve">
<rect style="fill-rule:evenodd;clip-rule:evenodd;fill:#A0006E;" width="120" height="77"/>
<g>
	<path style="fill:#FFFFFF;" d="M15.846,59.212v-5.455c1.056-4.81,5.807-9.209,11.32-14.019c2.757-2.404,5.748-5.396,5.748-9.385
		c0-3.578-2.346-6.569-6.863-6.569c-3.636,0-6.159,2.64-7.156,3.754l-4.34-5.748c3.988-3.46,7.684-5.103,13.256-5.103
		c7.273,0,14.136,4.223,14.136,12.669c0,7.098-4.516,10.44-9.502,14.957c-2.111,1.936-6.276,5.572-6.804,7.978H42.71v6.921H15.846z"
		/>
	<path style="fill:#FFFFFF;" d="M60.375,60.326c-9.209,0-14.429-5.514-14.429-11.789c0-5.514,3.109-8.975,7.097-11.027
		c-3.578-2.229-5.807-5.044-5.807-9.326c0-6.863,6.217-11.614,13.314-11.614c7.274,0,13.315,3.578,13.315,10.675
		c0,3.871-1.994,7.156-5.865,9.502c3.813,1.818,7.155,5.338,7.155,10.793C75.155,55.399,68.879,60.326,60.375,60.326z M59.67,40.384
		c-2.698,1.056-5.396,3.988-5.396,7.215c0,3.401,2.229,6.628,6.217,6.628c3.93,0,6.1-2.757,6.1-6.042
		C66.592,44.431,63.189,42.144,59.67,40.384z M60.667,22.553c-3.226,0-5.279,1.994-5.279,4.868c0,3.402,3.402,5.514,6.041,6.628
		c2.171-0.997,4.518-3.695,4.518-6.276C65.947,24.899,64.07,22.553,60.667,22.553z"/>
	<path style="fill:#FFFFFF;" d="M88.261,60.209c-4.81,0-8.505-1.056-11.672-2.991l3.343-6.452c2.288,1.584,4.635,2.64,7.86,2.64
		s7.272-1.936,7.272-6.804c0-2.992-1.994-7.098-9.619-7.215c-2.346,0-5.103-0.059-6.451-0.059l1.642-21.526h21.761v6.921H87.498
		l-0.586,7.86c0.234,0,0.762,0.059,1.173,0.059c11.32,0.528,15.896,6.921,15.896,13.139C103.98,53.698,97.705,60.209,88.261,60.209z
		"/>
</g>
</svg>
