<?xml version="1.0" encoding="iso-8859-1"?>
<!-- Generator: Adobe Illustrator 14.0.0, SVG Export Plug-In . SVG Version: 6.00 Build 43363)  -->
<!DOCTYPE svg PUBLIC "-//W3C//DTD SVG 1.1//EN" "http://www.w3.org/Graphics/SVG/1.1/DTD/svg11.dtd">
<svg version="1.1" id="Calque_1" xmlns="http://www.w3.org/2000/svg" xmlns:xlink="http://www.w3.org/1999/xlink" x="0px" y="0px"
	 width="120px" height="77px" viewBox="0 0 120 77" style="enable-background:new 0 0 120 77;" xml:space="preserve">
<rect style="fill-rule:evenodd;clip-rule:evenodd;fill:#D2D200;" width="120" height="77"/>
<g>
	<path d="M16.089,59.212v-5.455c1.056-4.81,5.807-9.209,11.32-14.019c2.757-2.404,5.748-5.396,5.748-9.385
		c0-3.578-2.346-6.569-6.863-6.569c-3.636,0-6.159,2.64-7.156,3.754l-4.34-5.748c3.988-3.46,7.684-5.103,13.256-5.103
		c7.273,0,14.136,4.223,14.136,12.669c0,7.098-4.516,10.44-9.502,14.957c-2.111,1.936-6.276,5.572-6.804,7.978h17.068v6.921H16.089z
		"/>
	<path d="M55.315,60.326c-2.346,0-4.458-0.293-6.217-0.704l1.291-7.038c1.114,0.469,3.285,0.997,5.689,0.997
		c5.807,0,10.03-4.634,10.617-12.963c-1.408,1.232-4.106,2.815-8.564,2.815c-6.862,0-12.376-4.517-12.376-12.259
		c0-8.27,5.514-14.37,14.194-14.37c11.321,0,15.368,7.859,15.368,18.828C75.316,50.003,68.571,60.326,55.315,60.326z M60.301,23.315
		c-4.106,0-6.217,3.343-6.217,6.921c0,3.871,2.581,6.687,6.687,6.687c2.639,0,4.751-0.997,5.572-2.287
		c0.47-0.704,0.47-2.346,0.47-3.578C66.812,27.128,64.523,23.315,60.301,23.315z"/>
	<path d="M87.96,60.209c-5.925,0-9.209-1.466-11.966-3.108l3.227-6.394c1.76,1.231,4.633,2.698,8.152,2.698
		c4.811,0,7.801-2.815,7.801-6.335c0-4.751-3.637-6.394-7.859-6.394h-4.281v-6.862h4.34c4.047,0,6.569-2.112,6.569-5.279
		c0-2.64-1.994-5.044-6.335-5.044c-3.813,0-6.334,1.818-7.684,2.991l-2.991-6.1c3.52-2.346,7.332-3.695,12.552-3.695
		c8.447,0,13.256,5.044,13.256,10.558c0,4.282-2.287,7.684-6.686,9.326v0.117c4.574,0.88,8.035,4.399,8.035,10.206
		C104.09,54.168,97.579,60.209,87.96,60.209z"/>
</g>
</svg>
