<?xml version="1.0" encoding="iso-8859-1"?>
<!-- Generator: Adobe Illustrator 14.0.0, SVG Export Plug-In . SVG Version: 6.00 Build 43363)  -->
<!DOCTYPE svg PUBLIC "-//W3C//DTD SVG 1.1//EN" "http://www.w3.org/Graphics/SVG/1.1/DTD/svg11.dtd">
<svg version="1.1" id="Calque_1" xmlns="http://www.w3.org/2000/svg" xmlns:xlink="http://www.w3.org/1999/xlink" x="0px" y="0px"
	 width="120px" height="77px" viewBox="0 0 120 77" style="enable-background:new 0 0 120 77;" xml:space="preserve">
<rect style="fill-rule:evenodd;clip-rule:evenodd;fill:#A0006E;" width="120" height="77"/>
<g>
	<path style="fill:#FFFFFF;" d="M15.691,59.212v-5.455c1.056-4.81,5.807-9.209,11.32-14.019c2.757-2.404,5.748-5.396,5.748-9.385
		c0-3.578-2.346-6.569-6.863-6.569c-3.636,0-6.159,2.64-7.156,3.754L14.4,21.79c3.988-3.46,7.684-5.103,13.256-5.103
		c7.273,0,14.136,4.223,14.136,12.669c0,7.098-4.516,10.44-9.502,14.957c-2.111,1.936-6.276,5.572-6.804,7.978h17.068v6.921H15.691z
		"/>
	<path style="fill:#FFFFFF;" d="M54.917,60.326c-2.346,0-4.458-0.293-6.217-0.704l1.291-7.038c1.114,0.469,3.285,0.997,5.689,0.997
		c5.807,0,10.03-4.634,10.617-12.963c-1.408,1.232-4.106,2.815-8.564,2.815c-6.862,0-12.376-4.517-12.376-12.259
		c0-8.27,5.514-14.37,14.194-14.37c11.321,0,15.368,7.859,15.368,18.828C74.918,50.003,68.173,60.326,54.917,60.326z M59.902,23.315
		c-4.106,0-6.217,3.343-6.217,6.921c0,3.871,2.581,6.687,6.687,6.687c2.639,0,4.751-0.997,5.572-2.287
		c0.47-0.704,0.47-2.346,0.47-3.578C66.413,27.128,64.125,23.315,59.902,23.315z"/>
	<path style="fill:#FFFFFF;" d="M91.291,59.212h-9.443c0-5.455,1.467-8.975,5.104-15.72l10.089-18.77H76.922v-6.921h28.975v6.745
		C96.805,40.325,91.291,52.701,91.291,59.212z"/>
</g>
</svg>
