<?xml version="1.0" encoding="iso-8859-1"?>
<!-- Generator: Adobe Illustrator 14.0.0, SVG Export Plug-In . SVG Version: 6.00 Build 43363)  -->
<!DOCTYPE svg PUBLIC "-//W3C//DTD SVG 1.1//EN" "http://www.w3.org/Graphics/SVG/1.1/DTD/svg11.dtd">
<svg version="1.1" id="Calque_1" xmlns="http://www.w3.org/2000/svg" xmlns:xlink="http://www.w3.org/1999/xlink" x="0px" y="0px"
	 width="120px" height="77px" viewBox="0 0 120 77" style="enable-background:new 0 0 120 77;" xml:space="preserve">
<g>
	<rect style="fill-rule:evenodd;clip-rule:evenodd;fill:#82C8E6;" width="120" height="77"/>
	<g>
		<path d="M17.272,68.378v-7.873c1.524-6.941,8.381-13.291,16.338-20.232c3.979-3.471,8.296-7.789,8.296-13.545
			c0-5.164-3.386-9.481-9.905-9.481c-5.249,0-8.889,3.809-10.328,5.418l-6.264-8.296c5.756-4.995,11.09-7.365,19.132-7.365
			c10.498,0,20.402,6.095,20.402,18.286c0,10.243-6.519,15.068-13.714,21.587c-3.047,2.794-9.058,8.043-9.82,11.514h24.635v9.989
			H17.272z"/>
		<path d="M73.604,69.986c-3.386,0-6.434-0.423-8.973-1.016l1.861-10.159c1.609,0.678,4.741,1.439,8.213,1.439
			c8.381,0,14.476-6.688,15.322-18.709c-2.032,1.777-5.926,4.063-12.359,4.063c-9.905,0-17.863-6.519-17.863-17.693
			c0-11.936,7.958-20.74,20.486-20.74c16.34,0,22.181,11.344,22.181,27.175C102.472,55.087,92.736,69.986,73.604,69.986z
			 M80.8,16.568c-5.927,0-8.974,4.826-8.974,9.99c0,5.587,3.725,9.651,9.65,9.651c3.81,0,6.857-1.439,8.043-3.302
			c0.677-1.016,0.677-3.387,0.677-5.164C90.196,22.071,86.895,16.568,80.8,16.568z"/>
	</g>
</g>
</svg>
