<?xml version="1.0" encoding="iso-8859-1"?>
<!-- Generator: Adobe Illustrator 14.0.0, SVG Export Plug-In . SVG Version: 6.00 Build 43363)  -->
<!DOCTYPE svg PUBLIC "-//W3C//DTD SVG 1.1//EN" "http://www.w3.org/Graphics/SVG/1.1/DTD/svg11.dtd">
<svg version="1.1" id="Calque_1" xmlns="http://www.w3.org/2000/svg" xmlns:xlink="http://www.w3.org/1999/xlink" x="0px" y="0px"
	 width="120px" height="77px" viewBox="0 0 120 77" style="enable-background:new 0 0 120 77;" xml:space="preserve">
<rect style="fill-rule:evenodd;clip-rule:evenodd;fill:#0055C8;" width="120" height="77"/>
<g>
	<path style="fill:#FFFFFF;" d="M23.806,60.209c-5.924,0-9.209-1.466-11.966-3.108l3.226-6.394c1.76,1.231,4.634,2.698,8.153,2.698
		c4.81,0,7.801-2.815,7.801-6.335c0-4.751-3.637-6.394-7.86-6.394h-4.282v-6.862h4.34c4.047,0,6.569-2.112,6.569-5.279
		c0-2.64-1.994-5.044-6.334-5.044c-3.813,0-6.334,1.818-7.684,2.991l-2.992-6.1c3.52-2.346,7.332-3.695,12.552-3.695
		c8.446,0,13.256,5.044,13.256,10.558c0,4.282-2.288,7.684-6.687,9.326v0.117c4.575,0.88,8.036,4.399,8.036,10.206
		C39.936,54.168,33.425,60.209,23.806,60.209z"/>
	<path style="fill:#FFFFFF;" d="M58.345,60.326c-12.494,0-14.957-12.317-14.957-21.878c0-9.561,2.698-21.878,15.191-21.878
		s14.957,12.317,14.957,21.878C73.536,48.009,70.838,60.326,58.345,60.326z M58.462,23.55c-5.983,0-6.159,10.675-6.159,14.898
		c0,4.164,0.293,14.957,6.159,14.957c5.866,0,6.101-10.852,6.101-14.957C64.563,34.107,64.387,23.55,58.462,23.55z"/>
	<path style="fill:#FFFFFF;" d="M92.737,60.209c-11.32,0-15.368-7.859-15.368-18.828c0-14.371,6.746-24.694,20.002-24.694
		c2.346,0,4.457,0.293,6.217,0.704l-1.29,7.039c-1.114-0.469-3.284-0.997-5.689-0.997c-5.807,0-10.03,4.634-10.616,12.962
		c1.407-1.231,4.105-2.815,8.563-2.815c6.862,0,12.376,4.517,12.376,12.259C106.932,54.109,101.418,60.209,92.737,60.209z
		 M91.916,40.091c-2.64,0-4.751,0.997-5.572,2.287c-0.469,0.704-0.469,2.347-0.469,3.578c0,3.93,2.287,7.742,6.51,7.742
		c4.106,0,6.218-3.343,6.218-6.921C98.603,42.906,96.021,40.091,91.916,40.091z"/>
</g>
</svg>
