<?xml version="1.0" encoding="iso-8859-1"?>
<!-- Generator: Adobe Illustrator 14.0.0, SVG Export Plug-In . SVG Version: 6.00 Build 43363)  -->
<!DOCTYPE svg PUBLIC "-//W3C//DTD SVG 1.1//EN" "http://www.w3.org/Graphics/SVG/1.1/DTD/svg11.dtd">
<svg version="1.1" id="Calque_1" xmlns="http://www.w3.org/2000/svg" xmlns:xlink="http://www.w3.org/1999/xlink" x="0px" y="0px"
	 width="120px" height="77px" viewBox="0 0 120 77" style="enable-background:new 0 0 120 77;" xml:space="preserve">
<rect style="fill-rule:evenodd;clip-rule:evenodd;fill:#82DC73;" width="120" height="77"/>
<g>
	<path d="M23.891,60.209c-5.924,0-9.209-1.466-11.966-3.108l3.226-6.394c1.76,1.231,4.634,2.698,8.153,2.698
		c4.81,0,7.801-2.815,7.801-6.335c0-4.751-3.637-6.394-7.86-6.394h-4.282v-6.862h4.341c4.047,0,6.569-2.112,6.569-5.279
		c0-2.64-1.995-5.044-6.335-5.044c-3.813,0-6.335,1.818-7.684,2.991l-2.992-6.1c3.52-2.346,7.332-3.695,12.552-3.695
		c8.446,0,13.256,5.044,13.256,10.558c0,4.282-2.288,7.684-6.687,9.326v0.117c4.575,0.88,8.036,4.399,8.036,10.206
		C40.021,54.168,33.51,60.209,23.891,60.209z"/>
	<path d="M58.43,60.326c-12.494,0-14.957-12.317-14.957-21.878c0-9.561,2.698-21.878,15.191-21.878
		c12.494,0,14.957,12.317,14.957,21.878C73.621,48.009,70.924,60.326,58.43,60.326z M58.547,23.55
		c-5.983,0-6.159,10.675-6.159,14.898c0,4.164,0.293,14.957,6.159,14.957c5.866,0,6.1-10.852,6.1-14.957
		C64.647,34.107,64.472,23.55,58.547,23.55z"/>
	<path d="M91.538,60.326c-9.209,0-14.429-5.514-14.429-11.789c0-5.514,3.108-8.975,7.097-11.027
		c-3.578-2.229-5.807-5.044-5.807-9.326c0-6.863,6.218-11.614,13.314-11.614c7.273,0,13.314,3.578,13.314,10.675
		c0,3.871-1.994,7.156-5.865,9.502c3.813,1.818,7.155,5.338,7.155,10.793C106.318,55.399,100.043,60.326,91.538,60.326z
		 M90.834,40.384c-2.698,1.056-5.396,3.988-5.396,7.215c0,3.401,2.229,6.628,6.218,6.628c3.93,0,6.101-2.757,6.101-6.042
		C97.756,44.431,94.354,42.144,90.834,40.384z M91.831,22.553c-3.226,0-5.278,1.994-5.278,4.868c0,3.402,3.401,5.514,6.041,6.628
		c2.17-0.997,4.517-3.695,4.517-6.276C97.11,24.899,95.233,22.553,91.831,22.553z"/>
</g>
</svg>
