<?xml version="1.0" encoding="iso-8859-1"?>
<!-- Generator: Adobe Illustrator 14.0.0, SVG Export Plug-In . SVG Version: 6.00 Build 43363)  -->
<!DOCTYPE svg PUBLIC "-//W3C//DTD SVG 1.1//EN" "http://www.w3.org/Graphics/SVG/1.1/DTD/svg11.dtd">
<svg version="1.1" id="Calque_1" xmlns="http://www.w3.org/2000/svg" xmlns:xlink="http://www.w3.org/1999/xlink" x="0px" y="0px"
	 width="120px" height="77px" viewBox="0 0 120 77" style="enable-background:new 0 0 120 77;" xml:space="preserve">
<g>
	<rect style="fill-rule:evenodd;clip-rule:evenodd;fill:#640082;" width="120" height="77"/>
	<g>
		<path style="fill:#FFFFFF;" d="M31.625,69.817c-8.55,0-13.291-2.117-17.27-4.487l4.656-9.228c2.54,1.778,6.688,3.895,11.768,3.895
			c6.941,0,11.259-4.063,11.259-9.143c0-6.857-5.249-9.228-11.344-9.228h-6.18v-9.905h6.265c5.841,0,9.481-3.047,9.481-7.619
			c0-3.81-2.878-7.28-9.143-7.28c-5.502,0-9.143,2.624-11.09,4.317l-4.317-8.804C20.79,8.95,26.292,7.002,33.827,7.002
			c12.19,0,19.132,7.28,19.132,15.238c0,6.18-3.302,11.089-9.651,13.46v0.169c6.603,1.27,11.598,6.35,11.598,14.73
			C54.906,61.098,45.509,69.817,31.625,69.817z"/>
		<path style="fill:#FFFFFF;" d="M81.177,69.986c-18.032,0-21.587-17.777-21.587-31.576c0-13.799,3.894-31.577,21.926-31.577
			c18.031,0,21.587,17.778,21.587,31.577C103.103,52.209,99.208,69.986,81.177,69.986z M81.346,16.907
			c-8.635,0-8.889,15.407-8.889,21.503c0,6.01,0.424,21.587,8.889,21.587c8.466,0,8.805-15.661,8.805-21.587
			C90.15,32.146,89.896,16.907,81.346,16.907z"/>
	</g>
</g>
</svg>
