<?xml version="1.0" encoding="iso-8859-1"?>
<!-- Generator: Adobe Illustrator 14.0.0, SVG Export Plug-In . SVG Version: 6.00 Build 43363)  -->
<!DOCTYPE svg PUBLIC "-//W3C//DTD SVG 1.1//EN" "http://www.w3.org/Graphics/SVG/1.1/DTD/svg11.dtd">
<svg version="1.1" id="Calque_1" xmlns="http://www.w3.org/2000/svg" xmlns:xlink="http://www.w3.org/1999/xlink" x="0px" y="0px"
	 width="120px" height="77px" viewBox="0 0 120 77" style="enable-background:new 0 0 120 77;" xml:space="preserve">
<g>
	<rect style="fill-rule:evenodd;clip-rule:evenodd;fill:#FFBE00;" width="120" height="77"/>
	<g>
		<path d="M37.429,69.817c-8.55,0-13.291-2.117-17.27-4.487l4.656-9.228c2.54,1.778,6.688,3.895,11.768,3.895
			c6.941,0,11.259-4.063,11.259-9.143c0-6.857-5.249-9.228-11.344-9.228h-6.18v-9.905h6.265c5.841,0,9.481-3.047,9.481-7.619
			c0-3.81-2.878-7.28-9.143-7.28c-5.502,0-9.143,2.624-11.09,4.317l-4.317-8.804C26.593,8.95,32.096,7.002,39.63,7.002
			c12.19,0,19.132,7.28,19.132,15.238c0,6.18-3.302,11.089-9.651,13.46v0.169c6.603,1.27,11.598,6.35,11.598,14.73
			C60.709,61.098,51.313,69.817,37.429,69.817z"/>
		<path d="M80.707,68.378V21.394c-3.641,2.878-9.396,5.671-13.375,7.45l-4.064-9.143c6.266-2.624,13.799-6.603,19.725-11.09h10.413
			v59.767H80.707z"/>
	</g>
</g>
</svg>
