<?xml version="1.0" encoding="utf-8"?>
<!-- Generator: Adobe Illustrator 16.0.3, SVG Export Plug-In . SVG Version: 6.00 Build 0)  -->
<!DOCTYPE svg PUBLIC "-//W3C//DTD SVG 1.1//EN" "http://www.w3.org/Graphics/SVG/1.1/DTD/svg11.dtd">
<svg version="1.1" id="Calque_1" xmlns="http://www.w3.org/2000/svg" xmlns:xlink="http://www.w3.org/1999/xlink" x="0px" y="0px"
	 width="120px" height="77px" viewBox="0 0 120 77" enable-background="new 0 0 120 77" xml:space="preserve">
<rect fill-rule="evenodd" clip-rule="evenodd" fill="#FFBE00" width="120" height="77"/>
<g>
	<path fill="#1D1D1B" d="M19.589,55.995c-4.738,0-7.366-1.173-9.571-2.486l2.581-5.114c1.407,0.985,3.706,2.158,6.521,2.158
		c3.847,0,6.239-2.252,6.239-5.067c0-3.8-2.908-5.114-6.286-5.114h-3.425v-5.489h3.472c3.237,0,5.255-1.689,5.255-4.222
		c0-2.111-1.596-4.035-5.067-4.035c-3.05,0-5.067,1.455-6.146,2.393l-2.394-4.879c2.815-1.877,5.864-2.956,10.04-2.956
		c6.756,0,10.604,4.035,10.604,8.445c0,3.425-1.83,6.146-5.349,7.46v0.094c3.659,0.703,6.428,3.519,6.428,8.163
		C32.491,51.162,27.283,55.995,19.589,55.995z"/>
	<path fill="#1D1D1B" d="M35.813,55.197v-4.363c0.845-3.847,4.645-7.366,9.055-11.213c2.205-1.924,4.598-4.316,4.598-7.507
		c0-2.862-1.876-5.254-5.489-5.254c-2.908,0-4.926,2.111-5.724,3.002l-3.472-4.598c3.19-2.768,6.146-4.082,10.604-4.082
		c5.816,0,11.307,3.378,11.307,10.134c0,5.677-3.613,8.351-7.602,11.963c-1.688,1.549-5.02,4.457-5.441,6.381H57.3v5.536H35.813z"/>
	<path fill="#1D1D1B" d="M72.738,56.089c-9.993,0-11.964-9.853-11.964-17.5s2.158-17.5,12.151-17.5s11.964,9.853,11.964,17.5
		S82.731,56.089,72.738,56.089z M72.832,26.672c-4.786,0-4.927,8.539-4.927,11.917c0,3.331,0.235,11.964,4.927,11.964
		s4.879-8.68,4.879-11.964C77.711,35.117,77.57,26.672,72.832,26.672z"/>
</g>
<g>
	<path d="M102.521,55.701c-1.408,0-3.064-0.563-4.016-1.444v0.846h-4.792V29.03h4.968v9.725c1.269-1.833,2.713-3.065,5.109-3.065
		c4.932,0,6.976,5.25,6.976,9.795C110.767,49.712,108.547,55.701,102.521,55.701z M101.888,39.988c-0.986,0-1.761,0.422-2.29,0.951
		c-0.846,0.81-0.951,1.339-0.951,2.431v6.377c0,1.304,0.775,2.467,3.03,2.467c3.171,0,3.946-3.418,3.946-5.99
		C105.623,43.688,105.023,39.988,101.888,39.988z"/>
</g>
</svg>
