<?xml version="1.0" encoding="utf-8"?>
<!-- Generator: Adobe Illustrator 21.0.2, SVG Export Plug-In . SVG Version: 6.00 Build 0)  -->
<svg version="1.1" id="Calque_1" xmlns="http://www.w3.org/2000/svg" xmlns:xlink="http://www.w3.org/1999/xlink" x="0px" y="0px"
	 viewBox="0 0 120 77" style="enable-background:new 0 0 120 77;" xml:space="preserve">
<style type="text/css">
	.st0{fill-rule:evenodd;clip-rule:evenodd;fill:#640082;}
	.st1{fill:#FFFFFF;}
</style>
<rect class="st0" width="120" height="77"/>
<g>
	<path class="st1" d="M27.1,60.6c-5.9,0-9.2-1.5-12-3.1l3.2-6.4c1.8,1.2,4.6,2.7,8.1,2.7c4.8,0,7.8-2.8,7.8-6.3
		c0-4.7-3.6-6.4-7.9-6.4h-4.3v-6.8h4.3c4,0,6.6-2.1,6.6-5.3c0-2.6-2-5-6.3-5c-3.8,0-6.3,1.8-7.7,3l-3-6.1c3.5-2.3,7.3-3.7,12.5-3.7
		c8.4,0,13.2,5,13.2,10.5c0,4.3-2.3,7.7-6.7,9.3v0.1c4.6,0.9,8,4.4,8,10.2C43.2,54.6,36.7,60.6,27.1,60.6z"/>
	<path class="st1" d="M57.1,60.6c-5.9,0-9.2-1.5-12-3.1l3.2-6.4c1.8,1.2,4.6,2.7,8.1,2.7c4.8,0,7.8-2.8,7.8-6.3
		c0-4.7-3.6-6.4-7.9-6.4h-4.3v-6.8h4.3c4,0,6.6-2.1,6.6-5.3c0-2.6-2-5-6.3-5c-3.8,0-6.3,1.8-7.7,3l-3-6.1c3.5-2.3,7.3-3.7,12.5-3.7
		c8.4,0,13.2,5,13.2,10.5c0,4.3-2.3,7.7-6.7,9.3v0.1c4.6,0.9,8,4.4,8,10.2C73.2,54.6,66.7,60.6,57.1,60.6z"/>
	<path class="st1" d="M90.5,59.6H81c0-5.4,1.5-8.9,5.1-15.7l10.1-18.7H76.1v-6.9H105v6.7C96,40.8,90.5,53.1,90.5,59.6z"/>
</g>
</svg>
