<?xml version="1.0" encoding="iso-8859-1"?>
<!-- Generator: Adobe Illustrator 14.0.0, SVG Export Plug-In . SVG Version: 6.00 Build 43363)  -->
<!DOCTYPE svg PUBLIC "-//W3C//DTD SVG 1.1//EN" "http://www.w3.org/Graphics/SVG/1.1/DTD/svg11.dtd">
<svg version="1.1" id="Calque_1" xmlns="http://www.w3.org/2000/svg" xmlns:xlink="http://www.w3.org/1999/xlink" x="0px" y="0px"
	 width="120px" height="77px" viewBox="0 0 120 77" style="enable-background:new 0 0 120 77;" xml:space="preserve">
<g>
	<rect style="fill-rule:evenodd;clip-rule:evenodd;fill:#82C8E6;" width="120" height="77"/>
</g>
<g>
	<path d="M23.193,60.209c-5.924,0-9.209-1.466-11.966-3.108l3.226-6.394c1.76,1.231,4.634,2.698,8.153,2.698
		c4.81,0,7.801-2.815,7.801-6.335c0-4.751-3.637-6.394-7.86-6.394h-4.282v-6.862h4.34c4.047,0,6.569-2.112,6.569-5.279
		c0-2.64-1.994-5.044-6.334-5.044c-3.813,0-6.334,1.818-7.684,2.991l-2.992-6.1c3.52-2.346,7.332-3.695,12.552-3.695
		c8.446,0,13.256,5.044,13.256,10.558c0,4.282-2.288,7.684-6.687,9.326v0.117c4.575,0.88,8.036,4.399,8.036,10.206
		C39.323,54.168,32.813,60.209,23.193,60.209z"/>
	<path d="M69.375,50.59v8.622h-8.211V50.59H42.512v-7.684l16.071-25.104h10.792v26.336h4.869v6.452H69.375z M61.164,25.075h-0.117
		c-0.176,0.704-1.35,3.226-2.992,5.807l-8.446,13.256h11.555V25.075z"/>
	<path d="M92.236,60.326c-9.209,0-14.43-5.514-14.43-11.789c0-5.514,3.109-8.975,7.098-11.027c-3.578-2.229-5.807-5.044-5.807-9.326
		c0-6.863,6.217-11.614,13.314-11.614c7.273,0,13.314,3.578,13.314,10.675c0,3.871-1.994,7.156-5.865,9.502
		c3.813,1.818,7.155,5.338,7.155,10.793C107.017,55.399,100.74,60.326,92.236,60.326z M91.531,40.384
		c-2.697,1.056-5.396,3.988-5.396,7.215c0,3.401,2.229,6.628,6.218,6.628c3.93,0,6.1-2.757,6.1-6.042
		C98.453,44.431,95.051,42.144,91.531,40.384z M92.529,22.553c-3.227,0-5.279,1.994-5.279,4.868c0,3.402,3.402,5.514,6.041,6.628
		c2.171-0.997,4.518-3.695,4.518-6.276C97.809,24.899,95.932,22.553,92.529,22.553z"/>
</g>
</svg>
