<?xml version="1.0" encoding="iso-8859-1"?>
<!-- Generator: Adobe Illustrator 14.0.0, SVG Export Plug-In . SVG Version: 6.00 Build 43363)  -->
<!DOCTYPE svg PUBLIC "-//W3C//DTD SVG 1.1//EN" "http://www.w3.org/Graphics/SVG/1.1/DTD/svg11.dtd">
<svg version="1.1" id="Calque_1" xmlns="http://www.w3.org/2000/svg" xmlns:xlink="http://www.w3.org/1999/xlink" x="0px" y="0px"
	 width="120px" height="77px" viewBox="0 0 120 77" style="enable-background:new 0 0 120 77;" xml:space="preserve">
<g>
	<rect style="fill-rule:evenodd;clip-rule:evenodd;fill:#FF1400;" width="120" height="77"/>
	<g>
		<g>
			<path style="fill:#FFFFFF;" d="M96.459,60.572c0,0.396-0.031,0.697-0.09,0.922c-0.06,0.221-0.221,0.471-0.486,0.745
				c-0.146,0.165-0.338,0.293-0.561,0.401c-0.23,0.102-0.489,0.148-0.784,0.148c-0.592,0-1.011-0.184-1.259-0.559
				c-0.253-0.373-0.375-0.859-0.375-1.466v-7.418h-3.089v8.056c0,0.572,0.071,1.104,0.21,1.594c0.139,0.49,0.352,0.918,0.641,1.285
				c0.285,0.364,0.657,0.648,1.109,0.854c0.46,0.203,1.003,0.306,1.635,0.306c0.752,0,1.383-0.16,1.896-0.494
				c0.519-0.328,0.975-0.77,1.371-1.326l0.004,1.45h2.863V53.347h-3.086V60.572 M86.488,57.664
				c-0.271-0.311-0.586-0.553-0.951-0.737c-0.359-0.187-0.748-0.308-1.157-0.364V56.52c0.305-0.062,0.606-0.173,0.901-0.344
				c0.293-0.164,0.557-0.383,0.79-0.646c0.233-0.265,0.429-0.57,0.571-0.922c0.148-0.347,0.223-0.724,0.223-1.12
				c0-0.834-0.178-1.509-0.526-2.031c-0.354-0.516-0.802-0.915-1.347-1.193c-0.54-0.275-1.146-0.463-1.815-0.562
				c-0.666-0.095-1.316-0.14-1.948-0.14h-5.73v15.509h5.496c0.732,0,1.479-0.066,2.236-0.199c0.756-0.131,1.445-0.377,2.061-0.733
				c0.618-0.361,1.121-0.852,1.512-1.476c0.387-0.624,0.582-1.423,0.582-2.406c0-0.545-0.081-1.035-0.24-1.472
				C86.983,58.342,86.759,57.971,86.488,57.664z M78.757,52.117h1.876c0.277,0,0.721,0.009,1.071,0.021
				c0.353,0.016,0.683,0.076,0.987,0.186c0.31,0.117,0.57,0.294,0.782,0.543c0.214,0.255,0.319,0.605,0.319,1.063
				c0,0.445-0.104,0.787-0.308,1.03c-0.208,0.245-0.458,0.42-0.76,0.534c-0.3,0.11-0.623,0.171-0.963,0.188
				c-0.345,0.016-0.666,0.021-0.956,0.021h-2.05V52.117z M83.874,61.386c-0.169,0.3-0.389,0.529-0.675,0.7
				c-0.274,0.168-0.596,0.279-0.963,0.33s-0.748,0.078-1.146,0.078h-2.333V58.17h2.159c0.28,0,0.604,0.013,0.982,0.043
				c0.371,0.031,0.721,0.107,1.053,0.233c0.328,0.122,0.609,0.317,0.836,0.589c0.227,0.272,0.343,0.654,0.343,1.132
				C84.13,60.684,84.04,61.086,83.874,61.386z M110.107,60.284c-0.139-0.362-0.338-0.686-0.598-0.969
				c-0.254-0.273-0.559-0.512-0.916-0.698c-0.35-0.191-0.731-0.365-1.145-0.526l-1.031-0.376c-0.146-0.043-0.304-0.104-0.461-0.176
				c-0.161-0.07-0.313-0.158-0.453-0.259c-0.14-0.104-0.251-0.219-0.341-0.351c-0.088-0.129-0.132-0.286-0.132-0.459
				c0-0.262,0.113-0.522,0.34-0.773c0.23-0.257,0.658-0.383,1.289-0.383c0.381,0,0.786,0.063,1.222,0.186
				c0.433,0.122,0.817,0.295,1.157,0.517l0.945-2.267c-0.307-0.168-0.727-0.334-1.256-0.51c-0.525-0.176-1.168-0.262-1.916-0.262
				c-0.689,0-1.318,0.098-1.881,0.303c-0.568,0.207-1.061,0.488-1.466,0.848c-0.411,0.359-0.731,0.777-0.95,1.262
				c-0.222,0.484-0.33,1.007-0.33,1.558c0,0.866,0.23,1.548,0.695,2.036c0.461,0.49,1.074,0.877,1.839,1.176l0.972,0.369
				c0.158,0.063,0.338,0.129,0.538,0.201c0.198,0.068,0.386,0.162,0.563,0.27c0.174,0.111,0.326,0.244,0.453,0.396
				c0.124,0.154,0.187,0.342,0.187,0.557c0,0.236-0.059,0.432-0.165,0.581c-0.11,0.154-0.255,0.276-0.431,0.371
				c-0.177,0.097-0.371,0.164-0.585,0.198c-0.214,0.039-0.422,0.059-0.629,0.059c-0.466,0-0.949-0.084-1.444-0.246
				c-0.49-0.157-0.927-0.367-1.312-0.633l-0.947,2.262c0.338,0.203,0.814,0.402,1.422,0.604c0.609,0.195,1.289,0.293,2.037,0.293
				c0.766,0,1.457-0.094,2.076-0.283c0.615-0.191,1.131-0.46,1.551-0.801c0.416-0.345,0.741-0.754,0.969-1.229
				c0.225-0.476,0.341-0.998,0.341-1.569C110.315,61.076,110.246,60.652,110.107,60.284z M21.231,62.577
				c-0.309-0.458-0.618-0.919-0.935-1.38c-0.316-0.463-0.603-0.9-0.87-1.313c-0.266-0.407-0.505-0.776-0.713-1.103
				c-0.217-0.331-0.373-0.593-0.474-0.783c0.338-0.058,0.388-0.174,0.783-0.348c0.399-0.178,0.762-0.426,1.102-0.752
				c0.34-0.322,0.623-0.723,0.85-1.195c0.228-0.479,0.342-1.039,0.342-1.68c0-0.721-0.115-1.326-0.342-1.828
				c-0.226-0.494-0.526-0.912-0.893-1.238c-0.367-0.327-0.787-0.594-1.267-0.779c-0.474-0.189-0.957-0.332-1.454-0.418
				c-0.487-0.086-0.975-0.144-1.45-0.168c-0.479-0.016-0.905-0.029-1.289-0.029H9.685v15.509h3.256v-6.194h1.407
				c0.173,0,0.38,0.049,0.615,0.141c0.233,0.096,0.474,0.355,0.727,0.783l3.097,5.271h4.164c-0.234-0.336-0.504-0.717-0.803-1.151
				C21.844,63.486,21.538,63.042,21.231,62.577z M17.799,55.275c-0.176,0.28-0.402,0.494-0.674,0.65
				c-0.268,0.152-0.578,0.258-0.92,0.317c-0.344,0.061-0.679,0.091-1.002,0.091H12.94v-4.121h2.065c0.336,0,0.684,0.021,1.043,0.066
				c0.359,0.043,0.69,0.135,0.992,0.281c0.296,0.137,0.545,0.336,0.732,0.6c0.193,0.266,0.289,0.617,0.289,1.057
				C18.062,54.647,17.972,54.994,17.799,55.275z M68.554,59.997c-0.129,0.532-0.245,1.044-0.344,1.543
				c-0.091,0.499-0.155,0.833-0.185,1.011h-0.041c-0.031-0.178-0.094-0.512-0.188-1.011c-0.097-0.499-0.208-1.011-0.344-1.543
				l-1.63-6.65h-3.391l4.01,12.408c-0.09,0.339-0.236,0.615-0.429,0.821c-0.199,0.216-0.425,0.388-0.673,0.521
				c-0.25,0.131-0.521,0.223-0.808,0.276c-0.284,0.048-0.552,0.07-0.802,0.07l0.286,2.377c0.792-0.059,1.854-0.197,2.435-0.413
				c0.579-0.226,1.078-0.511,1.488-0.872c0.408-0.357,0.75-0.771,1.021-1.24c0.272-0.469,0.495-0.988,0.675-1.557l3.943-12.392
				h-3.391L68.554,59.997z M33.411,54.823c-0.458-0.583-1.036-1.046-1.732-1.387c-0.701-0.345-1.536-0.515-2.507-0.515
				c-0.956,0-1.79,0.17-2.5,0.515c-0.715,0.341-1.308,0.802-1.777,1.374c-0.474,0.573-0.826,1.234-1.06,1.99
				c-0.236,0.754-0.351,1.551-0.351,2.383c0,0.842,0.109,1.639,0.329,2.397c0.221,0.763,0.558,1.438,1.014,2.019
				c0.457,0.577,1.035,1.041,1.731,1.384c0.7,0.343,1.538,0.519,2.507,0.519c0.952,0,1.789-0.176,2.502-0.519
				c0.714-0.343,1.305-0.806,1.775-1.376c0.474-0.574,0.822-1.234,1.062-1.992c0.235-0.755,0.352-1.549,0.352-2.383
				c0-0.838-0.112-1.635-0.332-2.396C34.205,56.072,33.865,55.401,33.411,54.823z M31.428,60.554
				c-0.073,0.456-0.204,0.871-0.386,1.243c-0.188,0.377-0.442,0.68-0.763,0.924c-0.323,0.242-0.73,0.364-1.213,0.364
				c-0.486,0-0.886-0.127-1.195-0.384c-0.31-0.258-0.55-0.578-0.73-0.957c-0.178-0.384-0.293-0.804-0.351-1.268
				c-0.061-0.46-0.091-0.899-0.091-1.311s0.037-0.846,0.109-1.305c0.075-0.45,0.206-0.865,0.391-1.242
				c0.179-0.376,0.438-0.68,0.761-0.922c0.322-0.246,0.727-0.367,1.212-0.367c0.488,0,0.885,0.129,1.194,0.387
				c0.31,0.26,0.553,0.576,0.73,0.961c0.175,0.377,0.293,0.798,0.352,1.263c0.06,0.463,0.089,0.901,0.089,1.313
				C31.537,59.66,31.501,60.096,31.428,60.554z M60.572,59.315c-0.254-0.273-0.559-0.512-0.912-0.698
				c-0.353-0.191-0.738-0.365-1.149-0.526l-1.03-0.376c-0.146-0.043-0.301-0.104-0.463-0.176c-0.158-0.07-0.312-0.158-0.449-0.259
				c-0.141-0.104-0.254-0.219-0.342-0.351c-0.09-0.129-0.131-0.286-0.131-0.459c0-0.262,0.111-0.522,0.338-0.773
				c0.23-0.257,0.656-0.383,1.289-0.383c0.381,0,0.788,0.063,1.225,0.186c0.432,0.122,0.814,0.295,1.154,0.517l0.946-2.267
				c-0.306-0.168-0.729-0.334-1.256-0.51c-0.53-0.176-1.167-0.262-1.916-0.262c-0.692,0-1.317,0.098-1.884,0.303
				c-0.567,0.207-1.055,0.488-1.465,0.848s-0.73,0.777-0.949,1.262s-0.327,1.007-0.327,1.558c0,0.866,0.229,1.548,0.691,2.036
				c0.464,0.49,1.075,0.877,1.839,1.176l0.971,0.369c0.162,0.063,0.346,0.129,0.539,0.201c0.2,0.068,0.388,0.162,0.563,0.27
				c0.179,0.111,0.331,0.244,0.452,0.396c0.125,0.154,0.188,0.342,0.188,0.557c0,0.236-0.052,0.432-0.164,0.581
				c-0.109,0.154-0.254,0.276-0.43,0.371c-0.178,0.097-0.373,0.164-0.584,0.198c-0.211,0.039-0.424,0.059-0.628,0.059
				c-0.47,0-0.954-0.084-1.445-0.246c-0.491-0.157-0.929-0.367-1.313-0.633l-0.948,2.262c0.338,0.203,0.813,0.402,1.422,0.604
				c0.609,0.195,1.289,0.293,2.038,0.293c0.764,0,1.456-0.094,2.071-0.283c0.617-0.191,1.139-0.46,1.553-0.801
				c0.419-0.345,0.742-0.754,0.971-1.229c0.228-0.476,0.341-0.998,0.341-1.569c0-0.482-0.068-0.906-0.207-1.274
				C61.031,59.922,60.832,59.599,60.572,59.315z M50.552,59.315c-0.257-0.273-0.562-0.512-0.913-0.698
				c-0.356-0.191-0.736-0.365-1.146-0.526l-1.037-0.376c-0.146-0.043-0.294-0.104-0.462-0.176c-0.159-0.07-0.31-0.158-0.448-0.259
				c-0.141-0.104-0.256-0.219-0.338-0.351c-0.091-0.129-0.135-0.286-0.135-0.459c0-0.262,0.115-0.522,0.342-0.773
				c0.227-0.257,0.656-0.383,1.287-0.383c0.383,0,0.791,0.063,1.222,0.186c0.434,0.122,0.819,0.295,1.157,0.517l0.945-2.267
				c-0.312-0.168-0.725-0.334-1.254-0.51c-0.531-0.176-1.169-0.262-1.92-0.262c-0.69,0-1.318,0.098-1.885,0.303
				c-0.564,0.207-1.053,0.488-1.462,0.848c-0.411,0.359-0.728,0.777-0.95,1.262c-0.219,0.484-0.329,1.007-0.329,1.558
				c0,0.866,0.231,1.548,0.694,2.036c0.463,0.49,1.077,0.877,1.839,1.176l0.972,0.369c0.162,0.063,0.341,0.129,0.541,0.201
				c0.197,0.068,0.383,0.162,0.563,0.27c0.176,0.111,0.326,0.244,0.452,0.396c0.126,0.154,0.183,0.342,0.183,0.557
				c0,0.236-0.05,0.432-0.164,0.581c-0.107,0.154-0.251,0.276-0.428,0.371c-0.176,0.097-0.369,0.164-0.582,0.198
				c-0.215,0.039-0.424,0.059-0.632,0.059c-0.468,0-0.95-0.084-1.442-0.246c-0.492-0.157-0.932-0.367-1.311-0.633l-0.948,2.262
				c0.338,0.203,0.81,0.402,1.421,0.604c0.609,0.195,1.289,0.293,2.039,0.293c0.76,0,1.455-0.094,2.07-0.283
				c0.617-0.191,1.134-0.46,1.553-0.801c0.418-0.345,0.744-0.754,0.971-1.229c0.224-0.476,0.34-0.998,0.34-1.569
				c0-0.482-0.072-0.906-0.208-1.274C51.004,59.922,50.809,59.599,50.552,59.315z M38.813,48.176c-1.047,0-1.896,0.8-1.896,1.789
				c0,0.984,0.85,1.783,1.896,1.783c1.046,0,1.893-0.799,1.893-1.783C40.705,48.976,39.858,48.176,38.813,48.176z M37.239,53.347
				v11.725h3.087V53.347H37.239z"/>
			<g>
				<g>
					<path style="fill:#FFFFFF;" d="M72.189,7.408c-4.713,0-9.01,1.768-12.279,4.67c-3.266-2.905-7.568-4.67-12.281-4.67
						c-10.221,0-18.508,8.281-18.508,18.504c0,10.22,8.288,18.504,18.508,18.504c4.713,0,9.016-1.766,12.281-4.668
						c3.27,2.9,7.566,4.668,12.279,4.668c10.22,0,18.506-8.284,18.506-18.504C90.695,15.689,82.409,7.408,72.189,7.408z
						 M47.629,42.224c-9.012,0-16.314-7.302-16.314-16.312S38.617,9.6,47.629,9.6c9.01,0,16.311,7.303,16.311,16.313
						S56.639,42.224,47.629,42.224z M77.766,38.016c0,0-1.156-3.493-4.514-3.494c-3.357,0.001-4.52,3.494-4.52,3.494h-4.125
						c0,0,3.361-4.02,5.283-8.785c2.275-5.638,2.352-10.755,2.352-13.583c0-0.37-0.009-0.649-0.154-0.824
						c-0.221-0.266-0.212-0.765-0.212-0.765v-1.15l0.655-0.658c0.236-0.246,0.385-0.581,0.385-0.947h0.002v-1.064
						c0,0,0.047-0.131,0.234-0.133h0.191c0.188,0.002,0.237,0.133,0.237,0.133v1.064h0.001c0,0.366,0.146,0.701,0.383,0.947
						l0.656,0.658v1.15c0,0,0.008,0.499-0.214,0.765c-0.145,0.175-0.153,0.454-0.153,0.824c0,2.828,0.077,7.945,2.351,13.583
						c1.923,4.766,5.282,8.785,5.282,8.785H77.766z M54.895,20.095c-1.031,0.761-2.655,1.981-4.322,3.258l-11.125-1.56
						c-0.209-0.029-0.523,0.047-0.689,0.181l-1.24,0.928l7.891,4.443c-1.515,1.181-2.925,2.29-4.016,3.161
						c-0.205,0.167-0.551,0.268-0.793,0.246l-4.481-0.576c-0.328-0.045-0.609,0.083-0.802,0.23l-0.813,0.604l4.164,2.91
						c0.803,0.558,6.647-2.524,8.956-4.069c1.967-1.319,8.57-6.295,9.99-7.519c1.426-1.216,2.559-2.724,2.126-3.298
						C59.396,18.585,56.475,18.934,54.895,20.095z M73.771,28.103h-1.033c-0.191,0-0.318,0.079-0.376,0.343
						c-0.005,0.024-0.532,2.462-0.951,3.916h3.69c-0.42-1.454-0.946-3.892-0.952-3.916C74.092,28.182,73.965,28.103,73.771,28.103z"
						/>
				</g>
			</g>
		</g>
	</g>
</g>
</svg>
