<?xml version="1.0" encoding="utf-8"?>
<!-- Generator: Adobe Illustrator 21.0.2, SVG Export Plug-In . SVG Version: 6.00 Build 0)  -->
<svg version="1.1" id="Calque_1" xmlns="http://www.w3.org/2000/svg" xmlns:xlink="http://www.w3.org/1999/xlink" x="0px" y="0px"
	 viewBox="0 0 120 77" style="enable-background:new 0 0 120 77;" xml:space="preserve">
<style type="text/css">
	.st0{fill-rule:evenodd;clip-rule:evenodd;fill:#D2D200;}
</style>
<rect class="st0" width="120" height="77"/>
<g>
	<g>
		<path d="M25.2,59.5c-5.9,0-9.2-1.5-12-3.1l3.2-6.4c1.8,1.2,4.6,2.7,8.2,2.7c4.8,0,7.8-2.8,7.8-6.3c0-4.8-3.6-6.4-7.9-6.4h-4.3
			v-6.9h4.3c4,0,6.6-2.1,6.6-5.3c0-2.6-2-5-6.3-5c-3.8,0-6.3,1.8-7.7,3l-3-6.1c3.5-2.3,7.3-3.7,12.6-3.7c8.4,0,13.3,5,13.3,10.6
			c0,4.3-2.3,7.7-6.7,9.3v0.1c4.6,0.9,8,4.4,8,10.2C41.3,53.4,34.8,59.5,25.2,59.5z"/>
		<path d="M58.4,59.5c-4.8,0-8.5-1.1-11.7-3l3.3-6.5c2.3,1.6,4.6,2.6,7.9,2.6c3.2,0,7.3-1.9,7.3-6.8c0-3-2-7.1-9.6-7.2
			c-2.3,0-5.1-0.1-6.5-0.1L50.8,17h21.8V24H57.7l-0.6,7.9c0.2,0,0.8,0.1,1.2,0.1c11.3,0.5,15.9,6.9,15.9,13.1
			C74.2,52.9,67.9,59.5,58.4,59.5z"/>
		<path d="M90.9,59.5c-5.9,0-9.2-1.5-12-3.1l3.2-6.4c1.8,1.2,4.6,2.7,8.2,2.7c4.8,0,7.8-2.8,7.8-6.3c0-4.8-3.6-6.4-7.9-6.4H86v-6.9
			h4.3c4,0,6.6-2.1,6.6-5.3c0-2.6-2-5-6.3-5c-3.8,0-6.3,1.8-7.7,3l-3-6.1c3.5-2.3,7.3-3.7,12.6-3.7c8.4,0,13.3,5,13.3,10.6
			c0,4.3-2.3,7.7-6.7,9.3v0.1c4.6,0.9,8,4.4,8,10.2C107,53.4,100.5,59.5,90.9,59.5z"/>
	</g>
</g>
</svg>
