<?xml version="1.0" encoding="utf-8"?>
<!-- Generator: Adobe Illustrator 21.0.2, SVG Export Plug-In . SVG Version: 6.00 Build 0)  -->
<svg version="1.1" id="Calque_1" xmlns="http://www.w3.org/2000/svg" xmlns:xlink="http://www.w3.org/1999/xlink" x="0px" y="0px"
	 viewBox="0 0 120 77" style="enable-background:new 0 0 120 77;" xml:space="preserve">
<style type="text/css">
	.st0{fill-rule:evenodd;clip-rule:evenodd;fill:#82DC73;}
</style>
<g>
	<rect class="st0" width="120" height="77"/>
</g>
<g>
	<path d="M34.6,69.8c-8.5,0-13.3-2.1-17.3-4.5l4.7-9.2c2.5,1.8,6.7,3.9,11.8,3.9c6.9,0,11.3-4.1,11.3-9.1c0-6.9-5.2-9.2-11.3-9.2
		h-6.2v-9.9h6.3c5.8,0,9.5-3,9.5-7.6c0-3.8-2.9-7.3-9.1-7.3c-5.5,0-9.1,2.6-11.1,4.3l-4.3-8.8C23.7,8.9,29.2,7,36.8,7
		C49,7,55.9,14.3,55.9,22.2c0,6.2-3.3,11.1-9.7,13.5v0.2c6.6,1.3,11.6,6.3,11.6,14.7C57.9,61.1,48.5,69.8,34.6,69.8z"/>
	<path d="M78.9,69.8c-6.9,0-12.3-1.5-16.8-4.3l4.8-9.3c3.3,2.3,6.7,3.8,11.3,3.8c4.7,0,10.5-2.8,10.5-9.8c0-4.3-2.9-10.2-13.9-10.4
		c-3.4,0-7.4-0.1-9.3-0.1l2.4-31.1h31.4v10H77.8l-0.8,11.3c0.3,0,1.1,0.1,1.7,0.1c16.3,0.8,22.9,10,22.9,19
		C101.6,60.4,92.5,69.8,78.9,69.8z"/>
</g>
</svg>
