<?xml version="1.0" encoding="iso-8859-1"?>
<!-- Generator: Adobe Illustrator 14.0.0, SVG Export Plug-In . SVG Version: 6.00 Build 43363)  -->
<!DOCTYPE svg PUBLIC "-//W3C//DTD SVG 1.1//EN" "http://www.w3.org/Graphics/SVG/1.1/DTD/svg11.dtd">
<svg version="1.1" id="Calque_1" xmlns="http://www.w3.org/2000/svg" xmlns:xlink="http://www.w3.org/1999/xlink" x="0px" y="0px"
	 width="120px" height="77px" viewBox="0 0 120 77" style="enable-background:new 0 0 120 77;" xml:space="preserve">
<rect style="fill-rule:evenodd;clip-rule:evenodd;fill:#0055C8;" width="120" height="77"/>
<g>
	<path style="fill:#FFFFFF;" d="M28.636,60.209c-5.924,0-9.209-1.466-11.966-3.108l3.226-6.394c1.76,1.231,4.634,2.698,8.153,2.698
		c4.81,0,7.801-2.815,7.801-6.335c0-4.751-3.637-6.394-7.86-6.394h-4.282v-6.862h4.34c4.047,0,6.569-2.112,6.569-5.279
		c0-2.64-1.994-5.044-6.334-5.044c-3.813,0-6.334,1.818-7.684,2.991l-2.992-6.1c3.52-2.346,7.332-3.695,12.552-3.695
		c8.446,0,13.256,5.044,13.256,10.558c0,4.282-2.288,7.684-6.687,9.326v0.117c4.575,0.88,8.036,4.399,8.036,10.206
		C44.766,54.168,38.255,60.209,28.636,60.209z"/>
	<path style="fill:#FFFFFF;" d="M63.715,60.209c-11.32,0-15.368-7.859-15.368-18.828c0-14.371,6.745-24.694,20.001-24.694
		c2.347,0,4.458,0.293,6.218,0.704l-1.291,7.039c-1.114-0.469-3.285-0.997-5.689-0.997c-5.807,0-10.03,4.634-10.617,12.962
		c1.408-1.231,4.106-2.815,8.564-2.815c6.862,0,12.376,4.517,12.376,12.259C77.909,54.109,72.396,60.209,63.715,60.209z
		 M62.894,40.091c-2.64,0-4.751,0.997-5.572,2.287c-0.469,0.704-0.469,2.347-0.469,3.578c0,3.93,2.288,7.742,6.511,7.742
		c4.105,0,6.217-3.343,6.217-6.921C69.58,42.906,67,40.091,62.894,40.091z"/>
	<path style="fill:#FFFFFF;" d="M90.077,59.212V26.659c-2.522,1.994-6.511,3.93-9.267,5.162l-2.816-6.335
		c4.341-1.818,9.561-4.575,13.667-7.684h7.214v41.41H90.077z"/>
</g>
</svg>
