<?xml version="1.0" encoding="utf-8"?>
<!-- Generator: Adobe Illustrator 16.0.3, SVG Export Plug-In . SVG Version: 6.00 Build 0)  -->
<!DOCTYPE svg PUBLIC "-//W3C//DTD SVG 1.1//EN" "http://www.w3.org/Graphics/SVG/1.1/DTD/svg11.dtd">
<svg version="1.1" id="Calque_1" xmlns="http://www.w3.org/2000/svg" xmlns:xlink="http://www.w3.org/1999/xlink" x="0px" y="0px"
	 width="120px" height="77px" viewBox="0 0 120 77" enable-background="new 0 0 120 77" xml:space="preserve">
<rect fill-rule="evenodd" clip-rule="evenodd" fill="#FFBE00" width="120" height="77"/>
<g>
	<path d="M26.439,60.209c-5.924,0-9.209-1.466-11.966-3.108l3.226-6.394c1.76,1.231,4.634,2.698,8.153,2.698
		c4.81,0,7.801-2.815,7.801-6.335c0-4.751-3.637-6.394-7.86-6.394h-4.282v-6.862h4.34c4.047,0,6.569-2.112,6.569-5.279
		c0-2.64-1.994-5.044-6.334-5.044c-3.813,0-6.334,1.818-7.684,2.991l-2.992-6.1c3.52-2.346,7.332-3.695,12.552-3.695
		c8.446,0,13.256,5.044,13.256,10.558c0,4.282-2.288,7.684-6.687,9.326v0.117c4.575,0.88,8.036,4.399,8.036,10.206
		C42.569,54.168,36.059,60.209,26.439,60.209z"/>
	<path d="M61.519,60.209c-11.32,0-15.368-7.859-15.368-18.828c0-14.371,6.745-24.694,20.001-24.694c2.346,0,4.457,0.293,6.217,0.704
		l-1.29,7.039c-1.114-0.469-3.284-0.997-5.689-0.997c-5.807,0-10.03,4.634-10.617,12.962c1.408-1.231,4.106-2.815,8.564-2.815
		c6.862,0,12.376,4.517,12.376,12.259C75.713,54.109,70.199,60.209,61.519,60.209z M60.697,40.091c-2.64,0-4.751,0.997-5.572,2.287
		c-0.469,0.704-0.469,2.347-0.469,3.578c0,3.93,2.288,7.742,6.51,7.742c4.106,0,6.218-3.343,6.218-6.921
		C67.384,42.906,64.803,40.091,60.697,40.091z"/>
	<path d="M90.925,59.212h-9.443c0-5.455,1.466-8.975,5.103-15.72l10.089-18.77H76.555v-6.921h28.975v6.745
		C96.438,40.325,90.925,52.701,90.925,59.212z"/>
</g>
</svg>
