<?xml version="1.0" encoding="utf-8"?>
<!-- Generator: Adobe Illustrator 21.0.2, SVG Export Plug-In . SVG Version: 6.00 Build 0)  -->
<svg version="1.1" id="Calque_1" xmlns="http://www.w3.org/2000/svg" xmlns:xlink="http://www.w3.org/1999/xlink" x="0px" y="0px"
	 viewBox="0 0 120 77" style="enable-background:new 0 0 120 77;" xml:space="preserve">
<style type="text/css">
	.st0{fill-rule:evenodd;clip-rule:evenodd;fill:#82DC73;}
</style>
<g>
	<rect class="st0" width="120" height="77"/>
	<g>
		<path d="M24.2,60.2c-5.9,0-9.2-1.5-11.9-3.1l3.2-6.4c1.8,1.2,4.6,2.7,8.1,2.7c4.8,0,7.8-2.8,7.8-6.3c0-4.7-3.6-6.4-7.8-6.4h-4.3
			v-6.8h4.3c4,0,6.6-2.1,6.6-5.3c0-2.6-2-5-6.3-5c-3.8,0-6.3,1.8-7.7,3l-3-6.1c3.5-2.3,7.3-3.7,12.5-3.7c8.4,0,13.2,5,13.2,10.5
			c0,4.3-2.3,7.7-6.7,9.3v0.1c4.6,0.9,8,4.4,8,10.2C40.3,54.2,33.8,60.2,24.2,60.2z"/>
		<path d="M58.3,60.3c-9.2,0-14.4-5.5-14.4-11.8c0-5.5,3.1-9,7.1-11c-3.6-2.2-5.8-5-5.8-9.3c0-6.8,6.2-11.6,13.3-11.6
			c7.3,0,13.3,3.6,13.3,10.6c0,3.9-2,7.1-5.8,9.5c3.8,1.8,7.1,5.3,7.1,10.8C73.1,55.4,66.8,60.3,58.3,60.3z M57.6,40.4
			c-2.7,1.1-5.4,4-5.4,7.2c0,3.4,2.2,6.6,6.2,6.6c3.9,0,6.1-2.8,6.1-6C64.5,44.5,61.1,42.2,57.6,40.4z M58.6,22.7
			c-3.2,0-5.3,2-5.3,4.9c0,3.4,3.4,5.5,6,6.6c2.2-1,4.5-3.7,4.5-6.3C63.9,25,62,22.7,58.6,22.7z"/>
		<path d="M90.9,60.3C78.4,60.3,76,48,76,38.5c0-9.5,2.7-21.8,15.2-21.8c12.5,0,14.9,12.3,14.9,21.8C106.1,48,103.4,60.3,90.9,60.3z
			 M91,23.6c-6,0-6.1,10.6-6.1,14.9c0,4.2,0.3,14.9,6.1,14.9c5.8,0,6.1-10.8,6.1-14.9C97.1,34.2,96.9,23.6,91,23.6z"/>
	</g>
</g>
</svg>
