<?xml version="1.0" encoding="iso-8859-1"?>
<!-- Generator: Adobe Illustrator 14.0.0, SVG Export Plug-In . SVG Version: 6.00 Build 43363)  -->
<!DOCTYPE svg PUBLIC "-//W3C//DTD SVG 1.1//EN" "http://www.w3.org/Graphics/SVG/1.1/DTD/svg11.dtd">
<svg version="1.1" id="Calque_1" xmlns="http://www.w3.org/2000/svg" xmlns:xlink="http://www.w3.org/1999/xlink" x="0px" y="0px"
	 width="120px" height="77px" viewBox="0 0 120 77" style="enable-background:new 0 0 120 77;" xml:space="preserve">
<rect style="fill-rule:evenodd;clip-rule:evenodd;fill:#0055C8;" width="120" height="77"/>
<g>
	<path style="fill:#FFFFFF;" d="M24.398,60.209c-5.924,0-9.209-1.466-11.966-3.108l3.226-6.394c1.76,1.231,4.634,2.698,8.153,2.698
		c4.81,0,7.801-2.815,7.801-6.335c0-4.751-3.637-6.394-7.86-6.394h-4.282v-6.862h4.34c4.047,0,6.569-2.112,6.569-5.279
		c0-2.64-1.994-5.044-6.334-5.044c-3.813,0-6.334,1.818-7.684,2.991l-2.992-6.1c3.52-2.346,7.332-3.695,12.552-3.695
		c8.446,0,13.256,5.044,13.256,10.558c0,4.282-2.288,7.684-6.687,9.326v0.117c4.575,0.88,8.036,4.399,8.036,10.206
		C40.528,54.168,34.018,60.209,24.398,60.209z"/>
	<path style="fill:#FFFFFF;" d="M58.633,60.326c-9.209,0-14.429-5.514-14.429-11.789c0-5.514,3.109-8.975,7.097-11.027
		c-3.578-2.229-5.807-5.044-5.807-9.326c0-6.863,6.217-11.614,13.314-11.614c7.273,0,13.314,3.578,13.314,10.675
		c0,3.871-1.994,7.156-5.865,9.502c3.813,1.818,7.156,5.338,7.156,10.793C73.414,55.399,67.138,60.326,58.633,60.326z
		 M57.929,40.384c-2.698,1.056-5.396,3.988-5.396,7.215c0,3.401,2.229,6.628,6.217,6.628c3.93,0,6.1-2.757,6.1-6.042
		C64.85,44.431,61.448,42.144,57.929,40.384z M58.926,22.553c-3.226,0-5.279,1.994-5.279,4.868c0,3.402,3.402,5.514,6.042,6.628
		c2.171-0.997,4.517-3.695,4.517-6.276C64.205,24.899,62.328,22.553,58.926,22.553z"/>
	<path style="fill:#FFFFFF;" d="M85.81,60.326c-2.347,0-4.458-0.293-6.218-0.704l1.291-7.038c1.114,0.469,3.285,0.997,5.689,0.997
		c5.807,0,10.029-4.634,10.616-12.963c-1.407,1.232-4.105,2.815-8.563,2.815c-6.862,0-12.376-4.517-12.376-12.259
		c0-8.27,5.514-14.37,14.194-14.37c11.32,0,15.367,7.859,15.367,18.828C105.811,50.003,99.065,60.326,85.81,60.326z M90.795,23.315
		c-4.105,0-6.217,3.343-6.217,6.921c0,3.871,2.58,6.687,6.687,6.687c2.64,0,4.751-0.997,5.572-2.287
		c0.47-0.704,0.47-2.346,0.47-3.578C97.307,27.128,95.019,23.315,90.795,23.315z"/>
</g>
</svg>
