<?xml version="1.0" encoding="iso-8859-1"?>
<!-- Generator: Adobe Illustrator 14.0.0, SVG Export Plug-In . SVG Version: 6.00 Build 43363)  -->
<!DOCTYPE svg PUBLIC "-//W3C//DTD SVG 1.1//EN" "http://www.w3.org/Graphics/SVG/1.1/DTD/svg11.dtd">
<svg version="1.1" id="Calque_1" xmlns="http://www.w3.org/2000/svg" xmlns:xlink="http://www.w3.org/1999/xlink" x="0px" y="0px"
	 width="120px" height="77px" viewBox="0 0 120 77" style="enable-background:new 0 0 120 77;" xml:space="preserve">
<g>
	<rect style="fill-rule:evenodd;clip-rule:evenodd;fill:#0055C8;" width="120" height="77"/>
	<g>
		<path style="fill:#FFFFFF;" d="M32.142,69.817c-8.55,0-13.291-2.117-17.27-4.487l4.656-9.228c2.54,1.778,6.688,3.895,11.768,3.895
			c6.941,0,11.259-4.063,11.259-9.143c0-6.857-5.249-9.228-11.344-9.228h-6.18v-9.905h6.265c5.841,0,9.481-3.047,9.481-7.619
			c0-3.81-2.878-7.28-9.143-7.28c-5.502,0-9.143,2.624-11.09,4.317l-4.317-8.804c5.079-3.386,10.582-5.333,18.116-5.333
			c12.19,0,19.132,7.28,19.132,15.238c0,6.18-3.302,11.089-9.651,13.46v0.169c6.603,1.27,11.598,6.35,11.598,14.73
			C55.422,61.098,46.026,69.817,32.142,69.817z"/>
		<path style="fill:#FFFFFF;" d="M81.253,69.986c-13.291,0-20.825-7.958-20.825-17.016c0-7.958,4.486-12.952,10.243-15.915
			c-5.164-3.217-8.381-7.281-8.381-13.46c0-9.905,8.974-16.762,19.217-16.762c10.497,0,19.217,5.164,19.217,15.408
			c0,5.587-2.878,10.328-8.466,13.714c5.503,2.624,10.328,7.703,10.328,15.576C102.586,62.875,93.528,69.986,81.253,69.986z
			 M80.237,41.203c-3.895,1.524-7.788,5.757-7.788,10.413c0,4.91,3.217,9.566,8.973,9.566c5.672,0,8.805-3.979,8.805-8.72
			C90.227,47.045,85.316,43.743,80.237,41.203z M81.676,15.468c-4.655,0-7.619,2.878-7.619,7.026c0,4.91,4.91,7.958,8.721,9.566
			c3.132-1.439,6.518-5.333,6.518-9.058C89.295,18.854,86.586,15.468,81.676,15.468z"/>
	</g>
</g>
</svg>
