<?xml version="1.0" encoding="iso-8859-1"?>
<!-- Generator: Adobe Illustrator 14.0.0, SVG Export Plug-In . SVG Version: 6.00 Build 43363)  -->
<!DOCTYPE svg PUBLIC "-//W3C//DTD SVG 1.1//EN" "http://www.w3.org/Graphics/SVG/1.1/DTD/svg11.dtd">
<svg version="1.1" id="Calque_1" xmlns="http://www.w3.org/2000/svg" xmlns:xlink="http://www.w3.org/1999/xlink" x="0px" y="0px"
	 width="120px" height="77px" viewBox="0 0 120 77" style="enable-background:new 0 0 120 77;" xml:space="preserve">
<g>
	<rect style="fill-rule:evenodd;clip-rule:evenodd;fill:#82C8E6;" width="120" height="77"/>
</g>
<g>
	<path d="M23.949,60.209c-5.924,0-9.209-1.466-11.966-3.108l3.226-6.394c1.76,1.231,4.634,2.698,8.153,2.698
		c4.81,0,7.801-2.815,7.801-6.335c0-4.751-3.637-6.394-7.86-6.394h-4.282v-6.862h4.34c4.047,0,6.569-2.112,6.569-5.279
		c0-2.64-1.994-5.044-6.334-5.044c-3.813,0-6.334,1.818-7.684,2.991l-2.992-6.1c3.52-2.346,7.332-3.695,12.552-3.695
		c8.446,0,13.256,5.044,13.256,10.558c0,4.282-2.288,7.684-6.687,9.326v0.117c4.575,0.88,8.036,4.399,8.036,10.206
		C40.079,54.168,33.568,60.209,23.949,60.209z"/>
	<path d="M52.277,60.326c-2.346,0-4.458-0.293-6.217-0.704l1.291-7.038c1.114,0.469,3.285,0.997,5.689,0.997
		c5.807,0,10.03-4.634,10.617-12.963c-1.408,1.232-4.106,2.815-8.564,2.815c-6.862,0-12.376-4.517-12.376-12.259
		c0-8.27,5.514-14.37,14.194-14.37c11.32,0,15.368,7.859,15.368,18.828C72.278,50.003,65.533,60.326,52.277,60.326z M57.263,23.315
		c-4.106,0-6.217,3.343-6.217,6.921c0,3.871,2.581,6.687,6.687,6.687c2.639,0,4.75-0.997,5.573-2.287
		c0.469-0.704,0.469-2.346,0.469-3.578C63.773,27.128,61.486,23.315,57.263,23.315z"/>
	<path d="M91.068,60.326c-12.494,0-14.957-12.317-14.957-21.878c0-9.561,2.698-21.878,15.191-21.878
		c12.494,0,14.957,12.317,14.957,21.878C106.26,48.009,103.562,60.326,91.068,60.326z M91.186,23.55
		c-5.982,0-6.158,10.675-6.158,14.898c0,4.164,0.293,14.957,6.158,14.957s6.1-10.852,6.1-14.957
		C97.285,34.107,97.109,23.55,91.186,23.55z"/>
</g>
</svg>
