<?xml version="1.0" encoding="iso-8859-1"?>
<!-- Generator: Adobe Illustrator 14.0.0, SVG Export Plug-In . SVG Version: 6.00 Build 43363)  -->
<!DOCTYPE svg PUBLIC "-//W3C//DTD SVG 1.1//EN" "http://www.w3.org/Graphics/SVG/1.1/DTD/svg11.dtd">
<svg version="1.1" id="Calque_1" xmlns="http://www.w3.org/2000/svg" xmlns:xlink="http://www.w3.org/1999/xlink" x="0px" y="0px"
	 width="120px" height="77px" viewBox="0 0 120 77" style="enable-background:new 0 0 120 77;" xml:space="preserve">
<g>
	<rect style="fill-rule:evenodd;clip-rule:evenodd;fill:#82C8E6;" width="120" height="77"/>
</g>
<g>
	<path d="M24.377,60.209c-5.924,0-9.209-1.466-11.966-3.108l3.226-6.394c1.76,1.231,4.634,2.698,8.153,2.698
		c4.81,0,7.801-2.815,7.801-6.335c0-4.751-3.637-6.394-7.86-6.394H19.45v-6.862h4.341c4.047,0,6.569-2.112,6.569-5.279
		c0-2.64-1.995-5.044-6.335-5.044c-3.813,0-6.335,1.818-7.684,2.991l-2.992-6.1c3.52-2.346,7.332-3.695,12.552-3.695
		c8.446,0,13.256,5.044,13.256,10.558c0,4.282-2.288,7.684-6.687,9.326v0.117c4.575,0.88,8.036,4.399,8.036,10.206
		C40.507,54.168,33.997,60.209,24.377,60.209z"/>
	<path d="M52.705,60.326c-2.346,0-4.458-0.293-6.217-0.704l1.291-7.038c1.114,0.469,3.285,0.997,5.689,0.997
		c5.807,0,10.03-4.634,10.616-12.963c-1.407,1.232-4.105,2.815-8.563,2.815c-6.862,0-12.376-4.517-12.376-12.259
		c0-8.27,5.514-14.37,14.194-14.37c11.32,0,15.368,7.859,15.368,18.828C72.707,50.003,65.961,60.326,52.705,60.326z M57.691,23.315
		c-4.106,0-6.217,3.343-6.217,6.921c0,3.871,2.581,6.687,6.687,6.687c2.64,0,4.751-0.997,5.572-2.287
		c0.469-0.704,0.469-2.346,0.469-3.578C64.201,27.128,61.914,23.315,57.691,23.315z"/>
	<path d="M85.83,60.326c-2.346,0-4.457-0.293-6.217-0.704l1.291-7.038c1.113,0.469,3.284,0.997,5.689,0.997
		c5.807,0,10.029-4.634,10.616-12.963c-1.408,1.232-4.106,2.815-8.563,2.815c-6.863,0-12.377-4.517-12.377-12.259
		c0-8.27,5.514-14.37,14.195-14.37c11.32,0,15.367,7.859,15.367,18.828C105.832,50.003,99.087,60.326,85.83,60.326z M90.816,23.315
		c-4.105,0-6.217,3.343-6.217,6.921c0,3.871,2.58,6.687,6.686,6.687c2.64,0,4.752-0.997,5.572-2.287
		c0.47-0.704,0.47-2.346,0.47-3.578C97.327,27.128,95.039,23.315,90.816,23.315z"/>
</g>
</svg>
