<svg xmlns="http://www.w3.org/2000/svg" viewBox="0 0 120 77"><title>40genRVB</title><rect width="120" height="77" fill="#82c8e6"/><path d="M50.86287,56.05987V68.50481H39.01056V56.05987H12.089V44.96968L35.28551,8.73558H50.86287V46.74735h7.02676v9.31252ZM39.01056,19.23335h-.16929a43.03784,43.03784,0,0,1-4.31767,8.3811L22.3327,46.74735H39.01056Z" fill="#1d1d1b"/><path d="M85.40323,70.11339c-18.0322,0-21.588-17.77836-21.588-31.57784S67.70961,6.9577,85.74222,6.9577c18.0322,0,21.588,17.77836,21.588,31.57784S103.43584,70.11339,85.40323,70.11339Zm.1695-53.08126c-8.63535,0-8.88918,15.40786-8.88918,21.50341,0,6.0108.42333,21.58816,8.88918,21.58816s8.80443-15.66211,8.80443-21.58816C94.37716,32.27071,94.12332,17.03214,85.57273,17.03214Z" fill="#1d1d1b"/></svg>