<?xml version="1.0" encoding="iso-8859-1"?>
<!-- Generator: Adobe Illustrator 14.0.0, SVG Export Plug-In . SVG Version: 6.00 Build 43363)  -->
<!DOCTYPE svg PUBLIC "-//W3C//DTD SVG 1.1//EN" "http://www.w3.org/Graphics/SVG/1.1/DTD/svg11.dtd">
<svg version="1.1" id="Calque_1" xmlns="http://www.w3.org/2000/svg" xmlns:xlink="http://www.w3.org/1999/xlink" x="0px" y="0px"
	 width="120px" height="77px" viewBox="0 0 120 77" style="enable-background:new 0 0 120 77;" xml:space="preserve">
<g>
	<rect style="fill-rule:evenodd;clip-rule:evenodd;fill:#00643C;" width="120" height="77"/>
</g>
<g>
	<path style="fill:#FFFFFF;" d="M42.728,50.59v8.622h-8.212V50.59H15.864v-7.684l16.071-25.104h10.792v26.336h4.868v6.452H42.728z
		 M34.516,25.075h-0.117c-0.176,0.704-1.349,3.226-2.991,5.807l-8.446,13.256h11.555V25.075z"/>
	<path style="fill:#FFFFFF;" d="M50.701,59.212v-5.455c1.056-4.81,5.807-9.209,11.32-14.019c2.757-2.404,5.748-5.396,5.748-9.385
		c0-3.578-2.346-6.569-6.863-6.569c-3.636,0-6.159,2.64-7.156,3.754l-4.34-5.748c3.988-3.46,7.684-5.103,13.255-5.103
		c7.273,0,14.137,4.223,14.137,12.669c0,7.098-4.517,10.44-9.502,14.957c-2.112,1.936-6.276,5.572-6.805,7.978h17.068v6.921H50.701z
		"/>
	<path style="fill:#FFFFFF;" d="M91.587,59.212V26.659c-2.522,1.994-6.511,3.93-9.267,5.162l-2.816-6.335
		c4.341-1.818,9.561-4.575,13.667-7.684h7.214v41.41H91.587z"/>
</g>
</svg>
