<?xml version="1.0" encoding="utf-8"?>
<!-- Generator: Adobe Illustrator 21.0.2, SVG Export Plug-In . SVG Version: 6.00 Build 0)  -->
<svg version="1.1" id="Calque_1" xmlns="http://www.w3.org/2000/svg" xmlns:xlink="http://www.w3.org/1999/xlink" x="0px" y="0px"
	 viewBox="0 0 120 77" style="enable-background:new 0 0 120 77;" xml:space="preserve">
<style type="text/css">
	.st0{fill-rule:evenodd;clip-rule:evenodd;fill:#6E491E;}
	.st1{fill:#FFFFFF;}
</style>
<g>
	<rect class="st0" width="120" height="77"/>
</g>
<g>
	<path class="st1" d="M18.3,8.7V22h-3.6V8.7h-5V5.7h13.6v2.9H18.3z"/>
	<path class="st1" d="M29.4,12.9c-0.2-0.1-0.7-0.3-1.1-0.3c-0.7,0-1.1,0.2-1.4,0.5c-0.4,0.4-0.5,0.9-0.5,1.6V22h-3.2v-9.2
		c0-1.1-0.1-2.5-0.1-3.1H26v1.8c0.7-1.2,1.5-2.1,3.1-2.1c0.5,0,0.9,0.1,1.2,0.2L29.4,12.9z"/>
	<path class="st1" d="M40.3,22.3c-1.2,0-1.7-0.7-1.9-1.7c-1,1.2-2,1.8-3.6,1.8c-2.2,0-3.6-1.6-3.6-3.7c0-3.3,3.5-4,6.2-4
		c0.5,0,0.8,0,0.8-0.4v-0.8c0-0.9-0.6-1.7-2.3-1.7c-1.4,0-2.5,0.7-3,1.1l-1.1-2.3c1.4-0.9,2.9-1.3,5-1.3c1.7,0,4.5,0.6,4.5,4.2v5.7
		c0,0.4,0,0.8,0.4,0.8c0.1,0,0.4-0.1,0.5-0.1l0.2,2.1C41.9,22.1,41,22.3,40.3,22.3z M38.1,16.7c-0.3,0-0.7,0-1,0
		c-1.1,0-2.8,0.3-2.8,1.8c0,0.9,0.6,1.5,1.5,1.5c0.7,0,1.3-0.2,1.7-0.7c0.4-0.4,0.5-0.9,0.5-1.5V16.7z"/>
	<path class="st1" d="M49.8,22h-3.3l-4-12.3h3.6l1.6,6.6c0.3,1,0.5,2.4,0.6,2.9h0c0.1-0.5,0.4-2,0.7-3l1.7-6.5h3L49.8,22z"/>
	<path class="st1" d="M65.1,16.4h-7.6c0,0,0,0,0,0.1c0,2.2,1.6,3.4,3.7,3.4c1.1,0,2.3-0.5,2.9-0.8l0.9,2.4c-0.9,0.4-2.6,1-4.4,1
		c-3.9,0-6.3-2.6-6.3-6.5c0-3.3,1.8-6.6,5.7-6.6c3.8,0,5.2,2.9,5.2,5.8C65.2,15.5,65.2,16,65.1,16.4z M59.9,11.6
		c-1.8,0-2.4,1.6-2.4,2.7h4.7C62.3,13,61.5,11.6,59.9,11.6z"/>
	<path class="st1" d="M73.8,12.9c-0.2-0.1-0.7-0.3-1.1-0.3c-0.7,0-1.1,0.2-1.4,0.5c-0.4,0.4-0.5,0.9-0.5,1.6V22h-3.2v-9.2
		c0-1.1-0.1-2.5-0.1-3.1h2.9v1.8c0.7-1.2,1.5-2.1,3.1-2.1c0.5,0,0.9,0.1,1.2,0.2L73.8,12.9z"/>
	<path class="st1" d="M81.3,22.4c-3.8,0-6-2.8-6-6.4c0-3.4,1.8-6.7,6-6.7c1.7,0,3,0.4,3.8,0.9l-1.2,2.7c-0.4-0.3-1.3-0.8-2.4-0.8
		c-1.9,0-2.8,1.7-2.8,3.9c0,2.4,1.5,3.8,3,3.8c0.9,0,1.9-0.4,2.4-0.7l0.9,2.4C84.3,21.9,82.8,22.4,81.3,22.4z"/>
	<path class="st1" d="M88.7,8.1c-1.1,0-1.8-0.7-1.8-1.7c0-1,0.7-1.7,1.8-1.7c1.1,0,1.8,0.7,1.8,1.7C90.5,7.4,89.8,8.1,88.7,8.1z
		 M87,22V9.7h3.2V22H87z"/>
	<path class="st1" d="M103.3,16.4h-7.6c0,0,0,0,0,0.1c0,2.2,1.6,3.4,3.7,3.4c1.1,0,2.3-0.5,2.9-0.8l0.9,2.4c-0.9,0.4-2.6,1-4.4,1
		c-3.9,0-6.3-2.6-6.3-6.5c0-3.3,1.8-6.6,5.7-6.6c3.8,0,5.2,2.9,5.2,5.8C103.4,15.5,103.4,16,103.3,16.4z M98,11.6
		c-1.8,0-2.4,1.6-2.4,2.7h4.7C100.5,13,99.7,11.6,98,11.6z"/>
	<path class="st1" d="M105.8,22V5h3.2V22H105.8z"/>
	<path class="st1" d="M30.3,71.4v-5.6c1.1-4.9,6-9.4,11.6-14.4c2.8-2.5,5.9-5.5,5.9-9.6c0-3.7-2.4-6.7-7-6.7c-3.7,0-6.3,2.7-7.3,3.8
		L28.9,33c4.1-3.5,7.9-5.2,13.6-5.2c7.5,0,14.5,4.3,14.5,13c0,7.3-4.6,10.7-9.7,15.3c-2.2,2-6.4,5.7-7,8.2h17.5v7.1H30.3z"/>
	<path class="st1" d="M77.1,72.4c-11.6,0-15.7-8.1-15.7-19.3c0-14.7,6.9-25.3,20.5-25.3c2.4,0,4.6,0.3,6.4,0.7l-1.3,7.2
		c-1.1-0.5-3.4-1-5.8-1c-6,0-10.3,4.7-10.9,13.3c1.4-1.3,4.2-2.9,8.8-2.9c7,0,12.7,4.6,12.7,12.6C91.6,66.1,86,72.4,77.1,72.4z
		 M76.2,51.8c-2.7,0-4.9,1-5.7,2.3C70,54.8,70,56.5,70,57.8c0,4,2.3,7.9,6.7,7.9c4.2,0,6.4-3.4,6.4-7.1
		C83.1,54.7,80.4,51.8,76.2,51.8z"/>
</g>
</svg>
