<?xml version="1.0" encoding="iso-8859-1"?>
<!-- Generator: Adobe Illustrator 14.0.0, SVG Export Plug-In . SVG Version: 6.00 Build 43363)  -->
<!DOCTYPE svg PUBLIC "-//W3C//DTD SVG 1.1//EN" "http://www.w3.org/Graphics/SVG/1.1/DTD/svg11.dtd">
<svg version="1.1" id="Calque_1" xmlns="http://www.w3.org/2000/svg" xmlns:xlink="http://www.w3.org/1999/xlink" x="0px" y="0px"
	 width="120px" height="77px" viewBox="0 0 120 77" style="enable-background:new 0 0 120 77;" xml:space="preserve">
<g>
	<rect style="fill-rule:evenodd;clip-rule:evenodd;fill:#0055C8;" width="120" height="77"/>
</g>
<g>
	<path style="fill:#FFFFFF;" d="M18.285,8.679v13.367h-3.602V8.679h-5.01V5.747h13.621v2.932H18.285z"/>
	<path style="fill:#FFFFFF;" d="M29.376,12.881c-0.23-0.116-0.692-0.323-1.131-0.323c-0.693,0-1.063,0.207-1.362,0.484
		c-0.438,0.393-0.462,0.9-0.462,1.57v7.434h-3.232v-9.212c0-1.062-0.092-2.539-0.115-3.116h2.909v1.847
		c0.738-1.177,1.547-2.147,3.07-2.147c0.462,0,0.924,0.139,1.178,0.231L29.376,12.881z"/>
	<path style="fill:#FFFFFF;" d="M40.288,22.276c-1.154,0-1.731-0.715-1.916-1.685c-1.017,1.2-1.963,1.801-3.648,1.801
		c-2.17,0-3.647-1.57-3.647-3.671c0-3.348,3.51-3.994,6.233-3.994c0.508,0,0.809-0.023,0.809-0.438V13.48
		c0-0.877-0.555-1.708-2.263-1.708c-1.432,0-2.517,0.67-3.048,1.131l-1.131-2.309c1.362-0.877,2.862-1.27,4.986-1.27
		c1.731,0,4.525,0.624,4.525,4.179v5.68c0,0.438,0.046,0.808,0.438,0.808c0.139,0,0.393-0.069,0.531-0.115l0.185,2.101
		C41.857,22.092,41.05,22.276,40.288,22.276z M38.095,16.736c-0.347-0.023-0.692-0.023-0.97-0.023c-1.131,0-2.84,0.277-2.84,1.755
		c0,0.9,0.646,1.547,1.547,1.547c0.716,0,1.316-0.231,1.731-0.67c0.369-0.393,0.531-0.854,0.531-1.454V16.736z"/>
	<path style="fill:#FFFFFF;" d="M49.813,22.046h-3.347L42.495,9.718h3.579l1.593,6.557c0.254,1.039,0.531,2.447,0.646,2.932h0.046
		c0.093-0.531,0.416-1.985,0.67-2.955l1.708-6.533h3.048L49.813,22.046z"/>
	<path style="fill:#FFFFFF;" d="M65.139,16.436h-7.642c0,0.023,0,0.047,0,0.069c0,2.193,1.593,3.371,3.671,3.371
		c1.107,0,2.285-0.462,2.932-0.809l0.854,2.401c-0.947,0.438-2.586,0.97-4.387,0.97c-3.855,0-6.279-2.632-6.279-6.464
		c0-3.256,1.754-6.649,5.702-6.649c3.81,0,5.218,2.932,5.218,5.771C65.208,15.489,65.185,16.021,65.139,16.436z M59.852,11.588
		c-1.847,0-2.424,1.569-2.424,2.654h4.732C62.275,12.95,61.491,11.588,59.852,11.588z"/>
	<path style="fill:#FFFFFF;" d="M73.821,12.881c-0.23-0.116-0.692-0.323-1.131-0.323c-0.693,0-1.063,0.207-1.362,0.484
		c-0.438,0.393-0.462,0.9-0.462,1.57v7.434h-3.232v-9.212c0-1.062-0.092-2.539-0.115-3.116h2.909v1.847
		c0.738-1.177,1.547-2.147,3.07-2.147c0.462,0,0.924,0.139,1.178,0.231L73.821,12.881z"/>
	<path style="fill:#FFFFFF;" d="M81.252,22.438c-3.786,0-5.956-2.794-5.956-6.396c0-3.37,1.777-6.718,5.956-6.718
		c1.662,0,2.955,0.438,3.763,0.877l-1.154,2.701c-0.415-0.276-1.339-0.831-2.4-0.831c-1.87,0-2.794,1.731-2.794,3.902
		c0,2.378,1.524,3.786,2.979,3.786c0.924,0,1.87-0.393,2.424-0.739l0.924,2.401C84.346,21.907,82.753,22.438,81.252,22.438z"/>
	<path style="fill:#FFFFFF;" d="M88.657,8.148c-1.108,0-1.824-0.716-1.824-1.708s0.716-1.708,1.824-1.708
		c1.107,0,1.801,0.716,1.801,1.708S89.765,8.148,88.657,8.148z M87.018,22.046V9.718h3.232v12.328H87.018z"/>
	<path style="fill:#FFFFFF;" d="M103.332,16.436H95.69c0,0.023,0,0.047,0,0.069c0,2.193,1.593,3.371,3.671,3.371
		c1.107,0,2.285-0.462,2.932-0.809l0.854,2.401c-0.947,0.438-2.586,0.97-4.387,0.97c-3.855,0-6.279-2.632-6.279-6.464
		c0-3.256,1.754-6.649,5.702-6.649c3.81,0,5.218,2.932,5.218,5.771C103.401,15.489,103.378,16.021,103.332,16.436z M98.045,11.588
		c-1.847,0-2.424,1.569-2.424,2.654h4.732C100.469,12.95,99.685,11.588,98.045,11.588z"/>
	<path style="fill:#FFFFFF;" d="M105.811,22.046V4.962h3.232v17.084H105.811z"/>
	<path style="fill:#FFFFFF;" d="M30.063,71.378v-5.59c1.082-4.929,5.95-9.437,11.6-14.365c2.825-2.464,5.891-5.529,5.891-9.616
		c0-3.666-2.404-6.731-7.032-6.731c-3.727,0-6.311,2.704-7.333,3.847l-4.447-5.891c4.087-3.546,7.873-5.229,13.583-5.229
		c7.453,0,14.485,4.327,14.485,12.982c0,7.272-4.628,10.698-9.736,15.326c-2.164,1.983-6.432,5.71-6.973,8.174h17.49v7.093H30.063z"
		/>
	<path style="fill:#FFFFFF;" d="M76.119,72.52c-9.436,0-14.785-5.649-14.785-12.081c0-5.649,3.186-9.195,7.272-11.299
		c-3.666-2.284-5.95-5.169-5.95-9.557c0-7.032,6.371-11.901,13.644-11.901c7.453,0,13.644,3.667,13.644,10.939
		c0,3.967-2.043,7.333-6.01,9.737c3.906,1.863,7.332,5.469,7.332,11.059C91.266,67.471,84.835,72.52,76.119,72.52z M75.398,52.084
		c-2.765,1.082-5.529,4.088-5.529,7.394c0,3.485,2.283,6.792,6.371,6.792c4.026,0,6.25-2.825,6.25-6.191
		C82.49,56.231,79.005,53.888,75.398,52.084z M76.42,33.813c-3.306,0-5.409,2.044-5.409,4.989c0,3.485,3.486,5.649,6.19,6.791
		c2.225-1.021,4.628-3.786,4.628-6.431C81.829,36.217,79.906,33.813,76.42,33.813z"/>
</g>
</svg>
