<svg xmlns="http://www.w3.org/2000/svg" viewBox="0 0 120 77"><title>42genRVB</title><rect width="120" height="77" fill="#ffbe00"/><path d="M54.2246,55.9336V68.37793H42.373V55.9336H15.4521V44.8437L38.6479,8.6108H54.2246V46.6211H61.251v9.3125ZM42.373,19.1084h-.1694a43.05893,43.05893,0,0,1-4.3174,8.3809L25.6958,46.6211H42.373Z"/><path d="M65.4336,68.37793v-7.873c1.5244-6.9414,8.3809-13.291,16.3389-20.2324,3.9795-3.4707,8.2959-7.7891,8.2959-13.545,0-5.164-3.3858-9.4814-9.9043-9.4814-5.2481,0-8.8887,3.8091-10.3282,5.418l-6.2636-8.2964C69.3281,9.373,74.6621,7.0024,82.7031,7.0024c10.4981,0,20.4024,6.0953,20.4024,18.2857,0,10.2431-6.5176,15.0683-13.7139,21.5869-3.0478,2.7939-9.0576,8.043-9.8203,11.5137H104.207v9.98923Z"/></svg>