<?xml version="1.0" encoding="iso-8859-1"?>
<!-- Generator: Adobe Illustrator 14.0.0, SVG Export Plug-In . SVG Version: 6.00 Build 43363)  -->
<!DOCTYPE svg PUBLIC "-//W3C//DTD SVG 1.1//EN" "http://www.w3.org/Graphics/SVG/1.1/DTD/svg11.dtd">
<svg version="1.1" id="Calque_1" xmlns="http://www.w3.org/2000/svg" xmlns:xlink="http://www.w3.org/1999/xlink" x="0px" y="0px"
	 width="120px" height="77px" viewBox="0 0 120 77" style="enable-background:new 0 0 120 77;" xml:space="preserve">
<g>
	<rect style="fill-rule:evenodd;clip-rule:evenodd;fill:#FF1400;" width="120" height="77"/>
	<g>
		<path style="fill:#FFFFFF;" d="M54.327,55.934v12.444H42.475V55.934h-26.92v-11.09L38.75,8.611h15.577v38.01h7.027v9.313H54.327z
			 M42.475,19.108h-0.169c-0.254,1.016-1.947,4.656-4.317,8.381l-12.19,19.132h16.677V19.108z"/>
		<path style="fill:#FFFFFF;" d="M80.148,69.817c-8.551,0-13.291-2.117-17.27-4.487l4.655-9.228
			c2.54,1.778,6.688,3.895,11.768,3.895c6.941,0,11.259-4.063,11.259-9.143c0-6.857-5.248-9.228-11.344-9.228h-6.18v-9.905h6.265
			c5.841,0,9.481-3.047,9.481-7.619c0-3.81-2.879-7.28-9.143-7.28c-5.503,0-9.144,2.624-11.09,4.317l-4.318-8.804
			c5.08-3.386,10.582-5.333,18.117-5.333c12.189,0,19.132,7.28,19.132,15.238c0,6.18-3.302,11.089-9.651,13.46v0.169
			c6.604,1.27,11.598,6.35,11.598,14.73C103.428,61.098,94.031,69.817,80.148,69.817z"/>
	</g>
</g>
</svg>
