<?xml version="1.0" encoding="iso-8859-1"?>
<!-- Generator: Adobe Illustrator 14.0.0, SVG Export Plug-In . SVG Version: 6.00 Build 43363)  -->
<!DOCTYPE svg PUBLIC "-//W3C//DTD SVG 1.1//EN" "http://www.w3.org/Graphics/SVG/1.1/DTD/svg11.dtd">
<svg version="1.1" id="Calque_1" xmlns="http://www.w3.org/2000/svg" xmlns:xlink="http://www.w3.org/1999/xlink" x="0px" y="0px"
	 width="120px" height="77px" viewBox="0 0 120 77" style="enable-background:new 0 0 120 77;" xml:space="preserve">
<rect style="fill-rule:evenodd;clip-rule:evenodd;fill:#6E6E00;" width="120" height="77"/>
<g>
	<path style="fill:#FFFFFF;" d="M39.895,50.59v8.622h-8.211V50.59H13.031v-7.684l16.071-25.104h10.792v26.336h4.868v6.452H39.895z
		 M31.684,25.075h-0.118c-0.176,0.704-1.349,3.226-2.991,5.807l-8.446,13.256h11.555V25.075z"/>
	<path style="fill:#FFFFFF;" d="M63.664,60.209c-11.32,0-15.367-7.859-15.367-18.828c0-14.371,6.745-24.694,20.002-24.694
		c2.346,0,4.457,0.293,6.217,0.704l-1.291,7.039c-1.113-0.469-3.284-0.997-5.689-0.997c-5.807,0-10.029,4.634-10.616,12.962
		c1.408-1.231,4.106-2.815,8.563-2.815c6.863,0,12.377,4.517,12.377,12.259C77.859,54.109,72.346,60.209,63.664,60.209z
		 M62.844,40.091c-2.64,0-4.751,0.997-5.573,2.287c-0.469,0.704-0.469,2.347-0.469,3.578c0,3.93,2.288,7.742,6.511,7.742
		c4.105,0,6.217-3.343,6.217-6.921C69.529,42.906,66.949,40.091,62.844,40.091z"/>
	<path style="fill:#FFFFFF;" d="M93.07,59.212h-9.443c0-5.455,1.467-8.975,5.104-15.72l10.089-18.77H78.701v-6.921h28.975v6.745
		C98.584,40.325,93.07,52.701,93.07,59.212z"/>
</g>
</svg>
