<?xml version="1.0" encoding="iso-8859-1"?>
<!-- Generator: Adobe Illustrator 14.0.0, SVG Export Plug-In . SVG Version: 6.00 Build 43363)  -->
<!DOCTYPE svg PUBLIC "-//W3C//DTD SVG 1.1//EN" "http://www.w3.org/Graphics/SVG/1.1/DTD/svg11.dtd">
<svg version="1.1" id="Calque_1" xmlns="http://www.w3.org/2000/svg" xmlns:xlink="http://www.w3.org/1999/xlink" x="0px" y="0px"
	 width="120px" height="77px" viewBox="0 0 120 77" style="enable-background:new 0 0 120 77;" xml:space="preserve">
<g>
	<rect style="fill-rule:evenodd;clip-rule:evenodd;fill:#D2D200;" width="120" height="77"/>
	<g>
		<path d="M51.753,55.934v12.444H39.901V55.934H12.98v-11.09L36.176,8.611h15.577v38.01h7.026v9.313H51.753z M39.901,19.108h-0.169
			c-0.254,1.016-1.947,4.656-4.317,8.381l-12.19,19.132h16.677V19.108z"/>
		<path d="M85.769,69.817c-16.339,0-22.18-11.344-22.18-27.175c0-20.741,9.735-35.64,28.868-35.64c3.386,0,6.434,0.423,8.973,1.016
			l-1.862,10.159c-1.608-0.677-4.741-1.439-8.212-1.439c-8.381,0-14.476,6.688-15.322,18.709c2.031-1.778,5.926-4.063,12.359-4.063
			c9.905,0,17.863,6.518,17.863,17.692C106.256,61.013,98.298,69.817,85.769,69.817z M84.584,40.78
			c-3.811,0-6.857,1.439-8.043,3.302c-0.678,1.016-0.678,3.386-0.678,5.164c0,5.672,3.303,11.174,9.397,11.174
			c5.926,0,8.974-4.825,8.974-9.989C94.234,44.844,90.51,40.78,84.584,40.78z"/>
	</g>
</g>
</svg>
