<?xml version="1.0" encoding="iso-8859-1"?>
<!-- Generator: Adobe Illustrator 14.0.0, SVG Export Plug-In . SVG Version: 6.00 Build 43363)  -->
<!DOCTYPE svg PUBLIC "-//W3C//DTD SVG 1.1//EN" "http://www.w3.org/Graphics/SVG/1.1/DTD/svg11.dtd">
<svg version="1.1" id="Calque_1" xmlns="http://www.w3.org/2000/svg" xmlns:xlink="http://www.w3.org/1999/xlink" x="0px" y="0px"
	 width="120px" height="77px" viewBox="0 0 120 77" style="enable-background:new 0 0 120 77;" xml:space="preserve">
<g>
	<rect style="fill-rule:evenodd;clip-rule:evenodd;fill:#DC9600;" width="120" height="77"/>
</g>
<g>
	<path d="M28.363,22.438c-1.939,0-3.51-0.554-4.571-1.085l0.993-2.816c0.9,0.554,2.4,1.062,3.763,1.062
		c1.523,0,2.678-0.601,2.678-1.962c0-1.201-1.154-1.709-2.101-2.102l-1.2-0.508c-2.171-0.923-3.879-2.101-3.879-4.779
		c0-2.816,2.309-4.94,5.887-4.94c1.455,0,3.117,0.254,4.456,0.923l-1.062,2.748c-0.947-0.554-2.124-0.9-3.395-0.9
		c-1.893,0-2.378,1.085-2.378,1.801c0,1.131,1.132,1.616,2.055,2.032l1.201,0.531c2.101,0.923,3.947,2.077,3.947,4.687
		C34.758,21.007,31.711,22.438,28.363,22.438z"/>
	<path d="M44.358,26.663v-6.21c-0.809,1.177-1.64,1.985-3.21,1.985c-3.463,0-4.709-3.764-4.709-6.649s1.454-6.464,5.402-6.464
		c0.877,0,1.962,0.346,2.608,0.993v-0.6h3.14v16.945H44.358z M44.358,13.296c0-0.923-0.509-1.616-2.078-1.616
		c-1.985,0-2.493,1.939-2.493,3.694c0,1.662,0.393,4.294,2.539,4.294c0.646,0,1.154-0.3,1.478-0.601
		c0.508-0.508,0.555-0.97,0.555-1.615V13.296z"/>
	<path d="M56.397,22.738c-0.762,2.378-2.17,4.018-5.494,4.271l-0.301-2.493c1.063,0.022,2.493-0.37,2.84-1.755L49.24,9.718h3.556
		l1.708,6.995c0.277,1.108,0.509,2.309,0.555,2.678h0.046c0.139-0.646,0.323-1.593,0.601-2.678l1.777-6.995h3.048L56.397,22.738z"/>
	<path d="M67.952,22.438c-0.923,0-2.008-0.369-2.632-0.946v0.554h-3.14V4.962h3.255v6.372c0.832-1.201,1.778-2.009,3.348-2.009
		c3.232,0,4.571,3.439,4.571,6.418C73.354,18.514,71.9,22.438,67.952,22.438z M67.537,12.142c-0.646,0-1.154,0.277-1.501,0.623
		c-0.554,0.531-0.623,0.878-0.623,1.594v4.179c0,0.854,0.508,1.615,1.985,1.615c2.078,0,2.586-2.239,2.586-3.924
		C69.984,14.565,69.592,12.142,67.537,12.142z"/>
	<path d="M82.683,22.046v-1.523c-0.831,1.177-1.87,1.916-3.417,1.916c-2.655,0-3.763-1.847-3.763-4.248V9.718h3.231v7.803
		c0,1.247,0.485,2.124,1.709,2.124c0.6,0,1.107-0.254,1.408-0.577c0.554-0.6,0.6-0.923,0.6-1.754V9.718h3.232v12.328H82.683z"/>
	<path d="M91.441,22.438c-1.547,0-2.933-0.531-3.625-0.946l0.993-2.378c0.784,0.554,1.916,0.923,2.886,0.923
		c0.854,0,1.893-0.3,1.893-1.27c0-0.808-0.669-1.062-1.823-1.501l-1.017-0.393c-1.593-0.623-2.654-1.569-2.654-3.37
		c0-2.332,1.962-4.179,4.848-4.179c1.547,0,2.679,0.485,3.325,0.808l-0.993,2.377c-0.716-0.461-1.708-0.738-2.493-0.738
		c-1.316,0-1.709,0.67-1.709,1.224c0,0.646,0.601,1.016,1.455,1.315l1.085,0.393c1.755,0.646,3.001,1.593,3.001,3.648
		C96.612,20.753,94.673,22.438,91.441,22.438z"/>
	<path d="M40.265,62.543v8.835h-8.414v-8.835H12.737v-7.874l16.469-25.725h11.059v26.986h4.989v6.612H40.265z M31.851,36.397h-0.12
		c-0.181,0.721-1.383,3.306-3.065,5.95L20.01,55.931h11.841V36.397z"/>
	<path d="M60.153,71.378h-9.677c0-5.59,1.502-9.196,5.229-16.108l10.338-19.233H45.428v-7.092h29.691v6.912
		C65.803,52.024,60.153,64.706,60.153,71.378z"/>
	<path d="M88.935,72.399c-4.929,0-8.715-1.082-11.96-3.065l3.426-6.611c2.344,1.623,4.748,2.705,8.054,2.705
		s7.453-1.983,7.453-6.973c0-3.064-2.044-7.272-9.857-7.393c-2.404,0-5.229-0.06-6.611-0.06l1.683-22.059h22.299v7.092H88.153
		l-0.601,8.055c0.24,0,0.781,0.06,1.202,0.06c11.6,0.541,16.288,7.093,16.288,13.464C105.043,65.729,98.611,72.399,88.935,72.399z"
		/>
</g>
</svg>
