<?xml version="1.0" encoding="utf-8"?>
<!-- Generator: Adobe Illustrator 16.0.3, SVG Export Plug-In . SVG Version: 6.00 Build 0)  -->
<!DOCTYPE svg PUBLIC "-//W3C//DTD SVG 1.1//EN" "http://www.w3.org/Graphics/SVG/1.1/DTD/svg11.dtd">
<svg version="1.1" id="Calque_1" xmlns="http://www.w3.org/2000/svg" xmlns:xlink="http://www.w3.org/1999/xlink" x="0px" y="0px"
	 width="120px" height="77px" viewBox="0 0 120 77" enable-background="new 0 0 120 77" xml:space="preserve">
<rect fill-rule="evenodd" clip-rule="evenodd" fill="#FF5A00" width="120" height="77"/>
<g>
	<path d="M39.992,51.423v8.622h-8.211v-8.622H13.129v-7.684L29.2,18.635h10.792v26.336h4.868v6.452H39.992z M31.781,25.908h-0.118
		c-0.176,0.703-1.349,3.226-2.991,5.807l-8.446,13.256h11.556V25.908z"/>
	<path d="M61.578,61.159c-9.208,0-14.429-5.514-14.429-11.789c0-5.514,3.108-8.975,7.098-11.027
		c-3.578-2.229-5.808-5.044-5.808-9.326c0-6.862,6.218-11.613,13.315-11.613c7.272,0,13.314,3.577,13.314,10.675
		c0,3.871-1.994,7.156-5.866,9.502c3.813,1.818,7.156,5.338,7.156,10.793C76.359,56.232,70.083,61.159,61.578,61.159z
		 M60.875,41.217c-2.698,1.056-5.396,3.988-5.396,7.215c0,3.401,2.229,6.628,6.217,6.628c3.931,0,6.101-2.757,6.101-6.042
		C67.796,45.264,64.394,42.977,60.875,41.217z M61.872,23.386c-3.227,0-5.279,1.994-5.279,4.868c0,3.402,3.402,5.514,6.041,6.628
		c2.171-0.997,4.517-3.695,4.517-6.276C67.15,25.731,65.273,23.386,61.872,23.386z"/>
	<path d="M88.854,61.042c-4.81,0-8.505-1.056-11.672-2.991l3.343-6.452c2.288,1.584,4.634,2.64,7.86,2.64
		c3.226,0,7.272-1.936,7.272-6.804c0-2.992-1.994-7.098-9.619-7.215c-2.346,0-5.103-0.059-6.452-0.059l1.643-21.526h21.761v6.921
		H88.091l-0.586,7.86c0.234,0,0.762,0.059,1.173,0.059c11.32,0.527,15.896,6.921,15.896,13.139
		C104.573,54.531,98.297,61.042,88.854,61.042z"/>
</g>
</svg>
