<?xml version="1.0" encoding="utf-8"?>
<!-- Generator: Adobe Illustrator 21.0.2, SVG Export Plug-In . SVG Version: 6.00 Build 0)  -->
<svg version="1.1" id="Calque_1" xmlns="http://www.w3.org/2000/svg" xmlns:xlink="http://www.w3.org/1999/xlink" x="0px" y="0px"
	 viewBox="0 0 120 77" style="enable-background:new 0 0 120 77;" xml:space="preserve">
<style type="text/css">
	.st0{fill-rule:evenodd;clip-rule:evenodd;fill:#00643C;}
	.st1{fill:#FFFFFF;}
</style>
<g>
	<rect class="st0" width="120" height="77"/>
</g>
<g>
	<path class="st1" d="M32.6,47.7v6.5h-6.2v-6.5H12.2v-5.8l12.2-19h8.2v20h3.7v4.9H32.6z M26.4,28.4L26.4,28.4
		c-0.2,0.5-1.1,2.4-2.4,4.4l-6.4,10h8.8V28.4z"/>
	<path class="st1" d="M50.1,55.1c-7,0-10.9-4.2-10.9-8.9c0-4.2,2.4-6.8,5.4-8.4c-2.7-1.7-4.4-3.8-4.4-7.1c0-5.2,4.7-8.8,10.1-8.8
		c5.5,0,10.1,2.7,10.1,8.1c0,2.9-1.5,5.4-4.4,7.2c2.9,1.4,5.4,4,5.4,8.2C61.3,51.3,56.5,55.1,50.1,55.1z M49.5,40
		c-2,0.8-4.1,3-4.1,5.5c0,2.6,1.7,5,4.7,5c3,0,4.6-2.1,4.6-4.6C54.8,43,52.2,41.3,49.5,40z M50.3,26.5c-2.4,0-4,1.5-4,3.7
		c0,2.6,2.6,4.2,4.6,5c1.6-0.8,3.4-2.8,3.4-4.8C54.3,28.2,52.9,26.5,50.3,26.5z"/>
	<path class="st1" d="M72.3,55c-3.6,0-6.4-0.8-8.8-2.3l2.5-4.9c1.7,1.2,3.5,2,6,2c2.4,0,5.5-1.5,5.5-5.2c0-2.3-1.5-5.4-7.3-5.5
		c-1.8,0-3.9,0-4.9,0l1.2-16.3H83v5.2H71.7l-0.4,6c0.2,0,0.6,0,0.9,0c8.6,0.4,12,5.2,12,10C84.2,50.1,79.4,55,72.3,55z"/>
	<path class="st1" d="M98.9,54.8c-2.4,0-4.5-0.8-5.6-1.5l1.5-3.7c1.2,0.9,3,1.4,4.4,1.4c1.3,0,2.9-0.5,2.9-2c0-1.2-1-1.6-2.8-2.3
		l-1.6-0.6c-2.5-1-4.1-2.4-4.1-5.2c0-3.6,3-6.4,7.5-6.4c2.4,0,4.1,0.7,5.1,1.2l-1.5,3.7c-1.1-0.7-2.6-1.1-3.8-1.1
		c-2,0-2.6,1-2.6,1.9c0,1,0.9,1.6,2.2,2l1.7,0.6c2.7,1,4.6,2.5,4.6,5.6C106.9,52.2,103.9,54.8,98.9,54.8z"/>
</g>
</svg>
