<?xml version="1.0" encoding="iso-8859-1"?>
<!-- Generator: Adobe Illustrator 14.0.0, SVG Export Plug-In . SVG Version: 6.00 Build 43363)  -->
<!DOCTYPE svg PUBLIC "-//W3C//DTD SVG 1.1//EN" "http://www.w3.org/Graphics/SVG/1.1/DTD/svg11.dtd">
<svg version="1.1" id="Calque_1" xmlns="http://www.w3.org/2000/svg" xmlns:xlink="http://www.w3.org/1999/xlink" x="0px" y="0px"
	 width="120px" height="77px" viewBox="0 0 120 77" style="enable-background:new 0 0 120 77;" xml:space="preserve">
<g>
	<rect style="fill-rule:evenodd;clip-rule:evenodd;fill:#00643C;" width="120" height="77"/>
</g>
<g>
	<path style="fill:#FFFFFF;" d="M37.716,50.59v8.622h-8.211V50.59H10.853v-7.684l16.071-25.104h10.792v26.336h4.868v6.452H37.716z
		 M29.505,25.075h-0.118c-0.176,0.704-1.349,3.226-2.991,5.807L17.95,44.138h11.555V25.075z"/>
	<path style="fill:#FFFFFF;" d="M60.577,60.326c-9.209,0-14.429-5.514-14.429-11.789c0-5.514,3.109-8.975,7.097-11.027
		c-3.578-2.229-5.807-5.044-5.807-9.326c0-6.863,6.217-11.614,13.314-11.614c7.273,0,13.315,3.578,13.315,10.675
		c0,3.871-1.995,7.156-5.866,9.502c3.813,1.818,7.156,5.338,7.156,10.793C75.357,55.399,69.082,60.326,60.577,60.326z
		 M59.873,40.384c-2.698,1.056-5.396,3.988-5.396,7.215c0,3.401,2.229,6.628,6.217,6.628c3.929,0,6.1-2.757,6.1-6.042
		C66.794,44.431,63.393,42.144,59.873,40.384z M60.87,22.553c-3.226,0-5.279,1.994-5.279,4.868c0,3.402,3.402,5.514,6.042,6.628
		c2.17-0.997,4.516-3.695,4.516-6.276C66.148,24.899,64.271,22.553,60.87,22.553z"/>
	<path style="fill:#FFFFFF;" d="M94.429,60.209c-11.32,0-15.368-7.859-15.368-18.828c0-14.371,6.746-24.694,20.002-24.694
		c2.346,0,4.457,0.293,6.217,0.704l-1.29,7.039c-1.114-0.469-3.284-0.997-5.689-0.997c-5.807,0-10.03,4.634-10.616,12.962
		c1.407-1.231,4.105-2.815,8.563-2.815c6.862,0,12.376,4.517,12.376,12.259C108.623,54.109,103.109,60.209,94.429,60.209z
		 M93.607,40.091c-2.64,0-4.751,0.997-5.572,2.287c-0.469,0.704-0.469,2.347-0.469,3.578c0,3.93,2.287,7.742,6.51,7.742
		c4.106,0,6.218-3.343,6.218-6.921C100.294,42.906,97.713,40.091,93.607,40.091z"/>
</g>
</svg>
