<?xml version="1.0" encoding="utf-8"?>
<!-- Generator: Adobe Illustrator 21.0.2, SVG Export Plug-In . SVG Version: 6.00 Build 0)  -->
<svg version="1.1" id="Calque_1" xmlns="http://www.w3.org/2000/svg" xmlns:xlink="http://www.w3.org/1999/xlink" x="0px" y="0px"
	 viewBox="0 0 120 77" style="enable-background:new 0 0 120 77;" xml:space="preserve">
<style type="text/css">
	.st0{fill-rule:evenodd;clip-rule:evenodd;fill:#FFBE00;}
</style>
<rect class="st0" width="120" height="77"/>
<g>
	<path d="M40.1,50.6v8.6h-8.2v-8.6H13.3v-7.7l16-25h10.8v26.3h4.9v6.4H40.1z M31.9,25.2h-0.1c-0.2,0.7-1.3,3.2-3,5.8l-8.4,13.2h11.5
		V25.2z"/>
	<path d="M62.6,60.3c-9.2,0-14.4-5.5-14.4-11.8c0-5.5,3.1-9,7.1-11c-3.6-2.2-5.8-5-5.8-9.3c0-6.8,6.2-11.6,13.3-11.6
		C70,16.7,76,20.2,76,27.3c0,3.9-2,7.1-5.8,9.5c3.8,1.8,7.1,5.3,7.1,10.8C77.3,55.4,71.1,60.3,62.6,60.3z M61.9,40.4
		c-2.7,1.1-5.4,4-5.4,7.2c0,3.4,2.2,6.6,6.2,6.6c3.9,0,6.1-2.8,6.1-6C68.8,44.5,65.4,42.2,61.9,40.4z M62.9,22.6
		c-3.2,0-5.3,2-5.3,4.9c0,3.4,3.4,5.5,6,6.6c2.2-1,4.5-3.7,4.5-6.3C68.1,25,66.3,22.6,62.9,22.6z"/>
	<path d="M92.5,59.2H83c0-5.4,1.5-9,5.1-15.7l10.1-18.7H78.1v-6.9H107v6.7C98,40.4,92.5,52.7,92.5,59.2z"/>
</g>
</svg>
