<?xml version="1.0" encoding="iso-8859-1"?>
<!-- Generator: Adobe Illustrator 14.0.0, SVG Export Plug-In . SVG Version: 6.00 Build 43363)  -->
<!DOCTYPE svg PUBLIC "-//W3C//DTD SVG 1.1//EN" "http://www.w3.org/Graphics/SVG/1.1/DTD/svg11.dtd">
<svg version="1.1" id="Calque_1" xmlns="http://www.w3.org/2000/svg" xmlns:xlink="http://www.w3.org/1999/xlink" x="0px" y="0px"
	 width="120px" height="77px" viewBox="0 0 120 77" style="enable-background:new 0 0 120 77;" xml:space="preserve">
<rect style="fill-rule:evenodd;clip-rule:evenodd;fill:#FFBE00;" width="120" height="77"/>
<g>
	<path d="M31.436,48.194v6.908h-6.58v-6.908H9.911v-6.157l12.877-20.114h8.647v21.102h3.901v5.17H31.436z M24.856,27.75h-0.094
		c-0.141,0.564-1.081,2.585-2.396,4.653l-6.768,10.622h9.258V27.75z"/>
	<path d="M49.921,55.995c-7.379,0-11.562-4.417-11.562-9.446c0-4.418,2.491-7.19,5.687-8.835c-2.867-1.786-4.652-4.042-4.652-7.473
		c0-5.499,4.981-9.306,10.668-9.306c5.828,0,10.668,2.867,10.668,8.554c0,3.102-1.598,5.733-4.7,7.613
		c3.055,1.457,5.733,4.276,5.733,8.647C61.764,52.048,56.735,55.995,49.921,55.995z M49.356,40.017
		c-2.162,0.846-4.323,3.195-4.323,5.78c0,2.727,1.786,5.311,4.981,5.311c3.149,0,4.888-2.209,4.888-4.84
		C54.902,43.26,52.177,41.426,49.356,40.017z M50.156,25.729c-2.585,0-4.23,1.598-4.23,3.9c0,2.726,2.726,4.418,4.841,5.311
		c1.739-0.799,3.619-2.961,3.619-5.029C54.385,27.609,52.881,25.729,50.156,25.729z"/>
	<path d="M75.15,55.103h-7.566c0-4.371,1.175-7.19,4.088-12.595l8.084-15.04h-16.12v-5.545h23.217v5.404
		C79.568,39.97,75.15,49.886,75.15,55.103z"/>
	<path d="M107.138,55.455c-1.762,0-2.643-1.093-2.925-2.572c-1.55,1.832-2.994,2.748-5.566,2.748c-3.312,0-5.566-2.396-5.566-5.602
		c0-5.109,5.355-6.096,9.513-6.096c0.774,0,1.233-0.035,1.233-0.669v-1.233c0-1.339-0.846-2.607-3.453-2.607
		c-2.185,0-3.84,1.021-4.65,1.727l-1.727-3.523c2.078-1.338,4.369-1.938,7.61-1.938c2.642,0,6.905,0.951,6.905,6.377v8.667
		c0,0.67,0.07,1.233,0.67,1.233c0.211,0,0.599-0.105,0.811-0.176l0.281,3.206C109.533,55.173,108.301,55.455,107.138,55.455z
		 M103.791,46.999c-0.529-0.035-1.058-0.035-1.48-0.035c-1.727,0-4.334,0.423-4.334,2.678c0,1.374,0.987,2.36,2.361,2.36
		c1.092,0,2.008-0.353,2.643-1.021c0.563-0.599,0.811-1.304,0.811-2.22V46.999z"/>
</g>
</svg>
