<?xml version="1.0" encoding="iso-8859-1"?>
<!-- Generator: Adobe Illustrator 14.0.0, SVG Export Plug-In . SVG Version: 6.00 Build 43363)  -->
<!DOCTYPE svg PUBLIC "-//W3C//DTD SVG 1.1//EN" "http://www.w3.org/Graphics/SVG/1.1/DTD/svg11.dtd">
<svg version="1.1" id="Calque_1" xmlns="http://www.w3.org/2000/svg" xmlns:xlink="http://www.w3.org/1999/xlink" x="0px" y="0px"
	 width="120px" height="77px" viewBox="0 0 120 77" style="enable-background:new 0 0 120 77;" xml:space="preserve">
<rect style="fill-rule:evenodd;clip-rule:evenodd;fill:#FFBE00;" width="120" height="77"/>
<g>
	<path d="M30.59,48.194v6.908h-6.58v-6.908H9.065v-6.157l12.877-20.114h8.647v21.102h3.901v5.17H30.59z M24.01,27.75h-0.094
		c-0.141,0.564-1.081,2.585-2.396,4.653l-6.768,10.622h9.258V27.75z"/>
	<path d="M49.075,55.995c-7.379,0-11.562-4.417-11.562-9.446c0-4.418,2.491-7.19,5.687-8.835c-2.867-1.786-4.652-4.042-4.652-7.473
		c0-5.499,4.981-9.306,10.668-9.306c5.828,0,10.668,2.867,10.668,8.554c0,3.102-1.598,5.733-4.7,7.613
		c3.055,1.457,5.733,4.276,5.733,8.647C60.918,52.048,55.89,55.995,49.075,55.995z M48.511,40.017
		c-2.162,0.846-4.323,3.195-4.323,5.78c0,2.727,1.786,5.311,4.981,5.311c3.149,0,4.888-2.209,4.888-4.84
		C54.057,43.26,51.331,41.426,48.511,40.017z M49.31,25.729c-2.585,0-4.23,1.598-4.23,3.9c0,2.726,2.726,4.418,4.841,5.311
		c1.739-0.799,3.619-2.961,3.619-5.029C53.54,27.609,52.036,25.729,49.31,25.729z"/>
	<path d="M74.305,55.103h-7.566c0-4.371,1.175-7.19,4.088-12.595l8.084-15.04H62.79v-5.545h23.217v5.404
		C78.723,39.97,74.305,49.886,74.305,55.103z"/>
	<path d="M102.521,55.701c-1.408,0-3.064-0.563-4.016-1.444v0.846h-4.792V29.03h4.968v9.725c1.269-1.833,2.713-3.065,5.109-3.065
		c4.932,0,6.976,5.25,6.976,9.795C110.767,49.712,108.547,55.701,102.521,55.701z M101.888,39.988c-0.986,0-1.761,0.422-2.29,0.951
		c-0.846,0.81-0.951,1.339-0.951,2.431v6.377c0,1.304,0.775,2.467,3.03,2.467c3.171,0,3.946-3.418,3.946-5.99
		C105.623,43.688,105.023,39.988,101.888,39.988z"/>
</g>
</svg>
