<?xml version="1.0" encoding="iso-8859-1"?>
<!-- Generator: Adobe Illustrator 14.0.0, SVG Export Plug-In . SVG Version: 6.00 Build 43363)  -->
<!DOCTYPE svg PUBLIC "-//W3C//DTD SVG 1.1//EN" "http://www.w3.org/Graphics/SVG/1.1/DTD/svg11.dtd">
<svg version="1.1" id="Calque_1" xmlns="http://www.w3.org/2000/svg" xmlns:xlink="http://www.w3.org/1999/xlink" x="0px" y="0px"
	 width="120px" height="77px" viewBox="0 0 120 77" style="enable-background:new 0 0 120 77;" xml:space="preserve">
<rect style="fill-rule:evenodd;clip-rule:evenodd;fill:#FFBE00;" width="120" height="77"/>
<g>
	<path d="M32.387,48.194v6.908h-6.58v-6.908H10.862v-6.157L23.74,21.923h8.647v21.102h3.901v5.17H32.387z M25.808,27.75h-0.094
		c-0.141,0.564-1.081,2.585-2.397,4.653l-6.768,10.622h9.258V27.75z"/>
	<path d="M50.872,55.995c-7.378,0-11.561-4.417-11.561-9.446c0-4.418,2.491-7.19,5.687-8.835c-2.867-1.786-4.653-4.042-4.653-7.473
		c0-5.499,4.982-9.306,10.668-9.306c5.828,0,10.668,2.867,10.668,8.554c0,3.102-1.598,5.733-4.7,7.613
		c3.055,1.457,5.734,4.276,5.734,8.647C62.716,52.048,57.687,55.995,50.872,55.995z M50.309,40.017
		c-2.162,0.846-4.324,3.195-4.324,5.78c0,2.727,1.786,5.311,4.982,5.311c3.149,0,4.888-2.209,4.888-4.84
		C55.854,43.26,53.128,41.426,50.309,40.017z M51.107,25.729c-2.585,0-4.23,1.598-4.23,3.9c0,2.726,2.726,4.418,4.841,5.311
		c1.739-0.799,3.619-2.961,3.619-5.029C55.337,27.609,53.833,25.729,51.107,25.729z"/>
	<path d="M76.102,55.103h-7.566c0-4.371,1.175-7.19,4.089-12.595l8.083-15.04H64.588v-5.545h23.217v5.404
		C80.52,39.97,76.102,49.886,76.102,55.103z"/>
	<path d="M103.263,55.701c-5.778,0-9.091-4.263-9.091-9.759c0-5.144,2.713-10.253,9.091-10.253c2.536,0,4.51,0.669,5.743,1.339
		l-1.762,4.122c-0.635-0.423-2.044-1.269-3.664-1.269c-2.854,0-4.264,2.643-4.264,5.954c0,3.629,2.325,5.778,4.545,5.778
		c1.41,0,2.854-0.599,3.699-1.127l1.41,3.664C107.984,54.892,105.553,55.701,103.263,55.701z"/>
</g>
</svg>
