<?xml version="1.0" encoding="iso-8859-1"?>
<!-- Generator: Adobe Illustrator 14.0.0, SVG Export Plug-In . SVG Version: 6.00 Build 43363)  -->
<!DOCTYPE svg PUBLIC "-//W3C//DTD SVG 1.1//EN" "http://www.w3.org/Graphics/SVG/1.1/DTD/svg11.dtd">
<svg version="1.1" id="Calque_1" xmlns="http://www.w3.org/2000/svg" xmlns:xlink="http://www.w3.org/1999/xlink" x="0px" y="0px"
	 width="120px" height="77px" viewBox="0 0 120 77" style="enable-background:new 0 0 120 77;" xml:space="preserve">
<rect style="fill-rule:evenodd;clip-rule:evenodd;fill:#0055C8;" width="120" height="77"/>
<g>
	<path style="fill:#FFFFFF;" d="M30.52,48.194v6.908h-6.58v-6.908H8.995v-6.157l12.877-20.114h8.647v21.102h3.901v5.17H30.52z
		 M23.94,27.75h-0.094c-0.141,0.564-1.081,2.585-2.396,4.653l-6.768,10.622h9.258V27.75z"/>
	<path style="fill:#FFFFFF;" d="M49.005,55.995c-7.379,0-11.562-4.417-11.562-9.446c0-4.418,2.491-7.19,5.687-8.835
		c-2.867-1.786-4.652-4.042-4.652-7.473c0-5.499,4.981-9.306,10.668-9.306c5.828,0,10.668,2.867,10.668,8.554
		c0,3.102-1.598,5.733-4.7,7.613c3.055,1.457,5.733,4.276,5.733,8.647C60.848,52.048,55.819,55.995,49.005,55.995z M48.44,40.017
		c-2.162,0.846-4.323,3.195-4.323,5.78c0,2.727,1.786,5.311,4.981,5.311c3.149,0,4.888-2.209,4.888-4.84
		C53.986,43.26,51.261,41.426,48.44,40.017z M49.24,25.729c-2.585,0-4.23,1.598-4.23,3.9c0,2.726,2.726,4.418,4.841,5.311
		c1.739-0.799,3.619-2.961,3.619-5.029C53.469,27.609,51.965,25.729,49.24,25.729z"/>
	<path style="fill:#FFFFFF;" d="M74.234,55.103h-7.566c0-4.371,1.175-7.19,4.088-12.595l8.084-15.04H62.72v-5.545h23.217v5.404
		C78.652,39.97,74.234,49.886,74.234,55.103z"/>
	<path style="fill:#FFFFFF;" d="M104.777,55.103V52.39c-1.304,1.938-2.678,3.312-5.25,3.312c-5.285,0-7.223-5.813-7.223-10.217
		c0-4.404,2.22-9.795,8.244-9.795c1.445,0,2.925,0.458,3.841,1.339V29.03h4.968v26.072H104.777z M104.425,41.679
		c0-1.409-0.811-2.431-3.206-2.431c-3.03,0-3.77,2.924-3.77,5.602c0,2.537,0.563,6.589,3.84,6.589c0.986,0,1.762-0.493,2.255-0.951
		c0.775-0.775,0.881-1.444,0.881-2.432V41.679z"/>
</g>
</svg>
