<?xml version="1.0" encoding="utf-8"?>
<!-- Generator: Adobe Illustrator 21.0.2, SVG Export Plug-In . SVG Version: 6.00 Build 0)  -->
<svg version="1.1" id="Calque_1" xmlns="http://www.w3.org/2000/svg" xmlns:xlink="http://www.w3.org/1999/xlink" x="0px" y="0px"
	 viewBox="0 0 120 77" style="enable-background:new 0 0 120 77;" xml:space="preserve">
<style type="text/css">
	.st0{fill-rule:evenodd;clip-rule:evenodd;fill:#0064AF;}
	.st1{fill:#FFFFFF;}
</style>
<g>
	<rect class="st0" width="120" height="77"/>
	<g>
		<path class="st1" d="M38.2,51.5v8.6H30v-8.6H11.4v-7.7l16.1-25.1h10.8V45h4.9v6.4H38.2z M30,26h-0.1c-0.2,0.7-1.3,3.2-3,5.8
			L18.5,45H30V26z"/>
		<path class="st1" d="M59.8,61.2c-9.2,0-14.4-5.5-14.4-11.8c0-5.5,3.1-9,7.1-11c-3.6-2.2-5.8-5-5.8-9.3c0-6.9,6.2-11.6,13.3-11.6
			c7.3,0,13.3,3.6,13.3,10.7c0,3.9-2,7.1-5.9,9.5c3.8,1.8,7.2,5.3,7.2,10.8C74.6,56.3,68.3,61.2,59.8,61.2z M59.1,41.3
			c-2.7,1.1-5.4,4-5.4,7.2c0,3.4,2.2,6.6,6.2,6.6c3.9,0,6.1-2.8,6.1-6C66,45.3,62.6,43,59.1,41.3z M60.1,23.5c-3.2,0-5.3,2-5.3,4.9
			c0,3.4,3.4,5.5,6,6.6c2.2-1,4.5-3.7,4.5-6.3C65.4,25.8,63.5,23.5,60.1,23.5z"/>
		<path class="st1" d="M92.7,61.2c-9.2,0-14.4-5.5-14.4-11.8c0-5.5,3.1-9,7.1-11c-3.6-2.2-5.8-5-5.8-9.3c0-6.9,6.2-11.6,13.3-11.6
			c7.3,0,13.3,3.6,13.3,10.7c0,3.9-2,7.1-5.9,9.5c3.8,1.8,7.2,5.3,7.2,10.8C107.4,56.3,101.2,61.2,92.7,61.2z M92,41.3
			c-2.7,1.1-5.4,4-5.4,7.2c0,3.4,2.2,6.6,6.2,6.6c3.9,0,6.1-2.8,6.1-6C98.9,45.3,95.5,43,92,41.3z M93,23.5c-3.2,0-5.3,2-5.3,4.9
			c0,3.4,3.4,5.5,6,6.6c2.2-1,4.5-3.7,4.5-6.3C98.2,25.8,96.4,23.5,93,23.5z"/>
	</g>
</g>
</svg>
