<?xml version="1.0" encoding="iso-8859-1"?>
<!-- Generator: Adobe Illustrator 14.0.0, SVG Export Plug-In . SVG Version: 6.00 Build 43363)  -->
<!DOCTYPE svg PUBLIC "-//W3C//DTD SVG 1.1//EN" "http://www.w3.org/Graphics/SVG/1.1/DTD/svg11.dtd">
<svg version="1.1" id="Calque_1" xmlns="http://www.w3.org/2000/svg" xmlns:xlink="http://www.w3.org/1999/xlink" x="0px" y="0px"
	 width="120px" height="77px" viewBox="0 0 120 77" style="enable-background:new 0 0 120 77;" xml:space="preserve">
<rect style="fill-rule:evenodd;clip-rule:evenodd;fill:#FFBE00;" width="120" height="77"/>
<g>
	<path d="M38.692,50.59v8.622H30.48V50.59H11.829v-7.684L27.9,17.802h10.792v26.336h4.868v6.452H38.692z M30.48,25.075h-0.117
		c-0.176,0.704-1.349,3.226-2.991,5.807l-8.446,13.256H30.48V25.075z"/>
	<path d="M54.314,60.326c-2.346,0-4.458-0.293-6.217-0.704l1.291-7.038c1.114,0.469,3.285,0.997,5.689,0.997
		c5.807,0,10.03-4.634,10.616-12.963c-1.407,1.232-4.105,2.815-8.563,2.815c-6.862,0-12.376-4.517-12.376-12.259
		c0-8.27,5.514-14.37,14.194-14.37c11.32,0,15.368,7.859,15.368,18.828C74.316,50.003,67.57,60.326,54.314,60.326z M59.3,23.315
		c-4.106,0-6.217,3.343-6.217,6.921c0,3.871,2.581,6.687,6.687,6.687c2.64,0,4.751-0.997,5.572-2.287
		c0.469-0.704,0.469-2.346,0.469-3.578C65.811,27.128,63.523,23.315,59.3,23.315z"/>
	<path d="M93.452,60.209c-11.32,0-15.368-7.859-15.368-18.828c0-14.371,6.746-24.694,20.002-24.694c2.346,0,4.457,0.293,6.217,0.704
		l-1.29,7.039c-1.114-0.469-3.284-0.997-5.689-0.997c-5.807,0-10.03,4.634-10.616,12.962c1.407-1.231,4.105-2.815,8.563-2.815
		c6.862,0,12.376,4.517,12.376,12.259C107.646,54.109,102.133,60.209,93.452,60.209z M92.631,40.091
		c-2.64,0-4.751,0.997-5.572,2.287c-0.469,0.704-0.469,2.347-0.469,3.578c0,3.93,2.287,7.742,6.51,7.742
		c4.106,0,6.218-3.343,6.218-6.921C99.317,42.906,96.736,40.091,92.631,40.091z"/>
</g>
</svg>
