<?xml version="1.0" encoding="iso-8859-1"?>
<!-- Generator: Adobe Illustrator 14.0.0, SVG Export Plug-In . SVG Version: 6.00 Build 43363)  -->
<!DOCTYPE svg PUBLIC "-//W3C//DTD SVG 1.1//EN" "http://www.w3.org/Graphics/SVG/1.1/DTD/svg11.dtd">
<svg version="1.1" id="Calque_1" xmlns="http://www.w3.org/2000/svg" xmlns:xlink="http://www.w3.org/1999/xlink" x="0px" y="0px"
	 width="120px" height="77px" viewBox="0 0 120 77" style="enable-background:new 0 0 120 77;" xml:space="preserve">
<rect style="fill-rule:evenodd;clip-rule:evenodd;fill:#FF5A00;" width="120" height="77"/>
<g>
	<path d="M38.531,50.59v8.622h-8.212V50.59H11.667v-7.684l16.071-25.104h10.792v26.336h4.868v6.452H38.531z M30.319,25.075h-0.117
		c-0.176,0.704-1.349,3.226-2.991,5.807l-8.446,13.256h11.555V25.075z"/>
	<path d="M54.153,60.326c-2.346,0-4.458-0.293-6.217-0.704l1.291-7.038c1.114,0.469,3.285,0.997,5.689,0.997
		c5.807,0,10.029-4.634,10.616-12.963c-1.407,1.232-4.105,2.815-8.563,2.815c-6.862,0-12.376-4.517-12.376-12.259
		c0-8.27,5.514-14.37,14.194-14.37c11.32,0,15.367,7.859,15.367,18.828C74.154,50.003,67.409,60.326,54.153,60.326z M59.139,23.315
		c-4.106,0-6.217,3.343-6.217,6.921c0,3.871,2.581,6.687,6.687,6.687c2.64,0,4.751-0.997,5.572-2.287
		c0.47-0.704,0.47-2.346,0.47-3.578C65.65,27.128,63.362,23.315,59.139,23.315z"/>
	<path d="M87.279,60.326c-2.347,0-4.458-0.293-6.218-0.704l1.29-7.038c1.115,0.469,3.285,0.997,5.689,0.997
		c5.807,0,10.03-4.634,10.617-12.963c-1.408,1.232-4.105,2.815-8.564,2.815c-6.861,0-12.375-4.517-12.375-12.259
		c0-8.27,5.514-14.37,14.193-14.37c11.32,0,15.368,7.859,15.368,18.828C107.28,50.003,100.535,60.326,87.279,60.326z M92.265,23.315
		c-4.106,0-6.218,3.343-6.218,6.921c0,3.871,2.581,6.687,6.688,6.687c2.639,0,4.75-0.997,5.572-2.287
		c0.469-0.704,0.469-2.346,0.469-3.578C98.775,27.128,96.488,23.315,92.265,23.315z"/>
</g>
</svg>
