<?xml version="1.0" encoding="iso-8859-1"?>
<!-- Generator: Adobe Illustrator 14.0.0, SVG Export Plug-In . SVG Version: 6.00 Build 43363)  -->
<!DOCTYPE svg PUBLIC "-//W3C//DTD SVG 1.1//EN" "http://www.w3.org/Graphics/SVG/1.1/DTD/svg11.dtd">
<svg version="1.1" id="Calque_1" xmlns="http://www.w3.org/2000/svg" xmlns:xlink="http://www.w3.org/1999/xlink" x="0px" y="0px"
	 width="120px" height="77px" viewBox="0 0 120 77" style="enable-background:new 0 0 120 77;" xml:space="preserve">
<g>
	<g>
		<path style="fill:#A8C855;" d="M120,61.342V0H83.514c-4.465,1.222-8.494,2.553-11.977,5.018
			c-4.598,3.252-8.248,7.702-10.709,13.453c-2.059,4.793-3.652,10.586-4.627,14.579l-0.003,0.003
			c-0.122,0.692-0.492,2.316-0.904,4.048c12.552,7.737,19.484,19.839,20.621,29.905c0.285-0.066,0.568-0.119,0.865-0.196
			C84.713,64.807,97.348,61.348,120,61.342z"/>
	</g>
	<path style="fill:#0063AC;" d="M54.581,36.665C72.45,47.265,79.298,66.769,74.688,77H0V26.989
		c23.505-2.38,34.417-0.825,50.475,7.317l2.316,5.914L54.581,36.665z"/>
	<path style="fill:#F7AF4C;" d="M97.586,62.331c-10.584,1.297-21.625,4.401-21.625,4.401l-0.006,0.006
		c0.434,3.833,0.031,7.379-1.225,10.262h-0.01h0.01H120V61.077C120,61.077,108.871,60.947,97.586,62.331z"/>
	<g>
		<g>
			<path style="fill:#D2007A;" d="M0,0v26.986c23.506-2.38,34.417-0.825,50.476,7.317l2.316,5.914l1.789-3.555
				c0.243,0.143,0.475,0.293,0.708,0.438c0.412-1.731,0.782-3.356,0.904-4.048l0.003-0.003c0.975-3.993,2.568-9.786,4.627-14.579
				c2.461-5.751,6.112-10.201,10.709-13.453C75.016,2.553,79.045,1.222,83.51,0H0z"/>
		</g>
	</g>
	<g>
		<g>
			<path style="fill:#FFFFFF;" d="M20.611,26.793h1.085v-1.441h-0.773c-0.705,0-0.948-0.332-0.948-0.978V10.969h-1.757v13.505
				C18.217,25.717,18.941,26.793,20.611,26.793z M25.123,21.906c-1.996,0-3.013,1.01-3.013,2.42c0,0.711,0.24,1.358,0.69,1.804
				c0.533,0.515,1.256,0.763,2.34,0.763c1.085,0,1.688-0.248,2.329-0.862v0.763h1.718v-5.617c0-1.906-1.206-2.882-3.596-2.882
				c-1.449,0-2.312,0.282-3.135,1.208l1.152,1.046c0.48-0.597,0.945-0.812,1.911-0.812c1.362,0,1.913,0.512,1.913,1.573v0.596
				H25.123z M27.433,23.763c0,0.596-0.121,0.993-0.379,1.241c-0.468,0.431-0.966,0.48-1.635,0.48c-1.108,0-1.606-0.429-1.606-1.192
				c0-0.763,0.534-1.21,1.567-1.21h2.053V23.763z M32.961,33.362v-1.01h-2.471v10.519h2.523V36.53c0-1.332,0.856-1.937,1.636-1.937
				c0.622,0,0.953,0.221,1.339,0.626l1.907-2c-0.699-0.728-1.397-0.99-2.394-0.99C34.416,32.23,33.441,32.756,32.961,33.362z
				 M16.207,30.999h6.722v11.873h2.701V30.999h3.617v-2.503h-13.04V30.999z M82.428,36.47l-1.594-0.162
				c-0.896-0.08-1.051-0.526-1.051-0.908c0-0.526,0.426-1.01,1.439-1.01c0.877,0,1.77,0.162,2.352,0.708l1.557-1.635
				c-0.973-0.951-2.297-1.232-3.867-1.232c-2.061,0-3.91,1.172-3.91,3.352c0,1.938,1.129,2.765,2.953,2.947l1.598,0.162
				c0.793,0.08,1.066,0.444,1.066,0.969c0,0.788-0.912,1.09-1.787,1.09c-0.777,0-1.869-0.119-2.701-0.988l-1.652,1.715
				c1.283,1.334,2.723,1.515,4.316,1.515c2.391,0,4.295-1.11,4.295-3.432C85.441,37.782,84.432,36.673,82.428,36.47z M71.641,33.362
				v-1.01h-2.469v10.519h2.523V36.53c0-1.332,0.859-1.937,1.637-1.937c0.621,0,0.953,0.221,1.338,0.626l1.908-2
				c-0.703-0.728-1.398-0.99-2.395-0.99C73.098,32.23,72.125,32.756,71.641,33.362z M91.76,40.771c-1.418,0-2.219-0.99-2.219-2.344
				h6.34v-1.17c0-2.887-1.594-5.027-4.414-5.027c-2.621,0-4.41,1.938-4.41,5.371c0,4.257,2.291,5.369,4.682,5.369h5.635v-2.199
				H91.76z M89.93,35.5c0.27-0.625,0.834-1.088,1.691-1.088c0.854,0,1.418,0.463,1.688,1.088c0.158,0.385,0.217,0.668,0.238,1.133
				h-3.852C89.713,36.167,89.771,35.885,89.93,35.5z M83.521,0H75.76c-9.213,4.59-14.568,10.814-17.483,16.905
				c-3.226,6.726-5.143,16.48-5.83,20.495l-0.003,0.001l-1.603-5.049h-2.66l3.729,10.519h1.982c0,0,2.002-7.997,2.316-9.787
				l-0.023,0.022c0.971-3.995,2.57-9.82,4.642-14.635c2.461-5.751,6.112-10.201,10.709-13.453C75.023,2.548,79.055,1.222,83.521,0z
				 M42.482,32.23c-1.688,0-2.66,0.325-3.655,1.453l1.611,1.635c0.527-0.626,0.978-0.866,1.949-0.866
				c1.342,0,1.884,0.503,1.884,1.654v0.526h-2.394c-2.349,0-3.457,1.372-3.457,3.047c0,0.928,0.293,1.775,0.839,2.362
				c0.598,0.625,1.437,0.927,2.583,0.927c1.167,0,1.807-0.302,2.488-1.007v0.909h2.471v-6.924
				C46.801,33.482,45.32,32.23,42.482,32.23z M44.271,38.994c0,0.646-0.095,1.07-0.37,1.331c-0.444,0.446-0.892,0.503-1.591,0.503
				c-0.995,0-1.46-0.48-1.46-1.208c0-0.748,0.506-1.192,1.422-1.192h1.999V38.994z M62.424,32.23c-2.625,0-4.411,1.938-4.411,5.371
				c0,4.257,2.29,5.39,4.684,5.39c1.828,0,2.82-0.587,3.85-1.655l-1.539-1.555c-0.641,0.667-1.186,0.99-2.293,0.99
				c-1.416,0-2.216-0.99-2.216-2.344h6.339v-1.17C66.838,34.371,65.244,32.23,62.424,32.23z M60.499,36.633
				c0.021-0.465,0.083-0.748,0.237-1.133c0.272-0.625,0.834-1.088,1.688-1.088c0.855,0,1.422,0.463,1.695,1.088
				c0.154,0.385,0.213,0.668,0.23,1.133H60.499z"/>
		</g>
	</g>
	<g>
		<path style="fill:#FFFFFF;" d="M24.706,66.561v-0.388c-0.3,0.317-0.607,0.436-1.063,0.436c-0.418,0-0.813-0.143-1.049-0.374
			c-0.43-0.408-0.436-1.125-0.436-1.738c0-0.619,0.006-1.321,0.436-1.732c0.236-0.231,0.622-0.373,1.042-0.373
			c0.436,0,0.765,0.111,1.046,0.414V60.93h1.066v5.631H24.706z M23.947,63.32c-0.643,0-0.723,0.504-0.723,1.176
			s0.08,1.188,0.723,1.188s0.734-0.516,0.734-1.188S24.589,63.32,23.947,63.32z"/>
		<path style="fill:#FFFFFF;" d="M28.198,64.818c0,0.533,0.338,0.919,0.936,0.919c0.469,0,0.699-0.128,0.972-0.386l0.652,0.607
			c-0.438,0.418-0.859,0.649-1.63,0.649c-1.013,0-1.981-0.444-1.981-2.112c0-1.345,0.756-2.105,1.866-2.105
			c1.191,0,1.866,0.84,1.866,1.973v0.455H28.198z M29.726,63.672c-0.112-0.245-0.353-0.426-0.714-0.426s-0.602,0.181-0.714,0.426
			c-0.065,0.152-0.095,0.264-0.101,0.441h1.629C29.815,63.936,29.792,63.824,29.726,63.672z"/>
		<path style="fill:#FFFFFF;" d="M36.631,66.608c-0.643,0-1.167-0.222-1.579-0.616c-0.592-0.568-0.574-1.273-0.574-2.246
			c0-0.975-0.018-1.676,0.574-2.248c0.412-0.394,0.937-0.613,1.579-0.613c1.096,0,1.946,0.599,2.153,1.777h-1.158
			c-0.115-0.45-0.411-0.799-0.986-0.799c-0.313,0-0.565,0.109-0.731,0.289c-0.223,0.238-0.287,0.51-0.287,1.594
			c0,1.082,0.064,1.352,0.287,1.588c0.166,0.184,0.418,0.291,0.731,0.291c0.575,0,0.871-0.344,0.986-0.797h1.158
			C38.578,66.007,37.718,66.608,36.631,66.608z"/>
		<path style="fill:#FFFFFF;" d="M42.559,66.561v-2.518c0-0.542-0.361-0.723-0.699-0.723s-0.69,0.187-0.69,0.723v2.518H40.1V60.93
			h1.069v1.893c0.287-0.29,0.649-0.432,1.028-0.432c0.936,0,1.428,0.633,1.428,1.504v2.666H42.559z"/>
		<path style="fill:#FFFFFF;" d="M47.381,66.561v-0.355c-0.284,0.275-0.557,0.395-1.049,0.395c-0.485,0-0.838-0.119-1.096-0.365
			c-0.225-0.228-0.35-0.563-0.35-0.924c0-0.657,0.465-1.197,1.461-1.197h1.01V63.91c0-0.451-0.229-0.646-0.794-0.646
			c-0.415,0-0.602,0.092-0.823,0.338l-0.682-0.637c0.418-0.445,0.829-0.574,1.546-0.574c1.197,0,1.825,0.491,1.825,1.457v2.713
			H47.381z M47.358,64.818h-0.845c-0.388,0-0.601,0.178-0.601,0.469c0,0.284,0.198,0.475,0.616,0.475
			c0.296,0,0.485-0.024,0.675-0.196c0.116-0.106,0.154-0.272,0.154-0.524V64.818z"/>
		<path style="fill:#FFFFFF;" d="M52.317,63.563c-0.163-0.16-0.303-0.242-0.569-0.242c-0.325,0-0.687,0.236-0.687,0.758v2.482
			h-1.069v-4.12h1.042v0.394c0.205-0.236,0.619-0.443,1.076-0.443c0.42,0,0.717,0.105,1.013,0.391L52.317,63.563z"/>
		<path style="fill:#FFFFFF;" d="M56.846,66.102c-0.264,0.27-0.699,0.507-1.333,0.507c-0.631,0-1.058-0.237-1.321-0.507
			c-0.388-0.389-0.485-0.855-0.485-1.605c0-0.744,0.098-1.209,0.485-1.597c0.264-0.27,0.69-0.509,1.321-0.509
			c0.634,0,1.069,0.239,1.333,0.509c0.385,0.388,0.482,0.853,0.482,1.597C57.329,65.246,57.231,65.713,56.846,66.102z
			 M56.014,63.501c-0.119-0.122-0.288-0.181-0.501-0.181c-0.21,0-0.37,0.059-0.495,0.181c-0.219,0.213-0.242,0.568-0.242,0.995
			c0,0.43,0.023,0.791,0.242,1.004c0.125,0.119,0.285,0.184,0.495,0.184c0.213,0,0.382-0.064,0.501-0.184
			c0.222-0.213,0.248-0.574,0.248-1.004C56.262,64.069,56.236,63.714,56.014,63.501z"/>
		<path style="fill:#FFFFFF;" d="M61.252,66.561v-2.491c0-0.563-0.369-0.749-0.706-0.749c-0.338,0-0.717,0.187-0.717,0.749v2.491
			h-1.066v-4.12h1.042v0.382c0.278-0.29,0.676-0.432,1.069-0.432c0.426,0,0.774,0.136,1.01,0.367
			c0.344,0.331,0.436,0.719,0.436,1.17v2.633H61.252z"/>
		<path style="fill:#FFFFFF;" d="M66.373,66.561v-2.491c0-0.563-0.371-0.749-0.709-0.749c-0.336,0-0.713,0.187-0.713,0.749v2.491
			h-1.07v-4.12h1.043v0.382c0.281-0.29,0.676-0.432,1.072-0.432c0.428,0,0.771,0.136,1.012,0.367
			c0.346,0.331,0.434,0.719,0.434,1.17v2.633H66.373z"/>
		<path style="fill:#FFFFFF;" d="M69.842,64.818c0,0.533,0.338,0.919,0.936,0.919c0.475,0,0.699-0.128,0.973-0.386l0.65,0.607
			c-0.438,0.418-0.855,0.649-1.629,0.649c-1.012,0-1.979-0.444-1.979-2.112c0-1.345,0.752-2.105,1.863-2.105
			c1.193,0,1.863,0.84,1.863,1.973v0.455H69.842z M71.371,63.672c-0.113-0.245-0.35-0.426-0.715-0.426
			c-0.361,0-0.602,0.181-0.713,0.426c-0.066,0.152-0.096,0.264-0.102,0.441h1.629C71.465,63.936,71.436,63.824,71.371,63.672z"/>
	</g>
</g>
</svg>
