<?xml version="1.0" encoding="utf-8"?>
<!-- Generator: Adobe Illustrator 16.0.3, SVG Export Plug-In . SVG Version: 6.00 Build 0)  -->
<!DOCTYPE svg PUBLIC "-//W3C//DTD SVG 1.1//EN" "http://www.w3.org/Graphics/SVG/1.1/DTD/svg11.dtd">
<svg version="1.1" id="Calque_1" xmlns="http://www.w3.org/2000/svg" xmlns:xlink="http://www.w3.org/1999/xlink" x="0px" y="0px"
	 width="120px" height="77px" viewBox="0 0 120 77" enable-background="new 0 0 120 77" xml:space="preserve">
<g>
	<rect fill-rule="evenodd" clip-rule="evenodd" fill="#006EB7" width="120" height="77"/>
</g>
<g>
	<path fill="#FFFFFF" d="M24.651,60.444c-4.805,0-8.496-1.055-11.66-2.988l3.34-6.445c2.285,1.582,4.629,2.637,7.852,2.637
		s7.266-1.934,7.266-6.797c0-2.988-1.992-7.09-9.609-7.207c-2.344,0-5.098-0.059-6.445-0.059l1.641-21.504h21.738v6.914H23.89
		l-0.586,7.852c0.234,0,0.762,0.059,1.172,0.059c11.309,0.527,15.879,6.915,15.879,13.125C40.354,53.94,34.085,60.444,24.651,60.444
		z"/>
	<path fill="#FFFFFF" d="M58.784,60.562c-12.48,0-14.941-12.305-14.941-21.856c0-9.551,2.695-21.855,15.176-21.855
		S73.96,29.155,73.96,38.706C73.96,48.257,71.265,60.562,58.784,60.562z M58.901,23.823c-5.977,0-6.152,10.664-6.152,14.883
		c0,4.161,0.293,14.942,6.152,14.942s6.094-10.84,6.094-14.942C64.995,34.37,64.819,23.823,58.901,23.823z"/>
	<path fill="#FFFFFF" d="M92.829,60.444c-11.309,0-15.352-7.852-15.352-18.809c0-14.356,6.738-24.668,19.98-24.668
		c2.344,0,4.453,0.293,6.211,0.703l-1.289,7.031c-1.113-0.469-3.281-0.996-5.684-0.996c-5.801,0-10.02,4.629-10.605,12.949
		c1.406-1.23,4.102-2.813,8.555-2.813c6.855,0,12.363,4.512,12.363,12.247C107.009,54.351,101.501,60.444,92.829,60.444z
		 M92.009,40.347c-2.637,0-4.746,0.996-5.566,2.285c-0.469,0.703-0.469,2.344-0.469,3.574c0,3.926,2.285,7.734,6.504,7.734
		c4.102,0,6.211-3.34,6.211-6.914C98.688,43.159,96.11,40.347,92.009,40.347z"/>
</g>
</svg>
