<?xml version="1.0" encoding="utf-8"?>
<!-- Generator: Adobe Illustrator 21.0.2, SVG Export Plug-In . SVG Version: 6.00 Build 0)  -->
<svg version="1.1" id="Calque_1" xmlns="http://www.w3.org/2000/svg" xmlns:xlink="http://www.w3.org/1999/xlink" x="0px" y="0px"
	 viewBox="0 0 120 77" style="enable-background:new 0 0 120 77;" xml:space="preserve">
<style type="text/css">
	.st0{fill-rule:evenodd;clip-rule:evenodd;fill:#FFBE00;}
	.st1{display:none;fill-rule:evenodd;clip-rule:evenodd;fill:#FFCE00;}
	.st2{display:none;}
	.st3{display:inline;fill:#1D1D1B;}
	.st4{fill:#1D1D1B;}
</style>
<rect class="st0" width="120" height="77"/>
<rect y="-0.1" class="st1" width="120" height="77.1"/>
<g class="st2">
	<path class="st3" d="M24.9,60.7c-4.8,0-8.5-1.1-11.7-3l3.3-6.5c2.3,1.6,4.6,2.6,7.9,2.6c3.2,0,7.3-1.9,7.3-6.8c0-3-2-7.1-9.6-7.2
		c-2.3,0-5.1-0.1-6.5-0.1l1.6-21.5h21.8v6.9H24.2L23.6,33c0.2,0,0.8,0.1,1.2,0.1c11.3,0.5,15.9,6.9,15.9,13.1
		C40.6,54.2,34.4,60.7,24.9,60.7z"/>
	<path class="st3" d="M57.8,59.7V27.1c-2.5,2-6.5,3.9-9.3,5.2l-2.8-6.3c4.3-1.8,9.6-4.6,13.7-7.7h7.2v41.4H57.8z"/>
	<path class="st3" d="M79.4,59.7v-5.5c1.1-4.8,5.8-9.2,11.3-14c2.8-2.4,5.7-5.4,5.7-9.4c0-3.6-2.3-6.6-6.9-6.6
		c-3.6,0-6.2,2.6-7.2,3.8l-4.3-5.7c4-3.5,7.7-5.1,13.3-5.1c7.3,0,14.1,4.2,14.1,12.7c0,7.1-4.5,10.4-9.5,15c-2.1,1.9-6.3,5.6-6.8,8
		h17.1v6.9H79.4z"/>
</g>
<g>
	<path class="st4" d="M27.8,60.7c-4.8,0-8.5-1.1-11.7-3l3.3-6.5c2.3,1.6,4.6,2.6,7.9,2.6c3.2,0,7.3-1.9,7.3-6.8c0-3-2-7.1-9.6-7.2
		c-2.3,0-5.1-0.1-6.5-0.1l1.6-21.5h21.8v6.9H27L26.4,33c0.2,0,0.8,0.1,1.2,0.1c11.3,0.5,15.9,6.9,15.9,13.1
		C43.5,54.2,37.2,60.7,27.8,60.7z"/>
	<path class="st4" d="M57.8,59.7V27.1c-2.5,2-6.5,3.9-9.3,5.2l-2.8-6.3c4.3-1.8,9.6-4.6,13.7-7.7h7.2v41.4H57.8z"/>
	<path class="st4" d="M76.6,59.7v-5.5c1.1-4.8,5.8-9.2,11.3-14c2.8-2.4,5.7-5.4,5.7-9.4c0-3.6-2.3-6.6-6.9-6.6
		c-3.6,0-6.2,2.6-7.2,3.8l-4.3-5.7c4-3.5,7.7-5.1,13.3-5.1c7.3,0,14.1,4.2,14.1,12.7c0,7.1-4.5,10.4-9.5,15c-2.1,1.9-6.3,5.6-6.8,8
		h17.1v6.9H76.6z"/>
</g>
</svg>
