<?xml version="1.0" encoding="iso-8859-1"?>
<!-- Generator: Adobe Illustrator 14.0.0, SVG Export Plug-In . SVG Version: 6.00 Build 43363)  -->
<!DOCTYPE svg PUBLIC "-//W3C//DTD SVG 1.1//EN" "http://www.w3.org/Graphics/SVG/1.1/DTD/svg11.dtd">
<svg version="1.1" id="Calque_1" xmlns="http://www.w3.org/2000/svg" xmlns:xlink="http://www.w3.org/1999/xlink" x="0px" y="0px"
	 width="120px" height="77px" viewBox="0 0 120 77" style="enable-background:new 0 0 120 77;" xml:space="preserve">
<g>
	<g>
		<path style="fill:#A8C855;" d="M120,61.342V0H83.514c-4.465,1.222-8.494,2.553-11.977,5.018
			c-4.598,3.252-8.248,7.702-10.709,13.453c-2.059,4.793-3.652,10.586-4.627,14.579l-0.003,0.003
			c-0.122,0.692-0.492,2.316-0.904,4.048c12.552,7.737,19.484,19.839,20.621,29.905c0.285-0.066,0.568-0.119,0.865-0.196
			C84.713,64.807,97.348,61.348,120,61.342z"/>
	</g>
	<path style="fill:#0063AC;" d="M54.581,36.665C72.45,47.265,79.298,66.769,74.688,77H0V26.989
		c23.505-2.38,34.417-0.825,50.475,7.317l2.316,5.914L54.581,36.665z"/>
	<path style="fill:#F7AF4C;" d="M97.586,62.331c-10.584,1.297-21.625,4.401-21.625,4.401l-0.006,0.006
		c0.434,3.833,0.031,7.379-1.225,10.262h-0.01h0.01H120V61.077C120,61.077,108.871,60.947,97.586,62.331z"/>
	<g>
		<g>
			<path style="fill:#D2007A;" d="M0,0v26.986c23.506-2.38,34.417-0.825,50.476,7.317l2.316,5.914l1.789-3.555
				c0.243,0.143,0.475,0.293,0.708,0.438c0.412-1.731,0.782-3.356,0.904-4.048l0.003-0.003c0.975-3.993,2.568-9.786,4.627-14.579
				c2.461-5.751,6.112-10.201,10.709-13.453C75.016,2.553,79.045,1.222,83.51,0H0z"/>
		</g>
	</g>
	<g>
		<g>
			<path style="fill:#FFFFFF;" d="M20.611,26.793h1.085v-1.441h-0.773c-0.705,0-0.948-0.332-0.948-0.978V10.969h-1.757v13.505
				C18.217,25.717,18.941,26.793,20.611,26.793z M25.123,21.906c-1.996,0-3.013,1.01-3.013,2.42c0,0.711,0.24,1.358,0.69,1.804
				c0.533,0.515,1.256,0.763,2.34,0.763c1.085,0,1.688-0.248,2.329-0.862v0.763h1.718v-5.617c0-1.906-1.206-2.882-3.596-2.882
				c-1.449,0-2.312,0.282-3.135,1.208l1.152,1.046c0.48-0.597,0.945-0.812,1.911-0.812c1.362,0,1.913,0.512,1.913,1.573v0.596
				H25.123z M27.433,23.763c0,0.596-0.121,0.993-0.379,1.241c-0.468,0.431-0.966,0.48-1.635,0.48c-1.108,0-1.606-0.429-1.606-1.192
				c0-0.763,0.534-1.21,1.567-1.21h2.053V23.763z M32.961,33.362v-1.01h-2.471v10.519h2.523V36.53c0-1.332,0.856-1.937,1.636-1.937
				c0.622,0,0.953,0.221,1.339,0.626l1.907-2c-0.699-0.728-1.397-0.99-2.394-0.99C34.416,32.23,33.441,32.756,32.961,33.362z
				 M16.207,30.999h6.722v11.873h2.701V30.999h3.617v-2.503h-13.04V30.999z M82.428,36.47l-1.594-0.162
				c-0.896-0.08-1.051-0.526-1.051-0.908c0-0.526,0.426-1.01,1.439-1.01c0.877,0,1.77,0.162,2.352,0.708l1.557-1.635
				c-0.973-0.951-2.297-1.232-3.867-1.232c-2.061,0-3.91,1.172-3.91,3.352c0,1.938,1.129,2.765,2.953,2.947l1.598,0.162
				c0.793,0.08,1.066,0.444,1.066,0.969c0,0.788-0.912,1.09-1.787,1.09c-0.777,0-1.869-0.119-2.701-0.988l-1.652,1.715
				c1.283,1.334,2.723,1.515,4.316,1.515c2.391,0,4.295-1.11,4.295-3.432C85.441,37.782,84.432,36.673,82.428,36.47z M71.641,33.362
				v-1.01h-2.469v10.519h2.523V36.53c0-1.332,0.859-1.937,1.637-1.937c0.621,0,0.953,0.221,1.338,0.626l1.908-2
				c-0.703-0.728-1.398-0.99-2.395-0.99C73.098,32.23,72.125,32.756,71.641,33.362z M91.76,40.771c-1.418,0-2.219-0.99-2.219-2.344
				h6.34v-1.17c0-2.887-1.594-5.027-4.414-5.027c-2.621,0-4.41,1.938-4.41,5.371c0,4.257,2.291,5.369,4.682,5.369h5.635v-2.199
				H91.76z M89.93,35.5c0.27-0.625,0.834-1.088,1.691-1.088c0.854,0,1.418,0.463,1.688,1.088c0.158,0.385,0.217,0.668,0.238,1.133
				h-3.852C89.713,36.167,89.771,35.885,89.93,35.5z M83.521,0H75.76c-9.213,4.59-14.568,10.814-17.483,16.905
				c-3.226,6.726-5.143,16.48-5.83,20.495l-0.003,0.001l-1.603-5.049h-2.66l3.729,10.519h1.982c0,0,2.002-7.997,2.316-9.787
				l-0.023,0.022c0.971-3.995,2.57-9.82,4.642-14.635c2.461-5.751,6.112-10.201,10.709-13.453C75.023,2.548,79.055,1.222,83.521,0z
				 M42.482,32.23c-1.688,0-2.66,0.325-3.655,1.453l1.611,1.635c0.527-0.626,0.978-0.866,1.949-0.866
				c1.342,0,1.884,0.503,1.884,1.654v0.526h-2.394c-2.349,0-3.457,1.372-3.457,3.047c0,0.928,0.293,1.775,0.839,2.362
				c0.598,0.625,1.437,0.927,2.583,0.927c1.167,0,1.807-0.302,2.488-1.007v0.909h2.471v-6.924
				C46.801,33.482,45.32,32.23,42.482,32.23z M44.271,38.994c0,0.646-0.095,1.07-0.37,1.331c-0.444,0.446-0.892,0.503-1.591,0.503
				c-0.995,0-1.46-0.48-1.46-1.208c0-0.748,0.506-1.192,1.422-1.192h1.999V38.994z M62.424,32.23c-2.625,0-4.411,1.938-4.411,5.371
				c0,4.257,2.29,5.39,4.684,5.39c1.828,0,2.82-0.587,3.85-1.655l-1.539-1.555c-0.641,0.667-1.186,0.99-2.293,0.99
				c-1.416,0-2.216-0.99-2.216-2.344h6.339v-1.17C66.838,34.371,65.244,32.23,62.424,32.23z M60.499,36.633
				c0.021-0.465,0.083-0.748,0.237-1.133c0.272-0.625,0.834-1.088,1.688-1.088c0.855,0,1.422,0.463,1.695,1.088
				c0.154,0.385,0.213,0.668,0.23,1.133H60.499z"/>
		</g>
	</g>
</g>
<g>
	<g>
		<path style="fill:#FFFFFF;" d="M12.478,58.235H9.369v-7.428h2.982c1.451,0,2.297,0.815,2.297,2.088
			c0,0.823-0.545,1.354-0.918,1.532c0.448,0.21,1.022,0.68,1.022,1.668C14.753,57.484,13.803,58.235,12.478,58.235z M12.238,52.102
			H10.82v1.712h1.418c0.614,0,0.959-0.344,0.959-0.856C13.197,52.445,12.853,52.102,12.238,52.102z M12.33,55.117h-1.51v1.825h1.51
			c0.66,0,0.972-0.417,0.972-0.919C13.302,55.525,12.99,55.117,12.33,55.117z"/>
		<path style="fill:#FFFFFF;" d="M16.578,51.873v-1.106h1.386v1.106H16.578z M16.599,58.235v-5.435h1.354v5.435H16.599z"/>
		<path style="fill:#FFFFFF;" d="M21,55.941c0,0.699,0.428,1.209,1.188,1.209c0.595,0,0.887-0.166,1.232-0.51l0.822,0.803
			c-0.552,0.553-1.084,0.855-2.063,0.855c-1.283,0-2.515-0.584-2.515-2.784c0-1.774,0.958-2.777,2.366-2.777
			c1.514,0,2.37,1.107,2.37,2.601v0.604H21z M21.729,51.936l-1.188-1.774h1.429l0.669,1.774H21.729z M22.939,54.428
			c-0.146-0.322-0.447-0.564-0.908-0.564c-0.457,0-0.758,0.242-0.906,0.564c-0.082,0.197-0.113,0.346-0.125,0.585h2.065
			C23.055,54.773,23.023,54.625,22.939,54.428z"/>
		<path style="fill:#FFFFFF;" d="M28.364,58.235H27.3l-2.002-5.435h1.428l1.106,3.357l1.096-3.357h1.43L28.364,58.235z"/>
		<path style="fill:#FFFFFF;" d="M34.581,54.283c-0.21-0.209-0.387-0.324-0.719-0.324c-0.418,0-0.877,0.313-0.877,1.002v3.274H31.63
			v-5.435h1.323v0.521c0.263-0.312,0.783-0.585,1.368-0.585c0.531,0,0.906,0.138,1.281,0.513L34.581,54.283z"/>
		<path style="fill:#FFFFFF;" d="M37.586,55.941c0,0.699,0.427,1.209,1.188,1.209c0.594,0,0.886-0.166,1.229-0.51l0.825,0.803
			c-0.552,0.553-1.085,0.855-2.065,0.855c-1.283,0-2.515-0.584-2.515-2.784c0-1.774,0.962-2.777,2.368-2.777
			c1.516,0,2.368,1.107,2.368,2.601v0.604H37.586z M39.525,54.428c-0.145-0.322-0.45-0.564-0.908-0.564
			c-0.457,0-0.76,0.242-0.907,0.564c-0.083,0.197-0.115,0.346-0.124,0.585h2.063C39.641,54.773,39.609,54.625,39.525,54.428z"/>
		<path style="fill:#FFFFFF;" d="M14.648,69.848v-4.33l-1.42,2.816h-0.98l-1.428-2.816v4.33H9.369V62.42h1.428l1.941,4.014
			l1.931-4.014h1.428v7.428H14.648z"/>
		<path style="fill:#FFFFFF;" d="M21.949,69.24c-0.334,0.355-0.888,0.67-1.689,0.67c-0.803,0-1.346-0.314-1.679-0.67
			c-0.491-0.509-0.617-1.126-0.617-2.117c0-0.979,0.126-1.596,0.617-2.106c0.333-0.354,0.876-0.667,1.679-0.667
			c0.802,0,1.355,0.313,1.689,0.667c0.49,0.511,0.614,1.128,0.614,2.106C22.563,68.114,22.439,68.731,21.949,69.24z M20.896,65.811
			c-0.158-0.158-0.366-0.24-0.637-0.24c-0.271,0-0.469,0.082-0.626,0.24c-0.282,0.281-0.314,0.75-0.314,1.313
			c0,0.564,0.032,1.045,0.314,1.326c0.157,0.155,0.354,0.239,0.626,0.239c0.271,0,0.479-0.084,0.637-0.239
			c0.28-0.281,0.314-0.762,0.314-1.326C21.211,66.561,21.177,66.092,20.896,65.811z"/>
		<path style="fill:#FFFFFF;" d="M27.488,69.848v-3.287c0-0.74-0.47-0.99-0.897-0.99c-0.427,0-0.906,0.25-0.906,0.99v3.287h-1.355
			v-5.436h1.324v0.502c0.354-0.377,0.854-0.564,1.355-0.564c0.542,0,0.98,0.177,1.283,0.479c0.437,0.438,0.552,0.949,0.552,1.543
			v3.476H27.488z"/>
		<path style="fill:#FFFFFF;" d="M32.475,69.848c-1.106,0-1.575-0.784-1.575-1.557v-2.689h-0.573v-1.032h0.573v-1.608h1.357v1.608
			h0.959v1.032h-0.959v2.608c0,0.312,0.146,0.489,0.47,0.489h0.489v1.148H32.475z"/>
		<path style="fill:#FFFFFF;" d="M36.7,69.91c-0.855,0-1.629-0.096-2.315-0.783l0.886-0.887c0.447,0.448,1.032,0.512,1.448,0.512
			c0.47,0,0.961-0.156,0.961-0.564c0-0.27-0.147-0.457-0.574-0.5l-0.856-0.084c-0.979-0.094-1.585-0.52-1.585-1.523
			c0-1.127,0.992-1.73,2.098-1.73c0.846,0,1.555,0.145,2.074,0.637l-0.832,0.844c-0.313-0.281-0.793-0.365-1.263-0.365
			c-0.542,0-0.772,0.25-0.772,0.523c0,0.197,0.083,0.427,0.563,0.468l0.856,0.085c1.073,0.103,1.617,0.678,1.617,1.594
			C39.005,69.336,37.982,69.91,36.7,69.91z"/>
		<path style="fill:#FFFFFF;" d="M44.368,69.24c-0.337,0.355-0.891,0.67-1.691,0.67c-0.804,0-1.347-0.314-1.681-0.67
			c-0.488-0.509-0.614-1.126-0.614-2.117c0-0.979,0.126-1.596,0.614-2.106c0.334-0.354,0.877-0.667,1.681-0.667
			c0.801,0,1.354,0.313,1.691,0.667c0.49,0.511,0.614,1.128,0.614,2.106C44.982,68.114,44.858,68.731,44.368,69.24z M43.314,65.811
			c-0.158-0.158-0.368-0.24-0.638-0.24c-0.272,0-0.469,0.082-0.626,0.24c-0.282,0.281-0.313,0.75-0.313,1.313
			c0,0.564,0.031,1.045,0.313,1.326c0.157,0.155,0.354,0.239,0.626,0.239c0.27,0,0.479-0.084,0.638-0.239
			c0.278-0.281,0.312-0.762,0.312-1.326C43.626,66.561,43.593,66.092,43.314,65.811z"/>
		<path style="fill:#FFFFFF;" d="M49.872,69.848v-0.5c-0.354,0.376-0.854,0.563-1.355,0.563c-0.54,0-0.977-0.178-1.284-0.482
			c-0.437-0.437-0.549-0.947-0.549-1.543v-3.473h1.355v3.285c0,0.742,0.469,0.991,0.895,0.991c0.431,0,0.909-0.249,0.909-0.991
			v-3.285h1.358v5.436H49.872z"/>
		<path style="fill:#FFFFFF;" d="M56.145,65.893c-0.207-0.209-0.384-0.322-0.721-0.322c-0.416,0-0.877,0.312-0.877,1.001v3.276
			h-1.355v-5.436h1.323v0.521c0.263-0.313,0.785-0.584,1.37-0.584c0.531,0,0.906,0.136,1.281,0.512L56.145,65.893z"/>
		<path style="fill:#FFFFFF;" d="M58.386,63.482v-1.105h1.388v1.105H58.386z M58.406,69.848v-5.436h1.358v5.436H58.406z"/>
		<path style="fill:#FFFFFF;" d="M63.529,69.91c-0.854,0-1.627-0.096-2.318-0.783l0.892-0.887c0.443,0.448,1.028,0.512,1.447,0.512
			c0.47,0,0.963-0.156,0.963-0.564c0-0.27-0.147-0.457-0.576-0.5l-0.856-0.084c-0.978-0.094-1.585-0.52-1.585-1.523
			c0-1.127,0.992-1.73,2.096-1.73c0.845,0,1.554,0.145,2.076,0.637l-0.836,0.844c-0.313-0.281-0.791-0.365-1.264-0.365
			c-0.537,0-0.768,0.25-0.768,0.523c0,0.197,0.083,0.427,0.562,0.468l0.855,0.085c1.075,0.103,1.618,0.678,1.618,1.594
			C65.835,69.336,64.813,69.91,63.529,69.91z"/>
	</g>
</g>
</svg>
