<?xml version="1.0" encoding="iso-8859-1"?>
<!-- Generator: Adobe Illustrator 14.0.0, SVG Export Plug-In . SVG Version: 6.00 Build 43363)  -->
<!DOCTYPE svg PUBLIC "-//W3C//DTD SVG 1.1//EN" "http://www.w3.org/Graphics/SVG/1.1/DTD/svg11.dtd">
<svg version="1.1" id="Calque_1" xmlns="http://www.w3.org/2000/svg" xmlns:xlink="http://www.w3.org/1999/xlink" x="0px" y="0px"
	 width="120px" height="77px" viewBox="0 0 120 77" style="enable-background:new 0 0 120 77;" xml:space="preserve">
<g>
</g>
<g>
	<path style="fill:#00AA91;" d="M88.445,13.912c2.591,0,4.043,1.416,4.043,3.492c0,3.731-5.678,6.193-6.249,7.903
		c2.077,1.232,3.677,1.194,3.677,3.859v1.654c0,0.221-0.11,3.051-7.168,10.109c-8.142,8.141-8.656,8.453-9.925,8.453
		c-0.073,0-0.734-0.422-0.734-1.104c0-1.01,3.456,0.258,4.41-6.982c0.405-3.033,0.589-4.687,1.287-7.72
		c0.386-1.709,3.051-12.46,4.226-15.438c-1.046-0.294-2.756,0.331-2.756-0.185C79.256,15.805,87.324,13.912,88.445,13.912z"/>
	<path d="M78.704,14.096h0.736c-0.295,1.323-7.903,25.142-8.271,32.529c-0.037,1.012,0,1.893,0,2.941
		c0,1.012,0.092,3.859,1.653,3.859c3.474,0,12.259-9.318,12.682-9.373c-0.129,0.387-0.552,3.088-0.552,3.859v2.941
		c0,4.705-10.972,10.844-15.622,10.844c-2.095,0-2.608-1.471-3.49-2.574c-0.975,0.459-3.052,2.021-4.411,2.021
		c-1.729,0-4.044-3.123-4.044-3.123c-1.837,1.838-3.767,2.939-5.513,2.939c-1.359,0-2.298-0.828-3.675-2.205
		c-1.563,1.029-4.796,5.514-8.271,5.514h-2.573c-2.721,0-4.962-3.676-4.962-9.189c0-3.16,1.984-9.631,1.653-10.844
		c-6.892,1.932-22.733,17.553-24.81,18.93v-0.551c0.366-1.121,2.021-4.227,2.205-4.412c-0.294-0.402-0.625-0.605-1.103-0.916
		c1.085-1.619,1.562-1.932,2.757-3.127c-0.993-0.496-0.735,0-0.735,0v-0.551c1.414-1.414,1.8-1.322,2.94-2.756
		c-0.662-0.607-0.496-0.295-0.919-0.184v-0.553c1.745-1.744,12.809-10.346,22.604-15.438c2.113-1.084,7.608-15.235,8.271-15.988
		c0.147-0.185,4.87-1.157,6.248-1.103l-5.881,11.946v0.734h0.92c0.459-0.238,3.657-1.47,4.777-1.47c1.195,0,2.279,1.286,6.616,1.286
		h2.205v0.919c-1.176,1.636-2.664,0.479-15.069,6.433c-4.815,2.297-6.433,8.032-6.433,14.151c0,1.178-0.055,1.654,0,2.205
		c0,0.074,0.424,2.574,1.47,2.574c2.758,0,5.312-5.973,8.639-14.152c1.746-4.3,2.407-7.222,7.901-7.536
		c-0.531,1.6-3.858,12.702-3.858,15.438c0,0,0.294,2.941,1.653,2.941c1.141,0,2.077-2.629,3.859-10.291
		c1.673-7.187,2.225-9.723,2.39-10.292c4.153-14.062,3.565-14.852,4.778-15.991c0.515-0.478,4.154-0.771,4.595-0.919h0.918
		c0.019,0.276,0,0.313,0,0.553c0,0-8.637,27.42-8.637,33.815c0,1.27,0.863,1.471,1.103,1.471c1.342,0,2.665-7.684,3.309-10.107
		c0.771-2.942,1.396-5.036,2.571-10.109C73.817,11.909,74.479,15.494,78.704,14.096z"/>
	<path style="fill:#FFFFFF;" d="M87.895,15.383c2.039,0,2.389,1.011,2.389,2.205c0,4.024-7.571,7.277-8.086,7.719h-0.552v-0.735
		C83.114,21.631,82.546,15.383,87.895,15.383z"/>
	<path style="fill:#00AA91;" d="M109.58,20.345c1.323,0,1.213,0.33,1.471,1.103c-2.205,1.048-7.72,2.958-7.72,5.329
		c0,4.099,7.536,0,7.536,5.147c0,8.435-23.562,19.371-24.075,19.664c-0.662-1.102-0.184-0.846-0.184-0.918
		c0-1.434,0.551,0.385,11.945-7.352c1.305-0.883,10.476-8.178,10.476-11.211c0-0.073-0.772-1.47-2.206-1.47h-2.021
		c-2.095,0-3.308-2.169-3.308-3.492C101.494,24.461,106.548,20.345,109.58,20.345z"/>
	<path style="fill:#00AA91;" d="M102.229,21.264v0.552c-1.342,3.363-4.355,16.173-9.557,16.173c-1.948,0-2.756-2.391-2.756-2.941
		v-1.654c0-0.055,1.139-6.359,3.491-10.291h1.286c-0.367,1.011-3.124,8.453-3.124,10.659c0,1.341,0.478,2.021,1.654,2.021
		C97.561,35.782,99.216,21.852,102.229,21.264z"/>
	<path style="fill:#FFFFFF;" d="M84.218,27.512h1.654c0.81,0,2.022,1.36,2.022,3.492c0,1.636-6.249,10.201-9.741,11.947v-1.287
		C79.551,38.852,78.355,27.512,84.218,27.512z"/>
	<circle style="fill:#D282BE;" cx="56.606" cy="22.958" r="5.49"/>
</g>
</svg>
