<?xml version="1.0" encoding="iso-8859-1"?>
<!-- Generator: Adobe Illustrator 14.0.0, SVG Export Plug-In . SVG Version: 6.00 Build 43363)  -->
<!DOCTYPE svg PUBLIC "-//W3C//DTD SVG 1.1//EN" "http://www.w3.org/Graphics/SVG/1.1/DTD/svg11.dtd">
<svg version="1.1" id="Calque_1" xmlns="http://www.w3.org/2000/svg" xmlns:xlink="http://www.w3.org/1999/xlink" x="0px" y="0px"
	 width="120px" height="77px" viewBox="0 0 120 77" style="enable-background:new 0 0 120 77;" xml:space="preserve">
<rect style="fill:#640082;" width="120" height="77"/>
<g>
	<g>
		<path style="fill:#FFFFFF;" d="M27.968,32.021c-2.025,0-2.906-1.357-2.906-2.924V17.145h2.136v11.828
			c0,0.811,0.292,1.229,1.148,1.229h0.945v1.819H27.968z"/>
		<path style="fill:#FFFFFF;" d="M37.334,32.021v-0.96c-0.779,0.774-1.506,1.09-2.819,1.09c-1.32,0-2.2-0.316-2.844-0.966
			c-0.547-0.563-0.836-1.38-0.836-2.278c0-1.773,1.231-3.05,3.652-3.05h2.806v-0.753c0-1.335-0.67-1.984-2.324-1.984
			c-1.166,0-1.733,0.273-2.314,1.026l-1.403-1.315c1.004-1.174,2.05-1.53,3.801-1.53c2.909,0,4.367,1.233,4.367,3.638v7.083H37.334z
			 M37.293,27.34h-2.489c-1.255,0-1.901,0.567-1.901,1.525c0,0.959,0.605,1.506,1.942,1.506c0.818,0,1.421-0.062,1.984-0.608
			c0.316-0.31,0.464-0.815,0.464-1.566V27.34z"/>
	</g>
	<path style="fill:#FFFFFF;" d="M15.163,36.438v17.765h-3.124V36.438H6.382v-2.799h14.439v2.799H15.163z"/>
	<path style="fill:#FFFFFF;" d="M29.09,42.996c-0.661-0.661-1.182-0.98-2.191-0.98c-1.589,0-2.917,1.271-2.917,3.29v8.897h-2.944
		V39.563h2.885v1.586c0.753-1.037,2.253-1.76,3.898-1.76c1.417,0,2.486,0.375,3.496,1.387L29.09,42.996z"/>
	<path style="fill:#FFFFFF;" d="M41.138,54.203v-1.332c-1.068,1.072-2.079,1.506-3.897,1.506c-1.819,0-3.03-0.434-3.928-1.332
		c-0.75-0.775-1.154-1.904-1.154-3.145c0-2.457,1.703-4.217,5.052-4.217h3.869v-1.039c0-1.846-0.928-2.744-3.207-2.744
		c-1.612,0-2.398,0.375-3.201,1.418l-1.938-1.822c1.383-1.618,2.829-2.107,5.254-2.107c4.019,0,6.035,1.706,6.035,5.025v9.789
		H41.138z M41.079,47.732h-3.438c-1.73,0-2.628,0.783-2.628,2.109c0,1.328,0.839,2.078,2.684,2.078c1.129,0,1.97-0.085,2.744-0.838
		c0.437-0.429,0.638-1.125,0.638-2.162V47.732z"/>
	<path style="fill:#FFFFFF;" d="M62.609,47.732c0,2.514,1.331,4.103,3.727,4.103c1.645,0,2.513-0.464,3.555-1.501l1.876,1.761
		c-1.504,1.5-2.918,2.282-5.49,2.282c-3.667,0-6.585-1.939-6.585-7.512c0-4.734,2.457-7.477,6.21-7.477
		c3.931,0,6.213,2.887,6.213,7.048v1.296H62.609z M68.789,43.69c-0.463-1.099-1.503-1.849-2.888-1.849s-2.457,0.75-2.914,1.849
		c-0.29,0.665-0.349,1.099-0.378,1.993h6.585C69.168,44.789,69.079,44.355,68.789,43.69z"/>
	<path style="fill:#FFFFFF;" d="M83.495,42.996c-0.664-0.661-1.187-0.98-2.193-0.98c-1.589,0-2.921,1.271-2.921,3.29v8.897h-2.944
		V39.563h2.888v1.586c0.751-1.037,2.257-1.76,3.901-1.76c1.414,0,2.48,0.375,3.493,1.387L83.495,42.996z"/>
	<path style="fill:#FFFFFF;" d="M92.851,54.377c-2.398,0-4.415-0.404-6.151-2.107l1.935-1.936c1.184,1.211,2.775,1.53,4.217,1.53
		c1.789,0,3.21-0.638,3.21-2.022c0-0.983-0.553-1.615-1.97-1.73l-2.339-0.204c-2.74-0.23-4.329-1.471-4.329-4.042
		c0-2.861,2.451-4.477,5.516-4.477c2.194,0,4.072,0.46,5.428,1.645l-1.849,1.881c-0.921-0.783-2.224-1.072-3.608-1.072
		c-1.763,0-2.654,0.783-2.654,1.879c0,0.867,0.458,1.529,2.017,1.674l2.313,0.201c2.743,0.232,4.361,1.529,4.361,4.131
		C98.945,52.785,96.344,54.377,92.851,54.377z"/>
	<path style="fill:#FFFFFF;" d="M104.122,47.732c0,2.514,1.326,4.103,3.724,4.103c1.65,0,2.513-0.464,3.553-1.501l1.875,1.761
		c-1.5,1.5-2.915,2.282-5.487,2.282c-3.664,0-6.585-1.939-6.585-7.512c0-4.734,2.457-7.477,6.21-7.477
		c3.928,0,6.211,2.887,6.211,7.048v1.296H104.122z M110.303,43.69c-0.461-1.099-1.503-1.849-2.892-1.849
		c-1.385,0-2.456,0.75-2.917,1.849c-0.287,0.665-0.346,1.099-0.372,1.993h6.585C110.678,44.789,110.586,44.355,110.303,43.69z"/>
	<path style="fill:#FFFFFF;" d="M64.419,27.448c-4.881,0-6.963,6.97-6.963,6.97l-1.843,5.145l-3.449,9.402l-3.455-9.402h-3.115
		l5.372,14.641h2.397l5.368-14.641l1.84-5.145c0,0,2.085-6.97,6.969-6.97H64.419z"/>
</g>
</svg>
