<?xml version="1.0" encoding="iso-8859-1"?>
<!-- Generator: Adobe Illustrator 14.0.0, SVG Export Plug-In . SVG Version: 6.00 Build 43363)  -->
<!DOCTYPE svg PUBLIC "-//W3C//DTD SVG 1.1//EN" "http://www.w3.org/Graphics/SVG/1.1/DTD/svg11.dtd">
<svg version="1.1" id="Calque_1" xmlns="http://www.w3.org/2000/svg" xmlns:xlink="http://www.w3.org/1999/xlink" x="0px" y="0px"
	 width="120px" height="77px" viewBox="0 0 120 77" style="enable-background:new 0 0 120 77;" xml:space="preserve">
<g>
	<g>
		<path style="fill:#A8C855;" d="M120,61.342V0H83.514c-4.465,1.222-8.494,2.553-11.977,5.018
			c-4.598,3.252-8.248,7.702-10.709,13.453c-2.059,4.793-3.652,10.586-4.627,14.579l-0.003,0.003
			c-0.122,0.692-0.492,2.316-0.904,4.048c12.552,7.737,19.484,19.839,20.621,29.905c0.285-0.066,0.568-0.119,0.865-0.196
			C84.713,64.807,97.348,61.348,120,61.342z"/>
	</g>
	<path style="fill:#0063AC;" d="M54.581,36.665C72.45,47.265,79.298,66.769,74.688,77H0V26.989
		c23.505-2.38,34.417-0.825,50.475,7.317l2.316,5.914L54.581,36.665z"/>
	<path style="fill:#F7AF4C;" d="M97.586,62.331c-10.584,1.297-21.625,4.401-21.625,4.401l-0.006,0.006
		c0.434,3.833,0.031,7.379-1.225,10.262h-0.01h0.01H120V61.077C120,61.077,108.871,60.947,97.586,62.331z"/>
	<g>
		<g>
			<path style="fill:#D2007A;" d="M0,0v26.986c23.506-2.38,34.417-0.825,50.476,7.317l2.316,5.914l1.789-3.555
				c0.243,0.143,0.475,0.293,0.708,0.438c0.412-1.731,0.782-3.356,0.904-4.048l0.003-0.003c0.975-3.993,2.568-9.786,4.627-14.579
				c2.461-5.751,6.112-10.201,10.709-13.453C75.016,2.553,79.045,1.222,83.51,0H0z"/>
		</g>
	</g>
	<g>
		<g>
			<path style="fill:#FFFFFF;" d="M20.611,26.793h1.085v-1.441h-0.773c-0.705,0-0.948-0.332-0.948-0.978V10.969h-1.757v13.505
				C18.217,25.717,18.941,26.793,20.611,26.793z M25.123,21.906c-1.996,0-3.013,1.01-3.013,2.42c0,0.711,0.24,1.358,0.69,1.804
				c0.533,0.515,1.256,0.763,2.34,0.763c1.085,0,1.688-0.248,2.329-0.862v0.763h1.718v-5.617c0-1.906-1.206-2.882-3.596-2.882
				c-1.449,0-2.312,0.282-3.135,1.208l1.152,1.046c0.48-0.597,0.945-0.812,1.911-0.812c1.362,0,1.913,0.512,1.913,1.573v0.596
				H25.123z M27.433,23.763c0,0.596-0.121,0.993-0.379,1.241c-0.468,0.431-0.966,0.48-1.635,0.48c-1.108,0-1.606-0.429-1.606-1.192
				c0-0.763,0.534-1.21,1.567-1.21h2.053V23.763z M32.961,33.362v-1.01h-2.471v10.519h2.523V36.53c0-1.332,0.856-1.937,1.636-1.937
				c0.622,0,0.953,0.221,1.339,0.626l1.907-2c-0.699-0.728-1.397-0.99-2.394-0.99C34.416,32.23,33.441,32.756,32.961,33.362z
				 M16.207,30.999h6.722v11.873h2.701V30.999h3.617v-2.503h-13.04V30.999z M82.428,36.47l-1.594-0.162
				c-0.896-0.08-1.051-0.526-1.051-0.908c0-0.526,0.426-1.01,1.439-1.01c0.877,0,1.77,0.162,2.352,0.708l1.557-1.635
				c-0.973-0.951-2.297-1.232-3.867-1.232c-2.061,0-3.91,1.172-3.91,3.352c0,1.938,1.129,2.765,2.953,2.947l1.598,0.162
				c0.793,0.08,1.066,0.444,1.066,0.969c0,0.788-0.912,1.09-1.787,1.09c-0.777,0-1.869-0.119-2.701-0.988l-1.652,1.715
				c1.283,1.334,2.723,1.515,4.316,1.515c2.391,0,4.295-1.11,4.295-3.432C85.441,37.782,84.432,36.673,82.428,36.47z M71.641,33.362
				v-1.01h-2.469v10.519h2.523V36.53c0-1.332,0.859-1.937,1.637-1.937c0.621,0,0.953,0.221,1.338,0.626l1.908-2
				c-0.703-0.728-1.398-0.99-2.395-0.99C73.098,32.23,72.125,32.756,71.641,33.362z M91.76,40.771c-1.418,0-2.219-0.99-2.219-2.344
				h6.34v-1.17c0-2.887-1.594-5.027-4.414-5.027c-2.621,0-4.41,1.938-4.41,5.371c0,4.257,2.291,5.369,4.682,5.369h5.635v-2.199
				H91.76z M89.93,35.5c0.27-0.625,0.834-1.088,1.691-1.088c0.854,0,1.418,0.463,1.688,1.088c0.158,0.385,0.217,0.668,0.238,1.133
				h-3.852C89.713,36.167,89.771,35.885,89.93,35.5z M83.521,0H75.76c-9.213,4.59-14.568,10.814-17.483,16.905
				c-3.226,6.726-5.143,16.48-5.83,20.495l-0.003,0.001l-1.603-5.049h-2.66l3.729,10.519h1.982c0,0,2.002-7.997,2.316-9.787
				l-0.023,0.022c0.971-3.995,2.57-9.82,4.642-14.635c2.461-5.751,6.112-10.201,10.709-13.453C75.023,2.548,79.055,1.222,83.521,0z
				 M42.482,32.23c-1.688,0-2.66,0.325-3.655,1.453l1.611,1.635c0.527-0.626,0.978-0.866,1.949-0.866
				c1.342,0,1.884,0.503,1.884,1.654v0.526h-2.394c-2.349,0-3.457,1.372-3.457,3.047c0,0.928,0.293,1.775,0.839,2.362
				c0.598,0.625,1.437,0.927,2.583,0.927c1.167,0,1.807-0.302,2.488-1.007v0.909h2.471v-6.924
				C46.801,33.482,45.32,32.23,42.482,32.23z M44.271,38.994c0,0.646-0.095,1.07-0.37,1.331c-0.444,0.446-0.892,0.503-1.591,0.503
				c-0.995,0-1.46-0.48-1.46-1.208c0-0.748,0.506-1.192,1.422-1.192h1.999V38.994z M62.424,32.23c-2.625,0-4.411,1.938-4.411,5.371
				c0,4.257,2.29,5.39,4.684,5.39c1.828,0,2.82-0.587,3.85-1.655l-1.539-1.555c-0.641,0.667-1.186,0.99-2.293,0.99
				c-1.416,0-2.216-0.99-2.216-2.344h6.339v-1.17C66.838,34.371,65.244,32.23,62.424,32.23z M60.499,36.633
				c0.021-0.465,0.083-0.748,0.237-1.133c0.272-0.625,0.834-1.088,1.688-1.088c0.855,0,1.422,0.463,1.695,1.088
				c0.154,0.385,0.213,0.668,0.23,1.133H60.499z"/>
		</g>
	</g>
</g>
<g>
	<path style="fill:#FFFFFF;" d="M18.833,67.371l-2.619-4.066v4.066h-1.29v-6.623h1.151l2.622,4.057v-4.057h1.29v6.623H18.833z"/>
	<path style="fill:#FFFFFF;" d="M22.386,65.324c0,0.621,0.381,1.078,1.06,1.078c0.531,0,0.795-0.147,1.099-0.457l0.735,0.717
		c-0.493,0.494-0.966,0.766-1.84,0.766c-1.146,0-2.244-0.52-2.244-2.486c0-1.58,0.859-2.473,2.114-2.473
		c1.347,0,2.108,0.984,2.108,2.315v0.54H22.386z M24.119,63.973c-0.13-0.283-0.402-0.5-0.81-0.5c-0.41,0-0.679,0.217-0.809,0.5
		c-0.077,0.18-0.104,0.313-0.115,0.522h1.843C24.219,64.285,24.189,64.152,24.119,63.973z"/>
	<path style="fill:#FFFFFF;" d="M28.247,68.15c-0.104,0.27-0.216,0.476-0.363,0.623c-0.28,0.277-0.641,0.372-1.043,0.372h-0.472
		v-1.087h0.277c0.343,0,0.484-0.082,0.603-0.437l0.206-0.597l-1.656-4.5h1.272l1.007,2.994l0.969-2.994h1.272L28.247,68.15z"/>
	<path style="fill:#FFFFFF;" d="M33.063,65.277v-1.125h2.864v1.125H33.063z"/>
	<path style="fill:#FFFFFF;" d="M40.696,61.902v1.627h2.616v1.152h-2.616v2.689h-1.291v-6.623h4.361v1.154H40.696z"/>
	<path style="fill:#FFFFFF;" d="M46.165,67.371c-0.995,0-1.412-0.699-1.412-1.388v-5.235h1.208v5.162
		c0,0.289,0.121,0.437,0.428,0.437h0.464v1.024H46.165z"/>
	<path style="fill:#FFFFFF;" d="M50.305,67.371v-0.422c-0.325,0.327-0.635,0.467-1.19,0.467c-0.552,0-0.947-0.14-1.237-0.426
		c-0.263-0.271-0.401-0.662-0.401-1.09c0-0.771,0.531-1.405,1.656-1.405h1.144v-0.242c0-0.528-0.261-0.759-0.904-0.759
		c-0.463,0-0.679,0.105-0.93,0.396l-0.771-0.75c0.472-0.522,0.938-0.671,1.748-0.671c1.358,0,2.066,0.576,2.066,1.711v3.191H50.305z
		 M50.275,65.324h-0.957c-0.438,0-0.68,0.204-0.68,0.547c0,0.336,0.225,0.559,0.697,0.559c0.334,0,0.549-0.027,0.762-0.23
		c0.133-0.121,0.178-0.319,0.178-0.615V65.324z"/>
	<path style="fill:#FFFFFF;" d="M55.602,67.371v-2.932c0-0.656-0.413-0.881-0.797-0.881c-0.381,0-0.81,0.225-0.81,0.881v2.932h-1.21
		v-4.846h1.181v0.445c0.319-0.333,0.762-0.502,1.211-0.502c0.484,0,0.874,0.16,1.14,0.429c0.393,0.39,0.499,0.845,0.499,1.376v3.098
		H55.602z"/>
	<path style="fill:#FFFFFF;" d="M60.793,67.371v-0.457c-0.334,0.371-0.688,0.514-1.199,0.514c-0.472,0-0.921-0.172-1.192-0.438
		c-0.481-0.484-0.49-1.322-0.49-2.049c0-0.721,0.009-1.551,0.49-2.035c0.271-0.269,0.708-0.438,1.181-0.438
		c0.496,0,0.865,0.127,1.182,0.482v-2.203h1.21v6.623H60.793z M59.937,63.559c-0.724,0-0.814,0.594-0.814,1.383
		c0,0.791,0.091,1.393,0.814,1.393c0.727,0,0.827-0.602,0.827-1.393C60.764,64.152,60.663,63.559,59.937,63.559z"/>
	<path style="fill:#FFFFFF;" d="M65.96,63.846c-0.183-0.187-0.342-0.287-0.638-0.287c-0.372,0-0.785,0.277-0.785,0.893v2.92h-1.205
		v-4.846h1.182v0.467c0.23-0.283,0.696-0.523,1.217-0.523c0.472,0,0.809,0.121,1.143,0.455L65.96,63.846z"/>
	<path style="fill:#FFFFFF;" d="M68.223,65.324c0,0.621,0.381,1.078,1.057,1.078c0.534,0,0.791-0.147,1.102-0.457l0.735,0.717
		c-0.49,0.494-0.969,0.766-1.843,0.766c-1.146,0-2.241-0.52-2.241-2.486c0-1.58,0.854-2.473,2.111-2.473
		c1.35,0,2.111,0.984,2.111,2.315v0.54H68.223z M69.952,63.973c-0.13-0.283-0.401-0.5-0.809-0.5c-0.413,0-0.679,0.217-0.81,0.5
		c-0.073,0.18-0.1,0.313-0.111,0.522h1.839C70.053,64.285,70.029,64.152,69.952,63.973z"/>
</g>
</svg>
