<?xml version="1.0" encoding="iso-8859-1"?>
<!-- Generator: Adobe Illustrator 14.0.0, SVG Export Plug-In . SVG Version: 6.00 Build 43363)  -->
<!DOCTYPE svg PUBLIC "-//W3C//DTD SVG 1.1//EN" "http://www.w3.org/Graphics/SVG/1.1/DTD/svg11.dtd">
<svg version="1.1" id="Calque_1" xmlns="http://www.w3.org/2000/svg" xmlns:xlink="http://www.w3.org/1999/xlink" x="0px" y="0px"
	 width="120px" height="77px" viewBox="0 0 120 77" style="enable-background:new 0 0 120 77;" xml:space="preserve">
<rect style="fill-rule:evenodd;clip-rule:evenodd;fill:#640082;" width="120" height="77"/>
<g>
	<path style="fill:#FFFFFF;" d="M24.946,60.209c-4.81,0-8.505-1.056-11.672-2.991l3.343-6.452c2.288,1.584,4.634,2.64,7.86,2.64
		c3.226,0,7.273-1.936,7.273-6.804c0-2.992-1.994-7.098-9.62-7.215c-2.346,0-5.103-0.059-6.452-0.059l1.642-21.526h21.761v6.921
		H24.184l-0.586,7.86c0.234,0,0.762,0.059,1.173,0.059c11.32,0.528,15.896,6.921,15.896,13.139
		C40.666,53.698,34.39,60.209,24.946,60.209z"/>
	<path style="fill:#FFFFFF;" d="M44.265,59.212v-5.455c1.056-4.81,5.807-9.209,11.32-14.019c2.757-2.404,5.748-5.396,5.748-9.385
		c0-3.578-2.346-6.569-6.863-6.569c-3.636,0-6.159,2.64-7.156,3.754l-4.34-5.748c3.988-3.46,7.684-5.103,13.256-5.103
		c7.274,0,14.135,4.223,14.135,12.669c0,7.098-4.516,10.44-9.501,14.957c-2.112,1.936-6.276,5.572-6.804,7.978h17.069v6.921H44.265z
		"/>
	<path style="fill:#FFFFFF;" d="M100.395,50.59v8.622h-8.212V50.59H73.531v-7.684l16.07-25.104h10.793v26.336h4.868v6.452H100.395z
		 M92.183,25.075h-0.117c-0.176,0.704-1.349,3.226-2.991,5.807l-8.446,13.256h11.555V25.075z"/>
</g>
</svg>
