<?xml version="1.0" encoding="iso-8859-1"?>
<!-- Generator: Adobe Illustrator 14.0.0, SVG Export Plug-In . SVG Version: 6.00 Build 43363)  -->
<!DOCTYPE svg PUBLIC "-//W3C//DTD SVG 1.1//EN" "http://www.w3.org/Graphics/SVG/1.1/DTD/svg11.dtd">
<svg version="1.1" id="Calque_1" xmlns="http://www.w3.org/2000/svg" xmlns:xlink="http://www.w3.org/1999/xlink" x="0px" y="0px"
	 width="120px" height="77px" viewBox="0 0 120 77" style="enable-background:new 0 0 120 77;" xml:space="preserve">
<g>
	<g>
		<rect style="fill-rule:evenodd;clip-rule:evenodd;fill:#0055C8;" width="120" height="77"/>
	</g>
	<g>
		<g>
			<polygon style="fill:#FFFFFF;" points="49.521,47.477 44.869,44.076 47.564,49.191 43.568,45.029 45.34,50.537 42.123,45.74 
				42.918,51.475 40.576,46.186 40.371,51.973 38.977,46.357 37.778,52.02 37.373,46.244 35.216,51.609 35.812,45.852 32.764,50.76 
				34.343,45.193 30.494,49.492 33.009,44.285 28.479,47.848 31.853,43.16 26.777,45.875 30.907,41.85 25.441,43.635 30.203,40.393 
				24.511,41.193 29.759,38.835 24.016,38.628 29.591,37.222 23.97,36.015 29.703,35.607 24.376,33.433 30.092,34.035 
				25.221,30.961 30.746,32.553 26.479,28.675 31.646,31.21 28.111,26.644 32.763,30.044 30.069,24.929 34.063,29.091 
				32.293,23.583 35.51,28.38 34.714,22.646 37.056,27.935 37.261,22.148 38.655,27.765 39.854,22.101 40.26,27.878 42.417,22.511 
				41.82,28.271 44.869,23.363 43.289,28.929 47.138,24.629 44.622,29.835 49.154,26.274 45.779,30.961 50.855,28.247 
				46.725,32.273 52.192,30.487 47.43,33.729 53.122,32.927 47.873,35.287 53.616,35.494 48.042,36.898 53.663,38.107 
				47.929,38.515 53.256,40.689 47.541,40.088 52.412,43.16 46.886,41.568 51.154,45.445 45.987,42.912 49.521,47.477 			"/>
		</g>
		<g>
			<path style="fill:#FFFFFF;stroke:#0055C8;stroke-width:0.4233;" d="M71.17,47.68c-1.141-6.109-1.523-8.168-3.01-8.168
				c-0.975,0-1.408,0.455-2.844,1.961l-1.648,1.707l-0.695,0.711c-1.611,1.648-2.495,2.543-3.179,2.699
				c-0.192-0.426-0.511-1.801-0.659-6.244c-0.113-3.393-0.65-7.366-2.916-7.366c-1.636,0-2.294,0.752-3.885,2.382
				c-0.823,0.843-1.95,1.997-3.668,3.548c-3.011,2.719-4.961,4.768-6.385,6.262c-1.284,1.348-2.174,2.277-2.615,2.35
				c-0.003-0.037-0.014-0.061-0.014-0.107c0-0.949,0.783-3.691,1.606-6.574l0.139-0.488c0.279-0.98,0.693-2.091,1.093-3.165
				c0.793-2.127,1.558-4.181,1.558-5.759c0-0.957-0.282-1.739-1.01-2.257c-1.482-1.055-5.171-0.996-20.027,11.62
				c-3.578,3.039-9.368,8.143-17.069,15.537v2.076c8.188-7.906,14.311-13.309,18.029-16.467
				c14.564-12.368,17.62-11.959,18.208-11.54c0.988,0.701-0.161,3.784-1.083,6.262c-0.411,1.101-0.834,2.238-1.131,3.276
				l-0.139,0.488c-1.681,5.893-2.248,7.877-0.904,8.469c1.322,0.584,2.297-0.439,4.433-2.682c1.407-1.479,3.335-3.502,6.304-6.184
				c1.754-1.583,2.9-2.756,3.737-3.613c1.553-1.593,1.839-1.935,2.823-1.935c0.207,0,1.242,0.36,1.428,5.917
				c0.197,5.922,0.65,7.727,1.938,7.727c1.342,0,2.317-0.998,4.452-3.18l0.693-0.707l1.662-1.725c1.129-1.184,1.4-1.443,1.654-1.49
				c0.475,0.576,1.051,3.664,1.664,6.953l1.709,9.109l1.465-0.281C72.883,56.803,71.172,47.699,71.17,47.68z"/>
		</g>
		<g>
			<path style="fill:#FFFFFF;" d="M55.443,20.151v12.297c0.191-0.056,0.41-0.096,0.657-0.096c0.28,0,0.529,0.046,0.743,0.11V18.738
				H20.768v23.457l1.402-1.201V20.151H55.443z"/>
			<path style="fill:#FFFFFF;" d="M55.959,34.874c-0.156,0-0.339,0.081-0.517,0.194v18.877H22.17v-9.91l-1.402,1.184v10.141h36.075
				V36.24C56.74,35.562,56.451,34.874,55.959,34.874z"/>
		</g>
		<g>
			<path style="fill:#FFFFFF;" d="M76.447,45.459h-0.008c-2.137,0-3.855,1.615-3.855,4.406s1.475,4.555,3.855,4.555h0.008
				c2.381,0,3.857-1.764,3.857-4.555S78.586,45.459,76.447,45.459z M76.447,53.014h-0.006c-1.635,0-2.25-1.209-2.25-3.125
				s0.781-3.025,2.25-3.025h0.006c1.467,0,2.248,1.109,2.248,3.025S78.082,53.014,76.447,53.014z"/>
		</g>
		<path style="fill:#FFFFFF;" d="M85.133,45.525c-1.209,0-2.086,0.662-2.527,1.088V45.76h-1.518v8.445h1.518v-6.336
			c0.482-0.396,1.445-0.99,2.293-0.99c1.021,0,1.387,0.734,1.387,1.266c0,1.059,0,6.061,0,6.061h1.461c0,0,0-5.326,0-6.311
			C87.746,46.908,86.914,45.525,85.133,45.525z"/>
		<path style="fill:#FFFFFF;" d="M93.367,45.76H90.77v-2.412h-1.49v2.412H88.33v1.281h0.949l-0.002,5.332
			c0,0,0.045,1.994,2.396,1.994c1.227,0,1.664-0.309,1.664-0.309v-1.338c0,0-0.467,0.381-1.475,0.381s-1.094-0.729-1.094-0.729
			v-5.332h2.598V45.76z"/>
		<path style="fill:#FFFFFF;" d="M113.506,45.529h-0.025c-1.066,1.504-1.371,3.48-2.041,5.172c-0.318,0.803-0.73,1.627-1.439,2.141
			c-0.973,0.703-0.66-1.188-0.582-1.74c0.092-0.627,0.234-1.248,0.381-1.861c0.033-0.139,0.006-0.402-0.018-0.629
			c-0.004-0.131-0.006-0.262-0.012-0.393c-0.002,0.01-0.004,0.021-0.008,0.033c0.002-0.014,0.006-0.025,0.008-0.033
			c-0.504,1.035-1.127,2.021-1.811,2.947c-0.541,0.729-1.406,1.928-2.42,1.92c-0.328-0.004-0.918-0.479-0.867-0.832
			c0.105-0.744,0.42-1.467,0.717-2.15c0.301-0.689,0.648-1.357,1.014-2.016c0.273-0.416,0.52-0.852,0.736-1.293
			c0.082-0.166,0.016-0.506-0.02-0.752c-0.004-0.09-0.006-0.18-0.008-0.27c-0.232,0.402-0.465,0.807-0.689,1.213
			c-0.813,1.258-1.98,2.559-3.346,2.934c0.004-0.127,0.006-0.256,0.004-0.383c-0.002-0.996-0.049-2.469-0.963-3.092
			c-0.514-0.35-1.145,0.016-1.574,0.311c-0.58,0.395-0.713,0.996-0.713,1.65c0,1.361,0.951,2.469,2.316,2.68
			c0.203,0.031,0.41,0.018,0.619-0.023c-0.395,1.533-1.6,2.781-2.844,3.686c-1.145,0.836-2.781,1.482-4.014,0.473
			c-0.736-0.604-1.021-1.723-1.195-2.613c-0.262-1.334,0.031-2.703,0.406-3.984c0.156-0.531,0.344-1.057,0.551-1.572
			c1.324-0.041,2.637-0.43,3.896-0.893c1.482-0.549,2.887-1.328,4.148-2.281c2.355-1.787,4.266-4.913,3.424-7.999
			c-0.719-2.638-4.27,0.053-5.334,1.072c-2.422,2.321-4.459,5.374-5.859,8.413c-0.096,0.205-0.188,0.418-0.277,0.631
			c-0.678,0.016-1.354-0.053-2.004-0.24c0.016,0.004-0.16,1.012,0,1.061c0.535,0.152,1.07,0.225,1.605,0.238
			c-0.9,2.654-1.207,5.699-0.066,8.252c1.578,3.527,5.744,0.061,7.012-1.885c0.467-0.721,0.691-1.563,0.793-2.42
			c0.713-0.221,1.41-0.756,1.9-1.176c0.08-0.068,0.156-0.141,0.234-0.215c-0.059,0.143-0.115,0.285-0.17,0.432
			c-0.385,1.043-0.742,2.59-0.141,3.617c1.09,1.863,3.529-1.861,4.555-3.652c-0.248,1.381-0.35,2.822,0.061,4.123l0.016,0.021
			c0.805-0.256,1.355-0.928,1.764-1.734c-0.002,0.141,0,0.279,0.002,0.41c0.021,0.738,0.258,1.404,0.803,1.918
			c0.367,0.35,0.791,0.209,1.049-0.186c0.82-1.238,0.889-3.08,0.941-4.518C114.074,48.623,114.17,46.832,113.506,45.529z
			 M100.969,38.911c1.072-1.213,2.324-2.282,3.844-2.876c0.641-0.252,1.426-0.376,1.957,0.151c0.936,0.927,0.08,2.778-0.436,3.724
			c-1.135,2.086-3.262,3.549-5.338,4.57c-1.469,0.725-3.172,1.355-4.861,1.49C97.352,43.383,99.113,41.008,100.969,38.911z
			 M102.146,50.027c-0.695-0.041-1.367-0.559-1.813-1.057c-0.426-0.479-0.387-0.578,0.023-1.004
			c0.285-0.293,0.703-0.502,1.098-0.586c1.268-0.262,1.502,1.359,1.451,2.582C102.658,50.018,102.404,50.041,102.146,50.027z
			 M113.928,49.584c-0.027,1.012-0.162,2.043-0.451,3.012c-0.139,0.465-0.387,1.227-0.949,1.301
			c-0.73,0.096-1.254-1.174-1.043-1.695c0.146-0.363,0.438-0.682,0.828-0.742c0.582-0.086,0.82,0.803,0.926,1.203
			c-0.047-0.18,0.104-0.721,0.025-1.02c-0.174-0.666-0.619-1.584-1.334-1.082c0.158-0.523,0.295-1.025,0.434-1.445
			c0.168-0.512,0.348-1.016,0.559-1.512c0.098-0.229,0.486-1.264,0.678-0.781C113.941,47.672,113.949,48.684,113.928,49.584z"/>
	</g>
</g>
</svg>
