<?xml version="1.0" encoding="utf-8"?>
<!-- Generator: Adobe Illustrator 21.0.2, SVG Export Plug-In . SVG Version: 6.00 Build 0)  -->
<svg version="1.1" id="Calque_1" xmlns="http://www.w3.org/2000/svg" xmlns:xlink="http://www.w3.org/1999/xlink" x="0px" y="0px"
	 viewBox="0 0 120 77" style="enable-background:new 0 0 120 77;" xml:space="preserve">
<style type="text/css">
	.st0{fill:#FF645A;}
	.st1{enable-background:new    ;}
	.st2{fill:#1D1D1B;}
</style>
<rect y="0" class="st0" width="120" height="77"/>
<g class="st1">
	<path class="st2" d="M24.7,59.8c-4.8,0-8.5-1.1-11.7-3l3.3-6.4C18.7,52,21,53,24.2,53s7.3-1.9,7.3-6.8c0-3-2-7.1-9.6-7.2
		c-2.3,0-5.1-0.1-6.4-0.1l1.6-21.5h21.7v6.9H23.9l-0.6,7.9c0.2,0,0.8,0.1,1.2,0.1c11.3,0.5,15.9,6.9,15.9,13.1
		C40.4,53.3,34.1,59.8,24.7,59.8z"/>
	<path class="st2" d="M46.3,58.8v-5.4c1.1-4.8,5.8-9.2,11.3-14c2.8-2.4,5.7-5.4,5.7-9.4c0-3.6-2.3-6.6-6.9-6.6
		c-3.6,0-6.2,2.6-7.1,3.8L45,21.5c4-3.5,7.7-5.1,13.2-5.1c7.3,0,14.1,4.2,14.1,12.7c0,7.1-4.5,10.4-9.5,14.9c-2.1,1.9-6.3,5.6-6.8,8
		h17.1v6.9H46.3z"/>
	<path class="st2" d="M92.4,60C83.2,60,78,54.4,78,48.2c0-5.5,3.1-9,7.1-11c-3.6-2.2-5.8-5-5.8-9.3c0-6.9,6.2-11.6,13.3-11.6
		c7.3,0,13.3,3.6,13.3,10.7c0,3.9-2,7.1-5.9,9.5c3.8,1.8,7.1,5.3,7.1,10.8C107.1,55,100.9,60,92.4,60z M91.7,40
		c-2.7,1.1-5.4,4-5.4,7.2c0,3.4,2.2,6.6,6.2,6.6c3.9,0,6.1-2.8,6.1-6C98.6,44.1,95.2,41.8,91.7,40z M92.7,22.2c-3.2,0-5.3,2-5.3,4.9
		c0,3.4,3.4,5.5,6,6.6c2.2-1,4.5-3.7,4.5-6.3C97.9,24.6,96.1,22.2,92.7,22.2z"/>
</g>
</svg>
