<?xml version="1.0" encoding="iso-8859-1"?>
<!-- Generator: Adobe Illustrator 14.0.0, SVG Export Plug-In . SVG Version: 6.00 Build 43363)  -->
<!DOCTYPE svg PUBLIC "-//W3C//DTD SVG 1.1//EN" "http://www.w3.org/Graphics/SVG/1.1/DTD/svg11.dtd">
<svg version="1.1" id="Calque_1" xmlns="http://www.w3.org/2000/svg" xmlns:xlink="http://www.w3.org/1999/xlink" x="0px" y="0px"
	 width="120px" height="77px" viewBox="0 0 120 77" style="enable-background:new 0 0 120 77;" xml:space="preserve">
<g>
	<rect style="fill-rule:evenodd;clip-rule:evenodd;fill:#82C8E6;" width="120" height="77"/>
	<g>
		<path d="M34.356,69.817c-6.942,0-12.275-1.524-16.847-4.317l4.825-9.313c3.302,2.286,6.688,3.81,11.344,3.81
			c4.656,0,10.498-2.794,10.498-9.82c0-4.317-2.878-10.243-13.883-10.412c-3.387,0-7.365-0.085-9.313-0.085l2.371-31.069h31.407
			v9.99H33.256l-0.847,11.344c0.338,0,1.101,0.085,1.693,0.085c16.339,0.762,22.942,9.989,22.942,18.963
			C57.044,60.42,47.986,69.817,34.356,69.817z"/>
		<path d="M61.938,68.378v-7.873c1.524-6.941,8.381-13.291,16.339-20.232c3.979-3.471,8.296-7.789,8.296-13.545
			c0-5.164-3.386-9.481-9.905-9.481c-5.248,0-8.889,3.809-10.328,5.418l-6.264-8.296c5.756-4.995,11.09-7.365,19.132-7.365
			c10.497,0,20.402,6.095,20.402,18.286c0,10.243-6.519,15.068-13.714,21.587c-3.048,2.794-9.059,8.043-9.82,11.514h24.635v9.989
			H61.938z"/>
	</g>
</g>
</svg>
