<?xml version="1.0" encoding="iso-8859-1"?>
<!-- Generator: Adobe Illustrator 14.0.0, SVG Export Plug-In . SVG Version: 6.00 Build 43363)  -->
<!DOCTYPE svg PUBLIC "-//W3C//DTD SVG 1.1//EN" "http://www.w3.org/Graphics/SVG/1.1/DTD/svg11.dtd">
<svg version="1.1" id="Calque_1" xmlns="http://www.w3.org/2000/svg" xmlns:xlink="http://www.w3.org/1999/xlink" x="0px" y="0px"
	 width="120px" height="77px" viewBox="0 0 120 77" style="enable-background:new 0 0 120 77;" xml:space="preserve">
<g>
	<rect y="0" style="fill-rule:evenodd;clip-rule:evenodd;fill:#FF82B4;" width="120" height="77"/>
	<g>
		<path style="fill:#1A171A;" d="M9.47,66.753V55.081h2.584v9.573h4.737v2.099H9.47z"/>
		<path style="fill:#1A171A;" d="M17.257,59.38h-1.972c1.159-1.307,1.59-2.365,1.59-3.324c0-0.446-0.1-0.975-0.348-1.537h2.269
			c0.116,0.265,0.249,0.761,0.249,1.141C19.045,56.998,18.481,58.339,17.257,59.38z"/>
		<path style="fill:#1A171A;" d="M27.129,66.753l-0.729-2.215h-4.322l-0.729,2.215h-2.551l4.142-11.688h2.799l4.157,11.688H27.129z
			 M24.776,59.544c-0.248-0.743-0.447-1.701-0.497-2.132h-0.033c-0.05,0.431-0.282,1.389-0.53,2.132l-0.993,3.06h3.047
			L24.776,59.544z"/>
		<path style="fill:#1A171A;" d="M36.273,66.753v-1.091c-0.597,0.843-1.343,1.373-2.452,1.373c-1.904,0-2.699-1.323-2.699-3.043
			v-6.068h2.318v5.588c0,0.893,0.348,1.521,1.226,1.521c0.431,0,0.796-0.182,1.011-0.412c0.397-0.431,0.431-0.662,0.431-1.258
			v-5.439h2.318v8.829H36.273z"/>
		<path style="fill:#1A171A;" d="M46.047,66.753v-1.273c-0.612,0.909-1.259,1.556-2.468,1.556c-2.485,0-3.396-2.729-3.396-4.796
			s1.044-4.596,3.877-4.596c0.679,0,1.375,0.216,1.805,0.629v-3.754H48.2v12.234H46.047z M45.881,60.454
			c0-0.662-0.381-1.141-1.507-1.141c-1.425,0-1.772,1.371-1.772,2.629c0,1.19,0.266,3.091,1.806,3.091
			c0.464,0,0.828-0.231,1.06-0.445c0.365-0.364,0.414-0.68,0.414-1.142V60.454z"/>
		<path style="fill:#1A171A;" d="M54.214,67.068c-2.898,0-4.19-2.233-4.19-4.747c0-2.496,1.408-4.711,4.273-4.711
			c2.898,0,4.19,2.231,4.19,4.744C58.487,64.852,57.079,67.068,54.214,67.068z M54.297,59.43c-1.474,0-1.855,1.637-1.855,2.875
			c0,1.241,0.299,2.944,1.772,2.944c1.475,0,1.854-1.637,1.854-2.878C56.068,61.131,55.771,59.43,54.297,59.43z"/>
		<path style="fill:#1A171A;" d="M65.495,66.753v-5.589c0-0.892-0.314-1.504-1.326-1.504c-0.463,0-0.877,0.198-1.125,0.43
			c-0.448,0.431-0.48,0.645-0.48,1.241v5.422h-2.319v-8.829h2.153v1.258c0.63-0.942,1.457-1.538,2.667-1.538
			c1.971,0,2.749,1.322,2.749,3.041v6.068H65.495z"/>
		<path style="fill:#1A171A;" d="M71.46,56.801c-0.796,0-1.309-0.513-1.309-1.224s0.513-1.224,1.309-1.224
			c0.795,0,1.292,0.513,1.292,1.224S72.255,56.801,71.46,56.801z M70.283,66.753v-8.829h2.319v8.829H70.283z"/>
		<path style="fill:#1A171A;" d="M82.326,62.735h-5.482c0,0.016,0,0.032,0,0.05c0,1.57,1.143,2.414,2.632,2.414
			c0.796,0,1.641-0.331,2.104-0.578l0.612,1.719c-0.679,0.313-1.854,0.695-3.146,0.695c-2.766,0-4.505-1.886-4.505-4.631
			c0-2.331,1.259-4.761,4.091-4.761c2.733,0,3.743,2.1,3.743,4.133C82.375,62.058,82.358,62.438,82.326,62.735z M78.532,59.264
			c-1.325,0-1.738,1.125-1.738,1.9h3.395C80.271,60.238,79.708,59.264,78.532,59.264z"/>
		<path style="fill:#1A171A;" d="M89.614,66.753v-5.589c0-0.892-0.313-1.504-1.325-1.504c-0.463,0-0.878,0.198-1.126,0.43
			c-0.447,0.431-0.48,0.645-0.48,1.241v5.422h-2.318v-8.829h2.153v1.258c0.629-0.942,1.457-1.538,2.667-1.538
			c1.971,0,2.749,1.322,2.749,3.041v6.068H89.614z"/>
		<path style="fill:#1A171A;" d="M99.521,66.753v-5.589c0-0.892-0.314-1.504-1.324-1.504c-0.464,0-0.878,0.198-1.126,0.43
			c-0.448,0.431-0.48,0.645-0.48,1.241v5.422h-2.319v-8.829h2.153v1.258c0.63-0.942,1.458-1.538,2.667-1.538
			c1.971,0,2.749,1.322,2.749,3.041v6.068H99.521z"/>
		<path style="fill:#1A171A;" d="M111.332,62.735h-5.482c0,0.016,0,0.032,0,0.05c0,1.57,1.144,2.414,2.634,2.414
			c0.795,0,1.639-0.331,2.104-0.578l0.613,1.719c-0.68,0.313-1.855,0.695-3.147,0.695c-2.766,0-4.505-1.886-4.505-4.631
			c0-2.331,1.258-4.761,4.091-4.761c2.732,0,3.743,2.1,3.743,4.133C111.382,62.058,111.365,62.438,111.332,62.735z M107.539,59.264
			c-1.325,0-1.739,1.125-1.739,1.9h3.396C109.278,60.238,108.715,59.264,107.539,59.264z"/>
	</g>
	<g>
		<path style="fill:#1A171B;" d="M88.23,28.785c-1.441-6.184-10.661-10.75-18.143-13.492c-8.813-3.228-17.61-4.891-20.359-5.063
			c-0.729-0.046-1.454-0.071-2.154-0.071c-6.827,0-11.932,2.192-14.374,6.171c-2.746,4.476-2.002,10.967,2.152,18.773
			c2.179,4.097,7.137,11.341,15.865,13.811c2.032,0.574,4.181,0.866,6.386,0.866l0,0c6.204,0,13.098-2.29,20.484-6.801
			C85.9,38.206,89.313,33.43,88.23,28.785z"/>
		<g>
			<g>
				<g>
					<path style="fill:#FFFFFF;" d="M43.09,23.292h0.521V19.4h-0.454l-1.162,2.176L40.833,19.4h-0.454v3.892H40.9v-2.358
						l0.109-0.027l0.953,1.784h0.063l0.953-1.784l0.111,0.027V23.292L43.09,23.292z"/>
				</g>
				<g>
					<path style="fill:#FFFFFF;" d="M46.709,23.292h0.559v-2.478c0-0.885-0.517-1.48-1.285-1.48c-0.765,0-1.278,0.595-1.278,1.48
						v2.478h0.552v-1.334h1.453V23.292L46.709,23.292z M46.709,21.408h-1.453v-0.594c0-0.564,0.284-0.93,0.727-0.93
						c0.441,0,0.727,0.365,0.727,0.93V21.408L46.709,21.408z"/>
				</g>
				<g>
					<path style="fill:#FFFFFF;" d="M48.12,23.292h1.888v-0.55H49.34V19.95h0.668V19.4H48.12v0.55h0.669v2.792H48.12V23.292
						L48.12,23.292z"/>
				</g>
				<g>
					<path style="fill:#FFFFFF;" d="M53.085,23.292h0.676l-1.041-1.448l0.063-0.03c0.423-0.209,0.695-0.654,0.695-1.133
						c0-0.707-0.573-1.282-1.278-1.282h-1.212v3.892h0.552v-1.334h0.582L53.085,23.292L53.085,23.292z M52.199,21.408h-0.66V19.95
						h0.66c0.401,0,0.728,0.328,0.728,0.731C52.927,21.082,52.601,21.408,52.199,21.408L52.199,21.408z"/>
				</g>
				<g>
					<path style="fill:#FFFFFF;" d="M54.402,23.292h1.89v-0.55h-0.669V19.95h0.669V19.4h-1.89v0.55h0.67v2.792h-0.67V23.292
						L54.402,23.292z"/>
				</g>
				<g>
					<path style="fill:#FFFFFF;" d="M57.271,23.292h1.889v-0.55h-1.337v-1.319h1.337v-0.551h-1.337V19.95h1.337V19.4h-1.889V23.292
						L57.271,23.292z"/>
				</g>
				<g>
					<path style="fill:#FFFFFF;" d="M61.782,23.292h0.881c0.965,0,1.749-0.871,1.749-1.943c0-1.075-0.784-1.949-1.749-1.949h-0.881
						V23.292L61.782,23.292z M62.663,22.742h-0.329V19.95h0.329c0.62,0,1.125,0.627,1.125,1.399
						C63.788,22.117,63.283,22.742,62.663,22.742L62.663,22.742z"/>
				</g>
				<g>
					<path style="fill:#FFFFFF;" d="M65.318,23.292h1.89v-0.55H65.87v-1.319h1.338v-0.551H65.87V19.95h1.338V19.4h-1.89V23.292
						L65.318,23.292z"/>
				</g>
				<path style="fill:#FFFFFF;" d="M42.696,28.155c-0.594-0.237-1.107-0.441-1.107-0.819c0-0.271,0.304-0.56,0.868-0.56
					c0.4,0,0.875,0.179,1.408,0.531l0.179,0.118l0.463-1.166l-0.102-0.081c-0.654-0.51-1.188-0.806-1.987-0.806
					c-1.286,0-2.294,0.904-2.294,2.059c0,1.343,1.08,1.75,1.946,2.079c0.676,0.255,1.091,0.431,1.091,0.818
					c0,0.413-0.552,0.605-0.927,0.605c-0.517,0-1.03-0.218-1.643-0.546l-0.221-0.119l-0.172,1.3l0.079,0.061
					c0.661,0.511,1.217,0.719,1.918,0.719c1.212,0,2.439-0.749,2.439-2.184C44.636,28.928,43.561,28.499,42.696,28.155z"/>
				<path style="fill:#FFFFFF;" d="M48.077,25.373c-1.151,0-2.313,0.814-2.313,2.636v4.233h1.416v-2.136h1.795v2.136H50.4v-4.233
					C50.4,26.188,49.232,25.373,48.077,25.373z M47.18,28.009c0-0.766,0.335-1.222,0.897-1.222c0.562,0,0.897,0.457,0.897,1.222
					v0.684H47.18V28.009z"/>
				<polygon style="fill:#FFFFFF;" points="55.268,26.893 55.268,25.479 51.711,25.479 51.711,26.893 52.781,26.893 52.781,30.829 
					51.711,30.829 51.711,32.243 55.268,32.243 55.268,30.829 54.197,30.829 54.197,26.893 				"/>
				<polygon style="fill:#FFFFFF;" points="59.961,25.479 59.961,29.139 57.706,25.479 56.636,25.479 56.636,32.243 57.946,32.243 
					57.946,28.584 60.191,32.243 61.271,32.243 61.271,25.479 				"/>
				<polygon style="fill:#FFFFFF;" points="62.071,25.479 62.071,26.893 63.894,26.893 63.894,32.243 65.311,32.243 65.311,26.893 
					67.133,26.893 67.133,25.479 				"/>
				<path style="fill:#FFFFFF;" d="M52.636,34.092c-1.447,0-2.42,1.403-2.42,3.493c0,2.083,0.973,3.482,2.42,3.482
					c1.453,0,2.429-1.399,2.429-3.482C55.064,35.496,54.089,34.092,52.636,34.092z M52.636,39.654c-0.552,0-0.936-0.85-0.936-2.069
					c0-1.224,0.384-2.08,0.936-2.08c0.556,0,0.945,0.855,0.945,2.08C53.581,38.804,53.191,39.654,52.636,39.654z"/>
				<path style="fill:#FFFFFF;" d="M59.721,34.197v4.244c0,0.748-0.345,1.213-0.897,1.213c-0.554,0-0.896-0.465-0.896-1.213v-4.244
					h-1.416v4.244c0,1.813,1.161,2.626,2.313,2.626c1.391,0,2.323-1.056,2.323-2.626v-4.244H59.721z"/>
				<polygon style="fill:#FFFFFF;" points="66.254,35.611 66.254,34.197 62.697,34.197 62.697,40.961 66.254,40.961 66.254,39.549 
					64.114,39.549 64.114,37.97 66.254,37.97 66.254,36.556 64.114,36.556 64.114,35.611 				"/>
				<polygon style="fill:#FFFFFF;" points="71.142,34.197 71.142,37.859 68.887,34.197 67.815,34.197 67.815,40.961 69.126,40.961 
					69.126,37.304 71.371,40.961 72.452,40.961 72.452,34.197 				"/>
			</g>
		</g>
		<rect x="67.815" y="28.195" style="fill:#FF82B4;" width="4.637" height="3.988"/>
	</g>
</g>
</svg>
