<?xml version="1.0" encoding="iso-8859-1"?>
<!-- Generator: Adobe Illustrator 14.0.0, SVG Export Plug-In . SVG Version: 6.00 Build 43363)  -->
<!DOCTYPE svg PUBLIC "-//W3C//DTD SVG 1.1//EN" "http://www.w3.org/Graphics/SVG/1.1/DTD/svg11.dtd">
<svg version="1.1" id="Calque_1" xmlns="http://www.w3.org/2000/svg" xmlns:xlink="http://www.w3.org/1999/xlink" x="0px" y="0px"
	 width="120px" height="77px" viewBox="0 0 120 77" style="enable-background:new 0 0 120 77;" xml:space="preserve">
<g>
	<rect style="fill-rule:evenodd;clip-rule:evenodd;fill:#6E6E00;" width="120" height="77"/>
	<g>
		<path style="fill:#FFFFFF;" d="M17.387,32.913V12.176h4.582v17.007h8.401v3.73H17.387z"/>
		<path style="fill:#FFFFFF;" d="M45.23,25.775h-9.723c0,0.029,0,0.059,0,0.088c0,2.791,2.027,4.289,4.67,4.289
			c1.41,0,2.908-0.587,3.73-1.028l1.086,3.055c-1.204,0.558-3.29,1.234-5.581,1.234c-4.905,0-7.99-3.349-7.99-8.225
			c0-4.142,2.232-8.459,7.255-8.459c4.847,0,6.638,3.73,6.638,7.343C45.318,24.571,45.289,25.247,45.23,25.775z M38.504,19.607
			c-2.35,0-3.084,1.998-3.084,3.378h6.021C41.588,21.34,40.589,19.607,38.504,19.607z"/>
		<path style="fill:#FFFFFF;" d="M64.906,32.913h-7.549V12.176h7.872c3.877,0,7.52,1.057,7.52,5.258c0,2.144-1.704,3.76-3.319,4.053
			v0.059c2.174,0.293,3.994,1.997,3.994,4.935C73.424,31.709,68.842,32.913,64.906,32.913z M64.201,15.642h-2.262V20.4h2.32
			c2.408,0,3.995-0.382,3.995-2.35C68.255,16.141,66.845,15.642,64.201,15.642z M64.406,23.69h-2.467v5.787h2.703
			c2.907,0,4.053-0.911,4.053-3.114C68.695,24.072,66.492,23.69,64.406,23.69z"/>
		<path style="fill:#FFFFFF;" d="M85.729,32.913v-1.938c-1.057,1.498-2.379,2.438-4.348,2.438c-3.377,0-4.787-2.35-4.787-5.405
			v-10.78h4.112v9.928c0,1.586,0.616,2.703,2.173,2.703c0.764,0,1.41-0.323,1.793-0.734c0.704-0.764,0.764-1.175,0.764-2.232v-9.664
			h4.111v15.685H85.729z"/>
		<path style="fill:#FFFFFF;" d="M97.328,33.413c-1.968,0-3.73-0.676-4.611-1.205l1.263-3.025c0.999,0.705,2.438,1.175,3.672,1.175
			c1.087,0,2.409-0.382,2.409-1.615c0-1.028-0.853-1.351-2.321-1.909l-1.292-0.5c-2.027-0.793-3.378-1.998-3.378-4.289
			c0-2.967,2.497-5.316,6.168-5.316c1.968,0,3.407,0.617,4.229,1.028l-1.263,3.025c-0.911-0.587-2.173-0.94-3.173-0.94
			c-1.674,0-2.173,0.852-2.173,1.557c0,0.822,0.764,1.292,1.851,1.674l1.381,0.499c2.232,0.823,3.818,2.027,3.818,4.641
			C103.908,31.268,101.44,33.413,97.328,33.413z"/>
		<path style="fill:#FFFFFF;" d="M20.883,62.281V60.02c-1.087,1.615-2.232,2.761-4.377,2.761c-4.406,0-6.021-4.847-6.021-8.518
			c0-3.672,1.851-8.166,6.874-8.166c1.204,0,2.438,0.382,3.202,1.116v-6.668h4.142v21.736H20.883z M20.589,51.09
			c0-1.175-0.676-2.026-2.673-2.026c-2.526,0-3.143,2.438-3.143,4.67c0,2.115,0.47,5.493,3.202,5.493
			c0.823,0,1.469-0.411,1.88-0.793c0.646-0.646,0.734-1.204,0.734-2.027V51.09z"/>
		<path style="fill:#FFFFFF;" d="M38.063,62.281v-1.938c-1.057,1.498-2.379,2.438-4.347,2.438c-3.378,0-4.788-2.35-4.788-5.404
			v-10.78h4.112v9.929c0,1.586,0.617,2.702,2.173,2.702c0.764,0,1.41-0.323,1.792-0.734c0.705-0.764,0.764-1.175,0.764-2.232v-9.664
			h4.112v15.686H38.063z"/>
		<path style="fill:#FFFFFF;" d="M61.676,62.78c-1.117,0-2.438-0.353-3.231-1.116v6.492h-4.112V46.596h3.819v2.32
			c1.086-1.703,2.408-2.819,4.582-2.819c4.113,0,5.816,4.377,5.816,8.166C68.549,57.787,66.698,62.78,61.676,62.78z M61.117,49.65
			c-0.822,0-1.41,0.353-1.88,0.794c-0.705,0.675-0.793,1.086-0.793,1.997v5.346c0,1.087,0.646,2.026,2.526,2.026
			c2.644,0,3.289-2.819,3.289-4.964C64.26,52.735,63.731,49.65,61.117,49.65z"/>
		<path style="fill:#FFFFFF;" d="M78.033,62.839c-5.14,0-7.432-3.965-7.432-8.43c0-4.436,2.498-8.371,7.579-8.371
			c5.14,0,7.431,3.965,7.431,8.43C85.611,58.903,83.115,62.839,78.033,62.839z M78.181,49.269c-2.614,0-3.29,2.908-3.29,5.111
			s0.529,5.229,3.143,5.229c2.615,0,3.29-2.908,3.29-5.111S80.795,49.269,78.181,49.269z"/>
		<path style="fill:#FFFFFF;" d="M96.742,50.62c-0.295-0.146-0.882-0.411-1.439-0.411c-0.881,0-1.352,0.265-1.733,0.617
			c-0.558,0.499-0.587,1.146-0.587,1.997v9.458h-4.113v-11.72c0-1.352-0.117-3.231-0.146-3.966h3.701v2.351
			c0.939-1.498,1.968-2.732,3.906-2.732c0.588,0,1.176,0.177,1.498,0.294L96.742,50.62z"/>
		<path style="fill:#FFFFFF;" d="M106.346,62.78c-2.791,0-4.524-1.498-4.524-4.523v-8.43h-2.614V46.89h2.614v-3.172l4.112-1.322
			v4.494h3.584v2.938h-3.584v7.931c0,1.557,0.852,1.909,1.792,1.909c0.852,0,1.439-0.205,1.792-0.323l0.411,3.025
			C109.165,62.575,107.726,62.78,106.346,62.78z"/>
	</g>
</g>
</svg>
