<?xml version="1.0" encoding="iso-8859-1"?>
<!-- Generator: Adobe Illustrator 14.0.0, SVG Export Plug-In . SVG Version: 6.00 Build 43363)  -->
<!DOCTYPE svg PUBLIC "-//W3C//DTD SVG 1.1//EN" "http://www.w3.org/Graphics/SVG/1.1/DTD/svg11.dtd">
<svg version="1.1" id="Calque_1" xmlns="http://www.w3.org/2000/svg" xmlns:xlink="http://www.w3.org/1999/xlink" x="0px" y="0px"
	 width="120px" height="77px" viewBox="0 0 120 77" style="enable-background:new 0 0 120 77;" xml:space="preserve">
<g>
	<rect style="fill-rule:evenodd;clip-rule:evenodd;fill:#FF5A00;" width="120" height="77"/>
</g>
<g>
	<path d="M16.298,22.046h-5.933V5.747h6.187c3.048,0,5.91,0.832,5.91,4.133c0,1.685-1.339,2.955-2.608,3.186v0.046
		c1.708,0.23,3.14,1.57,3.14,3.879C22.993,21.1,19.392,22.046,16.298,22.046z M15.744,8.471h-1.778v3.74h1.824
		c1.894,0,3.14-0.3,3.14-1.847C18.93,8.863,17.821,8.471,15.744,8.471z M15.905,14.797h-1.939v4.548h2.124
		c2.286,0,3.187-0.716,3.187-2.447C19.276,15.097,17.545,14.797,15.905,14.797z"/>
	<path d="M32.505,22.046v-1.523c-0.831,1.177-1.87,1.916-3.417,1.916c-2.655,0-3.763-1.847-3.763-4.248V9.718h3.231v7.803
		c0,1.247,0.485,2.124,1.709,2.124c0.6,0,1.107-0.254,1.408-0.577c0.554-0.6,0.6-0.923,0.6-1.754V9.718h3.232v12.328H32.505z"/>
	<path d="M41.265,22.438c-1.547,0-2.933-0.531-3.625-0.946l0.993-2.378c0.784,0.554,1.916,0.923,2.886,0.923
		c0.854,0,1.893-0.3,1.893-1.27c0-0.808-0.669-1.062-1.823-1.501l-1.017-0.393c-1.593-0.623-2.654-1.569-2.654-3.37
		c0-2.332,1.962-4.179,4.848-4.179c1.547,0,2.679,0.485,3.325,0.808l-0.993,2.377c-0.716-0.461-1.708-0.738-2.493-0.738
		c-1.316,0-1.709,0.67-1.709,1.224c0,0.646,0.601,1.016,1.455,1.315l1.085,0.393c1.755,0.646,3.001,1.593,3.001,3.648
		C46.436,20.753,44.496,22.438,41.265,22.438z"/>
	<path d="M58.755,16.436h-7.642c0,0.023,0,0.047,0,0.069c0,2.193,1.593,3.371,3.671,3.371c1.107,0,2.285-0.462,2.932-0.809
		l0.854,2.401c-0.947,0.438-2.586,0.97-4.387,0.97c-3.855,0-6.279-2.632-6.279-6.464c0-3.256,1.754-6.649,5.702-6.649
		c3.81,0,5.218,2.932,5.218,5.771C58.824,15.489,58.801,16.021,58.755,16.436z M53.468,11.588c-1.847,0-2.424,1.569-2.424,2.654
		h4.732C55.892,12.95,55.107,11.588,53.468,11.588z M54.553,8.54H52.06l2.586-3.578h3.693L54.553,8.54z"/>
	<path d="M66.316,22.484c-4.04,0-5.841-3.116-5.841-6.626c0-3.485,1.962-6.58,5.956-6.58c4.04,0,5.841,3.117,5.841,6.626
		C72.272,19.391,70.311,22.484,66.316,22.484z M66.432,11.818c-2.055,0-2.586,2.286-2.586,4.018s0.416,4.109,2.471,4.109
		s2.586-2.286,2.586-4.018S68.486,11.818,66.432,11.818z"/>
	<path d="M74.489,22.046V4.962h3.232v17.084H74.489z"/>
	<path d="M82.347,8.148c-1.108,0-1.824-0.716-1.824-1.708s0.716-1.708,1.824-1.708c1.107,0,1.801,0.716,1.801,1.708
		S83.454,8.148,82.347,8.148z M80.707,22.046V9.718h3.232v12.328H80.707z"/>
	<path d="M97.021,16.436H89.38c0,0.023,0,0.047,0,0.069c0,2.193,1.593,3.371,3.671,3.371c1.107,0,2.285-0.462,2.932-0.809
		l0.854,2.401c-0.947,0.438-2.586,0.97-4.387,0.97c-3.855,0-6.279-2.632-6.279-6.464c0-3.256,1.754-6.649,5.702-6.649
		c3.81,0,5.218,2.932,5.218,5.771C97.091,15.489,97.067,16.021,97.021,16.436z M91.734,11.588c-1.847,0-2.424,1.569-2.424,2.654
		h4.732C94.158,12.95,93.374,11.588,91.734,11.588z"/>
	<path d="M106.831,22.046v-7.804c0-1.246-0.438-2.101-1.847-2.101c-0.646,0-1.224,0.277-1.57,0.601
		c-0.623,0.6-0.669,0.9-0.669,1.731v7.572h-3.232V9.718h3.001v1.755c0.878-1.316,2.032-2.147,3.718-2.147
		c2.747,0,3.832,1.847,3.832,4.248v8.473H106.831z"/>
	<path d="M46.299,71.378v-5.59c1.082-4.929,5.95-9.437,11.6-14.365c2.825-2.464,5.891-5.529,5.891-9.616
		c0-3.666-2.404-6.731-7.032-6.731c-3.727,0-6.311,2.704-7.333,3.847l-4.447-5.891c4.087-3.546,7.873-5.229,13.583-5.229
		c7.453,0,14.485,4.327,14.485,12.982c0,7.272-4.628,10.698-9.736,15.326c-2.164,1.983-6.432,5.71-6.973,8.174h17.49v7.093H46.299z"
		/>
</g>
</svg>
