<?xml version="1.0" encoding="iso-8859-1"?>
<!-- Generator: Adobe Illustrator 14.0.0, SVG Export Plug-In . SVG Version: 6.00 Build 43363)  -->
<!DOCTYPE svg PUBLIC "-//W3C//DTD SVG 1.1//EN" "http://www.w3.org/Graphics/SVG/1.1/DTD/svg11.dtd">
<svg version="1.1" id="Calque_1" xmlns="http://www.w3.org/2000/svg" xmlns:xlink="http://www.w3.org/1999/xlink" x="0px" y="0px"
	 width="120px" height="77px" viewBox="0 0 120 77" style="enable-background:new 0 0 120 77;" xml:space="preserve">
<g>
	<rect style="fill-rule:evenodd;clip-rule:evenodd;fill:#0055C8;" width="120" height="77"/>
	<g>
		<path style="fill:#FFFFFF;" d="M53.232,59.134l-2.572-7.833H35.403l-2.572,7.833h-9.002l14.614-41.329h9.879l14.673,41.329H53.232
			z M44.931,33.647c-0.877-2.631-1.579-6.021-1.754-7.541h-0.117c-0.175,1.52-0.994,4.91-1.871,7.541l-3.507,10.814h10.756
			L44.931,33.647z"/>
		<path style="fill:#FFFFFF;" d="M77.697,60.128c-4.91,0-8.885-1.403-11.574-2.748l2.514-7.132c2.28,1.403,6.08,2.689,9.529,2.689
			c3.857,0,6.78-1.52,6.78-4.969c0-3.04-2.923-4.326-5.319-5.319l-3.039-1.286c-5.496-2.339-9.821-5.32-9.821-12.101
			c0-7.132,5.846-12.51,14.906-12.51c3.683,0,7.892,0.643,11.282,2.338l-2.689,6.956c-2.396-1.403-5.377-2.28-8.593-2.28
			c-4.794,0-6.021,2.748-6.021,4.56c0,2.864,2.863,4.092,5.202,5.144l3.04,1.345c5.319,2.338,9.996,5.261,9.996,11.867
			C93.891,56.503,86.174,60.128,77.697,60.128z"/>
	</g>
</g>
</svg>
