<?xml version="1.0" encoding="iso-8859-1"?>
<!-- Generator: Adobe Illustrator 14.0.0, SVG Export Plug-In . SVG Version: 6.00 Build 43363)  -->
<!DOCTYPE svg PUBLIC "-//W3C//DTD SVG 1.1//EN" "http://www.w3.org/Graphics/SVG/1.1/DTD/svg11.dtd">
<svg version="1.1" id="Calque_1" xmlns="http://www.w3.org/2000/svg" xmlns:xlink="http://www.w3.org/1999/xlink" x="0px" y="0px"
	 width="120px" height="77px" viewBox="0 0 120 77" style="enable-background:new 0 0 120 77;" xml:space="preserve">
<rect style="fill-rule:evenodd;clip-rule:evenodd;fill:#FFBE00;" width="120" height="77"/>
<g>
	<path d="M25.182,60.209c-4.81,0-8.505-1.056-11.672-2.991l3.343-6.452c2.288,1.584,4.634,2.64,7.859,2.64
		c3.226,0,7.273-1.936,7.273-6.804c0-2.992-1.994-7.098-9.619-7.215c-2.347,0-5.103-0.059-6.452-0.059l1.642-21.526h21.761v6.921
		H24.419l-0.586,7.86c0.234,0,0.762,0.059,1.173,0.059c11.32,0.528,15.896,6.921,15.896,13.139
		C40.901,53.698,34.625,60.209,25.182,60.209z"/>
	<path d="M71.111,50.59v8.622h-8.212V50.59H44.247v-7.684l16.071-25.104h10.793v26.336h4.867v6.452H71.111z M62.899,25.075h-0.118
		c-0.176,0.704-1.349,3.226-2.991,5.807l-8.446,13.256h11.555V25.075z"/>
	<path d="M88.722,60.209c-4.81,0-8.505-1.056-11.673-2.991l3.344-6.452c2.287,1.584,4.634,2.64,7.859,2.64
		c3.227,0,7.273-1.936,7.273-6.804c0-2.992-1.994-7.098-9.619-7.215c-2.347,0-5.104-0.059-6.452-0.059l1.642-21.526h21.762v6.921
		H87.959l-0.586,7.86c0.234,0,0.762,0.059,1.172,0.059c11.32,0.528,15.896,6.921,15.896,13.139
		C104.441,53.698,98.165,60.209,88.722,60.209z"/>
</g>
</svg>
