<?xml version="1.0" encoding="utf-8"?>
<!-- Generator: Adobe Illustrator 21.0.2, SVG Export Plug-In . SVG Version: 6.00 Build 0)  -->
<svg version="1.1" id="Calque_1" xmlns="http://www.w3.org/2000/svg" xmlns:xlink="http://www.w3.org/1999/xlink" x="0px" y="0px"
	 viewBox="0 0 120 77" style="enable-background:new 0 0 120 77;" xml:space="preserve">
<style type="text/css">
	.st0{fill-rule:evenodd;clip-rule:evenodd;fill:#6E491E;}
	.st1{fill:#FFFFFF;}
</style>
<g>
	<g>
		<rect class="st0" width="120" height="77"/>
	</g>
	<g>
		<path class="st1" d="M28.2,27.2v29.4h-7.9V27.2h-11v-6.5h30v6.5H28.2z"/>
		<path class="st1" d="M59.2,57.5c-10.5,0-15.5-4.8-15.5-14.5V20.8h7.9v22c0,4.7,2.1,8.3,7.7,8.3c5.6,0,7.5-3.6,7.5-8.3v-22h7.7V43
			C74.6,52.7,69.8,57.5,59.2,57.5z"/>
		<path class="st1" d="M94.5,56.6H81.4V20.8h13.6c6.7,0,13,1.8,13,9.1c0,3.7-2.9,6.5-5.7,7V37c3.8,0.5,6.9,3.5,6.9,8.5
			C109.2,54.5,101.3,56.6,94.5,56.6z M93.3,26.8h-3.9V35h4c4.2,0,6.9-0.7,6.9-4.1C100.3,27.6,97.8,26.8,93.3,26.8z M93.6,40.7h-4.3
			v10H94c5,0,7-1.6,7-5.4C101,41.3,97.2,40.7,93.6,40.7z"/>
	</g>
</g>
</svg>
