<?xml version="1.0" encoding="iso-8859-1"?>
<!-- Generator: Adobe Illustrator 14.0.0, SVG Export Plug-In . SVG Version: 6.00 Build 43363)  -->
<!DOCTYPE svg PUBLIC "-//W3C//DTD SVG 1.1//EN" "http://www.w3.org/Graphics/SVG/1.1/DTD/svg11.dtd">
<svg version="1.1" id="Calque_1" xmlns="http://www.w3.org/2000/svg" xmlns:xlink="http://www.w3.org/1999/xlink" x="0px" y="0px"
	 width="120px" height="77px" viewBox="0 0 120 77" style="enable-background:new 0 0 120 77;" xml:space="preserve">
<g>
	<rect style="fill-rule:evenodd;clip-rule:evenodd;fill:#82C8E6;" width="120" height="77"/>
	<g>
		<path d="M30.848,69.817c-6.942,0-12.275-1.524-16.847-4.317l4.825-9.313c3.302,2.286,6.688,3.81,11.344,3.81
			c4.656,0,10.498-2.794,10.498-9.82c0-4.317-2.878-10.243-13.883-10.412c-3.387,0-7.365-0.085-9.313-0.085l2.371-31.069H51.25v9.99
			H29.747L28.9,29.944c0.338,0,1.101,0.085,1.693,0.085c16.339,0.762,22.942,9.989,22.942,18.963
			C53.535,60.42,44.477,69.817,30.848,69.817z"/>
		<path d="M96.855,55.934v12.444H85.003V55.934h-26.92v-11.09L81.278,8.611h15.577v38.01h7.025v9.313H96.855z M85.003,19.108h-0.169
			c-0.254,1.016-1.947,4.656-4.317,8.381l-12.19,19.132h16.677V19.108z"/>
	</g>
</g>
</svg>
