<?xml version="1.0" encoding="iso-8859-1"?>
<!-- Generator: Adobe Illustrator 14.0.0, SVG Export Plug-In . SVG Version: 6.00 Build 43363)  -->
<!DOCTYPE svg PUBLIC "-//W3C//DTD SVG 1.1//EN" "http://www.w3.org/Graphics/SVG/1.1/DTD/svg11.dtd">
<svg version="1.1" id="Calque_1" xmlns="http://www.w3.org/2000/svg" xmlns:xlink="http://www.w3.org/1999/xlink" x="0px" y="0px"
	 width="120px" height="77px" viewBox="0 0 120 77" style="enable-background:new 0 0 120 77;" xml:space="preserve">
<g>
	<rect style="fill-rule:evenodd;clip-rule:evenodd;fill:#82C8E6;" width="120" height="77"/>
</g>
<g>
	<path d="M29.981,60.209c-4.81,0-8.505-1.056-11.672-2.991l3.343-6.452c2.288,1.584,4.634,2.64,7.86,2.64
		c3.226,0,7.273-1.936,7.273-6.804c0-2.992-1.994-7.098-9.62-7.215c-2.346,0-5.103-0.059-6.452-0.059l1.642-21.526h21.761v6.921
		H29.219l-0.586,7.86c0.234,0,0.762,0.059,1.173,0.059c11.32,0.528,15.896,6.921,15.896,13.139
		C45.701,53.698,39.425,60.209,29.981,60.209z"/>
	<path d="M58.368,60.209c-4.81,0-8.505-1.056-11.672-2.991l3.343-6.452c2.288,1.584,4.634,2.64,7.859,2.64
		c3.227,0,7.273-1.936,7.273-6.804c0-2.992-1.994-7.098-9.619-7.215c-2.347,0-5.103-0.059-6.452-0.059l1.642-21.526h21.761v6.921
		H57.605l-0.586,7.86c0.234,0,0.762,0.059,1.173,0.059c11.32,0.528,15.896,6.921,15.896,13.139
		C74.088,53.698,67.812,60.209,58.368,60.209z"/>
	<path d="M88.144,59.212V26.659c-2.522,1.994-6.511,3.93-9.267,5.162l-2.816-6.335c4.341-1.818,9.561-4.575,13.667-7.684h7.214
		v41.41H88.144z"/>
</g>
</svg>
