<?xml version="1.0" encoding="utf-8"?>
<!-- Generator: Adobe Illustrator 21.0.2, SVG Export Plug-In . SVG Version: 6.00 Build 0)  -->
<svg version="1.1" id="Calque_1" xmlns="http://www.w3.org/2000/svg" xmlns:xlink="http://www.w3.org/1999/xlink" x="0px" y="0px"
	 viewBox="0 0 120 77" style="enable-background:new 0 0 120 77;" xml:space="preserve">
<style type="text/css">
	.st0{fill-rule:evenodd;clip-rule:evenodd;fill:#FFBE00;}
</style>
<g>
	<rect class="st0" width="120" height="77"/>
</g>
<g>
	<path d="M16.9,57.7c-4.2,0-7.4-0.9-10.2-2.6l2.9-5.7c2,1.4,4.1,2.3,6.9,2.3s6.4-1.7,6.4-6c0-2.6-1.7-6.2-8.4-6.3
		c-2.1,0-4.5-0.1-5.7-0.1l1.4-18.9h19.1v6.1h-13l-0.5,6.9c0.2,0,0.7,0.1,1,0.1c9.9,0.5,13.9,6.1,13.9,11.5
		C30.7,52,25.2,57.7,16.9,57.7z"/>
	<path d="M43.4,57.7c-4.2,0-7.4-0.9-10.2-2.6l2.9-5.7c2,1.4,4.1,2.3,6.9,2.3s6.4-1.7,6.4-6c0-2.6-1.7-6.2-8.4-6.3
		c-2.1,0-4.5-0.1-5.7-0.1l1.4-18.9h19.1v6.1h-13l-0.5,6.9c0.2,0,0.7,0.1,1,0.1c9.9,0.5,13.9,6.1,13.9,11.5
		C57.2,52,51.7,57.7,43.4,57.7z"/>
	<path d="M67.6,57.9c-2.1,0-3.9-0.3-5.4-0.6l1.1-6.2c1,0.4,2.9,0.9,5,0.9c5.1,0,8.8-4.1,9.3-11.4c-1.2,1.1-3.6,2.5-7.5,2.5
		c-6,0-10.8-4-10.8-10.7c0-7.2,4.8-12.6,12.4-12.6c9.9,0,13.5,6.9,13.5,16.5C85.2,48.8,79.2,57.9,67.6,57.9z M72,25.4
		c-3.6,0-5.4,2.9-5.4,6.1c0,3.4,2.3,5.9,5.9,5.9c2.3,0,4.2-0.9,4.9-2c0.4-0.6,0.4-2.1,0.4-3.1C77.7,28.8,75.7,25.4,72,25.4z"/>
</g>
<g>
	<path d="M109.3,57.4c-2.6,0-3.9-1.6-4.3-3.8c-2.3,2.7-4.4,4-8.1,4c-4.8,0-8.1-3.5-8.1-8.2c0-7.4,7.8-8.9,13.9-8.9
		c1.1,0,1.8-0.1,1.8-1v-1.8c0-2-1.2-3.8-5-3.8c-3.2,0-5.6,1.5-6.8,2.5l-2.5-5.1c3-2,6.4-2.8,11.1-2.8c3.9,0,10.1,1.4,10.1,9.3v12.6
		c0,1,0.1,1.8,1,1.8c0.3,0,0.9-0.2,1.2-0.3l0.4,4.7C112.8,57,111,57.4,109.3,57.4z M104.4,45.1c-0.8-0.1-1.5-0.1-2.2-0.1
		c-2.5,0-6.3,0.6-6.3,3.9c0,2,1.4,3.4,3.4,3.4c1.6,0,2.9-0.5,3.9-1.5c0.8-0.9,1.2-1.9,1.2-3.2V45.1z"/>
</g>
</svg>
