<?xml version="1.0" encoding="utf-8"?>
<!-- Generator: Adobe Illustrator 16.0.3, SVG Export Plug-In . SVG Version: 6.00 Build 0)  -->
<!DOCTYPE svg PUBLIC "-//W3C//DTD SVG 1.1//EN" "http://www.w3.org/Graphics/SVG/1.1/DTD/svg11.dtd">
<svg version="1.1" id="Calque_1" xmlns="http://www.w3.org/2000/svg" xmlns:xlink="http://www.w3.org/1999/xlink" x="0px" y="0px"
	 width="120px" height="77px" viewBox="0 0 120 77" enable-background="new 0 0 120 77" xml:space="preserve">
<g>
	<rect fill-rule="evenodd" clip-rule="evenodd" fill="#D282BE" width="120" height="77"/>
</g>
<g>
	<path d="M16.903,57.749c-4.213,0-7.449-0.925-10.224-2.62l2.929-5.651c2.003,1.387,4.059,2.312,6.884,2.312
		c2.826,0,6.371-1.695,6.371-5.96c0-2.62-1.747-6.216-8.426-6.319c-2.055,0-4.47-0.051-5.651-0.051l1.438-18.855h19.061v6.062
		h-13.05l-0.514,6.885c0.206,0,0.668,0.051,1.027,0.051c9.916,0.462,13.924,6.062,13.924,11.508
		C30.673,52.046,25.175,57.749,16.903,57.749z"/>
	<path d="M43.411,57.749c-4.213,0-7.45-0.925-10.225-2.62l2.929-5.651c2.004,1.387,4.059,2.312,6.885,2.312
		c2.825,0,6.37-1.695,6.37-5.96c0-2.62-1.746-6.216-8.426-6.319c-2.055,0-4.47-0.051-5.651-0.051l1.439-18.855h19.061v6.062h-13.05
		l-0.514,6.885c0.205,0,0.668,0.051,1.027,0.051c9.916,0.462,13.923,6.062,13.923,11.508C57.18,52.046,51.683,57.749,43.411,57.749z
		"/>
	<path d="M67.637,57.852c-2.055,0-3.904-0.257-5.445-0.616l1.13-6.166c0.977,0.411,2.877,0.874,4.983,0.874
		c5.087,0,8.786-4.059,9.3-11.354c-1.233,1.079-3.597,2.466-7.501,2.466c-6.012,0-10.841-3.956-10.841-10.737
		c0-7.244,4.829-12.587,12.434-12.587c9.915,0,13.46,6.884,13.46,16.492C85.156,48.81,79.248,57.852,67.637,57.852z M72.004,25.433
		c-3.596,0-5.445,2.929-5.445,6.063c0,3.391,2.261,5.857,5.856,5.857c2.313,0,4.162-0.874,4.881-2.004
		c0.411-0.616,0.411-2.055,0.411-3.134C77.707,28.772,75.703,25.433,72.004,25.433z"/>
</g>
<g>
	<path d="M102.587,57.749c-2.055,0-4.47-0.822-5.856-2.106v1.232h-6.987V18.857h7.244v14.18c1.85-2.672,3.956-4.47,7.449-4.47
		c7.193,0,10.173,7.655,10.173,14.283C114.609,49.015,111.373,57.749,102.587,57.749z M101.662,34.835
		c-1.438,0-2.568,0.617-3.339,1.387c-1.233,1.182-1.388,1.952-1.388,3.544v9.3c0,1.9,1.131,3.596,4.419,3.596
		c4.624,0,5.754-4.983,5.754-8.733C107.108,40.229,106.235,34.835,101.662,34.835z"/>
</g>
</svg>
