<?xml version="1.0" encoding="utf-8"?>
<!-- Generator: Adobe Illustrator 16.0.3, SVG Export Plug-In . SVG Version: 6.00 Build 0)  -->
<!DOCTYPE svg PUBLIC "-//W3C//DTD SVG 1.1//EN" "http://www.w3.org/Graphics/SVG/1.1/DTD/svg11.dtd">
<svg version="1.1" id="Calque_1" xmlns="http://www.w3.org/2000/svg" xmlns:xlink="http://www.w3.org/1999/xlink" x="0px" y="0px"
	 width="120px" height="77px" viewBox="0 0 120 77" enable-background="new 0 0 120 77" xml:space="preserve">
<g>
	<rect fill-rule="evenodd" clip-rule="evenodd" fill="#FF5A00" width="120" height="77"/>
</g>
<g>
	<path d="M16.905,57.749c-4.213,0-7.45-0.925-10.224-2.62l2.929-5.651c2.003,1.387,4.059,2.312,6.884,2.312s6.371-1.695,6.371-5.959
		c0-2.62-1.747-6.217-8.426-6.319c-2.055,0-4.47-0.052-5.651-0.052l1.438-18.855h19.061v6.062h-13.05l-0.514,6.885
		c0.206,0,0.668,0.051,1.027,0.051c9.916,0.462,13.923,6.063,13.923,11.508C30.674,52.046,25.176,57.749,16.905,57.749z"/>
	<path d="M43.412,57.749c-4.213,0-7.45-0.925-10.224-2.62l2.929-5.651c2.003,1.387,4.059,2.312,6.884,2.312s6.371-1.695,6.371-5.959
		c0-2.62-1.747-6.217-8.426-6.319c-2.055,0-4.47-0.052-5.651-0.052l1.439-18.855h19.061v6.062h-13.05l-0.514,6.885
		c0.206,0,0.668,0.051,1.027,0.051c9.916,0.462,13.923,6.063,13.923,11.508C57.181,52.046,51.684,57.749,43.412,57.749z"/>
	<path d="M67.638,57.852c-2.055,0-3.904-0.257-5.445-0.616l1.13-6.165c0.977,0.411,2.877,0.873,4.983,0.873
		c5.087,0,8.786-4.059,9.3-11.354c-1.233,1.078-3.597,2.466-7.501,2.466c-6.012,0-10.84-3.956-10.84-10.738
		c0-7.244,4.829-12.587,12.433-12.587c9.915,0,13.46,6.884,13.46,16.492C85.157,48.81,79.249,57.852,67.638,57.852z M72.005,25.433
		c-3.596,0-5.445,2.929-5.445,6.063c0,3.391,2.261,5.857,5.856,5.857c2.313,0,4.162-0.874,4.881-2.004
		c0.411-0.616,0.411-2.055,0.411-3.134C77.708,28.772,75.704,25.433,72.005,25.433z"/>
</g>
<g>
	<path d="M103.667,57.749c-8.426,0-13.255-6.217-13.255-14.231c0-7.501,3.956-14.951,13.255-14.951c3.699,0,6.576,0.977,8.375,1.953
		l-2.569,6.011c-0.925-0.616-2.979-1.85-5.343-1.85c-4.162,0-6.217,3.854-6.217,8.683c0,5.292,3.391,8.426,6.628,8.426
		c2.055,0,4.161-0.873,5.395-1.644l2.055,5.343C110.552,56.567,107.007,57.749,103.667,57.749z"/>
</g>
</svg>
