<?xml version="1.0" encoding="utf-8"?>
<!-- Generator: Adobe Illustrator 16.0.3, SVG Export Plug-In . SVG Version: 6.00 Build 0)  -->
<!DOCTYPE svg PUBLIC "-//W3C//DTD SVG 1.1//EN" "http://www.w3.org/Graphics/SVG/1.1/DTD/svg11.dtd">
<svg version="1.1" id="Calque_1" xmlns="http://www.w3.org/2000/svg" xmlns:xlink="http://www.w3.org/1999/xlink" x="0px" y="0px"
	 width="120px" height="77px" viewBox="0 0 120 77" enable-background="new 0 0 120 77" xml:space="preserve">
<g>
	<rect fill-rule="evenodd" clip-rule="evenodd" fill="#6E6E00" width="120" height="77"/>
</g>
<g>
	<path fill="#FFFFFF" d="M16.904,57.75c-4.213,0-7.45-0.925-10.224-2.62l2.929-5.651c2.003,1.387,4.059,2.312,6.884,2.312
		s6.371-1.695,6.371-5.96c0-2.62-1.747-6.216-8.426-6.319c-2.055,0-4.47-0.051-5.651-0.051l1.438-18.855h19.061v6.062h-13.05
		l-0.514,6.885c0.206,0,0.668,0.051,1.027,0.051c9.916,0.462,13.923,6.062,13.923,11.508C30.673,52.047,25.175,57.75,16.904,57.75z"
		/>
	<path fill="#FFFFFF" d="M43.411,57.75c-4.213,0-7.45-0.925-10.224-2.62l2.929-5.651c2.003,1.387,4.059,2.312,6.884,2.312
		s6.371-1.695,6.371-5.96c0-2.62-1.747-6.216-8.426-6.319c-2.055,0-4.47-0.051-5.651-0.051l1.439-18.855h19.061v6.062h-13.05
		l-0.514,6.885c0.206,0,0.668,0.051,1.027,0.051c9.916,0.462,13.923,6.062,13.923,11.508C57.18,52.047,51.683,57.75,43.411,57.75z"
		/>
	<path fill="#FFFFFF" d="M67.637,57.853c-2.055,0-3.904-0.257-5.445-0.616l1.13-6.166c0.977,0.411,2.877,0.874,4.983,0.874
		c5.087,0,8.786-4.059,9.3-11.354c-1.233,1.079-3.597,2.466-7.501,2.466c-6.012,0-10.84-3.956-10.84-10.737
		c0-7.244,4.829-12.587,12.433-12.587c9.915,0,13.46,6.884,13.46,16.492C85.156,48.811,79.248,57.853,67.637,57.853z M72.004,25.434
		c-3.596,0-5.445,2.929-5.445,6.063c0,3.391,2.261,5.857,5.856,5.857c2.313,0,4.162-0.874,4.881-2.004
		c0.411-0.616,0.411-2.055,0.411-3.134C77.707,28.773,75.703,25.434,72.004,25.434z"/>
</g>
<g>
	<path fill="#FFFFFF" d="M105.876,56.876V52.92c-1.9,2.826-3.904,4.83-7.655,4.83c-7.706,0-10.532-8.478-10.532-14.899
		s3.237-14.283,12.022-14.283c2.106,0,4.265,0.668,5.6,1.953V18.858h7.244v38.018H105.876z M105.362,37.302
		c0-2.055-1.182-3.545-4.675-3.545c-4.419,0-5.498,4.264-5.498,8.168c0,3.699,0.822,9.607,5.601,9.607
		c1.438,0,2.568-0.72,3.288-1.388c1.13-1.13,1.284-2.106,1.284-3.545V37.302z"/>
</g>
</svg>
