<?xml version="1.0" encoding="iso-8859-1"?>
<!-- Generator: Adobe Illustrator 14.0.0, SVG Export Plug-In . SVG Version: 6.00 Build 43363)  -->
<!DOCTYPE svg PUBLIC "-//W3C//DTD SVG 1.1//EN" "http://www.w3.org/Graphics/SVG/1.1/DTD/svg11.dtd">
<svg version="1.1" id="Calque_1" xmlns="http://www.w3.org/2000/svg" xmlns:xlink="http://www.w3.org/1999/xlink" x="0px" y="0px"
	 width="120px" height="77px" viewBox="0 0 120 77" style="enable-background:new 0 0 120 77;" xml:space="preserve">
<rect style="fill-rule:evenodd;clip-rule:evenodd;fill:#FF1400;" width="120" height="77"/>
<g>
	<path style="fill:#FFFFFF;" d="M30.802,31.463V13.526h3.964v14.71h7.266v3.227H30.802z"/>
	<path style="fill:#FFFFFF;" d="M45.925,16.168c-1.219,0-2.007-0.788-2.007-1.88s0.788-1.88,2.007-1.88
		c1.22,0,1.982,0.788,1.982,1.88S47.145,16.168,45.925,16.168z M44.121,31.463V17.896h3.557v13.567H44.121z"/>
	<path style="fill:#FFFFFF;" d="M55.924,36.925c-2.159,0-5.996-0.711-5.996-3.583c0-1.55,1.017-2.363,1.982-2.744v-0.051
		c-0.61-0.279-1.347-1.042-1.347-2.134c0-1.423,0.787-2.414,1.474-2.896c-0.915-0.864-1.347-2.033-1.347-3.328
		c0-2.49,1.753-4.726,5.31-4.726c1.042,0,2.16,0.279,2.871,0.686h3.734v2.541h-1.626c0.102,0.305,0.254,0.94,0.254,1.474
		c0,2.49-1.778,4.649-5.335,4.649c-0.66,0-1.296-0.127-1.753-0.254c-0.406-0.102-0.533-0.152-0.838,0.178
		c-0.103,0.102-0.204,0.483-0.204,0.737c0,0.584,0.433,1.042,1.271,1.042h4.345c2.235,0,3.861,1.22,3.861,3.557
		C62.58,35.502,59.1,36.925,55.924,36.925z M57.651,31.336h-3.785c-0.482,0-0.89,0.33-0.89,1.321c0,1.524,1.854,1.957,2.947,1.957
		c2.287,0,3.176-0.991,3.176-1.931C59.1,31.691,58.439,31.336,57.651,31.336z M56,19.649c-1.474,0-1.956,1.499-1.956,2.541
		c0,1.092,0.406,2.464,1.88,2.464s1.956-1.448,1.956-2.49C57.88,21.097,57.474,19.649,56,19.649z"/>
	<path style="fill:#FFFFFF;" d="M72.678,31.463v-8.587c0-1.372-0.482-2.312-2.032-2.312c-0.712,0-1.347,0.305-1.728,0.66
		c-0.687,0.661-0.737,0.991-0.737,1.906v8.333h-3.557V17.896h3.303v1.931c0.966-1.448,2.236-2.363,4.091-2.363
		c3.023,0,4.217,2.032,4.217,4.675v9.324H72.678z"/>
	<path style="fill:#FFFFFF;" d="M90.488,25.289h-8.409c0,0.025,0,0.051,0,0.076c0,2.414,1.753,3.709,4.039,3.709
		c1.22,0,2.516-0.508,3.227-0.889l0.94,2.642c-1.042,0.483-2.846,1.067-4.827,1.067c-4.243,0-6.91-2.896-6.91-7.114
		c0-3.583,1.931-7.317,6.274-7.317c4.192,0,5.742,3.227,5.742,6.352C90.564,24.248,90.539,24.832,90.488,25.289z M84.67,19.954
		c-2.032,0-2.667,1.728-2.667,2.921h5.208C87.338,21.453,86.474,19.954,84.67,19.954z"/>
	<path style="fill:#FFFFFF;" d="M36.032,61.096l-3.583-6.098c-0.584-0.99-1.143-1.066-1.55-1.066h-1.168v7.164h-3.964V43.159h5.818
		c4.039,0,7.724,0.915,7.724,5.157c0,2.998-2.338,4.345-3.913,4.599c0.737,1.296,3.786,5.844,5.438,8.181H36.032z M31.662,46.233
		h-1.931v4.751h2.159c1.524,0,3.303-0.458,3.303-2.439C35.193,46.487,33.237,46.233,31.662,46.233z"/>
	<path style="fill:#FFFFFF;" d="M47.701,61.578c-4.445,0-6.427-3.43-6.427-7.291c0-3.837,2.159-7.241,6.555-7.241
		c4.445,0,6.428,3.43,6.428,7.292C54.257,58.174,52.097,61.578,47.701,61.578z M47.829,49.841c-2.262,0-2.846,2.516-2.846,4.421
		s0.457,4.522,2.718,4.522c2.262,0,2.846-2.516,2.846-4.421S50.09,49.841,47.829,49.841z"/>
	<path style="fill:#FFFFFF;" d="M64.458,61.096v-1.677c-0.915,1.296-2.058,2.108-3.76,2.108c-2.922,0-4.142-2.032-4.142-4.675
		v-9.323h3.557v8.587c0,1.372,0.534,2.337,1.88,2.337c0.661,0,1.22-0.279,1.55-0.635c0.61-0.66,0.661-1.017,0.661-1.931v-8.358
		h3.557v13.566H64.458z"/>
	<path style="fill:#FFFFFF;" d="M75.887,66.558c-2.159,0-5.996-0.711-5.996-3.582c0-1.55,1.017-2.362,1.982-2.744v-0.051
		c-0.61-0.279-1.347-1.041-1.347-2.134c0-1.423,0.787-2.413,1.474-2.896c-0.915-0.863-1.347-2.032-1.347-3.328
		c0-2.489,1.753-4.726,5.31-4.726c1.042,0,2.16,0.28,2.871,0.687h3.734v2.54h-1.626c0.102,0.306,0.254,0.94,0.254,1.474
		c0,2.49-1.778,4.649-5.335,4.649c-0.66,0-1.296-0.127-1.753-0.254c-0.406-0.102-0.533-0.152-0.838,0.178
		c-0.103,0.102-0.204,0.482-0.204,0.737c0,0.584,0.433,1.041,1.271,1.041h4.345c2.235,0,3.861,1.22,3.861,3.557
		C82.543,65.135,79.063,66.558,75.887,66.558z M77.614,60.969h-3.785c-0.482,0-0.89,0.33-0.89,1.321
		c0,1.524,1.854,1.956,2.947,1.956c2.287,0,3.176-0.991,3.176-1.931C79.063,61.324,78.402,60.969,77.614,60.969z M75.963,49.282
		c-1.474,0-1.956,1.499-1.956,2.54c0,1.093,0.406,2.465,1.88,2.465s1.956-1.448,1.956-2.49
		C77.843,50.73,77.437,49.282,75.963,49.282z"/>
	<path style="fill:#FFFFFF;" d="M95.522,54.922h-8.409c0,0.025,0,0.051,0,0.076c0,2.414,1.753,3.71,4.039,3.71
		c1.22,0,2.516-0.509,3.227-0.89l0.94,2.643c-1.042,0.482-2.846,1.066-4.827,1.066c-4.243,0-6.91-2.896-6.91-7.113
		c0-3.582,1.931-7.317,6.274-7.317c4.192,0,5.742,3.227,5.742,6.352C95.599,53.881,95.573,54.465,95.522,54.922z M89.704,49.587
		c-2.032,0-2.667,1.728-2.667,2.922h5.208C92.372,51.086,91.508,49.587,89.704,49.587z"/>
</g>
</svg>
