<?xml version="1.0" encoding="iso-8859-1"?>
<!-- Generator: Adobe Illustrator 14.0.0, SVG Export Plug-In . SVG Version: 6.00 Build 43363)  -->
<!DOCTYPE svg PUBLIC "-//W3C//DTD SVG 1.1//EN" "http://www.w3.org/Graphics/SVG/1.1/DTD/svg11.dtd">
<svg version="1.1" id="Calque_1" xmlns="http://www.w3.org/2000/svg" xmlns:xlink="http://www.w3.org/1999/xlink" x="0px" y="0px"
	 width="120px" height="77px" viewBox="0 0 120 77" style="enable-background:new 0 0 120 77;" xml:space="preserve">
<rect style="fill-rule:evenodd;clip-rule:evenodd;fill:#0055C8;" width="120" height="77"/>
<g>
	<path style="fill:#FFFFFF;" d="M23.143,60.209c-4.81,0-8.505-1.056-11.672-2.991l3.343-6.452c2.288,1.584,4.634,2.64,7.86,2.64
		c3.226,0,7.273-1.936,7.273-6.804c0-2.992-1.994-7.098-9.62-7.215c-2.346,0-5.103-0.059-6.452-0.059l1.642-21.526h21.761v6.921
		H22.38l-0.586,7.86c0.234,0,0.762,0.059,1.173,0.059c11.32,0.528,15.896,6.921,15.896,13.139
		C38.862,53.698,32.586,60.209,23.143,60.209z"/>
	<path style="fill:#FFFFFF;" d="M58.034,60.209c-11.32,0-15.368-7.859-15.368-18.828c0-14.371,6.745-24.694,20.002-24.694
		c2.346,0,4.457,0.293,6.217,0.704l-1.291,7.039c-1.113-0.469-3.284-0.997-5.689-0.997c-5.806,0-10.029,4.634-10.616,12.962
		c1.408-1.231,4.106-2.815,8.564-2.815c6.863,0,12.376,4.517,12.376,12.259C72.229,54.109,66.715,60.209,58.034,60.209z
		 M57.212,40.091c-2.64,0-4.751,0.997-5.572,2.287c-0.469,0.704-0.469,2.347-0.469,3.578c0,3.93,2.288,7.742,6.511,7.742
		c4.105,0,6.217-3.343,6.217-6.921C63.898,42.906,61.318,40.091,57.212,40.091z"/>
	<path style="fill:#FFFFFF;" d="M102.197,50.59v8.622h-8.211V50.59H75.334v-7.684l16.071-25.104h10.792v26.336h4.869v6.452H102.197z
		 M93.986,25.075h-0.117c-0.176,0.704-1.35,3.226-2.992,5.807l-8.445,13.256h11.555V25.075z"/>
</g>
</svg>
