<?xml version="1.0" encoding="iso-8859-1"?>
<!-- Generator: Adobe Illustrator 14.0.0, SVG Export Plug-In . SVG Version: 6.00 Build 43363)  -->
<!DOCTYPE svg PUBLIC "-//W3C//DTD SVG 1.1//EN" "http://www.w3.org/Graphics/SVG/1.1/DTD/svg11.dtd">
<svg version="1.1" id="Calque_1" xmlns="http://www.w3.org/2000/svg" xmlns:xlink="http://www.w3.org/1999/xlink" x="0px" y="0px"
	 width="120px" height="77px" viewBox="0 0 120 77" style="enable-background:new 0 0 120 77;" xml:space="preserve">
<rect style="fill-rule:evenodd;clip-rule:evenodd;fill:#FF5A00;" width="120" height="77"/>
<g>
	<path d="M23.97,60.209c-4.81,0-8.505-1.056-11.672-2.991l3.343-6.452c2.288,1.584,4.634,2.64,7.859,2.64
		c3.226,0,7.273-1.936,7.273-6.804c0-2.992-1.994-7.098-9.619-7.215c-2.347,0-5.103-0.059-6.452-0.059l1.642-21.526h21.761v6.921
		H23.207l-0.586,7.86c0.234,0,0.762,0.059,1.173,0.059c11.32,0.528,15.896,6.921,15.896,13.139
		C39.689,53.698,33.413,60.209,23.97,60.209z"/>
	<path d="M58.86,60.209c-11.32,0-15.368-7.859-15.368-18.828c0-14.371,6.745-24.694,20.001-24.694c2.346,0,4.457,0.293,6.217,0.704
		l-1.29,7.039c-1.114-0.469-3.284-0.997-5.689-0.997c-5.807,0-10.03,4.634-10.617,12.962c1.408-1.231,4.106-2.815,8.564-2.815
		c6.862,0,12.376,4.517,12.376,12.259C73.055,54.109,67.541,60.209,58.86,60.209z M58.039,40.091c-2.64,0-4.751,0.997-5.572,2.287
		c-0.469,0.704-0.469,2.347-0.469,3.578c0,3.93,2.288,7.742,6.511,7.742c4.106,0,6.217-3.343,6.217-6.921
		C64.726,42.906,62.145,40.091,58.039,40.091z"/>
	<path d="M91.986,60.209c-11.32,0-15.368-7.859-15.368-18.828c0-14.371,6.745-24.694,20.001-24.694c2.347,0,4.458,0.293,6.218,0.704
		l-1.29,7.039c-1.115-0.469-3.285-0.997-5.689-0.997c-5.807,0-10.03,4.634-10.617,12.962c1.408-1.231,4.105-2.815,8.564-2.815
		c6.861,0,12.375,4.517,12.375,12.259C106.18,54.109,100.666,60.209,91.986,60.209z M91.164,40.091c-2.639,0-4.75,0.997-5.572,2.287
		c-0.469,0.704-0.469,2.347-0.469,3.578c0,3.93,2.287,7.742,6.511,7.742c4.106,0,6.218-3.343,6.218-6.921
		C97.852,42.906,95.271,40.091,91.164,40.091z"/>
</g>
</svg>
