<?xml version="1.0" encoding="iso-8859-1"?>
<!-- Generator: Adobe Illustrator 14.0.0, SVG Export Plug-In . SVG Version: 6.00 Build 43363)  -->
<!DOCTYPE svg PUBLIC "-//W3C//DTD SVG 1.1//EN" "http://www.w3.org/Graphics/SVG/1.1/DTD/svg11.dtd">
<svg version="1.1" id="Calque_1" xmlns="http://www.w3.org/2000/svg" xmlns:xlink="http://www.w3.org/1999/xlink" x="0px" y="0px"
	 width="120px" height="77px" viewBox="0 0 120 77" style="enable-background:new 0 0 120 77;" xml:space="preserve">
<rect style="fill-rule:evenodd;clip-rule:evenodd;fill:#82C8E6;" width="120" height="77"/>
<g>
	<path d="M30.032,26.117v31.752h-8.555V26.117h-11.9v-6.965h32.355v6.965H30.032z"/>
	<path d="M47.195,57.869V19.152h8.555v38.717H47.195z"/>
	<path d="M98.415,57.869l-0.548-22.32c-0.055-1.535,0.055-4.113,0.055-5.1h-0.109c-0.165,1.261-0.769,3.619-1.536,5.703
		l-7.897,21.717h-6.087L74.34,36.098c-0.658-1.755-1.261-4.277-1.426-5.429h-0.109c0.055,1.207,0.109,3.126,0.055,4.662
		l-0.658,22.539h-7.458l1.316-38.717h9.706l8.501,23.472c0.878,2.357,1.37,4.277,1.535,5.374h0.11
		c0.219-1.151,0.713-2.962,1.535-5.374l7.951-23.472h9.762l1.535,38.717H98.415z"/>
</g>
</svg>
