<?xml version="1.0" encoding="iso-8859-1"?>
<!-- Generator: Adobe Illustrator 14.0.0, SVG Export Plug-In . SVG Version: 6.00 Build 43363)  -->
<!DOCTYPE svg PUBLIC "-//W3C//DTD SVG 1.1//EN" "http://www.w3.org/Graphics/SVG/1.1/DTD/svg11.dtd">
<svg version="1.1" id="Calque_1" xmlns="http://www.w3.org/2000/svg" xmlns:xlink="http://www.w3.org/1999/xlink" x="0px" y="0px"
	 width="120px" height="77px" viewBox="0 0 120 77" style="enable-background:new 0 0 120 77;" xml:space="preserve">
<g>
	<rect style="fill-rule:evenodd;clip-rule:evenodd;fill:#A0006E;" width="120" height="77"/>
	<g>
		<path style="fill:#FFFFFF;" d="M32.049,69.817c-6.941,0-12.275-1.524-16.846-4.317l4.825-9.313
			c3.302,2.286,6.688,3.81,11.344,3.81c4.656,0,10.497-2.794,10.497-9.82c0-4.317-2.878-10.243-13.884-10.412
			c-3.386,0-7.365-0.085-9.312-0.085l2.371-31.069h31.407v9.99H30.949l-0.847,11.344c0.338,0,1.101,0.085,1.693,0.085
			c16.339,0.762,22.942,9.989,22.942,18.963C54.737,60.42,45.679,69.817,32.049,69.817z"/>
		<path style="fill:#FFFFFF;" d="M82.107,69.817c-16.338,0-22.18-11.344-22.18-27.175c0-20.741,9.735-35.64,28.867-35.64
			c3.387,0,6.434,0.423,8.975,1.016l-1.863,10.159c-1.608-0.677-4.74-1.439-8.211-1.439c-8.381,0-14.477,6.688-15.323,18.709
			c2.032-1.778,5.926-4.063,12.36-4.063c9.904,0,17.861,6.518,17.861,17.692C102.594,61.013,94.637,69.817,82.107,69.817z
			 M80.922,40.78c-3.809,0-6.856,1.439-8.042,3.302c-0.677,1.016-0.677,3.386-0.677,5.164c0,5.672,3.301,11.174,9.396,11.174
			c5.926,0,8.974-4.825,8.974-9.989C90.573,44.844,86.848,40.78,80.922,40.78z"/>
	</g>
</g>
</svg>
