<?xml version="1.0" encoding="utf-8"?>
<!-- Generator: Adobe Illustrator 21.0.2, SVG Export Plug-In . SVG Version: 6.00 Build 0)  -->
<svg version="1.1" id="Calque_1" xmlns="http://www.w3.org/2000/svg" xmlns:xlink="http://www.w3.org/1999/xlink" x="0px" y="0px"
	 viewBox="0 0 120 77" style="enable-background:new 0 0 120 77;" xml:space="preserve">
<style type="text/css">
	.st0{fill-rule:evenodd;clip-rule:evenodd;fill:#6E491E;}
	.st1{fill:#FFFFFF;}
</style>
<g>
	<g>
		<rect class="st0" width="120" height="77"/>
	</g>
	<g>
		<path class="st1" d="M18.7,53c-3.3,0-6-0.9-7.8-1.8l1.7-4.8c1.5,0.9,4.1,1.8,6.4,1.8c2.6,0,4.5-1,4.5-3.3c0-2-2-2.9-3.6-3.6
			l-2-0.9c-3.7-1.6-6.6-3.6-6.6-8.1c0-4.8,3.9-8.4,10-8.4c2.5,0,5.3,0.4,7.6,1.6l-1.8,4.7c-1.6-0.9-3.6-1.5-5.8-1.5
			c-3.2,0-4,1.8-4,3.1c0,1.9,1.9,2.7,3.5,3.4l2,0.9c3.6,1.6,6.7,3.5,6.7,7.9C29.5,50.6,24.4,53,18.7,53z"/>
		<path class="st1" d="M45.1,53c-8.1,0-11.9-3.7-11.9-11.2V24.7h6.1v17c0,3.6,1.6,6.4,6,6.4c4.3,0,5.8-2.7,5.8-6.4v-17h6v17.1
			C57,49.3,53.3,53,45.1,53z"/>
		<path class="st1" d="M72.5,52.4H62.4V24.7h10.5c5.2,0,10,1.4,10,7c0,2.9-2.3,5-4.4,5.4v0.1c2.9,0.4,5.3,2.7,5.3,6.6
			C83.8,50.8,77.7,52.4,72.5,52.4z M71.5,29.4h-3v6.3h3.1c3.2,0,5.3-0.5,5.3-3.1C76.9,30,75,29.4,71.5,29.4z M71.8,40.1h-3.3v7.7
			h3.6c3.9,0,5.4-1.2,5.4-4.2C77.5,40.6,74.6,40.1,71.8,40.1z"/>
		<path class="st1" d="M98.1,52.4H88V24.7h10.5c5.2,0,10,1.4,10,7c0,2.9-2.3,5-4.4,5.4v0.1c2.9,0.4,5.3,2.7,5.3,6.6
			C109.4,50.8,103.3,52.4,98.1,52.4z M97.1,29.4h-3v6.3h3.1c3.2,0,5.3-0.5,5.3-3.1C102.6,30,100.7,29.4,97.1,29.4z M97.4,40.1h-3.3
			v7.7h3.6c3.9,0,5.4-1.2,5.4-4.2C103.1,40.6,100.2,40.1,97.4,40.1z"/>
	</g>
</g>
</svg>
