<?xml version="1.0" encoding="utf-8"?>
<!-- Generator: Adobe Illustrator 21.0.2, SVG Export Plug-In . SVG Version: 6.00 Build 0)  -->
<svg version="1.1" id="Calque_1" xmlns="http://www.w3.org/2000/svg" xmlns:xlink="http://www.w3.org/1999/xlink" x="0px" y="0px"
	 viewBox="0 0 120 77" style="enable-background:new 0 0 120 77;" xml:space="preserve">
<style type="text/css">
	.st0{fill-rule:evenodd;clip-rule:evenodd;fill:#D282BE;}
</style>
<g>
	<rect class="st0" width="120" height="77"/>
</g>
<g>
	<path d="M31.7,36l-5.5-7.6c-0.8-1.1-1.2-2-1.3-2.3h0V36h-3.1V20.8h3.1l5.4,7.9c0.8,1.2,1.3,2.1,1.4,2.4h0V20.8h3.1V36H31.7z"/>
	<path d="M45.8,36.2c-1.1,0-1.6-0.7-1.8-1.6c-1,1.1-1.8,1.7-3.4,1.7c-2,0-3.4-1.5-3.4-3.4c0-3.1,3.3-3.7,5.8-3.7
		c0.5,0,0.8,0,0.8-0.4V28c0-0.8-0.5-1.6-2.1-1.6c-1.3,0-2.4,0.6-2.9,1.1l-1.1-2.2c1.3-0.8,2.7-1.2,4.7-1.2c1.6,0,4.2,0.6,4.2,3.9
		v5.3c0,0.4,0,0.8,0.4,0.8c0.1,0,0.4-0.1,0.5-0.1l0.2,2C47.2,36.1,46.5,36.2,45.8,36.2z M43.7,31c-0.3,0-0.6,0-0.9,0
		c-1.1,0-2.7,0.3-2.7,1.6c0,0.8,0.6,1.4,1.4,1.4c0.7,0,1.2-0.2,1.6-0.6c0.3-0.4,0.5-0.8,0.5-1.4V31z"/>
	<path d="M55.3,36h-3.1l-3.7-11.5h3.3l1.5,6.1c0.2,1,0.5,2.3,0.6,2.7h0c0.1-0.5,0.4-1.9,0.6-2.8l1.6-6.1H59L55.3,36z"/>
	<path d="M70,30.8h-7.1c0,0,0,0,0,0.1c0,2.1,1.5,3.2,3.4,3.2c1,0,2.1-0.4,2.7-0.8l0.8,2.2c-0.9,0.4-2.4,0.9-4.1,0.9
		c-3.6,0-5.9-2.5-5.9-6c0-3,1.6-6.2,5.3-6.2c3.6,0,4.9,2.7,4.9,5.4C70,29.9,70,30.4,70,30.8z M65,26.2c-1.7,0-2.3,1.5-2.3,2.5h4.4
		C67.3,27.5,66.5,26.2,65,26.2z"/>
	<path d="M76.5,36.4c-2.1,0-3.3-1.1-3.3-3.3v-6.2h-1.9v-2.2h1.9v-2.3l3-1v3.3h2.6v2.2h-2.6v5.8c0,1.1,0.6,1.4,1.3,1.4
		c0.6,0,1.1-0.2,1.3-0.2l0.3,2.2C78.6,36.2,77.5,36.4,76.5,36.4z"/>
	<path d="M85,36.4c-2.1,0-3.3-1.1-3.3-3.3v-6.2h-1.9v-2.2h1.9v-2.3l3-1v3.3h2.6v2.2h-2.6v5.8c0,1.1,0.6,1.4,1.3,1.4
		c0.6,0,1.1-0.2,1.3-0.2l0.3,2.2C87.1,36.2,86.1,36.4,85,36.4z"/>
	<path d="M99,30.8h-7.1c0,0,0,0,0,0.1c0,2.1,1.5,3.2,3.4,3.2c1,0,2.1-0.4,2.7-0.8l0.8,2.2c-0.9,0.4-2.4,0.9-4.1,0.9
		c-3.6,0-5.9-2.5-5.9-6c0-3,1.6-6.2,5.3-6.2c3.6,0,4.9,2.7,4.9,5.4C99.1,29.9,99,30.4,99,30.8z M94,26.2c-1.7,0-2.3,1.5-2.3,2.5h4.4
		C96.3,27.5,95.6,26.2,94,26.2z"/>
	<path d="M21.3,57.2l-0.2-8.8c0-0.6,0-1.6,0-2h0c-0.1,0.5-0.3,1.4-0.6,2.2l-3.1,8.5H15l-3.1-8.6c-0.3-0.7-0.5-1.7-0.6-2.1h0
		c0,0.5,0,1.2,0,1.8L11,57.2H8l0.5-15.2h3.8l3.3,9.2c0.3,0.9,0.5,1.7,0.6,2.1h0c0.1-0.5,0.3-1.2,0.6-2.1l3.1-9.2H24l0.6,15.2H21.3z"
		/>
	<path d="M32.4,57.6c-3.8,0-5.5-2.9-5.5-6.2c0-3.3,1.8-6.2,5.6-6.2c3.8,0,5.5,2.9,5.5,6.2C38,54.7,36.2,57.6,32.4,57.6z M32.5,47.6
		c-1.9,0-2.4,2.1-2.4,3.8c0,1.6,0.4,3.8,2.3,3.8c1.9,0,2.4-2.1,2.4-3.8S34.5,47.6,32.5,47.6z"/>
	<path d="M47.1,57.2v-7.3c0-1.2-0.4-2-1.7-2c-0.6,0-1.1,0.3-1.5,0.6c-0.6,0.6-0.6,0.8-0.6,1.6v7.1h-3V45.6h2.8v1.6
		c0.8-1.2,1.9-2,3.5-2c2.6,0,3.6,1.7,3.6,4v7.9H47.1z"/>
	<path d="M60.9,57.4c-1.1,0-1.6-0.7-1.8-1.6c-1,1.1-1.8,1.7-3.4,1.7c-2,0-3.4-1.5-3.4-3.4c0-3.1,3.3-3.7,5.8-3.7
		c0.5,0,0.8,0,0.8-0.4v-0.8c0-0.8-0.5-1.6-2.1-1.6c-1.3,0-2.4,0.6-2.9,1.1l-1.1-2.2c1.3-0.8,2.7-1.2,4.7-1.2c1.6,0,4.2,0.6,4.2,3.9
		v5.3c0,0.4,0,0.8,0.4,0.8c0.1,0,0.4-0.1,0.5-0.1l0.2,2C62.4,57.2,61.6,57.4,60.9,57.4z M58.9,52.2c-0.3,0-0.6,0-0.9,0
		c-1.1,0-2.7,0.3-2.7,1.6c0,0.8,0.6,1.4,1.4,1.4c0.7,0,1.2-0.2,1.6-0.6c0.3-0.4,0.5-0.8,0.5-1.4V52.2z"/>
	<path d="M67.5,57.5c-1.4,0-2.7-0.5-3.4-0.9l0.9-2.2c0.7,0.5,1.8,0.9,2.7,0.9c0.8,0,1.8-0.3,1.8-1.2c0-0.8-0.6-1-1.7-1.4l-0.9-0.4
		c-1.5-0.6-2.5-1.5-2.5-3.2c0-2.2,1.8-3.9,4.5-3.9c1.4,0,2.5,0.5,3.1,0.8l-0.9,2.2c-0.7-0.4-1.6-0.7-2.3-0.7c-1.2,0-1.6,0.6-1.6,1.1
		c0,0.6,0.6,1,1.4,1.2l1,0.4c1.6,0.6,2.8,1.5,2.8,3.4C72.4,56,70.5,57.5,67.5,57.5z"/>
	<path d="M78.6,57.5c-2.1,0-3.3-1.1-3.3-3.3V48h-1.9v-2.2h1.9v-2.3l3-1v3.3H81V48h-2.6v5.8c0,1.1,0.6,1.4,1.3,1.4
		c0.6,0,1.1-0.2,1.3-0.2l0.3,2.2C80.7,57.4,79.7,57.5,78.6,57.5z"/>
	<path d="M92.6,51.9h-7.1c0,0,0,0,0,0.1c0,2.1,1.5,3.2,3.4,3.2c1,0,2.1-0.4,2.7-0.8l0.8,2.2c-0.9,0.4-2.4,0.9-4.1,0.9
		c-3.6,0-5.9-2.5-5.9-6c0-3,1.6-6.2,5.3-6.2c3.6,0,4.9,2.7,4.9,5.4C92.7,51,92.6,51.5,92.6,51.9z M86.6,44.5l-3.5-3.3h3.5l2.4,3.3
		H86.6z M87.6,47.4c-1.7,0-2.3,1.5-2.3,2.5h4.4C89.9,48.7,89.2,47.4,87.6,47.4z"/>
	<path d="M101.1,48.6c-0.2-0.1-0.6-0.3-1.1-0.3c-0.6,0-1,0.2-1.3,0.5c-0.4,0.4-0.4,0.8-0.4,1.5v7h-3v-8.6c0-1-0.1-2.4-0.1-2.9H98
		v1.7c0.7-1.1,1.4-2,2.9-2c0.4,0,0.9,0.1,1.1,0.2L101.1,48.6z"/>
	<path d="M112.5,51.9h-7.1c0,0,0,0,0,0.1c0,2.1,1.5,3.2,3.4,3.2c1,0,2.1-0.4,2.7-0.8l0.8,2.2c-0.9,0.4-2.4,0.9-4.1,0.9
		c-3.6,0-5.9-2.5-5.9-6c0-3,1.6-6.2,5.3-6.2c3.6,0,4.9,2.7,4.9,5.4C112.6,51,112.6,51.5,112.5,51.9z M107.6,47.4
		c-1.7,0-2.3,1.5-2.3,2.5h4.4C109.9,48.7,109.1,47.4,107.6,47.4z"/>
</g>
</svg>
