<?xml version="1.0" encoding="utf-8"?>
<!-- Generator: Adobe Illustrator 21.0.2, SVG Export Plug-In . SVG Version: 6.00 Build 0)  -->
<svg version="1.0" xmlns="http://www.w3.org/2000/svg" xmlns:xlink="http://www.w3.org/1999/xlink" x="0px" y="0px"
	 viewBox="0 0 120 77" enable-background="new 0 0 120 77" xml:space="preserve">
<g id="Calque_1">
</g>
<g id="Premier_plan">
	<g>
		<rect fill="#CD003C" width="120" height="77"/>
		<path fill="#FFFFFF" d="M67.9,26.3c0,0.8-0.5,1.5-1.3,1.7L58.2,31c0,0-0.3,0.1-0.3,0.3c0,0.2,0.3,0.4,0.3,0.4l4.1,2.8
			c0.8,0.6,1.1,1.7,0.5,2.6c-0.6,0.8-1.7,1-2.6,0.5l-8-5.4c-0.6-0.4-0.9-1.1-0.8-1.8c0.1-0.7,0.6-1.3,1.3-1.5l8-2.3
			c0,0,0.2,0,0.2-0.2c0-0.2-0.2-0.2-0.2-0.2l-8-2.3c-0.7-0.2-1.2-0.8-1.3-1.5c-0.1-0.7,0.2-1.4,0.8-1.8l8-5.4c0.8-0.6,2-0.4,2.6,0.5
			c0.6,0.8,0.4,2-0.5,2.5L58.2,21c0,0-0.3,0.2-0.3,0.4c0,0.2,0.3,0.3,0.3,0.3l8.5,2.9C67.4,24.8,67.9,25.5,67.9,26.3L67.9,26.3z
			 M85.9,23.6l-24-16.4c-1.2-0.8-2.7-0.8-3.8,0l-24,16.4c-0.9,0.6-1.4,1.6-1.4,2.7c0,1.1,0.5,2.1,1.4,2.7l24,16.4
			c0.6,0.4,1.2,0.6,1.9,0.6c0.7,0,1.3-0.2,1.9-0.6l24-16.4c0.9-0.6,1.4-1.6,1.4-2.7C87.4,25.2,86.8,24.2,85.9,23.6"/>
		<path fill="#FFFFFF" d="M8.9,69.4V50.7c2.4-0.3,4.2-0.4,6-0.4c2.4,0,6.2,1.1,6.2,6.2s-3.6,6.6-6.3,6.6c-2.4,0-0.7,0-2.4,0v6.4H8.9
			z M14.3,60.2c2.4,0,3.3-1.7,3.3-3.5c0-1.8-0.6-3.7-3.5-3.6c-0.5,0-1.3,0.1-1.3,0.1l-0.5,0.1v7C12.7,60.2,13.7,60.2,14.3,60.2z
			 M25.1,52.6h1.1c0,1.7-1,2.6-2.3,3.1c0.2,0.6,0.6,1.3,1,1.7c3-1.2,3.6-4.1,3.6-5.9c0-1,0-1.6,0-2.1h-3.9
			C24.7,50.6,24.8,51.5,25.1,52.6z M31.9,54.7h-1.7v2.8h1.7c0,0,0,4.8,0,7.1c0,3.1,1.1,5,4.6,5c1,0,2.2-0.2,3-0.6
			c-0.1-0.9-0.2-2-0.5-2.8c-0.5,0.2-1.3,0.5-2,0.5c-1.2,0-2-0.2-2-1.6c0-0.4,0-7.6,0-7.6h3.6c0.1-0.8,0.2-1.9,0.2-2.8h-3.8v-3.6
			c-0.9,0.1-2.1,0.3-3.2,0.5L31.9,54.7z M51.9,54.7h-1.7v2.8h1.7c0,0,0,4.8,0,7.1c0,3.1,1.1,5,4.6,5c1,0,2.2-0.2,3-0.6
			c-0.1-0.9-0.2-2-0.5-2.8c-0.5,0.2-1.3,0.5-2,0.5c-1.2,0-2-0.2-2-1.6c0-0.4,0-7.6,0-7.6h3.6c0.1-0.8,0.2-1.9,0.2-2.8h-3.8v-3.6
			c-0.9,0.1-2.1,0.3-3.2,0.5L51.9,54.7z M46.2,54.7H43v14.7h3.2V54.7z M42.8,50.8c0,1.3,0.8,1.9,1.8,1.9s1.8-0.7,1.8-1.9
			c0-1.2-0.7-2-1.8-2C43.5,48.9,42.8,49.6,42.8,50.8z M69.1,69.3c1.2,0.1,3.6,0.4,6.2,0.4c4.3,0,6.5-2.4,6.5-5.4
			c0-1.3-0.2-4-3.4-4.6v-0.2c2.3-1,2.7-2.4,2.7-4.7s-1.6-4.5-6.4-4.5c-1.5,0-3.2,0.1-5.5,0.4V69.3z M72.6,53.1
			c1.3-0.2,1.9-0.1,2.4-0.1c1.9,0,2.7,1,2.7,2.6c0,1.6-0.7,2.9-2.7,2.9s-2.4,0-2.4,0V53.1z M72.6,61.1c0,0,1.8,0,2.6,0
			c2.1,0,2.9,1.1,2.9,2.8c0,1.8-0.8,3-3,3c-1.1,0-1.6-0.1-2.5-0.1V61.1z M85.9,65.4c0,2.4,1.4,4.3,4.1,4.3c1.1,0,2.5-0.2,4.1-1.5
			h0.2v1.3h3.2V54.7c-0.9,0-2.3,0.1-3.2,0.2v11.3c-1,0.6-2.2,0.8-3.1,0.8c-2.1,0-2.2-1.4-2.2-2.2c0-0.8,0-10,0-10
			c-1.1,0-2.2,0.1-3.2,0.2C85.9,54.9,85.9,63.3,85.9,65.4z M107.8,54.5c-2.1,0-5.1,0.9-5.8,3.4c-0.5,1.8-0.2,3.6,2,4.8
			c1,0.5,2,0.7,2.8,1.1c0.9,0.4,1.9,0.7,1.6,2c-0.3,1.3-1.7,1.1-2.7,1c-1-0.1-2.1-0.3-3.3-0.9c-0.3,0.9-0.7,2.2-0.8,2.9
			c0.7,0.3,2.2,1,4.2,1c4.4,0.1,5.9-2.3,6-4.4c0-2.1-0.9-3.6-3.9-4.6c-0.8-0.3-1.3-0.4-2-0.8s-0.9-0.8-0.7-1.6
			c0.2-0.9,1.1-1.1,1.9-1.1c0.8,0,2.5,0.2,3.7,0.6c0.2-1,0.4-1.9,0.5-2.9C110.5,54.7,108.9,54.5,107.8,54.5z"/>
	</g>
</g>
</svg>
