<?xml version="1.0" encoding="iso-8859-1"?>
<!-- Generator: Adobe Illustrator 14.0.0, SVG Export Plug-In . SVG Version: 6.00 Build 43363)  -->
<!DOCTYPE svg PUBLIC "-//W3C//DTD SVG 1.1//EN" "http://www.w3.org/Graphics/SVG/1.1/DTD/svg11.dtd">
<svg version="1.1" id="Calque_1" xmlns="http://www.w3.org/2000/svg" xmlns:xlink="http://www.w3.org/1999/xlink" x="0px" y="0px"
	 width="120px" height="77px" viewBox="0 0 120 77" style="enable-background:new 0 0 120 77;" xml:space="preserve">
<g>
	<rect style="fill-rule:evenodd;clip-rule:evenodd;fill:#FFBE00;" width="120" height="77"/>
</g>
<g>
	<path d="M38.462,14.671V35.08h-5.499V14.671h-7.648v-4.476H46.11v4.476H38.462z"/>
	<path d="M59.747,35.68c-7.261,0-10.75-3.349-10.75-10.046V10.195h5.498v15.262c0,3.278,1.445,5.746,5.358,5.746
		c3.877,0,5.217-2.468,5.217-5.746V10.195h5.357v15.438C70.428,32.331,67.114,35.68,59.747,35.68z"/>
	<path d="M86.708,35.68c-6.31,0-12.337-4.159-12.337-12.76c0-7.438,4.335-13.395,12.337-13.395c3.066,0,5.322,0.634,7.12,1.445
		l-1.798,4.547c-1.622-0.917-3.454-1.339-5.041-1.339c-3.807,0-6.908,2.502-6.908,8.495c0,5.71,3.736,8.354,7.331,8.354
		c1.975,0,3.736-0.599,4.971-1.339l1.48,4.265C91.96,34.975,89.245,35.68,86.708,35.68z"/>
	<path d="M25.035,67.499c-6.204,0-11.562-3.349-11.562-13.147c0-9.693,6.31-13.147,11.632-13.147
		c6.203,0,11.561,3.349,11.561,13.147C36.666,64.045,30.357,67.499,25.035,67.499z M25.07,45.681c-4.547,0-5.922,4.018-5.922,8.671
		c0,4.652,1.445,8.671,5.922,8.671c4.547,0,5.921-4.019,5.921-8.671C30.991,49.698,29.547,45.681,25.07,45.681z"/>
	<path d="M51.432,66.829v-2.326c-1.27,1.798-2.855,2.926-5.217,2.926c-4.054,0-5.746-2.82-5.746-6.486V48.007h4.936v11.914
		c0,1.903,0.739,3.242,2.607,3.242c0.917,0,1.692-0.388,2.15-0.881c0.846-0.917,0.917-1.41,0.917-2.679V48.007h4.935v18.822H51.432z
		"/>
	<path d="M76.313,58.264H64.646c0,0.035,0,0.07,0,0.105c0,3.349,2.433,5.146,5.604,5.146c1.692,0,3.489-0.705,4.477-1.233
		l1.305,3.666c-1.445,0.669-3.948,1.48-6.697,1.48c-5.887,0-9.588-4.019-9.588-9.87c0-4.97,2.679-10.151,8.706-10.151
		c5.816,0,7.967,4.477,7.967,8.813C76.419,56.818,76.383,57.63,76.313,58.264z M68.241,50.862c-2.82,0-3.701,2.396-3.701,4.053
		h7.226C71.942,52.941,70.743,50.862,68.241,50.862z"/>
	<path d="M84.91,67.429c-2.361,0-4.477-0.812-5.534-1.445l1.516-3.631c1.199,0.846,2.926,1.41,4.406,1.41
		c1.305,0,2.891-0.458,2.891-1.938c0-1.234-1.022-1.622-2.785-2.291l-1.551-0.6c-2.432-0.952-4.054-2.396-4.054-5.146
		c0-3.56,2.996-6.38,7.402-6.38c2.361,0,4.089,0.74,5.076,1.234l-1.516,3.63c-1.093-0.705-2.608-1.128-3.807-1.128
		c-2.01,0-2.608,1.022-2.608,1.868c0,0.987,0.916,1.551,2.22,2.01l1.657,0.599c2.679,0.987,4.582,2.433,4.582,5.569
		C92.806,64.855,89.845,67.429,84.91,67.429z"/>
	<path d="M103.061,67.429c-3.349,0-5.429-1.798-5.429-5.429V51.884h-3.137v-3.524h3.137v-3.807l4.935-1.586v5.393h4.301v3.524
		h-4.301v9.518c0,1.868,1.022,2.291,2.15,2.291c1.022,0,1.728-0.247,2.15-0.388l0.493,3.63
		C106.444,67.182,104.717,67.429,103.061,67.429z"/>
</g>
</svg>
