<?xml version="1.0" encoding="iso-8859-1"?>
<!-- Generator: Adobe Illustrator 14.0.0, SVG Export Plug-In . SVG Version: 6.00 Build 43363)  -->
<!DOCTYPE svg PUBLIC "-//W3C//DTD SVG 1.1//EN" "http://www.w3.org/Graphics/SVG/1.1/DTD/svg11.dtd">
<svg version="1.1" id="Calque_1" xmlns="http://www.w3.org/2000/svg" xmlns:xlink="http://www.w3.org/1999/xlink" x="0px" y="0px"
	 width="120px" height="77px" viewBox="0 0 120 77" style="enable-background:new 0 0 120 77;" xml:space="preserve">
<g>
	<rect style="fill-rule:evenodd;clip-rule:evenodd;fill:#82DC73;" width="120" height="77"/>
</g>
<g>
	<path d="M38.462,14.671V35.08h-5.499V14.671h-7.648v-4.476H46.11v4.476H38.462z"/>
	<path d="M59.747,35.68c-7.261,0-10.75-3.349-10.75-10.046V10.195h5.498v15.262c0,3.278,1.445,5.746,5.358,5.746
		c3.877,0,5.217-2.468,5.217-5.746V10.195h5.357v15.438C70.428,32.331,67.114,35.68,59.747,35.68z"/>
	<path d="M86.708,35.68c-6.31,0-12.337-4.159-12.337-12.76c0-7.438,4.335-13.395,12.337-13.395c3.066,0,5.322,0.634,7.12,1.445
		l-1.798,4.547c-1.622-0.917-3.454-1.339-5.041-1.339c-3.807,0-6.908,2.502-6.908,8.495c0,5.71,3.736,8.354,7.331,8.354
		c1.975,0,3.736-0.599,4.971-1.339l1.48,4.265C91.96,34.975,89.245,35.68,86.708,35.68z"/>
	<path d="M37.544,66.829V41.944h15.403v4.477h-9.905v5.11h9.553v4.301h-9.553v6.521h10.434v4.477H37.544z"/>
	<path d="M62.319,67.429c-2.361,0-4.477-0.812-5.534-1.445l1.516-3.631c1.199,0.846,2.926,1.41,4.406,1.41
		c1.305,0,2.891-0.458,2.891-1.938c0-1.234-1.022-1.622-2.785-2.291l-1.551-0.6c-2.432-0.952-4.053-2.396-4.053-5.146
		c0-3.56,2.995-6.38,7.401-6.38c2.361,0,4.089,0.74,5.076,1.234l-1.516,3.63c-1.093-0.705-2.608-1.128-3.807-1.128
		c-2.01,0-2.608,1.022-2.608,1.868c0,0.987,0.916,1.551,2.221,2.01l1.656,0.599c2.679,0.987,4.582,2.433,4.582,5.569
		C70.215,64.855,67.254,67.429,62.319,67.429z"/>
	<path d="M80.47,67.429c-3.349,0-5.429-1.798-5.429-5.429V51.884h-3.137v-3.524h3.137v-3.807l4.935-1.586v5.393h4.301v3.524h-4.301
		v9.518c0,1.868,1.022,2.291,2.15,2.291c1.022,0,1.728-0.247,2.15-0.388l0.493,3.63C83.854,67.182,82.126,67.429,80.47,67.429z"/>
</g>
</svg>
