<?xml version="1.0" encoding="iso-8859-1"?>
<!-- Generator: Adobe Illustrator 14.0.0, SVG Export Plug-In . SVG Version: 6.00 Build 43363)  -->
<!DOCTYPE svg PUBLIC "-//W3C//DTD SVG 1.1//EN" "http://www.w3.org/Graphics/SVG/1.1/DTD/svg11.dtd">
<svg version="1.1" id="Calque_1" xmlns="http://www.w3.org/2000/svg" xmlns:xlink="http://www.w3.org/1999/xlink" x="0px" y="0px"
	 width="120px" height="77px" viewBox="0 0 120 77" style="enable-background:new 0 0 120 77;" xml:space="preserve">
<g>
	<rect style="fill:#00643C;" width="120" height="77"/>
	<g>
		<path style="fill:#FFFFFF;" d="M13.368,19.361V5.937h2.972v11.009h5.448v2.416H13.368z"/>
		<path style="fill:#FFFFFF;" d="M29.979,19.551c-0.953,0-1.429-0.59-1.581-1.388c-0.839,0.988-1.62,1.482-3.011,1.482
			c-1.79,0-3.01-1.293-3.01-3.022c0-2.758,2.896-3.29,5.144-3.29c0.419,0,0.667-0.02,0.667-0.361v-0.666
			c0-0.723-0.457-1.407-1.867-1.407c-1.181,0-2.076,0.552-2.515,0.933l-0.934-1.902c1.124-0.722,2.362-1.046,4.115-1.046
			c1.429,0,3.733,0.514,3.733,3.442v4.678c0,0.36,0.038,0.665,0.362,0.665c0.114,0,0.324-0.057,0.438-0.095l0.152,1.73
			C31.274,19.397,30.607,19.551,29.979,19.551z M28.169,14.987c-0.285-0.02-0.571-0.02-0.8-0.02c-0.934,0-2.343,0.229-2.343,1.445
			c0,0.742,0.533,1.274,1.276,1.274c0.591,0,1.086-0.19,1.429-0.552c0.305-0.323,0.438-0.704,0.438-1.198V14.987z"/>
		<path style="fill:#FFFFFF;" d="M47.829,19.361l-4.839-6.676c-0.686-0.931-1.048-1.749-1.162-2.053H41.79v8.729h-2.763V5.937h2.725
			l4.763,6.921c0.724,1.046,1.162,1.825,1.238,2.148h0.038V5.937h2.743v13.425H47.829z"/>
		<path style="fill:#FFFFFF;" d="M60.269,19.551c-0.953,0-1.429-0.59-1.582-1.388c-0.838,0.988-1.618,1.482-3.01,1.482
			c-1.79,0-3.01-1.293-3.01-3.022c0-2.758,2.896-3.29,5.144-3.29c0.419,0,0.667-0.02,0.667-0.361v-0.666
			c0-0.723-0.457-1.407-1.867-1.407c-1.181,0-2.076,0.552-2.514,0.933l-0.934-1.902c1.123-0.722,2.362-1.046,4.114-1.046
			c1.429,0,3.734,0.514,3.734,3.442v4.678c0,0.36,0.037,0.665,0.361,0.665c0.114,0,0.324-0.057,0.438-0.095l0.152,1.73
			C61.563,19.397,60.897,19.551,60.269,19.551z M58.459,14.987c-0.286-0.02-0.571-0.02-0.801-0.02c-0.934,0-2.343,0.229-2.343,1.445
			c0,0.742,0.533,1.274,1.276,1.274c0.59,0,1.086-0.19,1.429-0.552c0.305-0.323,0.438-0.704,0.438-1.198V14.987z"/>
		<path style="fill:#FFFFFF;" d="M68.65,19.361h-2.763L62.611,9.207h2.952l1.315,5.399c0.209,0.856,0.438,2.017,0.533,2.415h0.038
			c0.076-0.438,0.343-1.636,0.552-2.434l1.41-5.381h2.515L68.65,19.361z"/>
		<path style="fill:#FFFFFF;" d="M81.718,14.739h-6.306c0,0.02,0,0.038,0,0.058c0,1.807,1.315,2.776,3.029,2.776
			c0.914,0,1.886-0.38,2.419-0.666l0.706,1.978c-0.781,0.361-2.135,0.799-3.62,0.799c-3.181,0-5.182-2.168-5.182-5.324
			c0-2.681,1.448-5.477,4.705-5.477c3.144,0,4.306,2.416,4.306,4.754C81.775,13.961,81.756,14.397,81.718,14.739z M77.355,10.747
			c-1.523,0-2,1.292-2,2.187h3.905C79.355,11.869,78.708,10.747,77.355,10.747z"/>
		<path style="fill:#FFFFFF;" d="M87.51,19.684c-1.811,0-2.935-0.97-2.935-2.929v-5.456H82.88V9.396h1.695V7.343l2.667-0.855v2.909
			h2.324v1.902h-2.324v5.133c0,1.008,0.553,1.236,1.162,1.236c0.553,0,0.934-0.133,1.162-0.209l0.267,1.958
			C89.338,19.551,88.404,19.684,87.51,19.684z"/>
		<path style="fill:#FFFFFF;" d="M95.034,19.684c-1.811,0-2.934-0.97-2.934-2.929v-5.456h-1.696V9.396h1.696V7.343l2.666-0.855
			v2.909h2.324v1.902h-2.324v5.133c0,1.008,0.553,1.236,1.163,1.236c0.552,0,0.934-0.133,1.161-0.209l0.268,1.958
			C96.863,19.551,95.93,19.684,95.034,19.684z"/>
		<path style="fill:#FFFFFF;" d="M107.34,14.739h-6.306c0,0.02,0,0.038,0,0.058c0,1.807,1.314,2.776,3.029,2.776
			c0.914,0,1.886-0.38,2.419-0.666l0.705,1.978c-0.781,0.361-2.134,0.799-3.619,0.799c-3.182,0-5.182-2.168-5.182-5.324
			c0-2.681,1.447-5.477,4.705-5.477c3.144,0,4.306,2.416,4.306,4.754C107.397,13.961,107.378,14.397,107.34,14.739z M102.978,10.747
			c-1.524,0-2,1.292-2,2.187h3.905C104.978,11.869,104.33,10.747,102.978,10.747z"/>
	</g>
	<g>
		<g>
			<path style="fill:none;stroke:#FFFFFF;stroke-width:0.1993;stroke-miterlimit:1;" d="M68.177,34.473l0.005,0.003l0,0
				L68.177,34.473z M72.041,31.724c-0.02-0.021-0.038-0.04-0.056-0.059l-0.138-0.098c-0.044-0.06-0.103-0.098-0.173-0.121
				c0.005,0.002,0.008,0.002,0.01,0.005l-1.738-0.636c-0.035-0.016-0.077-0.018-0.116-0.018c-0.047,0-0.097,0.01-0.142,0.033
				c-0.079,0.036-0.142,0.107-0.171,0.188l-0.162,0.489l-0.672-0.207l0.093-0.313c0,0,0.001-0.003,0.001-0.008
				c0.053-0.224,0-0.377-0.055-0.466c-0.101-0.159-0.243-0.211-0.303-0.229l-1.54-0.438c-0.028-0.009-0.06-0.01-0.089-0.01
				c-0.059,0-0.115,0.015-0.168,0.044c-0.074,0.041-0.13,0.116-0.156,0.2l-0.214,0.841l-0.472-0.114
				C65.756,30.8,65.73,30.8,65.707,30.8c-0.065,0-0.125,0.016-0.179,0.047c-0.076,0.049-0.131,0.125-0.148,0.213l-0.069,0.329
				c-0.055-0.007-0.108-0.021-0.159-0.028l0.038-0.203l0,0c0.043-0.204-0.02-0.339-0.078-0.411c-0.067-0.086-0.163-0.14-0.265-0.157
				l-0.451-0.073l0.108-0.758c0.009-0.07-0.004-0.14-0.038-0.202c-0.104-0.197-0.33-0.303-1.322-0.399
				c-0.498-0.047-0.974-0.07-0.994-0.07c0,0-0.01,0-0.017,0c-0.171,0-0.314,0.136-0.327,0.31l-0.039,0.545
				c-0.132-0.007-0.299-0.014-0.449-0.019l0.017-0.438c0.002-0.027-0.004-0.057-0.009-0.085c-0.058-0.239-0.267-0.396-0.533-0.396
				c-0.014,0-0.027,0-0.04,0L58.7,29.011c-0.089,0-0.173,0.037-0.233,0.102c-0.065,0.06-0.098,0.143-0.098,0.233l0.009,0.558
				l-0.484,0.013l-0.019-0.446v-0.001v-0.005c0,0,0,0,0,0.002c-0.005-0.221-0.184-0.384-0.421-0.384c-0.011,0-0.019,0-0.034,0
				l-1.823,0.187c-0.257,0.013-0.412,0.212-0.412,0.403c0,0.016,0.002,0.034,0.007,0.053c0.053,0.355,0.077,0.585,0.092,0.733
				l-0.517,0.056c-0.09,0.012-0.172,0.056-0.229,0.129c-0.056,0.071-0.078,0.163-0.063,0.251l0.062,0.396l-0.095,0.014
				c-0.006-0.038-0.014-0.083-0.016-0.122c0,0.003,0,0.005,0,0.008c-0.021-0.22-0.138-0.344-0.174-0.381
				c-0.062-0.059-0.143-0.091-0.226-0.091c-0.021,0-0.043,0-0.063,0.005l-0.198,0.037l-0.167-0.56
				c-0.003-0.008-0.008-0.015-0.008-0.021c-0.143-0.384-0.617-0.436-0.712-0.444c-0.013,0-0.018,0-0.03,0
				c-0.023,0-0.056,0.003-0.08,0.009l-1.702,0.456c-0.088,0.02-0.16,0.08-0.205,0.157c-0.044,0.082-0.051,0.174-0.024,0.26
				l0.171,0.533L50.4,31.353l-0.172-0.528c-0.03-0.087-0.09-0.156-0.172-0.195c-0.045-0.022-0.095-0.033-0.141-0.033
				c-0.043,0-0.078,0.006-0.116,0.021l-1.777,0.643c-0.086,0.03-0.154,0.094-0.189,0.179c-0.036,0.078-0.036,0.171-0.004,0.257
				l0.577,1.431c0.023,0.066,0.073,0.118,0.133,0.155l0.919,0.56c0.038,0.047,0.104,0.183,0.143,0.294c0,0.003,0,0.009,0.005,0.011
				l0.922,2.376c-0.035,0.047-0.071,0.104-0.098,0.165c-0.038,0.103-0.064,0.252,0,0.437c-0.373,0.038-0.621,0.299-0.621,0.652
				v0.006l0.193,14.768c0,0.072,0.002,0.749,0.3,1.584c0.414,1.148,1.198,2.058,2.273,2.633c0.006,0.003,0.011,0.008,0.021,0.008
				c2.606,1.196,6.865,3.171,7.172,3.383c0.035,0.029,0.081,0.034,0.127,0.034c0.011,0,0.025-0.003,0.039-0.003
				s0.025,0.003,0.036,0.003c0.012,0,0.026-0.003,0.037-0.003c0.014,0,0.025,0.003,0.039,0.003c0.047,0,0.092-0.005,0.127-0.034l0,0
				c0.312-0.216,4.567-2.187,7.175-3.383c0.008,0,0.012-0.005,0.019-0.008c1.075-0.575,1.859-1.484,2.271-2.633
				c0.301-0.835,0.302-1.512,0.302-1.584l0.193-14.768v-0.006c0-0.347-0.235-0.599-0.591-0.65c0.029-0.137,0.013-0.218,0.005-0.253
				c-0.003-0.018-0.008-0.034-0.016-0.05c-0.027-0.08-0.077-0.197-0.158-0.296c0.007-0.025,0.02-0.052,0.037-0.086
				c0.002-0.005,0.005-0.013,0.005-0.018l0.897-2.254c0.009-0.004,0.022-0.011,0.041-0.016c0.015-0.003,0.021-0.008,0.036-0.01
				l0.81-0.333c0.011-0.004,0.021-0.009,0.03-0.012c0.049-0.024,0.299-0.167,0.375-0.429l0.469-1.104
				C72.145,32.11,72.175,31.889,72.041,31.724z M64.122,31.404l0.074-0.525c0.022,0.001,0.038,0.007,0.06,0.01l0.536,0.089
				c0.014,0.002,0.029,0.035,0.019,0.105l-0.083,0.398c0.003-0.007,0.006,0.141,0.006,0.141l0.08,0.067
				c0.005,0,0.739,0.145,0.739,0.145l0.061,0.011c0,0,0.114-0.548,0.138-0.648c0.082,0.023,0.529,0.133,0.708,0.177l-0.042,0.152
				c-0.012,0.029-0.009,0.078,0.012,0.122l-0.043,0.257l-0.022-0.008c-0.102,0.334,0.077,0.592,0.279,0.762
				c-1.161-0.299-2.357-0.517-3.574-0.653c0.154-0.077,0.357-0.236,0.413-0.544c0.247,0.042,0.381,0.064,0.381,0.064
				C64.133,31.547,64.122,31.404,64.122,31.404z M67.997,34.574c0.045-0.003,0.094-0.003,0.147,0.013h0.002h0.004
				c0.003,0.005,0.096,0.023,0.138,0.116c0.045,0.082,0.029,0.21-0.039,0.363c-0.003,0.002-0.349,0.96-0.414,1.149
				c-0.022-0.009-0.048-0.02-0.074-0.027l0.421-1.182C68.182,35.007,68.34,34.634,67.997,34.574z M68.773,36.686
				c0.02,0.04,0.044,0.076,0.089,0.108c0,0,0.206,0.121,0.059,0.362c0,0-0.121,0.241-0.373,0.135l-0.02,0.026
				c-9.285-3.663-16.999-0.338-17.506-0.112c-0.016-0.002-0.034-0.002-0.048-0.011c-0.064-0.019-0.117-0.072-0.155-0.154
				c-0.039-0.078-0.047-0.148-0.026-0.214c0.039-0.101,0.148-0.146,0.148-0.146C51.029,36.64,59.55,33.065,68.773,36.686z
				 M66.346,37.423H51.584l1.237-0.002c1.337-0.691,3.861-1.447,6.739-1.45C61.594,35.971,64.157,36.469,66.346,37.423z
				 M50.995,37.366l-0.004,0.057l0,0L50.995,37.366z M59.721,33.051c0.023,0,0.045-0.004,0.07-0.004h0.004h0.008
				c0,0,0.188-0.027,0.326,0.087c0.099,0.084,0.149,0.222,0.155,0.411c0,0,0.01,1.183,0.013,1.398c-0.065,0-0.127,0-0.191,0v-1.382
				C60.105,33.562,60.118,33.103,59.721,33.051z M60.201,33.041c-0.174-0.146-0.398-0.115-0.415-0.115
				c-0.166,0.005-0.299,0.055-0.396,0.153c-0.164,0.161-0.164,0.4-0.162,0.411l0.023,1.453h0.05v0.01
				c-0.768,0.021-1.488,0.066-2.146,0.14l-0.283-2.975c1.774-0.186,3.787-0.237,5.93-0.016l-0.256,2.966
				c-0.734-0.071-1.445-0.113-2.129-0.124l-0.016-1.399C60.396,33.319,60.329,33.149,60.201,33.041z M62.502,31.942
				c-1.841-0.167-3.734-0.154-5.644,0.04l0,0l-0.001-0.037l-0.037-0.013c-0.008-0.002-0.563-0.187-0.563-0.572
				c3.495-0.342,6.076-0.067,7.106,0.086c-0.079,0.411-0.461,0.502-0.497,0.511h-0.048v0.022
				C62.713,31.967,62.607,31.951,62.502,31.942z M57.036,35.101c-0.202,0.022-0.396,0.047-0.585,0.077
				c-1.051,0.137-1.992,0.33-2.783,0.527l-0.853-2.865c0.011-0.011,0.027-0.025,0.045-0.042c1.075-0.256,2.399-0.508,3.893-0.668
				L57.036,35.101z M62.663,35.084l0.259-2.97c1.302,0.135,2.652,0.374,4.024,0.747c0.038,0.018,0.07,0.036,0.095,0.045
				l-0.763,2.841C65.03,35.417,63.818,35.207,62.663,35.084z M57.46,29.47L57.46,29.47c0,0.004,0.029,0.009,0.029,0.009v0.005
				c0,0.064,0.02,0.685,0.02,0.685c0-0.011,0.034,0.082,0.034,0.082c0.032,0.043,0.094,0.06,0.176,0.06l0.954-0.025
				c0.032-0.005,0.108-0.036,0.095-0.185c0,0-0.002-0.528-0.005-0.701c0.112,0,2.005-0.003,2.005-0.003
				c0.018-0.002,0.153-0.013,0.177,0.09c-0.003,0.003-0.023,0.651-0.023,0.651c0-0.006,0.033,0.103,0.033,0.103l0.161,0.063
				l0.899,0.034c0.06-0.011,0.133-0.061,0.133-0.188c0,0.005,0.031-0.5,0.04-0.671c0.74,0.033,1.535,0.116,1.822,0.204l-0.196,1.344
				c-0.021,0.127-0.112,0.101-0.112,0.101c-3.697-0.65-7.816-0.032-7.816-0.032c-0.078,0.017-0.102-0.068-0.102-0.068
				c0.02-0.078-0.118-1.11-0.156-1.369C55.717,29.649,57.46,29.47,57.46,29.47z M53.586,31.874c0.082,0,0.101-0.042,0.101-0.042
				l-0.163-0.631c0.104-0.021,0.422-0.08,0.477-0.09c0.016,0.019,0.031,0.053,0.037,0.114c0.028,0.246,0.064,0.388,0.109,0.424
				c0.021,0.032,0.063,0.079,0.194,0.068c0.007,0,0.641-0.112,0.641-0.112s-0.096-0.608-0.113-0.712
				c0.105-0.01,0.759-0.086,0.759-0.086c0.009-0.002,0.02-0.008,0.024-0.016c0.022,0.211,0.037,0.361,0.037,0.361
				c0.013,0.074,0.379,0.229,0.379,0.229c0.025-0.005,0.051-0.007,0.075-0.01c0.003,0.351,0.355,0.555,0.538,0.632
				c-0.227,0.024-0.445,0.05-0.671,0.078c-1.132,0.147-2.15,0.352-3.023,0.553c0.121-0.172,0.256-0.426,0.233-0.697
				C53.455,31.894,53.586,31.874,53.586,31.874z M48.76,32.961c-0.014-0.035-0.504-1.252-0.548-1.357
				c0.108-0.036,1.561-0.564,1.666-0.601c0.031,0.095,0.196,0.613,0.196,0.613c-0.001-0.013,0.076,0.127,0.076,0.127l0.173,0.045
				c0.014-0.005,1.12-0.371,1.12-0.371l0.056-0.018c0,0-0.24-0.739-0.272-0.841c0.101-0.028,1.316-0.353,1.587-0.422
				c0.034,0.048,0.056,0.126,0.056,0.126l0.308,1.198c0.012,0.119-0.088,0.117-0.088,0.117c-1.657,0.287-3.898,1.22-4.31,1.394
				C48.772,32.97,48.765,32.961,48.76,32.961z M49.199,33.164c1.693-0.692,3.173-1.05,3.903-1.199
				c0.013,0.297-0.183,0.573-0.302,0.717c-1.568,0.377-2.62,0.765-2.947,0.89L49.199,33.164z M49.968,34.004
				c-0.008-0.023-0.059-0.169-0.132-0.298c0.221-0.088,1.25-0.482,2.854-0.868l0.002,0.002l0.858,2.891
				c-0.346,0.086-0.665,0.171-0.95,0.257l-0.408-1.167c-0.048-0.179-0.129-0.303-0.243-0.36c-0.143-0.068-0.28-0.011-0.283-0.008
				c-0.112,0.036-0.192,0.103-0.238,0.205c-0.084,0.184,0.013,0.404,0.016,0.411c0-0.002,0.386,1.147,0.386,1.147l0.039-0.01v0.007
				l0.522-0.172l-0.415-1.188c0,0-0.1-0.348-0.388-0.22c0.028-0.029,0.067-0.054,0.121-0.07c0.004-0.004,0.098-0.042,0.188,0.006
				c0.084,0.039,0.144,0.134,0.18,0.284c0.005,0.006,0.348,0.979,0.41,1.17c-0.831,0.246-1.363,0.453-1.532,0.523L49.968,34.004z
				 M50.271,47.893h0.632v0.584l-0.625,0.001L50.271,47.893z M50.281,48.597l2.861-0.01c-0.038,0.161-0.057,0.324-0.057,0.487
				c0,0.147,0.017,0.29,0.05,0.433h-0.555v-0.713h0.523c0.007-0.041,0.014-0.081,0.021-0.119l-2.834,0.01v0.117l0.922-0.003v0.708
				h-0.922L50.281,48.597z M51.022,48.477v-0.584l1.146-0.005v0.589H51.022z M53.417,47.93c-0.104,0.175-0.186,0.358-0.24,0.537
				l-0.892,0.006v-0.585l1.132-0.003V47.93C53.417,47.931,53.417,47.931,53.417,47.93z M59.137,48.571
				c0.003,0.028,0.012,0.054,0.018,0.082l-1.152,0.004c0.032-0.027,0.068-0.056,0.102-0.083L59.137,48.571z M58.245,48.457
				c0.102-0.083,0.199-0.152,0.282-0.215v0.213L58.245,48.457z M58.854,47.885l-0.122-0.02h0.441l0,0
				c-0.033,0.152-0.055,0.302-0.055,0.454c0,0.048,0.007,0.094,0.008,0.141v-0.005h-0.479v-0.302c0.137-0.098,0.229-0.16,0.229-0.16
				l0.132-0.084L58.854,47.885z M62.85,46.799l0.065,0.01l0.027-1.451h0.001l0.003-0.111c-0.066-0.004-0.12-0.055-0.12-0.123
				c0-0.066,0.055-0.122,0.124-0.122l0,0l0.004-0.111l0,0l0.004-0.356v0.01v-0.005l-0.009-0.558l0.018-0.02l-0.009,0.577
				l0.007,0.466c0.063,0.011,0.107,0.059,0.107,0.119c0,0.063-0.044,0.109-0.103,0.119l0.028,1.7l1.727,0.281
				c-0.321,0.223-1.189,0.854-1.696,1.563l0.05,3.104l-0.246,0.074v-0.021l-0.009,0.003l0.009-0.423c0.002,0,0.002,0,0.008,0
				l0.005-0.353c-0.002-0.006-0.005-0.013-0.005-0.018l0.016-0.984c0,0,0.002,0,0.009,0l0.008-0.535l-0.006,0.033l0.006-0.382
				c-0.001,0.008-0.008,0.015-0.012,0.024c0.006-0.011,0.012-0.024,0.016-0.032l0.005-0.266c-0.049,0.085-0.095,0.168-0.13,0.253
				c-0.37,0.888-0.07,1.84,0.044,2.137c-0.324-0.051-1.438-0.281-2.626-1.327c-0.616-0.537-0.927-1.13-0.931-1.756
				c-0.003-0.638,0.331-1.289,0.94-1.843l2.738,0.451l0.003-0.119L62.85,46.799z M61.812,44.303c-0.062-0.112-0.026-0.2-0.011-0.231
				c0.161-0.133,0.438-0.018,0.44-0.018h0.008l0.001,0.002c0.304,0.068,0.488,0.064,0.598,0.039l-0.005,0.236
				c-0.197,0.069-0.515-0.016-0.641-0.067h-0.005H62.19C61.991,44.219,61.871,44.232,61.812,44.303z M61.906,44.576
				c0.024,0.034,0.047,0.073,0.046,0.107c-0.002,0.01-0.008,0.041-0.06,0.075l-0.002,0.002H61.89c0,0-0.068,0.04-0.239-0.002
				c0.085,0,0.193-0.031,0.239-0.117C61.899,44.619,61.906,44.595,61.906,44.576z M62.829,43.805c0-0.064,0.052-0.116,0.114-0.116
				c0.064,0,0.119,0.052,0.119,0.116s-0.052,0.116-0.119,0.116C62.88,43.921,62.829,43.869,62.829,43.805z M64.107,47.846h0.789
				v0.591l-1.13,0.005v-0.294C63.885,48.04,63.995,47.939,64.107,47.846z M63.65,48.258v0.184h-0.183
				C63.527,48.377,63.59,48.317,63.65,48.258z M64.901,49.543v0.021c-0.382-0.111-0.76-0.214-1.138-0.304v-0.503l1.118-0.005v0.79
				H64.901z M68.061,49.626v0.671h-0.99v0.014c-0.055-0.024-0.109-0.042-0.166-0.063v-0.622H68.061z M67.498,49.507v-0.763
				l1.131-0.002v0.765H67.498z M68.061,54.147l-0.592-0.003l-0.005-0.848h0.597V54.147z M68.629,54.265v0.396
				c-0.477-0.069-0.921-0.203-1.16-0.274v-0.125L68.629,54.265z M67.464,53.177l-0.002-0.852h1.167v0.852H67.464z M68.061,52.208
				h-0.599v-0.661l0,0v-0.074l0.599-0.01V52.208z M65.579,52.537l0.02-0.007h0.004l0.004-0.004c0.022-0.008,0.209-0.093,0.232-0.24
				c0.011-0.078-0.026-0.149-0.106-0.218c0.049-0.163,0.093-0.326,0.135-0.485l0.017-0.005h0.01l0.007-0.006
				c0.019-0.017,0.188-0.14,0.177-0.285c-0.009-0.073-0.058-0.133-0.15-0.182l-0.022-0.009l-0.021,0.009l-2.7,0.755l-0.024-1.631
				c2.362,0.486,3.95,1.269,4.185,1.387l0.001,0.616v2.108c-0.036-0.014-0.057-0.018-0.057-0.018l-0.013-0.008h-0.008l-2.454,0.008
				C65.086,53.774,65.358,53.165,65.579,52.537z M65.563,52.418l-3.044,0.788c-0.01-0.002-0.018-0.01-0.027-0.016
				c0,0,0-0.025-0.006-0.014c-0.004-0.041,0.039-0.113,0.08-0.16l3.108-0.843c0.032,0.034,0.05,0.065,0.048,0.093
				C65.709,52.34,65.603,52.399,65.563,52.418z M62.738,50.146l-0.008,0.51c-0.025-0.158-0.033-0.335-0.029-0.515
				C62.713,50.142,62.726,50.145,62.738,50.146z M62.701,50.021c0.007-0.11,0.023-0.224,0.045-0.339l-0.006,0.349
				C62.728,50.026,62.715,50.022,62.701,50.021z M62.809,51.05c-0.03-0.115-0.058-0.25-0.078-0.394
				C62.751,50.8,62.78,50.932,62.809,51.05z M65.888,51.223c0.04,0.023,0.068,0.05,0.069,0.075c0.004,0.06-0.073,0.141-0.118,0.172
				l-3.153,0.855c-0.025-0.015-0.032-0.031-0.038-0.044c-0.013-0.052,0.036-0.128,0.063-0.167L65.888,51.223z M63.146,49.251
				c0.147,0.033,0.299,0.06,0.449,0.096l-0.146,0.823c-0.094-0.019-0.194-0.038-0.293-0.061L63.146,49.251z M65.688,50.805
				l0.231-0.794c0.338,0.113,0.681,0.242,1.026,0.378l-0.278,0.79C66.401,51.067,66.073,50.94,65.688,50.805z M67.344,51.352v0.063
				v0.07c-0.108-0.054-0.313-0.153-0.6-0.274l0.279-0.79c0.204,0.082,0.406,0.165,0.615,0.253l-0.247,0.678H67.344z M67.479,51.352
				l0.276-0.753l-0.045-0.019l0.003-0.002c-0.129-0.058-0.26-0.107-0.392-0.161h1.307v0.921L67.479,51.352z M67.376,49.507h-1.074
				v-0.759l1.074-0.004V49.507z M66.787,49.626v0.575c-0.364-0.14-0.728-0.27-1.089-0.391v-0.185H66.787z M66.183,49.507H65v-0.754
				l1.183-0.005V49.507z M65.579,49.626v0.147c-0.151-0.051-0.307-0.101-0.459-0.147H65.579z M65.839,49.983l-0.231,0.797
				c-0.293-0.103-0.617-0.207-0.975-0.31l0.191-0.806C65.159,49.76,65.499,49.866,65.839,49.983z M64.745,49.642l-0.192,0.807
				c-0.318-0.091-0.661-0.18-1.025-0.263l0.148-0.821C64.026,49.441,64.384,49.541,64.745,49.642z M63.644,49.235
				c-0.168-0.039-0.334-0.073-0.5-0.107l-0.002-0.29c0.015-0.025,0.032-0.052,0.054-0.08h0.448V49.235z M59.662,49.723
				c-0.239-0.004-0.48-0.006-0.728,0c-0.004,0-0.008,0-0.012,0l-0.015-0.89c0.093,0,0.188,0,0.28,0.003
				C59.276,49.144,59.433,49.44,59.662,49.723z M58.828,48.833l0.013,0.895c-0.331,0.007-0.658,0.03-0.983,0.057l-0.079-0.899
				C58.119,48.861,58.464,48.843,58.828,48.833z M58.938,49.842c0.28-0.006,0.555-0.006,0.829,0l-0.004-0.006
				c0.1,0.111,0.204,0.22,0.326,0.327c1.154,1.018,2.221,1.279,2.625,1.345l-0.01,0.488l-0.045,0.01l-0.015,0.008l-0.015,0.013
				c-0.016,0.017-0.129,0.152-0.098,0.282c0.008,0.039,0.034,0.097,0.12,0.138l0.018,0.008l0.022-0.006l3.039-0.832
				c-0.036,0.154-0.081,0.304-0.13,0.457l-2.875,0.779c0.034-0.154,0.053-0.311,0.059-0.43l-0.115,0.031h-0.005
				c-0.006,0.122-0.035,0.277-0.074,0.436l-0.072,0.019l-0.018,0.002l-0.013,0.013c-0.022,0.032-0.154,0.173-0.116,0.297
				c0.007,0.021,0.024,0.047,0.053,0.066c-0.131,0.217-0.332,0.399-0.646,0.472c-0.022,0.008-1.592,0.49-4.802,0.067l-0.062-3.814
				C57.583,49.917,58.259,49.859,58.938,49.842z M56.913,49.896v-0.01c0.185-0.334,0.479-0.667,0.787-0.959l0.073,0.866
				C57.484,49.82,57.201,49.854,56.913,49.896z M61.812,53.872c0.365-0.085,0.593-0.3,0.74-0.552l2.885-0.747
				c-0.663,1.856-1.771,3.569-1.948,3.834c-0.021-0.001-0.039-0.01-0.062-0.016c-0.01-0.002-0.014-0.002-0.021-0.006
				c-0.371-0.113-0.604-0.251-0.666-0.29l-0.301-1.016c0.09-0.073,0.147-0.186,0.147-0.313c0-0.231-0.188-0.42-0.417-0.42
				c-0.232,0-0.42,0.188-0.42,0.42c0,0.203,0.146,0.375,0.344,0.411l0.299,1.032l-0.002,0.003c-0.299,0.161-0.621,0.266-0.955,0.296
				l-0.494-1.688c-0.034-0.139-0.156-0.168-0.213-0.163H60.72h-0.002c-0.127,0.031-0.143,0.158-0.13,0.227v0.002v0.006l0.01,0.03
				l0.063,0.223c-0.103-0.047-0.177-0.147-0.177-0.27c0-0.165,0.136-0.304,0.301-0.304c0.164,0,0.296,0.139,0.296,0.304
				c0,0.068-0.025,0.127-0.064,0.178l0.039,0.134c0.091-0.075,0.148-0.187,0.148-0.312c0-0.233-0.192-0.419-0.419-0.419
				c-0.231,0-0.421,0.186-0.421,0.419c0,0.202,0.146,0.369,0.338,0.405l0.361,1.234c-0.548-0.029-0.979-0.219-1.169-0.317
				l-0.389-1.306c-0.037-0.141-0.158-0.17-0.218-0.164h-0.003h-0.004c-0.129,0.028-0.142,0.158-0.129,0.227l0,0v0.004l0.073,0.252
				c-0.104-0.047-0.179-0.152-0.179-0.271c0-0.167,0.135-0.299,0.301-0.299c0.165,0,0.299,0.132,0.299,0.299
				c0,0.068-0.026,0.125-0.068,0.178l0.042,0.136c0.088-0.076,0.146-0.188,0.146-0.313c0-0.231-0.188-0.421-0.418-0.421
				c-0.232,0-0.421,0.189-0.421,0.421c0,0.201,0.148,0.37,0.34,0.409l0.268,0.884c-0.3,0.175-0.607,0.28-0.922,0.327l-0.496-1.735
				c-0.044-0.142-0.163-0.166-0.221-0.163l-0.005,0.002c-0.121,0.026-0.146,0.149-0.133,0.222v0.002l0.002,0.006l0.01,0.036
				l0.065,0.232c-0.106-0.049-0.184-0.153-0.184-0.276c0-0.163,0.135-0.3,0.302-0.3c0.166,0,0.3,0.137,0.3,0.3
				c0,0.07-0.027,0.131-0.066,0.18l0.039,0.136c0.089-0.077,0.146-0.192,0.146-0.315c0-0.229-0.188-0.419-0.418-0.419
				c-0.23,0-0.418,0.19-0.418,0.419c0,0.203,0.145,0.372,0.34,0.412l0.368,1.285c-0.552-0.015-0.948-0.228-1.12-0.339l-0.345-1.174
				c0.089-0.077,0.146-0.185,0.146-0.313c0-0.231-0.187-0.417-0.417-0.417c-0.234,0-0.421,0.186-0.421,0.417
				c0,0.204,0.148,0.375,0.343,0.411l-0.039-0.134c-0.109-0.044-0.187-0.149-0.187-0.277c0-0.164,0.136-0.299,0.304-0.299
				c0.162,0,0.297,0.135,0.297,0.299c0,0.07-0.026,0.13-0.064,0.183l-0.07-0.233c-0.03-0.104-0.103-0.148-0.162-0.159
				c-0.02-0.006-0.038-0.006-0.054-0.006l-0.003,0.004h-0.004c-0.12,0.027-0.145,0.15-0.131,0.223
				c0.003,0.005,0.332,1.153,0.407,1.412c-0.138,0.053-0.272,0.096-0.404,0.136c-0.014,0.005-0.031,0.011-0.047,0.011
				c-0.13,0.039-0.256,0.072-0.38,0.096H55.86c-1.562-1.81-1.901-2.838-1.904-2.849l-0.003-0.019l-0.018-0.014
				c0,0-0.093-0.072-0.092-0.067c-0.049-0.044-0.076-0.088-0.07-0.111c0-0.012,0.011-0.025,0.021-0.03
				C59.188,54.694,61.785,53.881,61.812,53.872z M59.267,54.928c-0.001-0.013-0.008-0.067,0.037-0.083
				c0.02,0,0.067,0.007,0.086,0.077l0.398,1.333v0.005c0.139,0.448,0.265,0.881,0.317,1.054l-0.127-0.009L59.267,54.928z
				 M59.854,57.301c-0.629-0.083-1.064-0.32-1.072-0.324l-0.006-0.004l-0.002-0.002c-0.015-0.004-0.029-0.009-0.044-0.013
				l-0.083-0.283c0.312-0.051,0.62-0.16,0.923-0.327L59.854,57.301z M59.941,56.354c0.234,0.107,0.651,0.264,1.156,0.281l0.15,0.523
				c-0.354,0.128-0.701,0.174-1.013,0.171L59.941,56.354z M61.19,56.54h0.006l-0.023-0.072l-0.468-1.607
				c-0.003-0.005-0.006-0.023,0-0.04c0-0.007,0.005-0.009,0.008-0.016c0.002-0.004,0.002-0.007,0.002-0.007
				c0.005-0.013,0.015-0.017,0.026-0.022c0.021,0,0.07,0.006,0.089,0.074c0,0.002,0.479,1.648,0.479,1.648l0.012,0.042l0,0
				c0.069,0.239,0.127,0.437,0.156,0.539c-0.047,0.002-0.087,0.012-0.121,0.027L61.19,56.54z M61.468,56.624
				c0.148-0.017,0.29-0.043,0.432-0.084l0,0h0.007c0.179-0.055,0.354-0.125,0.523-0.215l0.303,1.048
				c-0.644-0.063-1.106-0.274-1.113-0.276h-0.003l-0.008-0.002c0,0,0,0-0.005-0.004L61.468,56.624z M62.536,56.266v-0.004
				l-0.017-0.044l-0.426-1.462c-0.002-0.013-0.009-0.073,0.037-0.083c0.019,0,0.066,0.005,0.088,0.076c0,0,0.647,2.188,0.777,2.624
				l-0.139-0.001L62.536,56.266z M61.977,54.78L61.977,54.78l0.001,0.005l0.094,0.318l-0.019-0.063
				c-0.108-0.04-0.185-0.148-0.185-0.273c0-0.163,0.133-0.302,0.302-0.302c0.163,0,0.298,0.139,0.298,0.302
				c0,0.07-0.028,0.132-0.069,0.184l-0.065-0.236c-0.041-0.143-0.162-0.165-0.221-0.16C61.985,54.58,61.965,54.705,61.977,54.78z
				 M57.174,56.407c0.222,0.128,0.604,0.29,1.104,0.296l0.091,0.311c-0.311,0.145-0.629,0.226-0.938,0.268L57.174,56.407z
				 M57.308,57.282l-0.131,0.017l-0.743-2.556c-0.004-0.016-0.008-0.07,0.036-0.083l0,0l0,0c0.005,0,0.011,0,0.016,0.002
				c0.005,0.003,0.011,0.003,0.011,0.003c0.011,0.003,0.012,0.005,0.013,0.008c0.009,0,0.015,0.009,0.021,0.016
				c0.001,0.003,0.005,0.003,0.005,0.003c0.009,0.014,0.021,0.029,0.021,0.045c0.002,0.002,0.459,1.558,0.459,1.558l0.007,0.021
				h0.001C57.15,56.743,57.264,57.131,57.308,57.282z M57.875,54.862c0-0.002,0-0.011,0-0.018V54.84c0-0.008,0-0.01,0-0.02
				c0-0.007,0.003-0.007,0.006-0.013c0.005-0.005,0.005-0.01,0.007-0.01c0.006-0.011,0.013-0.017,0.022-0.017
				c0.021,0,0.069,0.004,0.089,0.075l0.601,2.086c-0.048,0.001-0.09,0.007-0.122,0.02L57.875,54.862z M55.643,53.183
				c-0.029,0.053-0.097,0.215,0.088,0.449c-0.588-0.108-1.222-0.242-1.896-0.412c-0.133-0.259-0.183-0.493-0.196-0.595
				L55.643,53.183z M53.406,52.434c-0.015-0.032-0.036-0.099,0.015-0.173l2.374,0.655c0,0.043-0.012,0.111-0.059,0.169
				L53.406,52.434z M56.46,53.753c-0.179-0.027-0.362-0.057-0.549-0.09c-0.091-0.089-0.198-0.245-0.143-0.446l0.006,0.006
				l0.028-0.026c0.132-0.125,0.112-0.324,0.112-0.333l-0.006-0.038l-0.037-0.011l-2.455-0.676l-0.038-0.011l-0.025,0.025
				c-0.132,0.141-0.079,0.301-0.032,0.365l0.011,0.019l0.021,0.005l0.163,0.048c0.008,0.066,0.04,0.333,0.202,0.651
				c-0.031,0.021-0.056,0.052-0.065,0.101c-0.01,0.071,0.028,0.142,0.115,0.22c0.004,0,0.06,0.044,0.082,0.062
				c0.024,0.068,0.11,0.297,0.328,0.686l-1.754-0.005l-0.021-3.001c0.477-0.212,0.966-0.401,1.457-0.566
				c0.062,0.061,0.124,0.125,0.195,0.187c1.135,0.993,2.064,1.265,2.426,1.338L56.46,53.753z M52.289,52.325l0.008,0.852H51.33
				v-0.852H52.289z M51.901,52.208v-0.766h0.381l0.004,0.766H51.901z M51.901,53.297h0.396l0.004,0.848h-0.399V53.297z
				 M52.302,54.261v0.068c-0.088,0.052-0.506,0.161-0.972,0.271v-0.336L52.302,54.261z M52.282,51.226v0.039v0.063H51.33v-0.91
				h0.689l0.29,0.797L52.282,51.226z M51.901,49.626h1.154v0.163c-0.572,0.227-0.938,0.421-1.071,0.497l0.009,0.011h-0.092V49.626z
				 M51.33,49.507v-0.708l1.134-0.005v0.713H51.33z M52.09,50.362c0.124-0.069,0.46-0.241,0.99-0.448l0.265,0.882
				c-0.323,0.119-0.64,0.246-0.959,0.385L52.09,50.362z M53.422,50.767l-0.264-0.881c0.027-0.011,0.059-0.023,0.089-0.034
				c0.113,0.272,0.292,0.537,0.526,0.792C53.656,50.685,53.541,50.722,53.422,50.767z M53.177,49.743V49.65
				c0.006,0.03,0.019,0.056,0.025,0.084C53.195,49.734,53.183,49.74,53.177,49.743z M50.292,49.626h1.49v0.671h-1.48L50.292,49.626z
				 M50.307,50.417h0.907v0.91h-0.896L50.307,50.417z M50.334,52.561c0-0.007,0-0.009,0-0.009l-0.013-1.109h1.461v0.766h-1.445
				v0.117h0.877v0.852h-0.82C50.337,52.846,50.334,52.612,50.334,52.561z M50.414,53.297h1.368v0.851l-1.119,0.002
				C50.542,53.836,50.462,53.545,50.414,53.297z M50.716,54.27h0.498v0.358c-0.099,0.024-0.197,0.045-0.296,0.066
				C50.84,54.549,50.774,54.409,50.716,54.27z M52.589,56.39c-0.764-0.443-1.273-1.017-1.609-1.589
				c0.339-0.073,1.219-0.271,1.399-0.382l1.871,0.009c0.277,0.477,0.739,1.155,1.483,2.019c-1.087,0.161-1.702-0.197-1.738-0.221
				l0,0l-0.012-0.008c-0.048-0.028-0.124-0.06-0.176-0.026c-0.018,0.011-0.03,0.021-0.036,0.04
				C53.452,56.418,52.762,56.399,52.589,56.39z M54.535,57.301c-0.833-0.387-1.494-0.684-1.72-0.789c0.231,0.009,0.735,0,1.037-0.19
				l0.025-0.018v-0.002c0.012,0.002,0.028,0.007,0.051,0.023c0.034,0.02,0.869,0.547,2.385,0.113c0.006,0,0.014-0.003,0.021-0.005
				c0.137-0.042,0.277-0.086,0.424-0.143c0.135,0.458,0.256,0.878,0.301,1.026c-0.883,0.043-1.588-0.195-1.601-0.197
				c-0.074-0.029-0.14-0.029-0.182,0c-0.035,0.022-0.047,0.057-0.054,0.079C55.151,57.299,54.723,57.317,54.535,57.301z
				 M59.981,59.891H59.96c-0.272-0.193-3.126-1.526-5.168-2.471c0.168,0.005,0.445-0.015,0.537-0.166l0.01-0.013v-0.017l0.001-0.007
				c0,0,0.021-0.01,0.081,0.015c0.015,0.007,1.602,0.539,3.015-0.118l0.009-0.003l0,0l0.01-0.005l0.188-0.043
				c0.028,0.002,0.056,0.005,0.086,0.018c0.074,0.041,1.276,0.68,2.598,0.173h0.009l0.005-0.007h0.007l0.219-0.042
				c0.007,0,0.007,0,0.008,0c0.07,0.034,1.452,0.641,2.813,0.049l0.013-0.004l0.01-0.011c0,0,0.059-0.06,0.198,0.036l0.011,0.006
				l0.007,0.005c0.196,0.046,0.423,0.106,0.536,0.133C63.118,58.358,60.253,59.697,59.981,59.891z M65.335,57.332l-0.108-0.022
				c-0.037-0.005-0.316-0.074-0.563-0.139c-0.185-0.119-0.294-0.051-0.33-0.026c-0.413,0.183-0.831,0.243-1.21,0.248l-0.337-1.131
				c0.129,0.069,0.327,0.159,0.577,0.234c0.009,0.002,0.016,0.004,0.026,0.004c0.036,0.015,0.067,0.025,0.107,0.038l0.042,0.01l0,0
				c0.576,0.14,1.396,0.195,2.354-0.184l0.007-0.003l0.009-0.006c0.005-0.002,0.067-0.049,0.146,0.003
				c0.022,0.012,0.431,0.235,0.83,0.266C66.554,56.772,65.996,57.03,65.335,57.332z M67.211,56.474c0,0-0.046,0.022-0.124,0.056
				c-0.396-0.015-0.968-0.268-0.973-0.27c-0.125-0.083-0.235-0.027-0.267-0.005c-0.907,0.357-1.684,0.315-2.24,0.187
				c0.151-0.229,0.644-0.998,1.147-2.002l2.5-0.006c0.097,0.034,0.903,0.317,1.698,0.382C68.598,55.42,68.054,56.023,67.211,56.474z
				 M69.019,54.705c-0.093-0.009-0.184-0.017-0.269-0.027V54.27h0.479C69.167,54.412,69.098,54.557,69.019,54.705z M69.275,54.149
				l-1.094-0.002v-0.851h1.345C69.478,53.545,69.4,53.836,69.275,54.149z M69.609,52.561c0,0.052-0.008,0.285-0.061,0.616H68.75
				v-0.852h0.859v0.227C69.609,52.552,69.609,52.554,69.609,52.561z M69.611,52.208h-1.43v-0.746l1.44-0.017L69.611,52.208z
				 M69.622,51.329l-0.872,0.009v-0.921h0.886L69.622,51.329z M69.636,50.297h-1.454v-0.671h1.467L69.636,50.297z M69.649,49.507
				H68.75v-0.765l0.909-0.002L69.649,49.507z M69.659,48.62l-6.366,0.021c0.022-0.025,0.045-0.054,0.068-0.08l6.298-0.015V48.62z
				 M65.015,48.437v-0.591l1.188-0.009v0.597L65.015,48.437z M66.321,48.434v-0.597l1.084-0.001v0.596L66.321,48.434z
				 M67.524,48.432v-0.596l1.13-0.006v0.599L67.524,48.432z M69.664,48.429h-0.891V47.83h0.898L69.664,48.429z M69.706,37.541
				c0.054,0.047,0.098,0.123,0.098,0.233l-0.074,5.359H50.222v0.12h19.508l-0.058,4.457l-5.421,0.018
				c0.365-0.296,0.652-0.485,0.662-0.489l0.129-0.084l-0.153-0.022l-1.87-0.306l0.091,0.016l-0.022-1.537
				c0.057-0.042,0.096-0.106,0.096-0.183c0-0.077-0.041-0.142-0.102-0.187l-0.013-0.938c0.064-0.041,0.114-0.112,0.114-0.194
				c0-0.13-0.107-0.237-0.239-0.237c-0.125,0-0.235,0.109-0.235,0.237c0,0.074,0.038,0.137,0.093,0.178
				c-0.091,0.017-0.248,0.019-0.52-0.041c-0.04-0.015-0.358-0.137-0.568,0.047l-0.003,0.008l-0.003,0.003
				c-0.046,0.067-0.086,0.225,0.021,0.396l-0.002-0.003c0.062,0.086,0.074,0.159,0.056,0.196c-0.018,0.038-0.083,0.053-0.132,0.053
				c-0.142-0.015-0.241,0.008-0.304,0.071c-0.064,0.063-0.062,0.138-0.062,0.147l0.114,0.014c0.013-0.029,0.124-0.023,0.209-0.003
				c0.235,0.058,0.333,0,0.351-0.016c0.083-0.051,0.104-0.118,0.109-0.162c0.009-0.122-0.099-0.231-0.133-0.264
				c-0.014-0.023-0.018-0.042-0.018-0.061c0.023-0.011,0.089-0.023,0.245,0.008c0.031,0.016,0.403,0.143,0.677,0.075l-0.008,0.469
				c-0.073,0.04-0.124,0.113-0.124,0.202c0,0.087,0.048,0.156,0.117,0.195l-0.024,1.469l-2.632-0.432l-0.031-0.003l-0.02,0.018
				c-0.465,0.417-0.773,0.892-0.911,1.374l-1.181,0.006l-1.238-0.206l0.09,0.017l-0.036-2.247c0.063-0.042,0.108-0.111,0.108-0.191
				c0-0.086-0.047-0.157-0.112-0.199l-0.015-0.914c0.072-0.044,0.127-0.116,0.127-0.207c0-0.131-0.106-0.235-0.236-0.235
				c-0.128,0-0.237,0.104-0.237,0.235c0,0.07,0.032,0.132,0.084,0.176c-0.072,0.023-0.233,0.045-0.573-0.034
				c-0.017-0.002-0.38-0.093-0.586,0.039c-0.078,0.05-0.124,0.123-0.139,0.212c-0.001,0.01-0.021,0.159,0.08,0.287l-0.003,0.003
				c0.062,0.079,0.081,0.149,0.063,0.187c-0.018,0.033-0.08,0.052-0.131,0.052h0.005c-0.141-0.013-0.242,0.01-0.312,0.075
				c-0.062,0.061-0.057,0.131-0.057,0.139l0.112,0.021c0.014-0.03,0.121-0.029,0.207-0.005c0.243,0.064,0.338,0.001,0.356-0.014
				l-0.006,0.005c0.086-0.055,0.109-0.121,0.11-0.168c0.012-0.113-0.082-0.218-0.126-0.257c-0.002-0.025-0.002-0.08,0.032-0.117
				c0.046-0.044,0.141-0.049,0.272-0.023c0.041,0.017,0.451,0.162,0.727,0.061l-0.008,0.488c-0.063,0.041-0.11,0.108-0.11,0.194
				c0,0.077,0.046,0.145,0.108,0.189l-0.034,2.195l0.116,0.018l0.016-0.946l0.019-1.226l0,0v-0.111
				c-0.062-0.009-0.106-0.055-0.106-0.119c0-0.06,0.05-0.11,0.111-0.118l0,0v-0.003l0.004-0.113h-0.004l0.005-0.332l0.003,0.037
				v-0.029l0.004,0.438c0.066,0.003,0.12,0.056,0.12,0.121c0,0.064-0.051,0.119-0.114,0.119l0.011,0.722l0.024,1.578h-0.002
				l0.002,0.12l1.928,0.317c-0.367,0.256-1.455,1.05-1.892,1.881v0.282c0.004,0,0.004-0.002,0.004-0.002l0.059,3.644l-0.003-0.002
				v0.053l-0.282-0.045l0.054-3.51c-0.251,0.809-0.117,1.617-0.063,1.874c-0.275-0.046-1.24-0.28-2.431-1.321
				c-0.616-0.54-0.928-1.134-0.931-1.758c-0.005-0.638,0.331-1.288,0.941-1.843l2.521,0.411l0.003-0.118l-2.534-0.413l-0.026-0.006
				l-0.023,0.019c-0.224,0.2-0.412,0.417-0.563,0.642l-3.248,0.012l-0.133-10.003c0-0.11,0.042-0.187,0.096-0.233H69.706z
				 M55.51,44.32c-0.03,0.033-0.048,0.072-0.054,0.109c-0.09-0.093-0.079-0.211-0.079-0.218c0.01-0.052,0.038-0.099,0.085-0.13
				c0.169-0.104,0.494-0.023,0.494-0.023c0.357,0.077,0.542,0.062,0.646,0.03l-0.004,0.221c-0.19,0.106-0.554,0.014-0.691-0.041
				l-0.005-0.003l-0.003-0.002C55.717,44.228,55.587,44.245,55.51,44.32z M55.527,44.657c0.025,0.031,0.049,0.075,0.047,0.109
				c0,0.012-0.003,0.041-0.057,0.078h-0.003H55.51c0,0-0.062,0.038-0.241-0.003h0.004c0.084,0,0.192-0.028,0.237-0.117
				C55.522,44.704,55.527,44.684,55.527,44.657z M56.595,43.802c0-0.062,0.054-0.116,0.119-0.116c0.063,0,0.117,0.055,0.117,0.116
				c0,0.065-0.053,0.117-0.117,0.117C56.648,43.919,56.595,43.867,56.595,43.802z M69.729,33.819l-0.972,2.571
				c0,0-0.025,0.07-0.023,0.156c-0.265-0.104-0.527-0.202-0.789-0.289l0.412-1.146c0.084-0.188,0.099-0.344,0.037-0.463
				c-0.067-0.135-0.201-0.171-0.213-0.174c-0.12-0.039-0.227-0.031-0.316,0.019c-0.197,0.101-0.271,0.35-0.273,0.359
				c0.001-0.002-0.324,0.88-0.426,1.148c-0.262-0.085-0.516-0.155-0.772-0.225l0.767-2.86c0.855,0.24,1.718,0.535,2.587,0.884
				L69.729,33.819z M70.547,33.404l-0.655,0.229l-0.063,0.072c-0.921-0.372-1.868-0.689-2.836-0.953
				c-0.215-0.112-0.588-0.372-0.529-0.748c0.016,0.009,0.035,0.012,0.055,0.017c0,0,2.383,0.622,4.042,1.322
				C70.561,33.344,70.614,33.381,70.547,33.404z M71.542,31.876l-0.192,0.433c-0.14,0.301-0.304,0.661-0.367,0.794
				c-1.118-0.561-4.289-1.448-4.426-1.486c-0.003-0.003-0.029-0.013-0.029-0.038c0-0.005,0-0.011,0.005-0.016
				c0-0.005,0.31-1.143,0.353-1.313c0.273,0.083,1.436,0.41,1.436,0.41c0.02,0.008,0.089,0.03,0.089,0.14
				c0,0.024-0.002,0.05-0.01,0.086c0-0.006-0.131,0.453-0.131,0.453c0-0.002-0.045,0.084-0.015,0.169
				c0.015,0.034,0.05,0.077,0.128,0.105l1.22,0.379c0,0,0.234-0.691,0.268-0.791c0.106,0.039,1.682,0.615,1.682,0.615
				c0.001,0,0.004,0.005,0.004,0.011C71.555,31.838,71.551,31.85,71.542,31.876z M53.234,42.468l0.563,0.105v0.021l0.056-0.01
				l0.057,0.01v-0.021l0.563-0.105c0.844,0.038,1.264-0.996,1.278-1.038l0.069-0.177l-0.155,0.103
				c-0.14,0.091-0.402,0.066-0.402,0.066c-0.645-0.049-0.894,0.119-0.919,0.141c-0.186,0.108-0.313,0.248-0.403,0.381v-1.178
				l0.043,0.004c0-0.004,0.032-0.18,0.157-0.326c0.015-0.016,0.254-0.325,0.05-0.709v-0.005l-0.006-0.002
				c-0.038-0.053-0.091-0.159-0.06-0.194c0.025-0.009,0.088-0.01,0.158,0.101l0.003,0.002l0.002,0.006
				c0.011,0.007,0.201,0.243,0.605,0.146l0,0l0,0l0,0c0.033-0.01,0.171-0.048,0.463-0.338l0.032-0.034l-0.022-0.038
				c-0.01-0.017-0.244-0.41-0.686-0.417c-0.019,0-0.113-0.006-0.312,0.052c-0.036,0.008-0.089,0.008-0.102-0.009
				c-0.003-0.005-0.004-0.016,0.002-0.04c0.017-0.015,0.053-0.039,0.112-0.061c0.006,0,0.482-0.112,0.512-0.545
				c0,0,0.005-0.191,0.071-0.303l0.066-0.109l-0.129,0.021c-0.027,0.004-0.682,0.121-0.896,0.51l-0.12,0.163
				c-0.013,0.021-0.06,0.067-0.092,0.067c-0.021,0-0.03-0.055-0.03-0.055c-0.022-0.113-0.112-0.383-0.451-0.514
				c-0.012-0.005-0.137-0.054-0.498-0.066l-0.095-0.003l0.041,0.086c0,0.003,0.081,0.174,0.116,0.29
				c0.001,0.011,0.097,0.355,0.463,0.421c0,0,0.099,0.025,0.114,0.091c-0.003,0.008-0.01,0.022-0.023,0.027
				c-0.013,0.009-0.031,0.009-0.058,0.003c-0.004,0-0.637-0.187-1.018,0.488l-0.029,0.052l0.052,0.027
				c0.015,0.008,0.366,0.203,0.427,0.233l-0.005-0.001c0.123,0.079,0.404,0.158,0.599-0.093c0.026-0.047,0.103-0.14,0.187-0.146
				c0.012,0.024,0.02,0.095-0.058,0.249c-0.003,0.002-0.184,0.371,0.098,0.668c0.036,0.037,0.076,0.078,0.106,0.117v1.315
				c-0.088-0.119-0.204-0.243-0.369-0.336H53.36c0,0,0,0,0.003,0c-0.033-0.022-0.283-0.189-0.918-0.141
				c-0.005,0-0.263,0.024-0.405-0.066l-0.153-0.097l0.067,0.171C51.972,41.472,52.391,42.506,53.234,42.468z M53.79,42.452
				l-0.046-0.009h0.046V42.452z M54.404,41.664l0.007-0.003v-0.006c0,0,0.225-0.163,0.841-0.115
				c0.011,0.001,0.172,0.016,0.327-0.024c-0.14,0.274-0.515,0.863-1.111,0.834h-0.009l-0.004,0.003l-0.538,0.1v-0.009h0.023v-0.256
				C54.016,42.021,54.155,41.811,54.404,41.664z M53.711,40.381c-0.222-0.229-0.084-0.521-0.078-0.533
				c0.07-0.142,0.097-0.253,0.069-0.334c-0.021-0.056-0.063-0.078-0.069-0.081h-0.012l-0.005-0.003
				c-0.183-0.017-0.311,0.188-0.314,0.196c-0.171,0.226-0.424,0.069-0.439,0.062l-0.001-0.003H52.86
				c-0.045-0.022-0.264-0.144-0.366-0.198c0.313-0.506,0.78-0.402,0.842-0.384l0,0h0.009c0.072,0.018,0.123,0.003,0.151-0.019
				c0.063-0.04,0.078-0.108,0.078-0.116l0.002-0.007l-0.002-0.012c-0.012-0.126-0.141-0.181-0.211-0.196
				c-0.291-0.053-0.373-0.327-0.373-0.34c-0.021-0.069-0.058-0.152-0.08-0.217c0.262,0.015,0.356,0.05,0.356,0.05
				c0.293,0.112,0.365,0.334,0.382,0.426c0.004,0.07,0.055,0.153,0.146,0.153c0.103,0,0.181-0.104,0.188-0.117l0.123-0.163v-0.002
				l0.002-0.003c0.136-0.257,0.515-0.384,0.707-0.431c-0.038,0.117-0.041,0.236-0.044,0.242c-0.018,0.342-0.4,0.435-0.418,0.438
				c-0.121,0.036-0.176,0.101-0.182,0.106l-0.008,0.008l-0.006,0.01c-0.027,0.091-0.003,0.137,0.02,0.168
				c0.066,0.073,0.191,0.056,0.217,0.046c0.193-0.059,0.274-0.049,0.274-0.049h0.004h0.004c0.305,0.003,0.497,0.229,0.561,0.322
				c-0.259,0.243-0.369,0.272-0.369,0.272c-0.33,0.077-0.48-0.1-0.487-0.109l0.007,0.01c-0.12-0.188-0.265-0.175-0.326-0.141h-0.007
				l-0.002,0.003c-0.133,0.11,0.005,0.317,0.036,0.356c0.163,0.313-0.029,0.565-0.036,0.575c-0.07,0.083-0.116,0.172-0.144,0.244
				C53.857,40.535,53.779,40.45,53.711,40.381z M52.455,41.54c0.616-0.048,0.837,0.115,0.842,0.115l0.002,0.006l0.003,0.003
				c0.215,0.126,0.349,0.3,0.431,0.455v0.324l-0.48-0.091l-0.008-0.003h-0.005c-0.596,0.029-0.974-0.563-1.111-0.834
				C52.282,41.556,52.445,41.541,52.455,41.54z M54.678,38.961h0.003h0.005H54.678z M59.337,42.468l0.567,0.105v0.021l0.055-0.01
				l0.055,0.01v-0.021l0.562-0.105c0.848,0.038,1.263-0.996,1.28-1.038l0.067-0.177l-0.156,0.103
				c-0.138,0.091-0.399,0.066-0.399,0.066c-0.644-0.049-0.895,0.119-0.922,0.141c-0.184,0.108-0.309,0.248-0.402,0.381v-1.178
				l0.047,0.004c0-0.004,0.028-0.18,0.157-0.326c0.012-0.016,0.253-0.325,0.047-0.709v-0.005l-0.005-0.002
				c-0.038-0.053-0.093-0.159-0.058-0.194c0.021-0.009,0.087-0.01,0.157,0.101l0.002,0.002l0.004,0.006
				c0.008,0.007,0.198,0.243,0.601,0.146l0,0l0,0l0,0c0.035-0.01,0.172-0.048,0.467-0.338l0.031-0.034l-0.023-0.038
				c-0.008-0.017-0.241-0.41-0.685-0.417c-0.018,0-0.111-0.006-0.313,0.052c-0.037,0.008-0.09,0.008-0.1-0.009
				c-0.004-0.005-0.004-0.016,0-0.04c0.018-0.015,0.053-0.039,0.113-0.061c0.004,0,0.484-0.112,0.509-0.545
				c0,0,0.008-0.191,0.07-0.303l0.068-0.109l-0.125,0.021c-0.03,0.004-0.685,0.121-0.896,0.51l-0.122,0.163
				c-0.013,0.021-0.06,0.067-0.091,0.067c-0.023,0-0.031-0.055-0.031-0.055c-0.021-0.113-0.111-0.383-0.452-0.514
				c-0.01-0.005-0.136-0.054-0.494-0.066l-0.095-0.003l0.04,0.086c0,0.003,0.077,0.174,0.11,0.29
				c0.005,0.011,0.102,0.355,0.469,0.421c-0.003,0,0.099,0.025,0.113,0.091c-0.008,0.008-0.011,0.022-0.023,0.027
				c-0.015,0.009-0.031,0.009-0.061,0.003c-0.002,0-0.636-0.187-1.016,0.488l-0.03,0.052l0.054,0.027
				c0.016,0.008,0.366,0.203,0.427,0.233l-0.006-0.001c0.123,0.079,0.406,0.158,0.601-0.093c0.024-0.047,0.103-0.14,0.187-0.146
				c0.009,0.024,0.018,0.095-0.062,0.249c-0.003,0.002-0.18,0.371,0.101,0.668c0.034,0.037,0.071,0.078,0.106,0.117v1.315
				c-0.089-0.119-0.207-0.243-0.369-0.336h-0.003l0,0c-0.031-0.022-0.282-0.189-0.916-0.141c-0.005,0-0.263,0.024-0.405-0.066
				l-0.153-0.097l0.068,0.171C58.073,41.472,58.495,42.506,59.337,42.468z M59.89,42.452l-0.041-0.009h0.041V42.452z M60.508,41.664
				l0.005-0.003l0.003-0.006c0,0,0.226-0.163,0.837-0.115c0.01,0.001,0.177,0.016,0.329-0.024c-0.141,0.274-0.515,0.863-1.108,0.834
				h-0.011l-0.006,0.003l-0.536,0.1v-0.009h0.022v-0.256C60.121,42.021,60.259,41.811,60.508,41.664z M59.814,40.381
				c-0.222-0.229-0.081-0.521-0.081-0.533c0.075-0.142,0.102-0.253,0.07-0.334c-0.018-0.056-0.06-0.078-0.07-0.081h-0.008
				l-0.009-0.003c-0.177-0.017-0.306,0.188-0.31,0.196c-0.172,0.226-0.429,0.069-0.438,0.062l-0.003-0.003h-0.004
				c-0.044-0.022-0.266-0.144-0.367-0.198c0.315-0.506,0.786-0.402,0.843-0.384l0,0h0.013c0.071,0.018,0.121,0.003,0.151-0.019
				c0.06-0.04,0.076-0.108,0.076-0.116v-0.007v-0.012c-0.015-0.126-0.139-0.181-0.21-0.196c-0.296-0.053-0.373-0.327-0.373-0.34
				c-0.023-0.069-0.057-0.152-0.084-0.217c0.265,0.015,0.359,0.05,0.361,0.05c0.289,0.112,0.36,0.334,0.379,0.426
				c0.006,0.07,0.055,0.153,0.148,0.153c0.104,0,0.179-0.104,0.189-0.117l0.118-0.163l0.004-0.002l0.002-0.003
				c0.133-0.257,0.516-0.384,0.703-0.431c-0.033,0.117-0.038,0.236-0.039,0.242c-0.022,0.342-0.4,0.435-0.419,0.438
				c-0.119,0.036-0.18,0.101-0.183,0.106l-0.006,0.008l-0.007,0.01c-0.028,0.091-0.005,0.137,0.021,0.168
				c0.063,0.073,0.188,0.056,0.213,0.046c0.194-0.059,0.277-0.049,0.277-0.049h0.004h0.005c0.302,0.003,0.493,0.229,0.562,0.322
				c-0.264,0.243-0.371,0.272-0.371,0.272c-0.33,0.077-0.479-0.1-0.487-0.109l0.004,0.01c-0.117-0.188-0.263-0.175-0.322-0.141
				h-0.007l-0.008,0.003c-0.129,0.11,0.01,0.317,0.035,0.356c0.167,0.313-0.025,0.565-0.034,0.575
				c-0.069,0.083-0.114,0.172-0.141,0.244C59.96,40.535,59.885,40.45,59.814,40.381z M58.558,41.54
				c0.615-0.048,0.84,0.115,0.84,0.115l0.007,0.006l0.003,0.003c0.217,0.126,0.349,0.3,0.431,0.455v0.324l-0.479-0.091L59.35,42.35
				h-0.005c-0.595,0.029-0.974-0.563-1.116-0.834C58.385,41.556,58.55,41.541,58.558,41.54z M65.474,42.468l0.563,0.105v0.021
				l0.056-0.01l0.057,0.01v-0.021l0.561-0.105c0.846,0.038,1.265-0.996,1.281-1.038l0.068-0.177L67.9,41.355
				c-0.138,0.091-0.4,0.066-0.4,0.066c-0.644-0.049-0.893,0.119-0.918,0.141c-0.185,0.108-0.312,0.248-0.403,0.381v-1.178
				l0.047,0.004c0-0.004,0.027-0.18,0.152-0.326c0.016-0.016,0.257-0.325,0.051-0.709v-0.005l-0.003-0.002
				c-0.04-0.053-0.096-0.159-0.06-0.194c0.023-0.009,0.086-0.01,0.16,0.101v0.002l0.001,0.006c0.008,0.007,0.202,0.243,0.603,0.146
				l0,0l0,0l0,0c0.035-0.01,0.173-0.048,0.467-0.338l0.034-0.034l-0.023-0.038c-0.011-0.017-0.246-0.41-0.688-0.417
				c-0.018,0-0.111-0.006-0.312,0.052c-0.036,0.008-0.089,0.008-0.099-0.009c-0.005-0.005-0.005-0.016,0.002-0.04
				c0.016-0.015,0.051-0.039,0.112-0.061c0,0,0.479-0.112,0.507-0.545c0,0,0.008-0.191,0.073-0.303l0.066-0.109l-0.127,0.021
				c-0.025,0.004-0.681,0.121-0.897,0.51l-0.116,0.163c-0.018,0.021-0.061,0.067-0.094,0.067c-0.024,0-0.031-0.055-0.031-0.055
				c-0.022-0.113-0.11-0.383-0.451-0.514c-0.013-0.005-0.14-0.054-0.492-0.066L64.96,38.07L65,38.156
				c0,0.003,0.078,0.174,0.114,0.29c0.001,0.011,0.1,0.355,0.465,0.421c0,0,0.099,0.025,0.113,0.091
				c-0.002,0.008-0.008,0.022-0.02,0.027c-0.016,0.009-0.034,0.009-0.06,0.003c-0.006,0-0.64-0.187-1.018,0.488l-0.029,0.052
				l0.051,0.027c0.016,0.008,0.367,0.203,0.427,0.233l-0.005-0.001c0.123,0.079,0.404,0.158,0.599-0.093
				c0.026-0.047,0.103-0.14,0.188-0.146c0.014,0.024,0.019,0.095-0.06,0.249c-0.003,0.002-0.182,0.371,0.098,0.668
				c0.037,0.037,0.075,0.078,0.11,0.117v1.315c-0.09-0.119-0.204-0.243-0.371-0.336h-0.004h0.004
				c-0.033-0.022-0.284-0.189-0.919-0.141c-0.005,0-0.263,0.024-0.405-0.066l-0.152-0.097l0.067,0.171
				C64.205,41.472,64.631,42.506,65.474,42.468z M66.027,42.452l-0.046-0.009h0.046V42.452z M66.643,41.664l0.008-0.003v-0.006
				c0,0,0.225-0.163,0.841-0.115c0.008,0.001,0.172,0.016,0.326-0.024c-0.14,0.274-0.515,0.863-1.112,0.834h-0.006l-0.009,0.003
				l-0.535,0.1v-0.009h0.023v-0.256C66.253,42.021,66.394,41.811,66.643,41.664z M65.949,40.381
				c-0.222-0.229-0.084-0.521-0.078-0.533c0.07-0.142,0.097-0.253,0.069-0.334c-0.021-0.056-0.062-0.078-0.069-0.081h-0.009
				l-0.011-0.003c-0.177-0.017-0.307,0.188-0.312,0.196c-0.171,0.226-0.426,0.069-0.438,0.062L65.1,39.685h-0.004
				c-0.04-0.022-0.262-0.144-0.365-0.198c0.313-0.506,0.782-0.402,0.844-0.384l0,0h0.009c0.074,0.018,0.124,0.003,0.154-0.019
				c0.061-0.04,0.075-0.108,0.078-0.116v-0.007v-0.012c-0.016-0.126-0.141-0.181-0.213-0.196c-0.292-0.053-0.371-0.327-0.373-0.34
				c-0.021-0.069-0.058-0.152-0.081-0.217c0.264,0.015,0.357,0.05,0.357,0.05c0.292,0.112,0.361,0.334,0.38,0.426
				c0.008,0.07,0.056,0.153,0.149,0.153c0.102,0,0.18-0.104,0.187-0.117l0.118-0.163l0.006-0.002V38.54
				c0.135-0.257,0.517-0.384,0.709-0.431c-0.038,0.117-0.039,0.236-0.039,0.242c-0.027,0.342-0.406,0.435-0.421,0.438
				c-0.124,0.036-0.179,0.101-0.185,0.106l-0.008,0.008l-0.003,0.01c-0.03,0.091-0.006,0.137,0.018,0.168
				c0.063,0.073,0.188,0.056,0.218,0.046c0.19-0.059,0.273-0.049,0.273-0.049h0.004h0.007c0.3,0.003,0.491,0.229,0.557,0.322
				c-0.258,0.243-0.366,0.272-0.366,0.272c-0.331,0.077-0.481-0.1-0.489-0.109l0.003,0.01c-0.114-0.188-0.262-0.175-0.323-0.141
				h-0.007l-0.005,0.003c-0.13,0.11,0.008,0.317,0.037,0.356c0.166,0.313-0.026,0.565-0.037,0.575
				c-0.07,0.083-0.111,0.172-0.14,0.244C66.096,40.535,66.02,40.45,65.949,40.381z M64.693,41.54
				c0.613-0.048,0.839,0.115,0.842,0.115l0.001,0.006l0.004,0.003c0.218,0.126,0.348,0.3,0.434,0.455v0.324l-0.482-0.091
				l-0.008-0.003h-0.006c-0.595,0.029-0.971-0.563-1.113-0.834C64.52,41.556,64.687,41.541,64.693,41.54z M66.919,38.961
				L66.919,38.961c0,0,0.003,0,0.006,0H66.919z M61.965,44.855c-0.003,0-0.006,0-0.006,0c0,0.003-0.003,0.005-0.003,0.005
				L61.965,44.855z M60.785,38.961L60.785,38.961h0.003H60.785z M54.15,31.654c-0.004-0.002-0.004-0.005-0.004-0.005
				c-0.006-0.005-0.016-0.017-0.016-0.017L54.15,31.654z"/>
			<path style="fill:none;stroke:#FFFFFF;stroke-width:0.1993;stroke-miterlimit:1;" d="M72.103,31.665
				c-0.015-0.021-0.037-0.041-0.057-0.057l-0.133-0.101c-0.047-0.055-0.106-0.096-0.174-0.119c0,0,0.006,0.003,0.007,0.003
				l-1.739-0.633c-0.038-0.013-0.073-0.021-0.112-0.021c-0.05,0-0.101,0.012-0.144,0.034c-0.081,0.038-0.142,0.107-0.17,0.193
				l-0.166,0.488l-0.669-0.211l0.086-0.31c0.003-0.003,0.003-0.009,0.003-0.011c0.058-0.221,0.005-0.377-0.054-0.468
				c-0.094-0.159-0.245-0.211-0.301-0.225l-1.541-0.438c-0.027-0.011-0.055-0.013-0.088-0.013c-0.057,0-0.115,0.013-0.164,0.044
				c-0.08,0.044-0.134,0.114-0.155,0.201l-0.219,0.838l-0.47-0.112c-0.027-0.004-0.051-0.01-0.078-0.01
				c-0.062,0-0.124,0.019-0.175,0.052c-0.077,0.048-0.131,0.122-0.147,0.211l-0.071,0.331c-0.058-0.014-0.109-0.021-0.158-0.033
				l0.041-0.198v-0.005c0.039-0.204-0.022-0.337-0.083-0.409c-0.063-0.086-0.161-0.144-0.262-0.158l-0.455-0.072l0.107-0.76
				c0.01-0.064-0.001-0.138-0.034-0.203c-0.104-0.189-0.33-0.303-1.322-0.398c-0.499-0.047-0.974-0.067-0.995-0.067
				c-0.008,0-0.009,0-0.014,0c-0.174,0-0.318,0.135-0.329,0.31l-0.036,0.544c-0.137-0.002-0.303-0.013-0.452-0.019l0.018-0.438
				c0-0.028-0.004-0.057-0.013-0.088c-0.057-0.239-0.268-0.39-0.53-0.39c-0.018,0-0.027,0-0.039,0l-2.053,0.005
				c-0.09,0-0.174,0.034-0.235,0.096c-0.063,0.063-0.097,0.148-0.094,0.236l0.006,0.561l-0.486,0.016l-0.017-0.452l0,0l-0.002-0.005
				v0.004c-0.003-0.219-0.181-0.385-0.416-0.385c-0.014,0-0.023,0-0.037,0.003l-1.821,0.187c-0.257,0.011-0.414,0.213-0.414,0.404
				c0,0.016,0,0.031,0.004,0.046c0.054,0.358,0.082,0.589,0.098,0.737l-0.523,0.057c-0.086,0.011-0.172,0.056-0.226,0.126
				c-0.055,0.073-0.076,0.165-0.063,0.256l0.063,0.39l-0.096,0.016c-0.007-0.037-0.012-0.081-0.018-0.121c0,0.003,0,0.003,0,0.006
				c-0.018-0.218-0.136-0.345-0.169-0.376c-0.064-0.063-0.146-0.094-0.231-0.094c-0.02,0-0.039,0-0.062,0.005l-0.196,0.039
				l-0.17-0.564c-0.001-0.006-0.005-0.015-0.007-0.02c-0.141-0.383-0.617-0.439-0.713-0.442c-0.007,0-0.018,0-0.025,0
				c-0.028,0-0.057,0.003-0.086,0.01l-1.697,0.452c-0.091,0.022-0.161,0.083-0.207,0.163c-0.044,0.078-0.053,0.174-0.024,0.259
				l0.172,0.533l-0.608,0.198l-0.171-0.527c-0.026-0.086-0.092-0.155-0.169-0.193c-0.047-0.027-0.097-0.037-0.148-0.037
				c-0.036,0-0.072,0.01-0.109,0.023l-1.781,0.643c-0.082,0.031-0.152,0.096-0.188,0.177c-0.036,0.083-0.041,0.177-0.005,0.257
				l0.576,1.431c0.028,0.068,0.075,0.123,0.135,0.158l0.921,0.563c0.035,0.044,0.104,0.179,0.139,0.288
				c0.003,0.004,0.003,0.007,0.008,0.016l0.923,2.371c-0.043,0.049-0.075,0.104-0.098,0.172c-0.04,0.099-0.068,0.249,0,0.435
				c-0.372,0.033-0.627,0.296-0.627,0.65v0.006l0.199,14.767c-0.005,0.072,0,0.751,0.297,1.585c0.413,1.149,1.198,2.06,2.273,2.63
				c0.008,0.006,0.015,0.01,0.017,0.013c2.61,1.192,6.87,3.168,7.175,3.383c0.036,0.023,0.081,0.032,0.13,0.032
				c0.01,0,0.021,0,0.039,0c0.011,0,0.023,0,0.033,0c0.017,0,0.029,0,0.038,0c0.017,0,0.03,0,0.038,0
				c0.048,0,0.096-0.009,0.13-0.032l0,0c0.309-0.217,4.563-2.19,7.175-3.383c0.005-0.003,0.014-0.007,0.018-0.013
				c1.073-0.57,1.86-1.482,2.275-2.63C70,53.241,70,52.563,70,52.49l0.195-14.767v-0.006c0-0.347-0.238-0.602-0.594-0.65
				c0.031-0.14,0.018-0.217,0.008-0.254c-0.006-0.018-0.008-0.034-0.014-0.049c-0.03-0.079-0.079-0.194-0.16-0.296
				c0.008-0.023,0.019-0.055,0.035-0.085c0.004-0.009,0.006-0.01,0.007-0.018l0.896-2.256c0.009-0.006,0.024-0.008,0.042-0.013
				c0.011-0.008,0.022-0.008,0.035-0.017l0.812-0.326c0.01-0.009,0.02-0.01,0.027-0.013c0.052-0.027,0.301-0.169,0.378-0.431
				l0.461-1.104C72.206,32.052,72.237,31.832,72.103,31.665z"/>
		</g>
		<g>
			<polygon style="fill:#FFFFFF;" points="26.309,66.96 24.832,64.644 24.832,66.96 23.698,66.96 23.698,62.354 24.689,62.354 
				26.165,64.67 26.165,62.354 27.3,62.354 27.3,66.96 			"/>
			<polygon style="fill:#FFFFFF;" points="28.966,66.96 28.966,62.354 32.101,62.354 32.101,63.364 30.1,63.364 30.1,64.133 
				31.81,64.133 31.81,65.143 30.1,65.143 30.1,65.951 32.101,65.951 32.101,66.96 			"/>
			<g>
				<path style="fill:#FFFFFF;" d="M23.521,70.328h22.763c13.59,0,27.178,0,40.768,0h9.275v-0.154h-9.275
					c-13.59,0-27.178,0-40.768,0H23.521"/>
				<rect x="75.82" y="70.252" style="fill:#FFFFFF;" width="20.506" height="1.016"/>
				<path style="fill:#FFFFFF;" d="M35.302,66.999c-0.959,0-1.741-0.647-1.741-1.656v-2.988h1.133v2.963
					c0,0.426,0.233,0.672,0.608,0.672c0.376,0,0.622-0.246,0.622-0.672v-2.963h1.134v2.988
					C37.058,66.352,36.262,66.999,35.302,66.999"/>
			</g>
			<rect x="38.645" y="62.354" style="fill:#FFFFFF;" width="1.135" height="4.605"/>
			<polygon style="fill:#FFFFFF;" points="41.444,66.96 41.444,62.354 42.579,62.354 42.579,65.951 44.516,65.951 44.516,66.96 			
				"/>
			<polygon style="fill:#FFFFFF;" points="45.908,66.96 45.908,62.354 47.041,62.354 47.041,65.951 48.98,65.951 48.98,66.96 			"/>
			<polygon style="fill:#FFFFFF;" points="51.915,65.083 51.915,66.96 50.781,66.96 50.781,65.083 49.388,62.354 50.623,62.354 
				51.349,64.011 52.069,62.354 53.309,62.354 			"/>
			<rect x="54.358" y="64.554" style="fill:#FFFFFF;" width="2.123" height="0.997"/>
			<path style="fill:#FFFFFF;" d="M59.315,66.999c-0.707,0-1.284-0.13-1.75-0.607l0.726-0.726c0.239,0.238,0.66,0.323,1.028,0.323
				c0.448,0,0.662-0.149,0.662-0.413c0-0.109-0.027-0.201-0.092-0.272c-0.058-0.058-0.155-0.103-0.304-0.123l-0.557-0.078
				c-0.408-0.058-0.72-0.194-0.928-0.407c-0.213-0.219-0.315-0.53-0.315-0.923c0-0.841,0.634-1.455,1.683-1.455
				c0.663,0,1.161,0.153,1.555,0.549l-0.711,0.71c-0.294-0.289-0.676-0.27-0.876-0.27c-0.394,0-0.557,0.226-0.557,0.427
				c0,0.057,0.019,0.143,0.092,0.214c0.058,0.057,0.154,0.115,0.315,0.134l0.56,0.078c0.414,0.058,0.712,0.189,0.905,0.381
				c0.246,0.24,0.344,0.581,0.344,1.01C61.096,66.488,60.286,66.999,59.315,66.999"/>
			<path style="fill:#FFFFFF;" d="M64.237,66.999c-0.96,0-1.743-0.647-1.743-1.656v-2.988h1.136v2.963
				c0,0.426,0.232,0.672,0.607,0.672c0.377,0,0.622-0.246,0.622-0.672v-2.963h1.134v2.988
				C65.993,66.352,65.196,66.999,64.237,66.999"/>
			<path style="fill:#FFFFFF;" d="M69.914,66.96l-0.816-1.715h-0.384v1.715H67.58v-4.604h1.828c1.025,0,1.573,0.723,1.573,1.48
				c0,0.627-0.386,1.021-0.75,1.202l0.999,1.921H69.914z M69.357,63.371h-0.644v0.932h0.644c0.311,0,0.49-0.228,0.49-0.466
				C69.848,63.596,69.668,63.371,69.357,63.371"/>
			<rect x="72.388" y="64.554" style="fill:#FFFFFF;" width="2.125" height="0.997"/>
			<path style="fill:#FFFFFF;" d="M77.344,66.999c-0.704,0-1.281-0.13-1.748-0.607l0.725-0.726c0.241,0.238,0.662,0.323,1.031,0.323
				c0.447,0,0.66-0.149,0.66-0.413c0-0.109-0.025-0.201-0.09-0.272c-0.059-0.058-0.155-0.103-0.303-0.123l-0.559-0.078
				c-0.407-0.058-0.72-0.194-0.928-0.407c-0.214-0.219-0.318-0.53-0.318-0.923c0-0.841,0.636-1.455,1.686-1.455
				c0.661,0,1.161,0.153,1.556,0.549l-0.712,0.71c-0.292-0.289-0.675-0.27-0.876-0.27c-0.395,0-0.555,0.226-0.555,0.427
				c0,0.057,0.017,0.143,0.089,0.214c0.059,0.057,0.155,0.115,0.317,0.134l0.556,0.078c0.417,0.058,0.714,0.189,0.909,0.381
				c0.245,0.24,0.342,0.581,0.342,1.01C79.126,66.488,78.317,66.999,77.344,66.999"/>
			<polygon style="fill:#FFFFFF;" points="80.605,66.96 80.605,62.354 83.74,62.354 83.74,63.364 81.739,63.364 81.739,64.133 
				83.449,64.133 83.449,65.143 81.739,65.143 81.739,65.951 83.74,65.951 83.74,66.96 			"/>
			<rect x="85.276" y="62.354" style="fill:#FFFFFF;" width="1.133" height="4.605"/>
			<polygon style="fill:#FFFFFF;" points="90.686,66.96 89.209,64.644 89.209,66.96 88.076,66.96 88.076,62.354 89.066,62.354 
				90.544,64.67 90.544,62.354 91.677,62.354 91.677,66.96 			"/>
			<polygon style="fill:#FFFFFF;" points="93.342,66.96 93.342,62.354 96.479,62.354 96.479,63.364 94.477,63.364 94.477,64.133 
				96.188,64.133 96.188,65.143 94.477,65.143 94.477,65.951 96.479,65.951 96.479,66.96 			"/>
		</g>
	</g>
</g>
</svg>
