<?xml version="1.0" encoding="iso-8859-1"?>
<!-- Generator: Adobe Illustrator 14.0.0, SVG Export Plug-In . SVG Version: 6.00 Build 43363)  -->
<!DOCTYPE svg PUBLIC "-//W3C//DTD SVG 1.1//EN" "http://www.w3.org/Graphics/SVG/1.1/DTD/svg11.dtd">
<svg version="1.1" id="Calque_1" xmlns="http://www.w3.org/2000/svg" xmlns:xlink="http://www.w3.org/1999/xlink" x="0px" y="0px"
	 width="120px" height="77px" viewBox="0 0 120 77" style="enable-background:new 0 0 120 77;" xml:space="preserve">
<g>
	<rect style="fill-rule:evenodd;clip-rule:evenodd;fill:#FF5A00;" width="120" height="77"/>
</g>
<g>
	<path d="M18.584,20.48l-2.761-4.698c-0.45-0.764-0.881-0.822-1.194-0.822h-0.9v5.521h-3.054V6.659h4.483
		c3.112,0,5.951,0.705,5.951,3.974c0,2.311-1.801,3.348-3.015,3.544c0.567,0.998,2.917,4.503,4.189,6.304H18.584z M15.217,9.028
		h-1.488v3.661h1.664c1.175,0,2.545-0.352,2.545-1.879C17.938,9.224,16.431,9.028,15.217,9.028z"/>
	<path d="M25.438,8.695c-0.939,0-1.547-0.607-1.547-1.449s0.607-1.449,1.547-1.449s1.527,0.607,1.527,1.449
		S26.377,8.695,25.438,8.695z M24.048,20.48V10.026h2.74V20.48H24.048z"/>
	<path d="M34.815,20.48h-2.838l-3.368-10.454h3.035l1.351,5.56c0.215,0.881,0.45,2.075,0.548,2.486h0.039
		c0.079-0.45,0.353-1.684,0.568-2.506l1.448-5.54h2.584L34.815,20.48z"/>
	<path d="M48.149,15.724h-6.48c0,0.02,0,0.039,0,0.059c0,1.859,1.351,2.858,3.113,2.858c0.939,0,1.938-0.392,2.486-0.686
		l0.724,2.036c-0.803,0.372-2.192,0.822-3.72,0.822c-3.269,0-5.324-2.232-5.324-5.481c0-2.761,1.487-5.639,4.835-5.639
		c3.23,0,4.425,2.486,4.425,4.895C48.208,14.921,48.188,15.371,48.149,15.724z M43.666,11.612c-1.566,0-2.056,1.331-2.056,2.251
		h4.014C45.722,12.768,45.056,11.612,43.666,11.612z"/>
	<path d="M55.902,12.708c-0.195-0.098-0.587-0.273-0.959-0.273c-0.588,0-0.9,0.176-1.155,0.411
		c-0.372,0.333-0.392,0.764-0.392,1.331v6.304h-2.74v-7.812c0-0.9-0.079-2.153-0.099-2.643h2.467v1.566
		c0.627-0.999,1.312-1.821,2.604-1.821c0.391,0,0.782,0.117,0.998,0.196L55.902,12.708z"/>
	<path d="M68.473,15.625h-1.41v4.855h-3.054V6.659h4.248c3.191,0,5.932,0.861,5.932,4.287C74.188,14.96,70.841,15.625,68.473,15.625
		z M68.433,9.028h-1.37v4.249h1.41c1.135,0,2.623-0.353,2.623-2.134C71.096,9.263,69.451,9.028,68.433,9.028z"/>
	<path d="M76.187,20.48V5.994h2.741V20.48H76.187z"/>
	<path d="M88.717,20.676c-0.979,0-1.468-0.606-1.625-1.429c-0.861,1.018-1.664,1.527-3.093,1.527c-1.841,0-3.094-1.331-3.094-3.113
		c0-2.839,2.977-3.387,5.286-3.387c0.431,0,0.686-0.02,0.686-0.372v-0.685c0-0.744-0.47-1.449-1.919-1.449
		c-1.214,0-2.134,0.568-2.584,0.959l-0.959-1.957c1.154-0.744,2.427-1.077,4.229-1.077c1.468,0,3.837,0.528,3.837,3.544v4.815
		c0,0.372,0.039,0.686,0.372,0.686c0.117,0,0.333-0.059,0.45-0.098l0.156,1.781C90.048,20.52,89.363,20.676,88.717,20.676z
		 M86.857,15.978c-0.294-0.02-0.588-0.02-0.822-0.02c-0.96,0-2.408,0.235-2.408,1.488c0,0.764,0.548,1.312,1.312,1.312
		c0.607,0,1.116-0.196,1.469-0.567c0.313-0.333,0.45-0.725,0.45-1.233V15.978z"/>
	<path d="M91.713,20.48v-2.173l4.679-6.206h-4.425v-2.075h7.538v2.311l-4.522,6.068h4.776v2.075H91.713z"/>
	<path d="M108.844,20.676c-0.979,0-1.468-0.606-1.625-1.429c-0.861,1.018-1.664,1.527-3.093,1.527c-1.841,0-3.094-1.331-3.094-3.113
		c0-2.839,2.977-3.387,5.286-3.387c0.431,0,0.686-0.02,0.686-0.372v-0.685c0-0.744-0.47-1.449-1.919-1.449
		c-1.214,0-2.134,0.568-2.584,0.959l-0.959-1.957c1.154-0.744,2.427-1.077,4.229-1.077c1.468,0,3.837,0.528,3.837,3.544v4.815
		c0,0.372,0.039,0.686,0.372,0.686c0.117,0,0.333-0.059,0.45-0.098l0.156,1.781C110.175,20.52,109.49,20.676,108.844,20.676z
		 M106.984,15.978c-0.294-0.02-0.588-0.02-0.822-0.02c-0.96,0-2.408,0.235-2.408,1.488c0,0.764,0.548,1.312,1.312,1.312
		c0.607,0,1.116-0.196,1.469-0.567c0.313-0.333,0.45-0.725,0.45-1.233V15.978z"/>
	<path d="M25.76,71.357c-4.705,0-8.319-1.033-11.418-2.927l3.271-6.311c2.237,1.549,4.532,2.582,7.688,2.582
		c3.155,0,7.113-1.894,7.113-6.655c0-2.927-1.95-6.942-9.408-7.058c-2.295,0-4.992-0.057-6.312-0.057l1.606-21.057h21.285v6.771
		H25.014l-0.574,7.688c0.229,0,0.746,0.057,1.147,0.057c11.073,0.517,15.548,6.771,15.548,12.852
		C41.135,64.989,34.996,71.357,25.76,71.357z"/>
	<path d="M60.007,70.382H50.77c0-5.336,1.435-8.778,4.992-15.376l9.868-18.359H45.951v-6.771h28.342v6.599
		C65.4,51.907,60.007,64.014,60.007,70.382z"/>
	<path d="M92.132,70.382h-9.237c0-5.336,1.435-8.778,4.992-15.376l9.868-18.359H78.076v-6.771h28.342v6.599
		C97.525,51.907,92.132,64.014,92.132,70.382z"/>
</g>
</svg>
