<?xml version="1.0" encoding="iso-8859-1"?>
<!-- Generator: Adobe Illustrator 14.0.0, SVG Export Plug-In . SVG Version: 6.00 Build 43363)  -->
<!DOCTYPE svg PUBLIC "-//W3C//DTD SVG 1.1//EN" "http://www.w3.org/Graphics/SVG/1.1/DTD/svg11.dtd">
<svg version="1.1" id="Calque_1" xmlns="http://www.w3.org/2000/svg" xmlns:xlink="http://www.w3.org/1999/xlink" x="0px" y="0px"
	 width="120px" height="77px" viewBox="0 0 120 77" style="enable-background:new 0 0 120 77;" xml:space="preserve">
<rect style="fill-rule:evenodd;clip-rule:evenodd;fill:#D2D200;" width="120" height="77"/>
<g>
	<path d="M25.771,60.209c-4.81,0-8.505-1.056-11.672-2.991l3.343-6.452c2.288,1.584,4.634,2.64,7.86,2.64
		c3.226,0,7.273-1.936,7.273-6.804c0-2.992-1.994-7.098-9.62-7.215c-2.346,0-5.103-0.059-6.452-0.059l1.642-21.526h21.761v6.921
		H25.008l-0.586,7.86c0.234,0,0.762,0.059,1.173,0.059c11.32,0.528,15.896,6.921,15.896,13.139
		C41.49,53.698,35.214,60.209,25.771,60.209z"/>
	<path d="M57.899,59.212h-9.443c0-5.455,1.466-8.975,5.103-15.72l10.089-18.77H43.529v-6.921h28.975v6.745
		C63.412,40.325,57.899,52.701,57.899,59.212z"/>
	<path d="M89.07,60.326c-9.209,0-14.429-5.514-14.429-11.789c0-5.514,3.108-8.975,7.097-11.027
		c-3.577-2.229-5.807-5.044-5.807-9.326c0-6.863,6.218-11.614,13.314-11.614c7.273,0,13.315,3.578,13.315,10.675
		c0,3.871-1.995,7.156-5.866,9.502c3.813,1.818,7.156,5.338,7.156,10.793C103.852,55.399,97.576,60.326,89.07,60.326z
		 M88.367,40.384c-2.698,1.056-5.396,3.988-5.396,7.215c0,3.401,2.229,6.628,6.217,6.628c3.93,0,6.101-2.757,6.101-6.042
		C95.288,44.431,91.887,42.144,88.367,40.384z M89.363,22.553c-3.226,0-5.278,1.994-5.278,4.868c0,3.402,3.401,5.514,6.042,6.628
		c2.17-0.997,4.516-3.695,4.516-6.276C94.643,24.899,92.766,22.553,89.363,22.553z"/>
</g>
</svg>
