<?xml version="1.0" encoding="iso-8859-1"?>
<!-- Generator: Adobe Illustrator 14.0.0, SVG Export Plug-In . SVG Version: 6.00 Build 43363)  -->
<!DOCTYPE svg PUBLIC "-//W3C//DTD SVG 1.1//EN" "http://www.w3.org/Graphics/SVG/1.1/DTD/svg11.dtd">
<svg version="1.1" id="Calque_1" xmlns="http://www.w3.org/2000/svg" xmlns:xlink="http://www.w3.org/1999/xlink" x="0px" y="0px"
	 width="120px" height="77px" viewBox="0 0 120 77" style="enable-background:new 0 0 120 77;" xml:space="preserve">
<g>
	<rect style="fill-rule:evenodd;clip-rule:evenodd;fill:#6E6E00;" width="120" height="77"/>
	<g>
		<path style="fill:#FFFFFF;" d="M34.632,69.817c-6.942,0-12.275-1.524-16.847-4.317l4.825-9.313
			c3.302,2.286,6.688,3.81,11.344,3.81c4.656,0,10.498-2.794,10.498-9.82c0-4.317-2.878-10.243-13.883-10.412
			c-3.387,0-7.365-0.085-9.313-0.085l2.371-31.069h31.407v9.99H33.531l-0.847,11.344c0.338,0,1.101,0.085,1.693,0.085
			c16.339,0.762,22.942,9.989,22.942,18.963C57.319,60.42,48.261,69.817,34.632,69.817z"/>
		<path style="fill:#FFFFFF;" d="M80.711,68.378H67.082c0-7.873,2.116-12.952,7.365-22.688l14.561-27.09H59.971v-9.99h41.82v9.735
			C88.669,41.119,80.711,58.981,80.711,68.378z"/>
	</g>
</g>
</svg>
