<?xml version="1.0" encoding="iso-8859-1"?>
<!-- Generator: Adobe Illustrator 14.0.0, SVG Export Plug-In . SVG Version: 6.00 Build 43363)  -->
<!DOCTYPE svg PUBLIC "-//W3C//DTD SVG 1.1//EN" "http://www.w3.org/Graphics/SVG/1.1/DTD/svg11.dtd">
<svg version="1.1" id="Calque_1" xmlns="http://www.w3.org/2000/svg" xmlns:xlink="http://www.w3.org/1999/xlink" x="0px" y="0px"
	 width="120px" height="77px" viewBox="0 0 120 77" style="enable-background:new 0 0 120 77;" xml:space="preserve">
<g>
	<rect style="fill-rule:evenodd;clip-rule:evenodd;fill:#82DC73;" width="120" height="77"/>
	<g>
		<g>
			<path d="M40.479,14.576l-0.96,3.033h7.429l-2.729,8.287h-7.024l-2.729,10.461c0,0-2.688,8.17,5.357,4.246
				c2.072-1.011,2.577-1.264,2.577-1.264l-0.859,9.296h50.183c0,0,4.853,0.71,7.178-3.534c2.323-4.246,14.907-27.393,14.907-27.393
				s1.264-3.031-2.375-3.031S40.479,14.576,40.479,14.576"/>
			<path style="fill:#FFFFFF;" d="M33.337,13.162l-4.009,5.659h-3.874l-1.786,5.862h4.447l-3.706,13.713
				c0,0-1.247,5.289,1.213,8.625c2.459,3.336,6.535,3.402,8.962,3.066c2.426-0.337,5.727-1.685,5.727-1.685l0.607-6.974
				c0,0-2.426,1.178-3.942,1.447c-1.516,0.27-3.923,0.139-4.144-3.57c-0.136-2.258,0.774-4.684,1.381-7.041l2.021-7.648h7.076
				l1.886-5.762h-7.345l1.752-5.693H33.337"/>
			<rect x="38.141" y="31.418" style="fill:#FFFFFF;" width="6.645" height="3.088"/>
			<polyline style="fill:#FFFFFF;" points="48.996,18.082 48.996,43.35 54.518,43.35 54.518,18.035 48.996,18.082 			"/>
			<path style="fill:#FFFFFF;" d="M76.603,19.158c0,0-5.943-2.947-12.353-0.094c-6.411,2.854-6.831,10.902-6.69,12.821
				c0.14,1.919,0.877,8.121,6.362,10.715c3.463,1.638,7.627,1.17,9.78,0.562l3.696-1.17V28.235h-8.47v5.381h3.042v4.072
				c0,0-4.819,1.449-7.394-2.714c-2.573-4.164-0.421-8.236,0.141-9.078c0.188-0.281,1.778-2.34,4.539-2.434c0,0,2.948,0,4.211,0.422
				c1.264,0.42,1.919,0.795,1.919,0.795L76.603,19.158"/>
			<path style="fill:#FFFFFF;" d="M83.809,18.035c0.982-0.094,2.62-0.422,5.755-0.234c4.543,0.271,7.908,2.387,7.908,7.207
				c0,4.819-3.556,6.55-3.556,6.55s-0.188-0.561,0.936,0.702c1.123,1.264,1.73,3.978,1.73,3.978s0.375,1.216,0.797,3.274
				c0.421,2.061,0.936,3.838,0.936,3.838h-5.615c0,0-0.608-1.824-0.983-3.135c-0.374-1.311-0.701-3.369-0.936-4.023
				c-0.233-0.655-0.374-1.311-0.981-1.779c-0.609-0.468-1.497-0.469-1.497-0.469h-1.451c0,0,0,9.219,0,9.406s-5.476,0-5.476,0
				V18.457L83.809,18.035"/>
			<path d="M30.827,14.627c0,0-3.941-0.252-5.761,0.506s-2.68,1.92-3.74,3.739C20.265,20.691,7.024,44.949,7.024,44.949
				s-0.859,1.719-0.303,2.628c0.556,0.91,1.667,1.059,2.627,1.059s15.868,0,15.868,0s-4.042-3.13-1.616-12.126
				c2.425-8.996,2.88-10.613,2.88-10.613h-4.548l2.628-8.287h4.094L30.827,14.627"/>
			<path d="M86.86,23.141v5.756h1.638c0,0,3.514,0.216,3.493-3.039c-0.021-3.255-3.428-2.867-2.91-2.867s-1.467,0.021-1.467,0.021
				L86.86,23.141"/>
			<polyline points="15.921,54.527 19.187,54.527 23.13,60.445 23.154,60.445 23.154,54.527 25.895,54.527 25.895,63.98 
				22.761,63.98 18.685,58.008 18.662,58.008 18.662,63.98 15.921,63.98 15.921,54.527 			"/>
			<path d="M36.548,60.484h-2.384l1.18-3.574h0.024L36.548,60.484 M29.946,63.98h3.039l0.513-1.536h3.718l0.512,1.536h3.039
				l-3.658-9.453H33.64L29.946,63.98z"/>
			<polyline points="42.864,54.527 45.975,54.527 48.144,61.266 48.168,61.266 50.337,54.527 53.446,54.527 49.657,63.98 
				46.654,63.98 42.864,54.527 			"/>
			<polyline points="57.392,54.527 65.911,54.527 65.911,56.564 60.227,56.564 60.227,58.273 65.554,58.273 65.554,60.232 
				60.227,60.232 60.227,61.941 65.911,61.941 65.911,63.98 57.392,63.98 57.392,54.527 			"/>
			<polyline points="69.761,54.527 78.841,54.527 78.841,56.645 75.719,56.645 75.719,63.98 72.883,63.98 72.883,56.645 
				69.761,56.645 69.761,54.527 			"/>
			<polyline points="82.344,54.527 91.424,54.527 91.424,56.645 88.303,56.645 88.303,63.98 85.466,63.98 85.466,56.645 
				82.344,56.645 82.344,54.527 			"/>
			<polyline points="95.798,54.527 104.318,54.527 104.318,56.564 98.635,56.564 98.635,58.273 103.961,58.273 103.961,60.232 
				98.635,60.232 98.635,61.941 104.318,61.941 104.318,63.98 95.798,63.98 95.798,54.527 			"/>
		</g>
	</g>
</g>
</svg>
