<?xml version="1.0" encoding="iso-8859-1"?>
<!-- Generator: Adobe Illustrator 14.0.0, SVG Export Plug-In . SVG Version: 6.00 Build 43363)  -->
<!DOCTYPE svg PUBLIC "-//W3C//DTD SVG 1.1//EN" "http://www.w3.org/Graphics/SVG/1.1/DTD/svg11.dtd">
<svg version="1.1" id="Calque_1" xmlns="http://www.w3.org/2000/svg" xmlns:xlink="http://www.w3.org/1999/xlink" x="0px" y="0px"
	 width="120px" height="77px" viewBox="0 0 120 77" style="enable-background:new 0 0 120 77;" xml:space="preserve">
<rect style="fill-rule:evenodd;clip-rule:evenodd;fill:#82DC73;" width="120" height="77"/>
<g>
	<path d="M23.565,60.209c-4.81,0-8.505-1.056-11.672-2.991l3.343-6.452c2.288,1.584,4.634,2.64,7.859,2.64
		c3.226,0,7.273-1.936,7.273-6.804c0-2.992-1.994-7.098-9.619-7.215c-2.347,0-5.103-0.059-6.452-0.059l1.642-21.526h21.761v6.921
		H22.803l-0.586,7.86c0.234,0,0.762,0.059,1.173,0.059c11.32,0.528,15.896,6.921,15.896,13.139
		C39.285,53.698,33.009,60.209,23.565,60.209z"/>
	<path d="M57.547,60.326c-9.209,0-14.429-5.514-14.429-11.789c0-5.514,3.109-8.975,7.097-11.027
		c-3.578-2.229-5.807-5.044-5.807-9.326c0-6.863,6.217-11.614,13.314-11.614c7.273,0,13.314,3.578,13.314,10.675
		c0,3.871-1.994,7.156-5.865,9.502c3.813,1.818,7.156,5.338,7.156,10.793C72.328,55.399,66.052,60.326,57.547,60.326z
		 M56.843,40.384c-2.698,1.056-5.396,3.988-5.396,7.215c0,3.401,2.229,6.628,6.217,6.628c3.93,0,6.1-2.757,6.1-6.042
		C63.764,44.431,60.362,42.144,56.843,40.384z M57.84,22.553c-3.226,0-5.279,1.994-5.279,4.868c0,3.402,3.402,5.514,6.042,6.628
		c2.17-0.997,4.517-3.695,4.517-6.276C63.119,24.899,61.242,22.553,57.84,22.553z"/>
	<path d="M90.865,60.326c-12.494,0-14.957-12.317-14.957-21.878c0-9.561,2.698-21.878,15.191-21.878
		c12.494,0,14.957,12.317,14.957,21.878C106.057,48.009,103.358,60.326,90.865,60.326z M90.982,23.55
		c-5.982,0-6.158,10.675-6.158,14.898c0,4.164,0.293,14.957,6.158,14.957s6.1-10.852,6.1-14.957
		C97.082,34.107,96.906,23.55,90.982,23.55z"/>
</g>
</svg>
