<?xml version="1.0" encoding="iso-8859-1"?>
<!-- Generator: Adobe Illustrator 14.0.0, SVG Export Plug-In . SVG Version: 6.00 Build 43363)  -->
<!DOCTYPE svg PUBLIC "-//W3C//DTD SVG 1.1//EN" "http://www.w3.org/Graphics/SVG/1.1/DTD/svg11.dtd">
<svg version="1.1" id="Calque_1" xmlns="http://www.w3.org/2000/svg" xmlns:xlink="http://www.w3.org/1999/xlink" x="0px" y="0px"
	 width="120px" height="77px" viewBox="0 0 120 77" style="enable-background:new 0 0 120 77;" xml:space="preserve">
<g>
	<rect style="fill-rule:evenodd;clip-rule:evenodd;fill:#D2D200;" width="120" height="77"/>
	<g>
		<path d="M42.094,68.378H29.818L15.258,23.172h13.122l5.841,24.042c0.931,3.81,1.947,8.974,2.37,10.751h0.169
			c0.338-1.946,1.524-7.28,2.455-10.836l6.265-23.957h11.174L42.094,68.378z"/>
		<path d="M79.428,69.817c-8.551,0-13.291-2.117-17.27-4.487l4.656-9.228c2.539,1.778,6.688,3.895,11.767,3.895
			c6.942,0,11.259-4.063,11.259-9.143c0-6.857-5.248-9.228-11.344-9.228h-6.18v-9.905h6.265c5.841,0,9.481-3.047,9.481-7.619
			c0-3.81-2.878-7.28-9.143-7.28c-5.502,0-9.143,2.624-11.09,4.317l-4.317-8.804c5.079-3.386,10.582-5.333,18.116-5.333
			c12.19,0,19.133,7.28,19.133,15.238c0,6.18-3.303,11.089-9.651,13.46v0.169c6.603,1.27,11.598,6.35,11.598,14.73
			C102.708,61.098,93.312,69.817,79.428,69.817z"/>
	</g>
</g>
</svg>
