<?xml version="1.0" encoding="iso-8859-1"?>
<!-- Generator: Adobe Illustrator 14.0.0, SVG Export Plug-In . SVG Version: 6.00 Build 43363)  -->
<!DOCTYPE svg PUBLIC "-//W3C//DTD SVG 1.1//EN" "http://www.w3.org/Graphics/SVG/1.1/DTD/svg11.dtd">
<svg version="1.1" id="Calque_1" xmlns="http://www.w3.org/2000/svg" xmlns:xlink="http://www.w3.org/1999/xlink" x="0px" y="0px"
	 width="120px" height="77px" viewBox="0 0 120 77" style="enable-background:new 0 0 120 77;" xml:space="preserve">
<g>
	<g>
		<rect style="fill-rule:evenodd;clip-rule:evenodd;fill:#DC9600;" width="120" height="77"/>
	</g>
	<g>
		<g>
			<path style="fill-rule:evenodd;clip-rule:evenodd;" d="M47.072,33.644c-1.248-1.408-3.021-2.704-5.918-2.654
				c-2.336,0.04-3.785,0.725-5.314,2.172s-2.336,3.257-2.336,5.187c0,1.931,0.322,3.017,1.731,4.865s3.261,2.854,5.958,2.854
				c2.698,0,3.906-0.924,5.354-2.131c1.45-1.206,2.095-2.693,2.296-5.025S48.32,35.05,47.072,33.644z M41.234,42.569
				c-2.174,0-3.905-1.926-3.905-3.939c0-1.932,1.772-4.102,3.985-4.102c1.974,0,3.783,2.211,3.744,4.102
				C45.019,40.601,43.488,42.569,41.234,42.569z"/>
			<g>
				<path style="fill:#FFFFFF;" d="M76.131,31.88l0.314-0.205l0.649-0.245l0.896-0.226l0.609-0.021l0.676-0.218l0.409,0.097
					l0.206-0.229l0.478-0.156l0.979-0.172l0.388-0.015l0.642-0.105l2.549-0.089l1.541,0.141l0.546,0.147l1.124,0.71l0.339,0.403
					l0.159,0.661l-0.137,0.504l-0.535,0.685l-1.18,0.901l-1.314,0.795l-0.988,0.395l-0.484,0.267l0.434,0.151l0.524,0.037
					l2.256,0.754l1.073,0.628l0.15,0.3l0.221,0.021l0.106,0.079l0.167,0.494l0.26,0.323l0.184,0.716l-0.016,0.305l-0.187,0.922
					l-0.175,0.173l-0.274,0.481l-0.794,0.888l-0.368,0.179l-0.292,0.288l-0.571,0.353l-0.266,0.314l-0.275-0.018l-0.496,0.488
					l-0.701,0.191l-0.034,0.14l-0.26,0.176l-0.195,0.034L83.949,44.7l-0.469-0.012l-0.49,0.378l-0.497-0.01l-0.233,0.229
					l-0.277,0.01l-0.6,0.354l-0.252,0.064L80.93,45.86l-0.391,0.068l-0.481,0.211l-0.358-0.043l-0.539,0.27l-2.574,0.588
					l-0.275-0.045l-0.213-0.159L75.9,46.813l-0.286,0.204l-0.221-0.021l-0.334,0.04l-0.347-0.238l-0.309,0.066l-0.191-0.021
					l-0.107-0.079l-0.175-0.354l-0.169,0.063l-0.082-0.025l-0.076-0.108l-0.115-0.468l0.037-0.168l0.27-0.397l0.494-0.462
					l1.781-1.254l0.742-0.442l2.021-1.097l0.444-0.043l0.153-0.283l0.422-0.126l1.764-0.949l1.271-0.517l0.568-0.269l0.788-0.278
					l0.139-0.004l0.382,0.097l0.396,0.375l0.092,0.358l-0.036,0.139l-0.274,0.481l-0.178,0.229l-0.42,0.098l-0.131-0.134
					l-0.832,0.057l-0.19-0.076l-0.339,0.122l-0.361,0.04l-0.343,0.207l-1.493,0.523l-1.221,0.598l-0.563,0.186l-0.688,0.468
					l-1.771,1.061l-0.26,0.204l-0.119,0.17l-0.006,0.111l0.051,0.082l0.274,0.045l1.216,0.041l0.915-0.06l0.481-0.211l1.063-0.231
					l0.26-0.203l0.5-0.045l0.345-0.234l0.501-0.072l0.85-0.391l0.676-0.219l0.49-0.377l0.307-0.038l0.717-0.497l0.564-0.215
					l0.381-0.4l0.395-0.152l0.72-0.525l0.147-0.172l0.723-0.607l0.206-0.229l0.165,0.021l0.112-0.031l-0.013-0.277l0.256-0.147
					l-0.094-0.302l0.066-0.225l-0.283-0.406l-0.018-0.193l-0.273-0.074l-0.259-0.323l-0.378-0.181l-1.033-0.354l-1.895-0.238
					l-0.667,0.051l-1.072-0.129l-0.528,0.074l-0.551-0.064l-0.78,0.11l-0.355-0.07l-0.104-0.107l-0.021-0.138l0.173-0.645
					l0.677-0.772l0.936-0.448l1.099-0.371l1.25-0.627l0.452-0.182l1.746-1.144l0.232-0.202l0.257-0.147l0.06-0.086l0.041-0.251
					L86.967,32l-0.105-0.107l-0.324-0.155l-0.544-0.175l-1.704-0.19l-0.361,0.013l-0.977,0.173l-0.24-0.158l-0.374,0.264
					l-0.579-0.036l-0.145,0.144l-0.007,0.111l0.253,0.463l-0.1,0.309l-0.02,0.389l-0.179,0.229l-0.073,0.336l-0.618,1.242
					l-0.345,0.789l-0.207,0.257l-0.138,0.504l-0.551,1.019l-0.224,0.563l-0.239,0.341l-0.657,1.466l-0.298,0.398l-0.275,1.036
					l-0.652,1.354l-0.274-0.018l-0.244-0.104l-0.744-1.111l-0.098-0.246l0.006-0.111l0.691-1.577l0.369-0.706l0.332-0.539
					l0.068-0.252l0.268-0.342l0.013-0.251l0.349-0.317l0.072-0.335l0.205-0.202l0.072-0.336l0.199-0.09l0.041-0.278l0.096-0.226
					l0.459-0.321l-0.133-0.106l0.016-0.305l0.292-0.288l-0.063-0.358l0.549-0.99l0.293-0.287l-0.064-0.359l0.232-0.23l0.229-0.146
					l0.125-0.253l-0.3-0.101l-0.253,0.092l-0.614,0.104l-0.397,0.181l-0.247-0.02l-0.34,0.15l-1.31,0.185l-0.254,0.093l-0.251,0.036
					l-0.228,0.118l-0.309,0.094l-0.217-0.074l-0.318,0.26l-0.285,0.177l-0.449,0.099l-0.434,0.348l-0.153,0.312l-0.776,0.554
					l-0.242-0.102l-0.265-0.241L72.93,33.85l0.163-0.478l0.532-0.656l0.543-0.324l0.674-0.189l0.93-0.338L76.131,31.88z"/>
				<path style="fill:#FFFFFF;" d="M88.861,42.809l0.213-0.923l0.322-0.316l0.346-0.262l0.275,0.018l0.187-0.395l0.364-0.096
					l0.384-0.457l0.304,0.018l0.211-0.341l0.26-0.204l0.137,0.023l0.234-0.258l0.281-0.064l0.197-0.09l0.558-0.076l0.603,0.646
					l0.176,0.326l0.047,0.692l-0.06,0.085l-0.255,0.12l-0.073,0.335l-0.311,0.649l-0.23,0.174l-0.124,0.254l-0.223,0.036
					l-0.206,0.757l-0.296,0.37l-0.261,0.759l0.073,0.191l0.054,0.025l0.86-0.585l0.252-0.063l0.152-0.256l0.582-0.547l0.334-0.067
					l0.069-0.253l0.343-0.205l0.32-0.316l0.52-0.406l0.148-0.199l0.223-0.008l0.158-0.395l0.869-0.752l0.181-0.283l0.315-0.205
					l0.727-0.664l0.314-0.205l0.531-0.102l0.358,0.016l0.843,0.803l0.151,0.271l0.021,0.139l-0.719,1.578l-0.559,1.684l-0.141,0.061
					l0.004,0.444l0.283-0.12l0.399-0.236l0.366-0.124l0.181-0.284l0.464-0.404l0.234-0.258l0.172-0.117l0.307-0.039l0.098-0.28
					l0.324-0.372l0.635-0.521l0.143-0.061l0.189,0.077l0.102,0.163l0.047,0.164l0.133,0.107l-0.023,0.444l-0.143,0.088l-0.24,0.341
					l-0.277,0.038l-0.122,0.198l-0.138,0.005l-0.969,1.06l-0.429,0.266l-0.19-0.049l-0.178,0.229l-0.518,0.35l-0.295,0.371
					l-0.426,0.182l-0.61,0.576l-0.362,0.068l-0.529-0.48l-0.721-1.002l0.104-0.393l0.023-0.444l0.246-0.479l0.025-0.5l0.273-0.454
					l-0.045-0.192l0.072-0.336l-0.343,0.207l-0.296,0.371l-0.333,0.012l-0.187,0.395l-0.198,0.09l-0.202,0.174l-0.305,0.01
					l-0.074,0.363l-0.286,0.177l-0.179,0.229l-0.141,0.061l-0.321,0.315l-0.249,0.01l-0.101,0.336l-0.494,0.461l-0.249-0.019
					l-0.098,0.309l-0.091,0.142l-0.394,0.125l-0.9,0.809l-0.717-0.031l-0.219-0.076l-0.184-0.159l-0.208-0.271l-0.237-0.213
					l-0.557-0.98l0.014-0.277l0.114-0.586l0.552-1.046l0.127-0.31l0.139-0.005l0.039-0.224l0.207-0.229l0.01-0.195L90.67,42.08
					l-0.289,0.231l-0.283,0.121l-0.053-0.053l-0.083,0.002l-0.097,0.253l-0.168,0.034l-0.117,0.143l-0.201,0.146l-0.113,0.032
					L88.861,42.809z"/>
				<path style="fill:#FFFFFF;" d="M101.371,42.122l0.191,0.049l0.231-0.201l0.569-0.299l0.15-0.254l0.2-0.119l0.118-0.143
					l0.369-0.179l0.525-0.546l0.29-0.232l0.597-0.824l0.321-0.345l0.479-1.237l0.26-0.203l0.365-0.096l0.438,0.067l0.265,0.213
					l0.104,0.136l0.495,1.619l0.082,0.551l-0.02,0.391l0.148,0.327l0.043,0.221l-0.126,0.31l-0.009,0.693l-0.18,0.256l-0.045,0.335
					l-0.158,0.366l0.075,0.164l0.742-0.442l0.177-0.2l0.805-0.584l0.381-0.401l1.029-0.646l0.383-0.43l0.537-0.241l0.18,0.271
					l0.064,0.359l-0.103,0.363l-0.089,0.115l-0.348,0.289l-0.176,0.201l-0.538,0.24l-0.243,0.424l-0.578,0.465l-0.308,0.066
					l-0.153,0.283l-0.197,0.09l-0.26,0.175l-0.321,0.345l-0.224,0.035l-0.127,0.31l-0.311,0.122l-0.148,0.199l-0.141,0.032
					l-0.288,0.231l-0.675,0.219l-0.123,0.227l-0.766,0.359l-0.205,0.229l-0.451,0.154l-0.205,0.229l-0.305,0.011l-1.024,0.535
					l-1.132-0.043l-0.189-0.078l-0.311-0.404l-0.461-0.705l-0.018-0.194l0.292-0.287l0.151-0.255l0.176-0.172l0.282-0.122
					l0.843-0.251l0.264,0.269l0.277-0.038l0.329,0.072l0.483-0.267l0.281-0.093l0.125-0.281l0.543-0.852l0.204-0.202l0.118-0.67
					l0.088-0.086l0.169-0.062l0.087-0.086l-0.146-0.355l0.153-0.283l0.049-0.418l-0.043-0.221l0.067-0.252l-0.107-0.578
					l-0.256,0.146l-0.613,0.605l-0.414,0.514l-0.456,0.265l-0.269,0.37l-0.659,0.439l-0.782,0.666l-0.543,0.352l-0.178,0.228
					l-0.412-0.068l-0.051-0.082l-0.062-0.413l0.072-0.309L101.371,42.122z"/>
			</g>
			<path style="fill-rule:evenodd;clip-rule:evenodd;" d="M74.086,30.949l-2.174,5.388l-3.462-5.348l-3.663,1.407
				c0,0-1.893-1.286-3.744-1.367c-1.853-0.08-4.027,0.402-4.994,1.85c-0.965,1.448-1.287,3.017-0.441,4.704
				c0.846,1.689,2.576,2.092,3.824,2.453s2.456,0.765,1.973,1.729c-0.482,0.966-1.812,0.805-2.818,0.563
				c-1.006-0.241-1.489-1.005-1.489-1.005l-2.255,2.976c1.168,1.206,3.061,1.729,5.113,1.769c2.053,0.041,3.262-0.441,4.469-1.688
				c1.207-1.248,1.248-3.178,0.967-4.464c-0.282-1.286-1.248-2.292-3.463-3.056s-2.657-1.006-2.697-1.528s0.402-1.005,1.57-1.046
				c1.168-0.039,2.295,1.127,2.295,1.127l2.053-2.494l4.871,7.641l-2.174,5.025l3.986,0.443l5.918-13.873L74.086,30.949z"/>
			<path style="fill-rule:evenodd;clip-rule:evenodd;" d="M13.938,35.453c1.014-0.771,1.611-0.886,2.738-0.886
				s2.697,1.166,2.697,1.166l-0.685-4.262c0,0-1.046-0.522-2.456-0.522c-1.408,0-3.743,0.321-5.273,2.132
				c-1.53,1.809-2.254,3.055-2.174,5.549c0.08,2.492,0.404,3.902,2.295,5.549c1.569,1.367,2.938,1.85,5.112,1.889
				c2.175,0.041,2.737-0.684,2.737-0.684l0.443-4.102c0,0-0.645,0.645-1.57,0.967c-0.926,0.32-2.295,0.521-3.623-0.403
				s-1.53-2.05-1.53-3.297S13.092,36.097,13.938,35.453z"/>
			<path style="fill:#FFFFFF;stroke:#DC9600;stroke-width:0.4628;" d="M32.864,41.706c0.009-0.074-0.03-0.154,0.047-0.182
				c0.234-0.049,0.398,0.219,0.636,0.168l0.024-0.119l0.54,0.197c0.35-0.002,0.695-0.027,1.033-0.081
				c-0.009-0.044-0.014-0.085,0.02-0.102c0.141-0.036,0.337,0.005,0.539,0.009l0.088-0.026c0.021-0.028,0.025-0.07,0.027-0.097
				c0.091-0.002,0.172,0.004,0.246,0.012c0.969-0.296,1.906-0.707,2.873-1.191c0.193-0.15,0.383-0.308,0.574-0.412
				c0.292-0.115,0.696-0.146,0.994-0.227c-0.162-0.389,0.45-0.824,0.162-1.186c0.184-0.051,0.45-0.142,0.412-0.264
				c-0.121-0.354-0.096-0.79,0.097-1.154c0.129-0.115,0.257-0.053,0.259-0.125c-0.038-0.113-0.247-0.148-0.278-0.266
				c-0.616,0.263-2.113,0.89-3.4,1.09c-0.415,0.352-3.651,0.646-4.425,0.382l-0.072-0.002c-0.433-0.062-0.946-0.113-1.332-0.036
				c-0.184,0.061-0.379,0.141-0.578,0.215l0.162,0.256c-0.173-0.05-0.344-0.101-0.429-0.053c-0.415,0.055-0.283,0.325-0.215,0.654
				c0.073,0.158-0.132,0.297,0.007,0.48c-0.125-0.049-0.188-0.072-0.313-0.12c-0.05,0.11,0.41,0.069,0.266,0.231
				c-0.11-0.085-0.271-0.061-0.398-0.108c-0.007,0.171,0.431,0.207,0.366,0.356c-0.083,0.012-0.304-0.332-0.39-0.148
				c-0.018,0.037,0.112,0.086,0.179,0.111c-0.423-0.074-0.727,0.028-0.41,0.365c-0.135-0.051-0.295-0.193-0.445-0.215v0.002
				c0.068,0.03,0.176,0.111,0.241,0.135l-0.239-0.09l0.013,0.092c0.052,0.045,0.106,0.084,0.169,0.107l-0.16-0.061l0.075,0.224
				c0.151,0.188,0.287,0.434,0.396,0.474C31.082,41.368,31.977,41.604,32.864,41.706z"/>
			<path style="fill:#FFFFFF;stroke:#DC9600;stroke-width:0.4628;" d="M48.98,31.551c0.002,0.085,0.06,0.165-0.02,0.21
				c-0.25,0.091-0.479-0.168-0.725-0.049l-0.002,0.138c-0.201-0.03-0.414-0.077-0.635-0.108c-0.387,0.068-0.725,0.212-1.078,0.336
				c0.022,0.046,0.037,0.09,0.007,0.116c-0.138,0.073-0.36,0.069-0.563,0.126l-0.082,0.052c-0.016,0.036-0.007,0.084-0.002,0.113
				c-0.093,0.024-0.178,0.039-0.258,0.05c-0.919,0.564-1.713,1.269-2.542,2.004c-0.15,0.205-0.286,0.429-0.45,0.576
				c-0.254,0.196-0.662,0.295-0.934,0.44c0.273,0.398-0.25,0.972,0.122,1.319c-0.177,0.09-0.444,0.225-0.389,0.35
				c0.17,0.375,0.283,0.859-0.024,1.34c-0.141,0.154-0.496,0.171-0.512,0.278c-0.024,0.17,0.377,0.106,0.352,0.275
				c1.33-0.673,2.471-1.517,3.777-2.108c0.34-0.485,3.383-1.604,4.098-1.408l0.066-0.01c0.404,0,0.822-0.016,1.093-0.146
				l0.417-0.281l-0.063-0.271c0.129,0.048,0.22,0.103,0.297,0.043c0.285-0.072,0.357-0.311,0.368-0.684
				c-0.038-0.176,0.211-0.304,0.091-0.521c0.133,0.066,0.197,0.107,0.324,0.194c0.088-0.123-0.441-0.161-0.252-0.311
				c0.113,0.106,0.303,0.115,0.439,0.223c0.063-0.207-0.466-0.35-0.369-0.494c0.115-0.002,0.309,0.433,0.458,0.275
				c0.032-0.037-0.121-0.145-0.199-0.188c0.497,0.196,0.995,0.436,0.631-0.23c0.206,0.193,0.333,0.354,0.63,0.85v-0.01
				c-0.157-0.328-0.249-0.468-0.35-0.582c0.11,0.119,0.211,0.232,0.342,0.469l0.01-0.17c-0.068-0.153-0.142-0.275-0.23-0.37
				c0.076,0.081,0.15,0.172,0.233,0.294c-0.005-0.138-0.015-0.261-0.05-0.398c-0.188-0.412-0.389-0.796-0.557-0.895
				C51.106,31.565,49.984,31.536,48.98,31.551z"/>
			<polygon style="fill-rule:evenodd;clip-rule:evenodd;" points="28.673,36.498 24.446,36.498 24.446,31.029 20.541,31.351 
				20.541,45.947 24.446,45.505 24.446,39.996 28.673,39.996 28.673,45.867 32.457,45.505 32.457,30.949 28.673,31.312 			"/>
			<polygon style="fill-rule:evenodd;clip-rule:evenodd;" points="49.891,45.947 53.715,45.546 53.715,31.029 49.891,31.351 			"/>
		</g>
	</g>
</g>
</svg>
