<?xml version="1.0" encoding="iso-8859-1"?>
<!-- Generator: Adobe Illustrator 14.0.0, SVG Export Plug-In . SVG Version: 6.00 Build 43363)  -->
<!DOCTYPE svg PUBLIC "-//W3C//DTD SVG 1.1//EN" "http://www.w3.org/Graphics/SVG/1.1/DTD/svg11.dtd">
<svg version="1.1" id="Calque_1" xmlns="http://www.w3.org/2000/svg" xmlns:xlink="http://www.w3.org/1999/xlink" x="0px" y="0px"
	 width="120px" height="77px" viewBox="0 0 120 77" style="enable-background:new 0 0 120 77;" xml:space="preserve">
<g>
	<rect style="fill-rule:evenodd;clip-rule:evenodd;fill:#82C8E6;" width="120" height="77"/>
	<g>
		<path d="M44.464,68.378H32.189L17.628,23.172H30.75l5.841,24.042c0.931,3.81,1.947,8.974,2.37,10.751h0.169
			c0.339-1.946,1.524-7.28,2.455-10.836l6.265-23.957h11.174L44.464,68.378z"/>
		<path d="M77.143,69.817c-6.941,0-12.275-1.524-16.847-4.317l4.825-9.313c3.302,2.286,6.688,3.81,11.344,3.81
			s10.498-2.794,10.498-9.82c0-4.317-2.879-10.243-13.884-10.412c-3.387,0-7.365-0.085-9.313-0.085l2.37-31.069h31.408v9.99H76.042
			l-0.847,11.344c0.338,0,1.101,0.085,1.693,0.085c16.338,0.762,22.941,9.989,22.941,18.963
			C99.83,60.42,90.771,69.817,77.143,69.817z"/>
	</g>
</g>
</svg>
