<?xml version="1.0" encoding="iso-8859-1"?>
<!-- Generator: Adobe Illustrator 14.0.0, SVG Export Plug-In . SVG Version: 6.00 Build 43363)  -->
<!DOCTYPE svg PUBLIC "-//W3C//DTD SVG 1.1//EN" "http://www.w3.org/Graphics/SVG/1.1/DTD/svg11.dtd">
<svg version="1.1" id="Calque_1" xmlns="http://www.w3.org/2000/svg" xmlns:xlink="http://www.w3.org/1999/xlink" x="0px" y="0px"
	 width="120px" height="77px" viewBox="0 0 120 77" style="enable-background:new 0 0 120 77;" xml:space="preserve">
<g>
	<rect style="fill-rule:evenodd;clip-rule:evenodd;fill:#D282BE;" width="120" height="77"/>
</g>
<g>
	<path d="M104.58,22.855c0.6-0.209,0.964-0.727,0.814-1.155s-0.757-0.604-1.356-0.396s-0.964,0.727-0.815,1.154
		C103.372,22.887,103.98,23.065,104.58,22.855"/>
	<path style="fill-rule:evenodd;clip-rule:evenodd;fill:none;stroke:#000000;stroke-width:1.3248;" d="M99.49,22.201
		c-0.904-3.469,2.642-4.154,5.473-4.773"/>
	<path style="fill-rule:evenodd;clip-rule:evenodd;fill:none;stroke:#000000;stroke-width:1.3248;" d="M98.903,29.74
		c-3.409-3.76-2.914-9.058-3.202-13.58c-0.134-4.21-5.586-5.019-9.175-4.414c-18.884,3.486-24.163,14.856-50.483,22.526"/>
	<path style="fill-rule:evenodd;clip-rule:evenodd;fill:none;stroke:#000000;stroke-width:0.8831;" d="M90.651,33.658
		c-2.729-3.009-2.331-7.247-2.562-10.865c-0.107-3.368-4.661-4.67-7.341-3.531c-11.937,5.075-38.361,21.045-41.045,18.497"/>
	<path style="fill-rule:evenodd;clip-rule:evenodd;fill:none;stroke:#000000;stroke-width:0.8831;" d="M107.884,20.659
		c1.304-0.315,2.299-1.239,3.516-1.685"/>
	<path style="fill-rule:evenodd;clip-rule:evenodd;fill:none;stroke:#000000;stroke-width:1.3248;" d="M60.098,36.103
		c1.22,0.521,2.683,0.58,4.009,1.045c8.955,3.145,25.688,3.377,35.733-3.485c1.819-1.245,4.008-2.092,5.054-4.01"/>
	<polyline points="11.634,62.578 15.918,62.578 15.918,65.203 8.601,65.203 8.601,49.678 11.634,49.678 11.634,62.578 	"/>
	<path d="M26.354,55.086h-2.837v0.939c-0.699-0.822-1.769-1.275-2.818-1.275c-2.903,0-4.616,2.654-4.616,5.344
		c0,2.752,1.692,5.445,4.658,5.445c1.049,0,2.118-0.453,2.734-1.254h0.042l-0.001,0.918h2.838V55.086z M21.397,62.99
		c-1.479,0-2.385-1.49-2.385-2.855s0.905-2.834,2.385-2.834c1.481,0,2.406,1.469,2.406,2.834S22.879,62.99,21.397,62.99"/>
	<path d="M44.854,53.797c-0.845-1.029-2.122-1.646-3.42-1.646c-2.904,0-4.573,2.678-4.573,5.354c0,2.613,1.73,5.229,4.553,5.229
		c1.298,0,2.596-0.68,3.44-1.646v3.604c-1.133,0.535-2.266,0.928-3.522,0.928c-4.367,0-7.606-3.77-7.606-8.053
		c0-4.406,3.116-8.297,7.668-8.297c1.216,0,2.41,0.328,3.461,0.904V53.797"/>
	<path d="M51.393,54.75c-3.147,0-5.314,2.24-5.314,5.404c0,3.145,2.146,5.385,5.314,5.385s5.315-2.24,5.315-5.385
		C56.708,56.99,54.54,54.75,51.393,54.75z M51.393,57.301c1.48,0,2.385,1.447,2.385,2.854c0,1.367-0.904,2.836-2.385,2.836
		c-1.479,0-2.383-1.469-2.383-2.836C49.01,58.748,49.913,57.301,51.393,57.301"/>
	<rect x="58.06" y="47.748" width="2.883" height="17.455"/>
	<path d="M67.604,54.75c-3.148,0-5.315,2.24-5.315,5.404c0,3.145,2.146,5.385,5.315,5.385c3.168,0,5.313-2.24,5.313-5.385
		C72.918,56.99,70.752,54.75,67.604,54.75z M67.604,57.301c1.479,0,2.384,1.447,2.384,2.854c0,1.367-0.905,2.836-2.384,2.836
		c-1.48,0-2.384-1.469-2.384-2.836C65.221,58.748,66.124,57.301,67.604,57.301"/>
	<path d="M77.154,55.992h0.041c0.558-0.807,1.548-1.238,2.477-1.238c1.256,0,2.245,0.516,2.904,1.59
		c0.618-0.992,1.774-1.59,2.95-1.59c2.575,0,3.214,1.939,3.214,4.145v6.305h-2.883v-5.314c0-0.99,0.061-2.822-1.362-2.822
		c-1.569,0-1.549,2.121-1.549,3.172v4.965h-2.883v-5.129c0-0.988,0.123-3.008-1.383-3.008c-1.609,0-1.526,2.102-1.526,3.172v4.965
		H74.27V55.088h2.885V55.992"/>
	<path d="M90.789,65.203h2.885v-0.938h0.041c0.575,0.82,1.666,1.273,2.694,1.273c2.985,0,4.678-2.672,4.678-5.445
		c0-2.67-1.754-5.344-4.617-5.344c-1.068,0-2.138,0.473-2.796,1.254v-8.256h-2.885V65.203z M95.771,62.99
		c-1.481,0-2.386-1.49-2.386-2.855s0.904-2.834,2.386-2.834c1.48,0,2.385,1.469,2.385,2.834S97.252,62.99,95.771,62.99"/>
	<path d="M111.398,60.619v-0.352c0-3.07-1.482-5.518-4.799-5.518c-3.271,0-4.893,2.404-4.893,5.498c0,3.059,1.909,5.289,5.036,5.289
		c2.122,0,3.895-1.137,4.594-3.154l-2.658-0.43c-0.391,0.801-0.987,1.375-1.936,1.375c-1.504,0-1.998-1.436-1.998-2.709H111.398z
		 M104.828,58.82c0.145-1.063,0.781-2.063,1.936-2.063c1.112,0,1.772,1.023,1.915,2.063H104.828"/>
</g>
</svg>
