<?xml version="1.0" encoding="utf-8"?>
<!-- Generator: Adobe Illustrator 16.0.3, SVG Export Plug-In . SVG Version: 6.00 Build 0)  -->
<!DOCTYPE svg PUBLIC "-//W3C//DTD SVG 1.1//EN" "http://www.w3.org/Graphics/SVG/1.1/DTD/svg11.dtd">
<svg version="1.1" id="Calque_1" xmlns="http://www.w3.org/2000/svg" xmlns:xlink="http://www.w3.org/1999/xlink" x="0px" y="0px"
	 width="120px" height="77px" viewBox="0 0 120 77" enable-background="new 0 0 120 77" xml:space="preserve">
<g>
	<rect fill-rule="evenodd" clip-rule="evenodd" fill="#5290CD" width="119.999" height="77"/>
	<rect x="6.983" y="1.461" fill-rule="evenodd" clip-rule="evenodd" fill="none" width="105.187" height="24.236"/>
	<text transform="matrix(1 0 0 1 11.1426 17.6357)" fill="#FFFFFF" font-family="'ParisinePtf-Bold'" font-size="19.05">La Navette</text>
	<g>
		<g>
			<g>
				<path fill="#FFFFFF" d="M63.597,25.425l-0.837,2.304h-0.409l-0.839-2.304h0.329l0.723,2.027l0.722-2.027H63.597z"/>
				<path fill="#FFFFFF" d="M64.613,25.712h-0.329V25.41h0.329V25.712z M64.595,27.729h-0.291v-1.728h0.291V27.729z"/>
				<path fill="#FFFFFF" d="M65.841,27.729H65.55v-2.406h0.291V27.729z"/>
				<path fill="#FFFFFF" d="M67.087,27.729h-0.291v-2.406h0.291V27.729z"/>
				<path fill="#FFFFFF" d="M69.484,26.895h-1.273c0,0.106,0.017,0.199,0.049,0.277c0.032,0.079,0.076,0.145,0.132,0.194
					c0.053,0.05,0.117,0.087,0.191,0.112c0.073,0.023,0.154,0.036,0.242,0.036c0.118,0,0.236-0.023,0.355-0.07
					c0.119-0.046,0.204-0.093,0.255-0.138h0.015v0.316c-0.098,0.041-0.197,0.076-0.299,0.104c-0.104,0.026-0.21,0.041-0.322,0.041
					c-0.286,0-0.511-0.077-0.672-0.232s-0.24-0.376-0.24-0.661c0-0.283,0.076-0.507,0.231-0.674
					c0.153-0.165,0.356-0.248,0.608-0.248c0.232,0,0.412,0.067,0.539,0.204c0.126,0.136,0.188,0.329,0.188,0.58V26.895z
					 M69.201,26.672c0-0.152-0.038-0.271-0.115-0.354c-0.075-0.084-0.19-0.126-0.345-0.126c-0.156,0-0.279,0.047-0.373,0.138
					c-0.092,0.092-0.144,0.206-0.157,0.342H69.201z"/>
			</g>
			<g>
				<path fill="#FFFFFF" d="M76.482,27.721h-0.291V27.54c-0.084,0.071-0.17,0.128-0.262,0.168c-0.09,0.041-0.188,0.061-0.295,0.061
					c-0.206,0-0.371-0.079-0.491-0.238c-0.121-0.159-0.182-0.379-0.182-0.66c0-0.146,0.021-0.276,0.063-0.392
					c0.043-0.114,0.099-0.212,0.169-0.292c0.07-0.078,0.152-0.139,0.246-0.18c0.093-0.041,0.189-0.062,0.289-0.062
					c0.091,0,0.172,0.009,0.242,0.028s0.144,0.049,0.221,0.089v-0.748h0.291V27.721z M76.191,27.296v-0.992
					c-0.078-0.035-0.147-0.06-0.21-0.072c-0.062-0.014-0.131-0.02-0.202-0.02c-0.163,0-0.29,0.056-0.382,0.17
					c-0.09,0.113-0.136,0.274-0.136,0.482c0,0.205,0.034,0.361,0.105,0.468c0.07,0.106,0.182,0.159,0.338,0.159
					c0.082,0,0.165-0.018,0.25-0.055C76.039,27.4,76.118,27.354,76.191,27.296z"/>
				<path fill="#FFFFFF" d="M78.738,26.887h-1.272c0,0.106,0.016,0.199,0.047,0.278c0.032,0.078,0.076,0.143,0.132,0.193
					c0.054,0.05,0.117,0.088,0.19,0.112c0.074,0.024,0.156,0.037,0.244,0.037c0.118,0,0.235-0.023,0.354-0.071
					c0.12-0.047,0.204-0.093,0.255-0.138h0.015v0.317c-0.097,0.04-0.197,0.075-0.299,0.103c-0.104,0.028-0.21,0.042-0.321,0.042
					c-0.287,0-0.511-0.077-0.673-0.232c-0.16-0.155-0.24-0.376-0.24-0.661c0-0.283,0.077-0.507,0.231-0.673
					c0.153-0.166,0.357-0.249,0.608-0.249c0.233,0,0.412,0.068,0.539,0.204c0.126,0.136,0.189,0.329,0.189,0.58V26.887z
					 M78.455,26.665c-0.001-0.153-0.04-0.271-0.115-0.355c-0.075-0.083-0.191-0.124-0.346-0.124c-0.155,0-0.28,0.045-0.372,0.137
					c-0.093,0.092-0.144,0.206-0.156,0.343H78.455z"/>
			</g>
			<path fill="#FFFFFF" d="M38.654,29.847v6.556c0.025,0.917,0.271,1.544,0.737,1.88c0.466,0.337,1.006,0.496,1.62,0.478
				c0.475,0,0.901-0.066,1.28-0.201s0.726-0.342,1.042-0.621l-0.356-0.524c-0.241,0.178-0.479,0.313-0.716,0.405
				s-0.484,0.138-0.745,0.138c-0.392,0.003-0.684-0.124-0.875-0.383c-0.191-0.26-0.286-0.669-0.285-1.228v-6.499h2.471v-0.728
				h-2.471v-2.715h-0.562c-0.198,0.98-0.479,1.696-0.839,2.146c-0.36,0.45-0.897,0.702-1.612,0.756v0.541H38.654"/>
			<path fill="#FFFFFF" d="M44.051,38.534h3.948v-0.578c-0.443,0.021-0.727-0.054-0.849-0.222c-0.123-0.169-0.178-0.558-0.162-1.164
				v-4.982c0.433-0.552,0.874-0.996,1.325-1.333c0.451-0.338,0.903-0.511,1.354-0.521c0.732,0.012,1.2,0.255,1.401,0.73
				c0.202,0.476,0.29,1.112,0.266,1.911v4.176c0.016,0.615-0.04,1.009-0.169,1.18s-0.429,0.246-0.899,0.225v0.578h3.873v-0.578
				c-0.479,0.019-0.783-0.061-0.914-0.238s-0.188-0.566-0.172-1.166V32.3c0.018-0.377-0.017-0.831-0.103-1.361s-0.327-1-0.723-1.412
				c-0.396-0.411-1.05-0.629-1.962-0.65c-0.639,0.005-1.23,0.157-1.774,0.453c-0.546,0.296-1.034,0.699-1.467,1.211h-0.037v-6.363
				l-0.225-0.132c-0.426,0.24-0.859,0.429-1.3,0.566s-0.912,0.242-1.413,0.313v0.504c0.526-0.02,0.864,0.051,1.016,0.21
				s0.219,0.521,0.201,1.082v9.831c0.019,0.607-0.043,0.999-0.187,1.173c-0.145,0.174-0.488,0.251-1.03,0.231V38.534"/>
			<path fill-rule="evenodd" clip-rule="evenodd" fill="#FFFFFF" d="M57.959,28.876c-0.476,0.251-0.936,0.446-1.383,0.588
				c-0.443,0.14-0.938,0.237-1.479,0.291v0.522c0.612-0.024,0.996,0.035,1.151,0.179c0.154,0.144,0.22,0.521,0.196,1.132v4.964
				c0.022,0.607-0.045,0.999-0.203,1.173c-0.159,0.174-0.539,0.251-1.145,0.231v0.578h4.341v-0.578
				c-0.577,0.02-0.938-0.057-1.086-0.229c-0.146-0.172-0.209-0.558-0.187-1.156v-7.563L57.959,28.876"/>
			<path fill-rule="evenodd" clip-rule="evenodd" fill="#FFFFFF" d="M57.192,25.744c-0.306,0.003-0.556,0.094-0.748,0.271
				c-0.194,0.179-0.294,0.425-0.3,0.741c0.006,0.322,0.105,0.571,0.3,0.745c0.192,0.176,0.442,0.265,0.748,0.267
				c0.298-0.002,0.548-0.091,0.75-0.267c0.202-0.174,0.308-0.423,0.315-0.745c-0.005-0.297-0.103-0.538-0.294-0.724
				C57.772,25.846,57.515,25.75,57.192,25.744z"/>
			<path fill-rule="evenodd" clip-rule="evenodd" fill="#FFFFFF" d="M66.275,36.833c-0.251,0.264-0.556,0.499-0.911,0.704
				c-0.357,0.206-0.777,0.314-1.263,0.325c-0.624-0.009-1.08-0.178-1.37-0.504c-0.289-0.325-0.432-0.75-0.428-1.274
				c-0.009-0.642,0.308-1.194,0.945-1.66c0.639-0.466,1.647-0.873,3.026-1.225V36.833 M66.275,32.506l-1.274,0.301
				c-0.692,0.15-1.302,0.326-1.828,0.528c-0.527,0.203-0.973,0.426-1.337,0.67c-0.473,0.29-0.813,0.628-1.021,1.014
				c-0.208,0.386-0.311,0.822-0.306,1.309c0.01,0.572,0.154,1.037,0.432,1.396c0.279,0.357,0.634,0.621,1.062,0.788
				c0.429,0.167,0.872,0.249,1.332,0.248c0.712-0.007,1.301-0.116,1.772-0.328c0.471-0.211,0.879-0.488,1.225-0.831h0.056
				c0.11,0.347,0.284,0.607,0.523,0.782c0.24,0.176,0.564,0.264,0.973,0.264c0.314,0,0.586-0.022,0.813-0.067
				s0.437-0.109,0.629-0.193l-0.149-0.561c-0.075,0.047-0.159,0.084-0.253,0.11c-0.093,0.026-0.196,0.039-0.309,0.039
				c-0.206,0.003-0.36-0.105-0.464-0.325c-0.103-0.219-0.155-0.566-0.155-1.041v-4.701c0.002-0.467-0.053-0.882-0.165-1.241
				c-0.113-0.359-0.294-0.67-0.545-0.931c-0.262-0.29-0.606-0.505-1.033-0.647c-0.427-0.142-0.986-0.212-1.681-0.212
				c-1.176,0.029-2.073,0.26-2.695,0.693c-0.62,0.434-0.932,0.895-0.937,1.383c-0.003,0.184,0.049,0.341,0.154,0.47
				c0.105,0.131,0.277,0.199,0.519,0.204c0.239-0.001,0.421-0.05,0.545-0.147s0.218-0.235,0.278-0.414
				c0.094-0.292,0.285-0.607,0.571-0.946c0.286-0.338,0.776-0.522,1.47-0.552c0.714,0.018,1.197,0.225,1.448,0.623
				c0.25,0.396,0.367,0.876,0.352,1.437V32.506z"/>
			<path fill-rule="evenodd" clip-rule="evenodd" fill="#FFFFFF" d="M73.016,28.876c-0.476,0.251-0.936,0.446-1.382,0.588
				c-0.444,0.14-0.938,0.237-1.479,0.291v0.522c0.612-0.024,0.996,0.035,1.15,0.179c0.155,0.144,0.221,0.521,0.196,1.132v4.964
				c0.022,0.607-0.045,0.999-0.203,1.173c-0.157,0.174-0.54,0.251-1.144,0.231v0.578h4.34v-0.578
				c-0.576,0.02-0.938-0.057-1.085-0.229c-0.147-0.172-0.209-0.558-0.187-1.156v-7.563L73.016,28.876"/>
			<path fill-rule="evenodd" clip-rule="evenodd" fill="#FFFFFF" d="M72.249,25.744c-0.305,0.003-0.556,0.094-0.748,0.271
				c-0.192,0.179-0.293,0.425-0.299,0.741c0.006,0.322,0.106,0.571,0.299,0.745c0.192,0.176,0.443,0.265,0.748,0.267
				c0.298-0.002,0.549-0.091,0.75-0.267c0.204-0.174,0.307-0.423,0.316-0.745c-0.005-0.297-0.103-0.538-0.295-0.724
				C72.829,25.846,72.572,25.75,72.249,25.744z"/>
			<path fill="#FFFFFF" d="M75.342,35.989c0.075,0.352,0.147,0.703,0.22,1.054c0.07,0.352,0.135,0.73,0.191,1.138
				c0.396,0.179,0.835,0.32,1.315,0.423c0.482,0.102,1.048,0.153,1.697,0.156c1.186-0.013,2.12-0.27,2.807-0.771
				c0.685-0.503,1.035-1.182,1.049-2.036c-0.021-0.67-0.266-1.234-0.731-1.692c-0.465-0.458-1.013-0.83-1.645-1.117
				c-0.242-0.149-0.566-0.308-0.971-0.473c-0.405-0.165-0.78-0.331-1.126-0.501c-0.256-0.171-0.457-0.362-0.603-0.578
				c-0.146-0.216-0.22-0.44-0.223-0.677c0.01-0.334,0.125-0.601,0.344-0.799c0.217-0.198,0.479-0.339,0.78-0.425
				c0.303-0.085,0.583-0.126,0.844-0.124c0.62-0.015,1.098,0.116,1.435,0.393c0.338,0.276,0.577,0.782,0.719,1.518l0.599-0.112
				c-0.083-0.437-0.152-0.818-0.204-1.147c-0.053-0.328-0.098-0.626-0.133-0.894c-0.344-0.133-0.724-0.24-1.14-0.322
				c-0.416-0.081-0.886-0.123-1.406-0.125c-1.088,0.012-1.941,0.23-2.559,0.656s-0.931,0.986-0.942,1.682
				c0.003,0.316,0.059,0.605,0.164,0.864c0.106,0.259,0.243,0.495,0.415,0.709c0.266,0.264,0.581,0.495,0.945,0.695
				s0.754,0.418,1.171,0.653c0.505,0.252,0.932,0.46,1.28,0.623c0.348,0.163,0.621,0.343,0.817,0.538
				c0.132,0.14,0.229,0.291,0.295,0.456s0.099,0.351,0.099,0.555c-0.007,0.501-0.205,0.919-0.598,1.256
				c-0.393,0.336-0.941,0.511-1.65,0.523c-0.646,0.016-1.188-0.141-1.629-0.47s-0.776-0.922-1.011-1.777L75.342,35.989"/>
		</g>
		<path fill="#FFFFFF" d="M71.834,73.196l1.786-2.822c0,0,1.9-2.646,4.037-3.374c2.138-0.729,4.646-1.66,5.044,1.528
			c0.105,0.84,0.101,1.554,0.198,2.104c0.253,1.42,0.673,2.019,0.908,2.679c0.085,0.236,0.074,0.193,0.275-0.012
			c0.185-0.813,0.69-3.571,0.524-4.968c-0.226-1.904-3.19-3.228-3.142-3.989c0.048-0.762,1.826-0.632,2.858-2.535
			c0.812-1.499,2.046-3.829,4.556-4.979c2.512-1.15,2.619-1.087,2.698-1.237c0.2-0.383-2.651-0.179-3.882,0.343
			c-0.733,0.312-2.749,1.468-3.491,2.396c-0.626,0.781-2.446,3.193-3.953,3.728c-1.505,0.534-4.069,2.384-4.263,2.821
			c-0.195,0.438,1.813-3.325,5.6-7.474c2.811-3.079,5.458-5.852,5.749-6.435c0.292-0.582,1.297-2.38-0.729-3.724
			c-2.023-1.345-5.912-0.91-6.641-1.332s-3.022,0.376-4.123-1.033c-1.104-1.408-1.522-1.579-1.567-3.257
			c-0.009-0.324,0.141-0.933,0.141-0.933s-0.035-0.117-0.106-0.072c-0.399,0.251-1.705,1.136-1.663,1.945
			c0.048,0.956,0.352,1.738-0.338,1.76c-0.507,0.017,0.016-1.538-1.004-1.684c-1.021-0.146-1.445,2.095-1.445,2.095l0.284,1.229
			c0,0,0,0.76,0,1.272c0,0.485,0.398,0.609,0.276,0.72c-0.281,0.255-0.72,0.045-0.774,0.21c0.355,0.487,1.411,1.069,1.411,1.069
			c-0.066,0.209,0.093,0.549-0.034,0.745c-0.158,0.248-0.395,0.523-0.787,0.922l0.192,0.29c0.805-0.023,0.906-0.048,0.906-0.048
			l-0.089,1.29c0,0,0.578,1.812,1.243,1.86c0.664,0.049,0.427-1.918,1.096-2.221c-0.175,0.786-0.195,2.336,0.117,2.839
			c0.336,0.541,1.495,1.236,2.327,1.337c0.54,0.065-0.678-1.197-0.434-1.765c0.242-0.568,0.08-1.867,1.23-1.722
			s1.288-0.995,1.412-1.63c0.077-0.398,4.417-2.147,6.611-2.803c0.896-0.268,0.73,0.846,1.586,0.608
			c0.153,0.182,0.228,0.399,0.228,0.633c0,0.681-4.615,5.11-6.288,7.09c-1.896,2.244-4.682,6.277-4.682,6.277
			s-0.231-2.529-0.342-2.947c-0.489-1.867-1.783-1.228-1.783-1.228l-0.898,0.281c0,0-0.477-0.2-1.562-0.253
			c-0.783-0.038-1.558-0.064-2.347,0.199c-1.119,0.376-1.815,1.485-3.402,3.753c-0.745,1.063-0.994,1.499-1.411,1.968
			c-0.216,0.243-0.975-0.012-0.854,0.684c0.866,0.589,2.434,0.183,5.09-3.134c1.804-2.25,1.396-2.749,3.069-2.532
			c1.404,0.183,1.681,3.17,1.681,3.17s0.239,2.761-0.185,4.675c-0.485,2.197-1.625,3.739-2.429,5.637
			C70.023,74.092,70.528,74.087,71.834,73.196z"/>
	</g>
</g>
</svg>
