<?xml version="1.0" encoding="iso-8859-1"?>
<!-- Generator: Adobe Illustrator 14.0.0, SVG Export Plug-In . SVG Version: 6.00 Build 43363)  -->
<!DOCTYPE svg PUBLIC "-//W3C//DTD SVG 1.1//EN" "http://www.w3.org/Graphics/SVG/1.1/DTD/svg11.dtd">
<svg version="1.1" id="Calque_1" xmlns="http://www.w3.org/2000/svg" xmlns:xlink="http://www.w3.org/1999/xlink" x="0px" y="0px"
	 width="120px" height="77px" viewBox="0 0 120 77" style="enable-background:new 0 0 120 77;" xml:space="preserve">
<g>
	<rect style="fill-rule:evenodd;clip-rule:evenodd;fill:#00643C;" width="120" height="77"/>
	<g>
		<path style="fill:#FFFFFF;" d="M21.168,31.413v18.156h-4.892V31.413H9.472v-3.982h18.5v3.982H21.168z"/>
		<path style="fill:#FFFFFF;" d="M39.889,50.102c-6.459,0-9.563-2.979-9.563-8.938V27.431h4.892v13.577
			c0,2.916,1.286,5.111,4.766,5.111c3.449,0,4.641-2.195,4.641-5.111V27.431h4.766v13.733C49.39,47.123,46.442,50.102,39.889,50.102
			z"/>
		<path style="fill:#FFFFFF;" d="M64.727,49.6h-5.143l-7.839-22.169h5.237l3.982,12.072c0.753,2.32,1.129,4.076,1.285,4.923h0.063
			c0.157-0.847,0.501-2.445,1.286-4.86l4.014-12.135h4.922L64.727,49.6z"/>
		<path style="fill:#FFFFFF;" d="M75.102,49.568V27.431h4.891v22.138H75.102z"/>
		<path style="fill:#FFFFFF;" d="M103.658,49.568l-0.314-12.762c-0.031-0.878,0.031-2.352,0.031-2.916h-0.063
			c-0.094,0.721-0.438,2.069-0.877,3.261L97.92,49.568h-3.48L89.893,37.12c-0.377-1.003-0.722-2.446-0.815-3.104h-0.063
			c0.031,0.689,0.063,1.787,0.031,2.665L88.67,49.568h-4.266l0.753-22.138h5.55l4.861,13.421c0.501,1.348,0.783,2.445,0.877,3.072
			h0.063c0.125-0.658,0.407-1.693,0.878-3.072l4.547-13.421h5.581l0.878,22.138H103.658z"/>
	</g>
</g>
</svg>
