<?xml version="1.0" encoding="iso-8859-1"?>
<!-- Generator: Adobe Illustrator 14.0.0, SVG Export Plug-In . SVG Version: 6.00 Build 43363)  -->
<!DOCTYPE svg PUBLIC "-//W3C//DTD SVG 1.1//EN" "http://www.w3.org/Graphics/SVG/1.1/DTD/svg11.dtd">
<svg version="1.1" id="Calque_1" xmlns="http://www.w3.org/2000/svg" xmlns:xlink="http://www.w3.org/1999/xlink" x="0px" y="0px"
	 width="120px" height="77px" viewBox="0 0 120 77" style="enable-background:new 0 0 120 77;" xml:space="preserve">
<g>
	<rect style="fill-rule:evenodd;clip-rule:evenodd;fill:#00643C;" width="120" height="77"/>
	<g>
		<path style="fill:#FFFFFF;" d="M31.901,69.817c-6.942,0-12.275-1.524-16.847-4.317l4.825-9.313
			c3.302,2.286,6.688,3.81,11.344,3.81c4.656,0,10.498-2.794,10.498-9.82c0-4.317-2.878-10.243-13.883-10.412
			c-3.387,0-7.365-0.085-9.313-0.085l2.371-31.069h31.407v9.99H30.801l-0.847,11.344c0.338,0,1.101,0.085,1.693,0.085
			c16.339,0.762,22.942,9.989,22.942,18.963C54.589,60.42,45.531,69.817,31.901,69.817z"/>
		<path style="fill:#FFFFFF;" d="M80.646,69.986c-13.291,0-20.825-7.958-20.825-17.016c0-7.958,4.487-12.952,10.243-15.915
			c-5.163-3.217-8.381-7.281-8.381-13.46c0-9.905,8.975-16.762,19.217-16.762c10.498,0,19.218,5.164,19.218,15.408
			c0,5.587-2.878,10.328-8.466,13.714c5.502,2.624,10.328,7.703,10.328,15.576C101.98,62.875,92.922,69.986,80.646,69.986z
			 M79.631,41.203c-3.894,1.524-7.788,5.757-7.788,10.413c0,4.91,3.217,9.566,8.974,9.566c5.672,0,8.805-3.979,8.805-8.72
			C89.621,47.045,84.711,43.743,79.631,41.203z M81.07,15.468c-4.656,0-7.619,2.878-7.619,7.026c0,4.91,4.91,7.958,8.72,9.566
			c3.132-1.439,6.519-5.333,6.519-9.058C88.689,18.854,85.98,15.468,81.07,15.468z"/>
	</g>
</g>
</svg>
