<?xml version="1.0" encoding="iso-8859-1"?>
<!-- Generator: Adobe Illustrator 14.0.0, SVG Export Plug-In . SVG Version: 6.00 Build 43363)  -->
<!DOCTYPE svg PUBLIC "-//W3C//DTD SVG 1.1//EN" "http://www.w3.org/Graphics/SVG/1.1/DTD/svg11.dtd">
<svg version="1.1" id="Calque_1" xmlns="http://www.w3.org/2000/svg" xmlns:xlink="http://www.w3.org/1999/xlink" x="0px" y="0px"
	 width="120px" height="77px" viewBox="0 0 120 77" style="enable-background:new 0 0 120 77;" xml:space="preserve">
<g>
	<defs>
		<rect id="SVGID_1_" width="120" height="77"/>
	</defs>
	<clipPath id="SVGID_2_">
		<use xlink:href="#SVGID_1_"  style="overflow:visible;"/>
	</clipPath>
	<g style="clip-path:url(#SVGID_2_);">
		<rect style="fill-rule:evenodd;clip-rule:evenodd;fill:#82C8E6;" width="119.991" height="76.997"/>
		<polygon style="fill:#006AB1;stroke:#FFFFFF;stroke-width:0.2535;" points="1.766,25.055 4.429,22.555 7.159,25.055 		"/>
		<polygon style="fill:#006AB1;stroke:#FFFFFF;stroke-width:0.2535;" points="1.867,33.484 4.544,35.886 6.963,33.491 		"/>
		<polygon style="fill:#82C8E6;" points="0.036,50.556 39.854,40.466 63.41,36.942 90.352,36.589 110.61,40.23 119.991,41.993 
			119.991,0 0,0 		"/>
		<path style="fill:#FFFFFF;" d="M32.466,29.77c0.404-0.404,1.035-1.036,1.265-1.265c0.23-0.231,1.26-0.922,1.26-0.922l1.207-0.916
			c0,0,0.173,0.571,0.691,0.571c0.517,0,1.265-0.231,1.265-0.231s-0.117-0.057,0.573,0.346c0.684,0.402,0.858,0.115,1.146-0.058
			s0.573-0.628,0.573-0.628s-0.057,0.34,0.747,0.455c0.805,0.116,1.149-0.287,1.149-0.287s0.805,0,1.035,0.057
			c0.229,0.059,0.798,0.115,1.087,0.115c0.287,0,0.688-0.282,0.688-0.282l-0.172-0.576l-0.229-0.058l0.747-0.344
			c0,0,0.402-0.173,0.23-0.229c-0.172-0.058-0.805-0.231-0.805-0.231l0.287-0.633L44.12,24.48c0,0-0.629,0.173-0.916,0.173
			c-0.288,0-1.379-0.173-1.608-0.057c-0.23,0.114-0.921,0.173-0.921,0.173s-0.861-0.058-1.033,0
			c-0.173,0.057-0.973-0.289-0.973-0.289s-0.403,0-0.804,0.059c-0.403,0.058-0.805,0.172-0.805,0.172l-1.265-0.575l-0.863-0.403
			l-0.631-0.689c0,0-0.628-0.174-0.858-0.059c-0.229,0.114-1.206,0.231-1.206,0.231s-0.23-0.461-0.46-0.403
			c-0.229,0.057-1.322,0.461-1.724,0.461c-0.403,0-1.088-0.23-1.318-0.175c-0.229,0.059-1.148,0.691-1.437,0.691
			s-0.632-0.459-1.206-0.691c-0.574-0.229-1.15-0.344-1.437-0.286c-0.285,0.057-1.203,0.288-1.433,0.345
			c-0.23,0.059-1.437-0.173-1.437-0.173s-0.402-0.115-0.46-0.345s-0.46-0.801-0.46-0.801s-0.517,0-0.805,0s-1.087-0.172-1.087-0.172
			s-0.46-0.115-0.748,0.172c-0.286,0.284-0.86,0.456-0.86,0.456s-2.587,0.748-3.042,1.093c-0.459,0.345-0.517,0.402-0.058,0.46
			c0.455,0.058,0.972,0.231,1.087,0.575c0.114,0.347,0.403,0.519,0.689,0.461c0.288-0.058,0.633-0.517,0.633-0.517l0.69-0.462
			c0,0,0.459,0.518,0.688,0.691c0.23,0.173,0.806,0.402,1.093,0.402s0.973,0,0.973,0l0.287,0.114c0,0-0.806-0.114-0.748,0.347
			c0.058,0.459,0.632,0.459,0.632,0.459s1.035,0.115,1.266,0.172c0.229,0.058,1.264,0.175,1.264,0.175h0.919
			c0,0,0.576-0.576,0.743-0.461c0.173,0.114,0.114,0.633,0.114,0.633s-1.028,0.513-1.374,0.513c-0.344,0-1.551,0.172-1.896,0.345
			s-0.977,0.46-1.322,0.46c-0.345,0-1.029-0.114-1.201,0c-0.172,0.116-0.69,0.289-0.862,0.461c-0.173,0.174-0.46,0.69,0,0.69
			s0.978-0.229,0.978-0.229l0.799,0.172c0,0,0.403-0.057,0.574,0c0.173,0.058,0.519,0.058,0.747,0.058
			c0.23,0,1.035-0.461,1.035-0.461s0.459-0.287,0.689-0.287c0.229,0,0.805,0.115,0.805,0.115l0.058,0.46c0,0-0.173,0.69-0.345,0.806
			s-0.401,0.23-0.861,0.23c-0.461,0-0.805-0.288-1.209,0c-0.4,0.287-0.746-0.23-0.4,0.287c0.345,0.519,1.264,0.346,1.264,0.346
			l1.437-0.174l1.202-0.114l1.149-0.575l0.92-0.288l1.321-0.688l0.862-0.173l0.741-0.749c0,0,0.347-0.575,0.806-0.749
			c0.459-0.167,0.863-0.225,1.265-0.513s0.517-1.322,0.805-1.266c0.288,0.059,0.575,0.347,0.747,0.576
			c0.173,0.229,0.173,0.345,0.46,0.345s0.342-0.229,0.685,0c0.345,0.231,0.402,0.231,0.402,0.461s-0.173,0.743-0.459,0.857
			c-0.286,0.115-1.088,0.806-1.088,0.806l-0.804,0.748L32.466,29.77z"/>
		<path style="fill:#FFFFFF;" d="M31.835,44.306c0,0,0.229-8.557,0.287-8.96c0.057-0.402,0.403-7.188,0.403-7.188l0.054-1.327
			l0.291-7.119l-2.128,0.113L30.8,22.18l-0.287,8.166L30.168,44.25L31.835,44.306z"/>
		<path style="fill:#FFFFFF;" d="M34.186,25.747l-1.606,1.084c0,0,0.75-0.165,1.095-0.279c0.346-0.114,1.489,0.058,1.489,0.058
			l0.461-0.461l-0.921-0.862L34.186,25.747z"/>
		<path style="fill:#FFFFFF;" d="M30.283,11.089c0,0-0.633,0.634-1.374,0.806c-0.748,0.172-1.494,0.172-1.898,0.229
			c-0.4,0.054-0.688,0.169-0.517,0.398c0.173,0.23,0.921,0.806,1.093,0.863s1.438,0.172,1.438,0.69s0.339,0.863-0.807,0.863
			c-1.148,0-2.413,0-3.16-0.058c-0.741-0.058-2.006-0.519-2.352-0.519c-0.345,0-0.689,0.058-0.574,0.691
			c0.114,0.633,0.345,1.208,1.494,1.379c1.145,0.174,1.547,0.23,2.179,0.116c0.584-0.105,1.167-0.114,1.615-0.205
			c0.037-0.008,0.074-0.016,0.109-0.024c0.459-0.116,1.206-0.116,1.495-0.461c0.281-0.344,1.316-0.69,1.488-0.633
			c0.173,0.058,0.576,0.747,0.576,0.747s-1.151,0.289-1.323,0.347c-0.173,0.057-1.144-0.347-1.317-0.347
			c-0.171,0-1.666,1.205-1.838,1.32c-0.173,0.114-0.403,0.403-1.036,0.403c-0.632,0-2.121-0.059-2.121-0.059
			s-1.379,0.402-1.608,0.346c-0.229-0.058-2.242-0.175-2.582-0.115c-0.344,0.058-0.401,0.402-1.035,0.402
			c-0.631,0-1.666,0.805-1.723,1.15s0.862,0.576,0.862,0.576s0.229,0.113,0.631,0.057c0.403-0.057,0.747-0.057,0.978,0
			s0.346,0.115,0.799,0.172c0.461,0.059,2.53,0.116,2.53,0.116s0.518-0.173,0.633,0.229c0.114,0.404,0.573,0.634,0.86,0.517
			c0.288-0.112,0.629-0.401,0.629-0.401l0.631,0.115l0.806-0.173c0,0,0.172-0.519,0.287-0.345c0.114,0.173,0.344-0.174,0.344-0.174
			s0.116-0.862,0.347-1.035c0.229-0.172,0.746-0.057,1.033,0c0.287,0.058,0.519,0.173,0.461,0.346
			c-0.058,0.171,0.229,0.748,0.229,0.748s0.171-0.172,0.345,0.057c0.172,0.231,0.287,0.403,0.287,0.633s0.454,0.519,0.454,0.519
			s0.346,0.058,0.69,0c0.345-0.057,0.287-0.289,0.575-0.289c0.286,0,0.919,0.06,0.919,0.06s0.23,0,0.69,0
			c0.459,0,0.229-0.06,0.977-0.06c0.741,0,0.857-0.057,1.029-0.057s0.517,0,0.978,0c0.459,0,1.092-0.633,1.437-0.517
			c0.345,0.114,1.379,0.461,1.724,0.517c0.342,0.057,0.8,0.174,1.259,0.174c0.461,0,1.094,0.229,1.495-0.117
			c0.402-0.344,0.805-0.631,0.805-0.631s-0.345-0.46-0.632-0.575c-0.287-0.116-0.632-0.461-1.207-0.576
			c-0.574-0.114-0.861-0.345-1.604-0.402c-0.747-0.058-1.552-0.231-0.919-0.402c0.632-0.174,1.431-0.116,1.949-0.174
			c0.517-0.057,0.918-0.287,0.918-0.287s0.231-0.229-0.344-0.461c-0.574-0.229-0.346-0.229-1.034-0.459
			c-0.686-0.227-0.57-0.284-0.972-0.457c-0.404-0.171-0.229-0.23-1.035-0.23s-1.206,0.06-1.15-0.113
			c0.059-0.173,0.519-0.461,0.691-0.518c0.172-0.058,0.344-0.231,1.033-0.287c0.689-0.058,0.633-0.058,1.034-0.058
			c0.398,0,0.743,0,1.03,0s0.229,0,0.978,0c0.746,0,0.632,0,1.378,0c0.748,0,0.978,0.112,1.035-0.231
			c0.057-0.345,0.114-0.748,0.114-0.748l-0.689-0.345c0,0-0.345-0.288-0.4-0.519c-0.06-0.229-0.462-0.633-0.462-0.633
			s-0.172,0-0.574,0c-0.401,0-0.862,0.172-1.092,0.172c-0.23,0-0.401-0.688-0.805-0.345c-0.402,0.345-1.03,0.173-1.03,0.173
			s-0.747,0.115-1.206,0.115s-1.38,0-1.608,0.057c-0.231,0.058-0.519,0.058-0.806,0.231c-0.287,0.172-0.517,0.689-0.517,0.46
			c0-0.23-0.226-0.805,0.517-1.036c0.747-0.229,1.666-0.344,2.013-0.344c0.343,0,0.459,0.114,1.091,0
			c0.633-0.117,1.145-0.456,1.089-0.629c-0.055-0.172-0.514-0.46-1.033-0.517c-0.517-0.059-1.953,0-2.814,0
			c-0.862,0-1.721-0.059-1.721-0.288c0-0.23-0.918-0.346-1.206-0.46c-0.288-0.116-0.288-0.807-1.092-0.519
			c-0.805,0.287-1.149,0.748-1.608,0.519c-0.456-0.231-0.286-0.52-0.456-0.231C28.909,10.628,30.283,11.089,30.283,11.089z"/>
		<path style="fill:#FFFFFF;" d="M34.933,23.732l0.979-0.92l0.402-0.518l-1.035-0.116l0.863-0.628l0.229-0.979
			c0,0,0.69-0.229,0.862-0.229c0.173,0,0.229-0.403,0.402,0c0.172,0.402,0.632,1.209,0.748,1.38
			c0.114,0.172,0.741,0.572,0.741,0.572s1.437-0.572,1.667-0.572s1.782,0.116,1.782,0.116l0.401,0.398l-0.46,0.518
			c0,0-0.574,0.229-0.861,0.229c-0.288,0-1.265,0.058-1.494,0.173c-0.231,0.114-0.173,0.518-0.403,0.575
			c-0.229,0.058-0.689,0.058-0.689,0.058s-0.282-0.115-0.569,0c-0.288,0.115-0.575,0.403-0.862,0.172
			c-0.287-0.229-0.46-0.345-0.632-0.459c-0.172-0.115-0.575-0.519-0.805-0.404c-0.23,0.115-0.346,0.173-0.518,0.462
			c-0.172,0.286-0.575,0.633-0.575,0.633L34.933,23.732z"/>
		<polyline style="stroke:#000000;stroke-width:0.2535;" points="22.508,29.089 20.117,29.089 20.117,31.372 17.947,31.372 
			17.947,28.979 15.665,28.979 15.665,31.319 13.441,31.319 13.441,29.197 11.16,29.197 11.16,31.535 8.937,31.535 8.937,29.251 
			6.817,29.251 6.817,25.064 2.203,25.064 2.203,33.489 6.872,33.489 6.872,44.306 22.453,44.306 22.508,29.089 		"/>
		<polyline style="stroke:#000000;stroke-width:0.2535;" points="23.159,44.306 23.159,29.469 21.149,27.837 21.149,25.557 
			23.323,25.557 23.323,27.674 25.654,27.674 25.654,25.612 27.828,25.612 27.828,27.674 30.213,27.674 30.213,25.448 
			32.278,25.448 32.278,27.674 30.485,29.359 30.485,44.306 		"/>
		<path style="fill:#FFFFFF;" d="M9.154,35.34h2.006v-1.904c0,0-0.272-0.708-0.978-0.708c-0.702,0-1.028,0.6-1.028,0.6V35.34z"/>
		<path style="fill:#FFFFFF;" d="M25.6,33.87h2.445v-3.204c0,0-0.489-0.871-1.304-0.871c0,0-1.087,0.109-1.142,0.871
			C25.546,31.428,25.6,33.87,25.6,33.87z"/>
		<path style="fill:#FFFFFF;" d="M15.883,53.437V39.74c0,0-0.108-1.142,1.738-1.195c0,0,1.766-0.128,1.759,1.197l-0.02,13.423"/>
		<path style="fill:#FFFFFF;" d="M-0.419,70.251c0,0,40.902-42.07,121.469-25.51v-2.965c0,0-69.886-17.87-121.469,5.557V70.251z"/>
		<path d="M65.906,66.714c-0.526,0.528-1.206,0.793-2.024,0.793h-0.13c-2.153,0-3.963-0.733-5.423-2.199
			c-1.463-1.467-2.194-3.269-2.194-5.423v-9.628c0-0.541-0.19-0.998-0.566-1.374c-0.377-0.378-0.835-0.565-1.373-0.565
			c-0.576,0-1.05,0.192-1.416,0.58v8.691c0,0.818-0.27,1.492-0.809,2.019c-0.538,0.529-1.216,0.794-2.034,0.794
			c-0.819,0-1.486-0.265-2.015-0.794c-0.529-0.526-0.792-1.2-0.792-2.019v-7.332c0-0.541-0.194-0.998-0.582-1.374
			c-0.388-0.378-0.851-0.565-1.389-0.565c-0.56,0-1.027,0.182-1.4,0.55c-0.376,0.365-0.565,0.829-0.565,1.39v7.332
			c0,0.818-0.264,1.492-0.79,2.019c-0.529,0.529-1.202,0.794-2.02,0.794c-0.818,0-1.493-0.265-2.031-0.794
			c-0.538-0.526-0.808-1.2-0.808-2.019v-7.332c0-2.155,0.732-3.963,2.192-5.417c1.464-1.446,3.273-2.173,5.422-2.173
			c1.681,0,3.188,0.496,4.518,1.478c1.313-0.981,2.822-1.478,4.519-1.478c2.153,0,3.957,0.727,5.405,2.173
			c1.454,1.454,2.181,3.262,2.181,5.417v9.628c0,0.562,0.188,1.028,0.566,1.406c0.376,0.378,0.844,0.566,1.404,0.566h0.13
			c0.818,0,1.498,0.269,2.024,0.808c0.539,0.539,0.81,1.209,0.81,2.028S66.445,66.186,65.906,66.714z"/>
		<path d="M65.077,42.407c-0.927,0-1.712-0.322-2.359-0.971c-0.646-0.646-0.968-1.434-0.968-2.359c0-0.927,0.322-1.714,0.968-2.361
			c0.647-0.643,1.433-0.965,2.359-0.965c0.916,0,1.701,0.322,2.349,0.965c0.646,0.647,0.968,1.435,0.968,2.361
			c0,0.926-0.322,1.714-0.968,2.359C66.778,42.085,65.993,42.407,65.077,42.407z M67.102,59.607
			c-0.538,0.529-1.216,0.794-2.024,0.794c-0.819,0-1.491-0.265-2.02-0.794c-0.528-0.526-0.792-1.2-0.792-2.019V45.47
			c0-0.82,0.264-1.493,0.792-2.012c0.528-0.527,1.2-0.791,2.02-0.791c0.829,0,1.514,0.258,2.04,0.775
			c0.528,0.509,0.792,1.187,0.792,2.027v12.119C67.909,58.407,67.641,59.081,67.102,59.607z"/>
		<path d="M77.268,60.401c-2.489,0-4.594-0.857-6.305-2.571c-1.712-1.714-2.569-3.821-2.569-6.312V26.551
			c0-0.798,0.27-1.467,0.808-2.006c0.538-0.537,1.207-0.809,2.003-0.809c0.819,0,1.497,0.263,2.035,0.792
			c0.537,0.529,0.809,1.203,0.809,2.022v24.968c0,0.905,0.312,1.67,0.936,2.284c0.621,0.628,1.38,0.938,2.284,0.938
			s1.675-0.311,2.31-0.938c0.636-0.614,0.954-1.379,0.954-2.284c0-0.907-0.318-1.678-0.954-2.313
			c-0.635-0.635-1.405-0.953-2.31-0.953c-0.817,0-1.491-0.264-2.009-0.794c-0.528-0.528-0.792-1.201-0.792-2.021
			c0-0.818,0.264-1.499,0.792-2.027c0.518-0.54,1.191-0.808,2.009-0.808c2.52,0,4.635,0.855,6.349,2.56
			c1.711,1.714,2.558,3.834,2.558,6.356c0,2.49-0.852,4.598-2.574,6.312C81.876,59.544,79.766,60.401,77.268,60.401z"/>
		<path d="M94.25,60.401c-2.175,0-3.99-0.729-5.442-2.183c-1.455-1.455-2.181-3.272-2.181-5.441v-7.243
			c0-0.819,0.263-1.498,0.791-2.026c0.527-0.54,1.199-0.81,2.019-0.81c0.818,0,1.496,0.27,2.035,0.81
			c0.538,0.528,0.807,1.207,0.807,2.026v7.243c0,0.563,0.19,1.021,0.566,1.397c0.376,0.378,0.845,0.566,1.405,0.566
			c0.56,0,1.013-0.188,1.379-0.566c0.365-0.376,0.551-0.835,0.551-1.397V45.47c0-0.82,0.267-1.493,0.808-2.012
			c0.538-0.527,1.215-0.791,2.034-0.791c0.817,0,1.491,0.264,2.019,0.791c0.528,0.519,0.791,1.191,0.791,2.012v7.308
			c0,2.147-0.726,3.958-2.181,5.425C98.198,59.669,96.395,60.401,94.25,60.401z"/>
		<path d="M113.109,48.317c-0.365,0-0.678,0.128-0.937,0.386c-0.258,0.26-0.388,0.571-0.388,0.938
			c-0.021,2.761-0.055,4.293-0.097,4.616c-0.238,1.618-0.894,2.975-1.972,4.075c-1.335,1.356-2.982,2.037-4.933,2.037
			c-0.818,0-1.49-0.264-2.019-0.792s-0.792-1.202-0.792-2.022c0-0.841,0.27-1.523,0.808-2.054c0.538-0.526,1.228-0.792,2.067-0.792
			c0.831,0,1.25-0.441,1.25-1.315c0,0.213,0.012-0.118,0.033-1.004v-0.97v-1.779c0-1.981,0.667-3.642,2.004-4.979
			c1.334-1.328,2.991-1.995,4.974-1.995c0.818,0,1.495,0.264,2.025,0.791c0.538,0.519,0.809,1.191,0.809,2.012
			c0,0.798-0.276,1.472-0.824,2.021C114.578,48.041,113.905,48.317,113.109,48.317z"/>
		<g>
			<path d="M69.642,66.674h-0.55l-1.333-3.77h0.56l0.773,2.257c0.029,0.087,0.056,0.176,0.086,0.267
				c0.027,0.09,0.055,0.178,0.08,0.264c0.024,0.085,0.046,0.165,0.066,0.237c0.02,0.073,0.037,0.137,0.051,0.189h0.01
				c0.029-0.093,0.067-0.225,0.117-0.398c0.05-0.171,0.106-0.354,0.172-0.547l0.789-2.269h0.522L69.642,66.674z"/>
			<path d="M71.391,66.663v-3.759h0.527v3.759H71.391z"/>
			<path d="M72.733,66.663v-3.759h0.528v3.305h1.675v0.454H72.733z"/>
			<path d="M75.357,66.663v-3.759h0.519v3.305h1.675v0.454H75.357z"/>
			<path d="M77.973,66.663v-3.759h2.086v0.451h-1.558v1.091h1.503v0.439h-1.503v1.323h1.637v0.454H77.973z"/>
			<path d="M85.241,64.693c0,0.391-0.062,0.715-0.185,0.968c-0.122,0.256-0.287,0.457-0.493,0.604
				c-0.207,0.147-0.444,0.252-0.716,0.311c-0.27,0.059-0.552,0.088-0.847,0.088h-0.934v-3.759h0.955c0.156,0,0.318,0.006,0.487,0.02
				c0.169,0.016,0.336,0.045,0.501,0.09c0.166,0.043,0.322,0.106,0.47,0.186c0.148,0.08,0.277,0.182,0.393,0.313
				c0.114,0.132,0.203,0.295,0.27,0.489C85.207,64.197,85.241,64.427,85.241,64.693z M84.697,64.726c0-0.203-0.025-0.38-0.075-0.528
				c-0.05-0.15-0.115-0.276-0.196-0.381c-0.083-0.103-0.178-0.186-0.288-0.247c-0.109-0.062-0.225-0.11-0.342-0.145
				c-0.12-0.031-0.241-0.052-0.362-0.063c-0.123-0.011-0.238-0.016-0.349-0.016h-0.49v2.879h0.501c0.21,0,0.41-0.022,0.604-0.067
				c0.193-0.044,0.363-0.124,0.511-0.237c0.146-0.114,0.266-0.268,0.354-0.46C84.652,65.27,84.697,65.024,84.697,64.726z"/>
			<path d="M85.779,66.663v-3.759h2.086v0.451h-1.558v1.091h1.505v0.439h-1.505v1.323h1.638v0.454H85.779z"/>
			<path d="M92.5,66.39c-0.137,0.108-0.301,0.196-0.494,0.263c-0.193,0.067-0.391,0.102-0.589,0.102
				c-0.284,0-0.537-0.051-0.757-0.152c-0.221-0.102-0.408-0.24-0.561-0.416c-0.153-0.176-0.268-0.382-0.346-0.615
				c-0.079-0.231-0.119-0.483-0.119-0.75c0-0.248,0.035-0.493,0.106-0.736c0.071-0.241,0.181-0.459,0.327-0.651
				c0.146-0.182,0.328-0.336,0.552-0.454c0.222-0.118,0.486-0.177,0.792-0.177c0.447,0,0.809,0.116,1.082,0.348l-0.214,0.418
				c-0.109-0.093-0.233-0.167-0.37-0.217c-0.138-0.057-0.295-0.084-0.473-0.084c-0.224,0-0.415,0.046-0.576,0.131
				c-0.159,0.091-0.29,0.213-0.391,0.362c-0.102,0.148-0.176,0.316-0.222,0.5c-0.046,0.186-0.07,0.368-0.07,0.551
				c0,0.21,0.032,0.403,0.094,0.586c0.063,0.178,0.149,0.333,0.265,0.466c0.114,0.132,0.249,0.235,0.407,0.312
				c0.159,0.077,0.335,0.115,0.531,0.115c0.171,0,0.328-0.029,0.472-0.088c0.146-0.059,0.267-0.132,0.371-0.222L92.5,66.39z"/>
			<path d="M95.443,66.663v-1.772h-1.866v1.772h-0.528v-3.759h0.528v1.532h1.866v-1.532h0.528v3.759H95.443z"/>
			<path d="M99.064,66.663l-0.341-0.961h-1.509l-0.331,0.961h-0.522l1.338-3.77h0.571l1.354,3.77H99.064z M98.451,62.694
				l-0.479-0.409l-0.464,0.409h-0.41l0.629-0.72h0.501l0.63,0.72H98.451z M98.163,64.059c-0.021-0.058-0.042-0.119-0.062-0.187
				c-0.019-0.065-0.036-0.127-0.052-0.186s-0.032-0.114-0.046-0.165s-0.023-0.094-0.026-0.124h-0.017
				c-0.006,0.03-0.017,0.071-0.029,0.121s-0.026,0.105-0.042,0.166c-0.017,0.06-0.036,0.122-0.056,0.188
				c-0.021,0.067-0.044,0.13-0.065,0.191l-0.409,1.218h1.225L98.163,64.059z"/>
			<path d="M100.74,63.355v3.308h-0.529v-3.308h-1.226v-0.451h2.986v0.451H100.74z"/>
			<path d="M102.398,66.663v-3.759h0.527v3.759H102.398z"/>
			<path d="M103.741,66.663v-3.759h0.528v3.305h1.665v0.454H103.741z"/>
			<path d="M106.355,66.663v-3.759h0.527v3.305h1.676v0.454H106.355z"/>
			<path d="M111.988,64.772c0,0.359-0.052,0.667-0.152,0.919c-0.103,0.253-0.234,0.458-0.396,0.615
				c-0.161,0.16-0.343,0.275-0.544,0.348c-0.201,0.073-0.4,0.109-0.6,0.109c-0.255,0-0.488-0.044-0.695-0.133
				c-0.208-0.089-0.387-0.219-0.533-0.388c-0.147-0.168-0.262-0.376-0.342-0.624c-0.079-0.247-0.121-0.53-0.121-0.847
				c0-0.36,0.052-0.665,0.152-0.918c0.102-0.253,0.232-0.457,0.396-0.605c0.162-0.158,0.343-0.274,0.543-0.349
				c0.202-0.072,0.401-0.109,0.601-0.109c0.256,0,0.488,0.045,0.695,0.133c0.208,0.091,0.386,0.218,0.533,0.388
				c0.147,0.16,0.263,0.369,0.342,0.615C111.946,64.174,111.988,64.456,111.988,64.772z M111.443,64.772
				c0-0.195-0.02-0.386-0.061-0.569c-0.041-0.188-0.108-0.351-0.2-0.492c-0.093-0.143-0.212-0.256-0.358-0.34
				c-0.146-0.083-0.321-0.126-0.527-0.126c-0.211,0-0.388,0.043-0.533,0.123c-0.146,0.081-0.265,0.195-0.354,0.34
				c-0.091,0.145-0.156,0.308-0.198,0.495c-0.041,0.184-0.061,0.374-0.061,0.569c0,0.196,0.02,0.386,0.061,0.572
				c0.042,0.185,0.107,0.349,0.198,0.49c0.09,0.143,0.209,0.258,0.354,0.345s0.322,0.131,0.533,0.131s0.387-0.042,0.533-0.127
				c0.146-0.087,0.265-0.201,0.354-0.347c0.091-0.144,0.157-0.308,0.198-0.49C111.424,65.162,111.443,64.973,111.443,64.772z"/>
			<path d="M115.04,66.663l-1.629-2.323c-0.121-0.167-0.208-0.3-0.262-0.397s-0.091-0.169-0.11-0.217h-0.012v2.938h-0.491v-3.759
				h0.503l1.565,2.265c0.108,0.174,0.204,0.32,0.277,0.439c0.072,0.118,0.119,0.207,0.14,0.265h0.019v-2.969h0.484v3.759H115.04z"/>
		</g>
		<path d="M36.065,59.378c-0.537,0.525-1.212,0.788-2.021,0.788c-0.813,0-1.482-0.263-2.009-0.788
			c-0.524-0.524-0.787-1.195-0.787-2.011v-6.009c0-0.901-0.316-1.662-0.948-2.284c-0.632-0.623-1.393-0.934-2.293-0.934
			c-0.901,0-1.661,0.311-2.282,0.934c-0.622,0.622-0.933,1.383-0.933,2.284c0,0.9,0.311,1.669,0.933,2.29
			c0.621,0.635,1.381,0.95,2.282,0.95c0.813,0,1.482,0.263,2.02,0.789c0.536,0.524,0.803,1.195,0.803,2.011
			s-0.267,1.491-0.803,2.028c-0.537,0.535-1.207,0.804-2.02,0.804c-2.508,0-4.603-0.853-6.297-2.559
			c-1.692-1.705-2.534-3.813-2.534-6.313c0-2.509,0.842-4.611,2.534-6.307c1.694-1.685,3.789-2.531,6.297-2.531
			c2.502,0,4.607,0.847,6.307,2.531c1.703,1.695,2.555,3.798,2.555,6.307v6.009C36.868,58.183,36.6,58.854,36.065,59.378z"/>
	</g>
</g>
</svg>
