<?xml version="1.0" encoding="iso-8859-1"?>
<!-- Generator: Adobe Illustrator 14.0.0, SVG Export Plug-In . SVG Version: 6.00 Build 43363)  -->
<!DOCTYPE svg PUBLIC "-//W3C//DTD SVG 1.1//EN" "http://www.w3.org/Graphics/SVG/1.1/DTD/svg11.dtd">
<svg version="1.1" id="Calque_1" xmlns="http://www.w3.org/2000/svg" xmlns:xlink="http://www.w3.org/1999/xlink" x="0px" y="0px"
	 width="120px" height="77px" viewBox="0 0 120 77" style="enable-background:new 0 0 120 77;" xml:space="preserve">
<g>
	<rect style="fill-rule:evenodd;clip-rule:evenodd;fill:#82DC73;" width="120" height="77"/>
	<g>
		<path d="M41.797,68.378H29.522L14.961,23.172h13.122l5.841,24.042c0.931,3.81,1.947,8.974,2.37,10.751h0.169
			c0.339-1.946,1.524-7.28,2.455-10.836l6.265-23.957h11.174L41.797,68.378z"/>
		<path d="M82.771,69.817c-16.338,0-22.18-11.344-22.18-27.175c0-20.741,9.735-35.64,28.867-35.64c3.387,0,6.434,0.423,8.975,1.016
			L96.57,18.177c-1.608-0.677-4.74-1.439-8.211-1.439c-8.381,0-14.477,6.688-15.323,18.709c2.032-1.778,5.926-4.063,12.36-4.063
			c9.904,0,17.861,6.518,17.861,17.692C103.258,61.013,95.301,69.817,82.771,69.817z M81.586,40.78
			c-3.809,0-6.856,1.439-8.042,3.302c-0.677,1.016-0.677,3.386-0.677,5.164c0,5.672,3.301,11.174,9.396,11.174
			c5.926,0,8.974-4.825,8.974-9.989C91.237,44.844,87.512,40.78,81.586,40.78z"/>
	</g>
</g>
</svg>
