<?xml version="1.0" encoding="iso-8859-1"?>
<!-- Generator: Adobe Illustrator 14.0.0, SVG Export Plug-In . SVG Version: 6.00 Build 43363)  -->
<!DOCTYPE svg PUBLIC "-//W3C//DTD SVG 1.1//EN" "http://www.w3.org/Graphics/SVG/1.1/DTD/svg11.dtd">
<svg version="1.1" id="Calque_1" xmlns="http://www.w3.org/2000/svg" xmlns:xlink="http://www.w3.org/1999/xlink" x="0px" y="0px"
	 width="120px" height="77px" viewBox="0 0 120 77" style="enable-background:new 0 0 120 77;" xml:space="preserve">
<g>
	<rect style="fill-rule:evenodd;clip-rule:evenodd;fill:#0055C8;" width="120" height="77"/>
</g>
<g>
	<g>
		<path style="fill-rule:evenodd;clip-rule:evenodd;fill:#FFFFFF;" d="M89.797,26.383c0.375-0.078,1.076-0.078,1.453,0
			C90.766,26.383,90.281,26.383,89.797,26.383z"/>
		<path style="fill-rule:evenodd;clip-rule:evenodd;fill:#FFFFFF;" d="M40.557,26.383c0.016,0,0.031,0,0.047,0
			c-0.031,1.059,0.063,2.242-0.047,3.221c0-0.016,0-0.031,0-0.047C40.557,28.499,40.557,27.441,40.557,26.383z"/>
		<path style="fill-rule:evenodd;clip-rule:evenodd;fill:#FFFFFF;" d="M79.49,26.383c0.016,0,0.031,0,0.047,0
			c0,0.822,0,1.643,0,2.463C79.428,28.119,79.521,27.189,79.49,26.383z"/>
		<path style="fill-rule:evenodd;clip-rule:evenodd;fill:#FFFFFF;" d="M89.797,26.432c0,0.758,0,1.515,0,2.272
			C89.719,28.057,89.719,27.078,89.797,26.432z"/>
		<path style="fill-rule:evenodd;clip-rule:evenodd;fill:#BBB62D;" d="M20.458,37.086c0.585,0.309,1.439,0.346,2.249,0.427
			c-0.76-0.526-1.039-1.54-1.968-1.895c-0.039-0.151-0.04-0.099,0.047-0.189c-0.804-0.829-1.423-1.845-2.108-2.794
			c0.021-0.447-0.413-0.634-0.281-1.043c-0.246-0.455-0.336-1.006-0.562-1.373c0.017-0.667,0.016-1.65,0.469-2.131
			c0.878,0.313,0.868,1.522,2.014,1.563c0.146,0.2,0.234,0.459,0.328,0.711c1.046,0.584,1.818,1.446,2.905,1.989
			c0.435,0.571,1.069,0.94,1.64,1.374c-0.005,0.699,0.073,1.299-0.234,1.752c0.057,0.957-0.181,1.616-0.141,2.557
			c0.086,0.229,0.032,0.6,0.047,0.9c-0.063,0-0.125,0-0.188,0c-0.02,0.113,0.085,0.103,0.047,0.236
			c-0.39,0.252-0.58,0.709-0.984,0.947c-0.258,0.623-0.824,0.936-1.078,1.563c-0.016,0-0.031,0-0.047,0
			c-0.142-0.093-0.356-0.114-0.609-0.095c-1.466-0.065-2.558-0.204-3.889,0c0.136,0.009,0.213-0.285,0.093-0.379
			c-0.979-0.194-1.716-0.634-2.624-0.899c0-0.031,0-0.063,0-0.096c-0.218,0-0.437,0-0.656,0c-0.394-0.484-1.077-0.679-1.687-0.946
			c0-0.079,0-0.158,0-0.237c-0.421-0.174-0.702-0.49-1.218-0.568c-0.087-0.116-0.146-0.262-0.234-0.379
			c-0.663-0.04-0.705-0.707-1.358-0.758c0-0.078,0-0.157,0-0.236c-0.409-0.096-0.6-0.485-0.797-0.662
			c-0.185-0.146-0.332-0.328-0.562-0.427c0.011-0.233-0.342-0.097-0.422-0.237c-0.022-0.213-0.131-0.34-0.234-0.473
			c-0.218,0-0.437,0-0.656,0c0-0.174,0-0.348,0-0.521c1.788-0.076,3.306,0.503,4.966,0.711c0.205-0.032,0.375,0.218,0.563,0.047
			c0.143,0.034,0.171-0.049,0.281-0.047c0.554,0.346,1.25,0.559,2.061,0.521c0.349,0.358,1.121,0.288,1.687,0.427
			c0.107,0.128,0.345,0.125,0.516,0.188c0.539-0.07,0.784,0.155,1.171,0.237c0.188,0.109,0.577,0.016,0.843,0.047
			c0.031,0,0.063,0,0.093,0C20.058,37.017,20.177,37.133,20.458,37.086z"/>
		<path style="fill-rule:evenodd;clip-rule:evenodd;fill:#FFFFFF;" d="M47.771,28.752c0.065-0.109,0.326-0.018,0.469-0.048
			C48.176,28.813,47.914,28.722,47.771,28.752z"/>
		<path style="fill-rule:evenodd;clip-rule:evenodd;fill:#FFFFFF;" d="M48.85,28.752c-0.143-0.03-0.404,0.061-0.469-0.048
			C48.523,28.734,48.785,28.643,48.85,28.752z"/>
		<path style="fill-rule:evenodd;clip-rule:evenodd;fill:#FFFFFF;" d="M70.588,28.752c0.236-0.08,0.797-0.08,1.031,0
			C71.275,28.752,70.932,28.752,70.588,28.752z"/>
		<path style="fill-rule:evenodd;clip-rule:evenodd;fill:#FFFFFF;" d="M62.436,28.799c0.082-0.078,0.482-0.078,0.563,0
			C62.811,28.799,62.623,28.799,62.436,28.799z"/>
		<path style="fill-rule:evenodd;clip-rule:evenodd;fill:#FFFFFF;" d="M60.235,28.894c0-0.017,0-0.032,0-0.048
			c0.109,0.285,0.016,0.773,0.047,1.137C60.178,29.897,60.262,29.214,60.235,28.894z"/>
		<path style="fill-rule:evenodd;clip-rule:evenodd;fill:#FFFFFF;" d="M79.537,28.846c0.857,0.031,1.842-0.063,2.623,0.048
			C81.301,28.861,80.318,28.957,79.537,28.846z"/>
		<path style="fill-rule:evenodd;clip-rule:evenodd;fill:#FFFFFF;" d="M83.801,29.225c0.406-0.11,1.014-0.016,1.498-0.047
			c0,1.815,0,3.631,0,5.445c-0.109-1.705-0.016-3.614-0.047-5.398c-0.469,0-0.938,0-1.406,0
			C83.832,29.225,83.816,29.225,83.801,29.225z"/>
		<path style="fill-rule:evenodd;clip-rule:evenodd;fill:#FFFFFF;" d="M83.801,29.225c0.016,0,0.031,0,0.045,0
			c0,2.084,0,4.168,0,6.252C83.738,33.486,83.832,31.293,83.801,29.225z"/>
		<path style="fill-rule:evenodd;clip-rule:evenodd;fill:#FFFFFF;" d="M40.557,29.557c0,0.016,0,0.031,0,0.047
			c0,0.031,0,0.063,0,0.095c0,0.284,0,0.569,0,0.853c0,0.031,0,0.063,0,0.095c0,0.032,0,0.063,0,0.095
			c-0.413,0.317-0.946,0.516-1.124,0.947c-0.543,0.082-0.923,0.33-1.078,0.805c-0.101,0.04-0.16,0.123-0.328,0.095
			c-0.32,0.813-1.595,0.661-1.733,1.658c-0.23,0.024-0.275,0.194-0.516,0.095c-0.137,0.051-0.152,0.225-0.14,0.426
			c-0.281,0.017-0.294,0.303-0.563,0.332c-0.2,0.634-1.086,0.574-1.312,1.184c-0.472,0.075-0.619,0.479-1.077,0.568
			c-0.069,0.135-0.232,0.176-0.281,0.332c-0.962,0.337-1.84,0.76-2.717,1.184c-0.016,0-0.031,0-0.047,0
			c-0.537-0.578-0.87-1.363-1.546-1.801c0.051-0.264,0.203-0.426,0.234-0.71c0,0.048,0,0.095,0,0.143
			C32.247,33.596,36.113,31.43,40.557,29.557z"/>
		<path style="fill-rule:evenodd;clip-rule:evenodd;fill:#FFFFFF;" d="M40.557,29.698c0.078,0.175,0.078,0.678,0,0.853
			C40.557,30.268,40.557,29.982,40.557,29.698z"/>
		<path style="fill-rule:evenodd;clip-rule:evenodd;fill:#C4B3CF;" d="M29.079,29.793c0.029,0.16-0.061,0.44,0.046,0.521
			C28.984,30.484,29,29.846,29.079,29.793z"/>
		<path style="fill-rule:evenodd;clip-rule:evenodd;fill:#FFFFFF;" d="M88.156,30.219c0.531,0.032,1.188-0.063,1.641,0.049
			C89.266,30.236,88.611,30.33,88.156,30.219z"/>
		<path style="fill-rule:evenodd;clip-rule:evenodd;fill:#FFFFFF;" d="M79.537,30.268c0,1.42,0,2.84,0,4.262
			C79.459,33.219,79.459,31.576,79.537,30.268z"/>
		<path style="fill-rule:evenodd;clip-rule:evenodd;fill:#FFFFFF;" d="M89.797,30.457c0,1.625,0,3.252,0,4.877
			C89.719,33.818,89.719,31.972,89.797,30.457z"/>
		<path style="fill-rule:evenodd;clip-rule:evenodd;fill:#FFFFFF;" d="M40.557,30.646c0.109,1.532,0.016,3.269,0.047,4.878
			c-0.109-1.5-0.016-3.205-0.047-4.783C40.557,30.709,40.557,30.678,40.557,30.646z"/>
		<path style="fill-rule:evenodd;clip-rule:evenodd;fill:#FFFFFF;" d="M60.282,33.725c-0.078-0.302-0.078-0.932,0-1.232
			C60.282,32.902,60.282,33.313,60.282,33.725z"/>
		<path style="fill-rule:evenodd;clip-rule:evenodd;fill:#FFFFFF;" d="M44.352,32.54c-0.029,0.159,0.061,0.44-0.047,0.521
			C44.334,32.901,44.245,32.621,44.352,32.54z"/>
		<path style="fill-rule:evenodd;clip-rule:evenodd;fill:#FFFFFF;" d="M66.09,32.729c0.078,0.144,0.078,0.614,0,0.757
			C66.09,33.234,66.09,32.982,66.09,32.729z"/>
		<path style="fill-rule:evenodd;clip-rule:evenodd;fill:#FFFFFF;" d="M67.121,32.729c0,0.269,0,0.536,0,0.805
			C67.043,33.375,67.043,32.889,67.121,32.729z"/>
		<path style="fill-rule:evenodd;clip-rule:evenodd;fill:#FFFFFF;" d="M64.545,32.824c0.078,0.081,0.078,0.486,0,0.568
			C64.545,33.203,64.545,33.014,64.545,32.824z"/>
		<path style="fill-rule:evenodd;clip-rule:evenodd;fill:#FFFFFF;" d="M44.305,33.203c0.107,0.081,0.018,0.361,0.047,0.521
			C44.245,33.643,44.334,33.362,44.305,33.203z"/>
		<path style="fill-rule:evenodd;clip-rule:evenodd;fill:#FFFFFF;" d="M45.758,33.393c1.951-0.111,4.107-0.016,6.137-0.048
			C49.942,33.455,47.787,33.361,45.758,33.393z"/>
		<path style="fill-rule:evenodd;clip-rule:evenodd;fill:#FFFFFF;" d="M74.055,35.239c0.078,0.38,0.078,1.089,0,1.468
			C74.055,36.218,74.055,35.729,74.055,35.239z"/>
		<path style="fill-rule:evenodd;clip-rule:evenodd;fill:#C4B3CF;" d="M28.469,35.334c-0.029,0.144,0.06,0.408-0.047,0.474
			C28.452,35.664,28.362,35.399,28.469,35.334z"/>
		<path style="fill-rule:evenodd;clip-rule:evenodd;fill:#FFFFFF;" d="M62.717,35.713c-0.111,0.078-0.543,0.078-0.656,0
			C62.279,35.713,62.498,35.713,62.717,35.713z"/>
		<path style="fill-rule:evenodd;clip-rule:evenodd;fill:#C4B3CF;" d="M19.005,36.85c0.266,0.03,0.655-0.063,0.843,0.047
			C19.583,36.865,19.193,36.959,19.005,36.85z"/>
		<path style="fill-rule:evenodd;clip-rule:evenodd;fill:#FFFFFF;" d="M62.998,37.322c-0.08,0.08-0.48,0.08-0.563,0
			C62.623,37.322,62.811,37.322,62.998,37.322z"/>
		<path style="fill-rule:evenodd;clip-rule:evenodd;fill:#FFFFFF;" d="M48.1,37.37c0.328,0,0.656,0,0.984,0
			C48.863,37.449,48.319,37.449,48.1,37.37z"/>
		<path style="fill-rule:evenodd;clip-rule:evenodd;fill:#FFFFFF;" d="M70.869,37.37c0.328,0,0.656,0,0.984,0
			C71.633,37.449,71.088,37.449,70.869,37.37z"/>
		<path style="fill-rule:evenodd;clip-rule:evenodd;fill:#C4B3CF;" d="M31.655,38.791c0.158,0.029,0.435-0.061,0.515,0.047
			C32.013,38.809,31.735,38.898,31.655,38.791z"/>
		<path style="fill-rule:evenodd;clip-rule:evenodd;fill:#C4B3CF;" d="M34.935,39.075c0.235,0.03,0.592-0.062,0.75,0.048
			C35.45,39.092,35.092,39.185,34.935,39.075z"/>
		<path style="fill-rule:evenodd;clip-rule:evenodd;fill:#C4B3CF;" d="M36.387,39.123c0.282,0.03,0.687-0.063,0.891,0.047
			C36.995,39.139,36.591,39.232,36.387,39.123z"/>
		<path style="fill-rule:evenodd;clip-rule:evenodd;fill:#C4B3CF;" d="M37.277,39.406c0.111-0.108,0.42-0.018,0.609-0.047
			C37.775,39.468,37.466,39.376,37.277,39.406z"/>
		<path style="fill-rule:evenodd;clip-rule:evenodd;fill:#C4B3CF;" d="M34.606,40.069c0.158-0.079,0.639-0.079,0.797,0
			C35.138,40.069,34.872,40.069,34.606,40.069z"/>
		<path style="fill-rule:evenodd;clip-rule:evenodd;fill:#C4B3CF;" d="M14.929,40.211c0.219,0,0.438,0,0.656,0
			c0,0.032,0,0.064,0,0.096C15.461,40.18,15.049,40.343,14.929,40.211z"/>
		<path style="fill-rule:evenodd;clip-rule:evenodd;fill:#C4B3CF;" d="M33.154,40.449c0.126-0.109,0.452-0.018,0.656-0.049
			C33.684,40.51,33.358,40.418,33.154,40.449z"/>
		<path style="fill-rule:evenodd;clip-rule:evenodd;fill:#C4B3CF;" d="M31.562,40.496c0.065-0.108,0.326-0.018,0.468-0.047
			C31.965,40.557,31.704,40.466,31.562,40.496z"/>
		<path style="fill-rule:evenodd;clip-rule:evenodd;fill:#C4B3CF;" d="M18.208,41.206c0.12,0.094,0.043,0.388-0.093,0.379
			c-0.13-0.021-0.002-0.149,0.093-0.095C18.208,41.396,18.208,41.301,18.208,41.206z"/>
		<path style="fill-rule:evenodd;clip-rule:evenodd;fill:#FFFFFF;" d="M50.208,41.443c0.081-0.079,0.481-0.079,0.563,0
			C50.583,41.443,50.396,41.443,50.208,41.443z"/>
		<path style="fill-rule:evenodd;clip-rule:evenodd;fill:#DE3073;" d="M26.876,41.585c0.016,0,0.031,0,0.047,0
			c-0.026,0.085-0.024,0.196-0.094,0.237c-0.005-0.059-0.014-0.113-0.094-0.096C26.727,41.623,26.774,41.576,26.876,41.585z"/>
		<path style="fill-rule:evenodd;clip-rule:evenodd;fill:#DE3073;" d="M26.83,41.869c0,0.016,0,0.031,0,0.047
			c-0.12,0.182,0.061,0.344,0.047,0.521c-0.018,0.219-0.214,0.389-0.235,0.615c-0.032,0.355,0.204,0.705,0.047,1.137
			c0.042,0.152-0.153,0.066-0.188,0.143c0.097,0.529,0.131,1.051,0.14,1.515c-0.107,0.112-0.016,0.425-0.046,0.616
			c-0.25,0.666,0.06,1.284,0.046,1.988c-0.228,0.041-0.31-0.064-0.468-0.094c-0.071-0.465-0.271-0.8-0.468-1.137
			c-0.072-1.261-0.378-2.135-0.516-3.6c0-0.016,0-0.031,0-0.047c0.136-0.132,0.358-0.175,0.469-0.332
			c-0.079-0.045-0.138-0.148-0.047-0.236c0.266-0.252,0.402-0.635,0.75-0.805c0.009-0.135-0.307,0.057-0.234-0.143
			C26.302,41.876,26.667,42.109,26.83,41.869z"/>
		<path style="fill-rule:evenodd;clip-rule:evenodd;fill:#FFFFFF;" d="M48.428,42.77c0.031-0.27-0.062-0.662,0.047-0.854
			C48.443,42.186,48.537,42.578,48.428,42.77z"/>
		<path style="fill-rule:evenodd;clip-rule:evenodd;fill:#FFFFFF;" d="M93.779,42.153c0.203-0.079,0.732-0.079,0.938,0
			C94.404,42.153,94.092,42.153,93.779,42.153z"/>
		<path style="fill-rule:evenodd;clip-rule:evenodd;fill:#FFFFFF;" d="M53.769,42.201c0.127-0.079,0.576-0.079,0.703,0
			C54.237,42.201,54.003,42.201,53.769,42.201z"/>
		<path style="fill-rule:evenodd;clip-rule:evenodd;fill:#FFFFFF;" d="M59.016,42.248c0.016,0,0.031,0,0.047,0
			c0.031,0.207-0.061,0.535,0.047,0.662C58.93,43.028,59.051,42.435,59.016,42.248z"/>
		<path style="fill-rule:evenodd;clip-rule:evenodd;fill:#FFFFFF;" d="M60.563,42.296c0.096-0.079,0.511-0.079,0.609,0
			C60.969,42.296,60.766,42.296,60.563,42.296z"/>
		<path style="fill-rule:evenodd;clip-rule:evenodd;fill:#FFFFFF;" d="M64.639,42.296c0.328-0.11,0.857-0.017,1.264-0.048
			c0.016,0,0.031,0,0.047,0C65.605,42.357,65.059,42.264,64.639,42.296z"/>
		<path style="fill-rule:evenodd;clip-rule:evenodd;fill:#FFFFFF;" d="M79.068,42.296c0.096-0.079,0.512-0.079,0.609,0
			C79.475,42.296,79.271,42.296,79.068,42.296z"/>
		<path style="fill-rule:evenodd;clip-rule:evenodd;fill:#FFFFFF;" d="M109.24,42.296c0.096-0.079,0.514-0.079,0.609,0
			C109.646,42.296,109.443,42.296,109.24,42.296z"/>
		<path style="fill-rule:evenodd;clip-rule:evenodd;fill:#FFFFFF;" d="M49.506,42.296c0,0.204,0,0.409,0,0.614
			c0,0.017,0,0.033,0,0.049C49.428,42.846,49.428,42.408,49.506,42.296z"/>
		<path style="fill-rule:evenodd;clip-rule:evenodd;fill:#FFFFFF;" d="M83.238,42.627c0,0.363,0,0.727,0,1.09
			C83.16,43.463,83.16,42.881,83.238,42.627z"/>
		<path style="fill-rule:evenodd;clip-rule:evenodd;fill:#FFFFFF;" d="M47.678,42.959c0.158-0.11,0.515-0.018,0.75-0.049
			C48.271,43.021,47.913,42.928,47.678,42.959z"/>
		<path style="fill-rule:evenodd;clip-rule:evenodd;fill:#FFFFFF;" d="M84.877,43.148c0.111-0.079,0.545-0.079,0.656,0
			C85.314,43.148,85.098,43.148,84.877,43.148z"/>
		<path style="fill-rule:evenodd;clip-rule:evenodd;fill:#FFFFFF;" d="M53.862,43.195c0.065-0.078,0.45-0.078,0.516,0
			C54.207,43.195,54.035,43.195,53.862,43.195z"/>
		<path style="fill-rule:evenodd;clip-rule:evenodd;fill:#FFFFFF;" d="M93.92,43.195c0.08-0.078,0.48-0.078,0.563,0
			C94.295,43.195,94.107,43.195,93.92,43.195z"/>
		<path style="fill-rule:evenodd;clip-rule:evenodd;fill:#FFFFFF;" d="M64.732,43.195c0.391,0.031,0.904-0.063,1.217,0.047
			c-0.016,0-0.031,0-0.047,0C65.527,43.211,65.029,43.305,64.732,43.195z"/>
		<path style="fill-rule:evenodd;clip-rule:evenodd;fill:#FFFFFF;" d="M67.027,43.242c0.594-0.109,1.391-0.016,2.061-0.047
			C68.494,43.305,67.699,43.211,67.027,43.242z"/>
		<path style="fill-rule:evenodd;clip-rule:evenodd;fill:#FFFFFF;" d="M60.375,43.29c0.066-0.079,0.449-0.079,0.516,0
			C60.719,43.29,60.547,43.29,60.375,43.29z"/>
		<path style="fill-rule:evenodd;clip-rule:evenodd;fill:#FFFFFF;" d="M65.902,43.242c0.016,0,0.031,0,0.047,0
			c0,1.279,0,2.558,0,3.836C65.842,45.895,65.934,44.506,65.902,43.242z"/>
		<path style="fill-rule:evenodd;clip-rule:evenodd;fill:#FFFFFF;" d="M67.027,43.242c0,1.073,0,2.146,0,3.221
			C66.949,45.5,66.949,44.205,67.027,43.242z"/>
		<path style="fill-rule:evenodd;clip-rule:evenodd;fill:#FFFFFF;" d="M78.881,43.29c0.051-0.079,0.418-0.079,0.469,0
			C79.193,43.29,79.037,43.29,78.881,43.29z"/>
		<path style="fill-rule:evenodd;clip-rule:evenodd;fill:#FFFFFF;" d="M109.053,43.29c0.066-0.079,0.449-0.079,0.516,0
			C109.396,43.29,109.225,43.29,109.053,43.29z"/>
		<path style="fill-rule:evenodd;clip-rule:evenodd;fill:#FFFFFF;" d="M49.506,43.858c0.266-0.11,0.732-0.017,1.077-0.048
			C50.316,43.92,49.85,43.827,49.506,43.858z"/>
		<path style="fill-rule:evenodd;clip-rule:evenodd;fill:#FFFFFF;" d="M59.063,43.811c-0.031,0.994,0.063,2.115-0.047,3.031
			C59.047,45.847,58.954,44.727,59.063,43.811z"/>
		<path style="fill-rule:evenodd;clip-rule:evenodd;fill:#FFFFFF;" d="M107.787,43.811c-0.031,0.994,0.063,2.115-0.047,3.031
			C107.771,45.847,107.68,44.727,107.787,43.811z"/>
		<path style="fill-rule:evenodd;clip-rule:evenodd;fill:#FFFFFF;" d="M48.428,43.858c0.078,0.805,0.078,1.941,0,2.747
			C48.428,45.689,48.428,44.773,48.428,43.858z"/>
		<path style="fill-rule:evenodd;clip-rule:evenodd;fill:#FFFFFF;" d="M49.506,43.858c-0.031,1.026,0.062,2.178-0.047,3.126
			C49.49,45.957,49.396,44.805,49.506,43.858z"/>
		<path style="fill-rule:evenodd;clip-rule:evenodd;fill:#FFFFFF;" d="M77.521,47.126c0.031-1.074-0.063-2.273,0.047-3.268
			C77.537,44.932,77.631,46.131,77.521,47.126z"/>
		<path style="fill-rule:evenodd;clip-rule:evenodd;fill:#FFFFFF;" d="M87.781,44.095c0.109,0.821,0.018,1.847,0.049,2.747
			C87.721,46.021,87.814,44.994,87.781,44.095z"/>
		<path style="fill-rule:evenodd;clip-rule:evenodd;fill:#FFFFFF;" d="M80.287,44.521c0.107,0.773,0.016,1.752,0.047,2.604
			C80.225,46.352,80.318,45.373,80.287,44.521z"/>
		<path style="fill-rule:evenodd;clip-rule:evenodd;fill:#FFFFFF;" d="M111.535,44.521c0.109,0.584,0.016,1.373,0.049,2.035
			C111.475,45.973,111.568,45.184,111.535,44.521z"/>
		<path style="fill-rule:evenodd;clip-rule:evenodd;fill:#FFFFFF;" d="M61.781,44.568c0.107,0.82,0.014,1.847,0.045,2.747
			C61.719,46.494,61.811,45.469,61.781,44.568z"/>
		<path style="fill-rule:evenodd;clip-rule:evenodd;fill:#FFFFFF;" d="M74.383,44.615c-1.047,0.08-2.42,0.08-3.467,0
			C72.072,44.615,73.227,44.615,74.383,44.615z"/>
		<path style="fill-rule:evenodd;clip-rule:evenodd;fill:#FFFFFF;" d="M69.885,45.752c-0.078-0.158-0.078-0.645,0-0.805
			C69.885,45.216,69.885,45.484,69.885,45.752z"/>
		<path style="fill-rule:evenodd;clip-rule:evenodd;fill:#FFFFFF;" d="M51.379,45.09c0,0.205,0,0.41,0,0.615
			C51.302,45.607,51.302,45.186,51.379,45.09z"/>
		<path style="fill-rule:evenodd;clip-rule:evenodd;fill:#FFFFFF;" d="M52.457,45.705c-0.078-0.098-0.078-0.52,0-0.615
			C52.457,45.295,52.457,45.5,52.457,45.705z"/>
		<path style="fill-rule:evenodd;clip-rule:evenodd;fill:#FFFFFF;" d="M100.057,45.137c0,0.158,0,0.316,0,0.474
			C99.979,45.559,99.979,45.188,100.057,45.137z"/>
		<path style="fill-rule:evenodd;clip-rule:evenodd;fill:#FFFFFF;" d="M86.189,45.279c0.064-0.109,0.326-0.018,0.469-0.047
			C86.594,45.34,86.332,45.249,86.189,45.279z"/>
		<path style="fill-rule:evenodd;clip-rule:evenodd;fill:#FFFFFF;" d="M86.705,45.232c0.078,0.457,0.078,1.246,0,1.703
			C86.705,46.367,86.705,45.8,86.705,45.232z"/>
		<path style="fill-rule:evenodd;clip-rule:evenodd;fill:#FFFFFF;" d="M101.135,45.752c-0.211-0.419,0.643-0.17,0.938-0.236
			c0.391,0,0.781,0,1.17,0c0.781,0,1.563,0,2.344,0c-0.572,0.085-1.346,0.047-2.248,0.047c-0.643,0-1.873-0.197-2.203,0.048
			C101.113,45.627,101.152,45.729,101.135,45.752z"/>
		<path style="fill-rule:evenodd;clip-rule:evenodd;fill:#C4B3CF;" d="M26.642,45.847c-0.029,0.191,0.061,0.504-0.046,0.616
			C26.625,46.271,26.534,45.959,26.642,45.847z"/>
		<path style="fill-rule:evenodd;clip-rule:evenodd;fill:#FFFFFF;" d="M95.373,46.463c0.076,0.051,0.076,0.422,0,0.473
			C95.373,46.779,95.373,46.621,95.373,46.463z"/>
		<path style="fill-rule:evenodd;clip-rule:evenodd;fill:#FFFFFF;" d="M54.378,47.457c-0.05,0.078-0.418,0.078-0.469,0
			C54.066,47.457,54.222,47.457,54.378,47.457z"/>
		<path style="fill-rule:evenodd;clip-rule:evenodd;fill:#FFFFFF;" d="M93.451,47.457c0.143,0.029,0.404-0.061,0.469,0.048
			C93.777,47.475,93.516,47.564,93.451,47.457z"/>
		<path style="fill-rule:evenodd;clip-rule:evenodd;fill:#FFFFFF;" d="M85.252,47.552c-0.08,0.079-0.48,0.079-0.561,0
			C84.877,47.552,85.064,47.552,85.252,47.552z"/>
		<path style="fill-rule:evenodd;clip-rule:evenodd;fill:#FFFFFF;" d="M72.883,48.5c0.066-0.109,0.328-0.02,0.469-0.049
			C73.287,48.56,73.025,48.47,72.883,48.5z"/>
		<path style="fill-rule:evenodd;clip-rule:evenodd;fill:#FFFFFF;" d="M102.729,48.451c0.158,0.03,0.434-0.061,0.514,0.049
			C103.086,48.469,102.809,48.561,102.729,48.451z"/>
		<path style="fill-rule:evenodd;clip-rule:evenodd;fill:#FFFFFF;" d="M53.723,48.5c0.296,0,0.593,0,0.89,0
			C54.424,48.578,53.91,48.578,53.723,48.5z"/>
		<path style="fill-rule:evenodd;clip-rule:evenodd;fill:#FFFFFF;" d="M93.076,48.5c0.359,0,0.719,0,1.078,0
			C93.902,48.578,93.328,48.578,93.076,48.5z"/>
		<path style="fill-rule:evenodd;clip-rule:evenodd;fill:#FFFFFF;" d="M84.363,48.547c0.217,0,0.438,0,0.654,0
			C84.906,48.625,84.475,48.625,84.363,48.547z"/>
		<path style="fill-rule:evenodd;clip-rule:evenodd;fill:#FFFFFF;" d="M28.047,23.59c-0.387-0.524-0.82-1.002-1.406-1.326
			c-0.296,0.375-0.558-0.096-0.89,0c-0.065,0.212,0.099,0.33,0.141,0.521c0.15,0.681,0.006,1.458,0.046,2.132
			c0.017,0.268,0.214,0.531-0.046,0.662c-0.113,0.393-0.19,1.07-0.188,1.422c-0.147,0.392-0.057,0.77-0.094,1.184
			c-0.057,0.635-0.479,1.268-0.141,1.799c-0.062,0.206-0.22,0.314-0.188,0.615c0.307,0.764,0.14,2.102,0.094,2.889
			c-0.083,0.012-0.235-0.047-0.188,0.096c0,0.047,0,0.094,0,0.143c-0.57-0.434-1.205-0.803-1.64-1.374
			c-1.087-0.543-1.858-1.405-2.905-1.989c-0.094-0.252-0.182-0.511-0.328-0.711c-1.146-0.04-1.136-1.25-2.014-1.563
			c-0.453,0.48-0.452,1.464-0.469,2.131c0.226,0.367,0.316,0.918,0.562,1.373c-0.131,0.409,0.303,0.596,0.281,1.043
			c0.685,0.949,1.305,1.965,2.108,2.794c-0.086,0.091-0.086,0.038-0.047,0.189c0.929,0.354,1.208,1.368,1.968,1.895
			c-0.81-0.081-1.664-0.118-2.249-0.427c-0.182-0.053-0.382-0.087-0.516-0.189c-0.031,0-0.062,0-0.093,0
			c-0.188-0.109-0.577-0.017-0.843-0.047c-0.388-0.082-0.632-0.308-1.171-0.237c-0.099-0.138-0.359-0.11-0.516-0.188
			c-0.566-0.139-1.337-0.068-1.687-0.427c-0.812,0.038-1.507-0.175-2.061-0.521c-0.11-0.002-0.138,0.081-0.281,0.047
			c-0.271,0.098-0.4-0.193-0.563-0.047c-1.66-0.208-3.179-0.787-4.966-0.711c0,0.174,0,0.348,0,0.521c0.219,0,0.438,0,0.656,0
			c0.104,0.133,0.212,0.26,0.234,0.473c0.08,0.141,0.434,0.004,0.422,0.237c-0.001,0.175,0.284,0.06,0.234,0.284
			c0.211-0.057,0.104,0.209,0.328,0.143c0.197,0.177,0.388,0.566,0.797,0.662c0,0.079,0,0.158,0,0.236
			c0.653,0.051,0.696,0.718,1.358,0.758c0.088,0.117,0.147,0.263,0.234,0.379c0.517,0.078,0.797,0.395,1.218,0.568
			c0,0.079,0,0.158,0,0.237c0.609,0.268,1.292,0.462,1.687,0.946c0.12,0.132,0.532-0.031,0.656,0.096
			c0.908,0.266,1.644,0.705,2.624,0.899c0,0.095,0,0.189,0,0.284c-0.096-0.055-0.223,0.074-0.093,0.095
			c1.331-0.204,2.423-0.065,3.889,0c0.159,0.046,0.551,0.104,0.609,0.095c0.016,0,0.031,0,0.047,0
			c0.102-0.008,0.021,0.168,0.047,0.236c-0.499,0.191-0.663,0.72-1.078,0.994c0.008,0.135,0.086,0.198,0.094,0.332
			c-0.318,0.453-0.851,0.688-1.125,1.184c0.28,0.283-0.257,0.352-0.094,0.664c-0.397,0.088-0.354,0.619-0.75,0.71
			c0.055,0.528-0.43,0.513-0.468,0.947c-0.109-0.016-0.18,0.008-0.234,0.048c-0.095,0.413-0.355,0.763-0.656,1.088
			c-0.191,0.139-0.27,0.391-0.421,0.568c-0.118,0.332-0.304,0.367-0.188,0.758c-0.435,0.492-0.595,1.262-0.983,1.8
			c-0.161,0.06-0.219,0.222-0.188,0.474c-0.073,0.289-0.351,0.371-0.421,0.663c-0.189,0.062-0.13,0.373-0.281,0.474
			c-0.027,0.154,0.032,0.221,0.047,0.332c-0.483,0.475-0.605,1.313-0.937,1.941c0.599-0.295,1.04-0.75,1.218-1.469
			c0.179,0.023,0.096-0.219,0.329-0.142c0.1-0.278,0.188-0.567,0.468-0.663c0.147,0.053,0.124,0.021,0.234-0.048
			c0.01-0.142-0.173-0.161-0.047-0.284c0.245-0.094,0.151-0.285,0.047-0.426c0.046-0.348,0.375-0.41,0.703-0.474
			c0.016,0,0.031,0,0.047,0c0.063-0.079,0.125-0.159,0.094-0.331c0.015,0,0.031,0,0.047,0c0.355-0.178,0.338-0.732,0.75-0.854
			c0.099-0.531,0.482-0.773,0.796-1.089c-0.027-0.45,0.51-0.706,0.89-0.899c0.017-0.235,0.155-0.349,0.328-0.426
			c0.154-0.145,0.333-0.264,0.469-0.427c0.245-0.384,0.626-0.629,0.983-0.899c0-0.08,0-0.158,0-0.236
			c0.096-0.046,0.186-0.098,0.281-0.143c0.016-0.357,0.413-0.373,0.656-0.663c0.258-0.31,0.317-0.901,0.843-0.853
			c-0.067-0.558,0.65-0.322,0.656-0.805c0.233,0.062,0.199-0.146,0.375-0.143c0.138,1.465,0.444,2.339,0.516,3.6
			c0.198,0.337,0.397,0.672,0.468,1.137c0.158,0.029,0.241,0.135,0.468,0.094c0.013-0.704-0.297-1.322-0.046-1.988
			c0.107-0.112,0.017-0.425,0.046-0.616c-0.009-0.464-0.043-0.985-0.14-1.515c0.035-0.076,0.229,0.01,0.188-0.143
			c0.157-0.432-0.079-0.781-0.047-1.137c0.021-0.227,0.217-0.396,0.235-0.615c0.014-0.178-0.167-0.34-0.047-0.521
			c0.092,0.255,0.398,0.292,0.421,0.616c1.305,0.829,2.222,2.048,3.702,2.7c-0.004,0.082,0.01,0.146,0.046,0.188
			c0.187-0.015,0.235,0.109,0.422,0.095c0.464,0.588,1.431,0.668,1.968,1.184c0.73,0.114,1.286,0.405,1.687,0.853
			c0.81,0.192,1.606,0.397,2.296,0.71c0.141,0,0.281,0,0.422,0c0.074,0.035-0.011,0.232,0.14,0.189
			c1.162,0.332,2.467,0.662,3.561,0.806c-0.276-0.026,0.016-0.413,0.187-0.427c0.113-0.018-0.026,0.216,0.141,0.143
			c0.253-0.364,0.76,0.019,1.125-0.095c-0.915-0.165-1.406-0.757-2.295-0.947c-0.025-0.118-0.114-0.169-0.188-0.237
			c-0.774-0.321-1.534-0.659-2.015-1.277c-0.68-0.182-1.148-0.576-1.545-1.043c-0.402-0.146-0.725-0.373-0.938-0.71
			c-0.559-0.287-1.031-0.663-1.312-1.231c-0.456-0.217-0.856-0.492-1.031-0.994c-0.148-0.007-0.206-0.107-0.375-0.095
			c-0.382-0.53-0.831-0.991-1.359-1.374c0.043-0.312-0.274-0.259-0.328-0.473c0.142-0.03,0.403,0.061,0.468-0.047
			c0.375,0,0.75,0,1.125,0c0.204-0.031,0.53,0.061,0.656-0.049c0.268-0.084,0.495-0.436,0.796-0.331c0.266,0,0.531,0,0.797,0
			c0.258-0.118,0.568-0.183,0.89-0.237c0.061-0.411,0.581-0.359,0.984-0.426c0.188-0.03,0.498,0.062,0.609-0.047
			c0.193-0.011,0.444,0.038,0.468-0.143c-0.243-0.053-0.656-0.051-1.077-0.047c-0.204-0.109-0.608-0.017-0.891-0.047
			c-0.234,0-0.468,0-0.702,0c-0.157-0.109-0.515-0.018-0.75-0.048c-0.308-0.263-0.89,0.001-1.359-0.048
			c-0.501-0.051-0.79-0.334-1.406-0.189c-0.08-0.107-0.357-0.018-0.515-0.047c-0.75-0.047-1.621,0.029-1.968-0.426
			c0.877-0.424,1.755-0.847,2.717-1.184c0.049-0.156,0.212-0.197,0.281-0.332c0.458-0.09,0.605-0.493,1.077-0.568
			c0.226-0.609,1.112-0.55,1.312-1.184c0.268-0.029,0.282-0.315,0.563-0.332c-0.012-0.201,0.003-0.375,0.14-0.426
			c0.241,0.1,0.285-0.07,0.516-0.095c0.138-0.997,1.414-0.845,1.733-1.658c0.168,0.028,0.227-0.055,0.328-0.095
			c0.155-0.475,0.535-0.723,1.078-0.805c0.178-0.432,0.711-0.63,1.124-0.947c0.031,1.578-0.062,3.283,0.047,4.783
			c0.021,1.227,0.6,1.888,1.593,2.131c0.261-0.447,0.482-0.934,0.75-1.373c-0.59-0.256-0.909-0.787-0.891-1.658
			c0-1.657,0-3.314,0-4.973c0.16-0.351,0.542-0.427,0.704-0.709c0.041-0.073,0.042-0.242,0.093-0.332
			c-0.291,0.039-0.609,0.299-0.797,0.284c-0.029-0.838,0.062-1.798-0.046-2.558c-0.469,0.031-1.062-0.063-1.453,0.047
			c0,1.059,0,2.116,0,3.174c-4.443,1.873-8.31,4.039-12.228,6.44c0-0.048,0-0.095,0-0.143c0.047,0,0.056-0.038,0.094-0.047
			c0.107-0.065,0.018-0.33,0.047-0.474c0.439-0.727-0.221-1.587,0.328-2.131c-0.211-0.889,0.427-1.481,0.141-2.32
			c0.022-0.199,0.312-0.377,0.187-0.568c-0.107-0.081-0.017-0.361-0.046-0.521c0-0.095,0-0.189,0-0.284
			c0.122-0.161,0.182-0.635,0.141-0.805c0-0.016,0-0.032,0-0.048c-0.09-0.666-0.011-1.505-0.281-1.988
			c0.07-1.129-0.456-1.654-0.609-2.558C28.26,23.911,28.2,23.703,28.047,23.59z M84.832,27.852c0.738-0.25,0.443-1.342,0.092-1.516
			c-0.123-0.061-0.414-0.098-0.609-0.047C83.23,26.569,83.879,28.173,84.832,27.852z M79.537,26.383
			c-0.391-0.109-0.984-0.016-1.453-0.047c-0.107,0.744-0.016,1.688-0.047,2.51c-0.564,0.062-1.371-0.123-1.779,0.096
			c0.01,0.035,0,0.093,0.045,0.094c0.023,0.324,0.107,0.588,0.096,0.947c0,0.063,0,0.127,0,0.189
			c0.365,0.213,1.117,0.037,1.639,0.096c0.031,1.752-0.063,3.63,0.047,5.303c0.084,1.146,0.617,1.838,1.594,2.084
			c0.289-0.418,0.523-0.891,0.75-1.373c-0.588-0.29-0.9-0.858-0.891-1.752c0-1.422,0-2.842,0-4.262
			c0.869-0.059,2.305,0.117,2.857-0.096c-0.08-0.424-0.166-0.842-0.234-1.278c-0.781-0.11-1.766-0.017-2.623-0.048
			C79.537,28.025,79.537,27.205,79.537,26.383z M89.797,26.383c0,0.017,0,0.032,0,0.049c-0.078,0.646-0.078,1.625,0,2.272
			c0,0.017,0,0.032,0,0.048c-0.029,0.002-0.055,0.006-0.047,0.047c-0.5,0.11-1.203,0.016-1.779,0.047
			c0.01,0.037,0,0.094,0.045,0.096c0.031,0.443,0.121,0.824,0.141,1.277c0.455,0.111,1.109,0.018,1.641,0.049
			c0,0.063,0,0.125,0,0.189c-0.078,1.515-0.078,3.361,0,4.877c0.006,1.304,0.568,2.047,1.592,2.32
			c0.297-0.412,0.537-0.878,0.75-1.373c-1.525-0.764-0.662-3.939-0.889-6.014c0.953,0,1.904,0,2.857,0
			c0.006-0.057,0.084-0.107,0-0.143c-0.059-0.366-0.162-0.689-0.188-1.09c-0.012-0.02,0.016-0.078,0-0.094
			c-0.416-0.429-1.998,0.121-2.67-0.096c0-0.82,0-1.641,0-2.463C90.873,26.305,90.172,26.305,89.797,26.383z M70.588,28.752
			c-2.176,0.295-3.268,1.685-3.467,3.978c-0.078,0.159-0.078,0.646,0,0.805c0.166,2.374,1.461,3.606,3.748,3.836
			c0.219,0.079,0.764,0.079,0.984,0c0.854-0.1,1.557-0.352,2.201-0.663c0.078-0.379,0.078-1.088,0-1.468
			c-1.645,1.358-5.873,1.22-5.529-1.847c2.047,0,4.094,0,6.139,0c0.074-0.274,0.082-0.864,0-1.137
			c-0.061-2.133-1.047-3.33-3.045-3.504C71.385,28.672,70.824,28.672,70.588,28.752z M62.436,28.799
			c-0.998,0.112-1.609,0.615-2.154,1.184c-0.031-0.363,0.063-0.852-0.047-1.137c-0.227,0.201-1.18-0.281-1.453,0.048
			c-0.055,0.066,0,0.897,0,1.136c0,2.65,0,5.738,0,8.051c0.07,0.877-0.234,1.373-0.656,1.752c0.268,0.393,0.473,0.85,0.703,1.279
			c0.857-0.412,1.404-1.139,1.406-2.415c0.109-0.711,0.016-1.626,0.047-2.415c0.066,0.011,0.078,0.078,0.141,0.094
			c0.479,0.512,1.072,0.906,2.013,0.947c0.082,0.08,0.482,0.08,0.563,0c2.105-0.191,2.951-1.658,3.092-3.836
			c0.078-0.143,0.078-0.613,0-0.757c-0.133-2.217-1.029-3.663-3.092-3.931C62.918,28.721,62.518,28.721,62.436,28.799z
			 M83.801,29.225c0.031,2.068-0.063,4.262,0.045,6.252c0.006,1.257,0.59,1.932,1.594,2.178c0.273-0.418,0.477-0.908,0.75-1.326
			c-0.518-0.344-0.945-0.78-0.891-1.705c0-1.814,0-3.63,0-5.445C84.814,29.209,84.207,29.114,83.801,29.225z M89.188,40.827
			c-0.111,0.927,1.225,0.824,1.172,0.048c-0.023-0.348-0.316-0.604-0.75-0.521C89.24,40.425,89.205,40.681,89.188,40.827z
			 M97.387,40.875c-0.061,0.845,1.105,0.85,1.172,0.142c0.037-0.413-0.273-0.762-0.75-0.663
			C97.529,40.412,97.4,40.682,97.387,40.875z M50.771,41.443c0.109,0,0.218,0,0.328,0c-0.003-0.383,0.124-0.632,0.14-0.994
			c-1.357-0.221-2.797,0-2.764,1.467c-0.108,0.191-0.016,0.584-0.047,0.854c0,0.047,0,0.094,0,0.141
			c-0.235,0.031-0.592-0.062-0.75,0.049c0.004,0.285-0.064,0.502-0.094,0.758c-0.113,0.257,0.59,0.098,0.844,0.142
			c0,0.915,0,1.831,0,2.747c0.045,0.598-0.219,0.883-0.469,1.184c0.236,0.234,0.307,0.638,0.516,0.899
			c0.584-0.31,1.014-0.775,0.984-1.704c0.108-0.948,0.016-2.1,0.047-3.126c0.344-0.031,0.811,0.062,1.077-0.048
			c0.024-0.258,0.068-0.498,0.094-0.758c0.031-0.284-0.825-0.08-1.171-0.143c0-0.205,0-0.41,0-0.614
			c0.011-0.511,0.191-0.848,0.702-0.853C50.396,41.443,50.583,41.443,50.771,41.443z M67.027,42.248c0-0.615,0-1.231,0-1.848
			c-0.363,0.027-0.838-0.057-1.125,0.049c0,0.6,0,1.199,0,1.799c-0.406,0.031-0.936-0.063-1.264,0.048
			c0.018,0.313,0.076,0.586,0.094,0.899c0.297,0.109,0.795,0.016,1.17,0.047c0.031,1.264-0.061,2.652,0.047,3.836
			c0.031,0.899,0.426,1.432,1.172,1.61c0.182-0.322,0.379-0.628,0.516-0.995c-0.363-0.248-0.648-0.574-0.609-1.23
			c0-1.074,0-2.147,0-3.221c0.672-0.031,1.467,0.063,2.061-0.047c-0.031-0.285-0.121-0.508-0.141-0.805
			C68.576,42.07,67.629,42.334,67.027,42.248z M93.779,42.153c-1.811,0.025-2.602,2.194-1.359,3.126
			c0.689,0.515,2.52,0.445,2.953,1.184c0,0.158,0,0.316,0,0.473c0,0.049,0,0.096,0,0.143c-0.287,0.368-0.969,0.389-1.453,0.427
			c-0.064-0.108-0.326-0.019-0.469-0.048c-0.645-0.012-1.146-0.166-1.641-0.331c-0.055,0.278-0.127,0.981,0.049,1.184
			c0.348,0.121,0.77,0.169,1.217,0.19c0.252,0.078,0.826,0.078,1.078,0c1.074-0.173,1.621-0.277,2.061-0.854
			c1.02-1.334-0.334-2.493-1.357-2.794c-0.547-0.16-1.285-0.122-1.688-0.379c-0.688-0.438-0.055-1.442,0.75-1.278
			c0.188,0,0.375,0,0.563,0c0.744-0.025,1.236,0.203,1.686,0.473c0.16,0.004,0.113-0.862,0.047-1.089
			c-0.414-0.228-0.92-0.364-1.498-0.426C94.512,42.074,93.982,42.074,93.779,42.153z M59.063,42.248
			c-0.223-0.066-1.08-0.114-1.078,0.048c-0.189,1.78,0.449,4.399-0.467,5.445c0.217,0.286,0.292,0.716,0.561,0.947
			c0.531-0.396,1.014-0.839,0.938-1.847c0.109-0.916,0.016-2.037,0.047-3.031c0.406-0.206,0.717-0.506,1.313-0.521
			c0.172,0,0.344,0,0.516,0c0.687,0.03,0.859,0.583,0.89,1.278c0.029,0.9-0.063,1.926,0.045,2.747
			c0.086,0.766,0.49,1.21,1.172,1.373c0.154-0.349,0.377-0.629,0.516-0.995c-1.273-0.641-0.191-3.359-0.984-4.641
			c-0.27-0.435-0.635-0.609-1.357-0.757c-0.098-0.079-0.513-0.079-0.609,0c-0.611,0.077-1.039,0.339-1.453,0.614
			C59.002,42.783,59.094,42.455,59.063,42.248z M77.568,42.91c-0.111-0.27,0.162-0.541,0-0.709c-0.17-0.178-0.912,0.092-1.123,0.047
			c0,1.531,0,3.063,0,4.594c0.037,0.48-0.242,0.64-0.424,0.899c0.135,0.339,0.355,0.589,0.469,0.947
			c0.584-0.279,0.977-0.749,1.031-1.563c0.109-0.995,0.016-2.194,0.047-3.268c0.324-0.306,0.729-0.526,1.313-0.568
			c0.156,0,0.313,0,0.469,0c0.713,0.005,0.879,0.563,0.938,1.231c0.031,0.852-0.063,1.83,0.047,2.604
			c-0.002,0.915,0.432,1.394,1.17,1.563c0.164-0.325,0.33-0.646,0.516-0.947c-1.295-0.673-0.143-3.473-1.031-4.735
			c-0.277-0.396-0.607-0.567-1.311-0.71c-0.098-0.079-0.514-0.079-0.609,0C78.432,42.363,78.01,42.646,77.568,42.91z
			 M106.664,46.605c0.061,0.599-0.191,0.879-0.469,1.136c0.211,0.274,0.348,0.628,0.516,0.947c0.629-0.326,1.055-0.86,1.029-1.847
			c0.109-0.916,0.016-2.037,0.047-3.031c0.363-0.233,0.707-0.484,1.266-0.521c0.172,0,0.344,0,0.516,0
			c1.795,0.194,0.344,3.757,1.266,4.925c0.197,0.252,0.455,0.32,0.842,0.474c0.223-0.282,0.332-0.677,0.563-0.947
			c-0.338-0.272-0.678-0.546-0.654-1.185c-0.033-0.662,0.061-1.451-0.049-2.035c0.027-1.336-0.529-2.086-1.686-2.226
			c-0.096-0.079-0.514-0.079-0.609,0c-0.584,0.073-0.979,0.335-1.406,0.567c-0.129-0.121,0.033-0.538-0.094-0.662
			c-0.357,0-0.719,0-1.076,0C106.664,43.668,106.664,45.137,106.664,46.605z M89.234,42.532c0.27,2.174-0.785,5.688,1.172,6.156
			c0.23-0.271,0.342-0.665,0.563-0.947c-0.311-0.303-0.684-0.54-0.656-1.185c0-1.341,0-2.683,0-4.024
			C90.057,42.459,89.49,42.449,89.234,42.532z M98.512,46.227c0-1.232,0-2.463,0-3.694c-0.26-0.077-0.818-0.077-1.078,0
			c0.031,1.516-0.063,3.157,0.047,4.594c-0.008,0.923,0.457,1.368,1.172,1.563c0.154-0.349,0.377-0.629,0.516-0.995
			C98.711,47.444,98.469,46.979,98.512,46.227z"/>
		<path style="fill-rule:evenodd;clip-rule:evenodd;fill:#C4B3CF;" d="M25.893,25.578c-0.04,0.497-0.102,0.971-0.188,1.422
			C25.702,26.648,25.78,25.971,25.893,25.578z"/>
		<path style="fill-rule:evenodd;clip-rule:evenodd;fill:#C4B3CF;" d="M19.942,36.896c0.133,0.103,0.334,0.137,0.516,0.189
			C20.177,37.133,20.058,37.017,19.942,36.896z"/>
		<path style="fill-rule:evenodd;clip-rule:evenodd;fill:#C4B3CF;" d="M17.318,36.424c0.156,0.078,0.417,0.051,0.516,0.188
			C17.663,36.549,17.426,36.552,17.318,36.424z"/>
		<path style="fill-rule:evenodd;clip-rule:evenodd;fill:#C4B3CF;" d="M12.727,35.477c0.162-0.146,0.292,0.145,0.563,0.047
			C13.102,35.694,12.932,35.444,12.727,35.477z"/>
		<path style="fill-rule:evenodd;clip-rule:evenodd;fill:#C4B3CF;" d="M9.073,35.997c0.229,0.099,0.377,0.28,0.562,0.427
			c-0.223,0.066-0.116-0.199-0.328-0.143C9.357,36.057,9.072,36.172,9.073,35.997z"/>
		<path style="fill-rule:evenodd;clip-rule:evenodd;fill:#C4B3CF;" d="M22.004,41.585c0.253-0.02,0.467,0.002,0.609,0.095
			C22.555,41.689,22.163,41.631,22.004,41.585z"/>
		<path style="fill-rule:evenodd;clip-rule:evenodd;fill:#C4B3CF;" d="M17.975,48.451c0.152-0.178,0.23-0.43,0.421-0.568
			C18.238,48.056,18.2,48.348,17.975,48.451z"/>
		<path style="fill-rule:evenodd;clip-rule:evenodd;fill:#C4B3CF;" d="M16.616,51.482c-0.031-0.252,0.027-0.414,0.188-0.474
			c-0.103,0.102-0.179,0.229-0.141,0.474C16.647,51.482,16.631,51.482,16.616,51.482z"/>
		<path style="fill-rule:evenodd;clip-rule:evenodd;fill:#C4B3CF;" d="M15.913,52.619c0.151-0.101,0.092-0.412,0.281-0.474
			c-0.113,0.122-0.105,0.367-0.234,0.474C15.944,52.619,15.929,52.619,15.913,52.619z"/>
		<path style="fill-rule:evenodd;clip-rule:evenodd;fill:#C4B3CF;" d="M17.038,52.619c0.046-0.133,0.125,0.068,0.188-0.048
			c0.035-0.146-0.129-0.091-0.094-0.236c0.047,0,0.055-0.038,0.094-0.048c-0.126,0.123,0.057,0.143,0.047,0.284
			C17.161,52.641,17.185,52.672,17.038,52.619z"/>
		<path style="fill-rule:evenodd;clip-rule:evenodd;fill:#C4B3CF;" d="M17.975,51.388c0.062-0.079,0.124-0.159,0.094-0.331
			c0.04-0.039,0.028-0.131,0.094-0.143c0.002,0.065-0.022,0.104-0.047,0.143c0.031,0.172-0.031,0.252-0.094,0.331
			C18.006,51.388,17.99,51.388,17.975,51.388z"/>
		<path style="fill-rule:evenodd;clip-rule:evenodd;fill:#C4B3CF;" d="M20.926,47.789c0.12-0.18,0.283-0.314,0.469-0.427
			C21.259,47.525,21.081,47.645,20.926,47.789z"/>
		<path style="fill-rule:evenodd;clip-rule:evenodd;fill:#FFFFFF;" d="M40.557,26.383c0.391-0.109,0.984-0.016,1.453-0.047
			c0.108,0.76,0.017,1.72,0.046,2.558c0.188,0.015,0.506-0.245,0.797-0.284c-0.052,0.09-0.052,0.259-0.093,0.332
			c-0.162,0.282-0.544,0.358-0.704,0.709c0,1.658,0,3.315,0,4.973c-0.11-2.854-0.008-5.414-0.046-8.24c-0.468,0-0.937,0-1.406,0
			C40.588,26.383,40.573,26.383,40.557,26.383z"/>
		<path style="fill-rule:evenodd;clip-rule:evenodd;fill:#C4B3CF;" d="M29.219,28.704c0.042,0.17-0.019,0.644-0.141,0.805
			C29.127,29.242,29.172,28.973,29.219,28.704z"/>
		<path style="fill-rule:evenodd;clip-rule:evenodd;fill:#C4B3CF;" d="M28.938,26.668c0.271,0.483,0.191,1.322,0.281,1.988
			C29.051,28.068,29.143,27.219,28.938,26.668z"/>
		<path style="fill-rule:evenodd;clip-rule:evenodd;fill:#C4B3CF;" d="M28.047,23.59c0.152,0.113,0.212,0.321,0.281,0.521
			C28.208,23.963,28.147,23.757,28.047,23.59z"/>
		<path style="fill-rule:evenodd;clip-rule:evenodd;fill:#FFFFFF;" d="M76.303,29.035c-0.045-0.001-0.035-0.059-0.045-0.094
			c0.408-0.219,1.215-0.034,1.779-0.096c0.031-0.821-0.061-1.766,0.047-2.51c0.469,0.031,1.063-0.063,1.453,0.047
			c-0.016,0-0.031,0-0.047,0c-0.453,0-0.906,0-1.359,0c-0.109,0.727-0.016,1.658-0.047,2.463c-0.502,0.108-1.201,0.018-1.781,0.048
			C76.303,28.941,76.303,28.988,76.303,29.035z"/>
		<path style="fill-rule:evenodd;clip-rule:evenodd;fill:#FFFFFF;" d="M76.398,29.982c0.035,0.011,0.055,0.04,0.047,0.095
			c0.145,0.44,1.307-0.098,1.592,0.142c0.131,0.111,0.047,0.984,0.047,1.279c0,1.371,0,3.029,0,4.072
			c-0.109-1.673-0.016-3.551-0.047-5.303c-0.521-0.059-1.273,0.117-1.639-0.096C76.398,30.109,76.398,30.045,76.398,29.982z"/>
		<path style="fill-rule:evenodd;clip-rule:evenodd;fill:#FFFFFF;" d="M79.537,30.268c0.842-0.143,2.014,0.047,2.857-0.096
			C81.842,30.385,80.406,30.209,79.537,30.268z"/>
		<path style="fill-rule:evenodd;clip-rule:evenodd;fill:#FFFFFF;" d="M89.797,28.752c-0.311,0.349-1.318-0.006-1.781,0.189
			c-0.045-0.002-0.035-0.059-0.045-0.096c0.576-0.031,1.279,0.063,1.779-0.047C89.742,28.758,89.768,28.754,89.797,28.752z"/>
		<path style="fill-rule:evenodd;clip-rule:evenodd;fill:#FFFFFF;" d="M94.107,30.125c0.084,0.035,0.006,0.086,0,0.143
			c-0.953,0-1.904,0-2.857,0c0.842-0.143,2.014,0.047,2.857-0.096C94.107,30.156,94.107,30.141,94.107,30.125z"/>
		<path style="fill-rule:evenodd;clip-rule:evenodd;fill:#FFFFFF;" d="M91.25,28.846c0.672,0.217,2.254-0.333,2.67,0.096
			c0.016,0.016-0.012,0.074,0,0.094c-0.045,0.021-0.033-0.037-0.047-0.047C93.355,28.588,91.898,29.131,91.25,28.846z"/>
		<path style="fill-rule:evenodd;clip-rule:evenodd;fill:#FFFFFF;" d="M51.099,35.334c0.04-0.07,0.07-0.15,0.187-0.143
			c0.051,0.404,0.135,1.237-0.047,1.563c0.106-0.413,0.02-1.023,0.047-1.515C51.158,35.205,51.191,35.333,51.099,35.334z"/>
		<path style="fill-rule:evenodd;clip-rule:evenodd;fill:#FFFFFF;" d="M74.664,32.256c0.082,0.272,0.074,0.862,0,1.137
			c-2.045,0-4.092,0-6.139,0c1.938-0.111,4.078-0.016,6.092-0.048C74.727,33.076,74.633,32.604,74.664,32.256z"/>
		<path style="fill-rule:evenodd;clip-rule:evenodd;fill:#FFFFFF;" d="M60.235,38.696c0-0.345,0-0.892,0-1.374
			c0-0.336-0.105-1.229,0.141-1.041c0,0.047,0.037,0.057,0.047,0.094c-0.063-0.016-0.074-0.083-0.141-0.094
			C60.25,37.07,60.344,37.985,60.235,38.696z"/>
		<path style="fill-rule:evenodd;clip-rule:evenodd;fill:#FFFFFF;" d="M58.782,38.08c0-2.313,0-5.4,0-8.051
			c0-0.238-0.055-1.069,0-1.136c0.273-0.329,1.227,0.153,1.453-0.048c0,0.016,0,0.031,0,0.048c-0.469,0-0.938,0-1.406,0
			C58.797,31.939,58.891,35.113,58.782,38.08z"/>
		<path style="fill-rule:evenodd;clip-rule:evenodd;fill:#FFFFFF;" d="M60.797,31.166c0.137-0.178,0.292-0.335,0.468-0.473
			C61.129,30.871,60.973,31.028,60.797,31.166z"/>
		<path style="fill-rule:evenodd;clip-rule:evenodd;fill:#0055C8;" d="M61.266,30.693c1.461-1.078,3.35,0.236,3.279,2.131
			c0,0.189,0,0.379,0,0.568c-0.08,1.309-0.689,2.082-1.828,2.32c-0.219,0-0.438,0-0.656,0c-1.055-0.197-1.628-0.879-1.779-1.988
			c0-0.412,0-0.822,0-1.232c0.043-0.572,0.26-0.968,0.516-1.326C60.973,31.028,61.129,30.871,61.266,30.693z"/>
		<path style="fill-rule:evenodd;clip-rule:evenodd;fill:#FFFFFF;" d="M18.068,51.057c-0.016,0-0.031,0-0.047,0
			c0.087,0.264-0.16,0.291-0.234,0.142c0.133-0.134,0.079-0.458,0.375-0.426c0,0.047,0,0.095,0,0.142
			C18.096,50.926,18.108,51.018,18.068,51.057z"/>
		<path style="fill-rule:evenodd;clip-rule:evenodd;fill:#FFFFFF;" d="M47.584,43.717c0.088,0.242,0.681-0.025,0.844,0.142
			C48.174,43.814,47.471,43.974,47.584,43.717z"/>
		<path style="fill-rule:evenodd;clip-rule:evenodd;fill:#FFFFFF;" d="M49.506,42.959c0-0.016,0-0.032,0-0.049
			c0.346,0.063,1.202-0.142,1.171,0.143C50.468,42.838,49.869,43.018,49.506,42.959z"/>
		<path style="fill-rule:evenodd;clip-rule:evenodd;fill:#FFFFFF;" d="M65.902,42.248c0-0.6,0-1.199,0-1.799
			c0.287-0.105,0.762-0.021,1.125-0.049c0,0.616,0,1.232,0,1.848c-0.016,0-0.031,0-0.047,0c-0.186-0.467,0.258-1.44,0-1.752
			c-0.193-0.235-0.662,0.071-1.031-0.047c0,0.6,0,1.199,0,1.799C65.934,42.248,65.918,42.248,65.902,42.248z"/>
		<path style="fill-rule:evenodd;clip-rule:evenodd;fill:#FFFFFF;" d="M66.98,42.248c0.016,0,0.031,0,0.047,0
			c0.602,0.086,1.549-0.178,1.92,0.143C68.488,42.145,67.518,42.416,66.98,42.248z"/>
		<path style="fill-rule:evenodd;clip-rule:evenodd;fill:#FFFFFF;" d="M100.666,43.195c0.137-0.178,0.293-0.336,0.469-0.474
			C100.998,42.899,100.842,43.057,100.666,43.195z"/>
		<path style="fill-rule:evenodd;clip-rule:evenodd;fill:#FFFFFF;" d="M105.164,46.984c-0.051,0.328,0.107,0.865-0.094,1.041
			C105.205,47.781,105.029,47.226,105.164,46.984z"/>
		<path style="fill-rule:evenodd;clip-rule:evenodd;fill:#FFFFFF;" d="M96.215,42.579c0.066,0.227,0.113,1.093-0.047,1.089
			C96.277,43.399,96.184,42.928,96.215,42.579z"/>
		<path style="fill-rule:evenodd;clip-rule:evenodd;fill:#FFFFFF;" d="M91.859,48.31c-0.176-0.202-0.104-0.905-0.049-1.184
			C91.84,47.509,91.754,48.004,91.859,48.31z"/>
		<path style="fill-rule:evenodd;clip-rule:evenodd;fill:#FFFFFF;" d="M57.985,42.296c-0.002-0.162,0.855-0.114,1.078-0.048
			c-0.016,0-0.031,0-0.047,0C58.688,42.279,58.237,42.186,57.985,42.296z"/>
		<path style="fill-rule:evenodd;clip-rule:evenodd;fill:#FFFFFF;" d="M76.445,46.842c0-1.531,0-3.063,0-4.594
			c0.211,0.045,0.953-0.225,1.123-0.047c0.162,0.168-0.111,0.439,0,0.709c-0.107-0.127-0.016-0.455-0.047-0.662
			c-0.344,0-0.686,0-1.031,0C76.459,43.764,76.555,45.405,76.445,46.842z"/>
		<path style="fill-rule:evenodd;clip-rule:evenodd;fill:#FFFFFF;" d="M77.568,42.91c0.441-0.265,0.863-0.547,1.5-0.614
			c0.203,0,0.406,0,0.609,0c0.703,0.143,1.033,0.313,1.311,0.71c0.889,1.263-0.264,4.063,1.031,4.735
			c-0.186,0.302-0.352,0.622-0.516,0.947c-0.738-0.169-1.172-0.647-1.17-1.563c-0.031-0.853,0.061-1.831-0.047-2.604
			c-0.059-0.669-0.225-1.227-0.938-1.231c-0.051-0.079-0.418-0.079-0.469,0c-0.584,0.042-0.988,0.263-1.313,0.568
			c-0.109,0.994-0.016,2.193-0.047,3.268c-0.055,0.813-0.447,1.283-1.031,1.563c-0.113-0.358-0.334-0.608-0.469-0.947
			c0.182-0.26,0.461-0.419,0.424-0.899c0.109-1.437,0.014-3.078,0.045-4.594c0.346,0,0.688,0,1.031,0
			C77.553,42.455,77.461,42.783,77.568,42.91z"/>
		<path style="fill-rule:evenodd;clip-rule:evenodd;fill:#FFFFFF;" d="M107.834,42.863c-0.01,0.037-0.039,0.055-0.094,0.047
			c0-0.221,0-0.441,0-0.662c-0.342,0-0.686,0-1.029,0c-0.031,1.437,0.063,3-0.047,4.357c0-1.469,0-2.938,0-4.404
			c0.357,0,0.719,0,1.076,0C107.867,42.325,107.705,42.742,107.834,42.863z"/>
		<path style="fill-rule:evenodd;clip-rule:evenodd;fill:#FFFFFF;" d="M90.313,46.557c-0.027,0.645,0.346,0.882,0.656,1.185
			c-0.221,0.282-0.332,0.677-0.563,0.947c-1.957-0.468-0.902-3.982-1.172-6.156c0.344,0,0.688,0,1.031,0
			C90.297,43.858,90.203,45.311,90.313,46.557z"/>
		<path style="fill-rule:evenodd;clip-rule:evenodd;fill:#FFFFFF;" d="M89.234,42.532c0.256-0.083,0.822-0.073,1.078,0
			c0,1.342,0,2.684,0,4.024c-0.109-1.246-0.016-2.698-0.047-4.024C89.922,42.532,89.578,42.532,89.234,42.532z"/>
		<path style="fill-rule:evenodd;clip-rule:evenodd;fill:#FFFFFF;" d="M97.48,47.126c-0.109-1.437-0.016-3.078-0.047-4.594
			c0.26-0.077,0.818-0.077,1.078,0c0,1.231,0,2.462,0,3.694c-0.109-1.121-0.016-2.447-0.047-3.647
			c-0.234-0.11-0.672-0.017-0.984-0.047C97.48,44.063,97.48,45.595,97.48,47.126z"/>
		<path style="fill-rule:evenodd;clip-rule:evenodd;fill:#FFFFFF;" d="M104.555,44.332c0.105,0.02,0.02,0.233,0.047,0.331
			c-1.047-0.205-2.529,0.277-3.467,0c-0.037-0.011-0.049-0.108,0-0.095c1.047,0.11,2.295,0.016,3.42,0.047
			C104.555,44.521,104.555,44.426,104.555,44.332z"/>
		<path style="fill-rule:evenodd;clip-rule:evenodd;fill:#FFFFFF;" d="M82.16,28.894c0.068,0.437,0.154,0.854,0.234,1.278
			c-0.844,0.143-2.016-0.047-2.857,0.096c-0.078,1.309-0.078,2.951,0,4.262c-0.01,0.894,0.303,1.462,0.891,1.752
			c-0.227,0.482-0.461,0.955-0.75,1.373c-0.977-0.246-1.51-0.938-1.594-2.084c0-1.043,0-2.701,0-4.072
			c0-0.295,0.084-1.168-0.047-1.279c-0.285-0.239-1.447,0.299-1.592-0.142c0.008-0.055-0.012-0.084-0.047-0.095
			c0.012-0.359-0.072-0.623-0.096-0.947c0-0.047,0-0.094,0-0.142c0.58-0.03,1.279,0.061,1.781-0.048
			c0.031-0.805-0.063-1.736,0.047-2.463c0.453,0,0.906,0,1.359,0c0.031,0.807-0.063,1.736,0.047,2.463
			C80.318,28.957,81.301,28.861,82.16,28.894z"/>
		<path style="fill-rule:evenodd;clip-rule:evenodd;fill:#FFFFFF;" d="M91.25,28.846c0.648,0.285,2.105-0.258,2.623,0.143
			c0.014,0.01,0.002,0.067,0.047,0.047c0.025,0.4,0.129,0.724,0.188,1.09c0,0.016,0,0.031,0,0.047
			c-0.844,0.143-2.016-0.047-2.857,0.096c0.227,2.074-0.637,5.25,0.889,6.014c-0.213,0.495-0.453,0.961-0.75,1.373
			c-1.023-0.273-1.586-1.017-1.592-2.32c0-1.625,0-3.252,0-4.877c0-0.064,0-0.127,0-0.189c-0.453-0.111-1.109-0.017-1.641-0.049
			c-0.02-0.453-0.109-0.834-0.141-1.277c0.463-0.195,1.471,0.159,1.781-0.189c0-0.016,0-0.031,0-0.048c0-0.758,0-1.515,0-2.272
			c0-0.017,0-0.032,0-0.049c0.484,0,0.969,0,1.453,0C91.25,27.205,91.25,28.025,91.25,28.846z"/>
		<path style="fill-rule:evenodd;clip-rule:evenodd;fill:#FFFFFF;" d="M40.604,26.383c0.469,0,0.938,0,1.406,0
			c0.038,2.826-0.064,5.386,0.046,8.24c-0.018,0.871,0.3,1.402,0.891,1.658c-0.268,0.439-0.489,0.926-0.75,1.373
			c-0.993-0.243-1.571-0.904-1.593-2.131c-0.031-1.609,0.063-3.346-0.047-4.878c0-0.031,0-0.063,0-0.095
			c0.078-0.175,0.078-0.678,0-0.853c0-0.031,0-0.063,0-0.095C40.666,28.625,40.573,27.441,40.604,26.383z"/>
		<path style="fill-rule:evenodd;clip-rule:evenodd;fill:#FFFFFF;" d="M83.846,29.225c0.469,0,0.938,0,1.406,0
			c0.031,1.784-0.063,3.693,0.047,5.398c-0.055,0.925,0.373,1.361,0.891,1.705c-0.273,0.418-0.477,0.908-0.75,1.326
			c-1.004-0.246-1.588-0.921-1.594-2.178C83.846,33.393,83.846,31.309,83.846,29.225z"/>
		<path style="fill-rule:evenodd;clip-rule:evenodd;fill:#FFFFFF;" d="M68.947,42.391c0.02,0.297,0.109,0.52,0.141,0.805
			c-0.67,0.031-1.467-0.063-2.061,0.047c-0.078,0.963-0.078,2.258,0,3.221c-0.039,0.656,0.246,0.982,0.609,1.23
			c-0.137,0.367-0.334,0.673-0.516,0.995c-0.746-0.179-1.141-0.711-1.172-1.61c0-1.278,0-2.557,0-3.836
			c-0.313-0.109-0.826-0.016-1.217-0.047c-0.018-0.313-0.076-0.587-0.094-0.899c0.42-0.032,0.967,0.062,1.311-0.048
			c0-0.6,0-1.199,0-1.799c0.369,0.118,0.838-0.188,1.031,0.047c0.258,0.312-0.186,1.285,0,1.752
			C67.518,42.416,68.488,42.145,68.947,42.391z"/>
		<path style="fill-rule:evenodd;clip-rule:evenodd;fill:#FFFFFF;" d="M59.11,42.91c0.414-0.275,0.842-0.537,1.453-0.614
			c0.203,0,0.406,0,0.609,0c0.723,0.147,1.088,0.322,1.357,0.757c0.793,1.281-0.289,4,0.984,4.641
			c-0.139,0.366-0.361,0.646-0.516,0.995c-0.682-0.163-1.086-0.607-1.172-1.373c-0.031-0.9,0.063-1.927-0.045-2.747
			c-0.031-0.695-0.203-1.248-0.89-1.278c-0.066-0.079-0.449-0.079-0.516,0c-0.596,0.015-0.906,0.314-1.313,0.521
			c-0.109,0.916-0.016,2.036-0.047,3.031c0.076,1.008-0.406,1.451-0.938,1.847c-0.27-0.231-0.344-0.661-0.561-0.947
			c0.917-1.046,0.278-3.665,0.467-5.445c0.252-0.11,0.703-0.017,1.031-0.048C59.051,42.435,58.93,43.028,59.11,42.91z"/>
		<path style="fill-rule:evenodd;clip-rule:evenodd;fill:#FFFFFF;" d="M106.664,46.605c0.109-1.357,0.016-2.921,0.047-4.357
			c0.344,0,0.688,0,1.029,0c0,0.221,0,0.441,0,0.662c0.055,0.008,0.084-0.01,0.094-0.047c0.428-0.232,0.822-0.494,1.406-0.567
			c0.203,0,0.406,0,0.609,0c1.156,0.14,1.713,0.89,1.686,2.226c0.033,0.662-0.061,1.451,0.049,2.035
			c-0.023,0.639,0.316,0.912,0.654,1.185c-0.23,0.271-0.34,0.665-0.563,0.947c-0.387-0.153-0.645-0.222-0.842-0.474
			c-0.922-1.168,0.529-4.73-1.266-4.925c-0.066-0.079-0.449-0.079-0.516,0c-0.559,0.036-0.902,0.287-1.266,0.521
			c-0.107,0.916-0.016,2.036-0.047,3.031c0.025,0.986-0.4,1.521-1.029,1.847c-0.168-0.319-0.305-0.673-0.516-0.947
			C106.473,47.484,106.725,47.204,106.664,46.605z"/>
		<path style="fill-rule:evenodd;clip-rule:evenodd;fill:#FFFFFF;" d="M98.512,46.227c-0.043,0.753,0.199,1.218,0.656,1.467
			c-0.139,0.366-0.361,0.646-0.516,0.995c-0.715-0.194-1.18-0.64-1.172-1.563c0-1.531,0-3.063,0-4.594
			c0.313,0.03,0.75-0.063,0.984,0.047C98.496,43.779,98.402,45.105,98.512,46.227z"/>
		<path style="fill-rule:evenodd;clip-rule:evenodd;fill:#0055C8;" d="M73.305,32.161c-1.592,0-3.186,0-4.779,0
			c0.123-1.202,0.881-2.153,2.156-2.272C72.215,29.744,73.412,30.477,73.305,32.161z"/>
		<path style="fill-rule:evenodd;clip-rule:evenodd;fill:#FFFFFF;" d="M84.314,26.289c0.195-0.051,0.486-0.014,0.609,0.047
			c0.352,0.174,0.646,1.266-0.092,1.516C83.879,28.173,83.23,26.569,84.314,26.289z"/>
		<path style="fill-rule:evenodd;clip-rule:evenodd;fill:#FFFFFF;" d="M67.121,32.729c0.199-2.293,1.291-3.683,3.467-3.978
			c0.344,0,0.688,0,1.031,0c1.998,0.174,2.984,1.371,3.045,3.504c-0.031,0.348,0.063,0.82-0.047,1.089
			c-2.014,0.032-4.154-0.063-6.092,0.048c-0.344,3.066,3.885,3.205,5.529,1.847c0,0.489,0,0.979,0,1.468
			c-0.645,0.312-1.348,0.563-2.201,0.663c-0.328,0-0.656,0-0.984,0c-2.287-0.229-3.582-1.462-3.748-3.836
			C67.121,33.266,67.121,32.998,67.121,32.729z M70.682,29.889c-1.275,0.119-2.033,1.07-2.156,2.272c1.594,0,3.188,0,4.779,0
			C73.412,30.477,72.215,29.744,70.682,29.889z"/>
		<g>
			<path style="fill:none;" d="M61.266,30.693c-0.176,0.138-0.332,0.295-0.468,0.473c-0.256,0.358-0.473,0.754-0.516,1.326
				c-0.078,0.301-0.078,0.931,0,1.232c0.15,1.109,0.724,1.791,1.779,1.988c0.113,0.078,0.545,0.078,0.656,0
				c1.139-0.238,1.748-1.012,1.828-2.32c0.078-0.082,0.078-0.487,0-0.568C64.615,30.93,62.727,29.615,61.266,30.693z"/>
			<path style="fill:#FFFFFF;" d="M62.998,28.799c-0.188,0-0.375,0-0.563,0c-0.998,0.112-1.609,0.615-2.154,1.184
				c-0.104-0.085-0.02-0.769-0.047-1.089c-0.469,0-0.938,0-1.406,0c-0.031,3.046,0.063,6.22-0.047,9.187
				c0.07,0.877-0.234,1.373-0.656,1.752c0.268,0.393,0.473,0.85,0.703,1.279c0.857-0.412,1.404-1.139,1.406-2.415
				c0-0.345,0-0.892,0-1.374c0-0.336-0.105-1.229,0.141-1.041c0,0.047,0.037,0.057,0.047,0.094c0.479,0.512,1.072,0.906,2.013,0.947
				c0.188,0,0.375,0,0.563,0c2.105-0.191,2.951-1.658,3.092-3.836c0-0.252,0-0.504,0-0.757
				C65.957,30.513,65.061,29.066,62.998,28.799z M64.545,33.393c-0.08,1.309-0.689,2.082-1.828,2.32
				c-0.111,0.078-0.543,0.078-0.656,0c-1.055-0.197-1.628-0.879-1.779-1.988c-0.078-0.302-0.078-0.932,0-1.232
				c0.043-0.572,0.26-0.968,0.516-1.326c0.137-0.178,0.292-0.335,0.468-0.473c1.461-1.078,3.35,0.236,3.279,2.131
				C64.623,32.905,64.623,33.311,64.545,33.393z"/>
		</g>
		<path style="fill-rule:evenodd;clip-rule:evenodd;fill:#FFFFFF;" d="M48.475,41.916c-0.033-1.467,1.406-1.688,2.764-1.467
			c-0.016,0.362-0.143,0.611-0.14,0.994c-0.11,0-0.219,0-0.328,0c-0.081-0.079-0.481-0.079-0.563,0
			c-0.511,0.005-0.691,0.342-0.702,0.853c-0.078,0.112-0.078,0.55,0,0.663c0.363,0.059,0.962-0.121,1.171,0.094
			c-0.025,0.26-0.069,0.5-0.094,0.758c-0.345,0.031-0.812-0.063-1.077,0.048c-0.109,0.946-0.016,2.099-0.047,3.126
			c0.029,0.929-0.4,1.395-0.984,1.704c-0.209-0.262-0.279-0.665-0.516-0.899c0.25-0.301,0.514-0.586,0.469-1.184
			c0.078-0.806,0.078-1.942,0-2.747c-0.163-0.167-0.756,0.101-0.844-0.142c0.029-0.256,0.098-0.473,0.094-0.758
			c0.235-0.031,0.593,0.062,0.75-0.049c0-0.047,0-0.094,0-0.141C48.537,42.578,48.443,42.186,48.475,41.916z"/>
		<path style="fill-rule:evenodd;clip-rule:evenodd;fill:#FFFFFF;" d="M89.609,40.354c0.434-0.082,0.727,0.174,0.75,0.521
			c0.053,0.776-1.283,0.879-1.172-0.048C89.205,40.681,89.24,40.425,89.609,40.354z"/>
		<path style="fill-rule:evenodd;clip-rule:evenodd;fill:#FFFFFF;" d="M97.809,40.354c0.477-0.099,0.787,0.25,0.75,0.663
			c-0.066,0.708-1.232,0.703-1.172-0.142C97.4,40.682,97.529,40.412,97.809,40.354z"/>
		<path style="fill-rule:evenodd;clip-rule:evenodd;fill:#FFFFFF;" d="M95.373,46.463c-0.434-0.738-2.264-0.669-2.953-1.184
			c-1.242-0.932-0.451-3.101,1.359-3.126c0.313,0,0.625,0,0.938,0c0.578,0.062,1.084,0.198,1.498,0.426
			c-0.031,0.349,0.063,0.82-0.047,1.089c-0.449-0.27-0.941-0.498-1.686-0.473c-0.082-0.078-0.482-0.078-0.563,0
			c-0.805-0.164-1.438,0.84-0.75,1.278c0.402,0.257,1.141,0.219,1.688,0.379c1.023,0.301,2.377,1.46,1.357,2.794
			c-0.439,0.576-0.986,0.681-2.061,0.854c-0.359,0-0.719,0-1.078,0c-0.447-0.021-0.869-0.069-1.217-0.19
			c-0.105-0.306-0.02-0.801-0.049-1.184c0.494,0.165,0.996,0.319,1.641,0.331c0.064,0.107,0.326,0.018,0.469,0.048
			c0.484-0.038,1.166-0.059,1.453-0.427c0-0.047,0-0.094,0-0.143C95.449,46.885,95.449,46.514,95.373,46.463z"/>
		<path style="fill-rule:evenodd;clip-rule:evenodd;fill:#FFFFFF;" d="M47.771,28.752c0.143-0.03,0.404,0.061,0.469-0.048
			c0.047,0,0.094,0,0.141,0c0.064,0.108,0.326,0.018,0.469,0.048c2.355,0.175,3.209,1.871,3.045,4.593
			c-2.029,0.032-4.186-0.063-6.137,0.048c-0.367,2.973,3.658,3.221,5.341,1.941c0.093-0.001,0.06-0.129,0.187-0.095
			c-0.027,0.491,0.06,1.102-0.047,1.515c-0.672,0.252-1.326,0.523-2.154,0.616c-0.328,0-0.656,0-0.984,0
			c-2.234-0.219-3.524-1.395-3.748-3.646c-0.029-0.16,0.061-0.44-0.047-0.521c0-0.047,0-0.096,0-0.143
			c0.107-0.08,0.018-0.361,0.047-0.521C44.598,30.373,45.687,29.059,47.771,28.752z M46.507,30.457
			c-0.474,0.438-0.64,1.016-0.749,1.704c1.593,0,3.186,0,4.778,0C50.889,29.891,47.811,29.246,46.507,30.457z"/>
		<path style="fill-rule:evenodd;clip-rule:evenodd;fill:#FFFFFF;" d="M69.885,44.947c0.072-1.469,1.006-2.633,2.438-2.794
			c1.793-0.202,2.998,0.691,3.045,2.462c-0.031,0.285,0.061,0.694-0.047,0.9c-1.453,0.031-3.029-0.063-4.404,0.047
			c-0.285,2.243,2.861,2.313,4.029,1.326c0,0.363,0,0.727,0,1.09c-0.471,0.219-0.98,0.396-1.594,0.473
			c-0.141,0.029-0.402-0.061-0.469,0.049c-1.77-0.137-2.893-0.928-2.998-2.748C69.885,45.484,69.885,45.216,69.885,44.947z
			 M74.383,44.615c0.242-2.27-3.633-2.007-3.467,0C71.963,44.695,73.336,44.695,74.383,44.615z"/>
		<path style="fill-rule:evenodd;clip-rule:evenodd;fill:#FFFFFF;" d="M101.135,42.722c0.875-0.726,2.723-0.772,3.607-0.095
			c0.758,0.579,0.861,1.611,0.844,2.889c-0.781,0-1.563,0-2.344,0c-0.389,0-0.779,0-1.17,0c-0.295,0.066-1.148-0.183-0.938,0.236
			c-0.057,1.736,1.957,2.032,3.279,1.516c0.27-0.105,0.666-0.387,0.75-0.283c-0.135,0.241,0.041,0.797-0.094,1.041
			c-0.535,0.232-1.133,0.4-1.828,0.475c-0.08-0.109-0.355-0.019-0.514-0.049c-1.639-0.189-2.566-1.1-2.672-2.841
			c0-0.157,0-0.315,0-0.474c0.016-0.837,0.295-1.406,0.609-1.941C100.842,43.057,100.998,42.899,101.135,42.722z M104.555,44.332
			c-0.008-1.961-3.58-1.631-3.42,0.236c-0.049-0.014-0.037,0.084,0,0.095c0.938,0.277,2.42-0.205,3.467,0
			C104.574,44.565,104.66,44.352,104.555,44.332z"/>
		<path style="fill-rule:evenodd;clip-rule:evenodd;fill:#FFFFFF;" d="M51.379,45.09c0.147-1.62,0.85-2.678,2.39-2.889
			c0.234,0,0.469,0,0.703,0c3.253-0.102,3.316,6.26,0.141,6.299c-0.297,0-0.594,0-0.89,0c-1.443-0.264-2.219-1.2-2.344-2.795
			C51.379,45.5,51.379,45.295,51.379,45.09z M53.862,43.195c-0.915,0.18-1.332,0.863-1.405,1.895c-0.078,0.096-0.078,0.518,0,0.615
			c0.1,0.973,0.564,1.576,1.452,1.752c0.051,0.078,0.419,0.078,0.469,0c2.049-0.084,2.056-4.175,0-4.262
			C54.313,43.117,53.928,43.117,53.862,43.195z"/>
		<path style="fill-rule:evenodd;clip-rule:evenodd;fill:#FFFFFF;" d="M83.238,42.627c1.529-0.714,4.633-0.704,4.543,1.468
			c0.033,0.899-0.061,1.926,0.049,2.747c-0.059,0.516,0.232,0.679,0.422,0.947c-0.176,0.281-0.328,0.584-0.471,0.899
			c-0.451-0.188-0.744-0.54-0.936-0.995c-0.523,0.372-0.996,0.794-1.828,0.854c-0.217,0-0.438,0-0.654,0
			c-1.811-0.066-2.166-2.633-0.938-3.505c0.854-0.607,2.031-0.468,3.326-0.616c0.078-0.914-0.408-1.26-1.219-1.277
			c-0.111-0.079-0.545-0.079-0.656,0c-0.668,0.065-1.152,0.317-1.639,0.568C83.238,43.354,83.238,42.99,83.238,42.627z
			 M86.189,45.279c-0.889,0.036-2.025,0.101-2.344,0.757c-0.316,0.657-0.002,1.528,0.846,1.516c0.08,0.079,0.48,0.079,0.561,0
			c0.654-0.034,1.037-0.343,1.453-0.616c0.078-0.457,0.078-1.246,0-1.703c-0.016,0-0.031,0-0.047,0
			C86.516,45.262,86.254,45.17,86.189,45.279z"/>
	</g>
</g>
</svg>
