<?xml version="1.0" encoding="iso-8859-1"?>
<!-- Generator: Adobe Illustrator 14.0.0, SVG Export Plug-In . SVG Version: 6.00 Build 43363)  -->
<!DOCTYPE svg PUBLIC "-//W3C//DTD SVG 1.1//EN" "http://www.w3.org/Graphics/SVG/1.1/DTD/svg11.dtd">
<svg version="1.1" id="Calque_1" xmlns="http://www.w3.org/2000/svg" xmlns:xlink="http://www.w3.org/1999/xlink" x="0px" y="0px"
	 width="120px" height="77px" viewBox="0 0 120 77" style="enable-background:new 0 0 120 77;" xml:space="preserve">
<rect style="fill-rule:evenodd;clip-rule:evenodd;fill:#0055C8;" width="120" height="77"/>
<g>
	<path style="fill:#FFFFFF;" d="M26.592,60.209c-4.81,0-8.505-1.056-11.672-2.991l3.343-6.452c2.288,1.584,4.634,2.64,7.859,2.64
		c3.226,0,7.273-1.936,7.273-6.804c0-2.992-1.994-7.098-9.619-7.215c-2.347,0-5.103-0.059-6.452-0.059l1.642-21.526h21.761v6.921
		H25.829l-0.586,7.86c0.234,0,0.762,0.059,1.173,0.059c11.32,0.528,15.896,6.921,15.896,13.139
		C42.311,53.698,36.035,60.209,26.592,60.209z"/>
	<path style="fill:#FFFFFF;" d="M54.074,60.326c-2.346,0-4.458-0.293-6.217-0.704l1.291-7.038c1.114,0.469,3.285,0.997,5.689,0.997
		c5.807,0,10.03-4.634,10.616-12.963c-1.407,1.232-4.105,2.815-8.563,2.815c-6.862,0-12.376-4.517-12.376-12.259
		c0-8.27,5.514-14.37,14.194-14.37c11.32,0,15.368,7.859,15.368,18.828C74.076,50.003,67.33,60.326,54.074,60.326z M59.06,23.315
		c-4.106,0-6.217,3.343-6.217,6.921c0,3.871,2.581,6.687,6.687,6.687c2.64,0,4.751-0.997,5.572-2.287
		c0.469-0.704,0.469-2.346,0.469-3.578C65.57,27.128,63.283,23.315,59.06,23.315z"/>
	<path style="fill:#FFFFFF;" d="M87.312,60.209c-4.81,0-8.505-1.056-11.673-2.991l3.344-6.452c2.287,1.584,4.634,2.64,7.859,2.64
		c3.227,0,7.273-1.936,7.273-6.804c0-2.992-1.994-7.098-9.619-7.215c-2.347,0-5.104-0.059-6.452-0.059l1.642-21.526h21.762v6.921
		H86.549l-0.586,7.86c0.234,0,0.762,0.059,1.172,0.059c11.32,0.528,15.896,6.921,15.896,13.139
		C103.031,53.698,96.755,60.209,87.312,60.209z"/>
</g>
</svg>
