<svg xmlns="http://www.w3.org/2000/svg" viewBox="0 0 120 77"><title>59genRVB</title><rect width="120" height="77" fill="#dc9600"/><path d="M33.13618,69.5891c-6.942,0-12.27535-1.52382-16.847-4.31764l4.82551-9.312A18.84244,18.84244,0,0,0,32.459,59.769c4.65622,0,10.49748-2.79382,10.49748-9.82053,0-4.31764-2.87836-10.24344-13.88392-10.41294-3.38623,0-7.36529-.08475-9.31245-.08475L22.13062,8.38124H53.53894v9.98961H32.03569L31.189,29.71541c.33858,0,1.1007.08434,1.69312.08434,16.33916.76191,22.94253,9.98961,22.94253,18.96347C55.82468,60.19232,46.76627,69.5891,33.13618,69.5891Z"/><path d="M75.71956,69.7586a39.69111,39.69111,0,0,1-8.97386-1.01616l1.86241-10.15869a23.074,23.074,0,0,0,8.212,1.43908c8.381,0,14.47634-6.68771,15.323-18.70964C90.11115,43.09125,86.21684,45.377,79.783,45.377c-9.90486,0-17.863-6.51863-17.863-17.6939C61.92,15.74653,69.8781,6.942,82.40728,6.942c16.33916,0,22.18062,11.34435,22.18062,27.17543C104.5879,54.85893,94.85212,69.7586,75.71956,69.7586Zm7.19579-53.41944c-5.92622,0-8.97386,4.82531-8.97386,9.98961,0,5.58763,3.72481,9.651,9.651,9.651,3.80956,0,6.85721-1.43908,8.04245-3.3019.67758-1.01533.67758-3.38582.67758-5.16389C92.31255,21.84162,89.01066,16.33915,82.91536,16.33915Z"/></svg>