<?xml version="1.0" encoding="utf-8"?>
<!-- Generator: Adobe Illustrator 16.0.3, SVG Export Plug-In . SVG Version: 6.00 Build 0)  -->
<!DOCTYPE svg PUBLIC "-//W3C//DTD SVG 1.1//EN" "http://www.w3.org/Graphics/SVG/1.1/DTD/svg11.dtd">
<svg version="1.1" id="Calque_1" xmlns="http://www.w3.org/2000/svg" xmlns:xlink="http://www.w3.org/1999/xlink" x="0px" y="0px"
	 width="120px" height="77px" viewBox="0 0 120 77" enable-background="new 0 0 120 77" xml:space="preserve">
<rect x="0.283" fill-rule="evenodd" clip-rule="evenodd" fill="#CEACD2" width="120" height="77"/>
<g>
	<path fill="#1D1D1B" d="M28.405,61.104c-11.309,0-15.352-7.852-15.352-18.809c0-14.355,6.738-24.668,19.98-24.668
		c2.344,0,4.453,0.293,6.211,0.703l-1.289,7.031c-1.113-0.469-3.281-0.996-5.684-0.996c-5.801,0-10.02,4.629-10.605,12.949
		c1.406-1.23,4.102-2.813,8.555-2.813c6.855,0,12.363,4.512,12.363,12.246C42.584,55.011,37.077,61.104,28.405,61.104z
		 M27.584,41.007c-2.637,0-4.746,0.996-5.566,2.285c-0.469,0.703-0.469,2.344-0.469,3.574c0,3.926,2.285,7.734,6.504,7.734
		c4.102,0,6.211-3.34,6.211-6.914C34.264,43.819,31.686,41.007,27.584,41.007z"/>
	<path fill="#1D1D1B" d="M60.165,61.222c-12.48,0-14.941-12.305-14.941-21.855s2.695-21.855,15.176-21.855
		c12.48,0,14.941,12.305,14.941,21.855S72.645,61.222,60.165,61.222z M60.282,24.483c-5.977,0-6.152,10.664-6.152,14.883
		c0,4.16,0.293,14.941,6.152,14.941c5.859,0,6.093-10.84,6.093-14.941C66.375,35.03,66.199,24.483,60.282,24.483z"/>
	<path fill="#1D1D1B" d="M104.17,51.495v8.613h-8.203v-8.613H77.334v-7.676l16.055-25.078h10.781V45.05h4.863v6.445H104.17z
		 M95.967,26.007H95.85c-0.176,0.703-1.348,3.223-2.988,5.801L84.424,45.05h11.543V26.007z"/>
</g>
</svg>
