<?xml version="1.0" encoding="utf-8"?>
<!-- Generator: Adobe Illustrator 16.0.3, SVG Export Plug-In . SVG Version: 6.00 Build 0)  -->
<!DOCTYPE svg PUBLIC "-//W3C//DTD SVG 1.1//EN" "http://www.w3.org/Graphics/SVG/1.1/DTD/svg11.dtd">
<svg version="1.1" id="Calque_1" xmlns="http://www.w3.org/2000/svg" xmlns:xlink="http://www.w3.org/1999/xlink" x="0px" y="0px"
	 width="120px" height="77px" viewBox="0 0 120 77" enable-background="new 0 0 120 77" xml:space="preserve">
<rect x="0.283" fill-rule="evenodd" clip-rule="evenodd" fill="#D5C900" width="120" height="77"/>
<g>
	<path fill="#1D1D1B" d="M29.577,61.104c-11.309,0-15.352-7.852-15.352-18.809c0-14.355,6.738-24.668,19.98-24.668
		c2.344,0,4.453,0.293,6.211,0.703l-1.289,7.031c-1.113-0.469-3.281-0.996-5.684-0.996c-5.801,0-10.02,4.629-10.605,12.949
		c1.406-1.23,4.102-2.813,8.555-2.813c6.855,0,12.363,4.512,12.363,12.246C43.756,55.011,38.249,61.104,29.577,61.104z
		 M28.756,41.007c-2.637,0-4.746,0.996-5.566,2.285c-0.469,0.703-0.469,2.344-0.469,3.574c0,3.926,2.285,7.734,6.504,7.734
		c4.102,0,6.211-3.34,6.211-6.914C35.436,43.819,32.858,41.007,28.756,41.007z"/>
	<path fill="#1D1D1B" d="M61.336,61.222c-12.48,0-14.941-12.305-14.941-21.855S49.09,17.511,61.57,17.511
		c12.48,0,14.941,12.305,14.941,21.855S73.816,61.222,61.336,61.222z M61.453,24.483c-5.976,0-6.152,10.664-6.152,14.883
		c0,4.16,0.293,14.941,6.152,14.941c5.859,0,6.094-10.84,6.094-14.941C67.547,35.03,67.371,24.483,61.453,24.483z"/>
	<path fill="#1D1D1B" d="M89.697,61.104c-4.805,0-8.496-1.055-11.66-2.988l3.34-6.445c2.285,1.582,4.629,2.637,7.852,2.637
		s7.266-1.934,7.266-6.797c0-2.988-1.992-7.09-9.609-7.207c-2.344,0-5.098-0.059-6.445-0.059l1.641-21.504h21.738v6.914H88.936
		l-0.586,7.852c0.234,0,0.762,0.059,1.172,0.059C100.83,34.093,105.4,40.479,105.4,46.69C105.4,54.601,99.131,61.104,89.697,61.104z
		"/>
</g>
</svg>
