<?xml version="1.0" encoding="iso-8859-1"?>
<!-- Generator: Adobe Illustrator 14.0.0, SVG Export Plug-In . SVG Version: 6.00 Build 43363)  -->
<!DOCTYPE svg PUBLIC "-//W3C//DTD SVG 1.1//EN" "http://www.w3.org/Graphics/SVG/1.1/DTD/svg11.dtd">
<svg version="1.1" id="Calque_1" xmlns="http://www.w3.org/2000/svg" xmlns:xlink="http://www.w3.org/1999/xlink" x="0px" y="0px"
	 width="120px" height="77px" viewBox="0 0 120 77" style="enable-background:new 0 0 120 77;" xml:space="preserve">
<g>
	<rect style="fill-rule:evenodd;clip-rule:evenodd;fill:#FF1400;" width="120" height="77"/>
	<g>
		<path style="fill:#FFFFFF;" d="M36.734,69.817c-16.338,0-22.18-11.344-22.18-27.175c0-20.741,9.735-35.64,28.868-35.64
			c3.386,0,6.434,0.423,8.974,1.016l-1.863,10.159c-1.608-0.677-4.741-1.439-8.211-1.439c-8.381,0-14.476,6.688-15.323,18.709
			c2.032-1.778,5.926-4.063,12.36-4.063c9.905,0,17.862,6.518,17.862,17.692C57.221,61.013,49.264,69.817,36.734,69.817z
			 M35.549,40.78c-3.81,0-6.857,1.439-8.042,3.302c-0.677,1.016-0.677,3.386-0.677,5.164c0,5.672,3.302,11.174,9.397,11.174
			c5.926,0,8.974-4.825,8.974-9.989C45.2,44.844,41.475,40.78,35.549,40.78z"/>
		<path style="fill:#FFFFFF;" d="M83.518,69.986c-18.031,0-21.588-17.777-21.588-31.576c0-13.799,3.895-31.577,21.926-31.577
			c18.032,0,21.588,17.778,21.588,31.577C105.443,52.209,101.549,69.986,83.518,69.986z M83.687,16.907
			c-8.635,0-8.889,15.407-8.889,21.503c0,6.01,0.423,21.587,8.889,21.587S92.49,44.336,92.49,38.41
			C92.49,32.146,92.236,16.907,83.687,16.907z"/>
	</g>
</g>
</svg>
