<?xml version="1.0" encoding="utf-8"?>
<!-- Generator: Adobe Illustrator 16.0.3, SVG Export Plug-In . SVG Version: 6.00 Build 0)  -->
<!DOCTYPE svg PUBLIC "-//W3C//DTD SVG 1.1//EN" "http://www.w3.org/Graphics/SVG/1.1/DTD/svg11.dtd">
<svg version="1.1" id="Calque_1" xmlns="http://www.w3.org/2000/svg" xmlns:xlink="http://www.w3.org/1999/xlink" x="0px" y="0px"
	 width="120px" height="77px" viewBox="0 0 120 77" enable-background="new 0 0 120 77" xml:space="preserve">
<rect x="0.283" fill-rule="evenodd" clip-rule="evenodd" fill="#7AB788" width="120" height="77"/>
<g>
	<path fill="#1D1D1B" d="M33.092,61.104c-11.309,0-15.352-7.852-15.352-18.809c0-14.355,6.738-24.668,19.98-24.668
		c2.344,0,4.453,0.293,6.211,0.703l-1.289,7.031c-1.113-0.469-3.281-0.996-5.684-0.996c-5.801,0-10.02,4.629-10.605,12.949
		c1.406-1.23,4.102-2.813,8.555-2.813c6.855,0,12.363,4.512,12.363,12.246C47.272,55.011,41.764,61.104,33.092,61.104z
		 M32.272,41.007c-2.637,0-4.746,0.996-5.566,2.285c-0.469,0.703-0.469,2.344-0.469,3.574c0,3.926,2.285,7.734,6.504,7.734
		c4.102,0,6.211-3.34,6.211-6.914C38.952,43.819,36.374,41.007,32.272,41.007z"/>
	<path fill="#1D1D1B" d="M59.227,60.108v-32.52c-2.52,1.992-6.504,3.926-9.258,5.156l-2.813-6.328
		c4.336-1.816,9.551-4.57,13.652-7.676h7.207v41.367H59.227z"/>
	<path fill="#1D1D1B" d="M86.182,61.104c-4.805,0-8.496-1.055-11.66-2.988l3.34-6.445c2.285,1.582,4.629,2.637,7.852,2.637
		s7.266-1.934,7.266-6.797c0-2.988-1.992-7.09-9.609-7.207c-2.344,0-5.098-0.059-6.445-0.059l1.641-21.504h21.738v6.914H85.42
		l-0.586,7.852c0.234,0,0.762,0.059,1.172,0.059c11.309,0.527,15.879,6.914,15.879,13.125
		C101.885,54.601,95.615,61.104,86.182,61.104z"/>
</g>
</svg>
