<?xml version="1.0" encoding="utf-8"?>
<!-- Generator: Adobe Illustrator 16.0.3, SVG Export Plug-In . SVG Version: 6.00 Build 0)  -->
<!DOCTYPE svg PUBLIC "-//W3C//DTD SVG 1.1//EN" "http://www.w3.org/Graphics/SVG/1.1/DTD/svg11.dtd">
<svg version="1.1" id="Calque_1" xmlns="http://www.w3.org/2000/svg" xmlns:xlink="http://www.w3.org/1999/xlink" x="0px" y="0px"
	 width="120px" height="77px" viewBox="0 0 120 77" enable-background="new 0 0 120 77" xml:space="preserve">
<rect x="0.283" fill-rule="evenodd" clip-rule="evenodd" fill="#E3B32A" width="120" height="77"/>
<g>
	<path fill="#1D1D1B" d="M33.092,61.104c-11.309,0-15.352-7.852-15.352-18.809c0-14.355,6.738-24.668,19.98-24.668
		c2.344,0,4.453,0.293,6.211,0.703l-1.289,7.031c-1.113-0.469-3.281-0.996-5.684-0.996c-5.801,0-10.02,4.629-10.605,12.949
		c1.406-1.23,4.102-2.813,8.555-2.813c6.855,0,12.363,4.512,12.363,12.246C47.272,55.011,41.764,61.104,33.092,61.104z
		 M32.272,41.007c-2.637,0-4.746,0.996-5.566,2.285c-0.469,0.703-0.469,2.344-0.469,3.574c0,3.926,2.285,7.734,6.504,7.734
		c4.102,0,6.211-3.34,6.211-6.914C38.952,43.819,36.374,41.007,32.272,41.007z"/>
	<path fill="#1D1D1B" d="M59.227,60.108v-32.52c-2.52,1.992-6.504,3.926-9.258,5.156l-2.813-6.328
		c4.336-1.816,9.551-4.57,13.652-7.676h7.207v41.367H59.227z"/>
	<path fill="#1D1D1B" d="M88.232,61.222c-9.199,0-14.414-5.508-14.414-11.777c0-5.508,3.105-8.965,7.09-11.016
		c-3.574-2.227-5.801-5.039-5.801-9.316c0-6.855,6.211-11.602,13.301-11.602c7.266,0,13.301,3.574,13.301,10.664
		c0,3.867-1.992,7.148-5.859,9.492c3.809,1.816,7.148,5.332,7.148,10.781C102.998,56.3,96.729,61.222,88.232,61.222z M87.529,41.3
		c-2.695,1.055-5.391,3.984-5.391,7.207c0,3.398,2.227,6.621,6.211,6.621c3.926,0,6.094-2.754,6.094-6.035
		C94.443,45.343,91.045,43.058,87.529,41.3z M88.525,23.487c-3.223,0-5.273,1.992-5.273,4.863c0,3.398,3.398,5.508,6.035,6.621
		c2.168-0.996,4.512-3.691,4.512-6.27C93.799,25.831,91.924,23.487,88.525,23.487z"/>
</g>
</svg>
