<?xml version="1.0" encoding="iso-8859-1"?>
<!-- Generator: Adobe Illustrator 14.0.0, SVG Export Plug-In . SVG Version: 6.00 Build 43363)  -->
<!DOCTYPE svg PUBLIC "-//W3C//DTD SVG 1.1//EN" "http://www.w3.org/Graphics/SVG/1.1/DTD/svg11.dtd">
<svg version="1.1" id="Calque_1" xmlns="http://www.w3.org/2000/svg" xmlns:xlink="http://www.w3.org/1999/xlink" x="0px" y="0px"
	 width="120px" height="77px" viewBox="0 0 120 77" style="enable-background:new 0 0 120 77;" xml:space="preserve">
<g>
	<rect style="fill-rule:evenodd;clip-rule:evenodd;fill:#00643C;" width="120" height="77"/>
	<g>
		<path style="fill:#FFFFFF;" d="M43.935,69.817c-16.338,0-22.18-11.344-22.18-27.175c0-20.741,9.735-35.64,28.868-35.64
			c3.386,0,6.434,0.423,8.974,1.016l-1.863,10.159c-1.608-0.677-4.741-1.439-8.211-1.439c-8.381,0-14.476,6.688-15.323,18.709
			c2.032-1.778,5.926-4.063,12.36-4.063c9.905,0,17.862,6.518,17.862,17.692C64.422,61.013,56.464,69.817,43.935,69.817z
			 M42.75,40.78c-3.81,0-6.857,1.439-8.042,3.302c-0.677,1.016-0.677,3.386-0.677,5.164c0,5.672,3.302,11.174,9.397,11.174
			c5.926,0,8.974-4.825,8.974-9.989C52.401,44.844,48.676,40.78,42.75,40.78z"/>
		<path style="fill:#FFFFFF;" d="M81.651,68.378V21.394c-3.64,2.878-9.396,5.671-13.376,7.45l-4.063-9.143
			c6.264-2.624,13.799-6.603,19.725-11.09H94.35v59.767H81.651z"/>
	</g>
</g>
</svg>
