<?xml version="1.0" encoding="utf-8"?>
<!-- Generator: Adobe Illustrator 21.0.2, SVG Export Plug-In . SVG Version: 6.00 Build 0)  -->
<svg version="1.1" id="Calque_1" xmlns="http://www.w3.org/2000/svg" xmlns:xlink="http://www.w3.org/1999/xlink" x="0px" y="0px"
	 viewBox="0 0 120 77" style="enable-background:new 0 0 120 77;" xml:space="preserve">
<style type="text/css">
	.st0{fill-rule:evenodd;clip-rule:evenodd;fill:#6E491E;}
	.st1{fill:#FFFFFF;}
</style>
<g>
	<rect class="st0" width="120" height="77"/>
	<g>
		<path class="st1" d="M40.2,69.8C23.8,69.8,18,58.5,18,42.6C18,21.9,27.7,7,46.8,7c3.4,0,6.4,0.4,9,1l-1.9,10.2
			c-1.6-0.7-4.7-1.4-8.2-1.4c-8.4,0-14.5,6.7-15.3,18.7c2-1.8,5.9-4.1,12.4-4.1c9.9,0,17.9,6.5,17.9,17.7
			C60.6,61,52.7,69.8,40.2,69.8z M39,40.8c-3.8,0-6.9,1.4-8,3.3c-0.7,1-0.7,3.4-0.7,5.2c0,5.7,3.3,11.2,9.4,11.2c5.9,0,9-4.8,9-10
			C48.6,44.8,44.9,40.8,39,40.8z"/>
		<path class="st1" d="M64.4,68.4v-7.9c1.5-6.9,8.4-13.3,16.3-20.2c4-3.5,8.3-7.8,8.3-13.5c0-5.2-3.4-9.5-9.9-9.5
			c-5.2,0-8.9,3.8-10.3,5.4l-6.3-8.3C68.3,9.4,73.7,7,81.7,7c10.5,0,20.4,6.1,20.4,18.3c0,10.2-6.5,15.1-13.7,21.6
			c-3,2.8-9.1,8-9.8,11.5h24.6v10H64.4z"/>
	</g>
</g>
</svg>
