<?xml version="1.0" encoding="utf-8"?>
<!-- Generator: Adobe Illustrator 16.0.3, SVG Export Plug-In . SVG Version: 6.00 Build 0)  -->
<!DOCTYPE svg PUBLIC "-//W3C//DTD SVG 1.1//EN" "http://www.w3.org/Graphics/SVG/1.1/DTD/svg11.dtd">
<svg version="1.1" id="Calque_1" xmlns="http://www.w3.org/2000/svg" xmlns:xlink="http://www.w3.org/1999/xlink" x="0px" y="0px"
	 width="120px" height="77px" viewBox="0 0 120 77" enable-background="new 0 0 120 77" xml:space="preserve">
<rect x="0.283" fill-rule="evenodd" clip-rule="evenodd" fill="#F3A4BA" width="120" height="77"/>
<g>
	<path fill="#1D1D1B" d="M30.163,61.104c-11.309,0-15.352-7.852-15.352-18.809c0-14.355,6.738-24.668,19.98-24.668
		c2.344,0,4.453,0.293,6.211,0.703l-1.289,7.031c-1.113-0.469-3.281-0.996-5.684-0.996c-5.801,0-10.02,4.629-10.605,12.949
		c1.406-1.23,4.102-2.813,8.555-2.813c6.855,0,12.363,4.512,12.363,12.246C44.342,55.011,38.834,61.104,30.163,61.104z
		 M29.342,41.007c-2.637,0-4.746,0.996-5.566,2.285c-0.469,0.703-0.469,2.344-0.469,3.574c0,3.926,2.285,7.734,6.504,7.734
		c4.102,0,6.211-3.34,6.211-6.914C36.022,43.819,33.444,41.007,29.342,41.007z"/>
	<path fill="#1D1D1B" d="M58.231,61.104c-5.918,0-9.199-1.465-11.953-3.105l3.223-6.387c1.758,1.23,4.629,2.695,8.145,2.695
		c4.804,0,7.792-2.813,7.792-6.328c0-4.746-3.633-6.387-7.851-6.387h-4.277v-6.855h4.336c4.042,0,6.562-2.109,6.562-5.273
		c0-2.637-1.992-5.039-6.328-5.039c-3.809,0-6.328,1.816-7.676,2.988l-2.988-6.094c3.516-2.344,7.324-3.691,12.539-3.691
		c8.437,0,13.242,5.039,13.242,10.547c0,4.277-2.285,7.676-6.68,9.316v0.117c4.57,0.879,8.027,4.395,8.027,10.195
		C74.344,55.069,67.84,61.104,58.231,61.104z"/>
	<path fill="#1D1D1B" d="M91.279,60.108h-9.434c0-5.449,1.465-8.965,5.098-15.703l10.078-18.75H76.924v-6.914h28.945v6.738
		C96.787,41.241,91.279,53.604,91.279,60.108z"/>
</g>
</svg>
