<?xml version="1.0" encoding="iso-8859-1"?>
<!-- Generator: Adobe Illustrator 14.0.0, SVG Export Plug-In . SVG Version: 6.00 Build 43363)  -->
<!DOCTYPE svg PUBLIC "-//W3C//DTD SVG 1.1//EN" "http://www.w3.org/Graphics/SVG/1.1/DTD/svg11.dtd">
<svg version="1.1" id="Calque_1" xmlns="http://www.w3.org/2000/svg" xmlns:xlink="http://www.w3.org/1999/xlink" x="0px" y="0px"
	 width="120px" height="77px" viewBox="0 0 120 77" style="enable-background:new 0 0 120 77;" xml:space="preserve">
<g>
	<rect style="fill-rule:evenodd;clip-rule:evenodd;fill:#D2D200;" width="120" height="77"/>
	<g>
		<path d="M40.18,69.817C23.842,69.817,18,58.474,18,42.643c0-20.741,9.735-35.64,28.868-35.64c3.386,0,6.434,0.423,8.974,1.016
			l-1.863,10.159c-1.608-0.677-4.741-1.439-8.211-1.439c-8.381,0-14.476,6.688-15.323,18.709c2.032-1.778,5.926-4.063,12.36-4.063
			c9.905,0,17.862,6.518,17.862,17.692C60.667,61.013,52.709,69.817,40.18,69.817z M38.995,40.78c-3.81,0-6.857,1.439-8.042,3.302
			c-0.677,1.016-0.677,3.386-0.677,5.164c0,5.672,3.302,11.174,9.397,11.174c5.926,0,8.974-4.825,8.974-9.989
			C48.646,44.844,44.921,40.78,38.995,40.78z"/>
		<path d="M79.226,69.817c-8.55,0-13.291-2.117-17.27-4.487l4.655-9.228c2.541,1.778,6.688,3.895,11.768,3.895
			c6.941,0,11.26-4.063,11.26-9.143c0-6.857-5.249-9.228-11.344-9.228h-6.18v-9.905h6.264c5.842,0,9.481-3.047,9.481-7.619
			c0-3.81-2.878-7.28-9.143-7.28c-5.503,0-9.143,2.624-11.09,4.317l-4.317-8.804C68.39,8.95,73.893,7.002,81.427,7.002
			c12.19,0,19.132,7.28,19.132,15.238c0,6.18-3.301,11.089-9.65,13.46v0.169c6.604,1.27,11.598,6.35,11.598,14.73
			C102.506,61.098,93.109,69.817,79.226,69.817z"/>
	</g>
</g>
</svg>
