<?xml version="1.0" encoding="utf-8"?>
<!-- Generator: Adobe Illustrator 16.0.3, SVG Export Plug-In . SVG Version: 6.00 Build 0)  -->
<!DOCTYPE svg PUBLIC "-//W3C//DTD SVG 1.1//EN" "http://www.w3.org/Graphics/SVG/1.1/DTD/svg11.dtd">
<svg version="1.1" id="Calque_1" xmlns="http://www.w3.org/2000/svg" xmlns:xlink="http://www.w3.org/1999/xlink" x="0px" y="0px"
	 width="120px" height="77px" viewBox="0 0 120 77" enable-background="new 0 0 120 77" xml:space="preserve">
<rect x="0.283" fill-rule="evenodd" clip-rule="evenodd" fill="#83C491" width="120" height="77"/>
<g>
	<path fill="#1D1D1B" d="M26.646,61.104c-11.309,0-15.352-7.852-15.352-18.809c0-14.355,6.738-24.668,19.98-24.668
		c2.344,0,4.453,0.293,6.211,0.703l-1.289,7.031c-1.113-0.469-3.281-0.996-5.684-0.996c-5.801,0-10.02,4.629-10.605,12.949
		c1.406-1.23,4.102-2.813,8.555-2.813c6.855,0,12.363,4.512,12.363,12.246C40.826,55.011,35.318,61.104,26.646,61.104z
		 M25.826,41.007c-2.637,0-4.746,0.996-5.566,2.285c-0.469,0.703-0.469,2.344-0.469,3.574c0,3.926,2.285,7.734,6.504,7.734
		c4.102,0,6.211-3.34,6.211-6.914C32.506,43.819,29.928,41.007,25.826,41.007z"/>
	<path fill="#1D1D1B" d="M70.77,51.495v8.613h-8.203v-8.613H43.934v-7.676l16.054-25.078H70.77V45.05h4.863v6.445H70.77z
		 M62.566,26.007h-0.117c-0.176,0.703-1.348,3.223-2.989,5.801L51.023,45.05h11.543V26.007z"/>
	<path fill="#1D1D1B" d="M105.928,51.495v8.613h-8.203v-8.613H79.092v-7.676l16.055-25.078h10.781V45.05h4.863v6.445H105.928z
		 M97.725,26.007h-0.117c-0.176,0.703-1.348,3.223-2.988,5.801L86.182,45.05h11.543V26.007z"/>
</g>
</svg>
