<?xml version="1.0" encoding="utf-8"?>
<!-- Generator: Adobe Illustrator 16.0.3, SVG Export Plug-In . SVG Version: 6.00 Build 0)  -->
<!DOCTYPE svg PUBLIC "-//W3C//DTD SVG 1.1//EN" "http://www.w3.org/Graphics/SVG/1.1/DTD/svg11.dtd">
<svg version="1.1" id="Calque_1" xmlns="http://www.w3.org/2000/svg" xmlns:xlink="http://www.w3.org/1999/xlink" x="0px" y="0px"
	 width="120px" height="77px" viewBox="0 0 120 77" enable-background="new 0 0 120 77" xml:space="preserve">
<rect x="0.283" fill-rule="evenodd" clip-rule="evenodd" fill="#D5C900" width="120" height="77"/>
<g>
	<path fill="#1D1D1B" d="M27.232,61.104c-11.309,0-15.352-7.852-15.352-18.809c0-14.355,6.738-24.668,19.98-24.668
		c2.344,0,4.453,0.293,6.211,0.703l-1.289,7.031c-1.113-0.469-3.281-0.996-5.684-0.996c-5.801,0-10.02,4.629-10.605,12.949
		c1.406-1.23,4.102-2.813,8.555-2.813c6.855,0,12.363,4.512,12.363,12.246C41.412,55.011,35.904,61.104,27.232,61.104z
		 M26.412,41.007c-2.637,0-4.746,0.996-5.566,2.285c-0.469,0.703-0.469,2.344-0.469,3.574c0,3.926,2.285,7.734,6.504,7.734
		c4.102,0,6.211-3.34,6.211-6.914C33.092,43.819,30.514,41.007,26.412,41.007z"/>
	<path fill="#1D1D1B" d="M71.355,51.495v8.613h-8.203v-8.613H44.52v-7.676l16.054-25.078h10.782V45.05h4.863v6.445H71.355z
		 M63.152,26.007h-0.117c-0.176,0.703-1.348,3.223-2.989,5.801L51.609,45.05h11.543V26.007z"/>
	<path fill="#1D1D1B" d="M92.041,61.104c-4.805,0-8.496-1.055-11.66-2.988l3.34-6.445c2.285,1.582,4.629,2.637,7.852,2.637
		s7.266-1.934,7.266-6.797c0-2.988-1.992-7.09-9.609-7.207c-2.344,0-5.098-0.059-6.445-0.059l1.641-21.504h21.738v6.914H91.279
		l-0.586,7.852c0.234,0,0.762,0.059,1.172,0.059c11.309,0.527,15.879,6.914,15.879,13.125
		C107.744,54.601,101.475,61.104,92.041,61.104z"/>
</g>
</svg>
