<?xml version="1.0" encoding="iso-8859-1"?>
<!-- Generator: Adobe Illustrator 14.0.0, SVG Export Plug-In . SVG Version: 6.00 Build 43363)  -->
<!DOCTYPE svg PUBLIC "-//W3C//DTD SVG 1.1//EN" "http://www.w3.org/Graphics/SVG/1.1/DTD/svg11.dtd">
<svg version="1.1" id="Calque_1" xmlns="http://www.w3.org/2000/svg" xmlns:xlink="http://www.w3.org/1999/xlink" x="0px" y="0px"
	 width="120px" height="77px" viewBox="0 0 120 77" style="enable-background:new 0 0 120 77;" xml:space="preserve">
<g>
	<rect style="fill-rule:evenodd;clip-rule:evenodd;fill:#82DC73;" width="120" height="77"/>
	<g>
		<path d="M36.265,69.817c-16.338,0-22.18-11.344-22.18-27.175c0-20.741,9.735-35.64,28.868-35.64c3.386,0,6.434,0.423,8.974,1.016
			l-1.863,10.159c-1.608-0.677-4.741-1.439-8.211-1.439c-8.381,0-14.476,6.688-15.323,18.709c2.032-1.778,5.926-4.063,12.36-4.063
			c9.905,0,17.862,6.518,17.862,17.692C56.751,61.013,48.794,69.817,36.265,69.817z M35.08,40.78c-3.81,0-6.857,1.439-8.042,3.302
			c-0.677,1.016-0.677,3.386-0.677,5.164c0,5.672,3.302,11.174,9.397,11.174c5.926,0,8.974-4.825,8.974-9.989
			C44.73,44.844,41.005,40.78,35.08,40.78z"/>
		<path d="M99.733,55.934v12.444H87.882V55.934H60.961v-11.09L84.156,8.611h15.577v38.01h7.026v9.313H99.733z M87.882,19.108h-0.169
			c-0.254,1.016-1.947,4.656-4.318,8.381L71.205,46.621h16.677V19.108z"/>
	</g>
</g>
</svg>
