<?xml version="1.0" encoding="iso-8859-1"?>
<!-- Generator: Adobe Illustrator 14.0.0, SVG Export Plug-In . SVG Version: 6.00 Build 43363)  -->
<!DOCTYPE svg PUBLIC "-//W3C//DTD SVG 1.1//EN" "http://www.w3.org/Graphics/SVG/1.1/DTD/svg11.dtd">
<svg version="1.1" id="Calque_1" xmlns="http://www.w3.org/2000/svg" xmlns:xlink="http://www.w3.org/1999/xlink" x="0px" y="0px"
	 width="120px" height="77px" viewBox="0 0 120 77" style="enable-background:new 0 0 120 77;" xml:space="preserve">
<g>
	<rect style="fill-rule:evenodd;clip-rule:evenodd;fill:#FF82B4;" width="120" height="77"/>
	<g>
		<path d="M40.752,69.817c-16.338,0-22.18-11.344-22.18-27.175c0-20.741,9.735-35.64,28.868-35.64c3.386,0,6.434,0.423,8.974,1.016
			l-1.863,10.159c-1.608-0.677-4.741-1.439-8.211-1.439c-8.381,0-14.476,6.688-15.323,18.709c2.032-1.778,5.926-4.063,12.36-4.063
			c9.905,0,17.862,6.518,17.862,17.692C61.238,61.013,53.281,69.817,40.752,69.817z M39.567,40.78c-3.81,0-6.857,1.439-8.042,3.302
			c-0.677,1.016-0.677,3.386-0.677,5.164c0,5.672,3.302,11.174,9.397,11.174c5.926,0,8.974-4.825,8.974-9.989
			C49.218,44.844,45.493,40.78,39.567,40.78z"/>
		<path d="M82.887,68.378H69.258c0-7.873,2.116-12.952,7.365-22.688l14.561-27.09H62.146v-9.99h41.82v9.735
			C90.845,41.119,82.887,58.981,82.887,68.378z"/>
	</g>
</g>
</svg>
