<?xml version="1.0" encoding="iso-8859-1"?>
<!-- Generator: Adobe Illustrator 14.0.0, SVG Export Plug-In . SVG Version: 6.00 Build 43363)  -->
<!DOCTYPE svg PUBLIC "-//W3C//DTD SVG 1.1//EN" "http://www.w3.org/Graphics/SVG/1.1/DTD/svg11.dtd">
<svg version="1.1" id="Calque_1" xmlns="http://www.w3.org/2000/svg" xmlns:xlink="http://www.w3.org/1999/xlink" x="0px" y="0px"
	 width="120px" height="77px" viewBox="0 0 120 77" style="enable-background:new 0 0 120 77;" xml:space="preserve">
<g>
	<rect style="fill-rule:evenodd;clip-rule:evenodd;fill:#FFBE00;" width="120" height="77"/>
	<g>
		<path d="M37.319,69.817c-16.338,0-22.18-11.344-22.18-27.175c0-20.741,9.735-35.64,28.868-35.64c3.386,0,6.434,0.423,8.974,1.016
			l-1.863,10.159c-1.608-0.677-4.741-1.439-8.211-1.439c-8.381,0-14.476,6.688-15.323,18.709c2.032-1.778,5.926-4.063,12.36-4.063
			c9.905,0,17.862,6.518,17.862,17.692C57.806,61.013,49.848,69.817,37.319,69.817z M36.134,40.78c-3.81,0-6.857,1.439-8.042,3.302
			c-0.677,1.016-0.677,3.386-0.677,5.164c0,5.672,3.302,11.174,9.397,11.174c5.926,0,8.974-4.825,8.974-9.989
			C45.785,44.844,42.06,40.78,36.134,40.78z"/>
		<path d="M83.525,69.986c-13.291,0-20.824-7.958-20.824-17.016c0-7.958,4.486-12.952,10.242-15.915
			c-5.163-3.217-8.381-7.281-8.381-13.46c0-9.905,8.975-16.762,19.217-16.762c10.498,0,19.218,5.164,19.218,15.408
			c0,5.587-2.878,10.328-8.466,13.714c5.502,2.624,10.328,7.703,10.328,15.576C104.859,62.875,95.801,69.986,83.525,69.986z
			 M82.51,41.203c-3.894,1.524-7.788,5.757-7.788,10.413c0,4.91,3.217,9.566,8.974,9.566c5.672,0,8.805-3.979,8.805-8.72
			C92.5,47.045,87.59,43.743,82.51,41.203z M83.949,15.468c-4.656,0-7.619,2.878-7.619,7.026c0,4.91,4.91,7.958,8.72,9.566
			c3.132-1.439,6.519-5.333,6.519-9.058C91.568,18.854,88.859,15.468,83.949,15.468z"/>
	</g>
</g>
</svg>
