<?xml version="1.0" encoding="utf-8"?>
<!-- Generator: Adobe Illustrator 16.0.3, SVG Export Plug-In . SVG Version: 6.00 Build 0)  -->
<!DOCTYPE svg PUBLIC "-//W3C//DTD SVG 1.1//EN" "http://www.w3.org/Graphics/SVG/1.1/DTD/svg11.dtd">
<svg version="1.1" id="Calque_1" xmlns="http://www.w3.org/2000/svg" xmlns:xlink="http://www.w3.org/1999/xlink" x="0px" y="0px"
	 width="120px" height="77px" viewBox="0 0 120 77" enable-background="new 0 0 120 77" xml:space="preserve">
<rect x="0.283" fill-rule="evenodd" clip-rule="evenodd" fill="#FFCE00" width="120" height="77"/>
<g>
	<path fill="#1D1D1B" d="M28.405,61.104c-11.309,0-15.352-7.852-15.352-18.809c0-14.355,6.738-24.668,19.98-24.668
		c2.344,0,4.453,0.293,6.211,0.703l-1.289,7.031c-1.113-0.469-3.281-0.996-5.684-0.996c-5.801,0-10.02,4.629-10.605,12.949
		c1.406-1.23,4.102-2.813,8.555-2.813c6.855,0,12.363,4.512,12.363,12.246C42.584,55.011,37.077,61.104,28.405,61.104z
		 M27.584,41.007c-2.637,0-4.746,0.996-5.566,2.285c-0.469,0.703-0.469,2.344-0.469,3.574c0,3.926,2.285,7.734,6.504,7.734
		c4.102,0,6.211-3.34,6.211-6.914C34.264,43.819,31.686,41.007,27.584,41.007z"/>
	<path fill="#1D1D1B" d="M53.543,61.222c-2.344,0-4.453-0.293-6.211-0.703l1.289-7.031c1.113,0.469,3.281,0.996,5.684,0.996
		c5.801,0,10.019-4.629,10.605-12.949c-1.406,1.23-4.101,2.813-8.554,2.813c-6.855,0-12.363-4.512-12.363-12.246
		c0-8.262,5.508-14.355,14.18-14.355c11.308,0,15.351,7.852,15.351,18.809C73.523,50.909,66.785,61.222,53.543,61.222z
		 M58.524,24.249c-4.102,0-6.211,3.34-6.211,6.914c0,3.867,2.578,6.68,6.68,6.68c2.636,0,4.746-0.996,5.566-2.285
		c0.469-0.703,0.469-2.344,0.469-3.574C65.027,28.058,62.742,24.249,58.524,24.249z"/>
	<path fill="#1D1D1B" d="M92.979,61.222c-12.48,0-14.941-12.305-14.941-21.855s2.695-21.855,15.176-21.855
		s14.941,12.305,14.941,21.855S105.459,61.222,92.979,61.222z M93.096,24.483c-5.977,0-6.152,10.664-6.152,14.883
		c0,4.16,0.293,14.941,6.152,14.941s6.094-10.84,6.094-14.941C99.189,35.03,99.014,24.483,93.096,24.483z"/>
</g>
</svg>
