<?xml version="1.0" encoding="iso-8859-1"?>
<!-- Generator: Adobe Illustrator 14.0.0, SVG Export Plug-In . SVG Version: 6.00 Build 43363)  -->
<!DOCTYPE svg PUBLIC "-//W3C//DTD SVG 1.1//EN" "http://www.w3.org/Graphics/SVG/1.1/DTD/svg11.dtd">
<svg version="1.1" id="Calque_1" xmlns="http://www.w3.org/2000/svg" xmlns:xlink="http://www.w3.org/1999/xlink" x="0px" y="0px"
	 width="120px" height="77px" viewBox="0 0 120 77" style="enable-background:new 0 0 120 77;" xml:space="preserve">
<g>
	<rect style="fill-rule:evenodd;clip-rule:evenodd;fill:#82C8E6;" width="120" height="77"/>
	<g>
		<path d="M38.635,69.817c-16.338,0-22.18-11.344-22.18-27.175c0-20.741,9.735-35.64,28.868-35.64c3.386,0,6.434,0.423,8.974,1.016
			l-1.863,10.159c-1.608-0.677-4.741-1.439-8.211-1.439c-8.381,0-14.476,6.688-15.323,18.709c2.032-1.778,5.926-4.063,12.36-4.063
			c9.905,0,17.862,6.518,17.862,17.692C59.122,61.013,51.164,69.817,38.635,69.817z M37.45,40.78c-3.81,0-6.857,1.439-8.042,3.302
			c-0.677,1.016-0.677,3.386-0.677,5.164c0,5.672,3.302,11.174,9.397,11.174c5.926,0,8.974-4.825,8.974-9.989
			C47.101,44.844,43.375,40.78,37.45,40.78z"/>
		<path d="M74.675,69.986c-3.386,0-6.435-0.423-8.974-1.016l1.862-10.159c1.608,0.678,4.741,1.439,8.212,1.439
			c8.381,0,14.477-6.688,15.322-18.709c-2.031,1.777-5.926,4.063-12.359,4.063c-9.904,0-17.862-6.519-17.862-17.693
			c0-11.936,7.958-20.74,20.486-20.74c16.339,0,22.181,11.344,22.181,27.175C103.543,55.087,93.807,69.986,74.675,69.986z
			 M81.871,16.568c-5.927,0-8.975,4.826-8.975,9.99c0,5.587,3.725,9.651,9.651,9.651c3.81,0,6.856-1.439,8.042-3.302
			c0.678-1.016,0.678-3.387,0.678-5.164C91.268,22.071,87.966,16.568,81.871,16.568z"/>
	</g>
</g>
</svg>
