<?xml version="1.0" encoding="iso-8859-1"?>
<!-- Generator: Adobe Illustrator 14.0.0, SVG Export Plug-In . SVG Version: 6.00 Build 43363)  -->
<!DOCTYPE svg PUBLIC "-//W3C//DTD SVG 1.1//EN" "http://www.w3.org/Graphics/SVG/1.1/DTD/svg11.dtd">
<svg version="1.1" id="Calque_1" xmlns="http://www.w3.org/2000/svg" xmlns:xlink="http://www.w3.org/1999/xlink" x="0px" y="0px"
	 width="120px" height="77px" viewBox="0 0 120 77" style="enable-background:new 0 0 120 77;" xml:space="preserve">
<g>
	<rect style="fill-rule:evenodd;clip-rule:evenodd;fill:#FF5A00;" width="120" height="77"/>
	<g>
		<path d="M35.406,68.378h-13.63c0-7.873,2.117-12.952,7.365-22.688l14.561-27.09H14.666v-9.99h41.82v9.735
			C43.364,41.119,35.406,58.981,35.406,68.378z"/>
		<path d="M80.444,69.986c-18.032,0-21.587-17.777-21.587-31.576c0-13.799,3.894-31.577,21.926-31.577
			c18.031,0,21.587,17.778,21.587,31.577C102.37,52.209,98.476,69.986,80.444,69.986z M80.613,16.907
			c-8.635,0-8.889,15.407-8.889,21.503c0,6.01,0.424,21.587,8.889,21.587c8.466,0,8.805-15.661,8.805-21.587
			C89.418,32.146,89.164,16.907,80.613,16.907z"/>
	</g>
</g>
</svg>
