<?xml version="1.0" encoding="iso-8859-1"?>
<!-- Generator: Adobe Illustrator 14.0.0, SVG Export Plug-In . SVG Version: 6.00 Build 43363)  -->
<!DOCTYPE svg PUBLIC "-//W3C//DTD SVG 1.1//EN" "http://www.w3.org/Graphics/SVG/1.1/DTD/svg11.dtd">
<svg version="1.1" id="Calque_1" xmlns="http://www.w3.org/2000/svg" xmlns:xlink="http://www.w3.org/1999/xlink" x="0px" y="0px"
	 width="120px" height="77px" viewBox="0 0 120 77" style="enable-background:new 0 0 120 77;" xml:space="preserve">
<g>
	<rect style="fill-rule:evenodd;clip-rule:evenodd;fill:#FF1400;" width="120" height="77"/>
	<g>
		<path style="fill:#FFFFFF;" d="M37.053,68.378h-13.63c0-7.873,2.117-12.952,7.365-22.688l14.561-27.09H16.312v-9.99h41.82v9.735
			C45.01,41.119,37.053,58.981,37.053,68.378z"/>
		<path style="fill:#FFFFFF;" d="M63.137,68.378v-7.873c1.523-6.941,8.381-13.291,16.338-20.232
			c3.979-3.471,8.297-7.789,8.297-13.545c0-5.164-3.387-9.481-9.905-9.481c-5.249,0-8.889,3.809-10.328,5.418l-6.265-8.296
			c5.757-4.995,11.09-7.365,19.133-7.365c10.497,0,20.402,6.095,20.402,18.286c0,10.243-6.52,15.068-13.715,21.587
			c-3.048,2.794-9.059,8.043-9.82,11.514h24.635v9.989H63.137z"/>
	</g>
</g>
</svg>
