<?xml version="1.0" encoding="iso-8859-1"?>
<!-- Generator: Adobe Illustrator 14.0.0, SVG Export Plug-In . SVG Version: 6.00 Build 43363)  -->
<!DOCTYPE svg PUBLIC "-//W3C//DTD SVG 1.1//EN" "http://www.w3.org/Graphics/SVG/1.1/DTD/svg11.dtd">
<svg version="1.1" id="Calque_1" xmlns="http://www.w3.org/2000/svg" xmlns:xlink="http://www.w3.org/1999/xlink" x="0px" y="0px"
	 width="120px" height="77px" viewBox="0 0 120 77" style="enable-background:new 0 0 120 77;" xml:space="preserve">
<g>
	<rect style="fill-rule:evenodd;clip-rule:evenodd;fill:#FFBE00;" width="120" height="77"/>
	<g>
		<path d="M38.572,68.378h-13.63c0-7.873,2.117-12.952,7.365-22.688l14.561-27.09H17.832v-9.99h41.82v9.735
			C46.53,41.119,38.572,58.981,38.572,68.378z"/>
		<path d="M76.516,69.817c-6.941,0-12.275-1.524-16.846-4.317l4.825-9.313c3.303,2.286,6.688,3.81,11.345,3.81
			c4.655,0,10.497-2.794,10.497-9.82c0-4.317-2.879-10.243-13.884-10.412c-3.386,0-7.364-0.085-9.312-0.085l2.37-31.069h31.407v9.99
			H75.416l-0.848,11.344c0.339,0,1.102,0.085,1.693,0.085c16.339,0.762,22.941,9.989,22.941,18.963
			C99.203,60.42,90.146,69.817,76.516,69.817z"/>
	</g>
</g>
</svg>
