<?xml version="1.0" encoding="iso-8859-1"?>
<!-- Generator: Adobe Illustrator 14.0.0, SVG Export Plug-In . SVG Version: 6.00 Build 43363)  -->
<!DOCTYPE svg PUBLIC "-//W3C//DTD SVG 1.1//EN" "http://www.w3.org/Graphics/SVG/1.1/DTD/svg11.dtd">
<svg version="1.1" id="Calque_1" xmlns="http://www.w3.org/2000/svg" xmlns:xlink="http://www.w3.org/1999/xlink" x="0px" y="0px"
	 width="120px" height="77px" viewBox="0 0 120 77" style="enable-background:new 0 0 120 77;" xml:space="preserve">
<g>
	<rect style="fill-rule:evenodd;clip-rule:evenodd;fill:#640082;" width="120" height="77"/>
	<g>
		<path style="fill:#FFFFFF;" d="M36.794,68.378h-13.63c0-7.873,2.117-12.952,7.365-22.688l14.561-27.09H16.054v-9.99h41.82v9.735
			C44.752,41.119,36.794,58.981,36.794,68.378z"/>
		<path style="fill:#FFFFFF;" d="M81.256,69.817c-16.338,0-22.179-11.344-22.179-27.175c0-20.741,9.736-35.64,28.868-35.64
			c3.386,0,6.434,0.423,8.974,1.016l-1.863,10.159c-1.607-0.677-4.74-1.439-8.211-1.439c-8.381,0-14.477,6.688-15.322,18.709
			c2.031-1.778,5.926-4.063,12.359-4.063c9.904,0,17.862,6.518,17.862,17.692C101.743,61.013,93.785,69.817,81.256,69.817z
			 M80.071,40.78c-3.81,0-6.856,1.439-8.042,3.302c-0.678,1.016-0.678,3.386-0.678,5.164c0,5.672,3.302,11.174,9.396,11.174
			c5.926,0,8.975-4.825,8.975-9.989C89.723,44.844,85.997,40.78,80.071,40.78z"/>
	</g>
</g>
</svg>
