<?xml version="1.0" encoding="iso-8859-1"?>
<!-- Generator: Adobe Illustrator 14.0.0, SVG Export Plug-In . SVG Version: 6.00 Build 43363)  -->
<!DOCTYPE svg PUBLIC "-//W3C//DTD SVG 1.1//EN" "http://www.w3.org/Graphics/SVG/1.1/DTD/svg11.dtd">
<svg version="1.1" id="Calque_1" xmlns="http://www.w3.org/2000/svg" xmlns:xlink="http://www.w3.org/1999/xlink" x="0px" y="0px"
	 width="120px" height="77px" viewBox="0 0 120 77" style="enable-background:new 0 0 120 77;" xml:space="preserve">
<g>
	<rect style="fill-rule:evenodd;clip-rule:evenodd;fill:#FF82B4;" width="120" height="77"/>
	<g>
		<path d="M35.558,69.986c-13.291,0-20.825-7.958-20.825-17.016c0-7.958,4.487-12.952,10.243-15.915
			c-5.164-3.217-8.381-7.281-8.381-13.46c0-9.905,8.974-16.762,19.217-16.762c10.498,0,19.217,5.164,19.217,15.408
			c0,5.587-2.878,10.328-8.466,13.714c5.502,2.624,10.328,7.703,10.328,15.576C56.892,62.875,47.833,69.986,35.558,69.986z
			 M34.542,41.203c-3.894,1.524-7.789,5.757-7.789,10.413c0,4.91,3.217,9.566,8.974,9.566c5.672,0,8.804-3.979,8.804-8.72
			C44.532,47.045,39.622,43.743,34.542,41.203z M35.981,15.468c-4.656,0-7.619,2.878-7.619,7.026c0,4.91,4.91,7.958,8.72,9.566
			c3.132-1.439,6.519-5.333,6.519-9.058C43.601,18.854,40.892,15.468,35.981,15.468z"/>
		<path d="M83.34,69.986c-18.031,0-21.588-17.777-21.588-31.576c0-13.799,3.895-31.577,21.926-31.577
			c18.032,0,21.588,17.778,21.588,31.577C105.266,52.209,101.371,69.986,83.34,69.986z M83.509,16.907
			c-8.635,0-8.889,15.407-8.889,21.503c0,6.01,0.423,21.587,8.889,21.587s8.804-15.661,8.804-21.587
			C92.313,32.146,92.059,16.907,83.509,16.907z"/>
	</g>
</g>
</svg>
