<?xml version="1.0" encoding="iso-8859-1"?>
<!-- Generator: Adobe Illustrator 14.0.0, SVG Export Plug-In . SVG Version: 6.00 Build 43363)  -->
<!DOCTYPE svg PUBLIC "-//W3C//DTD SVG 1.1//EN" "http://www.w3.org/Graphics/SVG/1.1/DTD/svg11.dtd">
<svg version="1.1" id="Calque_1" xmlns="http://www.w3.org/2000/svg" xmlns:xlink="http://www.w3.org/1999/xlink" x="0px" y="0px"
	 width="120px" height="77px" viewBox="0 0 120 77" style="enable-background:new 0 0 120 77;" xml:space="preserve">
<g>
	<rect style="fill-rule:evenodd;clip-rule:evenodd;fill:#FF5A00;" width="120" height="77"/>
	<g>
		<path d="M38.737,69.986c-13.291,0-20.825-7.958-20.825-17.016c0-7.958,4.487-12.952,10.243-15.915
			c-5.164-3.217-8.381-7.281-8.381-13.46c0-9.905,8.974-16.762,19.217-16.762c10.498,0,19.217,5.164,19.217,15.408
			c0,5.587-2.878,10.328-8.466,13.714c5.502,2.624,10.328,7.703,10.328,15.576C60.07,62.875,51.012,69.986,38.737,69.986z
			 M37.721,41.203c-3.894,1.524-7.789,5.757-7.789,10.413c0,4.91,3.217,9.566,8.974,9.566c5.672,0,8.804-3.979,8.804-8.72
			C47.71,47.045,42.8,43.743,37.721,41.203z M39.16,15.468c-4.656,0-7.619,2.878-7.619,7.026c0,4.91,4.91,7.958,8.72,9.566
			c3.132-1.439,6.519-5.333,6.519-9.058C46.779,18.854,44.07,15.468,39.16,15.468z"/>
		<path d="M64.499,68.378v-7.873c1.524-6.941,8.381-13.291,16.339-20.232c3.979-3.471,8.296-7.789,8.296-13.545
			c0-5.164-3.386-9.481-9.905-9.481c-5.248,0-8.889,3.809-10.328,5.418l-6.264-8.296c5.756-4.995,11.09-7.365,19.132-7.365
			c10.497,0,20.402,6.095,20.402,18.286c0,10.243-6.519,15.068-13.714,21.587c-3.048,2.794-9.059,8.043-9.82,11.514h24.635v9.989
			H64.499z"/>
	</g>
</g>
</svg>
