<?xml version="1.0" encoding="iso-8859-1"?>
<!-- Generator: Adobe Illustrator 14.0.0, SVG Export Plug-In . SVG Version: 6.00 Build 43363)  -->
<!DOCTYPE svg PUBLIC "-//W3C//DTD SVG 1.1//EN" "http://www.w3.org/Graphics/SVG/1.1/DTD/svg11.dtd">
<svg version="1.1" id="Calque_1" xmlns="http://www.w3.org/2000/svg" xmlns:xlink="http://www.w3.org/1999/xlink" x="0px" y="0px"
	 width="120px" height="77px" viewBox="0 0 120 77" style="enable-background:new 0 0 120 77;" xml:space="preserve">
<g>
	<rect style="fill-rule:evenodd;clip-rule:evenodd;fill:#D282BE;" width="120" height="77"/>
	<g>
		<path d="M34.995,69.986c-13.291,0-20.825-7.958-20.825-17.016c0-7.958,4.487-12.952,10.243-15.915
			c-5.164-3.217-8.381-7.281-8.381-13.46c0-9.905,8.974-16.762,19.217-16.762c10.498,0,19.217,5.164,19.217,15.408
			c0,5.587-2.878,10.328-8.465,13.714c5.502,2.624,10.328,7.703,10.328,15.576C56.329,62.875,47.271,69.986,34.995,69.986z
			 M33.979,41.203c-3.895,1.524-7.789,5.757-7.789,10.413c0,4.91,3.217,9.566,8.974,9.566c5.672,0,8.804-3.979,8.804-8.72
			C43.969,47.045,39.059,43.743,33.979,41.203z M35.418,15.468c-4.656,0-7.619,2.878-7.619,7.026c0,4.91,4.91,7.958,8.72,9.566
			c3.132-1.439,6.519-5.333,6.519-9.058C43.038,18.854,40.329,15.468,35.418,15.468z"/>
		<path d="M99.648,55.934v12.444H87.797V55.934H60.876v-11.09L84.072,8.611h15.576v38.01h7.026v9.313H99.648z M87.797,19.108h-0.17
			c-0.254,1.016-1.947,4.656-4.316,8.381L71.119,46.621h16.678V19.108z"/>
	</g>
</g>
</svg>
