<?xml version="1.0" encoding="utf-8"?>
<!-- Generator: Adobe Illustrator 21.0.2, SVG Export Plug-In . SVG Version: 6.00 Build 0)  -->
<svg version="1.1" id="Calque_1" xmlns="http://www.w3.org/2000/svg" xmlns:xlink="http://www.w3.org/1999/xlink" x="0px" y="0px"
	 viewBox="0 0 120 77" style="enable-background:new 0 0 120 77;" xml:space="preserve">
<style type="text/css">
	.st0{fill-rule:evenodd;clip-rule:evenodd;fill:#6E491E;}
	.st1{fill:#FFFFFF;}
</style>
<g>
	<rect class="st0" width="120" height="77"/>
	<g>
		<path class="st1" d="M39.1,70c-13.3,0-20.8-8-20.8-17c0-8,4.5-13,10.2-15.9c-5.2-3.2-8.4-7.3-8.4-13.5c0-9.9,9-16.8,19.2-16.8
			c10.5,0,19.2,5.2,19.2,15.4c0,5.6-2.9,10.3-8.5,13.7c5.5,2.6,10.3,7.7,10.3,15.6C60.4,62.9,51.4,70,39.1,70z M38.1,41.2
			c-3.9,1.5-7.8,5.8-7.8,10.4c0,4.9,3.2,9.6,9,9.6c5.7,0,8.8-4,8.8-8.7C48.1,47,43.2,43.7,38.1,41.2z M39.5,15.5
			c-4.7,0-7.6,2.9-7.6,7c0,4.9,4.9,8,8.7,9.6c3.1-1.4,6.5-5.3,6.5-9.1C47.1,18.9,44.4,15.5,39.5,15.5z"/>
		<path class="st1" d="M79,69.8c-6.9,0-12.3-1.5-16.8-4.3l4.8-9.3c3.3,2.3,6.7,3.8,11.3,3.8c4.7,0,10.5-2.8,10.5-9.8
			c0-4.3-2.9-10.2-13.9-10.4c-3.4,0-7.4-0.1-9.3-0.1L68,8.6h31.4v10H77.9l-0.8,11.3c0.3,0,1.1,0.1,1.7,0.1c16.3,0.8,22.9,10,22.9,19
			C101.7,60.4,92.7,69.8,79,69.8z"/>
	</g>
</g>
</svg>
