<?xml version="1.0" encoding="iso-8859-1"?>
<!-- Generator: Adobe Illustrator 14.0.0, SVG Export Plug-In . SVG Version: 6.00 Build 43363)  -->
<!DOCTYPE svg PUBLIC "-//W3C//DTD SVG 1.1//EN" "http://www.w3.org/Graphics/SVG/1.1/DTD/svg11.dtd">
<svg version="1.1" id="Calque_1" xmlns="http://www.w3.org/2000/svg" xmlns:xlink="http://www.w3.org/1999/xlink" x="0px" y="0px"
	 width="120px" height="77px" viewBox="0 0 120 77" style="enable-background:new 0 0 120 77;" xml:space="preserve">
<g>
	<rect style="fill-rule:evenodd;clip-rule:evenodd;fill:#FF1400;" width="120" height="77"/>
	<g>
		<path style="fill:#FFFFFF;" d="M36.269,69.986c-13.291,0-20.825-7.958-20.825-17.016c0-7.958,4.487-12.952,10.243-15.915
			c-5.164-3.217-8.381-7.281-8.381-13.46c0-9.905,8.974-16.762,19.217-16.762c10.498,0,19.217,5.164,19.217,15.408
			c0,5.587-2.878,10.328-8.466,13.714c5.502,2.624,10.328,7.703,10.328,15.576C57.603,62.875,48.544,69.986,36.269,69.986z
			 M35.253,41.203c-3.894,1.524-7.789,5.757-7.789,10.413c0,4.91,3.217,9.566,8.974,9.566c5.672,0,8.804-3.979,8.804-8.72
			C45.243,47.045,40.333,43.743,35.253,41.203z M36.692,15.468c-4.656,0-7.619,2.878-7.619,7.026c0,4.91,4.91,7.958,8.72,9.566
			c3.132-1.439,6.519-5.333,6.519-9.058C44.312,18.854,41.603,15.468,36.692,15.468z"/>
		<path style="fill:#FFFFFF;" d="M84.829,69.817c-16.339,0-22.18-11.344-22.18-27.175c0-20.741,9.735-35.64,28.868-35.64
			c3.386,0,6.434,0.423,8.973,1.016l-1.862,10.159c-1.608-0.677-4.741-1.439-8.212-1.439c-8.381,0-14.476,6.688-15.322,18.709
			c2.031-1.778,5.926-4.063,12.359-4.063c9.905,0,17.863,6.518,17.863,17.692C105.316,61.013,97.358,69.817,84.829,69.817z
			 M83.645,40.78c-3.811,0-6.857,1.439-8.043,3.302c-0.678,1.016-0.678,3.386-0.678,5.164c0,5.672,3.303,11.174,9.397,11.174
			c5.926,0,8.974-4.825,8.974-9.989C93.295,44.844,89.57,40.78,83.645,40.78z"/>
	</g>
</g>
</svg>
