<?xml version="1.0" encoding="iso-8859-1"?>
<!-- Generator: Adobe Illustrator 14.0.0, SVG Export Plug-In . SVG Version: 6.00 Build 43363)  -->
<!DOCTYPE svg PUBLIC "-//W3C//DTD SVG 1.1//EN" "http://www.w3.org/Graphics/SVG/1.1/DTD/svg11.dtd">
<svg version="1.1" id="Calque_1" xmlns="http://www.w3.org/2000/svg" xmlns:xlink="http://www.w3.org/1999/xlink" x="0px" y="0px"
	 width="120px" height="77px" viewBox="0 0 120 77" style="enable-background:new 0 0 120 77;" xml:space="preserve">
<g>
	<rect style="fill-rule:evenodd;clip-rule:evenodd;fill:#640082;" width="120" height="77"/>
	<g>
		<path style="fill:#FFFFFF;" d="M38.712,69.986c-13.291,0-20.825-7.958-20.825-17.016c0-7.958,4.487-12.952,10.243-15.915
			c-5.164-3.217-8.381-7.281-8.381-13.46c0-9.905,8.974-16.762,19.217-16.762c10.498,0,19.217,5.164,19.217,15.408
			c0,5.587-2.878,10.328-8.465,13.714c5.502,2.624,10.328,7.703,10.328,15.576C60.045,62.875,50.987,69.986,38.712,69.986z
			 M37.696,41.203c-3.895,1.524-7.789,5.757-7.789,10.413c0,4.91,3.217,9.566,8.974,9.566c5.672,0,8.804-3.979,8.804-8.72
			C47.686,47.045,42.775,43.743,37.696,41.203z M39.135,15.468c-4.656,0-7.619,2.878-7.619,7.026c0,4.91,4.91,7.958,8.72,9.566
			c3.132-1.439,6.519-5.333,6.519-9.058C46.754,18.854,44.045,15.468,39.135,15.468z"/>
		<path style="fill:#FFFFFF;" d="M83.572,68.378H69.943c0-7.873,2.116-12.952,7.365-22.688l14.561-27.09H62.832v-9.99h41.82v9.735
			C91.53,41.119,83.572,58.981,83.572,68.378z"/>
	</g>
</g>
</svg>
