<?xml version="1.0" encoding="iso-8859-1"?>
<!-- Generator: Adobe Illustrator 14.0.0, SVG Export Plug-In . SVG Version: 6.00 Build 43363)  -->
<!DOCTYPE svg PUBLIC "-//W3C//DTD SVG 1.1//EN" "http://www.w3.org/Graphics/SVG/1.1/DTD/svg11.dtd">
<svg version="1.1" id="Calque_1" xmlns="http://www.w3.org/2000/svg" xmlns:xlink="http://www.w3.org/1999/xlink" x="0px" y="0px"
	 width="120px" height="77px" viewBox="0 0 120 77" style="enable-background:new 0 0 120 77;" xml:space="preserve">
<g>
	<rect style="fill-rule:evenodd;clip-rule:evenodd;fill:#D2D200;" width="120" height="77"/>
	<g>
		<path d="M36.049,69.986c-13.291,0-20.825-7.958-20.825-17.016c0-7.958,4.487-12.952,10.243-15.915
			c-5.164-3.217-8.381-7.281-8.381-13.46c0-9.905,8.974-16.762,19.217-16.762c10.498,0,19.217,5.164,19.217,15.408
			c0,5.587-2.878,10.328-8.466,13.714c5.502,2.624,10.328,7.703,10.328,15.576C57.383,62.875,48.325,69.986,36.049,69.986z
			 M35.034,41.203c-3.894,1.524-7.789,5.757-7.789,10.413c0,4.91,3.217,9.566,8.974,9.566c5.672,0,8.804-3.979,8.804-8.72
			C45.023,47.045,40.113,43.743,35.034,41.203z M36.473,15.468c-4.656,0-7.619,2.878-7.619,7.026c0,4.91,4.91,7.958,8.72,9.566
			c3.132-1.439,6.519-5.333,6.519-9.058C44.092,18.854,41.383,15.468,36.473,15.468z"/>
		<path d="M83.441,69.986c-13.291,0-20.826-7.958-20.826-17.016c0-7.958,4.487-12.952,10.244-15.915
			c-5.164-3.217-8.381-7.281-8.381-13.46c0-9.905,8.973-16.762,19.217-16.762c10.497,0,19.217,5.164,19.217,15.408
			c0,5.587-2.879,10.328-8.466,13.714c5.503,2.624,10.328,7.703,10.328,15.576C104.774,62.875,95.717,69.986,83.441,69.986z
			 M82.426,41.203c-3.895,1.524-7.789,5.757-7.789,10.413c0,4.91,3.217,9.566,8.974,9.566c5.672,0,8.804-3.979,8.804-8.72
			C92.414,47.045,87.504,43.743,82.426,41.203z M83.864,15.468c-4.656,0-7.619,2.878-7.619,7.026c0,4.91,4.91,7.958,8.72,9.566
			c3.133-1.439,6.519-5.333,6.519-9.058C91.483,18.854,88.774,15.468,83.864,15.468z"/>
	</g>
</g>
</svg>
