<?xml version="1.0" encoding="iso-8859-1"?>
<!-- Generator: Adobe Illustrator 14.0.0, SVG Export Plug-In . SVG Version: 6.00 Build 43363)  -->
<!DOCTYPE svg PUBLIC "-//W3C//DTD SVG 1.1//EN" "http://www.w3.org/Graphics/SVG/1.1/DTD/svg11.dtd">
<svg version="1.1" id="Calque_1" xmlns="http://www.w3.org/2000/svg" xmlns:xlink="http://www.w3.org/1999/xlink" x="0px" y="0px"
	 width="120px" height="77px" viewBox="0 0 120 77" style="enable-background:new 0 0 120 77;" xml:space="preserve">
<g>
	<rect style="fill-rule:evenodd;clip-rule:evenodd;fill:#82C8E6;" width="120" height="77"/>
	<g>
		<path d="M36.523,69.986c-13.291,0-20.825-7.958-20.825-17.016c0-7.958,4.487-12.952,10.243-15.915
			c-5.164-3.217-8.381-7.281-8.381-13.46c0-9.905,8.974-16.762,19.217-16.762c10.498,0,19.217,5.164,19.217,15.408
			c0,5.587-2.878,10.328-8.466,13.714c5.502,2.624,10.328,7.703,10.328,15.576C57.856,62.875,48.798,69.986,36.523,69.986z
			 M35.507,41.203c-3.894,1.524-7.789,5.757-7.789,10.413c0,4.91,3.217,9.566,8.974,9.566c5.672,0,8.804-3.979,8.804-8.72
			C45.497,47.045,40.586,43.743,35.507,41.203z M36.946,15.468c-4.656,0-7.619,2.878-7.619,7.026c0,4.91,4.91,7.958,8.72,9.566
			c3.132-1.439,6.519-5.333,6.519-9.058C44.565,18.854,41.856,15.468,36.946,15.468z"/>
		<path d="M75.433,69.986c-3.386,0-6.435-0.423-8.974-1.016l1.862-10.159c1.608,0.678,4.741,1.439,8.212,1.439
			c8.381,0,14.477-6.688,15.322-18.709c-2.031,1.777-5.926,4.063-12.359,4.063c-9.904,0-17.862-6.519-17.862-17.693
			c0-11.936,7.958-20.74,20.486-20.74c16.339,0,22.181,11.344,22.181,27.175C104.301,55.087,94.564,69.986,75.433,69.986z
			 M82.629,16.568c-5.927,0-8.975,4.826-8.975,9.99c0,5.587,3.725,9.651,9.651,9.651c3.81,0,6.856-1.439,8.042-3.302
			c0.678-1.016,0.678-3.387,0.678-5.164C92.025,22.071,88.724,16.568,82.629,16.568z"/>
	</g>
</g>
</svg>
