<?xml version="1.0" encoding="iso-8859-1"?>
<!-- Generator: Adobe Illustrator 14.0.0, SVG Export Plug-In . SVG Version: 6.00 Build 43363)  -->
<!DOCTYPE svg PUBLIC "-//W3C//DTD SVG 1.1//EN" "http://www.w3.org/Graphics/SVG/1.1/DTD/svg11.dtd">
<svg version="1.1" id="Calque_1" xmlns="http://www.w3.org/2000/svg" xmlns:xlink="http://www.w3.org/1999/xlink" x="0px" y="0px"
	 width="120px" height="77px" viewBox="0 0 120 77" style="enable-background:new 0 0 120 77;" xml:space="preserve">
<g>
	<rect style="fill-rule:evenodd;clip-rule:evenodd;fill:#FF7D00;" width="120" height="77"/>
</g>
<path style="fill:#FFCB99;" d="M64.084,67.566c-10.039,4.203-19.75,7.242-28.685,9.443C28.991,77,10.353,76.99,0,77.01V55.037
	c10.341-11.016,29.831-23.403,52.618-32.945c29.843-12.497,56.78-16.239,67.383-10.261v18.507
	C110.946,42.309,89.885,56.762,64.084,67.566z"/>
<g>
	<path style="fill:#FFFFFF;" d="M63.805,29.635c-1.758-0.005-2.927,1.244-3.933,2.531l-2.15,8.707
		c0.834,0.675,1.615,0.976,2.348,0.978C66.346,41.869,69.004,29.652,63.805,29.635z M59.92,45.113
		c-1.064-0.004-2.094-0.232-3.082-0.68l-1.664,6.74l-3.803-0.012l4.398-17.775c0.463-1.81,0.873-3.729,0.697-5.608l-0.068-1.119
		l3.725-0.336l0.043,1.42c0.713-0.437,1.347-0.758,1.9-0.956c0.754-0.269,1.529-0.402,2.324-0.4
		c1.818,0.006,3.313,0.608,4.412,1.841c2.494,2.8,1.6,7.771,0.031,10.771C67.125,42.262,63.775,45.125,59.92,45.113z"/>
	<path style="fill:#FFFFFF;" d="M82.703,29.698c-1.105-0.003-2.141,0.412-3.121,1.295c-0.82,0.74-1.477,1.671-1.965,2.803
		l7.771,0.024c0.154-1.152,0.154-2.267-0.656-3.229C84.236,30.003,83.58,29.701,82.703,29.698z M77.297,41.094
		c0.496,0.516,1.264,0.818,2.395,0.82c2.066,0.008,4.498-1.118,6.27-1.979l1.502,2.913c-2.717,1.346-5.443,2.338-8.518,2.328
		c-7.293-0.021-7.15-7.723-4.654-12.593c1.807-3.524,5.059-6.144,9.158-6.131c1.826,0.006,3.289,0.571,4.287,1.77
		c1.371,1.646,1.707,5.007,1.139,7.07l-0.461,1.787l-11.723-0.038C76.457,38.283,76.363,40.125,77.297,41.094z"/>
	<path style="fill:#FFFFFF;" d="M25.022,51.514l17.236,0.057l-0.828,3.246l-6.775-0.021l-5.1,20.586l-3.785-0.012l5.084-20.588
		l-6.635-0.021L25.022,51.514z"/>
	<path style="fill:#FFFFFF;" d="M42.62,64.842c-0.795,2.191-2.275,7.674,1.752,7.686c4.242,0.014,5.904-5.604,5.982-8.996
		c0.051-2.279-0.844-3.213-2.664-3.219C44.95,60.303,43.461,62.52,42.62,64.842z M54.159,63.396
		c-0.131,5.793-3.734,12.414-10.291,12.393c-1.836-0.006-3.334-0.561-4.414-1.725c-1.08-1.162-1.561-2.748-1.518-4.68
		c0.076-3.355,1.088-6.252,3.047-8.666c1.967-2.42,4.377-3.662,7.211-3.654c1.904,0.006,3.436,0.533,4.494,1.662
		C53.743,59.854,54.204,61.441,54.159,63.396z"/>
	<path style="fill:#FFFFFF;" d="M67.836,75.514l0.119-2.123c-1.906,1.623-3.947,2.463-6.121,2.457
		c-1.156-0.004-2.126-0.35-2.839-1.094c-1.246-1.301-1.129-3.375-0.746-4.992l3.054-12.318l3.801,0.012L62.164,69.34
		c-0.211,0.854-0.996,3.242,0.609,3.246c3.637,0.012,5.902-4.703,6.625-7.613l1.863-7.498l3.783,0.012l-2.264,9.193
		c-0.764,3.125-1.182,5.668-1.254,8.846L67.836,75.514z"/>
	<path style="fill:#FFFFFF;" d="M84.939,57.52l-0.143,2.201c1.633-1.494,3.324-2.527,5.623-2.52
		c2.455,0.008,3.654,1.508,3.594,4.104c-0.021,0.939-0.193,1.863-0.371,2.783l-3.783-0.012c0.082-0.447,0.164-0.887,0.268-1.328
		c0.137-0.557,0.721-2.297-0.357-2.301c-1.852-0.006-4.049,2.551-4.936,3.934c-0.756,1.18-1.285,2.406-1.592,3.68l-1.861,7.498
		l-3.785-0.012l2.566-10.385c0.615-2.627,0.936-4.965,1.061-7.654L84.939,57.52z"/>
	<path style="fill:#FFFFFF;" d="M98.012,26.837l-0.131,2.14c1.918-1.623,3.963-2.464,6.129-2.458
		c1.164,0.004,2.143,0.349,2.863,1.093c1.295,1.338,1.111,3.329,0.723,4.979l-3.053,12.317l-3.803-0.012l2.939-11.883
		c0.207-0.86,1.063-3.242-0.609-3.247c-3.629-0.011-5.912,4.707-6.625,7.613l-1.861,7.498l-3.803-0.012l2.281-9.193
		c0.764-3.124,1.182-5.666,1.254-8.846L98.012,26.837z"/>
	<path style="fill:#FFFFFF;" d="M47.579,24.828c1.473-5.61,2.189-10.064,2.189-13.395c0-5.327-1.969-7.413-5.584-7.413
		c-2.633,0-4.885,1.136-6.803,3.562c-1.957,2.476-3.699,6.479-5.17,12.124c-1.475,5.667-2.189,10.084-2.189,13.291
		c0,5.338,1.955,7.412,5.52,7.412C43.11,40.408,46.083,30.524,47.579,24.828z M41.383,0.002h6.438
		c2.057,0.44,3.789,1.357,5.139,2.796c1.977,2.109,2.883,5.084,2.883,8.75c0,4.129-0.828,9.167-2.451,15.088
		c-2.516,9.188-7.484,18.101-18.264,18.101c-3.482,0-6.309-0.984-8.297-3.105c-1.377-1.469-2.236-3.354-2.629-5.597v-7.199
		c0.359-3.124,1.102-6.738,2.211-10.832c1.643-6.068,3.955-10.685,7.012-13.722C35.7,2.019,38.364,0.591,41.383,0.002z"/>
</g>
</svg>
