<?xml version="1.0" encoding="iso-8859-1"?>
<!-- Generator: Adobe Illustrator 14.0.0, SVG Export Plug-In . SVG Version: 6.00 Build 43363)  -->
<!DOCTYPE svg PUBLIC "-//W3C//DTD SVG 1.1//EN" "http://www.w3.org/Graphics/SVG/1.1/DTD/svg11.dtd">
<svg version="1.1" id="Calque_1" xmlns="http://www.w3.org/2000/svg" xmlns:xlink="http://www.w3.org/1999/xlink" x="0px" y="0px"
	 width="120px" height="77px" viewBox="0 0 120 77" style="enable-background:new 0 0 120 77;" xml:space="preserve">
<g>
	<rect style="fill-rule:evenodd;clip-rule:evenodd;fill:#DC9600;" width="120" height="77"/>
	<g>
		<path d="M33.603,69.986c-3.386,0-6.434-0.423-8.974-1.016l1.862-10.159c1.608,0.678,4.741,1.439,8.212,1.439
			c8.381,0,14.476-6.688,15.322-18.709c-2.031,1.777-5.926,4.063-12.359,4.063c-9.905,0-17.862-6.519-17.862-17.693
			c0-11.936,7.958-20.74,20.486-20.74c16.339,0,22.181,11.344,22.181,27.175C62.471,55.087,52.734,69.986,33.603,69.986z
			 M40.798,16.568c-5.926,0-8.974,4.826-8.974,9.99c0,5.587,3.725,9.651,9.651,9.651c3.81,0,6.857-1.439,8.042-3.302
			c0.677-1.016,0.677-3.387,0.677-5.164C50.195,22.071,46.894,16.568,40.798,16.568z"/>
		<path d="M82.84,68.378V21.394c-3.64,2.878-9.396,5.671-13.375,7.45l-4.063-9.143c6.265-2.624,13.799-6.603,19.725-11.09h10.413
			v59.767H82.84z"/>
	</g>
</g>
</svg>
