<?xml version="1.0" encoding="iso-8859-1"?>
<!-- Generator: Adobe Illustrator 14.0.0, SVG Export Plug-In . SVG Version: 6.00 Build 43363)  -->
<!DOCTYPE svg PUBLIC "-//W3C//DTD SVG 1.1//EN" "http://www.w3.org/Graphics/SVG/1.1/DTD/svg11.dtd">
<svg version="1.1" id="Calque_1" xmlns="http://www.w3.org/2000/svg" xmlns:xlink="http://www.w3.org/1999/xlink" x="0px" y="0px"
	 width="120px" height="77px" viewBox="0 0 120 77" style="enable-background:new 0 0 120 77;" xml:space="preserve">
<g>
	<rect style="fill-rule:evenodd;clip-rule:evenodd;fill:#FFBE00;" width="120" height="77"/>
	<g>
		<path d="M31.355,69.986c-3.386,0-6.434-0.423-8.974-1.016l1.862-10.159c1.608,0.678,4.741,1.439,8.212,1.439
			c8.381,0,14.476-6.688,15.323-18.709c-2.032,1.777-5.926,4.063-12.36,4.063c-9.905,0-17.862-6.519-17.862-17.693
			c0-11.936,7.958-20.74,20.486-20.74c16.339,0,22.18,11.344,22.18,27.175C60.223,55.087,50.487,69.986,31.355,69.986z
			 M38.551,16.568c-5.926,0-8.974,4.826-8.974,9.99c0,5.587,3.725,9.651,9.651,9.651c3.809,0,6.857-1.439,8.042-3.302
			c0.677-1.016,0.677-3.387,0.677-5.164C47.947,22.071,44.646,16.568,38.551,16.568z"/>
		<path d="M64.094,68.378v-7.873c1.523-6.941,8.381-13.291,16.338-20.232c3.979-3.471,8.297-7.789,8.297-13.545
			c0-5.164-3.387-9.481-9.905-9.481c-5.249,0-8.889,3.809-10.328,5.418l-6.265-8.296c5.757-4.995,11.09-7.365,19.133-7.365
			c10.497,0,20.402,6.095,20.402,18.286c0,10.243-6.52,15.068-13.715,21.587c-3.048,2.794-9.059,8.043-9.82,11.514h24.635v9.989
			H64.094z"/>
	</g>
</g>
</svg>
