<?xml version="1.0" encoding="iso-8859-1"?>
<!-- Generator: Adobe Illustrator 14.0.0, SVG Export Plug-In . SVG Version: 6.00 Build 43363)  -->
<!DOCTYPE svg PUBLIC "-//W3C//DTD SVG 1.1//EN" "http://www.w3.org/Graphics/SVG/1.1/DTD/svg11.dtd">
<svg version="1.1" id="Calque_1" xmlns="http://www.w3.org/2000/svg" xmlns:xlink="http://www.w3.org/1999/xlink" x="0px" y="0px"
	 width="120px" height="77px" viewBox="0 0 120 77" style="enable-background:new 0 0 120 77;" xml:space="preserve">
<g>
	<rect style="fill-rule:evenodd;clip-rule:evenodd;fill:#82DC73;" width="120" height="77"/>
	<g>
		<path d="M31.744,69.986c-3.386,0-6.434-0.423-8.974-1.016l1.862-10.159c1.608,0.678,4.741,1.439,8.212,1.439
			c8.381,0,14.476-6.688,15.322-18.709c-2.031,1.777-5.926,4.063-12.359,4.063c-9.905,0-17.862-6.519-17.862-17.693
			c0-11.936,7.958-20.74,20.486-20.74c16.339,0,22.18,11.344,22.18,27.175C60.612,55.087,50.876,69.986,31.744,69.986z
			 M38.94,16.568c-5.926,0-8.974,4.826-8.974,9.99c0,5.587,3.725,9.651,9.651,9.651c3.81,0,6.857-1.439,8.042-3.302
			c0.677-1.016,0.677-3.387,0.677-5.164C48.336,22.071,45.035,16.568,38.94,16.568z"/>
		<path d="M78.518,69.817c-8.55,0-13.291-2.117-17.27-4.487l4.656-9.228c2.54,1.778,6.688,3.895,11.768,3.895
			c6.941,0,11.259-4.063,11.259-9.143c0-6.857-5.249-9.228-11.344-9.228h-6.18v-9.905h6.265c5.841,0,9.481-3.047,9.481-7.619
			c0-3.81-2.878-7.28-9.144-7.28c-5.502,0-9.143,2.624-11.09,4.317l-4.316-8.804c5.078-3.386,10.582-5.333,18.115-5.333
			c12.191,0,19.133,7.28,19.133,15.238c0,6.18-3.302,11.089-9.65,13.46v0.169c6.603,1.27,11.598,6.35,11.598,14.73
			C101.799,61.098,92.402,69.817,78.518,69.817z"/>
	</g>
</g>
</svg>
