<?xml version="1.0" encoding="iso-8859-1"?>
<!-- Generator: Adobe Illustrator 14.0.0, SVG Export Plug-In . SVG Version: 6.00 Build 43363)  -->
<!DOCTYPE svg PUBLIC "-//W3C//DTD SVG 1.1//EN" "http://www.w3.org/Graphics/SVG/1.1/DTD/svg11.dtd">
<svg version="1.1" id="Calque_1" xmlns="http://www.w3.org/2000/svg" xmlns:xlink="http://www.w3.org/1999/xlink" x="0px" y="0px"
	 width="120px" height="77px" viewBox="0 0 120 77" style="enable-background:new 0 0 120 77;" xml:space="preserve">
<g>
	<rect style="fill-rule:evenodd;clip-rule:evenodd;fill:#A0006E;" width="120" height="77"/>
	<g>
		<path style="fill:#FFFFFF;" d="M27.495,69.986c-3.386,0-6.434-0.423-8.974-1.016l1.862-10.159
			c1.608,0.678,4.741,1.439,8.212,1.439c8.381,0,14.476-6.688,15.323-18.709c-2.032,1.777-5.926,4.063-12.36,4.063
			c-9.905,0-17.862-6.519-17.862-17.693c0-11.936,7.958-20.74,20.486-20.74c16.339,0,22.18,11.344,22.18,27.175
			C56.362,55.087,46.627,69.986,27.495,69.986z M34.69,16.568c-5.926,0-8.974,4.826-8.974,9.99c0,5.587,3.725,9.651,9.651,9.651
			c3.809,0,6.857-1.439,8.042-3.302c0.677-1.016,0.677-3.387,0.677-5.164C44.087,22.071,40.786,16.568,34.69,16.568z"/>
		<path style="fill:#FFFFFF;" d="M99.361,55.934v12.444H87.509V55.934h-26.92v-11.09L83.784,8.611h15.577v38.01h7.025v9.313H99.361z
			 M87.509,19.108H87.34c-0.254,1.016-1.947,4.656-4.317,8.381l-12.19,19.132h16.677V19.108z"/>
	</g>
</g>
</svg>
