<svg xmlns="http://www.w3.org/2000/svg" viewBox="0 0 120 77"><title>95genRVB</title><rect width="120" height="77" fill="#640082"/><path d="M31.3423,69.98633a39.69605,39.69605,0,0,1-8.9736-1.01563L24.231,58.8115a23.056,23.056,0,0,0,8.2119,1.4395c8.3808,0,14.476-6.6875,15.3227-18.709-2.0322,1.7773-5.9262,4.0635-12.3598,4.0635-9.9048,0-17.8623-6.5186-17.8623-17.6934,0-11.936,7.9575-20.7402,20.4863-20.7402,16.3389,0,22.1802,11.3437,22.1802,27.1748C60.21,55.0869,50.4746,69.98633,31.3423,69.98633ZM38.5381,16.5684c-5.9263,0-8.9736,4.8256-8.9736,9.9897,0,5.5874,3.7246,9.6509,9.6508,9.6509,3.8091,0,6.857-1.4395,8.042-3.3018.6773-1.0156.6773-3.3867.6773-5.164C47.9346,22.0713,44.6333,16.5684,38.5381,16.5684Z" fill="#fff"/><path d="M79.0059,69.81738c-6.9414,0-12.2754-1.52441-16.8467-4.31738l4.8252-9.3125a18.83554,18.83554,0,0,0,11.3437,3.8096c4.6563,0,10.4981-2.794,10.4981-9.8203,0-4.3174-2.8789-10.2432-13.8838-10.4122-3.3867,0-7.3653-.0849-9.3125-.0849L68,8.6108H99.4082v9.9898H77.9053l-.8467,11.3437c.3379,0,1.1006.085,1.6934.085,16.3378.7617,22.9414,9.9893,22.9414,18.9629C101.6934,60.4199,92.6348,69.81738,79.0059,69.81738Z" fill="#fff"/></svg>