<?xml version="1.0" encoding="utf-8"?>
<!-- Generator: Adobe Illustrator 14.0.0, SVG Export Plug-In . SVG Version: 6.00 Build 43363)  -->
<!DOCTYPE svg PUBLIC "-//W3C//DTD SVG 1.1//EN" "http://www.w3.org/Graphics/SVG/1.1/DTD/svg11.dtd">
<svg version="1.1" xmlns="http://www.w3.org/2000/svg" xmlns:xlink="http://www.w3.org/1999/xlink" x="0px" y="0px" width="160px"
	 height="160px" viewBox="0 0 160 160" enable-background="new 0 0 160 160" xml:space="preserve">
<g id="Temps_d_x27_attente">
</g>
<g id="Calque_5">
</g>
<g id="Ardoise">
</g>
<g id="Logos">
	<g>
		<path fill="#0A0082" d="M160,80.402C160,36.002,122.797,0,80.195,0C36,0,0,36.002,0,80.402C0,124.199,36,160,80.195,160
			C124.401,160,160,124.6,160,80.402z M148.999,80.402C148.999,117.998,118,149,80.195,149C42.199,149,11,118.201,11,80.402
			c0-38.201,31.199-69.604,69.195-69.604C118,10.799,148.999,42.4,148.999,80.402z M137.797,91.002
			c0-8.203-4.602-13.002-10.397-16.203l-4.4-2.396c-2.599-1.402-4.806-3.604-4.806-6.4c0-3.203,2.606-5.402,6.405-5.402
			c2.601,0,4.999,1,6.799,1.803c2.795,1.396,4.602-0.4,5.403-3.404c0.996-3.398-0.404-4.596-2.803-5.797
			c-2.401-1.199-5.803-2-9.198-2c-9.401,0-17.203,6.199-17.203,16.201c0,7.797,4,12.199,10.402,15.799l4.597,2.598
			c2.804,1.602,4.604,3.801,4.604,6.801c0,3.803-3.603,5.6-7.201,5.6c-2.801,0-6.199-1.199-7.997-2
			c-3.004-1.402-4.602,0.4-5.604,3.6c-0.998,3.4,0.605,4.801,3.2,6C112.003,107,116.196,108,120,108
			C129.8,108,137.797,101.402,137.797,91.002z M102.797,88.998V55.799c0-2.801-2.796-4.201-5.395-4.201
			c-2.805,0-5.397,1.4-5.397,4.201V87.6c0,6.398-2.005,10.6-7.203,10.6c-5.002,0-7.402-4-7.402-10.6V55.799
			c0-2.801-3-4.201-5.599-4.201c-2.998,0-5.604,1.4-5.604,4.201v32.998C66.197,102,72.797,108,84.803,108
			C95.598,108,102.797,101.799,102.797,88.998z M61,91.402c0-9.201-6.401-12.605-9.804-13.201V78c4-1.998,8.804-5.801,8.804-12.598
			c0-9.201-7.996-13.604-15.805-13.604H29.197c-2.797,0-4.396,2.199-4.396,4.604v46.797c0,2.803,2.8,4.203,5.396,4.203h14.205
			C53,107.402,61,102.797,61,91.402z M48.802,68c0,5.201-4.4,6.998-9.002,6.998h-4.204V61H39.8C44.599,61,48.802,62.6,48.802,68z
			 M50.401,90.199c0,5.4-3.001,8-9.401,8h-4.805V82.6H41C45,82.6,50.401,84,50.401,90.199z"/>
	</g>
</g>
</svg>
