<?xml version="1.0" encoding="utf-8"?>
<!-- Generator: Adobe Illustrator 16.0.3, SVG Export Plug-In . SVG Version: 6.00 Build 0)  -->
<!DOCTYPE svg PUBLIC "-//W3C//DTD SVG 1.1//EN" "http://www.w3.org/Graphics/SVG/1.1/DTD/svg11.dtd">
<svg version="1.1" id="Premier_plan" xmlns="http://www.w3.org/2000/svg" xmlns:xlink="http://www.w3.org/1999/xlink" x="0px"
	 y="0px" width="311.811px" height="311.811px" viewBox="0 0 311.811 311.811" enable-background="new 0 0 311.811 311.811"
	 xml:space="preserve">
<g>
	<polygon fill="none" points="33.415,248.733 162.717,303.312 234.04,303.312 30.905,217.005 8.501,217.005 8.501,248.733 	"/>
	<polygon fill="#FFFFFF" points="31.923,212.005 8.501,212.005 8.501,214.505 8.501,217.005 30.905,217.005 234.04,303.312 
		240.433,303.312 246.827,303.312 	"/>
	<path fill="#000A82" d="M-0.001,0v311.812H311.81V0H-0.001z M8.499,212.005h0.002l0,0h23.422l214.904,91.307h-84.11L33.415,248.733
		H8.501l0,0 M303.31,298.897L82.951,204.256h40.252h0.969h45.393v-64.628c0.799,0.169,2.807,0.869,4.027-0.316
		c0.938-0.907-5.188-5.774-5.188-5.774l0.008,0.045c-0.85-3.057-1.365-15.881-15.193-23.253l-2.299-3.668V92.628
		c0,0-2.922-6.616-4.066-7.653h-0.939c-1.148,1.037-4.064,7.653-4.064,7.653v14.033l-2.299,3.668
		c-13.768,7.338-14.34,20.08-15.186,23.21c-0.006,0.004-0.084,0.066-0.193,0.156v-32.082c1.273,0.267,4.459,1.38,6.4-0.504
		c1.484-1.441-8.239-9.17-8.239-9.17l0.01,0.07c-1.352-4.854-2.17-25.221-24.135-36.93l-3.652-5.826V26.968
		c0,0-4.639-10.51-6.457-12.156h-1.492c-1.824,1.646-6.457,12.156-6.457,12.156v22.286l-3.648,5.826
		c-21.866,11.654-22.778,31.889-24.12,36.862c-0.084,0.067-9.711,7.731-8.234,9.167c1.936,1.878,5.109,0.777,6.389,0.506v32.094
		c-0.131-0.104-0.215-0.172-0.215-0.172l0.008,0.045c-0.85-3.057-1.365-15.881-15.195-23.253l-2.299-3.668V92.628
		c0,0-2.922-6.616-4.066-7.653h-0.939c-1.148,1.037-4.064,7.653-4.064,7.653v14.033l-2.299,3.668
		c-7.553,4.026-11.131,9.677-12.965,14.476H8.499V8.501H303.31V298.897z"/>
	<polygon fill="#FFFFFF" points="32.401,177.104 31.929,176.901 8.501,176.901 8.501,179.401 8.501,181.901 30.901,181.901 
		303.31,298.897 303.31,296.177 303.31,293.457 	"/>
	<g>
		<path fill="#000A82" d="M291.976,219.425c-9.414-32.198-19.588-49.34-21.781-53.813c0,0-12.467-12.151-16.834-13.246
			c-0.864-0.338-1.817-0.628-2.855-0.809c-4.762-0.848-136.062,0-136.062,0s-4.773,0.267-6.74,4.782c0,0-18.271,41.329-17.697,64.64
			c0,0,3.619,14.914,7.578,18.296c3.936,3.358,93.4,39.87,93.4,39.87l76.959,3.687l0.002-0.004l12.379-8.697
			C280.323,274.13,289.604,250.04,291.976,219.425z"/>
		<path fill="#000A82" d="M271.657,168.395c0.023,0.027,0.047,0.07,0.059,0.104C271.954,168.672,271.974,168.672,271.657,168.395"/>
		<g>
			<path fill="#FFFFFF" d="M109.941,163.079h36.852v51.715H94.781C94.781,214.794,102.941,174.611,109.941,163.079"/>
			<path fill="#FFFFFF" d="M250.962,163.079h-35.591v51.715h55.181C270.552,214.794,264.726,189.837,250.962,163.079"/>
			<path fill="#FFFFFF" d="M261.028,163.079c4.74,9.951,14.564,31.096,19.326,51.535l0.076,0.18h8.285
				c-3.773-16.713-11.295-31.774-17.861-44.422C267.323,167.798,261.028,163.079,261.028,163.079"/>
			<polygon fill="#FFFFFF" points="204.34,231.197 204.34,163.079 186.066,163.079 186.066,231.197 176.641,231.197 
				176.641,163.079 158.357,163.079 158.357,231.197 100.669,231.197 114.169,234.964 252.454,234.964 265.94,231.197 			"/>
		</g>
	</g>
	<path fill="none" stroke="#FFFFFF" stroke-width="4.8" d="M261.028,151.246c-4.904-0.873-147.259,0-147.259,0
		s-4.917,0.275-6.942,4.926c0,0-18.82,42.569-18.229,66.579c0,0,3.728,15.361,7.806,18.845"/>
</g>
</svg>
