<?xml version="1.0" encoding="utf-8"?>
<!-- Generator: Adobe Illustrator 16.0.3, SVG Export Plug-In . SVG Version: 6.00 Build 0)  -->
<!DOCTYPE svg PUBLIC "-//W3C//DTD SVG 1.1//EN" "http://www.w3.org/Graphics/SVG/1.1/DTD/svg11.dtd">
<svg version="1.1" id="Calque_1" xmlns="http://www.w3.org/2000/svg" xmlns:xlink="http://www.w3.org/1999/xlink" x="0px" y="0px"
	 width="120px" height="77px" viewBox="0 0 120 77" enable-background="new 0 0 120 77" xml:space="preserve">
<g>
	<rect fill-rule="evenodd" clip-rule="evenodd" fill="#FF1400" width="120" height="77"/>
</g>
<g>
	<path fill="#FFFFFF" d="M23.237,28.334l-7.112-9.828c-1.008-1.372-1.54-2.576-1.708-3.024h-0.056v12.853h-4.06V8.565h4.004
		l7,10.192c1.064,1.539,1.708,2.688,1.82,3.164h0.056V8.565h4.032v19.769H23.237z"/>
	<path fill="#FFFFFF" d="M41.521,28.613c-1.4,0-2.1-0.867-2.324-2.044c-1.232,1.456-2.38,2.185-4.424,2.185
		c-2.632,0-4.424-1.904-4.424-4.452c0-4.06,4.256-4.845,7.56-4.845c0.616,0,0.98-0.027,0.98-0.531v-0.98
		c0-1.064-0.672-2.072-2.744-2.072c-1.736,0-3.052,0.813-3.696,1.373l-1.372-2.801c1.652-1.064,3.472-1.539,6.048-1.539
		c2.1,0,5.488,0.756,5.488,5.067v6.888c0,0.532,0.056,0.98,0.532,0.98c0.168,0,0.476-0.084,0.644-0.141l0.224,2.549
		C43.425,28.39,42.445,28.613,41.521,28.613z M38.861,21.894c-0.42-0.028-0.84-0.028-1.176-0.028c-1.372,0-3.444,0.336-3.444,2.129
		c0,1.092,0.784,1.875,1.876,1.875c0.868,0,1.596-0.279,2.1-0.812c0.448-0.476,0.644-1.036,0.644-1.765V21.894z"/>
	<path fill="#FFFFFF" d="M53.84,28.334h-4.06l-4.816-14.953h4.34l1.932,7.953c0.308,1.26,0.644,2.968,0.784,3.556h0.056
		c0.112-0.644,0.504-2.408,0.812-3.584l2.072-7.925h3.696L53.84,28.334z"/>
	<path fill="#FFFFFF" d="M72.908,21.529h-9.268c0,0.028,0,0.057,0,0.084c0,2.66,1.932,4.088,4.452,4.088
		c1.344,0,2.771-0.56,3.556-0.979l1.036,2.911c-1.148,0.533-3.137,1.177-5.32,1.177c-4.676,0-7.616-3.192-7.616-7.84
		c0-3.948,2.128-8.063,6.916-8.063c4.62,0,6.328,3.555,6.328,7C72.992,20.381,72.964,21.025,72.908,21.529z M66.496,15.649
		c-2.24,0-2.939,1.904-2.939,3.22h5.739C69.437,17.302,68.484,15.649,66.496,15.649z"/>
	<path fill="#FFFFFF" d="M81.42,28.81c-2.66,0-4.312-1.429-4.312-4.312v-8.037h-2.492v-2.799h2.492v-3.024l3.92-1.261v4.285h3.416
		v2.799h-3.416v7.561c0,1.484,0.812,1.82,1.708,1.82c0.812,0,1.371-0.196,1.708-0.309l0.392,2.885
		C84.107,28.613,82.736,28.81,81.42,28.81z"/>
	<path fill="#FFFFFF" d="M92.479,28.81c-2.66,0-4.312-1.429-4.312-4.312v-8.037h-2.492v-2.799h2.492v-3.024l3.92-1.261v4.285h3.416
		v2.799h-3.416v7.561c0,1.484,0.812,1.82,1.708,1.82c0.812,0,1.371-0.196,1.708-0.309l0.392,2.885
		C95.167,28.613,93.796,28.81,92.479,28.81z"/>
	<path fill="#FFFFFF" d="M110.567,21.529h-9.269c0,0.028,0,0.057,0,0.084c0,2.66,1.933,4.088,4.452,4.088
		c1.344,0,2.772-0.56,3.556-0.979l1.036,2.911c-1.147,0.533-3.136,1.177-5.319,1.177c-4.677,0-7.616-3.192-7.616-7.84
		c0-3.948,2.128-8.063,6.916-8.063c4.62,0,6.328,3.555,6.328,7C110.651,20.381,110.623,21.025,110.567,21.529z M104.155,15.649
		c-2.24,0-2.94,1.904-2.94,3.22h5.74C107.095,17.302,106.143,15.649,104.155,15.649z"/>
</g>
<path fill="#FFFFFF" d="M81.371,54.982h-4.157l1.648-5.074c0.205-0.633,0.408-1.466,0.408-2.008h0.044
	c0,0.496,0.182,1.331,0.407,2.008L81.371,54.982z M86.997,60.645l-5.671-15.947h-3.817l-5.651,15.947h3.48l0.995-3.023h5.897
	l0.994,3.023H86.997z M79.541,37.836c-8.004,0-14.517,6.5-14.517,14.551c0,7.987,6.513,14.487,14.517,14.487
	c8.001,0,14.516-6.5,14.516-14.487C94.057,44.336,87.542,37.836,79.541,37.836z M79.541,69.414c-9.429,0-17.06-7.616-17.06-17.027
	c0-9.475,7.631-17.091,17.06-17.091c9.43,0,17.059,7.616,17.059,17.091C96.6,61.798,88.971,69.414,79.541,69.414z"/>
<path fill="#FFFFFF" d="M57.52,52.44c0-9.467-7.933-17.145-17.017-17.145c-9.425,0-17.101,7.678-17.101,17.145
	c0,9.34,7.676,16.974,17.101,16.974C49.928,69.414,57.52,61.867,57.52,52.44z M55.173,52.44c0,8.019-6.609,14.629-14.67,14.629
	c-8.104,0-14.756-6.568-14.756-14.629c0-8.146,6.652-14.842,14.756-14.842C48.563,37.599,55.173,44.337,55.173,52.44z M52.7,49.711
	c0-2.303-1.706-3.369-3.37-3.369h-3.198c-0.596,0-0.937,0.469-0.937,0.981v10.021c0,0.597,0.595,0.896,1.149,0.896
	c0.641,0,1.152-0.299,1.152-0.896v-3.881h0.983l1.917,4.308c0.171,0.34,0.471,0.469,0.811,0.469c0.683,0,1.664-0.641,1.281-1.407
	l-1.833-3.839C51.762,52.44,52.7,51.46,52.7,49.711z M44.042,57.132c0-0.513-0.341-1.065-0.939-1.065h-3.241v-2.943h2.687
	c0.598,0,0.938-0.512,0.938-0.98c0-0.512-0.341-0.98-0.938-0.98h-2.687v-2.687h2.985c0.598,0,0.939-0.598,0.939-1.067
	c0-0.511-0.342-1.066-0.939-1.066h-4.35c-0.598,0-0.938,0.469-0.938,0.981v9.979c0,0.597,0.597,0.894,1.151,0.894h4.392
	C43.702,58.196,44.042,57.6,44.042,57.132z M36.195,49.711c0-2.303-1.705-3.369-3.37-3.369h-3.198c-0.596,0-0.938,0.469-0.938,0.981
	v10.021c0,0.597,0.597,0.896,1.151,0.896c0.64,0,1.151-0.299,1.151-0.896v-3.881h0.98l1.921,4.308
	c0.169,0.34,0.468,0.469,0.81,0.469c0.683,0,1.664-0.641,1.279-1.407l-1.833-3.839C35.258,52.44,36.195,51.46,36.195,49.711z
	 M50.312,49.967c0,1.451-1.322,1.791-2.133,1.791h-0.683v-3.454h0.812C49.374,48.304,50.312,48.773,50.312,49.967z M33.806,49.967
	c0,1.451-1.321,1.791-2.131,1.791h-0.683v-3.454h0.811C32.869,48.304,33.806,48.773,33.806,49.967z"/>
</svg>
