<?xml version="1.0" encoding="utf-8"?>
<!-- Generator: Adobe Illustrator 16.0.3, SVG Export Plug-In . SVG Version: 6.00 Build 0)  -->
<!DOCTYPE svg PUBLIC "-//W3C//DTD SVG 1.1//EN" "http://www.w3.org/Graphics/SVG/1.1/DTD/svg11.dtd">
<svg version="1.1" id="Calque_1" xmlns="http://www.w3.org/2000/svg" xmlns:xlink="http://www.w3.org/1999/xlink" x="0px" y="0px"
	 width="120px" height="77px" viewBox="0 0 120 77" enable-background="new 0 0 120 77" xml:space="preserve">
<rect fill-rule="evenodd" clip-rule="evenodd" fill="#009641" width="120" height="77"/>
<rect fill-rule="evenodd" clip-rule="evenodd" fill="#0A0082" width="120" height="68.75"/>
<path fill-rule="evenodd" clip-rule="evenodd" fill="#FFFFFF" d="M34.341,38.708V8.516h-6.154v20.402h-0.085
	c-0.089-0.373-0.371-0.975-0.845-1.807c-0.475-0.832-1.12-1.841-1.937-3.026L14.623,8.516h-6.11v30.192h6.196V19.081h0.086
	c0.124,0.36,0.399,0.954,0.823,1.78c0.424,0.826,1.02,1.772,1.786,2.838l10.868,15.008H34.341z"/>
<g>
	<g>
		<path fill="#FFFFFF" d="M52.91,62.018V34.909c-2.101,1.661-5.422,3.272-7.717,4.298l-2.345-5.275
			c3.614-1.514,7.961-3.809,11.38-6.398h6.008v34.484H52.91z"/>
		<path fill="#FFFFFF" d="M74.791,62.848c-4.934,0-7.669-1.221-9.965-2.589l2.688-5.324c1.465,1.026,3.857,2.247,6.789,2.247
			c4.005,0,6.496-2.345,6.496-5.275c0-3.956-3.029-5.324-6.545-5.324h-3.566v-5.715h3.615c3.369,0,5.471-1.758,5.471-4.395
			c0-2.199-1.662-4.201-5.275-4.201c-3.176,0-5.275,1.514-6.398,2.491l-2.492-5.08c2.932-1.954,6.105-3.077,10.453-3.077
			c7.033,0,11.039,4.201,11.039,8.792c0,3.565-1.905,6.398-5.568,7.767v0.098c3.81,0.732,6.691,3.662,6.691,8.498
			C88.223,57.816,82.801,62.848,74.791,62.848z"/>
		<path fill="#FFFFFF" d="M92.666,62.018v-4.543c0.879-4.005,4.836-7.668,9.428-11.674c2.295-2.002,4.786-4.493,4.786-7.814
			c0-2.979-1.954-5.471-5.715-5.471c-3.028,0-5.128,2.198-5.959,3.126l-3.614-4.786c3.321-2.882,6.398-4.25,11.039-4.25
			c6.057,0,11.771,3.517,11.771,10.551c0,5.91-3.761,8.693-7.913,12.455c-1.758,1.611-5.226,4.64-5.665,6.643h14.214v5.764H92.666z"
			/>
	</g>
</g>
</svg>
