<?xml version="1.0" encoding="utf-8"?>
<!-- Generator: Adobe Illustrator 16.0.3, SVG Export Plug-In . SVG Version: 6.00 Build 0)  -->
<!DOCTYPE svg PUBLIC "-//W3C//DTD SVG 1.1//EN" "http://www.w3.org/Graphics/SVG/1.1/DTD/svg11.dtd">
<svg version="1.1" id="Calque_1" xmlns="http://www.w3.org/2000/svg" xmlns:xlink="http://www.w3.org/1999/xlink" x="0px" y="0px"
	 width="120px" height="77px" viewBox="0 0 120 77" enable-background="new 0 0 120 77" xml:space="preserve">
<rect fill-rule="evenodd" clip-rule="evenodd" fill="#FF1400" width="120" height="77"/>
<rect fill-rule="evenodd" clip-rule="evenodd" fill="#0A0082" width="120" height="68.75"/>
<path fill-rule="evenodd" clip-rule="evenodd" fill="#FFFFFF" d="M34.341,38.708V8.516h-6.154v20.402h-0.085
	c-0.089-0.373-0.371-0.975-0.845-1.807c-0.475-0.832-1.12-1.841-1.937-3.026L14.623,8.516h-6.11v30.192h6.196V19.081h0.086
	c0.124,0.36,0.399,0.954,0.823,1.78c0.424,0.826,1.02,1.772,1.786,2.838l10.868,15.008H34.341z"/>
<g>
	<g>
		<path fill="#FFFFFF" d="M52.421,62.018V34.909c-2.101,1.661-5.422,3.272-7.717,4.298l-2.345-5.275
			c3.614-1.514,7.961-3.809,11.38-6.398h6.008v34.484H52.421z"/>
		<path fill="#FFFFFF" d="M74.302,62.848c-4.933,0-7.669-1.221-9.964-2.589l2.687-5.324c1.466,1.026,3.858,2.247,6.789,2.247
			c4.005,0,6.496-2.345,6.496-5.275c0-3.956-3.028-5.324-6.545-5.324h-3.565v-5.715h3.614c3.37,0,5.471-1.758,5.471-4.395
			c0-2.199-1.661-4.201-5.275-4.201c-3.175,0-5.274,1.514-6.398,2.491l-2.491-5.08c2.931-1.954,6.105-3.077,10.453-3.077
			c7.033,0,11.038,4.201,11.038,8.792c0,3.565-1.905,6.398-5.567,7.767v0.098c3.809,0.732,6.691,3.662,6.691,8.498
			C87.734,57.816,82.313,62.848,74.302,62.848z"/>
		<path fill="#FFFFFF" d="M103.754,62.945c-10.404,0-12.455-10.258-12.455-18.219s2.246-18.219,12.65-18.219
			c10.402,0,12.455,10.258,12.455,18.219S114.156,62.945,103.754,62.945z M103.852,32.32c-4.982,0-5.129,8.89-5.129,12.406
			c0,3.468,0.244,12.455,5.129,12.455c4.884,0,5.079-9.036,5.079-12.455C108.931,41.112,108.784,32.32,103.852,32.32z"/>
	</g>
</g>
</svg>
