<?xml version="1.0" encoding="iso-8859-1"?>
<!-- Generator: Adobe Illustrator 14.0.0, SVG Export Plug-In . SVG Version: 6.00 Build 43363)  -->
<!DOCTYPE svg PUBLIC "-//W3C//DTD SVG 1.1//EN" "http://www.w3.org/Graphics/SVG/1.1/DTD/svg11.dtd">
<svg version="1.1" id="Calque_1" xmlns="http://www.w3.org/2000/svg" xmlns:xlink="http://www.w3.org/1999/xlink" x="0px" y="0px"
	 width="120px" height="77px" viewBox="0 0 120 77" style="enable-background:new 0 0 120 77;" xml:space="preserve">
<g>
	<rect style="fill-rule:evenodd;clip-rule:evenodd;fill:#82DC73;" width="120" height="77"/>
	<rect style="fill-rule:evenodd;clip-rule:evenodd;fill:#0A0082;" width="120" height="68.75"/>
</g>
<path style="fill-rule:evenodd;clip-rule:evenodd;fill:#FFFFFF;" d="M34.341,38.708V8.517h-6.154v20.402h-0.085
	c-0.089-0.373-0.371-0.975-0.845-1.807c-0.475-0.832-1.12-1.841-1.937-3.026L14.623,8.517h-6.11v30.191h6.196V19.082h0.086
	c0.124,0.36,0.399,0.954,0.823,1.78c0.424,0.826,1.02,1.772,1.786,2.838l10.868,15.008H34.341z"/>
<g>
	<path style="fill:#FFFFFF;" d="M72.419,52.941v8.961h-8.534v-8.961H44.5v-7.986l16.702-26.09h11.217v27.371h5.06v6.706H72.419z
		 M63.885,26.424h-0.122c-0.183,0.731-1.402,3.353-3.109,6.035l-8.777,13.777h12.009V26.424z"/>
	<path style="fill:#FFFFFF;" d="M107.643,52.941v8.961h-8.534v-8.961H79.724v-7.986l16.702-26.09h11.217v27.371h5.06v6.706H107.643z
		 M99.108,26.424h-0.122c-0.183,0.731-1.402,3.353-3.109,6.035L87.1,46.235h12.009V26.424z"/>
</g>
</svg>
