<?xml version="1.0" encoding="iso-8859-1"?>
<!-- Generator: Adobe Illustrator 14.0.0, SVG Export Plug-In . SVG Version: 6.00 Build 43363)  -->
<!DOCTYPE svg PUBLIC "-//W3C//DTD SVG 1.1//EN" "http://www.w3.org/Graphics/SVG/1.1/DTD/svg11.dtd">
<svg version="1.1" id="Calque_1" xmlns="http://www.w3.org/2000/svg" xmlns:xlink="http://www.w3.org/1999/xlink" x="0px" y="0px"
	 width="120px" height="77px" viewBox="0 0 120 77" style="enable-background:new 0 0 120 77;" xml:space="preserve">
<g>
	<rect style="fill-rule:evenodd;clip-rule:evenodd;fill:#FF1400;" width="120" height="77"/>
	<rect y="8.25" style="fill-rule:evenodd;clip-rule:evenodd;fill:#0A0082;" width="120" height="68.75"/>
</g>
<path style="fill-rule:evenodd;clip-rule:evenodd;fill:#FFFFFF;" d="M34.341,46.958V16.766h-6.154v20.402h-0.085
	c-0.089-0.373-0.371-0.975-0.845-1.807c-0.475-0.832-1.12-1.841-1.937-3.026L14.623,16.766h-6.11v30.192h6.196V27.331h0.086
	c0.124,0.36,0.399,0.954,0.823,1.78c0.424,0.826,1.02,1.772,1.786,2.838l10.868,15.008H34.341z"/>
<g>
	<g>
		<path style="fill:#FFFFFF;" d="M51.201,70.268V43.159c-2.101,1.661-5.422,3.272-7.717,4.298l-2.345-5.275
			c3.614-1.514,7.961-3.809,11.38-6.398h6.008v34.484H51.201z"/>
		<path style="fill:#FFFFFF;" d="M74.645,71.098c-4.006,0-7.082-0.879-9.721-2.491l2.785-5.372c1.904,1.318,3.858,2.197,6.545,2.197
			c2.686,0,6.057-1.611,6.057-5.666c0-2.49-1.661-5.91-8.011-6.008c-1.954,0-4.249-0.049-5.372-0.049l1.367-17.925h18.121v5.763
			H74.01l-0.488,6.545c0.195,0,0.635,0.049,0.977,0.049c9.427,0.439,13.236,5.764,13.236,10.941
			C87.734,65.676,82.508,71.098,74.645,71.098z"/>
		<path style="fill:#FFFFFF;" d="M92.666,70.268v-4.543c0.879-4.005,4.836-7.668,9.428-11.674c2.295-2.002,4.786-4.493,4.786-7.814
			c0-2.979-1.954-5.471-5.715-5.471c-3.028,0-5.128,2.198-5.959,3.126l-3.614-4.786c3.321-2.882,6.398-4.25,11.039-4.25
			c6.057,0,11.771,3.517,11.771,10.551c0,5.91-3.761,8.693-7.913,12.455c-1.758,1.611-5.226,4.64-5.665,6.643h14.214v5.764H92.666z"
			/>
	</g>
</g>
</svg>
