<?xml version="1.0" encoding="utf-8"?>
<!-- Generator: Adobe Illustrator 16.0.3, SVG Export Plug-In . SVG Version: 6.00 Build 0)  -->
<!DOCTYPE svg PUBLIC "-//W3C//DTD SVG 1.1//EN" "http://www.w3.org/Graphics/SVG/1.1/DTD/svg11.dtd">
<svg version="1.1" id="Calque_1" xmlns="http://www.w3.org/2000/svg" xmlns:xlink="http://www.w3.org/1999/xlink" x="0px" y="0px"
	 width="120px" height="77px" viewBox="0 0 120 77" enable-background="new 0 0 120 77" xml:space="preserve">
<rect fill-rule="evenodd" clip-rule="evenodd" fill="#6E6E00" width="120" height="77"/>
<rect fill-rule="evenodd" clip-rule="evenodd" fill="#0A0082" width="120" height="68.75"/>
<path fill-rule="evenodd" clip-rule="evenodd" fill="#FFFFFF" d="M34.341,38.708V8.516h-6.154v20.402h-0.085
	c-0.089-0.373-0.371-0.975-0.845-1.807c-0.475-0.832-1.12-1.841-1.937-3.026L14.623,8.516h-6.11v30.192h6.196V19.081h0.086
	c0.124,0.36,0.399,0.954,0.823,1.78c0.424,0.826,1.02,1.772,1.786,2.838l10.868,15.008H34.341z"/>
<g>
	<path fill="#FFFFFF" d="M52.421,62.018V34.909c-2.101,1.661-5.422,3.272-7.717,4.298l-2.345-5.275
		c3.614-1.514,7.961-3.809,11.38-6.398h6.008v34.484H52.421z"/>
	<path fill="#FFFFFF" d="M74.645,62.848c-4.006,0-7.083-0.879-9.721-2.491l2.784-5.372c1.905,1.318,3.858,2.197,6.545,2.197
		s6.057-1.611,6.057-5.666c0-2.49-1.661-5.91-8.011-6.008c-1.953,0-4.249-0.049-5.372-0.049l1.367-17.925h18.121v5.763H74.009
		l-0.488,6.545c0.195,0,0.635,0.049,0.977,0.049c9.427,0.439,13.237,5.764,13.237,10.941C87.734,57.426,82.508,62.848,74.645,62.848
		z"/>
	<path fill="#FFFFFF" d="M113.082,54.837v7.181h-6.838v-7.181H90.712v-6.398l13.384-20.905h8.986v21.931h4.055v5.372H113.082z
		 M106.244,33.59h-0.098c-0.146,0.586-1.123,2.688-2.49,4.836l-7.034,11.039h9.622V33.59z"/>
</g>
</svg>
