<?xml version="1.0" encoding="utf-8"?>
<!-- Generator: Adobe Illustrator 16.0.3, SVG Export Plug-In . SVG Version: 6.00 Build 0)  -->
<!DOCTYPE svg PUBLIC "-//W3C//DTD SVG 1.1//EN" "http://www.w3.org/Graphics/SVG/1.1/DTD/svg11.dtd">
<svg version="1.1" id="Calque_1" xmlns="http://www.w3.org/2000/svg" xmlns:xlink="http://www.w3.org/1999/xlink" x="0px" y="0px"
	 width="120px" height="77px" viewBox="0 0 120 77" enable-background="new 0 0 120 77" xml:space="preserve">
<g>
	<rect fill-rule="evenodd" clip-rule="evenodd" fill="#FF1400" width="120" height="77"/>
	<rect fill-rule="evenodd" clip-rule="evenodd" fill="#0A0082" width="120" height="68.75"/>
</g>
<path fill-rule="evenodd" clip-rule="evenodd" fill="#FFFFFF" d="M34.341,38.708V8.517h-6.154v20.402h-0.085
	c-0.089-0.373-0.371-0.975-0.845-1.807c-0.475-0.832-1.12-1.841-1.937-3.026L14.623,8.517h-6.11v30.191h6.196V19.082h0.086
	c0.124,0.36,0.399,0.954,0.823,1.78c0.424,0.826,1.02,1.772,1.786,2.838l10.868,15.008H34.341z"/>
<g>
	<g>
		<path fill="#FFFFFF" d="M61.426,62.938c-11.766,0-15.972-8.168-15.972-19.567c0-14.936,7.011-25.664,20.787-25.664
			c2.438,0,4.633,0.305,6.462,0.731l-1.341,7.315c-1.158-0.488-3.414-1.036-5.913-1.036c-6.035,0-10.424,4.815-11.034,13.472
			c1.463-1.28,4.268-2.926,8.9-2.926c7.132,0,12.862,4.693,12.862,12.74C76.178,56.598,70.447,62.938,61.426,62.938z M60.572,42.028
			c-2.743,0-4.938,1.037-5.791,2.378c-0.487,0.731-0.487,2.438-0.487,3.719c0,4.084,2.377,8.046,6.766,8.046
			c4.268,0,6.462-3.475,6.462-7.192C67.521,44.955,64.839,42.028,60.572,42.028z"/>
		<path fill="#FFFFFF" d="M95.559,62.938c-11.766,0-15.972-8.168-15.972-19.567c0-14.936,7.011-25.664,20.787-25.664
			c2.438,0,4.633,0.305,6.462,0.731l-1.341,7.315c-1.158-0.488-3.414-1.036-5.913-1.036c-6.035,0-10.424,4.815-11.034,13.472
			c1.463-1.28,4.268-2.926,8.9-2.926c7.132,0,12.862,4.693,12.862,12.74C110.311,56.598,104.58,62.938,95.559,62.938z
			 M94.705,42.028c-2.743,0-4.938,1.037-5.791,2.378c-0.487,0.731-0.487,2.438-0.487,3.719c0,4.084,2.377,8.046,6.766,8.046
			c4.268,0,6.462-3.475,6.462-7.192C101.654,44.955,98.972,42.028,94.705,42.028z"/>
	</g>
</g>
</svg>
