<?xml version="1.0" encoding="utf-8"?>
<!-- Generator: Adobe Illustrator 16.0.3, SVG Export Plug-In . SVG Version: 6.00 Build 0)  -->
<!DOCTYPE svg PUBLIC "-//W3C//DTD SVG 1.1//EN" "http://www.w3.org/Graphics/SVG/1.1/DTD/svg11.dtd">
<svg version="1.1" id="Calque_1" xmlns="http://www.w3.org/2000/svg" xmlns:xlink="http://www.w3.org/1999/xlink" x="0px" y="0px"
	 width="120px" height="77px" viewBox="0 0 120 77" enable-background="new 0 0 120 77" xml:space="preserve">
<rect fill-rule="evenodd" clip-rule="evenodd" fill="#FF7D00" width="120" height="77"/>
<rect fill-rule="evenodd" clip-rule="evenodd" fill="#0A0082" width="120" height="68.75"/>
<path fill-rule="evenodd" clip-rule="evenodd" fill="#FFFFFF" d="M34.341,38.708V8.516h-6.154v20.402h-0.085
	c-0.089-0.373-0.371-0.975-0.845-1.807c-0.475-0.832-1.12-1.841-1.937-3.026L14.623,8.516h-6.11v30.192h6.196V19.081h0.086
	c0.124,0.36,0.399,0.954,0.823,1.78c0.424,0.826,1.02,1.772,1.786,2.838l10.868,15.008H34.341z"/>
<g>
	<g>
		<path fill="#FFFFFF" d="M51.337,62.018V34.909c-2.101,1.661-5.422,3.272-7.717,4.298l-2.345-5.275
			c3.614-1.514,7.961-3.809,11.38-6.398h6.008v34.484H51.337z"/>
		<path fill="#FFFFFF" d="M85.635,54.837v7.181h-6.839v-7.181H63.264v-6.398l13.383-20.905h8.988v21.931h4.053v5.372H85.635z
			 M78.796,33.59h-0.098c-0.146,0.586-1.123,2.688-2.491,4.836l-7.033,11.039h9.622V33.59z"/>
		<path fill="#FFFFFF" d="M101.996,62.018V34.909c-2.102,1.661-5.422,3.272-7.718,4.298l-2.345-5.275
			c3.614-1.514,7.961-3.809,11.381-6.398h6.008v34.484H101.996z"/>
	</g>
</g>
</svg>
