<?xml version="1.0" encoding="iso-8859-1"?>
<!-- Generator: Adobe Illustrator 14.0.0, SVG Export Plug-In . SVG Version: 6.00 Build 43363)  -->
<!DOCTYPE svg PUBLIC "-//W3C//DTD SVG 1.1//EN" "http://www.w3.org/Graphics/SVG/1.1/DTD/svg11.dtd">
<svg version="1.1" id="Calque_1" xmlns="http://www.w3.org/2000/svg" xmlns:xlink="http://www.w3.org/1999/xlink" x="0px" y="0px"
	 width="120px" height="77px" viewBox="0 0 120 77" style="enable-background:new 0 0 120 77;" xml:space="preserve">
<g>
	<rect style="fill-rule:evenodd;clip-rule:evenodd;fill:#A0006E;" width="120" height="77"/>
	<rect style="fill-rule:evenodd;clip-rule:evenodd;fill:#0A0082;" width="120" height="68.75"/>
</g>
<path style="fill-rule:evenodd;clip-rule:evenodd;fill:#FFFFFF;" d="M34.341,38.708V8.517h-6.154v20.402h-0.085
	c-0.089-0.373-0.371-0.975-0.845-1.807c-0.475-0.832-1.12-1.841-1.937-3.026L14.623,8.517h-6.11v30.191h6.196V19.082h0.086
	c0.124,0.36,0.399,0.954,0.823,1.78c0.424,0.826,1.02,1.772,1.786,2.838l10.868,15.008H34.341z"/>
<g>
	<path style="fill:#FFFFFF;" d="M60.559,63.061c-12.984,0-15.544-12.801-15.544-22.738c0-9.936,2.804-22.737,15.788-22.737
		s15.545,12.801,15.545,22.737C76.348,50.26,73.543,63.061,60.559,63.061z M60.681,24.839c-6.218,0-6.4,11.095-6.4,15.483
		c0,4.328,0.305,15.545,6.4,15.545s6.34-11.277,6.34-15.545C67.021,35.812,66.838,24.839,60.681,24.839z"/>
	<path style="fill:#FFFFFF;" d="M91.352,61.902V28.07c-2.621,2.072-6.767,4.084-9.632,5.364l-2.926-6.583
		c4.511-1.89,9.937-4.755,14.203-7.986h7.498v43.037H91.352z"/>
</g>
</svg>
