<?xml version="1.0" encoding="iso-8859-1"?>
<!-- Generator: Adobe Illustrator 14.0.0, SVG Export Plug-In . SVG Version: 6.00 Build 43363)  -->
<!DOCTYPE svg PUBLIC "-//W3C//DTD SVG 1.1//EN" "http://www.w3.org/Graphics/SVG/1.1/DTD/svg11.dtd">
<svg version="1.1" id="Calque_1" xmlns="http://www.w3.org/2000/svg" xmlns:xlink="http://www.w3.org/1999/xlink" x="0px" y="0px"
	 width="120px" height="77px" viewBox="0 0 120 77" style="enable-background:new 0 0 120 77;" xml:space="preserve">
<g>
	<rect style="fill-rule:evenodd;clip-rule:evenodd;fill:#FFBE00;" width="120" height="77"/>
	<rect style="fill-rule:evenodd;clip-rule:evenodd;fill:#0A0082;" width="120" height="68.75"/>
</g>
<path style="fill-rule:evenodd;clip-rule:evenodd;fill:#FFFFFF;" d="M34.341,38.708V8.517h-6.154v20.402h-0.085
	c-0.089-0.373-0.371-0.975-0.845-1.807c-0.475-0.832-1.12-1.841-1.937-3.026L14.623,8.517h-6.11v30.191h6.196V19.082h0.086
	c0.124,0.36,0.399,0.954,0.823,1.78c0.424,0.826,1.02,1.772,1.786,2.838l10.868,15.008H34.341z"/>
<g>
	<path style="fill:#FFFFFF;" d="M59.952,62.938c-6.156,0-9.57-1.524-12.436-3.23l3.353-6.645c1.829,1.28,4.816,2.804,8.474,2.804
		c4.999,0,8.107-2.926,8.107-6.584c0-4.938-3.779-6.645-8.169-6.645h-4.449v-7.131h4.511c4.206,0,6.827-2.195,6.827-5.486
		c0-2.743-2.072-5.243-6.583-5.243c-3.963,0-6.584,1.89-7.986,3.109l-3.108-6.34c3.657-2.438,7.62-3.84,13.045-3.84
		c8.778,0,13.776,5.243,13.776,10.973c0,4.45-2.377,7.986-6.949,9.692v0.122c4.755,0.914,8.352,4.572,8.352,10.607
		C76.716,56.66,69.949,62.938,59.952,62.938z"/>
	<path style="fill:#FFFFFF;" d="M92.056,62.938c-4.999,0-8.839-1.097-12.131-3.108l3.475-6.706c2.378,1.646,4.816,2.743,8.169,2.743
		s7.559-2.012,7.559-7.07c0-3.109-2.072-7.377-9.997-7.498c-2.438,0-5.304-0.062-6.706-0.062l1.707-22.372h22.616v7.193H91.264
		l-0.61,8.168c0.244,0,0.793,0.061,1.22,0.061c11.765,0.548,16.52,7.192,16.52,13.655C108.393,56.172,101.87,62.938,92.056,62.938z"
		/>
</g>
</svg>
