<?xml version="1.0" encoding="iso-8859-1"?>
<!-- Generator: Adobe Illustrator 14.0.0, SVG Export Plug-In . SVG Version: 6.00 Build 43363)  -->
<!DOCTYPE svg PUBLIC "-//W3C//DTD SVG 1.1//EN" "http://www.w3.org/Graphics/SVG/1.1/DTD/svg11.dtd">
<svg version="1.1" id="Calque_1" xmlns="http://www.w3.org/2000/svg" xmlns:xlink="http://www.w3.org/1999/xlink" x="0px" y="0px"
	 width="120px" height="77px" viewBox="0 0 120 77" style="enable-background:new 0 0 120 77;" xml:space="preserve">
<g>
	<rect style="fill-rule:evenodd;clip-rule:evenodd;fill:#FFBE00;" width="120" height="77"/>
	<rect style="fill-rule:evenodd;clip-rule:evenodd;fill:#0A0082;" width="120" height="68.75"/>
</g>
<path style="fill-rule:evenodd;clip-rule:evenodd;fill:#FFFFFF;" d="M34.341,38.708V8.517h-6.154v20.402h-0.085
	c-0.089-0.373-0.371-0.975-0.845-1.807c-0.475-0.832-1.12-1.841-1.937-3.026L14.623,8.517h-6.11v30.191h6.196V19.082h0.086
	c0.124,0.36,0.399,0.954,0.823,1.78c0.424,0.826,1.02,1.772,1.786,2.838l10.868,15.008H34.341z"/>
<g>
	<path style="fill:#FFFFFF;" d="M47.926,61.902v-5.669c1.097-4.999,6.034-9.571,11.765-14.569c2.865-2.5,5.974-5.608,5.974-9.753
		c0-3.719-2.438-6.828-7.132-6.828c-3.779,0-6.4,2.743-7.438,3.901l-4.511-5.974c4.146-3.597,7.986-5.304,13.777-5.304
		c7.559,0,14.69,4.389,14.69,13.167c0,7.376-4.693,10.85-9.875,15.544c-2.194,2.012-6.522,5.791-7.071,8.29h17.739v7.193H47.926z"/>
	<path style="fill:#FFFFFF;" d="M80.413,61.902v-5.669c1.097-4.999,6.034-9.571,11.765-14.569c2.865-2.5,5.974-5.608,5.974-9.753
		c0-3.719-2.438-6.828-7.132-6.828c-3.779,0-6.4,2.743-7.438,3.901l-4.511-5.974c4.146-3.597,7.985-5.304,13.777-5.304
		c7.559,0,14.69,4.389,14.69,13.167c0,7.376-4.693,10.85-9.875,15.544c-2.194,2.012-6.522,5.791-7.071,8.29h17.739v7.193H80.413z"/>
</g>
</svg>
