<?xml version="1.0" encoding="utf-8"?>
<!-- Generator: Adobe Illustrator 16.0.3, SVG Export Plug-In . SVG Version: 6.00 Build 0)  -->
<!DOCTYPE svg PUBLIC "-//W3C//DTD SVG 1.1//EN" "http://www.w3.org/Graphics/SVG/1.1/DTD/svg11.dtd">
<svg version="1.1" id="Premier_plan" xmlns="http://www.w3.org/2000/svg" xmlns:xlink="http://www.w3.org/1999/xlink" x="0px"
	 y="0px" width="311.811px" height="311.811px" viewBox="0 0 311.811 311.811" enable-background="new 0 0 311.811 311.811"
	 xml:space="preserve">
<g>
	<path fill="#0055C8" d="M-0.001,0v311.812H311.81V0H-0.001z"/>
</g>
<g>
	<path fill="#FFFFFF" d="M200.529,243.932V159.1c0,0,14.046-2.444,14.046,10.861c0,13.296,0,73.971,0,73.971H200.529z"/>
	<path fill="#FFFFFF" d="M147.653,90.297c-3.451,0-7.166,3.177-7.166,5.58c0,0,0,38.032,0,44.531h-14.845c0-6.241,0-39.636,0-39.636
		c0-13.929,6.098-22.667,20.816-22.667h21.075c0,3.055-0.385,12.192-7.861,12.192H147.653z"/>
	<path fill="#FFFFFF" d="M176.249,140.408V55.577c0,0,14.039-2.444,14.039,10.86c0,13.297,0,73.972,0,73.972H176.249z"/>
	<path fill="#FFFFFF" d="M265.716,163.986h-30.318c0,0-0.37-12.183,8.771-12.183c9.151,0,18.896,0,18.896,0
		c5.299,0,6.346-1.593,6.346-4.511v-6.884h-48.082c-14.706,0-20.8-8.758-20.8-22.668V92.433c0-8.616,0-8.486,0-14.328
		c0,0,14.044-2.526,14.044,14.924c0,12.465,0,30.005,0,30.005c0,3.843,1.333,5.177,5.18,5.177h45.963
		c2.91,0,3.695-0.398,3.695-5.299V89.898c0-7.812,0-4.765,0-11.793h14.052v67.589C283.463,157.495,277.104,163.986,265.716,163.986z
		"/>
	<path fill="#FFFFFF" d="M100.527,123.239c0,3.592-1.044,5.041-4.765,5.041H48.323c-3.458,0-4.519-1.448-4.519-5.041V95.405
		c0-3.57,1.061-5.032,4.519-5.032h47.439c3.72,0,4.765,1.462,4.765,5.032V123.239z M114.583,121.649V97.003
		c0-12.994-3.972-18.822-18.023-18.822H47.786c-14.052,0-18.012,5.829-18.012,18.822v24.646c0,13.013,3.96,18.828,18.012,18.828
		h48.773C110.611,140.477,114.583,134.662,114.583,121.649z"/>
	<path fill="#FFFFFF" d="M83.156,239.099c0,0-3.15,5.313-7.119,5.313c-3.96,0-2.64,0-6.606,0c-4.844,0-7.934-5.341-7.934-5.341
		l-33.152-57.33c0,0,1.729,0,6.429,0c4.696,0,8.973,0.761,14.18,9.382c5.207,8.622,23.353,40.486,23.353,40.486l28.765-49.868h15.2
		L83.156,239.099z"/>
	<path fill="#FFFFFF" d="M172.994,226.009c0,5.739-0.918,6.138-5.24,6.138h-41.362c-4.716,0-6.541-0.806-6.541-5.336v-6.398
		c0-4.53,1.825-5.332,6.541-5.332h46.602V226.009z M186.852,243.932c0-4.666,0.01-13.378,0.01-19.776v-18.809
		c0-16.935-5.102-23.606-20.679-23.606h-27.166c0,0-2.904,12.265,13.621,12.265c16.522,0,15.116,0,15.116,0
		c4.322,0,5.24,1.209,5.24,4.002c0,2.939,0,3.068,0,4.937h-49.221c-13.869,0-17.797,8.662-17.797,18.939v3.598
		c0,13.07,3.917,18.451,17.786,18.451H186.852z"/>
</g>
</svg>
