<?xml version="1.0" encoding="utf-8"?>
<!-- Generator: Adobe Illustrator 21.0.2, SVG Export Plug-In . SVG Version: 6.00 Build 0)  -->
<svg version="1.1" id="Calque_1" xmlns="http://www.w3.org/2000/svg" xmlns:xlink="http://www.w3.org/1999/xlink" x="0px" y="0px"
	 viewBox="0 0 120 77" style="enable-background:new 0 0 120 77;" xml:space="preserve">
<style type="text/css">
	.st0{fill-rule:evenodd;clip-rule:evenodd;fill:#3E4482;}
	.st1{fill:#FFFFFF;}
</style>
<rect class="st0" width="120" height="77"/>
<g>
	<path class="st1" d="M37.3,68.9v-47c-3.6,2.9-9.4,5.7-13.4,7.5l-4.1-9.1c6.3-2.6,13.8-6.6,19.7-11.1H50v59.8H37.3z"/>
	<path class="st1" d="M74.5,70.3c-6.9,0-12.3-1.5-16.8-4.3l4.8-9.3c3.3,2.3,6.7,3.8,11.3,3.8c4.7,0,10.5-2.8,10.5-9.8
		c0-4.3-2.9-10.2-13.9-10.4c-3.4,0-7.4-0.1-9.3-0.1l2.4-31.1h31.4v10H73.4l-0.8,11.3c0.3,0,1.1,0.1,1.7,0.1
		c16.3,0.8,22.9,10,22.9,19C97.2,60.9,88.1,70.3,74.5,70.3z"/>
</g>
</svg>
