<?xml version="1.0" encoding="utf-8"?>
<!-- Generator: Adobe Illustrator 21.0.2, SVG Export Plug-In . SVG Version: 6.00 Build 0)  -->
<svg version="1.1" id="Calque_1" xmlns="http://www.w3.org/2000/svg" xmlns:xlink="http://www.w3.org/1999/xlink" x="0px" y="0px"
	 viewBox="0 0 120 77" style="enable-background:new 0 0 120 77;" xml:space="preserve">
<style type="text/css">
	.st0{fill-rule:evenodd;clip-rule:evenodd;fill:#B4B3D0;}
	.st1{fill:#1A171B;}
</style>
<g>
	<rect class="st0" width="120" height="77"/>
	<g>
		<path class="st1" d="M15.9,67.9v-7.9c1.5-6.9,8.4-13.3,16.3-20.2c4-3.5,8.3-7.8,8.3-13.5c0-5.2-3.4-9.5-9.9-9.5
			c-5.2,0-8.9,3.8-10.3,5.4l-6.3-8.3c5.8-5,11.1-7.3,19.1-7.3c10.5,0,20.4,6.1,20.4,18.2c0,10.2-6.5,15-13.7,21.5
			c-3,2.8-9.1,8-9.8,11.5h24.6v10H15.9z"/>
		<path class="st1" d="M81.9,69.5c-18,0-21.6-17.7-21.6-31.5S64.2,6.6,82.2,6.6c18,0,21.6,17.7,21.6,31.5S99.9,69.5,81.9,69.5z
			 M82.1,16.6c-8.6,0-8.9,15.4-8.9,21.4c0,6,0.4,21.5,8.9,21.5c8.5,0,8.8-15.6,8.8-21.5C90.9,31.8,90.6,16.6,82.1,16.6z"/>
	</g>
</g>
</svg>
