<?xml version="1.0" encoding="utf-8"?>
<!-- Generator: Adobe Illustrator 21.0.2, SVG Export Plug-In . SVG Version: 6.00 Build 0)  -->
<svg version="1.1" id="Calque_1" xmlns="http://www.w3.org/2000/svg" xmlns:xlink="http://www.w3.org/1999/xlink" x="0px" y="0px"
	 viewBox="0 0 120 77" style="enable-background:new 0 0 120 77;" xml:space="preserve">
<style type="text/css">
	.st0{fill-rule:evenodd;clip-rule:evenodd;fill:#116EB4;}
	.st1{fill:#FFFFFF;}
</style>
<g>
	<rect class="st0" width="120" height="77"/>
	<g>
		<path class="st1" d="M16.9,68.9V61c1.5-6.9,8.4-13.3,16.3-20.2c4-3.5,8.3-7.8,8.3-13.5c0-5.2-3.4-9.5-9.9-9.5
			c-5.2,0-8.9,3.8-10.3,5.4L15,14.8c5.8-5,11.1-7.4,19.1-7.4c10.5,0,20.4,6.1,20.4,18.3c0,10.2-6.5,15.1-13.7,21.6
			c-3,2.8-9.1,8-9.8,11.5h24.6v10H16.9z"/>
		<path class="st1" d="M99.7,56.4v12.4H87.9V56.4H60.9V45.3L84.1,9.1h15.6v38h7v9.3H99.7z M87.9,19.6h-0.2c-0.3,1-1.9,4.7-4.3,8.4
			L71.2,47.1h16.7V19.6z"/>
	</g>
</g>
</svg>
