<?xml version="1.0" encoding="utf-8"?>
<!-- Generator: Adobe Illustrator 21.0.2, SVG Export Plug-In . SVG Version: 6.00 Build 0)  -->
<svg version="1.1" id="Calque_1" xmlns="http://www.w3.org/2000/svg" xmlns:xlink="http://www.w3.org/1999/xlink" x="0px" y="0px"
	 viewBox="0 0 120 77" style="enable-background:new 0 0 120 77;" xml:space="preserve">
<style type="text/css">
	.st0{fill-rule:evenodd;clip-rule:evenodd;fill:#25A3B8;}
	.st1{fill:#FFFFFF;}
</style>
<rect class="st0" width="120" height="77"/>
<g>
	<path class="st1" d="M25.3,60.1c-5.9,0-9.1-1.5-11.8-3.1l3.2-6.3c1.7,1.2,4.6,2.7,8.1,2.7c4.8,0,7.7-2.8,7.7-6.3
		c0-4.7-3.6-6.3-7.8-6.3h-4.2V34h4.3c4,0,6.5-2.1,6.5-5.2c0-2.6-2-5-6.3-5c-3.8,0-6.3,1.8-7.6,3l-3-6c3.5-2.3,7.3-3.7,12.4-3.7
		c8.4,0,13.1,5,13.1,10.4c0,4.2-2.3,7.6-6.6,9.2v0.1c4.5,0.9,7.9,4.3,7.9,10.1C41.2,54.1,34.8,60.1,25.3,60.1z"/>
	<path class="st1" d="M60.3,60.2c-12.4,0-14.8-12.2-14.8-21.6S48.2,17,60.5,17s14.8,12.2,14.8,21.6S72.6,60.2,60.3,60.2z M60.4,23.9
		c-5.9,0-6.1,10.6-6.1,14.7c0,4.1,0.3,14.8,6.1,14.8c5.8,0,6-10.7,6-14.8C66.4,34.3,66.3,23.9,60.4,23.9z"/>
	<path class="st1" d="M92.1,59.1h-9.3c0-5.4,1.5-8.9,5-15.5l10-18.6H77.9v-6.8h28.7v6.7C97.6,40.5,92.1,52.7,92.1,59.1z"/>
</g>
</svg>
