<?xml version="1.0" encoding="utf-8"?>
<!-- Generator: Adobe Illustrator 21.0.2, SVG Export Plug-In . SVG Version: 6.00 Build 0)  -->
<svg version="1.1" id="Calque_1" xmlns="http://www.w3.org/2000/svg" xmlns:xlink="http://www.w3.org/1999/xlink" x="0px" y="0px"
	 viewBox="0 0 120 77" style="enable-background:new 0 0 120 77;" xml:space="preserve">
<style type="text/css">
	.st0{fill-rule:evenodd;clip-rule:evenodd;fill:#EE7325;}
	.st1{fill:#FFFFFF;}
</style>
<g>
	<rect class="st0" width="120" height="77"/>
	<g>
		<path class="st1" d="M32.5,70.3c-8.6,0-13.3-2.1-17.3-4.5l4.7-9.2c2.5,1.8,6.7,3.9,11.8,3.9c6.9,0,11.3-4.1,11.3-9.1
			c0-6.9-5.2-9.2-11.3-9.2h-6.2v-9.9h6.3c5.8,0,9.5-3,9.5-7.6c0-3.8-2.9-7.3-9.1-7.3c-5.5,0-9.1,2.6-11.1,4.3l-4.3-8.8
			c5.1-3.4,10.6-5.3,18.1-5.3c12.2,0,19.1,7.3,19.1,15.2c0,6.2-3.3,11.1-9.7,13.5v0.2c6.6,1.3,11.6,6.3,11.6,14.7
			C55.8,61.6,46.4,70.3,32.5,70.3z"/>
		<path class="st1" d="M99.7,56.4v12.4H87.9V56.4H60.9V45.3L84.1,9.1h15.6v38h7v9.3H99.7z M87.9,19.6h-0.2c-0.3,1-1.9,4.7-4.3,8.4
			L71.2,47.1h16.7V19.6z"/>
	</g>
</g>
</svg>
