<?xml version="1.0" encoding="utf-8"?>
<!-- Generator: Adobe Illustrator 21.0.2, SVG Export Plug-In . SVG Version: 6.00 Build 0)  -->
<svg version="1.1" id="Calque_1" xmlns="http://www.w3.org/2000/svg" xmlns:xlink="http://www.w3.org/1999/xlink" x="0px" y="0px"
	 viewBox="0 0 120 77" style="enable-background:new 0 0 120 77;" xml:space="preserve">
<style type="text/css">
	.st0{fill-rule:evenodd;clip-rule:evenodd;fill:#8DB0AE;}
	.st1{fill:#FFFFFF;}
</style>
<rect class="st0" width="120" height="77"/>
<g>
	<path class="st1" d="M17.9,53.5c-4.1,0-6.4-1-8.4-2.2l2.3-4.5c1.2,0.9,3.2,1.9,5.7,1.9c3.4,0,5.5-2,5.5-4.4c0-3.3-2.5-4.5-5.5-4.5
		h-3v-4.8h3c2.8,0,4.6-1.5,4.6-3.7c0-1.8-1.4-3.5-4.4-3.5c-2.7,0-4.4,1.3-5.4,2.1l-2.1-4.3c2.5-1.6,5.1-2.6,8.8-2.6
		c5.9,0,9.3,3.5,9.3,7.4c0,3-1.6,5.4-4.7,6.5v0.1c3.2,0.6,5.6,3.1,5.6,7.1C29.2,49.3,24.6,53.5,17.9,53.5z"/>
	<path class="st1" d="M38.9,53.6c-1.6,0-3.1-0.2-4.4-0.5l0.9-4.9c0.8,0.3,2.3,0.7,4,0.7c4.1,0,7-3.2,7.4-9.1c-1,0.9-2.9,2-6,2
		c-4.8,0-8.7-3.2-8.7-8.6c0-5.8,3.9-10,9.9-10c7.9,0,10.8,5.5,10.8,13.2C52.9,46.4,48.1,53.6,38.9,53.6z M42.3,27.7
		c-2.9,0-4.4,2.3-4.4,4.8c0,2.7,1.8,4.7,4.7,4.7c1.8,0,3.3-0.7,3.9-1.6c0.3-0.5,0.3-1.6,0.3-2.5C46.9,30.4,45.3,27.7,42.3,27.7z"/>
	<path class="st1" d="M54.6,44.1v-5.4h10.8v5.4H54.6z"/>
	<path class="st1" d="M77.2,53.6c-8.7,0-10.5-8.6-10.5-15.3S68.6,23,77.3,23s10.5,8.6,10.5,15.3S85.9,53.6,77.2,53.6z M77.2,27.9
		c-4.2,0-4.3,7.5-4.3,10.4c0,2.9,0.2,10.5,4.3,10.5s4.3-7.6,4.3-10.5C81.5,35.3,81.4,27.9,77.2,27.9z"/>
	<path class="st1" d="M100.2,52.8h-6.6c0-3.8,1-6.3,3.6-11l7.1-13.1H90.1v-4.8h20.3v4.7C104.1,39.6,100.2,48.3,100.2,52.8z"/>
</g>
</svg>
