<?xml version="1.0" encoding="utf-8"?>
<!-- Generator: Adobe Illustrator 21.0.2, SVG Export Plug-In . SVG Version: 6.00 Build 0)  -->
<svg version="1.1" id="Calque_1" xmlns="http://www.w3.org/2000/svg" xmlns:xlink="http://www.w3.org/1999/xlink" x="0px" y="0px"
	 viewBox="0 0 120 77" style="enable-background:new 0 0 120 77;" xml:space="preserve">
<style type="text/css">
	.st0{fill-rule:evenodd;clip-rule:evenodd;fill:#FF5A00;}
	.st1{fill:#FFFFFF;}
</style>
<rect class="st0" width="120" height="77"/>
<g>
	<path class="st1" d="M52.3,56.4v12.4H40.4V56.4H13.5V45.3L36.7,9.1h15.6v38h7v9.3H52.3z M40.4,19.6h-0.2c-0.3,1-1.9,4.7-4.3,8.4
		L23.8,47.1h16.7V19.6z"/>
	<path class="st1" d="M83.5,70.5c-18,0-21.6-17.8-21.6-31.6S65.8,7.3,83.9,7.3s21.6,17.8,21.6,31.6S101.6,70.5,83.5,70.5z
		 M83.7,17.4c-8.6,0-8.9,15.4-8.9,21.5c0,6,0.4,21.6,8.9,21.6c8.5,0,8.8-15.7,8.8-21.6C92.5,32.6,92.3,17.4,83.7,17.4z"/>
</g>
</svg>
