<?xml version="1.0" encoding="utf-8"?>
<!-- Generator: Adobe Illustrator 21.0.2, SVG Export Plug-In . SVG Version: 6.00 Build 0)  -->
<svg version="1.1" id="Calque_1" xmlns="http://www.w3.org/2000/svg" xmlns:xlink="http://www.w3.org/1999/xlink" x="0px" y="0px"
	 viewBox="0 0 120 77" style="enable-background:new 0 0 120 77;" xml:space="preserve">
<style type="text/css">
	.st0{fill-rule:evenodd;clip-rule:evenodd;fill:#B80D80;}
	.st1{fill:#FFFFFF;}
</style>
<g>
	<rect class="st0" width="120" height="77"/>
	<g>
		<path class="st1" d="M52.3,56.4v12.4H40.4V56.4H13.5V45.3L36.7,9.1h15.6v38h7v9.3H52.3z M40.4,19.6h-0.2c-0.3,1-1.9,4.7-4.3,8.4
			L23.8,47.1h16.7V19.6z"/>
		<path class="st1" d="M80.5,70.3c-6.9,0-12.3-1.5-16.8-4.3l4.8-9.3c3.3,2.3,6.7,3.8,11.3,3.8s10.5-2.8,10.5-9.8
			c0-4.3-2.9-10.2-13.9-10.4c-3.4,0-7.4-0.1-9.3-0.1l2.4-31.1h31.4v10H79.4l-0.8,11.3c0.3,0,1.1,0.1,1.7,0.1
			c16.3,0.8,22.9,10,22.9,19C103.2,60.9,94.1,70.3,80.5,70.3z"/>
	</g>
</g>
</svg>
