<?xml version="1.0" encoding="utf-8"?>
<!-- Generator: Adobe Illustrator 21.0.2, SVG Export Plug-In . SVG Version: 6.00 Build 0)  -->
<svg version="1.1" id="Calque_1" xmlns="http://www.w3.org/2000/svg" xmlns:xlink="http://www.w3.org/1999/xlink" x="0px" y="0px"
	 viewBox="0 0 120 77" style="enable-background:new 0 0 120 77;" xml:space="preserve">
<style type="text/css">
	.st0{fill-rule:evenodd;clip-rule:evenodd;fill:#14A0DD;}
	.st1{fill:#FFFFFF;}
</style>
<g>
	<rect class="st0" width="120" height="77"/>
	<g>
		<path class="st1" d="M33.1,70.3c-6.9,0-12.3-1.5-16.8-4.3l4.8-9.3c3.3,2.3,6.7,3.8,11.3,3.8s10.5-2.8,10.5-9.8
			c0-4.3-2.9-10.2-13.9-10.4c-3.4,0-7.4-0.1-9.3-0.1l2.4-31.1h31.4v10H32l-0.8,11.3c0.3,0,1.1,0.1,1.7,0.1c16.3,0.8,22.9,10,22.9,19
			C55.8,60.9,46.7,70.3,33.1,70.3z"/>
		<path class="st1" d="M83.5,70.5c-18,0-21.6-17.8-21.6-31.6S65.8,7.3,83.9,7.3s21.6,17.8,21.6,31.6S101.6,70.5,83.5,70.5z
			 M83.7,17.4c-8.6,0-8.9,15.4-8.9,21.5c0,6,0.4,21.6,8.9,21.6c8.5,0,8.8-15.7,8.8-21.6C92.5,32.6,92.3,17.4,83.7,17.4z"/>
	</g>
</g>
</svg>
