<?xml version="1.0" encoding="utf-8"?>
<!-- Generator: Adobe Illustrator 21.0.2, SVG Export Plug-In . SVG Version: 6.00 Build 0)  -->
<svg version="1.1" id="Calque_1" xmlns="http://www.w3.org/2000/svg" xmlns:xlink="http://www.w3.org/1999/xlink" x="0px" y="0px"
	 viewBox="0 0 120 77" style="enable-background:new 0 0 120 77;" xml:space="preserve">
<style type="text/css">
	.st0{fill-rule:evenodd;clip-rule:evenodd;fill:#87C2EC;}
	.st1{fill:#FFFFFF;}
</style>
<g>
	<rect class="st0" width="120" height="77"/>
	<g>
		<path class="st1" d="M37.6,70.3c-16.3,0-22.2-11.3-22.2-27.2c0-20.7,9.7-35.6,28.9-35.6c3.4,0,6.4,0.4,9,1l-1.9,10.2
			c-1.6-0.7-4.7-1.4-8.2-1.4c-8.4,0-14.5,6.7-15.3,18.7c2-1.8,5.9-4.1,12.4-4.1c9.9,0,17.9,6.5,17.9,17.7
			C58.1,61.5,50.2,70.3,37.6,70.3z M36.5,41.3c-3.8,0-6.9,1.4-8,3.3c-0.7,1-0.7,3.4-0.7,5.2c0,5.7,3.3,11.2,9.4,11.2
			c5.9,0,9-4.8,9-10C46.1,45.3,42.4,41.3,36.5,41.3z"/>
		<path class="st1" d="M83.5,70.5c-18,0-21.6-17.8-21.6-31.6S65.8,7.3,83.9,7.3s21.6,17.8,21.6,31.6S101.6,70.5,83.5,70.5z
			 M83.7,17.4c-8.6,0-8.9,15.4-8.9,21.5c0,6,0.4,21.6,8.9,21.6c8.5,0,8.8-15.7,8.8-21.6C92.5,32.6,92.3,17.4,83.7,17.4z"/>
	</g>
</g>
</svg>
