<?xml version="1.0" encoding="utf-8"?>
<!-- Generator: Adobe Illustrator 21.0.2, SVG Export Plug-In . SVG Version: 6.00 Build 0)  -->
<svg version="1.1" id="Calque_1" xmlns="http://www.w3.org/2000/svg" xmlns:xlink="http://www.w3.org/1999/xlink" x="0px" y="0px"
	 viewBox="0 0 120 77" style="enable-background:new 0 0 120 77;" xml:space="preserve">
<style type="text/css">
	.st0{fill-rule:evenodd;clip-rule:evenodd;fill:#9373B1;}
	.st1{fill:#FFFFFF;}
</style>
<g>
	<rect class="st0" width="120" height="77"/>
	<g>
		<path class="st1" d="M16.2,53.7c-1.7,0-3.2-0.2-4.5-0.5l0.9-5c0.8,0.3,2.4,0.7,4.1,0.7c4.2,0,7.2-3.3,7.6-9.3c-1,0.9-2.9,2-6.1,2
			c-4.9,0-8.9-3.2-8.9-8.8c0-5.9,3.9-10.3,10.2-10.3c8.1,0,11,5.6,11,13.5C30.5,46.3,25.7,53.7,16.2,53.7z M19.8,27.2
			c-2.9,0-4.5,2.4-4.5,5c0,2.8,1.8,4.8,4.8,4.8c1.9,0,3.4-0.7,4-1.6c0.3-0.5,0.3-1.7,0.3-2.6C24.4,29.9,22.8,27.2,19.8,27.2z"/>
		<path class="st1" d="M41.1,52.9V29.6c-1.8,1.4-4.7,2.8-6.6,3.7l-2-4.5c3.1-1.3,6.8-3.3,9.8-5.5h5.2v29.7H41.1z"/>
		<path class="st1" d="M56.9,53.1c-2.2,0-3.6-1.4-3.6-3.4c0-1.9,1.4-3.4,3.6-3.4c2.2,0,3.5,1.4,3.5,3.4
			C60.4,51.7,59.1,53.1,56.9,53.1z"/>
		<path class="st1" d="M75.1,53.7c-8.9,0-10.7-8.8-10.7-15.7s1.9-15.7,10.9-15.7C84.2,22.4,86,31.2,86,38S84.1,53.7,75.1,53.7z
			 M75.2,27.4c-4.3,0-4.4,7.6-4.4,10.7c0,3,0.2,10.7,4.4,10.7c4.2,0,4.4-7.8,4.4-10.7C79.6,34.9,79.4,27.4,75.2,27.4z"/>
		<path class="st1" d="M99.7,53.7c-6.6,0-10.3-3.9-10.3-8.4c0-3.9,2.2-6.4,5.1-7.9c-2.6-1.6-4.2-3.6-4.2-6.7c0-4.9,4.5-8.3,9.5-8.3
			c5.2,0,9.5,2.6,9.5,7.6c0,2.8-1.4,5.1-4.2,6.8c2.7,1.3,5.1,3.8,5.1,7.7C110.3,50.2,105.8,53.7,99.7,53.7z M99.2,39.4
			c-1.9,0.8-3.9,2.9-3.9,5.2c0,2.4,1.6,4.7,4.5,4.7c2.8,0,4.4-2,4.4-4.3C104.1,42.3,101.7,40.7,99.2,39.4z M99.9,26.6
			c-2.3,0-3.8,1.4-3.8,3.5c0,2.4,2.4,3.9,4.3,4.7c1.6-0.7,3.2-2.6,3.2-4.5C103.7,28.3,102.3,26.6,99.9,26.6z"/>
	</g>
</g>
</svg>
