<?xml version="1.0" encoding="utf-8"?>
<!-- Generator: Adobe Illustrator 16.0.3, SVG Export Plug-In . SVG Version: 6.00 Build 0)  -->
<!DOCTYPE svg PUBLIC "-//W3C//DTD SVG 1.1//EN" "http://www.w3.org/Graphics/SVG/1.1/DTD/svg11.dtd">
<svg version="1.1" id="Calque_1" xmlns="http://www.w3.org/2000/svg" xmlns:xlink="http://www.w3.org/1999/xlink" x="0px" y="0px"
	 width="120px" height="77px" viewBox="0 0 120 77" enable-background="new 0 0 120 77" xml:space="preserve">
<rect fill-rule="evenodd" clip-rule="evenodd" fill="#DC9600" width="120" height="77"/>
<g>
	<path fill="#003C43" d="M8.095,27.847c0-7.346,0-14.346,9.576-14.346c5.926,0,8.31,3.27,8.078,9.232h-5.692
		c0-3.692-0.652-5.078-2.386-5.078c-3.268,0-3.692,3.078-3.692,10.191c0,7.115,0.425,10.193,3.692,10.193
		c2.694,0,2.578-3.461,2.656-5.654h5.729c0,7.422-2.96,9.808-8.385,9.808C8.095,42.193,8.095,35.118,8.095,27.847z"/>
	<path fill="#003C43" d="M45.56,38.117c0,1.191,0.154,2.422,0.268,3.613h-5.036l-0.229-2.575H40.48
		c-1.151,2.001-2.727,2.961-5.076,2.961c-3.77,0-5.15-2.808-5.15-6.191c0-6.425,4.958-6.691,9.996-6.614V27.81
		c0-1.654-0.227-2.848-2.189-2.848c-1.887,0-2.041,1.425-2.041,2.963h-5.305c0-2.344,0.731-3.848,1.998-4.73
		c1.232-0.923,3.001-1.27,5.075-1.27c6.886,0,7.771,2.961,7.771,6.498V38.117z M35.559,35.693c0,1.386,0.231,3.077,2.001,3.077
		c3.193,0,2.69-4.309,2.69-6.424C37.56,32.462,35.559,32.233,35.559,35.693z"/>
	<path fill="#003C43" d="M55.676,35.503c-0.04,0.883,0,1.729,0.268,2.344c0.31,0.615,0.886,0.924,1.964,0.924
		c1.076,0,1.998-0.691,1.998-2c0-4.115-9.536-3.191-9.536-9.383c0-4.193,4.151-5.463,7.65-5.463c3.694,0,7.04,1.768,6.731,5.963
		h-5.306c0-1.348-0.153-2.154-0.539-2.501c-0.348-0.346-0.809-0.425-1.385-0.425c-1.194,0-1.846,0.771-1.846,2.078
		c0,3.076,9.538,2.923,9.538,9.152c0,3.385-2.771,5.924-7.268,5.924c-4.734,0-7.889-1.192-7.577-6.613H55.676z"/>
	<path fill="#003C43" d="M67.637,22.311h2.194v-3.078l5.418-2.421v5.499h2.812v3.346h-2.812v10.383c0,1.461-0.037,2.423,1.734,2.423
		c0.347,0,0.689,0,0.96-0.076v3.345c-0.73,0.08-1.5,0.194-2.805,0.194c-4.694,0-5.308-3.117-5.308-4.308V25.656h-2.194V22.311z"/>
	<path fill="#003C43" d="M81.406,31.771c0-5.307,0.771-9.846,7.921-9.846c7.156,0,7.926,4.539,7.926,9.846
		c0,6.076-0.924,10.346-7.926,10.346C82.327,42.116,81.406,37.847,81.406,31.771z M91.831,31.462c0-4.039-0.195-6.075-2.504-6.075
		c-2.307,0-2.499,2.036-2.499,6.075c0,5.924,0.499,7.193,2.499,7.193C91.33,38.655,91.831,37.386,91.831,31.462z"/>
	<path fill="#003C43" d="M107.599,22.311v2.5h0.076c1.001-2.233,2.845-2.886,5.039-2.886v4.848
		c-4.771-0.309-4.847,2.461-4.847,4.385V41.73h-5.424v-19.42H107.599z"/>
</g>
<g>
	<path fill="#003C43" d="M16.385,60.338v-7.294c0-1.129-0.393-2.046-1.852-2.046c-1.879,0-2.149,1.667-2.149,3.105v6.234h-1.713
		v-8.339c0-0.729-0.036-1.457-0.1-2.188h1.813v1.355h0.082c0.668-1.189,1.461-1.564,2.815-1.564c2.251,0,2.814,1.354,2.814,3.441
		v7.294H16.385z"/>
	<path fill="#003C43" d="M32.585,58.812h-0.044c-0.519,1.212-1.331,1.73-2.647,1.73c-2.228,0-2.873-1.434-2.873-3.455
		c0-3.19,3.126-3.335,5.521-3.271c0.044-1.399,0.064-2.919-1.768-2.919c-1.149,0-1.754,0.77-1.649,1.875H27.27
		c0.085-2.356,1.334-3.169,3.566-3.169c2.706,0,3.416,1.396,3.416,3.169v5.065c0,0.834,0.081,1.688,0.211,2.501h-1.878V58.812z
		 M28.729,57.211c0,1.019,0.501,1.94,1.646,1.94c1.042,0,2.333-0.647,2.165-4.046C30.918,55.124,28.729,54.979,28.729,57.211z"/>
	<path fill="#003C43" d="M42.556,49.812h1.919l2.355,8.918h0.041l2.542-8.918h1.793l-3.292,10.526h-2.23L42.556,49.812z"/>
	<path fill="#003C43" d="M61.015,55.625c0,2.94,0.791,3.526,2.126,3.526c1.167,0,1.771-0.94,1.835-2.003h1.875
		c-0.022,2.334-1.459,3.394-3.669,3.394c-2.229,0-3.998-0.664-3.998-5.314c0-3.082,0.352-5.625,3.998-5.625
		c3.002,0,3.752,1.646,3.752,5.126v0.896H61.015z M65.121,54.335c0-3.064-0.854-3.438-2.105-3.438c-1.085,0-1.98,0.52-2.001,3.438
		H65.121z"/>
	<path fill="#003C43" d="M76.41,49.812v-2.02l1.71-0.772v2.792h2.295v1.295H78.12v6.437c0,0.668,0,1.522,1.563,1.522
		c0.123,0,0.397-0.041,0.772-0.086v1.315c-0.565,0.043-1.126,0.167-1.69,0.167c-1.624,0-2.355-0.666-2.355-1.876v-7.479h-1.729
		v-1.295H76.41z"/>
	<path fill="#003C43" d="M90.676,49.812v-2.02l1.713-0.772v2.792h2.291v1.295h-2.291v6.437c0,0.668,0,1.522,1.564,1.522
		c0.122,0,0.393-0.041,0.769-0.086v1.315c-0.567,0.043-1.127,0.167-1.688,0.167c-1.627,0-2.357-0.666-2.357-1.876v-7.479h-1.728
		v-1.295H90.676z"/>
	<path fill="#003C43" d="M104.45,55.625c0,2.94,0.792,3.526,2.13,3.526c1.167,0,1.771-0.94,1.833-2.003h1.873
		c-0.021,2.334-1.457,3.394-3.667,3.394c-2.229,0-4.002-0.664-4.002-5.314c0-3.082,0.354-5.625,4.002-5.625
		c3.001,0,3.753,1.646,3.753,5.126v0.896H104.45z M108.559,54.335c0-3.064-0.857-3.438-2.107-3.438c-1.082,0-1.98,0.52-2.001,3.438
		H108.559z"/>
</g>
</svg>
