<svg xmlns="http://www.w3.org/2000/svg" viewBox="0 0 120 77"><title>PCgenRVB</title><rect width="120" height="77" fill="#0055c8"/><path d="M32.317,47.445H26.22991V68.41142H13.04134V8.72439H31.38718c13.78033,0,25.61631,3.71986,25.61631,18.51468C57.00349,44.57063,42.54677,47.445,32.317,47.445Zm-.169-28.49114H26.22991V37.30016H32.317c4.9036,0,11.32884-1.522,11.32884-9.21565C43.64588,19.9686,36.54425,18.95391,32.148,18.95391Z" fill="#fff"/><path d="M91.07421,69.84884c-15.13291,0-29.58984-9.976-29.58984-30.60433,0-17.83849,10.39856-32.12637,29.58984-32.12637a40.28686,40.28686,0,0,1,17.07768,3.46619l-4.31142,10.90591a25.16816,25.16816,0,0,0-12.08965-3.21251c-9.13061,0-16.57074,6.00231-16.57074,20.37482,0,13.69591,8.96176,20.03631,17.585,20.03631a23.61931,23.61931,0,0,0,11.92081-3.21251l3.55061,10.22951A38.36914,38.36914,0,0,1,91.07421,69.84884Z" fill="#fff"/></svg>