<?xml version="1.0" encoding="utf-8"?>
<!-- Generator: Adobe Illustrator 14.0.0, SVG Export Plug-In . SVG Version: 6.00 Build 43363)  -->
<!DOCTYPE svg PUBLIC "-//W3C//DTD SVG 1.1//EN" "http://www.w3.org/Graphics/SVG/1.1/DTD/svg11.dtd">
<svg version="1.1" xmlns="http://www.w3.org/2000/svg" xmlns:xlink="http://www.w3.org/1999/xlink" x="0px" y="0px" width="160px"
	 height="160px" viewBox="0 0 160 160" enable-background="new 0 0 160 160" xml:space="preserve">
<g id="Temps_d_x27_attente">
</g>
<g id="Calque_5">
</g>
<g id="Ardoise">
</g>
<g id="Logos">
	<g>
		<path fill="#0A0082" d="M160,80.205C160,35.801,124.204,0,79.803,0C35.602,0,0,35.801,0,80.205C0,124.406,35.602,160,79.803,160
			C124.204,160,160,124.406,160,80.205z M148.199,80.205c0,37.592-30.596,67.996-68.396,67.996c-37.602,0-68-30.404-68-67.996
			c0-37.803,30.398-68.404,68-68.404C117.603,11.801,148.199,42.402,148.199,80.205z M117.406,48.404
			c0-3.201-2.003-6.201-5.604-6.201H48.403c-3.599,0-5.604,3-5.604,6.201c0,2.799,2.005,6.199,5.604,6.199h24.401v65.6
			c0,3.596,3.804,5.6,7.195,5.6c3.8,0,7.407-2.004,7.407-5.6v-65.6h24.396C115.402,54.604,117.406,51.203,117.406,48.404z"/>
	</g>
</g>
</svg>
