<?xml version="1.0" encoding="utf-8"?>
<!-- Generator: Adobe Illustrator 16.0.0, SVG Export Plug-In . SVG Version: 6.00 Build 0)  -->
<!DOCTYPE svg PUBLIC "-//W3C//DTD SVG 1.1//EN" "http://www.w3.org/Graphics/SVG/1.1/DTD/svg11.dtd">
<svg version="1.1" xmlns="http://www.w3.org/2000/svg" xmlns:xlink="http://www.w3.org/1999/xlink" x="0px" y="0px" width="160px"
	 height="160px" viewBox="0 0 160 160" enable-background="new 0 0 160 160" xml:space="preserve">
<g id="Temps_d_x27_attente">
</g>
<g id="Calque_5">
</g>
<g id="Ardoise">
</g>
<g id="Logos">
	<g>
		<path fill="#0A0082" d="M148.945,80.357c0,37.662-30.997,68.62-68.75,68.62c-38.051,0-69.232-30.782-69.232-68.62
			c0-38.175,31.181-69.543,69.232-69.543C117.949,10.814,148.945,42.385,148.945,80.357 M159.971,80.357
			C159.971,36.003,122.778,0,80.195,0C35.956,0-0.029,36.003-0.029,80.357c0,43.823,35.985,79.643,80.225,79.643
			C124.381,160,159.971,124.596,159.971,80.357"/>
		<path fill="#0A0082" d="M117.433,126.129l-14.751-16.355c0.341-0.23,0.664-0.459,0.905-0.704c2.745-2.19,5.279-5.581,7.131-10.834
			c2.587-7.336,4.43-13.901,4.932-21.983c0.689-9.961-3.415-25.444-6.133-32.659l-0.948-2.56c-0.586-1.613-2.815-5.06-6.794-9.179
			c-3.404-3.536-6.68-3.804-11.671-3.804H69.845c-4.99,0-8.266,0.268-11.675,3.804c-3.965,4.111-6.209,7.565-6.795,9.179
			l-0.941,2.564c-2.726,7.21-6.839,22.693-6.141,32.66c0.51,8.064,2.334,14.611,4.924,21.978c1.865,5.253,4.406,8.644,7.147,10.834
			c0.251,0.241,0.57,0.474,0.913,0.698l-14.759,16.361c-1.196,1.325-1.196,3.495,0,4.817c1.195,1.325,3.143,1.325,4.331,0
			l5.097-5.652h56.059l5.083,5.652c1.207,1.325,3.147,1.325,4.346,0C118.627,129.624,118.627,127.454,117.433,126.129z
			 M52.248,70.268c-1.124-2.927,1.925-22.044,3.966-24.811h47.021c1.953,2.378,6.021,22.148,4.352,24.811H52.248z M58.072,118.506
			l5.434-6.035c2.646,0.606,5.083,0.621,6.863,0.621h19.207c1.778,0,4.218-0.015,6.858-0.621l5.447,6.035H58.072z M57.147,96.249
			c0-2.691,2.188-4.873,4.881-4.873c2.691,0,4.888,2.182,4.888,4.873c0,2.683-2.197,4.871-4.888,4.871
			C59.335,101.12,57.147,98.932,57.147,96.249z M97.548,101.006c-2.694,0-4.885-2.193-4.885-4.878c0-2.687,2.191-4.864,4.885-4.864
			c2.698,0,4.881,2.178,4.881,4.864C102.43,98.813,100.247,101.006,97.548,101.006z"/>
	</g>
</g>
</svg>
