<?xml version="1.0" encoding="iso-8859-1"?>
<!-- Generator: Adobe Illustrator 14.0.0, SVG Export Plug-In . SVG Version: 6.00 Build 43363)  -->
<!DOCTYPE svg PUBLIC "-//W3C//DTD SVG 1.1//EN" "http://www.w3.org/Graphics/SVG/1.1/DTD/svg11.dtd">
<svg version="1.1" id="Calque_1" xmlns="http://www.w3.org/2000/svg" xmlns:xlink="http://www.w3.org/1999/xlink" x="0px" y="0px"
	 width="120px" height="77px" viewBox="0 0 120 77" style="enable-background:new 0 0 120 77;" xml:space="preserve">
<g>
	<rect style="fill-rule:evenodd;clip-rule:evenodd;fill:#0055C8;" width="120" height="77"/>
	<g>
		<g>
			<path style="fill:#FFCE00;" d="M39.6,18.422v6.445H28.393V58.59H20.5V24.867H8.871v-6.445H39.6z"/>
			<path style="fill:#82C8E6;" d="M44.921,31.065l5.945,20.16l5.946-20.16H64.6L54.708,58.59h-7.734l-9.84-27.524H44.921z"/>
			<path style="fill:#82C8E6;" d="M71.49,58.59V31.065h7.366v4.113h0.104c2.315-3.25,4.421-5.129,8.735-4.57
				c3.63,0.457,4.63,1.676,6.734,4.012c1.789-2.438,3.999-4.672,9.997-4.012c5.683,0.813,7.262,4.469,7.262,8.887V58.59h-7.366
				V39.647c-0.105-2.031-1.947-2.793-3.684-2.895c-3.946-0.254-5.366,3.098-5.366,4.977v16.86h-7.367V39.647
				c-0.421-1.93-1.736-2.843-4.052-2.895c-2.578-0.051-4.998,1.574-4.998,4.977v16.86H71.49z"/>
		</g>
	</g>
</g>
</svg>
